<svg xmlns="http://www.w3.org/2000/svg" xmlns:xlink="http://www.w3.org/1999/xlink" width="600" height="400" viewBox="0 0 2400 1600">
<defs>
  <clipPath id="clip850">
    <rect x="0" y="0" width="2400" height="1600"></rect>
  </clipPath>
</defs>
<path clip-path="url(#clip850)" d="M0 1600 L2400 1600 L2400 8.88178e-14 L0 8.88178e-14  Z" fill="#ffffff" fill-rule="evenodd" fill-opacity="1"></path>
<defs>
  <clipPath id="clip851">
    <rect x="480" y="0" width="1681" height="1600"></rect>
  </clipPath>
</defs>
<path clip-path="url(#clip850)" d="M149.191 1486.45 L2352.76 1486.45 L2352.76 47.2441 L149.191 47.2441  Z" fill="#ffffff" fill-rule="evenodd" fill-opacity="1"></path>
<defs>
  <clipPath id="clip852">
    <rect x="149" y="47" width="2205" height="1440"></rect>
  </clipPath>
</defs>
<polyline clip-path="url(#clip852)" style="stroke:#000000; stroke-linecap:round; stroke-linejoin:round; stroke-width:2; stroke-opacity:0.1; fill:none" points="209.475,1486.45 209.475,47.2441 "></polyline>
<polyline clip-path="url(#clip852)" style="stroke:#000000; stroke-linecap:round; stroke-linejoin:round; stroke-width:2; stroke-opacity:0.1; fill:none" points="729.704,1486.45 729.704,47.2441 "></polyline>
<polyline clip-path="url(#clip852)" style="stroke:#000000; stroke-linecap:round; stroke-linejoin:round; stroke-width:2; stroke-opacity:0.1; fill:none" points="1249.93,1486.45 1249.93,47.2441 "></polyline>
<polyline clip-path="url(#clip852)" style="stroke:#000000; stroke-linecap:round; stroke-linejoin:round; stroke-width:2; stroke-opacity:0.1; fill:none" points="1770.16,1486.45 1770.16,47.2441 "></polyline>
<polyline clip-path="url(#clip852)" style="stroke:#000000; stroke-linecap:round; stroke-linejoin:round; stroke-width:2; stroke-opacity:0.1; fill:none" points="2290.39,1486.45 2290.39,47.2441 "></polyline>
<polyline clip-path="url(#clip852)" style="stroke:#000000; stroke-linecap:round; stroke-linejoin:round; stroke-width:2; stroke-opacity:0.1; fill:none" points="149.191,1405.5 2352.76,1405.5 "></polyline>
<polyline clip-path="url(#clip852)" style="stroke:#000000; stroke-linecap:round; stroke-linejoin:round; stroke-width:2; stroke-opacity:0.1; fill:none" points="149.191,1035.26 2352.76,1035.26 "></polyline>
<polyline clip-path="url(#clip852)" style="stroke:#000000; stroke-linecap:round; stroke-linejoin:round; stroke-width:2; stroke-opacity:0.1; fill:none" points="149.191,665.014 2352.76,665.014 "></polyline>
<polyline clip-path="url(#clip852)" style="stroke:#000000; stroke-linecap:round; stroke-linejoin:round; stroke-width:2; stroke-opacity:0.1; fill:none" points="149.191,294.771 2352.76,294.771 "></polyline>
<polyline clip-path="url(#clip850)" style="stroke:#000000; stroke-linecap:round; stroke-linejoin:round; stroke-width:4; stroke-opacity:1; fill:none" points="149.191,1486.45 2352.76,1486.45 "></polyline>
<polyline clip-path="url(#clip850)" style="stroke:#000000; stroke-linecap:round; stroke-linejoin:round; stroke-width:4; stroke-opacity:1; fill:none" points="209.475,1486.45 209.475,1467.55 "></polyline>
<polyline clip-path="url(#clip850)" style="stroke:#000000; stroke-linecap:round; stroke-linejoin:round; stroke-width:4; stroke-opacity:1; fill:none" points="729.704,1486.45 729.704,1467.55 "></polyline>
<polyline clip-path="url(#clip850)" style="stroke:#000000; stroke-linecap:round; stroke-linejoin:round; stroke-width:4; stroke-opacity:1; fill:none" points="1249.93,1486.45 1249.93,1467.55 "></polyline>
<polyline clip-path="url(#clip850)" style="stroke:#000000; stroke-linecap:round; stroke-linejoin:round; stroke-width:4; stroke-opacity:1; fill:none" points="1770.16,1486.45 1770.16,1467.55 "></polyline>
<polyline clip-path="url(#clip850)" style="stroke:#000000; stroke-linecap:round; stroke-linejoin:round; stroke-width:4; stroke-opacity:1; fill:none" points="2290.39,1486.45 2290.39,1467.55 "></polyline>
<path clip-path="url(#clip850)" d="M209.475 1517.37 Q205.864 1517.37 204.035 1520.93 Q202.23 1524.47 202.23 1531.6 Q202.23 1538.71 204.035 1542.27 Q205.864 1545.82 209.475 1545.82 Q213.109 1545.82 214.915 1542.27 Q216.743 1538.71 216.743 1531.6 Q216.743 1524.47 214.915 1520.93 Q213.109 1517.37 209.475 1517.37 M209.475 1513.66 Q215.285 1513.66 218.341 1518.27 Q221.419 1522.85 221.419 1531.6 Q221.419 1540.33 218.341 1544.94 Q215.285 1549.52 209.475 1549.52 Q203.665 1549.52 200.586 1544.94 Q197.531 1540.33 197.531 1531.6 Q197.531 1522.85 200.586 1518.27 Q203.665 1513.66 209.475 1513.66 Z" fill="#000000" fill-rule="nonzero" fill-opacity="1"></path><path clip-path="url(#clip850)" d="M693.396 1544.91 L709.716 1544.91 L709.716 1548.85 L687.771 1548.85 L687.771 1544.91 Q690.433 1542.16 695.017 1537.53 Q699.623 1532.88 700.804 1531.53 Q703.049 1529.01 703.929 1527.27 Q704.831 1525.51 704.831 1523.82 Q704.831 1521.07 702.887 1519.33 Q700.966 1517.6 697.864 1517.6 Q695.665 1517.6 693.211 1518.36 Q690.781 1519.13 688.003 1520.68 L688.003 1515.95 Q690.827 1514.82 693.281 1514.24 Q695.734 1513.66 697.771 1513.66 Q703.142 1513.66 706.336 1516.35 Q709.53 1519.03 709.53 1523.52 Q709.53 1525.65 708.72 1527.57 Q707.933 1529.47 705.827 1532.07 Q705.248 1532.74 702.146 1535.95 Q699.044 1539.15 693.396 1544.91 Z" fill="#000000" fill-rule="nonzero" fill-opacity="1"></path><path clip-path="url(#clip850)" d="M719.577 1514.29 L737.933 1514.29 L737.933 1518.22 L723.859 1518.22 L723.859 1526.7 Q724.878 1526.35 725.896 1526.19 Q726.915 1526 727.933 1526 Q733.72 1526 737.1 1529.17 Q740.479 1532.34 740.479 1537.76 Q740.479 1543.34 737.007 1546.44 Q733.535 1549.52 727.216 1549.52 Q725.04 1549.52 722.771 1549.15 Q720.526 1548.78 718.118 1548.04 L718.118 1543.34 Q720.202 1544.47 722.424 1545.03 Q724.646 1545.58 727.123 1545.58 Q731.128 1545.58 733.466 1543.48 Q735.803 1541.37 735.803 1537.76 Q735.803 1534.15 733.466 1532.04 Q731.128 1529.94 727.123 1529.94 Q725.248 1529.94 723.373 1530.35 Q721.521 1530.77 719.577 1531.65 L719.577 1514.29 Z" fill="#000000" fill-rule="nonzero" fill-opacity="1"></path><path clip-path="url(#clip850)" d="M759.692 1517.37 Q756.081 1517.37 754.252 1520.93 Q752.447 1524.47 752.447 1531.6 Q752.447 1538.71 754.252 1542.27 Q756.081 1545.82 759.692 1545.82 Q763.326 1545.82 765.132 1542.27 Q766.961 1538.71 766.961 1531.6 Q766.961 1524.47 765.132 1520.93 Q763.326 1517.37 759.692 1517.37 M759.692 1513.66 Q765.502 1513.66 768.558 1518.27 Q771.637 1522.85 771.637 1531.6 Q771.637 1540.33 768.558 1544.94 Q765.502 1549.52 759.692 1549.52 Q753.882 1549.52 750.803 1544.94 Q747.748 1540.33 747.748 1531.6 Q747.748 1522.85 750.803 1518.27 Q753.882 1513.66 759.692 1513.66 Z" fill="#000000" fill-rule="nonzero" fill-opacity="1"></path><path clip-path="url(#clip850)" d="M1209.55 1514.29 L1227.91 1514.29 L1227.91 1518.22 L1213.83 1518.22 L1213.83 1526.7 Q1214.85 1526.35 1215.87 1526.19 Q1216.89 1526 1217.91 1526 Q1223.69 1526 1227.07 1529.17 Q1230.45 1532.34 1230.45 1537.76 Q1230.45 1543.34 1226.98 1546.44 Q1223.51 1549.52 1217.19 1549.52 Q1215.01 1549.52 1212.75 1549.15 Q1210.5 1548.78 1208.09 1548.04 L1208.09 1543.34 Q1210.18 1544.47 1212.4 1545.03 Q1214.62 1545.58 1217.1 1545.58 Q1221.1 1545.58 1223.44 1543.48 Q1225.78 1541.37 1225.78 1537.76 Q1225.78 1534.15 1223.44 1532.04 Q1221.1 1529.94 1217.1 1529.94 Q1215.22 1529.94 1213.35 1530.35 Q1211.5 1530.77 1209.55 1531.65 L1209.55 1514.29 Z" fill="#000000" fill-rule="nonzero" fill-opacity="1"></path><path clip-path="url(#clip850)" d="M1249.67 1517.37 Q1246.06 1517.37 1244.23 1520.93 Q1242.42 1524.47 1242.42 1531.6 Q1242.42 1538.71 1244.23 1542.27 Q1246.06 1545.82 1249.67 1545.82 Q1253.3 1545.82 1255.11 1542.27 Q1256.94 1538.71 1256.94 1531.6 Q1256.94 1524.47 1255.11 1520.93 Q1253.3 1517.37 1249.67 1517.37 M1249.67 1513.66 Q1255.48 1513.66 1258.53 1518.27 Q1261.61 1522.85 1261.61 1531.6 Q1261.61 1540.33 1258.53 1544.94 Q1255.48 1549.52 1249.67 1549.52 Q1243.86 1549.52 1240.78 1544.94 Q1237.72 1540.33 1237.72 1531.6 Q1237.72 1522.85 1240.78 1518.27 Q1243.86 1513.66 1249.67 1513.66 Z" fill="#000000" fill-rule="nonzero" fill-opacity="1"></path><path clip-path="url(#clip850)" d="M1279.83 1517.37 Q1276.22 1517.37 1274.39 1520.93 Q1272.58 1524.47 1272.58 1531.6 Q1272.58 1538.71 1274.39 1542.27 Q1276.22 1545.82 1279.83 1545.82 Q1283.46 1545.82 1285.27 1542.27 Q1287.1 1538.71 1287.1 1531.6 Q1287.1 1524.47 1285.27 1520.93 Q1283.46 1517.37 1279.83 1517.37 M1279.83 1513.66 Q1285.64 1513.66 1288.69 1518.27 Q1291.77 1522.85 1291.77 1531.6 Q1291.77 1540.33 1288.69 1544.94 Q1285.64 1549.52 1279.83 1549.52 Q1274.02 1549.52 1270.94 1544.94 Q1267.88 1540.33 1267.88 1531.6 Q1267.88 1522.85 1270.94 1518.27 Q1274.02 1513.66 1279.83 1513.66 Z" fill="#000000" fill-rule="nonzero" fill-opacity="1"></path><path clip-path="url(#clip850)" d="M1728.44 1514.29 L1750.66 1514.29 L1750.66 1516.28 L1738.11 1548.85 L1733.23 1548.85 L1745.03 1518.22 L1728.44 1518.22 L1728.44 1514.29 Z" fill="#000000" fill-rule="nonzero" fill-opacity="1"></path><path clip-path="url(#clip850)" d="M1759.83 1514.29 L1778.18 1514.29 L1778.18 1518.22 L1764.11 1518.22 L1764.11 1526.7 Q1765.13 1526.35 1766.15 1526.19 Q1767.16 1526 1768.18 1526 Q1773.97 1526 1777.35 1529.17 Q1780.73 1532.34 1780.73 1537.76 Q1780.73 1543.34 1777.26 1546.44 Q1773.78 1549.52 1767.47 1549.52 Q1765.29 1549.52 1763.02 1549.15 Q1760.78 1548.78 1758.37 1548.04 L1758.37 1543.34 Q1760.45 1544.47 1762.67 1545.03 Q1764.9 1545.58 1767.37 1545.58 Q1771.38 1545.58 1773.72 1543.48 Q1776.05 1541.37 1776.05 1537.76 Q1776.05 1534.15 1773.72 1532.04 Q1771.38 1529.94 1767.37 1529.94 Q1765.5 1529.94 1763.62 1530.35 Q1761.77 1530.77 1759.83 1531.65 L1759.83 1514.29 Z" fill="#000000" fill-rule="nonzero" fill-opacity="1"></path><path clip-path="url(#clip850)" d="M1799.94 1517.37 Q1796.33 1517.37 1794.5 1520.93 Q1792.7 1524.47 1792.7 1531.6 Q1792.7 1538.71 1794.5 1542.27 Q1796.33 1545.82 1799.94 1545.82 Q1803.58 1545.82 1805.38 1542.27 Q1807.21 1538.71 1807.21 1531.6 Q1807.21 1524.47 1805.38 1520.93 Q1803.58 1517.37 1799.94 1517.37 M1799.94 1513.66 Q1805.75 1513.66 1808.81 1518.27 Q1811.89 1522.85 1811.89 1531.6 Q1811.89 1540.33 1808.81 1544.94 Q1805.75 1549.52 1799.94 1549.52 Q1794.13 1549.52 1791.05 1544.94 Q1788 1540.33 1788 1531.6 Q1788 1522.85 1791.05 1518.27 Q1794.13 1513.66 1799.94 1513.66 Z" fill="#000000" fill-rule="nonzero" fill-opacity="1"></path><path clip-path="url(#clip850)" d="M2234.92 1544.91 L2242.56 1544.91 L2242.56 1518.55 L2234.25 1520.21 L2234.25 1515.95 L2242.51 1514.29 L2247.19 1514.29 L2247.19 1544.91 L2254.82 1544.91 L2254.82 1548.85 L2234.92 1548.85 L2234.92 1544.91 Z" fill="#000000" fill-rule="nonzero" fill-opacity="1"></path><path clip-path="url(#clip850)" d="M2274.27 1517.37 Q2270.66 1517.37 2268.83 1520.93 Q2267.02 1524.47 2267.02 1531.6 Q2267.02 1538.71 2268.83 1542.27 Q2270.66 1545.82 2274.27 1545.82 Q2277.9 1545.82 2279.71 1542.27 Q2281.54 1538.71 2281.54 1531.6 Q2281.54 1524.47 2279.71 1520.93 Q2277.9 1517.37 2274.27 1517.37 M2274.27 1513.66 Q2280.08 1513.66 2283.13 1518.27 Q2286.21 1522.85 2286.21 1531.6 Q2286.21 1540.33 2283.13 1544.94 Q2280.08 1549.52 2274.27 1549.52 Q2268.46 1549.52 2265.38 1544.94 Q2262.32 1540.33 2262.32 1531.6 Q2262.32 1522.85 2265.38 1518.27 Q2268.46 1513.66 2274.27 1513.66 Z" fill="#000000" fill-rule="nonzero" fill-opacity="1"></path><path clip-path="url(#clip850)" d="M2304.43 1517.37 Q2300.82 1517.37 2298.99 1520.93 Q2297.18 1524.47 2297.18 1531.6 Q2297.18 1538.71 2298.99 1542.27 Q2300.82 1545.82 2304.43 1545.82 Q2308.06 1545.82 2309.87 1542.27 Q2311.7 1538.71 2311.7 1531.6 Q2311.7 1524.47 2309.87 1520.93 Q2308.06 1517.37 2304.43 1517.37 M2304.43 1513.66 Q2310.24 1513.66 2313.3 1518.27 Q2316.37 1522.85 2316.37 1531.6 Q2316.37 1540.33 2313.3 1544.94 Q2310.24 1549.52 2304.43 1549.52 Q2298.62 1549.52 2295.54 1544.94 Q2292.49 1540.33 2292.49 1531.6 Q2292.49 1522.85 2295.54 1518.27 Q2298.62 1513.66 2304.43 1513.66 Z" fill="#000000" fill-rule="nonzero" fill-opacity="1"></path><path clip-path="url(#clip850)" d="M2334.59 1517.37 Q2330.98 1517.37 2329.15 1520.93 Q2327.35 1524.47 2327.35 1531.6 Q2327.35 1538.71 2329.15 1542.27 Q2330.98 1545.82 2334.59 1545.82 Q2338.23 1545.82 2340.03 1542.27 Q2341.86 1538.71 2341.86 1531.6 Q2341.86 1524.47 2340.03 1520.93 Q2338.23 1517.37 2334.59 1517.37 M2334.59 1513.66 Q2340.4 1513.66 2343.46 1518.27 Q2346.54 1522.85 2346.54 1531.6 Q2346.54 1540.33 2343.46 1544.94 Q2340.4 1549.52 2334.59 1549.52 Q2328.78 1549.52 2325.7 1544.94 Q2322.65 1540.33 2322.65 1531.6 Q2322.65 1522.85 2325.7 1518.27 Q2328.78 1513.66 2334.59 1513.66 Z" fill="#000000" fill-rule="nonzero" fill-opacity="1"></path><polyline clip-path="url(#clip850)" style="stroke:#000000; stroke-linecap:round; stroke-linejoin:round; stroke-width:4; stroke-opacity:1; fill:none" points="149.191,1486.45 149.191,47.2441 "></polyline>
<polyline clip-path="url(#clip850)" style="stroke:#000000; stroke-linecap:round; stroke-linejoin:round; stroke-width:4; stroke-opacity:1; fill:none" points="149.191,1405.5 168.089,1405.5 "></polyline>
<polyline clip-path="url(#clip850)" style="stroke:#000000; stroke-linecap:round; stroke-linejoin:round; stroke-width:4; stroke-opacity:1; fill:none" points="149.191,1035.26 168.089,1035.26 "></polyline>
<polyline clip-path="url(#clip850)" style="stroke:#000000; stroke-linecap:round; stroke-linejoin:round; stroke-width:4; stroke-opacity:1; fill:none" points="149.191,665.014 168.089,665.014 "></polyline>
<polyline clip-path="url(#clip850)" style="stroke:#000000; stroke-linecap:round; stroke-linejoin:round; stroke-width:4; stroke-opacity:1; fill:none" points="149.191,294.771 168.089,294.771 "></polyline>
<path clip-path="url(#clip850)" d="M50.9921 1405.95 L80.6679 1405.95 L80.6679 1409.89 L50.9921 1409.89 L50.9921 1405.95 Z" fill="#000000" fill-rule="nonzero" fill-opacity="1"></path><path clip-path="url(#clip850)" d="M103.608 1392.3 L91.8021 1410.74 L103.608 1410.74 L103.608 1392.3 M102.381 1388.22 L108.26 1388.22 L108.26 1410.74 L113.191 1410.74 L113.191 1414.63 L108.26 1414.63 L108.26 1422.78 L103.608 1422.78 L103.608 1414.63 L88.0058 1414.63 L88.0058 1410.12 L102.381 1388.22 Z" fill="#000000" fill-rule="nonzero" fill-opacity="1"></path><path clip-path="url(#clip850)" d="M53.0754 1035.71 L82.7512 1035.71 L82.7512 1039.64 L53.0754 1039.64 L53.0754 1035.71 Z" fill="#000000" fill-rule="nonzero" fill-opacity="1"></path><path clip-path="url(#clip850)" d="M96.8715 1048.6 L113.191 1048.6 L113.191 1052.54 L91.2465 1052.54 L91.2465 1048.6 Q93.9086 1045.85 98.4919 1041.22 Q103.098 1036.57 104.279 1035.22 Q106.524 1032.7 107.404 1030.96 Q108.307 1029.2 108.307 1027.52 Q108.307 1024.76 106.362 1023.02 Q104.441 1021.29 101.339 1021.29 Q99.14 1021.29 96.6863 1022.05 Q94.2558 1022.82 91.478 1024.37 L91.478 1019.64 Q94.3021 1018.51 96.7558 1017.93 Q99.2095 1017.35 101.246 1017.35 Q106.617 1017.35 109.811 1020.04 Q113.006 1022.72 113.006 1027.21 Q113.006 1029.34 112.196 1031.26 Q111.408 1033.16 109.302 1035.76 Q108.723 1036.43 105.621 1039.64 Q102.52 1042.84 96.8715 1048.6 Z" fill="#000000" fill-rule="nonzero" fill-opacity="1"></path><path clip-path="url(#clip850)" d="M101.246 650.813 Q97.6354 650.813 95.8067 654.378 Q94.0012 657.919 94.0012 665.049 Q94.0012 672.155 95.8067 675.72 Q97.6354 679.262 101.246 679.262 Q104.881 679.262 106.686 675.72 Q108.515 672.155 108.515 665.049 Q108.515 657.919 106.686 654.378 Q104.881 650.813 101.246 650.813 M101.246 647.109 Q107.057 647.109 110.112 651.716 Q113.191 656.299 113.191 665.049 Q113.191 673.776 110.112 678.382 Q107.057 682.966 101.246 682.966 Q95.4363 682.966 92.3576 678.382 Q89.3021 673.776 89.3021 665.049 Q89.3021 656.299 92.3576 651.716 Q95.4363 647.109 101.246 647.109 Z" fill="#000000" fill-rule="nonzero" fill-opacity="1"></path><path clip-path="url(#clip850)" d="M96.8715 308.115 L113.191 308.115 L113.191 312.051 L91.2465 312.051 L91.2465 308.115 Q93.9086 305.361 98.4919 300.731 Q103.098 296.078 104.279 294.736 Q106.524 292.213 107.404 290.477 Q108.307 288.717 108.307 287.028 Q108.307 284.273 106.362 282.537 Q104.441 280.801 101.339 280.801 Q99.14 280.801 96.6863 281.565 Q94.2558 282.328 91.478 283.879 L91.478 279.157 Q94.3021 278.023 96.7558 277.444 Q99.2095 276.866 101.246 276.866 Q106.617 276.866 109.811 279.551 Q113.006 282.236 113.006 286.727 Q113.006 288.856 112.196 290.777 Q111.408 292.676 109.302 295.268 Q108.723 295.94 105.621 299.157 Q102.52 302.352 96.8715 308.115 Z" fill="#000000" fill-rule="nonzero" fill-opacity="1"></path><polyline clip-path="url(#clip852)" style="stroke:#009af9; stroke-linecap:round; stroke-linejoin:round; stroke-width:4; stroke-opacity:1; fill:none" points="211.556,605.076 213.637,429.268 215.718,828.908 217.799,833.59 219.88,979.703 221.96,736.303 224.041,905.076 226.122,785.553 228.203,669.367 230.284,755.306 232.365,790.8 234.446,596.95 236.527,693.542 238.608,843.468 240.689,383.754 242.77,709.456 244.851,560.623 246.931,562.402 249.012,759.405 251.093,913.639 253.174,722.529 255.255,656.684 257.336,329.622 259.417,588.619 261.498,1172.33 263.579,712.119 265.66,400.054 267.741,540.027 269.822,500.044 271.902,745.64 273.983,488.98 276.064,309.477 278.145,253.539 280.226,301.925 282.307,267.006 284.388,421.806 286.469,399.951 288.55,373.588 290.631,868.463 292.712,564.735 294.793,697.245 296.873,738.542 298.954,744.275 301.035,1025.16 303.116,851.929 305.197,891.591 307.278,765.09 309.359,540.427 311.44,610.924 313.521,683.828 315.602,774.283 317.683,752.073 319.764,775.845 321.844,745.383 323.925,530.102 326.006,396.173 328.087,336.377 330.168,395.615 332.249,729.206 334.33,683.702 336.411,714.347 338.492,713.263 340.573,396.893 342.654,569.363 344.735,748.557 346.815,651.499 348.896,768.48 350.977,426.566 353.058,721.995 355.139,660.284 357.22,318.048 359.301,586.858 361.382,685.482 363.463,688.619 365.544,758.367 367.625,920.37 369.706,770.302 371.786,780.91 373.867,724.003 375.948,706.239 378.029,959.794 380.11,940.468 382.191,832.649 384.272,671.905 386.353,369.62 388.434,615.258 390.515,683.528 392.596,281.316 394.677,629.864 396.757,731.363 398.838,825.437 400.919,473.58 403,293.942 405.081,591.195 407.162,555.419 409.243,631.655 411.324,816.9 413.405,433.204 415.486,572.355 417.567,379.277 419.648,578.647 421.728,520.506 423.809,814.064 425.89,1118.49 427.971,690.784 430.052,781.412 432.133,827.133 434.214,424.306 436.295,446.405 438.376,872.909 440.457,738.553 442.538,758.063 444.618,629.328 446.699,512.134 448.78,423.935 450.861,690.536 452.942,556.458 455.023,553.147 457.104,859.627 459.185,554.727 461.266,622.545 463.347,463.899 465.428,569.987 467.509,491.444 469.589,651.507 471.67,387.489 473.751,552.287 475.832,848.017 477.913,499.814 479.994,613.612 482.075,894.55 484.156,640.362 486.237,745.651 488.318,391.186 490.399,494.988 492.48,281.068 494.56,341.967 496.641,565.81 498.722,909.71 500.803,674.002 502.884,789.26 504.965,695.138 507.046,1178.6 509.127,798.457 511.208,707.456 513.289,712.013 515.37,670.349 517.451,626.307 519.531,768.606 521.612,572.415 523.693,713.873 525.774,773.552 527.855,588.666 529.936,703.012 532.017,905.191 534.098,690.055 536.179,490.901 538.26,301.528 540.341,553.032 542.422,459.312 544.502,884.487 546.583,728.087 548.664,749.37 550.745,652.11 552.826,460.948 554.907,360.927 556.988,431.906 559.069,258.228 561.15,318.854 563.231,592.275 565.312,512.306 567.393,757.742 569.473,906.72 571.554,566.636 573.635,87.9763 575.716,375.086 577.797,805.102 579.878,837.334 581.959,743.529 584.04,612.663 586.121,614.225 588.202,960.739 590.283,728.053 592.364,640.996 594.444,616.108 596.525,721.534 598.606,659.602 600.687,359.87 602.768,350.637 604.849,688.041 606.93,646.428 609.011,644.229 611.092,777.439 613.173,460.069 615.254,350.679 617.335,465.617 619.415,756.052 621.496,464.627 623.577,690.743 625.658,802.226 627.739,663.459 629.82,546.331 631.901,442.731 633.982,425.614 636.063,642.397 638.144,463.392 640.225,603.935 642.305,644.755 644.386,767.851 646.467,714.154 648.548,397.887 650.629,514.71 652.71,599.88 654.791,499.444 656.872,672.666 658.953,645.267 661.034,447.504 663.115,704.571 665.196,483.121 667.276,516.28 669.357,568.34 671.438,589.132 673.519,775.517 675.6,506.781 677.681,377.083 679.762,266.761 681.843,440.065 683.924,542.342 686.005,390.325 688.086,372.636 690.167,557.816 692.247,408.331 694.328,915.465 696.409,856.904 698.49,882.169 700.571,621.795 702.652,531.965 704.733,362.344 706.814,658.155 708.895,772.692 710.976,667.736 713.057,543.004 715.138,481.524 717.218,771.421 719.299,671.187 721.38,767.406 723.461,545.831 725.542,740.179 727.623,572.726 729.704,554.967 731.785,575.929 733.866,507.5 735.947,379.553 738.028,348.095 740.109,649.395 742.189,458.4 744.27,510.011 746.351,750.259 748.432,898.544 750.513,500.466 752.594,637.915 754.675,706.631 756.756,579.799 758.837,370.966 760.918,279.818 762.999,637.423 765.08,453.118 767.16,859.884 769.241,1078.77 771.322,772.795 773.403,770.145 775.484,1108.22 777.565,823.443 779.646,633.772 781.727,870.588 783.808,908.525 785.889,945.111 787.97,691.57 790.051,642.803 792.131,808.546 794.212,779.726 796.293,747.578 798.374,491.63 800.455,388.168 802.536,402.184 804.617,400.838 806.698,422.172 808.779,476.698 810.86,492.604 812.941,622.741 815.022,511.97 817.102,636.507 819.183,238.219 821.264,749.395 823.345,841.564 825.426,379.896 827.507,490.13 829.588,479.24 831.669,423.333 833.75,522.634 835.831,591.53 837.912,860.423 839.993,540.666 842.073,321.626 844.154,620.981 846.235,774.671 848.316,832.475 850.397,885.286 852.478,885.32 854.559,748.303 856.64,717.045 858.721,708.539 860.802,903.912 862.883,693.072 864.963,490.018 867.044,702.732 869.125,771.622 871.206,749.061 873.287,646.137 875.368,679.924 877.449,664.297 879.53,607.109 881.611,832.192 883.692,542.89 885.773,777.292 887.854,559.16 889.934,619.763 892.015,556.714 894.096,723.389 896.177,713.355 898.258,973.891 900.339,699.848 902.42,452.954 904.501,699.848 906.582,783.283 908.663,842.649 910.744,990.391 912.825,459.915 914.905,852.71 916.986,732.39 919.067,617.284 921.148,907.617 923.229,661.267 925.31,582.575 927.391,682.877 929.472,721.46 931.553,513.054 933.634,696.909 935.715,776.284 937.796,618.785 939.876,256.38 941.957,416.147 944.038,440.077 946.119,597.046 948.2,326.491 950.281,645.072 952.362,587.733 954.443,390.436 956.524,446.627 958.605,911.957 960.686,591.899 962.767,598.82 964.847,732.396 966.928,792.374 969.009,568.68 971.09,386.702 973.171,402.997 975.252,373.75 977.333,409.552 979.414,707.599 981.495,534.164 983.576,586.787 985.657,496.506 987.738,613.355 989.818,556.032 991.899,461.005 993.98,483.933 996.061,561.14 998.142,701.271 1000.22,492.752 1002.3,676.004 1004.38,865.935 1006.47,1027.56 1008.55,953.323 1010.63,768.12 1012.71,552.095 1014.79,696.63 1016.87,587.088 1018.95,806.289 1021.03,623.226 1023.11,1115.28 1025.19,1323.33 1027.27,1291.81 1029.36,673.779 1031.44,537.772 1033.52,115.993 1035.6,575.01 1037.68,805.866 1039.76,433.326 1041.84,520.676 1043.92,326.385 1046,496.449 1048.08,932.527 1050.17,716.099 1052.25,662.328 1054.33,699.947 1056.41,673.851 1058.49,457.971 1060.57,537.402 1062.65,557.905 1064.73,575.703 1066.81,738.203 1068.89,781.227 1070.97,748.764 1073.06,345.431 1075.14,611.318 1077.22,603.882 1079.3,320.072 1081.38,185.688 1083.46,450.173 1085.54,676.664 1087.62,858.292 1089.7,592.153 1091.78,628.495 1093.86,405.676 1095.95,584.061 1098.03,548.017 1100.11,765.748 1102.19,649.175 1104.27,532.751 1106.35,398.279 1108.43,839.665 1110.51,433.277 1112.59,599.596 1114.67,557.149 1116.75,524.744 1118.84,583.872 1120.92,650.118 1123,725.341 1125.08,633.257 1127.16,763.704 1129.24,815.142 1131.32,870.506 1133.4,389.097 1135.48,507.925 1137.56,181.627 1139.64,204.981 1141.73,453.321 1143.81,297.686 1145.89,225.672 1147.97,607.356 1150.05,571.753 1152.13,855.544 1154.21,1088.73 1156.29,852.621 1158.37,555.172 1160.45,482.844 1162.53,578.969 1164.62,749.079 1166.7,496.301 1168.78,448.588 1170.86,527.464 1172.94,614.2 1175.02,749.556 1177.1,950.257 1179.18,1023.96 1181.26,853.975 1183.34,612.92 1185.42,433.175 1187.51,401.178 1189.59,485.768 1191.67,442.194 1193.75,370.294 1195.83,802.304 1197.91,429.506 1199.99,749.377 1202.07,789.142 1204.15,799.341 1206.23,644.46 1208.31,922.809 1210.4,794.713 1212.48,802.697 1214.56,909.369 1216.64,934.087 1218.72,703.511 1220.8,475.505 1222.88,563.008 1224.96,907.926 1227.04,703.919 1229.12,782.89 1231.2,649.053 1233.29,806.598 1235.37,594.715 1237.45,681.701 1239.53,782.115 1241.61,862.45 1243.69,716.483 1245.77,737.22 1247.85,803.519 1249.93,664.371 1252.01,641.034 1254.09,901.223 1256.18,1045.95 1258.26,617.996 1260.34,371.461 1262.42,597.008 1264.5,332.266 1266.58,484.045 1268.66,678.953 1270.74,788.426 1272.82,1038.88 1274.9,838.893 1276.98,799.392 1279.07,852.149 1281.15,598.162 1283.23,642.678 1285.31,650.596 1287.39,966.698 1289.47,426.876 1291.55,684.42 1293.63,669.33 1295.71,498.206 1297.79,223.237 1299.87,421.625 1301.96,667.637 1304.04,229.387 1306.12,344.525 1308.2,600.837 1310.28,477.436 1312.36,415.893 1314.44,675.374 1316.52,945.257 1318.6,789.594 1320.68,768.254 1322.76,998.445 1324.85,509.988 1326.93,496.987 1329.01,266.189 1331.09,466.818 1333.17,848.832 1335.25,795.067 1337.33,775.151 1339.41,787.657 1341.49,1141.52 1343.57,769.544 1345.66,249.952 1347.74,552.288 1349.82,465.09 1351.9,623.765 1353.98,1064.88 1356.06,1263.8 1358.14,1016 1360.22,608.129 1362.3,582.225 1364.38,702.146 1366.46,916.746 1368.55,767.799 1370.63,507.909 1372.71,641.401 1374.79,590.263 1376.87,944.321 1378.95,808.953 1381.03,1073.23 1383.11,1202.8 1385.19,1381.49 1387.27,932.402 1389.35,768.965 1391.44,415.159 1393.52,316.474 1395.6,396.014 1397.68,630.222 1399.76,695.07 1401.84,796.646 1403.92,548.564 1406,951.241 1408.08,1138.99 1410.16,637.87 1412.24,447.512 1414.33,624.556 1416.41,739.223 1418.49,675.337 1420.57,446.702 1422.65,594.042 1424.73,611.157 1426.81,426.265 1428.89,753.061 1430.97,907.077 1433.05,801.674 1435.13,890.979 1437.22,592.335 1439.3,851.112 1441.38,548.387 1443.46,347.753 1445.54,691.512 1447.62,778.212 1449.7,659.475 1451.78,875.056 1453.86,609.088 1455.94,702.04 1458.02,1105.81 1460.11,1033.01 1462.19,1074.67 1464.27,837.829 1466.35,1017.92 1468.43,686.236 1470.51,1057.65 1472.59,525.379 1474.67,564.612 1476.75,752.519 1478.83,978.45 1480.91,861.976 1483,1040.16 1485.08,778.134 1487.16,843.401 1489.24,683.138 1491.32,736.622 1493.4,779.96 1495.48,862.696 1497.56,892.429 1499.64,801.607 1501.72,836.515 1503.8,711.119 1505.89,590.419 1507.97,982.281 1510.05,857.116 1512.13,750.169 1514.21,671.145 1516.29,705.104 1518.37,705.241 1520.45,866.003 1522.53,766.801 1524.61,596.5 1526.69,497.048 1528.78,274.563 1530.86,428.651 1532.94,837.237 1535.02,591.647 1537.1,711.174 1539.18,740.365 1541.26,800.352 1543.34,615.98 1545.42,617.19 1547.5,564.447 1549.58,858.842 1551.67,911.728 1553.75,600.722 1555.83,548.529 1557.91,861.751 1559.99,889.041 1562.07,626.207 1564.15,655.802 1566.23,812.602 1568.31,478.926 1570.39,507.323 1572.47,247.387 1574.56,694.826 1576.64,620.87 1578.72,658.684 1580.8,496.374 1582.88,922.076 1584.96,1017.13 1587.04,727.352 1589.12,760.482 1591.2,711.701 1593.28,881.511 1595.36,1013.54 1597.45,976.463 1599.53,704.346 1601.61,689.422 1603.69,677.975 1605.77,577.955 1607.85,563.728 1609.93,288.164 1612.01,704.633 1614.09,613.537 1616.17,571.753 1618.26,642.782 1620.34,438.111 1622.42,912.841 1624.5,593.961 1626.58,549.164 1628.66,442.524 1630.74,381.261 1632.82,633.408 1634.9,675.124 1636.98,670.881 1639.06,674.856 1641.15,869.02 1643.23,1092.94 1645.31,810.65 1647.39,656.105 1649.47,274.134 1651.55,312.618 1653.63,736.464 1655.71,823.436 1657.79,1106.01 1659.87,932.837 1661.95,937.66 1664.04,794.395 1666.12,872.861 1668.2,854.702 1670.28,714.256 1672.36,599.313 1674.44,815.422 1676.52,804.256 1678.6,649.532 1680.68,690.098 1682.76,403.379 1684.84,802.511 1686.93,788.461 1689.01,904.968 1691.09,664.475 1693.17,589.844 1695.25,566.939 1697.33,611.993 1699.41,633.446 1701.49,751.323 1703.57,431.754 1705.65,706.733 1707.73,1154.1 1709.82,664.279 1711.9,651.287 1713.98,552.289 1716.06,707.056 1718.14,675.896 1720.22,458.173 1722.3,679.94 1724.38,924.579 1726.46,670.596 1728.54,964.923 1730.62,1267.28 1732.71,1053.75 1734.79,740.146 1736.87,613.006 1738.95,796.819 1741.03,521.037 1743.11,463.816 1745.19,723.511 1747.27,552.892 1749.35,582.727 1751.43,823.382 1753.51,940.7 1755.6,910.871 1757.68,721.438 1759.76,853.808 1761.84,711.045 1763.92,560.057 1766,758.242 1768.08,750.05 1770.16,397.295 1772.24,318.336 1774.32,226.499 1776.4,382.858 1778.49,652.691 1780.57,736.889 1782.65,376.05 1784.73,763.868 1786.81,808.417 1788.89,878.355 1790.97,445.665 1793.05,773.55 1795.13,608.725 1797.21,716.143 1799.29,474.504 1801.38,479.586 1803.46,810.436 1805.54,908.413 1807.62,764.275 1809.7,590.36 1811.78,377.119 1813.86,515.225 1815.94,400.167 1818.02,895.144 1820.1,744.931 1822.18,818.023 1824.27,935.025 1826.35,561.681 1828.43,505.563 1830.51,739.414 1832.59,479.046 1834.67,619.842 1836.75,581.861 1838.83,748.602 1840.91,557.032 1842.99,577.014 1845.07,998.893 1847.16,895.137 1849.24,826.124 1851.32,553.603 1853.4,432.861 1855.48,858.328 1857.56,761.102 1859.64,513.65 1861.72,559.854 1863.8,806.153 1865.88,1028.1 1867.96,858.084 1870.05,763.709 1872.13,586.546 1874.21,693.984 1876.29,909.739 1878.37,679.292 1880.45,675.441 1882.53,464.934 1884.61,480.615 1886.69,508.971 1888.77,686.065 1890.86,498.534 1892.94,635.184 1895.02,951.929 1897.1,989.414 1899.18,985.573 1901.26,689.823 1903.34,561.597 1905.42,560.164 1907.5,154.9 1909.58,444.636 1911.66,424.607 1913.75,655.852 1915.83,518.573 1917.91,93.3636 1919.99,559.591 1922.07,519.915 1924.15,862.831 1926.23,841.613 1928.31,657.5 1930.39,960.635 1932.47,897.369 1934.55,670.754 1936.64,599.521 1938.72,513.306 1940.8,561.823 1942.88,489.186 1944.96,371.407 1947.04,670.912 1949.12,993.186 1951.2,827.382 1953.28,716.786 1955.36,823.189 1957.44,586.825 1959.53,573.396 1961.61,671.36 1963.69,803.026 1965.77,815.428 1967.85,884.424 1969.93,381.383 1972.01,867.316 1974.09,887.708 1976.17,848.467 1978.25,721.077 1980.33,684.011 1982.42,714.937 1984.5,707.216 1986.58,762.593 1988.66,573.812 1990.74,1081.07 1992.82,1156.47 1994.9,1445.72 1996.98,1223.59 1999.06,534.89 2001.14,456.698 2003.22,439.964 2005.31,776.259 2007.39,453.781 2009.47,677.784 2011.55,669.651 2013.63,685.612 2015.71,483.776 2017.79,588.014 2019.87,841.799 2021.95,716.83 2024.03,838.279 2026.11,966.479 2028.2,1132.48 2030.28,988.356 2032.36,705.319 2034.44,435.998 2036.52,404.194 2038.6,575.517 2040.68,340.504 2042.76,431.881 2044.84,320.081 2046.92,768.856 2049,572.78 2051.09,455.247 2053.17,443.799 2055.25,922.656 2057.33,527.671 2059.41,687.093 2061.49,527.901 2063.57,618.169 2065.65,852.619 2067.73,787.38 2069.81,942.996 2071.89,969.93 2073.98,1171.5 2076.06,863.715 2078.14,759.257 2080.22,461.865 2082.3,433.157 2084.38,589.884 2086.46,358.314 2088.54,666.907 2090.62,752.112 2092.7,666.885 2094.78,812.407 2096.87,756.795 2098.95,766.142 2101.03,738.606 2103.11,1009.51 2105.19,802.772 2107.27,1035.89 2109.35,687.194 2111.43,576.875 2113.51,327.376 2115.59,196.942 2117.67,524.748 2119.76,355.92 2121.84,677.735 2123.92,682.235 2126,596.834 2128.08,411.527 2130.16,799.149 2132.24,930.06 2134.32,891.17 2136.4,590.32 2138.48,665.069 2140.56,588.445 2142.65,616.612 2144.73,733.447 2146.81,631.604 2148.89,834.695 2150.97,820.973 2153.05,716.353 2155.13,1104.2 2157.21,860.242 2159.29,859.016 2161.37,502.686 2163.45,739.232 2165.54,737.555 2167.62,572.974 2169.7,745.991 2171.78,649.698 2173.86,674.025 2175.94,834.787 2178.02,772.75 2180.1,851.758 2182.18,1217.71 2184.26,696.502 2186.35,810.397 2188.43,634.956 2190.51,514.026 2192.59,666.575 2194.67,697.948 2196.75,762.088 2198.83,849.914 2200.91,768.934 2202.99,631.949 2205.07,765.161 2207.15,489.455 2209.24,710.12 2211.32,839.03 2213.4,376.399 2215.48,635.691 2217.56,759.886 2219.64,721.475 2221.72,579.31 2223.8,844.038 2225.88,858.982 2227.96,747.173 2230.04,111.857 2232.13,603.88 2234.21,658.894 2236.29,713.232 2238.37,608.197 2240.45,602.273 2242.53,627.95 2244.61,615.288 2246.69,655.148 2248.77,584.559 2250.85,357.021 2252.93,416.757 2255.02,581.247 2257.1,708.728 2259.18,708.038 2261.26,800.713 2263.34,740.232 2265.42,679.22 2267.5,634.219 2269.58,519.681 2271.66,379.104 2273.74,405.113 2275.82,592.357 2277.91,686.603 2279.99,1080.08 2282.07,668.633 2284.15,696.302 2286.23,699.708 2288.31,467.206 2290.39,366.886 "></polyline>
<path clip-path="url(#clip850)" d="M222.643 1438.47 L495.43 1438.47 L495.43 1334.79 L222.643 1334.79  Z" fill="#ffffff" fill-rule="evenodd" fill-opacity="1"></path>
<polyline clip-path="url(#clip850)" style="stroke:#000000; stroke-linecap:round; stroke-linejoin:round; stroke-width:4; stroke-opacity:1; fill:none" points="222.643,1438.47 495.43,1438.47 495.43,1334.79 222.643,1334.79 222.643,1438.47 "></polyline>
<polyline clip-path="url(#clip850)" style="stroke:#009af9; stroke-linecap:round; stroke-linejoin:round; stroke-width:4; stroke-opacity:1; fill:none" points="247.127,1386.63 394.031,1386.63 "></polyline>
<path clip-path="url(#clip850)" d="M432.358 1406.32 Q430.552 1410.95 428.84 1412.36 Q427.127 1413.78 424.256 1413.78 L420.853 1413.78 L420.853 1410.21 L423.353 1410.21 Q425.113 1410.21 426.085 1409.38 Q427.057 1408.54 428.238 1405.44 L429.002 1403.5 L418.515 1377.99 L423.029 1377.99 L431.131 1398.27 L439.233 1377.99 L443.747 1377.99 L432.358 1406.32 Z" fill="#000000" fill-rule="nonzero" fill-opacity="1"></path><path clip-path="url(#clip850)" d="M451.038 1399.98 L458.677 1399.98 L458.677 1373.61 L450.367 1375.28 L450.367 1371.02 L458.631 1369.35 L463.307 1369.35 L463.307 1399.98 L470.946 1399.98 L470.946 1403.91 L451.038 1403.91 L451.038 1399.98 Z" fill="#000000" fill-rule="nonzero" fill-opacity="1"></path></svg>