<svg xmlns="http://www.w3.org/2000/svg" xmlns:xlink="http://www.w3.org/1999/xlink" width="600" height="400" viewBox="0 0 2400 1600">
<defs>
  <clipPath id="clip770">
    <rect x="0" y="0" width="2400" height="1600"></rect>
  </clipPath>
</defs>
<path clip-path="url(#clip770)" d="M0 1600 L2400 1600 L2400 8.88178e-14 L0 8.88178e-14  Z" fill="#ffffff" fill-rule="evenodd" fill-opacity="1"></path>
<defs>
  <clipPath id="clip771">
    <rect x="480" y="0" width="1681" height="1600"></rect>
  </clipPath>
</defs>
<path clip-path="url(#clip770)" d="M184.191 1486.45 L2352.76 1486.45 L2352.76 123.472 L184.191 123.472  Z" fill="#ffffff" fill-rule="evenodd" fill-opacity="1"></path>
<defs>
  <clipPath id="clip772">
    <rect x="184" y="123" width="2170" height="1364"></rect>
  </clipPath>
</defs>
<polyline clip-path="url(#clip772)" style="stroke:#000000; stroke-linecap:round; stroke-linejoin:round; stroke-width:2; stroke-opacity:0.1; fill:none" points="532.085,1486.45 532.085,123.472 "></polyline>
<polyline clip-path="url(#clip772)" style="stroke:#000000; stroke-linecap:round; stroke-linejoin:round; stroke-width:2; stroke-opacity:0.1; fill:none" points="917.179,1486.45 917.179,123.472 "></polyline>
<polyline clip-path="url(#clip772)" style="stroke:#000000; stroke-linecap:round; stroke-linejoin:round; stroke-width:2; stroke-opacity:0.1; fill:none" points="1302.27,1486.45 1302.27,123.472 "></polyline>
<polyline clip-path="url(#clip772)" style="stroke:#000000; stroke-linecap:round; stroke-linejoin:round; stroke-width:2; stroke-opacity:0.1; fill:none" points="1687.37,1486.45 1687.37,123.472 "></polyline>
<polyline clip-path="url(#clip772)" style="stroke:#000000; stroke-linecap:round; stroke-linejoin:round; stroke-width:2; stroke-opacity:0.1; fill:none" points="2072.46,1486.45 2072.46,123.472 "></polyline>
<polyline clip-path="url(#clip772)" style="stroke:#000000; stroke-linecap:round; stroke-linejoin:round; stroke-width:2; stroke-opacity:0.1; fill:none" points="184.191,1447.87 2352.76,1447.87 "></polyline>
<polyline clip-path="url(#clip772)" style="stroke:#000000; stroke-linecap:round; stroke-linejoin:round; stroke-width:2; stroke-opacity:0.1; fill:none" points="184.191,1216.18 2352.76,1216.18 "></polyline>
<polyline clip-path="url(#clip772)" style="stroke:#000000; stroke-linecap:round; stroke-linejoin:round; stroke-width:2; stroke-opacity:0.1; fill:none" points="184.191,984.494 2352.76,984.494 "></polyline>
<polyline clip-path="url(#clip772)" style="stroke:#000000; stroke-linecap:round; stroke-linejoin:round; stroke-width:2; stroke-opacity:0.1; fill:none" points="184.191,752.804 2352.76,752.804 "></polyline>
<polyline clip-path="url(#clip772)" style="stroke:#000000; stroke-linecap:round; stroke-linejoin:round; stroke-width:2; stroke-opacity:0.1; fill:none" points="184.191,521.115 2352.76,521.115 "></polyline>
<polyline clip-path="url(#clip772)" style="stroke:#000000; stroke-linecap:round; stroke-linejoin:round; stroke-width:2; stroke-opacity:0.1; fill:none" points="184.191,289.425 2352.76,289.425 "></polyline>
<polyline clip-path="url(#clip770)" style="stroke:#000000; stroke-linecap:round; stroke-linejoin:round; stroke-width:4; stroke-opacity:1; fill:none" points="184.191,1486.45 2352.76,1486.45 "></polyline>
<polyline clip-path="url(#clip770)" style="stroke:#000000; stroke-linecap:round; stroke-linejoin:round; stroke-width:4; stroke-opacity:1; fill:none" points="532.085,1486.45 532.085,1467.55 "></polyline>
<polyline clip-path="url(#clip770)" style="stroke:#000000; stroke-linecap:round; stroke-linejoin:round; stroke-width:4; stroke-opacity:1; fill:none" points="917.179,1486.45 917.179,1467.55 "></polyline>
<polyline clip-path="url(#clip770)" style="stroke:#000000; stroke-linecap:round; stroke-linejoin:round; stroke-width:4; stroke-opacity:1; fill:none" points="1302.27,1486.45 1302.27,1467.55 "></polyline>
<polyline clip-path="url(#clip770)" style="stroke:#000000; stroke-linecap:round; stroke-linejoin:round; stroke-width:4; stroke-opacity:1; fill:none" points="1687.37,1486.45 1687.37,1467.55 "></polyline>
<polyline clip-path="url(#clip770)" style="stroke:#000000; stroke-linecap:round; stroke-linejoin:round; stroke-width:4; stroke-opacity:1; fill:none" points="2072.46,1486.45 2072.46,1467.55 "></polyline>
<path clip-path="url(#clip770)" d="M494.389 1517.37 Q490.778 1517.37 488.949 1520.93 Q487.144 1524.47 487.144 1531.6 Q487.144 1538.71 488.949 1542.27 Q490.778 1545.82 494.389 1545.82 Q498.023 1545.82 499.829 1542.27 Q501.657 1538.71 501.657 1531.6 Q501.657 1524.47 499.829 1520.93 Q498.023 1517.37 494.389 1517.37 M494.389 1513.66 Q500.199 1513.66 503.255 1518.27 Q506.333 1522.85 506.333 1531.6 Q506.333 1540.33 503.255 1544.94 Q500.199 1549.52 494.389 1549.52 Q488.579 1549.52 485.5 1544.94 Q482.444 1540.33 482.444 1531.6 Q482.444 1522.85 485.5 1518.27 Q488.579 1513.66 494.389 1513.66 Z" fill="#000000" fill-rule="nonzero" fill-opacity="1"></path><path clip-path="url(#clip770)" d="M514.551 1542.97 L519.435 1542.97 L519.435 1548.85 L514.551 1548.85 L514.551 1542.97 Z" fill="#000000" fill-rule="nonzero" fill-opacity="1"></path><path clip-path="url(#clip770)" d="M542.467 1518.36 L530.662 1536.81 L542.467 1536.81 L542.467 1518.36 M541.24 1514.29 L547.12 1514.29 L547.12 1536.81 L552.051 1536.81 L552.051 1540.7 L547.12 1540.7 L547.12 1548.85 L542.467 1548.85 L542.467 1540.7 L526.866 1540.7 L526.866 1536.19 L541.24 1514.29 Z" fill="#000000" fill-rule="nonzero" fill-opacity="1"></path><path clip-path="url(#clip770)" d="M569.782 1517.37 Q566.171 1517.37 564.342 1520.93 Q562.537 1524.47 562.537 1531.6 Q562.537 1538.71 564.342 1542.27 Q566.171 1545.82 569.782 1545.82 Q573.416 1545.82 575.222 1542.27 Q577.05 1538.71 577.05 1531.6 Q577.05 1524.47 575.222 1520.93 Q573.416 1517.37 569.782 1517.37 M569.782 1513.66 Q575.592 1513.66 578.648 1518.27 Q581.726 1522.85 581.726 1531.6 Q581.726 1540.33 578.648 1544.94 Q575.592 1549.52 569.782 1549.52 Q563.972 1549.52 560.893 1544.94 Q557.838 1540.33 557.838 1531.6 Q557.838 1522.85 560.893 1518.27 Q563.972 1513.66 569.782 1513.66 Z" fill="#000000" fill-rule="nonzero" fill-opacity="1"></path><path clip-path="url(#clip770)" d="M879.981 1517.37 Q876.37 1517.37 874.541 1520.93 Q872.735 1524.47 872.735 1531.6 Q872.735 1538.71 874.541 1542.27 Q876.37 1545.82 879.981 1545.82 Q883.615 1545.82 885.42 1542.27 Q887.249 1538.71 887.249 1531.6 Q887.249 1524.47 885.42 1520.93 Q883.615 1517.37 879.981 1517.37 M879.981 1513.66 Q885.791 1513.66 888.846 1518.27 Q891.925 1522.85 891.925 1531.6 Q891.925 1540.33 888.846 1544.94 Q885.791 1549.52 879.981 1549.52 Q874.17 1549.52 871.092 1544.94 Q868.036 1540.33 868.036 1531.6 Q868.036 1522.85 871.092 1518.27 Q874.17 1513.66 879.981 1513.66 Z" fill="#000000" fill-rule="nonzero" fill-opacity="1"></path><path clip-path="url(#clip770)" d="M900.143 1542.97 L905.027 1542.97 L905.027 1548.85 L900.143 1548.85 L900.143 1542.97 Z" fill="#000000" fill-rule="nonzero" fill-opacity="1"></path><path clip-path="url(#clip770)" d="M928.059 1518.36 L916.254 1536.81 L928.059 1536.81 L928.059 1518.36 M926.832 1514.29 L932.712 1514.29 L932.712 1536.81 L937.642 1536.81 L937.642 1540.7 L932.712 1540.7 L932.712 1548.85 L928.059 1548.85 L928.059 1540.7 L912.457 1540.7 L912.457 1536.19 L926.832 1514.29 Z" fill="#000000" fill-rule="nonzero" fill-opacity="1"></path><path clip-path="url(#clip770)" d="M945.42 1514.29 L963.776 1514.29 L963.776 1518.22 L949.702 1518.22 L949.702 1526.7 Q950.721 1526.35 951.739 1526.19 Q952.758 1526 953.776 1526 Q959.564 1526 962.943 1529.17 Q966.323 1532.34 966.323 1537.76 Q966.323 1543.34 962.851 1546.44 Q959.378 1549.52 953.059 1549.52 Q950.883 1549.52 948.614 1549.15 Q946.369 1548.78 943.962 1548.04 L943.962 1543.34 Q946.045 1544.47 948.267 1545.03 Q950.489 1545.58 952.966 1545.58 Q956.971 1545.58 959.309 1543.48 Q961.647 1541.37 961.647 1537.76 Q961.647 1534.15 959.309 1532.04 Q956.971 1529.94 952.966 1529.94 Q951.091 1529.94 949.216 1530.35 Q947.364 1530.77 945.42 1531.65 L945.42 1514.29 Z" fill="#000000" fill-rule="nonzero" fill-opacity="1"></path><path clip-path="url(#clip770)" d="M1264.58 1517.37 Q1260.97 1517.37 1259.14 1520.93 Q1257.33 1524.47 1257.33 1531.6 Q1257.33 1538.71 1259.14 1542.27 Q1260.97 1545.82 1264.58 1545.82 Q1268.21 1545.82 1270.02 1542.27 Q1271.85 1538.71 1271.85 1531.6 Q1271.85 1524.47 1270.02 1520.93 Q1268.21 1517.37 1264.58 1517.37 M1264.58 1513.66 Q1270.39 1513.66 1273.44 1518.27 Q1276.52 1522.85 1276.52 1531.6 Q1276.52 1540.33 1273.44 1544.94 Q1270.39 1549.52 1264.58 1549.52 Q1258.77 1549.52 1255.69 1544.94 Q1252.63 1540.33 1252.63 1531.6 Q1252.63 1522.85 1255.69 1518.27 Q1258.77 1513.66 1264.58 1513.66 Z" fill="#000000" fill-rule="nonzero" fill-opacity="1"></path><path clip-path="url(#clip770)" d="M1284.74 1542.97 L1289.62 1542.97 L1289.62 1548.85 L1284.74 1548.85 L1284.74 1542.97 Z" fill="#000000" fill-rule="nonzero" fill-opacity="1"></path><path clip-path="url(#clip770)" d="M1299.85 1514.29 L1318.21 1514.29 L1318.21 1518.22 L1304.14 1518.22 L1304.14 1526.7 Q1305.16 1526.35 1306.17 1526.19 Q1307.19 1526 1308.21 1526 Q1314 1526 1317.38 1529.17 Q1320.76 1532.34 1320.76 1537.76 Q1320.76 1543.34 1317.29 1546.44 Q1313.81 1549.52 1307.49 1549.52 Q1305.32 1549.52 1303.05 1549.15 Q1300.8 1548.78 1298.4 1548.04 L1298.4 1543.34 Q1300.48 1544.47 1302.7 1545.03 Q1304.92 1545.58 1307.4 1545.58 Q1311.41 1545.58 1313.74 1543.48 Q1316.08 1541.37 1316.08 1537.76 Q1316.08 1534.15 1313.74 1532.04 Q1311.41 1529.94 1307.4 1529.94 Q1305.53 1529.94 1303.65 1530.35 Q1301.8 1530.77 1299.85 1531.65 L1299.85 1514.29 Z" fill="#000000" fill-rule="nonzero" fill-opacity="1"></path><path clip-path="url(#clip770)" d="M1339.97 1517.37 Q1336.36 1517.37 1334.53 1520.93 Q1332.72 1524.47 1332.72 1531.6 Q1332.72 1538.71 1334.53 1542.27 Q1336.36 1545.82 1339.97 1545.82 Q1343.6 1545.82 1345.41 1542.27 Q1347.24 1538.71 1347.24 1531.6 Q1347.24 1524.47 1345.41 1520.93 Q1343.6 1517.37 1339.97 1517.37 M1339.97 1513.66 Q1345.78 1513.66 1348.84 1518.27 Q1351.91 1522.85 1351.91 1531.6 Q1351.91 1540.33 1348.84 1544.94 Q1345.78 1549.52 1339.97 1549.52 Q1334.16 1549.52 1331.08 1544.94 Q1328.03 1540.33 1328.03 1531.6 Q1328.03 1522.85 1331.08 1518.27 Q1334.16 1513.66 1339.97 1513.66 Z" fill="#000000" fill-rule="nonzero" fill-opacity="1"></path><path clip-path="url(#clip770)" d="M1650.17 1517.37 Q1646.56 1517.37 1644.73 1520.93 Q1642.92 1524.47 1642.92 1531.6 Q1642.92 1538.71 1644.73 1542.27 Q1646.56 1545.82 1650.17 1545.82 Q1653.8 1545.82 1655.61 1542.27 Q1657.44 1538.71 1657.44 1531.6 Q1657.44 1524.47 1655.61 1520.93 Q1653.8 1517.37 1650.17 1517.37 M1650.17 1513.66 Q1655.98 1513.66 1659.03 1518.27 Q1662.11 1522.85 1662.11 1531.6 Q1662.11 1540.33 1659.03 1544.94 Q1655.98 1549.52 1650.17 1549.52 Q1644.36 1549.52 1641.28 1544.94 Q1638.22 1540.33 1638.22 1531.6 Q1638.22 1522.85 1641.28 1518.27 Q1644.36 1513.66 1650.17 1513.66 Z" fill="#000000" fill-rule="nonzero" fill-opacity="1"></path><path clip-path="url(#clip770)" d="M1670.33 1542.97 L1675.21 1542.97 L1675.21 1548.85 L1670.33 1548.85 L1670.33 1542.97 Z" fill="#000000" fill-rule="nonzero" fill-opacity="1"></path><path clip-path="url(#clip770)" d="M1685.45 1514.29 L1703.8 1514.29 L1703.8 1518.22 L1689.73 1518.22 L1689.73 1526.7 Q1690.75 1526.35 1691.77 1526.19 Q1692.78 1526 1693.8 1526 Q1699.59 1526 1702.97 1529.17 Q1706.35 1532.34 1706.35 1537.76 Q1706.35 1543.34 1702.88 1546.44 Q1699.4 1549.52 1693.09 1549.52 Q1690.91 1549.52 1688.64 1549.15 Q1686.4 1548.78 1683.99 1548.04 L1683.99 1543.34 Q1686.07 1544.47 1688.29 1545.03 Q1690.52 1545.58 1692.99 1545.58 Q1697 1545.58 1699.34 1543.48 Q1701.67 1541.37 1701.67 1537.76 Q1701.67 1534.15 1699.34 1532.04 Q1697 1529.94 1692.99 1529.94 Q1691.12 1529.94 1689.24 1530.35 Q1687.39 1530.77 1685.45 1531.65 L1685.45 1514.29 Z" fill="#000000" fill-rule="nonzero" fill-opacity="1"></path><path clip-path="url(#clip770)" d="M1715.61 1514.29 L1733.96 1514.29 L1733.96 1518.22 L1719.89 1518.22 L1719.89 1526.7 Q1720.91 1526.35 1721.93 1526.19 Q1722.95 1526 1723.96 1526 Q1729.75 1526 1733.13 1529.17 Q1736.51 1532.34 1736.51 1537.76 Q1736.51 1543.34 1733.04 1546.44 Q1729.57 1549.52 1723.25 1549.52 Q1721.07 1549.52 1718.8 1549.15 Q1716.56 1548.78 1714.15 1548.04 L1714.15 1543.34 Q1716.23 1544.47 1718.46 1545.03 Q1720.68 1545.58 1723.15 1545.58 Q1727.16 1545.58 1729.5 1543.48 Q1731.83 1541.37 1731.83 1537.76 Q1731.83 1534.15 1729.5 1532.04 Q1727.16 1529.94 1723.15 1529.94 Q1721.28 1529.94 1719.4 1530.35 Q1717.55 1530.77 1715.61 1531.65 L1715.61 1514.29 Z" fill="#000000" fill-rule="nonzero" fill-opacity="1"></path><path clip-path="url(#clip770)" d="M2034.77 1517.37 Q2031.15 1517.37 2029.33 1520.93 Q2027.52 1524.47 2027.52 1531.6 Q2027.52 1538.71 2029.33 1542.27 Q2031.15 1545.82 2034.77 1545.82 Q2038.4 1545.82 2040.2 1542.27 Q2042.03 1538.71 2042.03 1531.6 Q2042.03 1524.47 2040.2 1520.93 Q2038.4 1517.37 2034.77 1517.37 M2034.77 1513.66 Q2040.58 1513.66 2043.63 1518.27 Q2046.71 1522.85 2046.71 1531.6 Q2046.71 1540.33 2043.63 1544.94 Q2040.58 1549.52 2034.77 1549.52 Q2028.96 1549.52 2025.88 1544.94 Q2022.82 1540.33 2022.82 1531.6 Q2022.82 1522.85 2025.88 1518.27 Q2028.96 1513.66 2034.77 1513.66 Z" fill="#000000" fill-rule="nonzero" fill-opacity="1"></path><path clip-path="url(#clip770)" d="M2054.93 1542.97 L2059.81 1542.97 L2059.81 1548.85 L2054.93 1548.85 L2054.93 1542.97 Z" fill="#000000" fill-rule="nonzero" fill-opacity="1"></path><path clip-path="url(#clip770)" d="M2080.58 1529.7 Q2077.43 1529.7 2075.58 1531.86 Q2073.75 1534.01 2073.75 1537.76 Q2073.75 1541.49 2075.58 1543.66 Q2077.43 1545.82 2080.58 1545.82 Q2083.72 1545.82 2085.55 1543.66 Q2087.4 1541.49 2087.4 1537.76 Q2087.4 1534.01 2085.55 1531.86 Q2083.72 1529.7 2080.58 1529.7 M2089.86 1515.05 L2089.86 1519.31 Q2088.1 1518.48 2086.29 1518.04 Q2084.51 1517.6 2082.75 1517.6 Q2078.12 1517.6 2075.67 1520.72 Q2073.24 1523.85 2072.89 1530.17 Q2074.26 1528.15 2076.32 1527.09 Q2078.38 1526 2080.85 1526 Q2086.06 1526 2089.07 1529.17 Q2092.1 1532.32 2092.1 1537.76 Q2092.1 1543.08 2088.95 1546.3 Q2085.81 1549.52 2080.58 1549.52 Q2074.58 1549.52 2071.41 1544.94 Q2068.24 1540.33 2068.24 1531.6 Q2068.24 1523.41 2072.13 1518.55 Q2076.01 1513.66 2082.57 1513.66 Q2084.33 1513.66 2086.11 1514.01 Q2087.91 1514.36 2089.86 1515.05 Z" fill="#000000" fill-rule="nonzero" fill-opacity="1"></path><path clip-path="url(#clip770)" d="M2110.16 1517.37 Q2106.55 1517.37 2104.72 1520.93 Q2102.91 1524.47 2102.91 1531.6 Q2102.91 1538.71 2104.72 1542.27 Q2106.55 1545.82 2110.16 1545.82 Q2113.79 1545.82 2115.6 1542.27 Q2117.43 1538.71 2117.43 1531.6 Q2117.43 1524.47 2115.6 1520.93 Q2113.79 1517.37 2110.16 1517.37 M2110.16 1513.66 Q2115.97 1513.66 2119.02 1518.27 Q2122.1 1522.85 2122.1 1531.6 Q2122.1 1540.33 2119.02 1544.94 Q2115.97 1549.52 2110.16 1549.52 Q2104.35 1549.52 2101.27 1544.94 Q2098.21 1540.33 2098.21 1531.6 Q2098.21 1522.85 2101.27 1518.27 Q2104.35 1513.66 2110.16 1513.66 Z" fill="#000000" fill-rule="nonzero" fill-opacity="1"></path><polyline clip-path="url(#clip770)" style="stroke:#000000; stroke-linecap:round; stroke-linejoin:round; stroke-width:4; stroke-opacity:1; fill:none" points="184.191,1486.45 184.191,123.472 "></polyline>
<polyline clip-path="url(#clip770)" style="stroke:#000000; stroke-linecap:round; stroke-linejoin:round; stroke-width:4; stroke-opacity:1; fill:none" points="184.191,1447.87 203.088,1447.87 "></polyline>
<polyline clip-path="url(#clip770)" style="stroke:#000000; stroke-linecap:round; stroke-linejoin:round; stroke-width:4; stroke-opacity:1; fill:none" points="184.191,1216.18 203.088,1216.18 "></polyline>
<polyline clip-path="url(#clip770)" style="stroke:#000000; stroke-linecap:round; stroke-linejoin:round; stroke-width:4; stroke-opacity:1; fill:none" points="184.191,984.494 203.088,984.494 "></polyline>
<polyline clip-path="url(#clip770)" style="stroke:#000000; stroke-linecap:round; stroke-linejoin:round; stroke-width:4; stroke-opacity:1; fill:none" points="184.191,752.804 203.088,752.804 "></polyline>
<polyline clip-path="url(#clip770)" style="stroke:#000000; stroke-linecap:round; stroke-linejoin:round; stroke-width:4; stroke-opacity:1; fill:none" points="184.191,521.115 203.088,521.115 "></polyline>
<polyline clip-path="url(#clip770)" style="stroke:#000000; stroke-linecap:round; stroke-linejoin:round; stroke-width:4; stroke-opacity:1; fill:none" points="184.191,289.425 203.088,289.425 "></polyline>
<path clip-path="url(#clip770)" d="M91.0151 1433.67 Q87.404 1433.67 85.5753 1437.24 Q83.7697 1440.78 83.7697 1447.91 Q83.7697 1455.01 85.5753 1458.58 Q87.404 1462.12 91.0151 1462.12 Q94.6493 1462.12 96.4548 1458.58 Q98.2835 1455.01 98.2835 1447.91 Q98.2835 1440.78 96.4548 1437.24 Q94.6493 1433.67 91.0151 1433.67 M91.0151 1429.97 Q96.8252 1429.97 99.8808 1434.57 Q102.959 1439.16 102.959 1447.91 Q102.959 1456.63 99.8808 1461.24 Q96.8252 1465.82 91.0151 1465.82 Q85.2049 1465.82 82.1262 1461.24 Q79.0707 1456.63 79.0707 1447.91 Q79.0707 1439.16 82.1262 1434.57 Q85.2049 1429.97 91.0151 1429.97 Z" fill="#000000" fill-rule="nonzero" fill-opacity="1"></path><path clip-path="url(#clip770)" d="M111.177 1459.27 L116.061 1459.27 L116.061 1465.15 L111.177 1465.15 L111.177 1459.27 Z" fill="#000000" fill-rule="nonzero" fill-opacity="1"></path><path clip-path="url(#clip770)" d="M136.246 1433.67 Q132.635 1433.67 130.807 1437.24 Q129.001 1440.78 129.001 1447.91 Q129.001 1455.01 130.807 1458.58 Q132.635 1462.12 136.246 1462.12 Q139.881 1462.12 141.686 1458.58 Q143.515 1455.01 143.515 1447.91 Q143.515 1440.78 141.686 1437.24 Q139.881 1433.67 136.246 1433.67 M136.246 1429.97 Q142.056 1429.97 145.112 1434.57 Q148.191 1439.16 148.191 1447.91 Q148.191 1456.63 145.112 1461.24 Q142.056 1465.82 136.246 1465.82 Q130.436 1465.82 127.357 1461.24 Q124.302 1456.63 124.302 1447.91 Q124.302 1439.16 127.357 1434.57 Q130.436 1429.97 136.246 1429.97 Z" fill="#000000" fill-rule="nonzero" fill-opacity="1"></path><path clip-path="url(#clip770)" d="M86.0382 1229.53 L102.358 1229.53 L102.358 1233.46 L80.4133 1233.46 L80.4133 1229.53 Q83.0753 1226.77 87.6586 1222.14 Q92.2651 1217.49 93.4456 1216.15 Q95.691 1213.63 96.5706 1211.89 Q97.4734 1210.13 97.4734 1208.44 Q97.4734 1205.69 95.5289 1203.95 Q93.6076 1202.21 90.5058 1202.21 Q88.3067 1202.21 85.8531 1202.98 Q83.4225 1203.74 80.6447 1205.29 L80.6447 1200.57 Q83.4688 1199.44 85.9225 1198.86 Q88.3762 1198.28 90.4132 1198.28 Q95.7836 1198.28 98.978 1200.96 Q102.172 1203.65 102.172 1208.14 Q102.172 1210.27 101.362 1212.19 Q100.575 1214.09 98.4687 1216.68 Q97.89 1217.35 94.7882 1220.57 Q91.6864 1223.76 86.0382 1229.53 Z" fill="#000000" fill-rule="nonzero" fill-opacity="1"></path><path clip-path="url(#clip770)" d="M112.172 1227.58 L117.057 1227.58 L117.057 1233.46 L112.172 1233.46 L112.172 1227.58 Z" fill="#000000" fill-rule="nonzero" fill-opacity="1"></path><path clip-path="url(#clip770)" d="M127.288 1198.9 L145.644 1198.9 L145.644 1202.84 L131.57 1202.84 L131.57 1211.31 Q132.589 1210.96 133.607 1210.8 Q134.626 1210.62 135.644 1210.62 Q141.431 1210.62 144.811 1213.79 Q148.191 1216.96 148.191 1222.38 Q148.191 1227.95 144.718 1231.06 Q141.246 1234.13 134.927 1234.13 Q132.751 1234.13 130.482 1233.76 Q128.237 1233.39 125.83 1232.65 L125.83 1227.95 Q127.913 1229.09 130.135 1229.64 Q132.357 1230.2 134.834 1230.2 Q138.839 1230.2 141.177 1228.09 Q143.515 1225.99 143.515 1222.38 Q143.515 1218.76 141.177 1216.66 Q138.839 1214.55 134.834 1214.55 Q132.959 1214.55 131.084 1214.97 Q129.232 1215.38 127.288 1216.26 L127.288 1198.9 Z" fill="#000000" fill-rule="nonzero" fill-opacity="1"></path><path clip-path="url(#clip770)" d="M81.0614 967.214 L99.4178 967.214 L99.4178 971.149 L85.3438 971.149 L85.3438 979.621 Q86.3623 979.274 87.3808 979.112 Q88.3993 978.927 89.4178 978.927 Q95.2049 978.927 98.5845 982.098 Q101.964 985.269 101.964 990.686 Q101.964 996.265 98.4919 999.366 Q95.0197 1002.45 88.7003 1002.45 Q86.5243 1002.45 84.2558 1002.07 Q82.0105 1001.7 79.6031 1000.96 L79.6031 996.265 Q81.6864 997.399 83.9086 997.954 Q86.1308 998.51 88.6077 998.51 Q92.6123 998.51 94.9502 996.404 Q97.2882 994.297 97.2882 990.686 Q97.2882 987.075 94.9502 984.968 Q92.6123 982.862 88.6077 982.862 Q86.7327 982.862 84.8577 983.279 Q83.0058 983.695 81.0614 984.575 L81.0614 967.214 Z" fill="#000000" fill-rule="nonzero" fill-opacity="1"></path><path clip-path="url(#clip770)" d="M111.177 995.894 L116.061 995.894 L116.061 1001.77 L111.177 1001.77 L111.177 995.894 Z" fill="#000000" fill-rule="nonzero" fill-opacity="1"></path><path clip-path="url(#clip770)" d="M136.246 970.293 Q132.635 970.293 130.807 973.857 Q129.001 977.399 129.001 984.529 Q129.001 991.635 130.807 995.2 Q132.635 998.741 136.246 998.741 Q139.881 998.741 141.686 995.2 Q143.515 991.635 143.515 984.529 Q143.515 977.399 141.686 973.857 Q139.881 970.293 136.246 970.293 M136.246 966.589 Q142.056 966.589 145.112 971.195 Q148.191 975.779 148.191 984.529 Q148.191 993.255 145.112 997.862 Q142.056 1002.45 136.246 1002.45 Q130.436 1002.45 127.357 997.862 Q124.302 993.255 124.302 984.529 Q124.302 975.779 127.357 971.195 Q130.436 966.589 136.246 966.589 Z" fill="#000000" fill-rule="nonzero" fill-opacity="1"></path><path clip-path="url(#clip770)" d="M80.8299 735.524 L103.052 735.524 L103.052 737.515 L90.5058 770.084 L85.6216 770.084 L97.4271 739.459 L80.8299 739.459 L80.8299 735.524 Z" fill="#000000" fill-rule="nonzero" fill-opacity="1"></path><path clip-path="url(#clip770)" d="M112.172 764.205 L117.057 764.205 L117.057 770.084 L112.172 770.084 L112.172 764.205 Z" fill="#000000" fill-rule="nonzero" fill-opacity="1"></path><path clip-path="url(#clip770)" d="M127.288 735.524 L145.644 735.524 L145.644 739.459 L131.57 739.459 L131.57 747.932 Q132.589 747.584 133.607 747.422 Q134.626 747.237 135.644 747.237 Q141.431 747.237 144.811 750.408 Q148.191 753.58 148.191 758.996 Q148.191 764.575 144.718 767.677 Q141.246 770.756 134.927 770.756 Q132.751 770.756 130.482 770.385 Q128.237 770.015 125.83 769.274 L125.83 764.575 Q127.913 765.709 130.135 766.265 Q132.357 766.82 134.834 766.82 Q138.839 766.82 141.177 764.714 Q143.515 762.607 143.515 758.996 Q143.515 755.385 141.177 753.279 Q138.839 751.172 134.834 751.172 Q132.959 751.172 131.084 751.589 Q129.232 752.006 127.288 752.885 L127.288 735.524 Z" fill="#000000" fill-rule="nonzero" fill-opacity="1"></path><path clip-path="url(#clip770)" d="M51.6634 534.459 L59.3023 534.459 L59.3023 508.094 L50.9921 509.761 L50.9921 505.501 L59.256 503.835 L63.9319 503.835 L63.9319 534.459 L71.5707 534.459 L71.5707 538.395 L51.6634 538.395 L51.6634 534.459 Z" fill="#000000" fill-rule="nonzero" fill-opacity="1"></path><path clip-path="url(#clip770)" d="M91.0151 506.913 Q87.404 506.913 85.5753 510.478 Q83.7697 514.02 83.7697 521.149 Q83.7697 528.256 85.5753 531.821 Q87.404 535.362 91.0151 535.362 Q94.6493 535.362 96.4548 531.821 Q98.2835 528.256 98.2835 521.149 Q98.2835 514.02 96.4548 510.478 Q94.6493 506.913 91.0151 506.913 M91.0151 503.21 Q96.8252 503.21 99.8808 507.816 Q102.959 512.399 102.959 521.149 Q102.959 529.876 99.8808 534.483 Q96.8252 539.066 91.0151 539.066 Q85.2049 539.066 82.1262 534.483 Q79.0707 529.876 79.0707 521.149 Q79.0707 512.399 82.1262 507.816 Q85.2049 503.21 91.0151 503.21 Z" fill="#000000" fill-rule="nonzero" fill-opacity="1"></path><path clip-path="url(#clip770)" d="M111.177 532.515 L116.061 532.515 L116.061 538.395 L111.177 538.395 L111.177 532.515 Z" fill="#000000" fill-rule="nonzero" fill-opacity="1"></path><path clip-path="url(#clip770)" d="M136.246 506.913 Q132.635 506.913 130.807 510.478 Q129.001 514.02 129.001 521.149 Q129.001 528.256 130.807 531.821 Q132.635 535.362 136.246 535.362 Q139.881 535.362 141.686 531.821 Q143.515 528.256 143.515 521.149 Q143.515 514.02 141.686 510.478 Q139.881 506.913 136.246 506.913 M136.246 503.21 Q142.056 503.21 145.112 507.816 Q148.191 512.399 148.191 521.149 Q148.191 529.876 145.112 534.483 Q142.056 539.066 136.246 539.066 Q130.436 539.066 127.357 534.483 Q124.302 529.876 124.302 521.149 Q124.302 512.399 127.357 507.816 Q130.436 503.21 136.246 503.21 Z" fill="#000000" fill-rule="nonzero" fill-opacity="1"></path><path clip-path="url(#clip770)" d="M52.6588 302.77 L60.2976 302.77 L60.2976 276.404 L51.9875 278.071 L51.9875 273.812 L60.2513 272.145 L64.9272 272.145 L64.9272 302.77 L72.5661 302.77 L72.5661 306.705 L52.6588 306.705 L52.6588 302.77 Z" fill="#000000" fill-rule="nonzero" fill-opacity="1"></path><path clip-path="url(#clip770)" d="M86.0382 302.77 L102.358 302.77 L102.358 306.705 L80.4133 306.705 L80.4133 302.77 Q83.0753 300.015 87.6586 295.386 Q92.2651 290.733 93.4456 289.39 Q95.691 286.867 96.5706 285.131 Q97.4734 283.372 97.4734 281.682 Q97.4734 278.927 95.5289 277.191 Q93.6076 275.455 90.5058 275.455 Q88.3067 275.455 85.8531 276.219 Q83.4225 276.983 80.6447 278.534 L80.6447 273.812 Q83.4688 272.677 85.9225 272.099 Q88.3762 271.52 90.4132 271.52 Q95.7836 271.52 98.978 274.205 Q102.172 276.89 102.172 281.381 Q102.172 283.511 101.362 285.432 Q100.575 287.33 98.4687 289.923 Q97.89 290.594 94.7882 293.812 Q91.6864 297.006 86.0382 302.77 Z" fill="#000000" fill-rule="nonzero" fill-opacity="1"></path><path clip-path="url(#clip770)" d="M112.172 300.825 L117.057 300.825 L117.057 306.705 L112.172 306.705 L112.172 300.825 Z" fill="#000000" fill-rule="nonzero" fill-opacity="1"></path><path clip-path="url(#clip770)" d="M127.288 272.145 L145.644 272.145 L145.644 276.08 L131.57 276.08 L131.57 284.552 Q132.589 284.205 133.607 284.043 Q134.626 283.858 135.644 283.858 Q141.431 283.858 144.811 287.029 Q148.191 290.2 148.191 295.617 Q148.191 301.196 144.718 304.298 Q141.246 307.376 134.927 307.376 Q132.751 307.376 130.482 307.006 Q128.237 306.636 125.83 305.895 L125.83 301.196 Q127.913 302.33 130.135 302.886 Q132.357 303.441 134.834 303.441 Q138.839 303.441 141.177 301.335 Q143.515 299.228 143.515 295.617 Q143.515 292.006 141.177 289.9 Q138.839 287.793 134.834 287.793 Q132.959 287.793 131.084 288.21 Q129.232 288.626 127.288 289.506 L127.288 272.145 Z" fill="#000000" fill-rule="nonzero" fill-opacity="1"></path><path clip-path="url(#clip770)" d="M1016.28 65.7705 L1016.28 89.8329 L1008.79 89.8329 L1008.79 27.2059 L1016.28 27.2059 L1016.28 34.0924 Q1018.63 30.0415 1022.2 28.0971 Q1025.8 26.1121 1030.79 26.1121 Q1039.05 26.1121 1044.19 32.6746 Q1049.38 39.2371 1049.38 49.9314 Q1049.38 60.6258 1044.19 67.1883 Q1039.05 73.7508 1030.79 73.7508 Q1025.8 73.7508 1022.2 71.8063 Q1018.63 69.8214 1016.28 65.7705 M1041.64 49.9314 Q1041.64 41.7081 1038.24 37.0496 Q1034.88 32.3505 1028.96 32.3505 Q1023.05 32.3505 1019.65 37.0496 Q1016.28 41.7081 1016.28 49.9314 Q1016.28 58.1548 1019.65 62.8538 Q1023.05 67.5124 1028.96 67.5124 Q1034.88 67.5124 1038.24 62.8538 Q1041.64 58.1548 1041.64 49.9314 Z" fill="#000000" fill-rule="nonzero" fill-opacity="1"></path><path clip-path="url(#clip770)" d="M1099.45 45.1919 L1099.45 72.576 L1092 72.576 L1092 45.4349 Q1092 38.994 1089.48 35.7938 Q1086.97 32.5936 1081.95 32.5936 Q1075.91 32.5936 1072.43 36.4419 Q1068.95 40.2903 1068.95 46.9338 L1068.95 72.576 L1061.45 72.576 L1061.45 9.54393 L1068.95 9.54393 L1068.95 34.2544 Q1071.62 30.163 1075.22 28.1376 Q1078.87 26.1121 1083.61 26.1121 Q1091.43 26.1121 1095.44 30.9732 Q1099.45 35.7938 1099.45 45.1919 Z" fill="#000000" fill-rule="nonzero" fill-opacity="1"></path><path clip-path="url(#clip770)" d="M1114.32 27.2059 L1121.77 27.2059 L1121.77 72.576 L1114.32 72.576 L1114.32 27.2059 M1114.32 9.54393 L1121.77 9.54393 L1121.77 18.9825 L1114.32 18.9825 L1114.32 9.54393 Z" fill="#000000" fill-rule="nonzero" fill-opacity="1"></path><path clip-path="url(#clip770)" d="M1170.95 65.7705 L1170.95 89.8329 L1163.45 89.8329 L1163.45 27.2059 L1170.95 27.2059 L1170.95 34.0924 Q1173.3 30.0415 1176.86 28.0971 Q1180.47 26.1121 1185.45 26.1121 Q1193.71 26.1121 1198.86 32.6746 Q1204.04 39.2371 1204.04 49.9314 Q1204.04 60.6258 1198.86 67.1883 Q1193.71 73.7508 1185.45 73.7508 Q1180.47 73.7508 1176.86 71.8063 Q1173.3 69.8214 1170.95 65.7705 M1196.31 49.9314 Q1196.31 41.7081 1192.9 37.0496 Q1189.54 32.3505 1183.63 32.3505 Q1177.71 32.3505 1174.31 37.0496 Q1170.95 41.7081 1170.95 49.9314 Q1170.95 58.1548 1174.31 62.8538 Q1177.71 67.5124 1183.63 67.5124 Q1189.54 67.5124 1192.9 62.8538 Q1196.31 58.1548 1196.31 49.9314 Z" fill="#000000" fill-rule="nonzero" fill-opacity="1"></path><path clip-path="url(#clip770)" d="M1233.98 32.4315 Q1227.98 32.4315 1224.5 37.1306 Q1221.02 41.7891 1221.02 49.9314 Q1221.02 58.0738 1224.46 62.7728 Q1227.94 67.4314 1233.98 67.4314 Q1239.93 67.4314 1243.42 62.7323 Q1246.9 58.0333 1246.9 49.9314 Q1246.9 41.8701 1243.42 37.1711 Q1239.93 32.4315 1233.98 32.4315 M1233.98 26.1121 Q1243.7 26.1121 1249.25 32.4315 Q1254.8 38.7509 1254.8 49.9314 Q1254.8 61.0714 1249.25 67.4314 Q1243.7 73.7508 1233.98 73.7508 Q1224.22 73.7508 1218.67 67.4314 Q1213.16 61.0714 1213.16 49.9314 Q1213.16 38.7509 1218.67 32.4315 Q1224.22 26.1121 1233.98 26.1121 Z" fill="#000000" fill-rule="nonzero" fill-opacity="1"></path><path clip-path="url(#clip770)" d="M1296.08 28.5427 L1296.08 35.5912 Q1292.92 33.9709 1289.52 33.1607 Q1286.11 32.3505 1282.47 32.3505 Q1276.92 32.3505 1274.12 34.0519 Q1271.37 35.7533 1271.37 39.156 Q1271.37 41.7486 1273.35 43.2475 Q1275.34 44.7058 1281.33 46.0426 L1283.89 46.6097 Q1291.83 48.3111 1295.15 51.4303 Q1298.51 54.509 1298.51 60.0587 Q1298.51 66.3781 1293.49 70.0644 Q1288.51 73.7508 1279.76 73.7508 Q1276.11 73.7508 1272.14 73.0216 Q1268.21 72.3329 1263.84 70.9151 L1263.84 63.2184 Q1267.97 65.3654 1271.98 66.4591 Q1275.99 67.5124 1279.92 67.5124 Q1285.18 67.5124 1288.02 65.73 Q1290.85 63.9071 1290.85 60.6258 Q1290.85 57.5877 1288.79 55.9673 Q1286.76 54.3469 1279.84 52.8481 L1277.24 52.2405 Q1270.32 50.7821 1267.24 47.7845 Q1264.16 44.7463 1264.16 39.4801 Q1264.16 33.0797 1268.7 29.5959 Q1273.23 26.1121 1281.58 26.1121 Q1285.71 26.1121 1289.36 26.7198 Q1293 27.3274 1296.08 28.5427 Z" fill="#000000" fill-rule="nonzero" fill-opacity="1"></path><path clip-path="url(#clip770)" d="M1317.75 14.324 L1317.75 27.2059 L1333.11 27.2059 L1333.11 32.9987 L1317.75 32.9987 L1317.75 57.6282 Q1317.75 63.1779 1319.25 64.7578 Q1320.79 66.3376 1325.45 66.3376 L1333.11 66.3376 L1333.11 72.576 L1325.45 72.576 Q1316.82 72.576 1313.54 69.3758 Q1310.26 66.1351 1310.26 57.6282 L1310.26 32.9987 L1304.79 32.9987 L1304.79 27.2059 L1310.26 27.2059 L1310.26 14.324 L1317.75 14.324 Z" fill="#000000" fill-rule="nonzero" fill-opacity="1"></path><path clip-path="url(#clip770)" d="M1381.72 48.0275 L1381.72 51.6733 L1347.45 51.6733 Q1347.93 59.3701 1352.06 63.421 Q1356.24 67.4314 1363.65 67.4314 Q1367.94 67.4314 1371.95 66.3781 Q1376 65.3249 1379.97 63.2184 L1379.97 70.267 Q1375.96 71.9684 1371.75 72.8596 Q1367.54 73.7508 1363.2 73.7508 Q1352.35 73.7508 1345.99 67.4314 Q1339.67 61.1119 1339.67 50.3365 Q1339.67 39.1965 1345.66 32.6746 Q1351.7 26.1121 1361.91 26.1121 Q1371.06 26.1121 1376.37 32.0264 Q1381.72 37.9003 1381.72 48.0275 M1374.26 45.84 Q1374.18 39.7232 1370.82 36.0774 Q1367.5 32.4315 1361.99 32.4315 Q1355.75 32.4315 1351.98 35.9558 Q1348.26 39.4801 1347.69 45.8805 L1374.26 45.84 Z" fill="#000000" fill-rule="nonzero" fill-opacity="1"></path><path clip-path="url(#clip770)" d="M1420.24 34.1734 Q1418.98 33.4443 1417.49 33.1202 Q1416.03 32.7556 1414.25 32.7556 Q1407.93 32.7556 1404.52 36.8875 Q1401.16 40.9789 1401.16 48.6757 L1401.16 72.576 L1393.67 72.576 L1393.67 27.2059 L1401.16 27.2059 L1401.16 34.2544 Q1403.51 30.1225 1407.28 28.1376 Q1411.04 26.1121 1416.43 26.1121 Q1417.2 26.1121 1418.13 26.2337 Q1419.07 26.3147 1420.2 26.5172 L1420.24 34.1734 Z" fill="#000000" fill-rule="nonzero" fill-opacity="1"></path><path clip-path="url(#clip770)" d="M1428.06 27.2059 L1435.51 27.2059 L1435.51 72.576 L1428.06 72.576 L1428.06 27.2059 M1428.06 9.54393 L1435.51 9.54393 L1435.51 18.9825 L1428.06 18.9825 L1428.06 9.54393 Z" fill="#000000" fill-rule="nonzero" fill-opacity="1"></path><path clip-path="url(#clip770)" d="M1468.69 32.4315 Q1462.69 32.4315 1459.21 37.1306 Q1455.73 41.7891 1455.73 49.9314 Q1455.73 58.0738 1459.17 62.7728 Q1462.65 67.4314 1468.69 67.4314 Q1474.64 67.4314 1478.13 62.7323 Q1481.61 58.0333 1481.61 49.9314 Q1481.61 41.8701 1478.13 37.1711 Q1474.64 32.4315 1468.69 32.4315 M1468.69 26.1121 Q1478.41 26.1121 1483.96 32.4315 Q1489.51 38.7509 1489.51 49.9314 Q1489.51 61.0714 1483.96 67.4314 Q1478.41 73.7508 1468.69 73.7508 Q1458.93 73.7508 1453.38 67.4314 Q1447.87 61.0714 1447.87 49.9314 Q1447.87 38.7509 1453.38 32.4315 Q1458.93 26.1121 1468.69 26.1121 Z" fill="#000000" fill-rule="nonzero" fill-opacity="1"></path><path clip-path="url(#clip770)" d="M1528.16 34.1734 Q1526.9 33.4443 1525.4 33.1202 Q1523.94 32.7556 1522.16 32.7556 Q1515.84 32.7556 1512.44 36.8875 Q1509.08 40.9789 1509.08 48.6757 L1509.08 72.576 L1501.58 72.576 L1501.58 27.2059 L1509.08 27.2059 L1509.08 34.2544 Q1511.43 30.1225 1515.19 28.1376 Q1518.96 26.1121 1524.35 26.1121 Q1525.12 26.1121 1526.05 26.2337 Q1526.98 26.3147 1528.12 26.5172 L1528.16 34.1734 Z" fill="#000000" fill-rule="nonzero" fill-opacity="1"></path><path clip-path="url(#clip772)" d="M245.565 1447.87 L255.846 1447.87 L266.126 1447.87 L276.407 1447.86 L286.687 1447.85 L296.968 1447.81 L307.248 1447.74 L317.529 1447.63 L327.809 1447.48 L338.09 1447.3 L348.37 1447.12 L358.65 1446.99 L368.931 1446.94 L379.211 1446.99 L389.492 1447.11 L399.772 1447.24 L410.053 1447.32 L420.333 1447.28 L430.614 1447.06 L440.894 1446.63 L451.175 1445.98 L461.455 1445.13 L471.736 1444.11 L482.016 1442.97 L492.297 1441.75 L502.577 1440.54 L512.858 1439.42 L523.138 1438.45 L533.419 1437.65 L543.699 1436.97 L553.98 1436.26 L564.26 1435.34 L574.541 1434 L584.821 1432.09 L595.102 1429.53 L605.382 1426.25 L615.663 1422.23 L625.943 1417.45 L636.224 1411.86 L646.504 1405.47 L656.785 1398.27 L667.065 1390.33 L677.345 1381.78 L687.626 1372.71 L697.906 1363.09 L708.187 1352.77 L718.467 1341.5 L728.748 1329.05 L739.028 1315.32 L749.309 1300.35 L759.589 1284.24 L769.87 1267.04 L780.15 1248.7 L790.431 1229.06 L800.711 1207.9 L810.992 1185.02 L821.272 1160.39 L831.553 1134.3 L841.833 1107.38 L852.114 1080.52 L862.394 1054.39 L872.675 1029.09 L882.955 1003.85 L893.236 977.373 L903.516 948.566 L913.797 917.322 L924.077 884.74 L934.358 852.512 L944.638 821.79 L954.919 792.274 L965.199 762.18 L975.48 729.152 L985.76 691.548 L996.04 649.332 L1006.32 604.096 L1016.6 558.321 L1026.88 514.356 L1037.16 473.669 L1047.44 436.661 L1057.72 403.008 L1068 372.212 L1078.28 344 L1088.56 318.375 L1098.85 295.361 L1109.13 274.732 L1119.41 256.007 L1129.69 238.753 L1139.97 222.91 L1150.25 208.802 L1160.53 196.767 L1170.81 186.746 L1181.09 178.272 L1191.37 170.962 L1201.65 165.144 L1211.93 162.047 L1222.21 163.278 L1232.49 169.868 L1242.77 181.484 L1253.05 196.342 L1263.33 211.905 L1273.61 226.021 L1283.89 237.901 L1294.17 248.448 L1304.45 259.768 L1314.74 274.174 L1325.02 293.235 L1335.3 317.367 L1345.58 346.035 L1355.86 378.216 L1366.14 412.775 L1376.42 448.654 L1386.7 485.055 L1396.98 521.696 L1407.26 558.948 L1417.54 597.617 L1427.82 638.36 L1438.1 681.092 L1448.38 724.795 L1458.66 767.876 L1468.94 808.859 L1479.22 846.962 L1489.5 882.224 L1499.78 915.162 L1510.06 946.264 L1520.35 975.736 L1530.63 1003.65 L1540.91 1030.3 L1551.19 1056.34 L1561.47 1082.61 L1571.75 1109.68 L1582.03 1137.62 L1592.31 1165.94 L1602.59 1193.79 L1612.87 1220.27 L1623.15 1244.59 L1633.43 1266.21 L1643.71 1284.99 L1653.99 1301.19 L1664.27 1315.34 L1674.55 1328.11 L1684.83 1339.98 L1695.11 1351.16 L1705.39 1361.54 L1715.67 1370.87 L1725.95 1378.99 L1736.24 1385.95 L1746.52 1392.04 L1756.8 1397.63 L1767.08 1402.99 L1777.36 1408.24 L1787.64 1413.33 L1797.92 1418.16 L1808.2 1422.63 L1818.48 1426.69 L1828.76 1430.24 L1839.04 1433.2 L1849.32 1435.48 L1859.6 1437.08 L1869.88 1438.12 L1880.16 1438.81 L1890.44 1439.4 L1900.72 1440.07 L1911 1440.9 L1921.28 1441.87 L1931.56 1442.9 L1941.84 1443.89 L1952.13 1444.76 L1962.41 1445.46 L1972.69 1445.96 L1982.97 1446.29 L1993.25 1446.51 L2003.53 1446.68 L2013.81 1446.85 L2024.09 1447.05 L2034.37 1447.25 L2044.65 1447.44 L2054.93 1447.57 L2065.21 1447.63 L2075.49 1447.6 L2085.77 1447.49 L2096.05 1447.31 L2106.33 1447.07 L2116.61 1446.82 L2126.89 1446.59 L2137.17 1446.43 L2147.45 1446.36 L2157.74 1446.38 L2168.02 1446.51 L2178.3 1446.71 L2188.58 1446.96 L2198.86 1447.22 L2209.14 1447.44 L2219.42 1447.62 L2229.7 1447.74 L2239.98 1447.81 L2250.26 1447.84 L2260.54 1447.86 L2270.82 1447.87 L2281.1 1447.87 L2291.38 1447.87 L2291.38 1447.87 L2281.1 1447.87 L2270.82 1447.87 L2260.54 1447.87 L2250.26 1447.87 L2239.98 1447.87 L2229.7 1447.87 L2219.42 1447.87 L2209.14 1447.87 L2198.86 1447.87 L2188.58 1447.87 L2178.3 1447.87 L2168.02 1447.87 L2157.74 1447.87 L2147.45 1447.87 L2137.17 1447.87 L2126.89 1447.87 L2116.61 1447.87 L2106.33 1447.87 L2096.05 1447.87 L2085.77 1447.87 L2075.49 1447.87 L2065.21 1447.87 L2054.93 1447.87 L2044.65 1447.87 L2034.37 1447.87 L2024.09 1447.87 L2013.81 1447.87 L2003.53 1447.87 L1993.25 1447.87 L1982.97 1447.87 L1972.69 1447.87 L1962.41 1447.87 L1952.13 1447.87 L1941.84 1447.87 L1931.56 1447.87 L1921.28 1447.87 L1911 1447.87 L1900.72 1447.87 L1890.44 1447.87 L1880.16 1447.87 L1869.88 1447.87 L1859.6 1447.87 L1849.32 1447.87 L1839.04 1447.87 L1828.76 1447.87 L1818.48 1447.87 L1808.2 1447.87 L1797.92 1447.87 L1787.64 1447.87 L1777.36 1447.87 L1767.08 1447.87 L1756.8 1447.87 L1746.52 1447.87 L1736.24 1447.87 L1725.95 1447.87 L1715.67 1447.87 L1705.39 1447.87 L1695.11 1447.87 L1684.83 1447.87 L1674.55 1447.87 L1664.27 1447.87 L1653.99 1447.87 L1643.71 1447.87 L1633.43 1447.87 L1623.15 1447.87 L1612.87 1447.87 L1602.59 1447.87 L1592.31 1447.87 L1582.03 1447.87 L1571.75 1447.87 L1561.47 1447.87 L1551.19 1447.87 L1540.91 1447.87 L1530.63 1447.87 L1520.35 1447.87 L1510.06 1447.87 L1499.78 1447.87 L1489.5 1447.87 L1479.22 1447.87 L1468.94 1447.87 L1458.66 1447.87 L1448.38 1447.87 L1438.1 1447.87 L1427.82 1447.87 L1417.54 1447.87 L1407.26 1447.87 L1396.98 1447.87 L1386.7 1447.87 L1376.42 1447.87 L1366.14 1447.87 L1355.86 1447.87 L1345.58 1447.87 L1335.3 1447.87 L1325.02 1447.87 L1314.74 1447.87 L1304.45 1447.87 L1294.17 1447.87 L1283.89 1447.87 L1273.61 1447.87 L1263.33 1447.87 L1253.05 1447.87 L1242.77 1447.87 L1232.49 1447.87 L1222.21 1447.87 L1211.93 1447.87 L1201.65 1447.87 L1191.37 1447.87 L1181.09 1447.87 L1170.81 1447.87 L1160.53 1447.87 L1150.25 1447.87 L1139.97 1447.87 L1129.69 1447.87 L1119.41 1447.87 L1109.13 1447.87 L1098.85 1447.87 L1088.56 1447.87 L1078.28 1447.87 L1068 1447.87 L1057.72 1447.87 L1047.44 1447.87 L1037.16 1447.87 L1026.88 1447.87 L1016.6 1447.87 L1006.32 1447.87 L996.04 1447.87 L985.76 1447.87 L975.48 1447.87 L965.199 1447.87 L954.919 1447.87 L944.638 1447.87 L934.358 1447.87 L924.077 1447.87 L913.797 1447.87 L903.516 1447.87 L893.236 1447.87 L882.955 1447.87 L872.675 1447.87 L862.394 1447.87 L852.114 1447.87 L841.833 1447.87 L831.553 1447.87 L821.272 1447.87 L810.992 1447.87 L800.711 1447.87 L790.431 1447.87 L780.15 1447.87 L769.87 1447.87 L759.589 1447.87 L749.309 1447.87 L739.028 1447.87 L728.748 1447.87 L718.467 1447.87 L708.187 1447.87 L697.906 1447.87 L687.626 1447.87 L677.345 1447.87 L667.065 1447.87 L656.785 1447.87 L646.504 1447.87 L636.224 1447.87 L625.943 1447.87 L615.663 1447.87 L605.382 1447.87 L595.102 1447.87 L584.821 1447.87 L574.541 1447.87 L564.26 1447.87 L553.98 1447.87 L543.699 1447.87 L533.419 1447.87 L523.138 1447.87 L512.858 1447.87 L502.577 1447.87 L492.297 1447.87 L482.016 1447.87 L471.736 1447.87 L461.455 1447.87 L451.175 1447.87 L440.894 1447.87 L430.614 1447.87 L420.333 1447.87 L410.053 1447.87 L399.772 1447.87 L389.492 1447.87 L379.211 1447.87 L368.931 1447.87 L358.65 1447.87 L348.37 1447.87 L338.09 1447.87 L327.809 1447.87 L317.529 1447.87 L307.248 1447.87 L296.968 1447.87 L286.687 1447.87 L276.407 1447.87 L266.126 1447.87 L255.846 1447.87 L245.565 1447.87  Z" fill="#009af9" fill-rule="evenodd" fill-opacity="0.5"></path>
<polyline clip-path="url(#clip772)" style="stroke:#009af9; stroke-linecap:round; stroke-linejoin:round; stroke-width:4; stroke-opacity:0.5; fill:none" points="245.565,1447.87 255.846,1447.87 266.126,1447.87 276.407,1447.86 286.687,1447.85 296.968,1447.81 307.248,1447.74 317.529,1447.63 327.809,1447.48 338.09,1447.3 348.37,1447.12 358.65,1446.99 368.931,1446.94 379.211,1446.99 389.492,1447.11 399.772,1447.24 410.053,1447.32 420.333,1447.28 430.614,1447.06 440.894,1446.63 451.175,1445.98 461.455,1445.13 471.736,1444.11 482.016,1442.97 492.297,1441.75 502.577,1440.54 512.858,1439.42 523.138,1438.45 533.419,1437.65 543.699,1436.97 553.98,1436.26 564.26,1435.34 574.541,1434 584.821,1432.09 595.102,1429.53 605.382,1426.25 615.663,1422.23 625.943,1417.45 636.224,1411.86 646.504,1405.47 656.785,1398.27 667.065,1390.33 677.345,1381.78 687.626,1372.71 697.906,1363.09 708.187,1352.77 718.467,1341.5 728.748,1329.05 739.028,1315.32 749.309,1300.35 759.589,1284.24 769.87,1267.04 780.15,1248.7 790.431,1229.06 800.711,1207.9 810.992,1185.02 821.272,1160.39 831.553,1134.3 841.833,1107.38 852.114,1080.52 862.394,1054.39 872.675,1029.09 882.955,1003.85 893.236,977.373 903.516,948.566 913.797,917.322 924.077,884.74 934.358,852.512 944.638,821.79 954.919,792.274 965.199,762.18 975.48,729.152 985.76,691.548 996.04,649.332 1006.32,604.096 1016.6,558.321 1026.88,514.356 1037.16,473.669 1047.44,436.661 1057.72,403.008 1068,372.212 1078.28,344 1088.56,318.375 1098.85,295.361 1109.13,274.732 1119.41,256.007 1129.69,238.753 1139.97,222.91 1150.25,208.802 1160.53,196.767 1170.81,186.746 1181.09,178.272 1191.37,170.962 1201.65,165.144 1211.93,162.047 1222.21,163.278 1232.49,169.868 1242.77,181.484 1253.05,196.342 1263.33,211.905 1273.61,226.021 1283.89,237.901 1294.17,248.448 1304.45,259.768 1314.74,274.174 1325.02,293.235 1335.3,317.367 1345.58,346.035 1355.86,378.216 1366.14,412.775 1376.42,448.654 1386.7,485.055 1396.98,521.696 1407.26,558.948 1417.54,597.617 1427.82,638.36 1438.1,681.092 1448.38,724.795 1458.66,767.876 1468.94,808.859 1479.22,846.962 1489.5,882.224 1499.78,915.162 1510.06,946.264 1520.35,975.736 1530.63,1003.65 1540.91,1030.3 1551.19,1056.34 1561.47,1082.61 1571.75,1109.68 1582.03,1137.62 1592.31,1165.94 1602.59,1193.79 1612.87,1220.27 1623.15,1244.59 1633.43,1266.21 1643.71,1284.99 1653.99,1301.19 1664.27,1315.34 1674.55,1328.11 1684.83,1339.98 1695.11,1351.16 1705.39,1361.54 1715.67,1370.87 1725.95,1378.99 1736.24,1385.95 1746.52,1392.04 1756.8,1397.63 1767.08,1402.99 1777.36,1408.24 1787.64,1413.33 1797.92,1418.16 1808.2,1422.63 1818.48,1426.69 1828.76,1430.24 1839.04,1433.2 1849.32,1435.48 1859.6,1437.08 1869.88,1438.12 1880.16,1438.81 1890.44,1439.4 1900.72,1440.07 1911,1440.9 1921.28,1441.87 1931.56,1442.9 1941.84,1443.89 1952.13,1444.76 1962.41,1445.46 1972.69,1445.96 1982.97,1446.29 1993.25,1446.51 2003.53,1446.68 2013.81,1446.85 2024.09,1447.05 2034.37,1447.25 2044.65,1447.44 2054.93,1447.57 2065.21,1447.63 2075.49,1447.6 2085.77,1447.49 2096.05,1447.31 2106.33,1447.07 2116.61,1446.82 2126.89,1446.59 2137.17,1446.43 2147.45,1446.36 2157.74,1446.38 2168.02,1446.51 2178.3,1446.71 2188.58,1446.96 2198.86,1447.22 2209.14,1447.44 2219.42,1447.62 2229.7,1447.74 2239.98,1447.81 2250.26,1447.84 2260.54,1447.86 2270.82,1447.87 2281.1,1447.87 2291.38,1447.87 "></polyline>
<path clip-path="url(#clip770)" d="M2011.18 272.585 L2280.47 272.585 L2280.47 168.905 L2011.18 168.905  Z" fill="#ffffff" fill-rule="evenodd" fill-opacity="1"></path>
<polyline clip-path="url(#clip770)" style="stroke:#000000; stroke-linecap:round; stroke-linejoin:round; stroke-width:4; stroke-opacity:1; fill:none" points="2011.18,272.585 2280.47,272.585 2280.47,168.905 2011.18,168.905 2011.18,272.585 "></polyline>
<path clip-path="url(#clip770)" d="M2035.28 241.481 L2179.85 241.481 L2179.85 200.009 L2035.28 200.009 L2035.28 241.481  Z" fill="#009af9" fill-rule="evenodd" fill-opacity="0.5"></path>
<polyline clip-path="url(#clip770)" style="stroke:#009af9; stroke-linecap:round; stroke-linejoin:round; stroke-width:4; stroke-opacity:0.5; fill:none" points="2035.28,200.009 2179.85,200.009 "></polyline>
<path clip-path="url(#clip770)" d="M2217.79 240.432 Q2215.98 245.062 2214.27 246.474 Q2212.56 247.886 2209.69 247.886 L2206.28 247.886 L2206.28 244.321 L2208.78 244.321 Q2210.54 244.321 2211.51 243.488 Q2212.49 242.654 2213.67 239.552 L2214.43 237.608 L2203.94 212.099 L2208.46 212.099 L2216.56 232.377 L2224.66 212.099 L2229.18 212.099 L2217.79 240.432 Z" fill="#000000" fill-rule="nonzero" fill-opacity="1"></path><path clip-path="url(#clip770)" d="M2236.47 234.089 L2244.11 234.089 L2244.11 207.724 L2235.8 209.391 L2235.8 205.131 L2244.06 203.465 L2248.74 203.465 L2248.74 234.089 L2256.38 234.089 L2256.38 238.025 L2236.47 238.025 L2236.47 234.089 Z" fill="#000000" fill-rule="nonzero" fill-opacity="1"></path></svg>