<svg xmlns="http://www.w3.org/2000/svg" xmlns:xlink="http://www.w3.org/1999/xlink" width="600" height="400" viewBox="0 0 2400 1600">
<defs>
  <clipPath id="clip810">
    <rect x="0" y="0" width="2400" height="1600"></rect>
  </clipPath>
</defs>
<path clip-path="url(#clip810)" d="M0 1600 L2400 1600 L2400 8.88178e-14 L0 8.88178e-14  Z" fill="#ffffff" fill-rule="evenodd" fill-opacity="1"></path>
<defs>
  <clipPath id="clip811">
    <rect x="480" y="0" width="1681" height="1600"></rect>
  </clipPath>
</defs>
<path clip-path="url(#clip810)" d="M112.177 1486.45 L2352.76 1486.45 L2352.76 123.472 L112.177 123.472  Z" fill="#ffffff" fill-rule="evenodd" fill-opacity="1"></path>
<defs>
  <clipPath id="clip812">
    <rect x="112" y="123" width="2242" height="1364"></rect>
  </clipPath>
</defs>
<polyline clip-path="url(#clip812)" style="stroke:#000000; stroke-linecap:round; stroke-linejoin:round; stroke-width:2; stroke-opacity:0.1; fill:none" points="293.964,1486.45 293.964,123.472 "></polyline>
<polyline clip-path="url(#clip812)" style="stroke:#000000; stroke-linecap:round; stroke-linejoin:round; stroke-width:2; stroke-opacity:0.1; fill:none" points="820.206,1486.45 820.206,123.472 "></polyline>
<polyline clip-path="url(#clip812)" style="stroke:#000000; stroke-linecap:round; stroke-linejoin:round; stroke-width:2; stroke-opacity:0.1; fill:none" points="1346.45,1486.45 1346.45,123.472 "></polyline>
<polyline clip-path="url(#clip812)" style="stroke:#000000; stroke-linecap:round; stroke-linejoin:round; stroke-width:2; stroke-opacity:0.1; fill:none" points="1872.69,1486.45 1872.69,123.472 "></polyline>
<polyline clip-path="url(#clip812)" style="stroke:#000000; stroke-linecap:round; stroke-linejoin:round; stroke-width:2; stroke-opacity:0.1; fill:none" points="112.177,1447.87 2352.76,1447.87 "></polyline>
<polyline clip-path="url(#clip812)" style="stroke:#000000; stroke-linecap:round; stroke-linejoin:round; stroke-width:2; stroke-opacity:0.1; fill:none" points="112.177,1150.2 2352.76,1150.2 "></polyline>
<polyline clip-path="url(#clip812)" style="stroke:#000000; stroke-linecap:round; stroke-linejoin:round; stroke-width:2; stroke-opacity:0.1; fill:none" points="112.177,852.528 2352.76,852.528 "></polyline>
<polyline clip-path="url(#clip812)" style="stroke:#000000; stroke-linecap:round; stroke-linejoin:round; stroke-width:2; stroke-opacity:0.1; fill:none" points="112.177,554.855 2352.76,554.855 "></polyline>
<polyline clip-path="url(#clip812)" style="stroke:#000000; stroke-linecap:round; stroke-linejoin:round; stroke-width:2; stroke-opacity:0.1; fill:none" points="112.177,257.183 2352.76,257.183 "></polyline>
<polyline clip-path="url(#clip810)" style="stroke:#000000; stroke-linecap:round; stroke-linejoin:round; stroke-width:4; stroke-opacity:1; fill:none" points="112.177,1486.45 2352.76,1486.45 "></polyline>
<polyline clip-path="url(#clip810)" style="stroke:#000000; stroke-linecap:round; stroke-linejoin:round; stroke-width:4; stroke-opacity:1; fill:none" points="293.964,1486.45 293.964,1467.55 "></polyline>
<polyline clip-path="url(#clip810)" style="stroke:#000000; stroke-linecap:round; stroke-linejoin:round; stroke-width:4; stroke-opacity:1; fill:none" points="820.206,1486.45 820.206,1467.55 "></polyline>
<polyline clip-path="url(#clip810)" style="stroke:#000000; stroke-linecap:round; stroke-linejoin:round; stroke-width:4; stroke-opacity:1; fill:none" points="1346.45,1486.45 1346.45,1467.55 "></polyline>
<polyline clip-path="url(#clip810)" style="stroke:#000000; stroke-linecap:round; stroke-linejoin:round; stroke-width:4; stroke-opacity:1; fill:none" points="1872.69,1486.45 1872.69,1467.55 "></polyline>
<path clip-path="url(#clip810)" d="M271.441 1517.37 Q267.83 1517.37 266.002 1520.93 Q264.196 1524.47 264.196 1531.6 Q264.196 1538.71 266.002 1542.27 Q267.83 1545.82 271.441 1545.82 Q275.076 1545.82 276.881 1542.27 Q278.71 1538.71 278.71 1531.6 Q278.71 1524.47 276.881 1520.93 Q275.076 1517.37 271.441 1517.37 M271.441 1513.66 Q277.252 1513.66 280.307 1518.27 Q283.386 1522.85 283.386 1531.6 Q283.386 1540.33 280.307 1544.94 Q277.252 1549.52 271.441 1549.52 Q265.631 1549.52 262.553 1544.94 Q259.497 1540.33 259.497 1531.6 Q259.497 1522.85 262.553 1518.27 Q265.631 1513.66 271.441 1513.66 Z" fill="#000000" fill-rule="nonzero" fill-opacity="1"></path><path clip-path="url(#clip810)" d="M291.603 1542.97 L296.488 1542.97 L296.488 1548.85 L291.603 1548.85 L291.603 1542.97 Z" fill="#000000" fill-rule="nonzero" fill-opacity="1"></path><path clip-path="url(#clip810)" d="M306.812 1548.13 L306.812 1543.87 Q308.571 1544.7 310.376 1545.14 Q312.182 1545.58 313.918 1545.58 Q318.548 1545.58 320.978 1542.48 Q323.432 1539.36 323.779 1533.01 Q322.437 1535.01 320.376 1536.07 Q318.316 1537.13 315.816 1537.13 Q310.631 1537.13 307.599 1534.01 Q304.589 1530.86 304.589 1525.42 Q304.589 1520.1 307.738 1516.88 Q310.886 1513.66 316.117 1513.66 Q322.112 1513.66 325.261 1518.27 Q328.432 1522.85 328.432 1531.6 Q328.432 1539.77 324.543 1544.66 Q320.677 1549.52 314.126 1549.52 Q312.367 1549.52 310.562 1549.17 Q308.756 1548.82 306.812 1548.13 M316.117 1533.48 Q319.265 1533.48 321.094 1531.32 Q322.946 1529.17 322.946 1525.42 Q322.946 1521.7 321.094 1519.54 Q319.265 1517.37 316.117 1517.37 Q312.969 1517.37 311.117 1519.54 Q309.288 1521.7 309.288 1525.42 Q309.288 1529.17 311.117 1531.32 Q312.969 1533.48 316.117 1533.48 Z" fill="#000000" fill-rule="nonzero" fill-opacity="1"></path><path clip-path="url(#clip810)" d="M787.359 1544.91 L794.998 1544.91 L794.998 1518.55 L786.688 1520.21 L786.688 1515.95 L794.951 1514.29 L799.627 1514.29 L799.627 1544.91 L807.266 1544.91 L807.266 1548.85 L787.359 1548.85 L787.359 1544.91 Z" fill="#000000" fill-rule="nonzero" fill-opacity="1"></path><path clip-path="url(#clip810)" d="M816.711 1542.97 L821.595 1542.97 L821.595 1548.85 L816.711 1548.85 L816.711 1542.97 Z" fill="#000000" fill-rule="nonzero" fill-opacity="1"></path><path clip-path="url(#clip810)" d="M841.78 1517.37 Q838.169 1517.37 836.34 1520.93 Q834.535 1524.47 834.535 1531.6 Q834.535 1538.71 836.34 1542.27 Q838.169 1545.82 841.78 1545.82 Q845.414 1545.82 847.22 1542.27 Q849.048 1538.71 849.048 1531.6 Q849.048 1524.47 847.22 1520.93 Q845.414 1517.37 841.78 1517.37 M841.78 1513.66 Q847.59 1513.66 850.646 1518.27 Q853.724 1522.85 853.724 1531.6 Q853.724 1540.33 850.646 1544.94 Q847.59 1549.52 841.78 1549.52 Q835.97 1549.52 832.891 1544.94 Q829.836 1540.33 829.836 1531.6 Q829.836 1522.85 832.891 1518.27 Q835.97 1513.66 841.78 1513.66 Z" fill="#000000" fill-rule="nonzero" fill-opacity="1"></path><path clip-path="url(#clip810)" d="M1314.21 1544.91 L1321.85 1544.91 L1321.85 1518.55 L1313.54 1520.21 L1313.54 1515.95 L1321.81 1514.29 L1326.48 1514.29 L1326.48 1544.91 L1334.12 1544.91 L1334.12 1548.85 L1314.21 1548.85 L1314.21 1544.91 Z" fill="#000000" fill-rule="nonzero" fill-opacity="1"></path><path clip-path="url(#clip810)" d="M1343.57 1542.97 L1348.45 1542.97 L1348.45 1548.85 L1343.57 1548.85 L1343.57 1542.97 Z" fill="#000000" fill-rule="nonzero" fill-opacity="1"></path><path clip-path="url(#clip810)" d="M1359.45 1544.91 L1367.08 1544.91 L1367.08 1518.55 L1358.77 1520.21 L1358.77 1515.95 L1367.04 1514.29 L1371.71 1514.29 L1371.71 1544.91 L1379.35 1544.91 L1379.35 1548.85 L1359.45 1548.85 L1359.45 1544.91 Z" fill="#000000" fill-rule="nonzero" fill-opacity="1"></path><path clip-path="url(#clip810)" d="M1840.64 1544.91 L1848.28 1544.91 L1848.28 1518.55 L1839.97 1520.21 L1839.97 1515.95 L1848.23 1514.29 L1852.91 1514.29 L1852.91 1544.91 L1860.55 1544.91 L1860.55 1548.85 L1840.64 1548.85 L1840.64 1544.91 Z" fill="#000000" fill-rule="nonzero" fill-opacity="1"></path><path clip-path="url(#clip810)" d="M1869.99 1542.97 L1874.88 1542.97 L1874.88 1548.85 L1869.99 1548.85 L1869.99 1542.97 Z" fill="#000000" fill-rule="nonzero" fill-opacity="1"></path><path clip-path="url(#clip810)" d="M1889.09 1544.91 L1905.41 1544.91 L1905.41 1548.85 L1883.46 1548.85 L1883.46 1544.91 Q1886.13 1542.16 1890.71 1537.53 Q1895.32 1532.88 1896.5 1531.53 Q1898.74 1529.01 1899.62 1527.27 Q1900.52 1525.51 1900.52 1523.82 Q1900.52 1521.07 1898.58 1519.33 Q1896.66 1517.6 1893.56 1517.6 Q1891.36 1517.6 1888.9 1518.36 Q1886.47 1519.13 1883.7 1520.68 L1883.7 1515.95 Q1886.52 1514.82 1888.97 1514.24 Q1891.43 1513.66 1893.46 1513.66 Q1898.83 1513.66 1902.03 1516.35 Q1905.22 1519.03 1905.22 1523.52 Q1905.22 1525.65 1904.41 1527.57 Q1903.63 1529.47 1901.52 1532.07 Q1900.94 1532.74 1897.84 1535.95 Q1894.74 1539.15 1889.09 1544.91 Z" fill="#000000" fill-rule="nonzero" fill-opacity="1"></path><polyline clip-path="url(#clip810)" style="stroke:#000000; stroke-linecap:round; stroke-linejoin:round; stroke-width:4; stroke-opacity:1; fill:none" points="112.177,1486.45 112.177,123.472 "></polyline>
<polyline clip-path="url(#clip810)" style="stroke:#000000; stroke-linecap:round; stroke-linejoin:round; stroke-width:4; stroke-opacity:1; fill:none" points="112.177,1447.87 131.075,1447.87 "></polyline>
<polyline clip-path="url(#clip810)" style="stroke:#000000; stroke-linecap:round; stroke-linejoin:round; stroke-width:4; stroke-opacity:1; fill:none" points="112.177,1150.2 131.075,1150.2 "></polyline>
<polyline clip-path="url(#clip810)" style="stroke:#000000; stroke-linecap:round; stroke-linejoin:round; stroke-width:4; stroke-opacity:1; fill:none" points="112.177,852.528 131.075,852.528 "></polyline>
<polyline clip-path="url(#clip810)" style="stroke:#000000; stroke-linecap:round; stroke-linejoin:round; stroke-width:4; stroke-opacity:1; fill:none" points="112.177,554.855 131.075,554.855 "></polyline>
<polyline clip-path="url(#clip810)" style="stroke:#000000; stroke-linecap:round; stroke-linejoin:round; stroke-width:4; stroke-opacity:1; fill:none" points="112.177,257.183 131.075,257.183 "></polyline>
<path clip-path="url(#clip810)" d="M64.2328 1433.67 Q60.6217 1433.67 58.793 1437.24 Q56.9875 1440.78 56.9875 1447.91 Q56.9875 1455.01 58.793 1458.58 Q60.6217 1462.12 64.2328 1462.12 Q67.867 1462.12 69.6726 1458.58 Q71.5013 1455.01 71.5013 1447.91 Q71.5013 1440.78 69.6726 1437.24 Q67.867 1433.67 64.2328 1433.67 M64.2328 1429.97 Q70.0429 1429.97 73.0985 1434.57 Q76.1772 1439.16 76.1772 1447.91 Q76.1772 1456.63 73.0985 1461.24 Q70.0429 1465.82 64.2328 1465.82 Q58.4226 1465.82 55.344 1461.24 Q52.2884 1456.63 52.2884 1447.91 Q52.2884 1439.16 55.344 1434.57 Q58.4226 1429.97 64.2328 1429.97 Z" fill="#000000" fill-rule="nonzero" fill-opacity="1"></path><path clip-path="url(#clip810)" d="M59.8578 1163.55 L76.1772 1163.55 L76.1772 1167.48 L54.2328 1167.48 L54.2328 1163.55 Q56.8949 1160.79 61.4782 1156.16 Q66.0846 1151.51 67.2652 1150.17 Q69.5105 1147.64 70.3902 1145.91 Q71.2929 1144.15 71.2929 1142.46 Q71.2929 1139.7 69.3485 1137.97 Q67.4272 1136.23 64.3254 1136.23 Q62.1263 1136.23 59.6726 1136.99 Q57.2421 1137.76 54.4643 1139.31 L54.4643 1134.59 Q57.2884 1133.45 59.7421 1132.87 Q62.1958 1132.3 64.2328 1132.3 Q69.6031 1132.3 72.7976 1134.98 Q75.992 1137.67 75.992 1142.16 Q75.992 1144.29 75.1818 1146.21 Q74.3948 1148.11 72.2883 1150.7 Q71.7096 1151.37 68.6078 1154.59 Q65.5059 1157.78 59.8578 1163.55 Z" fill="#000000" fill-rule="nonzero" fill-opacity="1"></path><path clip-path="url(#clip810)" d="M66.5939 839.322 L54.7884 857.771 L66.5939 857.771 L66.5939 839.322 M65.367 835.248 L71.2466 835.248 L71.2466 857.771 L76.1772 857.771 L76.1772 861.66 L71.2466 861.66 L71.2466 869.808 L66.5939 869.808 L66.5939 861.66 L50.9921 861.66 L50.9921 857.146 L65.367 835.248 Z" fill="#000000" fill-rule="nonzero" fill-opacity="1"></path><path clip-path="url(#clip810)" d="M64.6495 552.992 Q61.5013 552.992 59.6495 555.145 Q57.8208 557.297 57.8208 561.047 Q57.8208 564.774 59.6495 566.95 Q61.5013 569.103 64.6495 569.103 Q67.7976 569.103 69.6263 566.95 Q71.4781 564.774 71.4781 561.047 Q71.4781 557.297 69.6263 555.145 Q67.7976 552.992 64.6495 552.992 M73.9318 538.339 L73.9318 542.598 Q72.1726 541.765 70.367 541.325 Q68.5846 540.886 66.8254 540.886 Q62.1958 540.886 59.7421 544.011 Q57.3115 547.135 56.9643 553.455 Q58.33 551.441 60.3902 550.376 Q62.4504 549.288 64.9272 549.288 Q70.1355 549.288 73.1448 552.46 Q76.1772 555.608 76.1772 561.047 Q76.1772 566.371 73.029 569.589 Q69.8809 572.807 64.6495 572.807 Q58.6541 572.807 55.4828 568.223 Q52.3116 563.617 52.3116 554.89 Q52.3116 546.696 56.2004 541.835 Q60.0893 536.95 66.6402 536.95 Q68.3994 536.95 70.1818 537.298 Q71.9874 537.645 73.9318 538.339 Z" fill="#000000" fill-rule="nonzero" fill-opacity="1"></path><path clip-path="url(#clip810)" d="M64.3254 258.051 Q60.9921 258.051 59.0708 259.833 Q57.1726 261.616 57.1726 264.741 Q57.1726 267.866 59.0708 269.648 Q60.9921 271.43 64.3254 271.43 Q67.6587 271.43 69.58 269.648 Q71.5013 267.842 71.5013 264.741 Q71.5013 261.616 69.58 259.833 Q67.6819 258.051 64.3254 258.051 M59.6495 256.06 Q56.6402 255.319 54.9504 253.259 Q53.2838 251.199 53.2838 248.236 Q53.2838 244.093 56.2236 241.685 Q59.1865 239.278 64.3254 239.278 Q69.4874 239.278 72.4272 241.685 Q75.367 244.093 75.367 248.236 Q75.367 251.199 73.6772 253.259 Q72.0105 255.319 69.0244 256.06 Q72.404 256.847 74.279 259.139 Q76.1772 261.43 76.1772 264.741 Q76.1772 269.764 73.0985 272.449 Q70.0429 275.134 64.3254 275.134 Q58.6078 275.134 55.5291 272.449 Q52.4736 269.764 52.4736 264.741 Q52.4736 261.43 54.3717 259.139 Q56.2699 256.847 59.6495 256.06 M57.9365 248.676 Q57.9365 251.361 59.6032 252.866 Q61.293 254.37 64.3254 254.37 Q67.3346 254.37 69.0244 252.866 Q70.7374 251.361 70.7374 248.676 Q70.7374 245.991 69.0244 244.486 Q67.3346 242.981 64.3254 242.981 Q61.293 242.981 59.6032 244.486 Q57.9365 245.991 57.9365 248.676 Z" fill="#000000" fill-rule="nonzero" fill-opacity="1"></path><path clip-path="url(#clip810)" d="M881.213 28.5427 L881.213 35.5912 Q878.053 33.9709 874.65 33.1607 Q871.247 32.3505 867.602 32.3505 Q862.052 32.3505 859.257 34.0519 Q856.502 35.7533 856.502 39.156 Q856.502 41.7486 858.487 43.2475 Q860.472 44.7058 866.467 46.0426 L869.019 46.6097 Q876.959 48.3111 880.281 51.4303 Q883.643 54.509 883.643 60.0587 Q883.643 66.3781 878.62 70.0644 Q873.637 73.7508 864.887 73.7508 Q861.242 73.7508 857.272 73.0216 Q853.342 72.3329 848.967 70.9151 L848.967 63.2184 Q853.099 65.3654 857.11 66.4591 Q861.12 67.5124 865.05 67.5124 Q870.316 67.5124 873.151 65.73 Q875.987 63.9071 875.987 60.6258 Q875.987 57.5877 873.921 55.9673 Q871.896 54.3469 864.969 52.8481 L862.376 52.2405 Q855.449 50.7821 852.37 47.7845 Q849.292 44.7463 849.292 39.4801 Q849.292 33.0797 853.829 29.5959 Q858.366 26.1121 866.71 26.1121 Q870.842 26.1121 874.488 26.7198 Q878.134 27.3274 881.213 28.5427 Z" fill="#000000" fill-rule="nonzero" fill-opacity="1"></path><path clip-path="url(#clip810)" d="M895.512 27.2059 L902.966 27.2059 L902.966 72.576 L895.512 72.576 L895.512 27.2059 M895.512 9.54393 L902.966 9.54393 L902.966 18.9825 L895.512 18.9825 L895.512 9.54393 Z" fill="#000000" fill-rule="nonzero" fill-opacity="1"></path><path clip-path="url(#clip810)" d="M948.417 49.3643 Q948.417 41.2625 945.055 36.8065 Q941.733 32.3505 935.697 32.3505 Q929.702 32.3505 926.34 36.8065 Q923.018 41.2625 923.018 49.3643 Q923.018 57.4256 926.34 61.8816 Q929.702 66.3376 935.697 66.3376 Q941.733 66.3376 945.055 61.8816 Q948.417 57.4256 948.417 49.3643 M955.871 66.9452 Q955.871 78.5308 950.726 84.1616 Q945.582 89.8329 934.968 89.8329 Q931.039 89.8329 927.555 89.2252 Q924.071 88.6581 920.79 87.4428 L920.79 80.1917 Q924.071 81.9741 927.271 82.8248 Q930.472 83.6755 933.793 83.6755 Q941.126 83.6755 944.771 79.8271 Q948.417 76.0193 948.417 68.282 L948.417 64.5957 Q946.108 68.6061 942.503 70.5911 Q938.898 72.576 933.874 72.576 Q925.53 72.576 920.425 66.2161 Q915.321 59.8562 915.321 49.3643 Q915.321 38.832 920.425 32.472 Q925.53 26.1121 933.874 26.1121 Q938.898 26.1121 942.503 28.0971 Q946.108 30.082 948.417 34.0924 L948.417 27.2059 L955.871 27.2059 L955.871 66.9452 Z" fill="#000000" fill-rule="nonzero" fill-opacity="1"></path><path clip-path="url(#clip810)" d="M1006.55 35.9153 Q1009.34 30.8922 1013.23 28.5022 Q1017.12 26.1121 1022.39 26.1121 Q1029.48 26.1121 1033.32 31.0947 Q1037.17 36.0368 1037.17 45.1919 L1037.17 72.576 L1029.68 72.576 L1029.68 45.4349 Q1029.68 38.913 1027.37 35.7533 Q1025.06 32.5936 1020.32 32.5936 Q1014.53 32.5936 1011.17 36.4419 Q1007.8 40.2903 1007.8 46.9338 L1007.8 72.576 L1000.31 72.576 L1000.31 45.4349 Q1000.31 38.8725 998 35.7533 Q995.691 32.5936 990.871 32.5936 Q985.159 32.5936 981.797 36.4824 Q978.434 40.3308 978.434 46.9338 L978.434 72.576 L970.94 72.576 L970.94 27.2059 L978.434 27.2059 L978.434 34.2544 Q980.986 30.082 984.551 28.0971 Q988.116 26.1121 993.018 26.1121 Q997.96 26.1121 1001.4 28.6237 Q1004.89 31.1352 1006.55 35.9153 Z" fill="#000000" fill-rule="nonzero" fill-opacity="1"></path><path clip-path="url(#clip810)" d="M1072.66 49.7694 Q1063.62 49.7694 1060.14 51.8354 Q1056.66 53.9013 1056.66 58.8839 Q1056.66 62.8538 1059.25 65.2034 Q1061.88 67.5124 1066.38 67.5124 Q1072.58 67.5124 1076.3 63.1374 Q1080.07 58.7219 1080.07 51.4303 L1080.07 49.7694 L1072.66 49.7694 M1087.53 46.6907 L1087.53 72.576 L1080.07 72.576 L1080.07 65.6895 Q1077.52 69.8214 1073.71 71.8063 Q1069.9 73.7508 1064.39 73.7508 Q1057.43 73.7508 1053.3 69.8619 Q1049.2 65.9325 1049.2 59.3701 Q1049.2 51.7138 1054.31 47.825 Q1059.45 43.9361 1069.62 43.9361 L1080.07 43.9361 L1080.07 43.2069 Q1080.07 38.0623 1076.67 35.2672 Q1073.31 32.4315 1067.19 32.4315 Q1063.3 32.4315 1059.61 33.3632 Q1055.93 34.295 1052.53 36.1584 L1052.53 29.2718 Q1056.62 27.692 1060.47 26.9223 Q1064.31 26.1121 1067.96 26.1121 Q1077.8 26.1121 1082.66 31.2163 Q1087.53 36.3204 1087.53 46.6907 Z" fill="#000000" fill-rule="nonzero" fill-opacity="1"></path><path clip-path="url(#clip810)" d="M1133.79 12.096 L1155.78 34.6595 L1147.64 34.6595 L1129.82 18.6585 L1111.99 34.6595 L1103.85 34.6595 L1125.85 12.096 L1133.79 12.096 Z" fill="#000000" fill-rule="nonzero" fill-opacity="1"></path><path clip-path="url(#clip810)" d="M1180.49 65.6895 L1209.05 65.6895 L1209.05 72.576 L1170.65 72.576 L1170.65 65.6895 Q1175.31 60.8689 1183.33 52.7671 Q1191.39 44.6248 1193.46 42.2752 Q1197.39 37.8598 1198.93 34.8216 Q1200.5 31.7429 1200.5 28.7857 Q1200.5 23.9651 1197.1 20.927 Q1193.74 17.8888 1188.31 17.8888 Q1184.46 17.8888 1180.17 19.2256 Q1175.92 20.5624 1171.05 23.2765 L1171.05 15.0127 Q1176 13.0277 1180.29 12.015 Q1184.58 11.0023 1188.15 11.0023 Q1197.55 11.0023 1203.14 15.7013 Q1208.73 20.4004 1208.73 28.2591 Q1208.73 31.9859 1207.31 35.3482 Q1205.93 38.6699 1202.25 43.2069 Q1201.23 44.3817 1195.81 50.0125 Q1190.38 55.6027 1180.49 65.6895 Z" fill="#000000" fill-rule="nonzero" fill-opacity="1"></path><path clip-path="url(#clip810)" d="M1258.76 65.7705 L1258.76 89.8329 L1251.26 89.8329 L1251.26 27.2059 L1258.76 27.2059 L1258.76 34.0924 Q1261.11 30.0415 1264.67 28.0971 Q1268.28 26.1121 1273.26 26.1121 Q1281.52 26.1121 1286.67 32.6746 Q1291.85 39.2371 1291.85 49.9314 Q1291.85 60.6258 1286.67 67.1883 Q1281.52 73.7508 1273.26 73.7508 Q1268.28 73.7508 1264.67 71.8063 Q1261.11 69.8214 1258.76 65.7705 M1284.12 49.9314 Q1284.12 41.7081 1280.71 37.0496 Q1277.35 32.3505 1271.44 32.3505 Q1265.52 32.3505 1262.12 37.0496 Q1258.76 41.7081 1258.76 49.9314 Q1258.76 58.1548 1262.12 62.8538 Q1265.52 67.5124 1271.44 67.5124 Q1277.35 67.5124 1280.71 62.8538 Q1284.12 58.1548 1284.12 49.9314 Z" fill="#000000" fill-rule="nonzero" fill-opacity="1"></path><path clip-path="url(#clip810)" d="M1321.79 32.4315 Q1315.79 32.4315 1312.31 37.1306 Q1308.83 41.7891 1308.83 49.9314 Q1308.83 58.0738 1312.27 62.7728 Q1315.75 67.4314 1321.79 67.4314 Q1327.74 67.4314 1331.23 62.7323 Q1334.71 58.0333 1334.71 49.9314 Q1334.71 41.8701 1331.23 37.1711 Q1327.74 32.4315 1321.79 32.4315 M1321.79 26.1121 Q1331.51 26.1121 1337.06 32.4315 Q1342.61 38.7509 1342.61 49.9314 Q1342.61 61.0714 1337.06 67.4314 Q1331.51 73.7508 1321.79 73.7508 Q1312.03 73.7508 1306.48 67.4314 Q1300.97 61.0714 1300.97 49.9314 Q1300.97 38.7509 1306.48 32.4315 Q1312.03 26.1121 1321.79 26.1121 Z" fill="#000000" fill-rule="nonzero" fill-opacity="1"></path><path clip-path="url(#clip810)" d="M1383.89 28.5427 L1383.89 35.5912 Q1380.73 33.9709 1377.33 33.1607 Q1373.92 32.3505 1370.28 32.3505 Q1364.73 32.3505 1361.93 34.0519 Q1359.18 35.7533 1359.18 39.156 Q1359.18 41.7486 1361.16 43.2475 Q1363.15 44.7058 1369.14 46.0426 L1371.7 46.6097 Q1379.64 48.3111 1382.96 51.4303 Q1386.32 54.509 1386.32 60.0587 Q1386.32 66.3781 1381.3 70.0644 Q1376.31 73.7508 1367.56 73.7508 Q1363.92 73.7508 1359.95 73.0216 Q1356.02 72.3329 1351.64 70.9151 L1351.64 63.2184 Q1355.78 65.3654 1359.79 66.4591 Q1363.8 67.5124 1367.73 67.5124 Q1372.99 67.5124 1375.83 65.73 Q1378.66 63.9071 1378.66 60.6258 Q1378.66 57.5877 1376.6 55.9673 Q1374.57 54.3469 1367.65 52.8481 L1365.05 52.2405 Q1358.13 50.7821 1355.05 47.7845 Q1351.97 44.7463 1351.97 39.4801 Q1351.97 33.0797 1356.51 29.5959 Q1361.04 26.1121 1369.39 26.1121 Q1373.52 26.1121 1377.16 26.7198 Q1380.81 27.3274 1383.89 28.5427 Z" fill="#000000" fill-rule="nonzero" fill-opacity="1"></path><path clip-path="url(#clip810)" d="M1405.56 14.324 L1405.56 27.2059 L1420.91 27.2059 L1420.91 32.9987 L1405.56 32.9987 L1405.56 57.6282 Q1405.56 63.1779 1407.06 64.7578 Q1408.6 66.3376 1413.26 66.3376 L1420.91 66.3376 L1420.91 72.576 L1413.26 72.576 Q1404.63 72.576 1401.35 69.3758 Q1398.07 66.1351 1398.07 57.6282 L1398.07 32.9987 L1392.6 32.9987 L1392.6 27.2059 L1398.07 27.2059 L1398.07 14.324 L1405.56 14.324 Z" fill="#000000" fill-rule="nonzero" fill-opacity="1"></path><path clip-path="url(#clip810)" d="M1469.53 48.0275 L1469.53 51.6733 L1435.25 51.6733 Q1435.74 59.3701 1439.87 63.421 Q1444.05 67.4314 1451.46 67.4314 Q1455.75 67.4314 1459.76 66.3781 Q1463.81 65.3249 1467.78 63.2184 L1467.78 70.267 Q1463.77 71.9684 1459.56 72.8596 Q1455.35 73.7508 1451.01 73.7508 Q1440.16 73.7508 1433.8 67.4314 Q1427.48 61.1119 1427.48 50.3365 Q1427.48 39.1965 1433.47 32.6746 Q1439.51 26.1121 1449.72 26.1121 Q1458.87 26.1121 1464.18 32.0264 Q1469.53 37.9003 1469.53 48.0275 M1462.07 45.84 Q1461.99 39.7232 1458.63 36.0774 Q1455.31 32.4315 1449.8 32.4315 Q1443.56 32.4315 1439.79 35.9558 Q1436.06 39.4801 1435.5 45.8805 L1462.07 45.84 Z" fill="#000000" fill-rule="nonzero" fill-opacity="1"></path><path clip-path="url(#clip810)" d="M1508.05 34.1734 Q1506.79 33.4443 1505.29 33.1202 Q1503.84 32.7556 1502.05 32.7556 Q1495.73 32.7556 1492.33 36.8875 Q1488.97 40.9789 1488.97 48.6757 L1488.97 72.576 L1481.48 72.576 L1481.48 27.2059 L1488.97 27.2059 L1488.97 34.2544 Q1491.32 30.1225 1495.09 28.1376 Q1498.85 26.1121 1504.24 26.1121 Q1505.01 26.1121 1505.94 26.2337 Q1506.87 26.3147 1508.01 26.5172 L1508.05 34.1734 Z" fill="#000000" fill-rule="nonzero" fill-opacity="1"></path><path clip-path="url(#clip810)" d="M1515.87 27.2059 L1523.32 27.2059 L1523.32 72.576 L1515.87 72.576 L1515.87 27.2059 M1515.87 9.54393 L1523.32 9.54393 L1523.32 18.9825 L1515.87 18.9825 L1515.87 9.54393 Z" fill="#000000" fill-rule="nonzero" fill-opacity="1"></path><path clip-path="url(#clip810)" d="M1556.5 32.4315 Q1550.5 32.4315 1547.02 37.1306 Q1543.54 41.7891 1543.54 49.9314 Q1543.54 58.0738 1546.98 62.7728 Q1550.46 67.4314 1556.5 67.4314 Q1562.45 67.4314 1565.94 62.7323 Q1569.42 58.0333 1569.42 49.9314 Q1569.42 41.8701 1565.94 37.1711 Q1562.45 32.4315 1556.5 32.4315 M1556.5 26.1121 Q1566.22 26.1121 1571.77 32.4315 Q1577.32 38.7509 1577.32 49.9314 Q1577.32 61.0714 1571.77 67.4314 Q1566.22 73.7508 1556.5 73.7508 Q1546.74 73.7508 1541.19 67.4314 Q1535.68 61.0714 1535.68 49.9314 Q1535.68 38.7509 1541.19 32.4315 Q1546.74 26.1121 1556.5 26.1121 Z" fill="#000000" fill-rule="nonzero" fill-opacity="1"></path><path clip-path="url(#clip810)" d="M1615.97 34.1734 Q1614.71 33.4443 1613.21 33.1202 Q1611.75 32.7556 1609.97 32.7556 Q1603.65 32.7556 1600.25 36.8875 Q1596.89 40.9789 1596.89 48.6757 L1596.89 72.576 L1589.39 72.576 L1589.39 27.2059 L1596.89 27.2059 L1596.89 34.2544 Q1599.24 30.1225 1603 28.1376 Q1606.77 26.1121 1612.16 26.1121 Q1612.93 26.1121 1613.86 26.2337 Q1614.79 26.3147 1615.93 26.5172 L1615.97 34.1734 Z" fill="#000000" fill-rule="nonzero" fill-opacity="1"></path><path clip-path="url(#clip812)" d="M175.59 1447.87 L186.212 1447.87 L196.834 1447.87 L207.455 1447.86 L218.077 1447.85 L228.699 1447.81 L239.321 1447.75 L249.943 1447.62 L260.565 1447.43 L271.187 1447.13 L281.809 1446.71 L292.43 1446.18 L303.052 1445.56 L313.674 1444.86 L324.296 1444.1 L334.918 1443.32 L345.54 1442.5 L356.162 1441.69 L366.784 1440.89 L377.405 1440.17 L388.027 1439.53 L398.649 1438.93 L409.271 1438.26 L419.893 1437.3 L430.515 1435.81 L441.137 1433.55 L451.759 1430.42 L462.38 1426.47 L473.002 1421.84 L483.624 1416.7 L494.246 1411.18 L504.868 1405.25 L515.49 1398.76 L526.112 1391.55 L536.734 1383.5 L547.355 1374.59 L557.977 1364.95 L568.599 1354.84 L579.221 1344.56 L589.843 1334.39 L600.465 1324.5 L611.087 1314.84 L621.709 1305.07 L632.33 1294.56 L642.952 1282.59 L653.574 1268.51 L664.196 1251.94 L674.818 1232.92 L685.44 1211.8 L696.062 1189.08 L706.684 1165.21 L717.306 1140.39 L727.927 1114.53 L738.549 1087.3 L749.171 1058.24 L759.793 1026.94 L770.415 993.103 L781.037 956.691 L791.659 917.9 L802.281 877.178 L812.902 835.165 L823.524 792.608 L834.146 750.277 L844.768 708.906 L855.39 669.163 L866.012 631.634 L876.634 596.791 L887.256 564.936 L897.877 536.112 L908.499 510.04 L919.121 486.113 L929.743 463.488 L940.365 441.23 L950.987 418.475 L961.609 394.566 L972.231 369.158 L982.852 342.296 L993.474 314.434 L1004.1 286.368 L1014.72 259.082 L1025.34 233.566 L1035.96 210.729 L1046.58 191.405 L1057.21 176.404 L1067.83 166.465 L1078.45 162.047 L1089.07 163.085 L1099.69 168.869 L1110.31 178.183 L1120.94 189.656 L1131.56 202.122 L1142.18 214.825 L1152.8 227.426 L1163.42 239.924 L1174.05 252.572 L1184.67 265.817 L1195.29 280.198 L1205.91 296.165 L1216.53 313.908 L1227.16 333.282 L1237.78 353.912 L1248.4 375.418 L1259.02 397.667 L1269.64 420.915 L1280.26 445.765 L1290.89 472.919 L1301.51 502.822 L1312.13 535.346 L1322.75 569.72 L1333.37 604.799 L1344 639.559 L1354.62 673.568 L1365.24 707.112 L1375.86 740.905 L1386.48 775.549 L1397.11 811.082 L1407.73 846.873 L1418.35 881.912 L1428.97 915.246 L1439.59 946.304 L1450.22 974.931 L1460.84 1001.19 L1471.46 1025.1 L1482.08 1046.57 L1492.7 1065.44 L1503.32 1081.73 L1513.95 1095.88 L1524.57 1108.8 L1535.19 1121.75 L1545.81 1136 L1556.43 1152.38 L1567.06 1170.95 L1577.68 1190.99 L1588.3 1211.23 L1598.92 1230.37 L1609.54 1247.58 L1620.17 1262.66 L1630.79 1275.98 L1641.41 1288.13 L1652.03 1299.67 L1662.65 1310.87 L1673.27 1321.83 L1683.9 1332.49 L1694.52 1342.76 L1705.14 1352.49 L1715.76 1361.51 L1726.38 1369.62 L1737.01 1376.68 L1747.63 1382.71 L1758.25 1387.94 L1768.87 1392.71 L1779.49 1397.37 L1790.12 1402.11 L1800.74 1406.91 L1811.36 1411.62 L1821.98 1416.02 L1832.6 1419.94 L1843.22 1423.26 L1853.85 1426 L1864.47 1428.22 L1875.09 1430.02 L1885.71 1431.5 L1896.33 1432.76 L1906.96 1433.85 L1917.58 1434.82 L1928.2 1435.71 L1938.82 1436.54 L1949.44 1437.34 L1960.07 1438.11 L1970.69 1438.87 L1981.31 1439.65 L1991.93 1440.48 L2002.55 1441.36 L2013.17 1442.27 L2023.8 1443.17 L2034.42 1444 L2045.04 1444.73 L2055.66 1445.31 L2066.28 1445.75 L2076.91 1446.05 L2087.53 1446.22 L2098.15 1446.26 L2108.77 1446.22 L2119.39 1446.12 L2130.02 1446.03 L2140.64 1446.02 L2151.26 1446.12 L2161.88 1446.33 L2172.5 1446.62 L2183.12 1446.93 L2193.75 1447.23 L2204.37 1447.47 L2214.99 1447.64 L2225.61 1447.75 L2236.23 1447.81 L2246.86 1447.85 L2257.48 1447.86 L2268.1 1447.87 L2278.72 1447.87 L2289.34 1447.87 L2289.34 1447.87 L2278.72 1447.87 L2268.1 1447.87 L2257.48 1447.87 L2246.86 1447.87 L2236.23 1447.87 L2225.61 1447.87 L2214.99 1447.87 L2204.37 1447.87 L2193.75 1447.87 L2183.12 1447.87 L2172.5 1447.87 L2161.88 1447.87 L2151.26 1447.87 L2140.64 1447.87 L2130.02 1447.87 L2119.39 1447.87 L2108.77 1447.87 L2098.15 1447.87 L2087.53 1447.87 L2076.91 1447.87 L2066.28 1447.87 L2055.66 1447.87 L2045.04 1447.87 L2034.42 1447.87 L2023.8 1447.87 L2013.17 1447.87 L2002.55 1447.87 L1991.93 1447.87 L1981.31 1447.87 L1970.69 1447.87 L1960.07 1447.87 L1949.44 1447.87 L1938.82 1447.87 L1928.2 1447.87 L1917.58 1447.87 L1906.96 1447.87 L1896.33 1447.87 L1885.71 1447.87 L1875.09 1447.87 L1864.47 1447.87 L1853.85 1447.87 L1843.22 1447.87 L1832.6 1447.87 L1821.98 1447.87 L1811.36 1447.87 L1800.74 1447.87 L1790.12 1447.87 L1779.49 1447.87 L1768.87 1447.87 L1758.25 1447.87 L1747.63 1447.87 L1737.01 1447.87 L1726.38 1447.87 L1715.76 1447.87 L1705.14 1447.87 L1694.52 1447.87 L1683.9 1447.87 L1673.27 1447.87 L1662.65 1447.87 L1652.03 1447.87 L1641.41 1447.87 L1630.79 1447.87 L1620.17 1447.87 L1609.54 1447.87 L1598.92 1447.87 L1588.3 1447.87 L1577.68 1447.87 L1567.06 1447.87 L1556.43 1447.87 L1545.81 1447.87 L1535.19 1447.87 L1524.57 1447.87 L1513.95 1447.87 L1503.32 1447.87 L1492.7 1447.87 L1482.08 1447.87 L1471.46 1447.87 L1460.84 1447.87 L1450.22 1447.87 L1439.59 1447.87 L1428.97 1447.87 L1418.35 1447.87 L1407.73 1447.87 L1397.11 1447.87 L1386.48 1447.87 L1375.86 1447.87 L1365.24 1447.87 L1354.62 1447.87 L1344 1447.87 L1333.37 1447.87 L1322.75 1447.87 L1312.13 1447.87 L1301.51 1447.87 L1290.89 1447.87 L1280.26 1447.87 L1269.64 1447.87 L1259.02 1447.87 L1248.4 1447.87 L1237.78 1447.87 L1227.16 1447.87 L1216.53 1447.87 L1205.91 1447.87 L1195.29 1447.87 L1184.67 1447.87 L1174.05 1447.87 L1163.42 1447.87 L1152.8 1447.87 L1142.18 1447.87 L1131.56 1447.87 L1120.94 1447.87 L1110.31 1447.87 L1099.69 1447.87 L1089.07 1447.87 L1078.45 1447.87 L1067.83 1447.87 L1057.21 1447.87 L1046.58 1447.87 L1035.96 1447.87 L1025.34 1447.87 L1014.72 1447.87 L1004.1 1447.87 L993.474 1447.87 L982.852 1447.87 L972.231 1447.87 L961.609 1447.87 L950.987 1447.87 L940.365 1447.87 L929.743 1447.87 L919.121 1447.87 L908.499 1447.87 L897.877 1447.87 L887.256 1447.87 L876.634 1447.87 L866.012 1447.87 L855.39 1447.87 L844.768 1447.87 L834.146 1447.87 L823.524 1447.87 L812.902 1447.87 L802.281 1447.87 L791.659 1447.87 L781.037 1447.87 L770.415 1447.87 L759.793 1447.87 L749.171 1447.87 L738.549 1447.87 L727.927 1447.87 L717.306 1447.87 L706.684 1447.87 L696.062 1447.87 L685.44 1447.87 L674.818 1447.87 L664.196 1447.87 L653.574 1447.87 L642.952 1447.87 L632.33 1447.87 L621.709 1447.87 L611.087 1447.87 L600.465 1447.87 L589.843 1447.87 L579.221 1447.87 L568.599 1447.87 L557.977 1447.87 L547.355 1447.87 L536.734 1447.87 L526.112 1447.87 L515.49 1447.87 L504.868 1447.87 L494.246 1447.87 L483.624 1447.87 L473.002 1447.87 L462.38 1447.87 L451.759 1447.87 L441.137 1447.87 L430.515 1447.87 L419.893 1447.87 L409.271 1447.87 L398.649 1447.87 L388.027 1447.87 L377.405 1447.87 L366.784 1447.87 L356.162 1447.87 L345.54 1447.87 L334.918 1447.87 L324.296 1447.87 L313.674 1447.87 L303.052 1447.87 L292.43 1447.87 L281.809 1447.87 L271.187 1447.87 L260.565 1447.87 L249.943 1447.87 L239.321 1447.87 L228.699 1447.87 L218.077 1447.87 L207.455 1447.87 L196.834 1447.87 L186.212 1447.87 L175.59 1447.87  Z" fill="#009af9" fill-rule="evenodd" fill-opacity="0.5"></path>
<polyline clip-path="url(#clip812)" style="stroke:#009af9; stroke-linecap:round; stroke-linejoin:round; stroke-width:4; stroke-opacity:0.5; fill:none" points="175.59,1447.87 186.212,1447.87 196.834,1447.87 207.455,1447.86 218.077,1447.85 228.699,1447.81 239.321,1447.75 249.943,1447.62 260.565,1447.43 271.187,1447.13 281.809,1446.71 292.43,1446.18 303.052,1445.56 313.674,1444.86 324.296,1444.1 334.918,1443.32 345.54,1442.5 356.162,1441.69 366.784,1440.89 377.405,1440.17 388.027,1439.53 398.649,1438.93 409.271,1438.26 419.893,1437.3 430.515,1435.81 441.137,1433.55 451.759,1430.42 462.38,1426.47 473.002,1421.84 483.624,1416.7 494.246,1411.18 504.868,1405.25 515.49,1398.76 526.112,1391.55 536.734,1383.5 547.355,1374.59 557.977,1364.95 568.599,1354.84 579.221,1344.56 589.843,1334.39 600.465,1324.5 611.087,1314.84 621.709,1305.07 632.33,1294.56 642.952,1282.59 653.574,1268.51 664.196,1251.94 674.818,1232.92 685.44,1211.8 696.062,1189.08 706.684,1165.21 717.306,1140.39 727.927,1114.53 738.549,1087.3 749.171,1058.24 759.793,1026.94 770.415,993.103 781.037,956.691 791.659,917.9 802.281,877.178 812.902,835.165 823.524,792.608 834.146,750.277 844.768,708.906 855.39,669.163 866.012,631.634 876.634,596.791 887.256,564.936 897.877,536.112 908.499,510.04 919.121,486.113 929.743,463.488 940.365,441.23 950.987,418.475 961.609,394.566 972.231,369.158 982.852,342.296 993.474,314.434 1004.1,286.368 1014.72,259.082 1025.34,233.566 1035.96,210.729 1046.58,191.405 1057.21,176.404 1067.83,166.465 1078.45,162.047 1089.07,163.085 1099.69,168.869 1110.31,178.183 1120.94,189.656 1131.56,202.122 1142.18,214.825 1152.8,227.426 1163.42,239.924 1174.05,252.572 1184.67,265.817 1195.29,280.198 1205.91,296.165 1216.53,313.908 1227.16,333.282 1237.78,353.912 1248.4,375.418 1259.02,397.667 1269.64,420.915 1280.26,445.765 1290.89,472.919 1301.51,502.822 1312.13,535.346 1322.75,569.72 1333.37,604.799 1344,639.559 1354.62,673.568 1365.24,707.112 1375.86,740.905 1386.48,775.549 1397.11,811.082 1407.73,846.873 1418.35,881.912 1428.97,915.246 1439.59,946.304 1450.22,974.931 1460.84,1001.19 1471.46,1025.1 1482.08,1046.57 1492.7,1065.44 1503.32,1081.73 1513.95,1095.88 1524.57,1108.8 1535.19,1121.75 1545.81,1136 1556.43,1152.38 1567.06,1170.95 1577.68,1190.99 1588.3,1211.23 1598.92,1230.37 1609.54,1247.58 1620.17,1262.66 1630.79,1275.98 1641.41,1288.13 1652.03,1299.67 1662.65,1310.87 1673.27,1321.83 1683.9,1332.49 1694.52,1342.76 1705.14,1352.49 1715.76,1361.51 1726.38,1369.62 1737.01,1376.68 1747.63,1382.71 1758.25,1387.94 1768.87,1392.71 1779.49,1397.37 1790.12,1402.11 1800.74,1406.91 1811.36,1411.62 1821.98,1416.02 1832.6,1419.94 1843.22,1423.26 1853.85,1426 1864.47,1428.22 1875.09,1430.02 1885.71,1431.5 1896.33,1432.76 1906.96,1433.85 1917.58,1434.82 1928.2,1435.71 1938.82,1436.54 1949.44,1437.34 1960.07,1438.11 1970.69,1438.87 1981.31,1439.65 1991.93,1440.48 2002.55,1441.36 2013.17,1442.27 2023.8,1443.17 2034.42,1444 2045.04,1444.73 2055.66,1445.31 2066.28,1445.75 2076.91,1446.05 2087.53,1446.22 2098.15,1446.26 2108.77,1446.22 2119.39,1446.12 2130.02,1446.03 2140.64,1446.02 2151.26,1446.12 2161.88,1446.33 2172.5,1446.62 2183.12,1446.93 2193.75,1447.23 2204.37,1447.47 2214.99,1447.64 2225.61,1447.75 2236.23,1447.81 2246.86,1447.85 2257.48,1447.86 2268.1,1447.87 2278.72,1447.87 2289.34,1447.87 "></polyline>
<path clip-path="url(#clip810)" d="M2001.58 272.585 L2278.07 272.585 L2278.07 168.905 L2001.58 168.905  Z" fill="#ffffff" fill-rule="evenodd" fill-opacity="1"></path>
<polyline clip-path="url(#clip810)" style="stroke:#000000; stroke-linecap:round; stroke-linejoin:round; stroke-width:4; stroke-opacity:1; fill:none" points="2001.58,272.585 2278.07,272.585 2278.07,168.905 2001.58,168.905 2001.58,272.585 "></polyline>
<path clip-path="url(#clip810)" d="M2026.48 241.481 L2175.85 241.481 L2175.85 200.009 L2026.48 200.009 L2026.48 241.481  Z" fill="#009af9" fill-rule="evenodd" fill-opacity="0.5"></path>
<polyline clip-path="url(#clip810)" style="stroke:#009af9; stroke-linecap:round; stroke-linejoin:round; stroke-width:4; stroke-opacity:0.5; fill:none" points="2026.48,200.009 2175.85,200.009 "></polyline>
<path clip-path="url(#clip810)" d="M2214.59 240.432 Q2212.78 245.062 2211.07 246.474 Q2209.36 247.886 2206.49 247.886 L2203.08 247.886 L2203.08 244.321 L2205.58 244.321 Q2207.34 244.321 2208.31 243.488 Q2209.29 242.654 2210.47 239.552 L2211.23 237.608 L2200.74 212.099 L2205.26 212.099 L2213.36 232.377 L2221.46 212.099 L2225.98 212.099 L2214.59 240.432 Z" fill="#000000" fill-rule="nonzero" fill-opacity="1"></path><path clip-path="url(#clip810)" d="M2233.27 234.089 L2240.91 234.089 L2240.91 207.724 L2232.6 209.391 L2232.6 205.131 L2240.86 203.465 L2245.54 203.465 L2245.54 234.089 L2253.17 234.089 L2253.17 238.025 L2233.27 238.025 L2233.27 234.089 Z" fill="#000000" fill-rule="nonzero" fill-opacity="1"></path></svg>