<svg xmlns="http://www.w3.org/2000/svg" xmlns:xlink="http://www.w3.org/1999/xlink" width="600" height="400" viewBox="0 0 2400 1600">
<defs>
  <clipPath id="clip050">
    <rect x="0" y="0" width="2400" height="1600"></rect>
  </clipPath>
</defs>
<path clip-path="url(#clip050)" d="M0 1600 L2400 1600 L2400 8.88178e-14 L0 8.88178e-14  Z" fill="#ffffff" fill-rule="evenodd" fill-opacity="1"></path>
<defs>
  <clipPath id="clip051">
    <rect x="480" y="0" width="1681" height="1600"></rect>
  </clipPath>
</defs>
<path clip-path="url(#clip050)" d="M178.867 1486.45 L2352.76 1486.45 L2352.76 47.2441 L178.867 47.2441  Z" fill="#ffffff" fill-rule="evenodd" fill-opacity="1"></path>
<defs>
  <clipPath id="clip052">
    <rect x="178" y="47" width="2175" height="1440"></rect>
  </clipPath>
</defs>
<polyline clip-path="url(#clip052)" style="stroke:#000000; stroke-linecap:round; stroke-linejoin:round; stroke-width:2; stroke-opacity:0.1; fill:none" points="238.339,1486.45 238.339,47.2441 "></polyline>
<polyline clip-path="url(#clip052)" style="stroke:#000000; stroke-linecap:round; stroke-linejoin:round; stroke-width:2; stroke-opacity:0.1; fill:none" points="751.562,1486.45 751.562,47.2441 "></polyline>
<polyline clip-path="url(#clip052)" style="stroke:#000000; stroke-linecap:round; stroke-linejoin:round; stroke-width:2; stroke-opacity:0.1; fill:none" points="1264.78,1486.45 1264.78,47.2441 "></polyline>
<polyline clip-path="url(#clip052)" style="stroke:#000000; stroke-linecap:round; stroke-linejoin:round; stroke-width:2; stroke-opacity:0.1; fill:none" points="1778.01,1486.45 1778.01,47.2441 "></polyline>
<polyline clip-path="url(#clip052)" style="stroke:#000000; stroke-linecap:round; stroke-linejoin:round; stroke-width:2; stroke-opacity:0.1; fill:none" points="2291.23,1486.45 2291.23,47.2441 "></polyline>
<polyline clip-path="url(#clip052)" style="stroke:#000000; stroke-linecap:round; stroke-linejoin:round; stroke-width:2; stroke-opacity:0.1; fill:none" points="178.867,1353.91 2352.76,1353.91 "></polyline>
<polyline clip-path="url(#clip052)" style="stroke:#000000; stroke-linecap:round; stroke-linejoin:round; stroke-width:2; stroke-opacity:0.1; fill:none" points="178.867,1146.18 2352.76,1146.18 "></polyline>
<polyline clip-path="url(#clip052)" style="stroke:#000000; stroke-linecap:round; stroke-linejoin:round; stroke-width:2; stroke-opacity:0.1; fill:none" points="178.867,938.457 2352.76,938.457 "></polyline>
<polyline clip-path="url(#clip052)" style="stroke:#000000; stroke-linecap:round; stroke-linejoin:round; stroke-width:2; stroke-opacity:0.1; fill:none" points="178.867,730.733 2352.76,730.733 "></polyline>
<polyline clip-path="url(#clip052)" style="stroke:#000000; stroke-linecap:round; stroke-linejoin:round; stroke-width:2; stroke-opacity:0.1; fill:none" points="178.867,523.008 2352.76,523.008 "></polyline>
<polyline clip-path="url(#clip052)" style="stroke:#000000; stroke-linecap:round; stroke-linejoin:round; stroke-width:2; stroke-opacity:0.1; fill:none" points="178.867,315.284 2352.76,315.284 "></polyline>
<polyline clip-path="url(#clip052)" style="stroke:#000000; stroke-linecap:round; stroke-linejoin:round; stroke-width:2; stroke-opacity:0.1; fill:none" points="178.867,107.559 2352.76,107.559 "></polyline>
<polyline clip-path="url(#clip050)" style="stroke:#000000; stroke-linecap:round; stroke-linejoin:round; stroke-width:4; stroke-opacity:1; fill:none" points="178.867,1486.45 2352.76,1486.45 "></polyline>
<polyline clip-path="url(#clip050)" style="stroke:#000000; stroke-linecap:round; stroke-linejoin:round; stroke-width:4; stroke-opacity:1; fill:none" points="238.339,1486.45 238.339,1467.55 "></polyline>
<polyline clip-path="url(#clip050)" style="stroke:#000000; stroke-linecap:round; stroke-linejoin:round; stroke-width:4; stroke-opacity:1; fill:none" points="751.562,1486.45 751.562,1467.55 "></polyline>
<polyline clip-path="url(#clip050)" style="stroke:#000000; stroke-linecap:round; stroke-linejoin:round; stroke-width:4; stroke-opacity:1; fill:none" points="1264.78,1486.45 1264.78,1467.55 "></polyline>
<polyline clip-path="url(#clip050)" style="stroke:#000000; stroke-linecap:round; stroke-linejoin:round; stroke-width:4; stroke-opacity:1; fill:none" points="1778.01,1486.45 1778.01,1467.55 "></polyline>
<polyline clip-path="url(#clip050)" style="stroke:#000000; stroke-linecap:round; stroke-linejoin:round; stroke-width:4; stroke-opacity:1; fill:none" points="2291.23,1486.45 2291.23,1467.55 "></polyline>
<path clip-path="url(#clip050)" d="M238.339 1517.37 Q234.728 1517.37 232.899 1520.93 Q231.094 1524.47 231.094 1531.6 Q231.094 1538.71 232.899 1542.27 Q234.728 1545.82 238.339 1545.82 Q241.973 1545.82 243.779 1542.27 Q245.607 1538.71 245.607 1531.6 Q245.607 1524.47 243.779 1520.93 Q241.973 1517.37 238.339 1517.37 M238.339 1513.66 Q244.149 1513.66 247.205 1518.27 Q250.283 1522.85 250.283 1531.6 Q250.283 1540.33 247.205 1544.94 Q244.149 1549.52 238.339 1549.52 Q232.529 1549.52 229.45 1544.94 Q226.395 1540.33 226.395 1531.6 Q226.395 1522.85 229.45 1518.27 Q232.529 1513.66 238.339 1513.66 Z" fill="#000000" fill-rule="nonzero" fill-opacity="1"></path><path clip-path="url(#clip050)" d="M715.254 1544.91 L731.574 1544.91 L731.574 1548.85 L709.629 1548.85 L709.629 1544.91 Q712.291 1542.16 716.875 1537.53 Q721.481 1532.88 722.662 1531.53 Q724.907 1529.01 725.787 1527.27 Q726.689 1525.51 726.689 1523.82 Q726.689 1521.07 724.745 1519.33 Q722.824 1517.6 719.722 1517.6 Q717.523 1517.6 715.069 1518.36 Q712.638 1519.13 709.861 1520.68 L709.861 1515.95 Q712.685 1514.82 715.138 1514.24 Q717.592 1513.66 719.629 1513.66 Q725 1513.66 728.194 1516.35 Q731.388 1519.03 731.388 1523.52 Q731.388 1525.65 730.578 1527.57 Q729.791 1529.47 727.685 1532.07 Q727.106 1532.74 724.004 1535.95 Q720.902 1539.15 715.254 1544.91 Z" fill="#000000" fill-rule="nonzero" fill-opacity="1"></path><path clip-path="url(#clip050)" d="M741.435 1514.29 L759.791 1514.29 L759.791 1518.22 L745.717 1518.22 L745.717 1526.7 Q746.736 1526.35 747.754 1526.19 Q748.773 1526 749.791 1526 Q755.578 1526 758.958 1529.17 Q762.337 1532.34 762.337 1537.76 Q762.337 1543.34 758.865 1546.44 Q755.393 1549.52 749.073 1549.52 Q746.898 1549.52 744.629 1549.15 Q742.384 1548.78 739.976 1548.04 L739.976 1543.34 Q742.06 1544.47 744.282 1545.03 Q746.504 1545.58 748.981 1545.58 Q752.985 1545.58 755.323 1543.48 Q757.661 1541.37 757.661 1537.76 Q757.661 1534.15 755.323 1532.04 Q752.985 1529.94 748.981 1529.94 Q747.106 1529.94 745.231 1530.35 Q743.379 1530.77 741.435 1531.65 L741.435 1514.29 Z" fill="#000000" fill-rule="nonzero" fill-opacity="1"></path><path clip-path="url(#clip050)" d="M781.55 1517.37 Q777.939 1517.37 776.11 1520.93 Q774.305 1524.47 774.305 1531.6 Q774.305 1538.71 776.11 1542.27 Q777.939 1545.82 781.55 1545.82 Q785.184 1545.82 786.99 1542.27 Q788.819 1538.71 788.819 1531.6 Q788.819 1524.47 786.99 1520.93 Q785.184 1517.37 781.55 1517.37 M781.55 1513.66 Q787.36 1513.66 790.416 1518.27 Q793.495 1522.85 793.495 1531.6 Q793.495 1540.33 790.416 1544.94 Q787.36 1549.52 781.55 1549.52 Q775.74 1549.52 772.661 1544.94 Q769.606 1540.33 769.606 1531.6 Q769.606 1522.85 772.661 1518.27 Q775.74 1513.66 781.55 1513.66 Z" fill="#000000" fill-rule="nonzero" fill-opacity="1"></path><path clip-path="url(#clip050)" d="M1224.4 1514.29 L1242.76 1514.29 L1242.76 1518.22 L1228.69 1518.22 L1228.69 1526.7 Q1229.7 1526.35 1230.72 1526.19 Q1231.74 1526 1232.76 1526 Q1238.55 1526 1241.93 1529.17 Q1245.31 1532.34 1245.31 1537.76 Q1245.31 1543.34 1241.83 1546.44 Q1238.36 1549.52 1232.04 1549.52 Q1229.87 1549.52 1227.6 1549.15 Q1225.35 1548.78 1222.94 1548.04 L1222.94 1543.34 Q1225.03 1544.47 1227.25 1545.03 Q1229.47 1545.58 1231.95 1545.58 Q1235.95 1545.58 1238.29 1543.48 Q1240.63 1541.37 1240.63 1537.76 Q1240.63 1534.15 1238.29 1532.04 Q1235.95 1529.94 1231.95 1529.94 Q1230.07 1529.94 1228.2 1530.35 Q1226.35 1530.77 1224.4 1531.65 L1224.4 1514.29 Z" fill="#000000" fill-rule="nonzero" fill-opacity="1"></path><path clip-path="url(#clip050)" d="M1264.52 1517.37 Q1260.91 1517.37 1259.08 1520.93 Q1257.27 1524.47 1257.27 1531.6 Q1257.27 1538.71 1259.08 1542.27 Q1260.91 1545.82 1264.52 1545.82 Q1268.15 1545.82 1269.96 1542.27 Q1271.79 1538.71 1271.79 1531.6 Q1271.79 1524.47 1269.96 1520.93 Q1268.15 1517.37 1264.52 1517.37 M1264.52 1513.66 Q1270.33 1513.66 1273.38 1518.27 Q1276.46 1522.85 1276.46 1531.6 Q1276.46 1540.33 1273.38 1544.94 Q1270.33 1549.52 1264.52 1549.52 Q1258.71 1549.52 1255.63 1544.94 Q1252.57 1540.33 1252.57 1531.6 Q1252.57 1522.85 1255.63 1518.27 Q1258.71 1513.66 1264.52 1513.66 Z" fill="#000000" fill-rule="nonzero" fill-opacity="1"></path><path clip-path="url(#clip050)" d="M1294.68 1517.37 Q1291.07 1517.37 1289.24 1520.93 Q1287.44 1524.47 1287.44 1531.6 Q1287.44 1538.71 1289.24 1542.27 Q1291.07 1545.82 1294.68 1545.82 Q1298.31 1545.82 1300.12 1542.27 Q1301.95 1538.71 1301.95 1531.6 Q1301.95 1524.47 1300.12 1520.93 Q1298.31 1517.37 1294.68 1517.37 M1294.68 1513.66 Q1300.49 1513.66 1303.55 1518.27 Q1306.62 1522.85 1306.62 1531.6 Q1306.62 1540.33 1303.55 1544.94 Q1300.49 1549.52 1294.68 1549.52 Q1288.87 1549.52 1285.79 1544.94 Q1282.74 1540.33 1282.74 1531.6 Q1282.74 1522.85 1285.79 1518.27 Q1288.87 1513.66 1294.68 1513.66 Z" fill="#000000" fill-rule="nonzero" fill-opacity="1"></path><path clip-path="url(#clip050)" d="M1736.28 1514.29 L1758.51 1514.29 L1758.51 1516.28 L1745.96 1548.85 L1741.08 1548.85 L1752.88 1518.22 L1736.28 1518.22 L1736.28 1514.29 Z" fill="#000000" fill-rule="nonzero" fill-opacity="1"></path><path clip-path="url(#clip050)" d="M1767.67 1514.29 L1786.03 1514.29 L1786.03 1518.22 L1771.95 1518.22 L1771.95 1526.7 Q1772.97 1526.35 1773.99 1526.19 Q1775.01 1526 1776.03 1526 Q1781.82 1526 1785.2 1529.17 Q1788.57 1532.34 1788.57 1537.76 Q1788.57 1543.34 1785.1 1546.44 Q1781.63 1549.52 1775.31 1549.52 Q1773.14 1549.52 1770.87 1549.15 Q1768.62 1548.78 1766.21 1548.04 L1766.21 1543.34 Q1768.3 1544.47 1770.52 1545.03 Q1772.74 1545.58 1775.22 1545.58 Q1779.22 1545.58 1781.56 1543.48 Q1783.9 1541.37 1783.9 1537.76 Q1783.9 1534.15 1781.56 1532.04 Q1779.22 1529.94 1775.22 1529.94 Q1773.34 1529.94 1771.47 1530.35 Q1769.62 1530.77 1767.67 1531.65 L1767.67 1514.29 Z" fill="#000000" fill-rule="nonzero" fill-opacity="1"></path><path clip-path="url(#clip050)" d="M1807.79 1517.37 Q1804.18 1517.37 1802.35 1520.93 Q1800.54 1524.47 1800.54 1531.6 Q1800.54 1538.71 1802.35 1542.27 Q1804.18 1545.82 1807.79 1545.82 Q1811.42 1545.82 1813.23 1542.27 Q1815.06 1538.71 1815.06 1531.6 Q1815.06 1524.47 1813.23 1520.93 Q1811.42 1517.37 1807.79 1517.37 M1807.79 1513.66 Q1813.6 1513.66 1816.65 1518.27 Q1819.73 1522.85 1819.73 1531.6 Q1819.73 1540.33 1816.65 1544.94 Q1813.6 1549.52 1807.79 1549.52 Q1801.98 1549.52 1798.9 1544.94 Q1795.84 1540.33 1795.84 1531.6 Q1795.84 1522.85 1798.9 1518.27 Q1801.98 1513.66 1807.79 1513.66 Z" fill="#000000" fill-rule="nonzero" fill-opacity="1"></path><path clip-path="url(#clip050)" d="M2235.76 1544.91 L2243.4 1544.91 L2243.4 1518.55 L2235.09 1520.21 L2235.09 1515.95 L2243.35 1514.29 L2248.02 1514.29 L2248.02 1544.91 L2255.66 1544.91 L2255.66 1548.85 L2235.76 1548.85 L2235.76 1544.91 Z" fill="#000000" fill-rule="nonzero" fill-opacity="1"></path><path clip-path="url(#clip050)" d="M2275.11 1517.37 Q2271.5 1517.37 2269.67 1520.93 Q2267.86 1524.47 2267.86 1531.6 Q2267.86 1538.71 2269.67 1542.27 Q2271.5 1545.82 2275.11 1545.82 Q2278.74 1545.82 2280.55 1542.27 Q2282.38 1538.71 2282.38 1531.6 Q2282.38 1524.47 2280.55 1520.93 Q2278.74 1517.37 2275.11 1517.37 M2275.11 1513.66 Q2280.92 1513.66 2283.97 1518.27 Q2287.05 1522.85 2287.05 1531.6 Q2287.05 1540.33 2283.97 1544.94 Q2280.92 1549.52 2275.11 1549.52 Q2269.3 1549.52 2266.22 1544.94 Q2263.16 1540.33 2263.16 1531.6 Q2263.16 1522.85 2266.22 1518.27 Q2269.3 1513.66 2275.11 1513.66 Z" fill="#000000" fill-rule="nonzero" fill-opacity="1"></path><path clip-path="url(#clip050)" d="M2305.27 1517.37 Q2301.66 1517.37 2299.83 1520.93 Q2298.02 1524.47 2298.02 1531.6 Q2298.02 1538.71 2299.83 1542.27 Q2301.66 1545.82 2305.27 1545.82 Q2308.9 1545.82 2310.71 1542.27 Q2312.54 1538.71 2312.54 1531.6 Q2312.54 1524.47 2310.71 1520.93 Q2308.9 1517.37 2305.27 1517.37 M2305.27 1513.66 Q2311.08 1513.66 2314.14 1518.27 Q2317.21 1522.85 2317.21 1531.6 Q2317.21 1540.33 2314.14 1544.94 Q2311.08 1549.52 2305.27 1549.52 Q2299.46 1549.52 2296.38 1544.94 Q2293.33 1540.33 2293.33 1531.6 Q2293.33 1522.85 2296.38 1518.27 Q2299.46 1513.66 2305.27 1513.66 Z" fill="#000000" fill-rule="nonzero" fill-opacity="1"></path><path clip-path="url(#clip050)" d="M2335.43 1517.37 Q2331.82 1517.37 2329.99 1520.93 Q2328.19 1524.47 2328.19 1531.6 Q2328.19 1538.71 2329.99 1542.27 Q2331.82 1545.82 2335.43 1545.82 Q2339.07 1545.82 2340.87 1542.27 Q2342.7 1538.71 2342.7 1531.6 Q2342.7 1524.47 2340.87 1520.93 Q2339.07 1517.37 2335.43 1517.37 M2335.43 1513.66 Q2341.24 1513.66 2344.3 1518.27 Q2347.38 1522.85 2347.38 1531.6 Q2347.38 1540.33 2344.3 1544.94 Q2341.24 1549.52 2335.43 1549.52 Q2329.62 1549.52 2326.54 1544.94 Q2323.49 1540.33 2323.49 1531.6 Q2323.49 1522.85 2326.54 1518.27 Q2329.62 1513.66 2335.43 1513.66 Z" fill="#000000" fill-rule="nonzero" fill-opacity="1"></path><polyline clip-path="url(#clip050)" style="stroke:#000000; stroke-linecap:round; stroke-linejoin:round; stroke-width:4; stroke-opacity:1; fill:none" points="178.867,1486.45 178.867,47.2441 "></polyline>
<polyline clip-path="url(#clip050)" style="stroke:#000000; stroke-linecap:round; stroke-linejoin:round; stroke-width:4; stroke-opacity:1; fill:none" points="178.867,1353.91 197.764,1353.91 "></polyline>
<polyline clip-path="url(#clip050)" style="stroke:#000000; stroke-linecap:round; stroke-linejoin:round; stroke-width:4; stroke-opacity:1; fill:none" points="178.867,1146.18 197.764,1146.18 "></polyline>
<polyline clip-path="url(#clip050)" style="stroke:#000000; stroke-linecap:round; stroke-linejoin:round; stroke-width:4; stroke-opacity:1; fill:none" points="178.867,938.457 197.764,938.457 "></polyline>
<polyline clip-path="url(#clip050)" style="stroke:#000000; stroke-linecap:round; stroke-linejoin:round; stroke-width:4; stroke-opacity:1; fill:none" points="178.867,730.733 197.764,730.733 "></polyline>
<polyline clip-path="url(#clip050)" style="stroke:#000000; stroke-linecap:round; stroke-linejoin:round; stroke-width:4; stroke-opacity:1; fill:none" points="178.867,523.008 197.764,523.008 "></polyline>
<polyline clip-path="url(#clip050)" style="stroke:#000000; stroke-linecap:round; stroke-linejoin:round; stroke-width:4; stroke-opacity:1; fill:none" points="178.867,315.284 197.764,315.284 "></polyline>
<polyline clip-path="url(#clip050)" style="stroke:#000000; stroke-linecap:round; stroke-linejoin:round; stroke-width:4; stroke-opacity:1; fill:none" points="178.867,107.559 197.764,107.559 "></polyline>
<path clip-path="url(#clip050)" d="M50.9921 1354.36 L80.6679 1354.36 L80.6679 1358.29 L50.9921 1358.29 L50.9921 1354.36 Z" fill="#000000" fill-rule="nonzero" fill-opacity="1"></path><path clip-path="url(#clip050)" d="M91.5706 1367.25 L99.2095 1367.25 L99.2095 1340.89 L90.8993 1342.55 L90.8993 1338.29 L99.1632 1336.63 L103.839 1336.63 L103.839 1367.25 L111.478 1367.25 L111.478 1371.19 L91.5706 1371.19 L91.5706 1367.25 Z" fill="#000000" fill-rule="nonzero" fill-opacity="1"></path><path clip-path="url(#clip050)" d="M130.922 1339.71 Q127.311 1339.71 125.482 1343.27 Q123.677 1346.81 123.677 1353.94 Q123.677 1361.05 125.482 1364.61 Q127.311 1368.15 130.922 1368.15 Q134.556 1368.15 136.362 1364.61 Q138.191 1361.05 138.191 1353.94 Q138.191 1346.81 136.362 1343.27 Q134.556 1339.71 130.922 1339.71 M130.922 1336 Q136.732 1336 139.788 1340.61 Q142.867 1345.19 142.867 1353.94 Q142.867 1362.67 139.788 1367.27 Q136.732 1371.86 130.922 1371.86 Q125.112 1371.86 122.033 1367.27 Q118.978 1362.67 118.978 1353.94 Q118.978 1345.19 122.033 1340.61 Q125.112 1336 130.922 1336 Z" fill="#000000" fill-rule="nonzero" fill-opacity="1"></path><path clip-path="url(#clip050)" d="M130.922 1131.98 Q127.311 1131.98 125.482 1135.55 Q123.677 1139.09 123.677 1146.22 Q123.677 1153.32 125.482 1156.89 Q127.311 1160.43 130.922 1160.43 Q134.556 1160.43 136.362 1156.89 Q138.191 1153.32 138.191 1146.22 Q138.191 1139.09 136.362 1135.55 Q134.556 1131.98 130.922 1131.98 M130.922 1128.28 Q136.732 1128.28 139.788 1132.88 Q142.867 1137.47 142.867 1146.22 Q142.867 1154.94 139.788 1159.55 Q136.732 1164.13 130.922 1164.13 Q125.112 1164.13 122.033 1159.55 Q118.978 1154.94 118.978 1146.22 Q118.978 1137.47 122.033 1132.88 Q125.112 1128.28 130.922 1128.28 Z" fill="#000000" fill-rule="nonzero" fill-opacity="1"></path><path clip-path="url(#clip050)" d="M91.5706 951.802 L99.2095 951.802 L99.2095 925.437 L90.8993 927.103 L90.8993 922.844 L99.1632 921.177 L103.839 921.177 L103.839 951.802 L111.478 951.802 L111.478 955.737 L91.5706 955.737 L91.5706 951.802 Z" fill="#000000" fill-rule="nonzero" fill-opacity="1"></path><path clip-path="url(#clip050)" d="M130.922 924.256 Q127.311 924.256 125.482 927.821 Q123.677 931.362 123.677 938.492 Q123.677 945.599 125.482 949.163 Q127.311 952.705 130.922 952.705 Q134.556 952.705 136.362 949.163 Q138.191 945.599 138.191 938.492 Q138.191 931.362 136.362 927.821 Q134.556 924.256 130.922 924.256 M130.922 920.552 Q136.732 920.552 139.788 925.159 Q142.867 929.742 142.867 938.492 Q142.867 947.219 139.788 951.825 Q136.732 956.409 130.922 956.409 Q125.112 956.409 122.033 951.825 Q118.978 947.219 118.978 938.492 Q118.978 929.742 122.033 925.159 Q125.112 920.552 130.922 920.552 Z" fill="#000000" fill-rule="nonzero" fill-opacity="1"></path><path clip-path="url(#clip050)" d="M94.7882 744.078 L111.108 744.078 L111.108 748.013 L89.1632 748.013 L89.1632 744.078 Q91.8252 741.323 96.4085 736.693 Q101.015 732.041 102.196 730.698 Q104.441 728.175 105.321 726.439 Q106.223 724.68 106.223 722.99 Q106.223 720.235 104.279 718.499 Q102.358 716.763 99.2558 716.763 Q97.0567 716.763 94.603 717.527 Q92.1725 718.291 89.3947 719.842 L89.3947 715.119 Q92.2188 713.985 94.6724 713.407 Q97.1261 712.828 99.1632 712.828 Q104.534 712.828 107.728 715.513 Q110.922 718.198 110.922 722.689 Q110.922 724.818 110.112 726.74 Q109.325 728.638 107.219 731.231 Q106.64 731.902 103.538 735.119 Q100.436 738.314 94.7882 744.078 Z" fill="#000000" fill-rule="nonzero" fill-opacity="1"></path><path clip-path="url(#clip050)" d="M130.922 716.532 Q127.311 716.532 125.482 720.096 Q123.677 723.638 123.677 730.768 Q123.677 737.874 125.482 741.439 Q127.311 744.98 130.922 744.98 Q134.556 744.98 136.362 741.439 Q138.191 737.874 138.191 730.768 Q138.191 723.638 136.362 720.096 Q134.556 716.532 130.922 716.532 M130.922 712.828 Q136.732 712.828 139.788 717.434 Q142.867 722.018 142.867 730.768 Q142.867 739.494 139.788 744.101 Q136.732 748.684 130.922 748.684 Q125.112 748.684 122.033 744.101 Q118.978 739.494 118.978 730.768 Q118.978 722.018 122.033 717.434 Q125.112 712.828 130.922 712.828 Z" fill="#000000" fill-rule="nonzero" fill-opacity="1"></path><path clip-path="url(#clip050)" d="M104.927 521.654 Q108.283 522.372 110.158 524.64 Q112.057 526.909 112.057 530.242 Q112.057 535.358 108.538 538.159 Q105.02 540.96 98.5382 540.96 Q96.3623 540.96 94.0475 540.52 Q91.7558 540.103 89.3021 539.247 L89.3021 534.733 Q91.2465 535.867 93.5613 536.446 Q95.8761 537.024 98.3993 537.024 Q102.797 537.024 105.089 535.288 Q107.404 533.552 107.404 530.242 Q107.404 527.187 105.251 525.474 Q103.121 523.737 99.3021 523.737 L95.2743 523.737 L95.2743 519.895 L99.4872 519.895 Q102.936 519.895 104.765 518.529 Q106.594 517.14 106.594 514.548 Q106.594 511.886 104.696 510.474 Q102.821 509.038 99.3021 509.038 Q97.3808 509.038 95.1817 509.455 Q92.9826 509.872 90.3438 510.751 L90.3438 506.585 Q93.0058 505.844 95.3206 505.474 Q97.6585 505.103 99.7187 505.103 Q105.043 505.103 108.145 507.534 Q111.246 509.941 111.246 514.062 Q111.246 516.932 109.603 518.923 Q107.959 520.89 104.927 521.654 Z" fill="#000000" fill-rule="nonzero" fill-opacity="1"></path><path clip-path="url(#clip050)" d="M130.922 508.807 Q127.311 508.807 125.482 512.372 Q123.677 515.913 123.677 523.043 Q123.677 530.149 125.482 533.714 Q127.311 537.256 130.922 537.256 Q134.556 537.256 136.362 533.714 Q138.191 530.149 138.191 523.043 Q138.191 515.913 136.362 512.372 Q134.556 508.807 130.922 508.807 M130.922 505.103 Q136.732 505.103 139.788 509.71 Q142.867 514.293 142.867 523.043 Q142.867 531.77 139.788 536.376 Q136.732 540.96 130.922 540.96 Q125.112 540.96 122.033 536.376 Q118.978 531.77 118.978 523.043 Q118.978 514.293 122.033 509.71 Q125.112 505.103 130.922 505.103 Z" fill="#000000" fill-rule="nonzero" fill-opacity="1"></path><path clip-path="url(#clip050)" d="M103.608 302.078 L91.8021 320.527 L103.608 320.527 L103.608 302.078 M102.381 298.004 L108.26 298.004 L108.26 320.527 L113.191 320.527 L113.191 324.416 L108.26 324.416 L108.26 332.564 L103.608 332.564 L103.608 324.416 L88.0058 324.416 L88.0058 319.902 L102.381 298.004 Z" fill="#000000" fill-rule="nonzero" fill-opacity="1"></path><path clip-path="url(#clip050)" d="M130.922 301.082 Q127.311 301.082 125.482 304.647 Q123.677 308.189 123.677 315.318 Q123.677 322.425 125.482 325.99 Q127.311 329.531 130.922 329.531 Q134.556 329.531 136.362 325.99 Q138.191 322.425 138.191 315.318 Q138.191 308.189 136.362 304.647 Q134.556 301.082 130.922 301.082 M130.922 297.379 Q136.732 297.379 139.788 301.985 Q142.867 306.569 142.867 315.318 Q142.867 324.045 139.788 328.652 Q136.732 333.235 130.922 333.235 Q125.112 333.235 122.033 328.652 Q118.978 324.045 118.978 315.318 Q118.978 306.569 122.033 301.985 Q125.112 297.379 130.922 297.379 Z" fill="#000000" fill-rule="nonzero" fill-opacity="1"></path><path clip-path="url(#clip050)" d="M90.8067 90.2792 L109.163 90.2792 L109.163 94.2144 L95.0891 94.2144 L95.0891 102.687 Q96.1076 102.339 97.1261 102.177 Q98.1447 101.992 99.1632 101.992 Q104.95 101.992 108.33 105.163 Q111.709 108.335 111.709 113.751 Q111.709 119.33 108.237 122.432 Q104.765 125.511 98.4456 125.511 Q96.2697 125.511 94.0012 125.14 Q91.7558 124.77 89.3484 124.029 L89.3484 119.33 Q91.4317 120.464 93.6539 121.02 Q95.8761 121.575 98.353 121.575 Q102.358 121.575 104.696 119.469 Q107.033 117.362 107.033 113.751 Q107.033 110.14 104.696 108.034 Q102.358 105.927 98.353 105.927 Q96.478 105.927 94.603 106.344 Q92.7512 106.761 90.8067 107.64 L90.8067 90.2792 Z" fill="#000000" fill-rule="nonzero" fill-opacity="1"></path><path clip-path="url(#clip050)" d="M130.922 93.3579 Q127.311 93.3579 125.482 96.9227 Q123.677 100.464 123.677 107.594 Q123.677 114.7 125.482 118.265 Q127.311 121.807 130.922 121.807 Q134.556 121.807 136.362 118.265 Q138.191 114.7 138.191 107.594 Q138.191 100.464 136.362 96.9227 Q134.556 93.3579 130.922 93.3579 M130.922 89.6543 Q136.732 89.6543 139.788 94.2607 Q142.867 98.844 142.867 107.594 Q142.867 116.321 139.788 120.927 Q136.732 125.511 130.922 125.511 Q125.112 125.511 122.033 120.927 Q118.978 116.321 118.978 107.594 Q118.978 98.844 122.033 94.2607 Q125.112 89.6543 130.922 89.6543 Z" fill="#000000" fill-rule="nonzero" fill-opacity="1"></path><polyline clip-path="url(#clip052)" style="stroke:#009af9; stroke-linecap:round; stroke-linejoin:round; stroke-width:4; stroke-opacity:1; fill:none" points="240.392,1267.2 242.445,1216.85 244.498,1223.98 246.55,1232.68 248.603,1254.83 250.656,1272.58 252.709,1269.62 254.762,1232.88 256.815,1236.59 258.868,1286.09 260.921,1314.28 262.974,1312.3 265.027,1353.18 267.079,1305.41 269.132,1323.04 271.185,1312.36 273.238,1290.3 275.291,1327.52 277.344,1319.23 279.397,1296.68 281.45,1306.37 283.503,1313.87 285.555,1310.94 287.608,1333.27 289.661,1336.08 291.714,1340.49 293.767,1352.43 295.82,1336.24 297.873,1351.6 299.926,1377.95 301.979,1386.95 304.031,1359.69 306.084,1332.8 308.137,1347.31 310.19,1326.07 312.243,1310.53 314.296,1319.79 316.349,1341.36 318.402,1373.95 320.455,1381.96 322.507,1383.03 324.56,1368.55 326.613,1378.47 328.666,1364.67 330.719,1368.79 332.772,1377.3 334.825,1406.68 336.878,1420.74 338.931,1427.04 340.984,1445.72 343.036,1413.36 345.089,1418.43 347.142,1411.22 349.195,1414.89 351.248,1375.07 353.301,1391.77 355.354,1383.06 357.407,1374.83 359.46,1349.8 361.512,1341.76 363.565,1301.7 365.618,1303.33 367.671,1312.61 369.724,1329.11 371.777,1304.39 373.83,1287.88 375.883,1212.11 377.936,1186.85 379.988,1205.06 382.041,1192.13 384.094,1179.82 386.147,1161.36 388.2,1148.4 390.253,1132.95 392.306,1124.48 394.359,1126.75 396.412,1098.22 398.464,1077.84 400.517,1137.91 402.57,1099.32 404.623,1115.12 406.676,1145.61 408.729,1116.76 410.782,1143.26 412.835,1144.12 414.888,1145.93 416.94,1154.7 418.993,1127.4 421.046,1107.77 423.099,1094.44 425.152,1096.68 427.205,1068.66 429.258,1088.71 431.311,1096.92 433.364,1084.86 435.417,1082.64 437.469,1079.16 439.522,1040.38 441.575,1054.42 443.628,1088.35 445.681,1104.95 447.734,1089.91 449.787,1108.44 451.84,1127.64 453.893,1110.23 455.945,1080.82 457.998,1082.09 460.051,1087.65 462.104,1089.75 464.157,1100.33 466.21,1102.69 468.263,1086.02 470.316,1099.55 472.369,1086.55 474.421,1091.59 476.474,1093.35 478.527,1083.14 480.58,1082.83 482.633,1065.79 484.686,1084.29 486.739,1116 488.792,1123.62 490.845,1136.53 492.897,1140.08 494.95,1141.75 497.003,1133.01 499.056,1127.22 501.109,1162.05 503.162,1176.19 505.215,1196.17 507.268,1212.61 509.321,1228.97 511.374,1244.67 513.426,1232.17 515.479,1250.24 517.532,1231.05 519.585,1214.7 521.638,1270.84 523.691,1278.61 525.744,1251.53 527.797,1313.48 529.85,1284.18 531.902,1286.27 533.955,1249.48 536.008,1234.54 538.061,1229.22 540.114,1218.45 542.167,1222.42 544.22,1219.4 546.273,1238.87 548.326,1203.23 550.378,1213.76 552.431,1260.06 554.484,1267.05 556.537,1280.07 558.59,1308.51 560.643,1325.95 562.696,1325.4 564.749,1292.52 566.802,1301.44 568.854,1315.35 570.907,1321.3 572.96,1342.39 575.013,1317.91 577.066,1349.57 579.119,1351.23 581.172,1327.44 583.225,1302.03 585.278,1296.76 587.331,1296.46 589.383,1296.73 591.436,1317.86 593.489,1324.98 595.542,1320.83 597.595,1323.77 599.648,1321.12 601.701,1324.84 603.754,1328.62 605.807,1349.57 607.859,1335.23 609.912,1366.17 611.965,1378.12 614.018,1421.52 616.071,1410.2 618.124,1407.38 620.177,1411.92 622.23,1402.02 624.283,1403.61 626.335,1378.94 628.388,1365.11 630.441,1337.14 632.494,1336.25 634.547,1312.85 636.6,1340.68 638.653,1310.95 640.706,1327.78 642.759,1382.55 644.811,1364.81 646.864,1340.13 648.917,1337.2 650.97,1315.57 653.023,1287.97 655.076,1279.83 657.129,1292.1 659.182,1307.46 661.235,1317.79 663.288,1324.66 665.34,1362.27 667.393,1338.58 669.446,1345.87 671.499,1364.07 673.552,1415.32 675.605,1411.54 677.658,1414.05 679.711,1393.88 681.764,1379.05 683.816,1399.63 685.869,1390.25 687.922,1384.78 689.975,1366.85 692.028,1379.39 694.081,1390.9 696.134,1378.14 698.187,1382.69 700.24,1375.74 702.292,1363.04 704.345,1353.01 706.398,1314.76 708.451,1307.41 710.504,1277.27 712.557,1267.43 714.61,1295.3 716.663,1261.71 718.716,1261.59 720.768,1258.27 722.821,1260.31 724.874,1211.55 726.927,1208.58 728.98,1225.94 731.033,1232.31 733.086,1203.46 735.139,1202.14 737.192,1201.26 739.245,1232.41 741.297,1255.76 743.35,1240.2 745.403,1235.93 747.456,1256.13 749.509,1257.55 751.562,1297.24 753.615,1309.1 755.668,1306.22 757.721,1315.9 759.773,1287.68 761.826,1284.22 763.879,1254.5 765.932,1263.49 767.985,1291.57 770.038,1269.2 772.091,1255.68 774.144,1276.43 776.197,1278.11 778.249,1291.76 780.302,1277.6 782.355,1249.56 784.408,1279.94 786.461,1233.66 788.514,1200.24 790.567,1201.23 792.62,1206.02 794.673,1208.18 796.725,1243.29 798.778,1210.03 800.831,1191.81 802.884,1195.84 804.937,1184.85 806.99,1172.83 809.043,1175.5 811.096,1163.53 813.149,1156.53 815.202,1174.45 817.254,1207.16 819.307,1220.88 821.36,1203.23 823.413,1204.27 825.466,1183.98 827.519,1195.53 829.572,1217.51 831.625,1222.46 833.678,1215.12 835.73,1193.16 837.783,1198.69 839.836,1180.91 841.889,1198.12 843.942,1170.01 845.995,1196.87 848.048,1205.95 850.101,1162.1 852.154,1170.72 854.206,1186.86 856.259,1202.07 858.312,1173.01 860.365,1165.59 862.418,1190.1 864.471,1216.96 866.524,1209.39 868.577,1199.18 870.63,1189.7 872.682,1161.6 874.735,1163.44 876.788,1143.81 878.841,1141.53 880.894,1160.51 882.947,1147.99 885,1128.25 887.053,1117.96 889.106,1141.83 891.159,1133.56 893.211,1134.28 895.264,1131.72 897.317,1156.55 899.37,1196.7 901.423,1214.62 903.476,1207.67 905.529,1213.97 907.582,1211.62 909.635,1207.71 911.687,1194.21 913.74,1217.54 915.793,1230.03 917.846,1229.56 919.899,1234.22 921.952,1245.59 924.005,1254.94 926.058,1271.54 928.111,1275.1 930.163,1318.97 932.216,1322.1 934.269,1332.07 936.322,1324.62 938.375,1316.54 940.428,1330 942.481,1322.83 944.534,1335.94 946.587,1326.96 948.639,1304.75 950.692,1276.27 952.745,1292.91 954.798,1285.18 956.851,1262.28 958.904,1286.02 960.957,1289.65 963.01,1275.1 965.063,1265.95 967.116,1272.32 969.168,1282.95 971.221,1290.54 973.274,1303.45 975.327,1304.58 977.38,1292.91 979.433,1290.64 981.486,1285.15 983.539,1271.33 985.592,1254.01 987.644,1228.79 989.697,1212.35 991.75,1185.19 993.803,1176.45 995.856,1164.2 997.909,1142.91 999.962,1134 1002.01,1099.15 1004.07,1125.57 1006.12,1129.03 1008.17,1144.38 1010.23,1139.87 1012.28,1142.84 1014.33,1168.22 1016.38,1172.36 1018.44,1171.06 1020.49,1172.63 1022.54,1187.06 1024.6,1182.06 1026.65,1158.43 1028.7,1147.42 1030.76,1141.17 1032.81,1161.28 1034.86,1156.57 1036.91,1166.46 1038.97,1137.12 1041.02,1118.87 1043.07,1126.89 1045.13,1133.39 1047.18,1153.46 1049.23,1152.83 1051.28,1162.27 1053.34,1172.72 1055.39,1203.9 1057.44,1199.03 1059.5,1203.61 1061.55,1185.06 1063.6,1178.04 1065.65,1157.09 1067.71,1162.69 1069.76,1160.94 1071.81,1174.18 1073.87,1178.84 1075.92,1169.05 1077.97,1159.78 1080.02,1159.08 1082.08,1172.32 1084.13,1137.19 1086.18,1150.27 1088.24,1144.03 1090.29,1160.25 1092.34,1187.85 1094.39,1153.84 1096.45,1127.29 1098.5,1168.81 1100.55,1133.83 1102.61,1208.15 1104.66,1181.99 1106.71,1243.68 1108.77,1237.08 1110.82,1225.26 1112.87,1229.22 1114.92,1236.39 1116.98,1214.14 1119.03,1233.6 1121.08,1233.7 1123.14,1243.02 1125.19,1228.06 1127.24,1206.97 1129.29,1231.44 1131.35,1217.13 1133.4,1214.38 1135.45,1196.6 1137.51,1192.57 1139.56,1204.4 1141.61,1183.11 1143.66,1160.66 1145.72,1146.57 1147.77,1129.1 1149.82,1127.55 1151.88,1117.58 1153.93,1179.74 1155.98,1190.11 1158.03,1212.76 1160.09,1221.39 1162.14,1219.28 1164.19,1186.1 1166.25,1155.43 1168.3,1174.16 1170.35,1165.42 1172.4,1182.38 1174.46,1166.84 1176.51,1173.54 1178.56,1172 1180.62,1181.86 1182.67,1213.39 1184.72,1260.39 1186.77,1241.2 1188.83,1225.82 1190.88,1182.76 1192.93,1162.57 1194.99,1144.29 1197.04,1131.4 1199.09,1138.92 1201.15,1119.68 1203.2,1128.98 1205.25,1139.54 1207.3,1163.15 1209.36,1185.98 1211.41,1228.79 1213.46,1231.72 1215.52,1233.92 1217.57,1238.61 1219.62,1230.67 1221.67,1206.53 1223.73,1173.02 1225.78,1169.63 1227.83,1169 1229.89,1164.33 1231.94,1192.37 1233.99,1164.48 1236.04,1158.57 1238.1,1154.36 1240.15,1170.83 1242.2,1158.81 1244.26,1121.86 1246.31,1132.95 1248.36,1121.61 1250.41,1089.82 1252.47,1055.32 1254.52,1028.01 1256.57,1025.16 1258.63,1033.89 1260.68,1021.88 1262.73,1044.76 1264.78,1057.34 1266.84,1032.66 1268.89,1055.69 1270.94,1048.6 1273,1062.84 1275.05,1104.78 1277.1,1119.51 1279.16,1103.2 1281.21,1094.62 1283.26,1047.43 1285.31,1065.33 1287.37,1062.22 1289.42,1053.42 1291.47,1033.96 1293.53,1031.17 1295.58,1029.43 1297.63,1007.26 1299.68,1040.02 1301.74,1035.51 1303.79,1076.25 1305.84,1112.79 1307.9,1044.2 1309.95,1041.43 1312,1019.98 1314.05,1020.08 1316.11,1037.24 1318.16,1018.51 1320.21,981.07 1322.27,1023.38 1324.32,1037.57 1326.37,1053.15 1328.42,1026.09 1330.48,1060.42 1332.53,1073.67 1334.58,1122.24 1336.64,1115.27 1338.69,1092.39 1340.74,1101.09 1342.79,1113.09 1344.85,1070.03 1346.9,1045.62 1348.95,1045.14 1351.01,1083.61 1353.06,1090.58 1355.11,1062.95 1357.16,1065.97 1359.22,1066.51 1361.27,1078.28 1363.32,1077.41 1365.38,1085.15 1367.43,1099.01 1369.48,1109.83 1371.54,1118.57 1373.59,1161 1375.64,1139.63 1377.69,1129.54 1379.75,1126.56 1381.8,1093.56 1383.85,1104.15 1385.91,1109.82 1387.96,1104.01 1390.01,1073.97 1392.06,1060.62 1394.12,1066.93 1396.17,1027.59 1398.22,1078.27 1400.28,1051.86 1402.33,1039.55 1404.38,1023.39 1406.43,1030.55 1408.49,1016.41 1410.54,1005.73 1412.59,995.589 1414.65,1025.67 1416.7,1008.08 1418.75,992.358 1420.8,1022 1422.86,987.857 1424.91,929.693 1426.96,910.049 1429.02,921.215 1431.07,891.269 1433.12,874.858 1435.17,892.575 1437.23,917.51 1439.28,902.111 1441.33,894.655 1443.39,890.633 1445.44,901.503 1447.49,915.63 1449.55,936.57 1451.6,921.161 1453.65,938.711 1455.7,924.346 1457.76,912.656 1459.81,912.36 1461.86,905.784 1463.92,893.756 1465.97,901.401 1468.02,884.486 1470.07,892.827 1472.13,883.076 1474.18,899.027 1476.23,868.336 1478.29,859.363 1480.34,858.525 1482.39,852.433 1484.44,832.084 1486.5,798.32 1488.55,781.203 1490.6,768.643 1492.66,774.863 1494.71,759.132 1496.76,779.453 1498.81,767.748 1500.87,750.529 1502.92,752.827 1504.97,744.466 1507.03,717.748 1509.08,710.753 1511.13,696.831 1513.18,695.604 1515.24,706.786 1517.29,698.227 1519.34,669.714 1521.4,676.066 1523.45,691.251 1525.5,680.575 1527.55,701.608 1529.61,733.898 1531.66,728.034 1533.71,759.965 1535.77,778.703 1537.82,771.523 1539.87,788.114 1541.93,784.422 1543.98,762.949 1546.03,772.629 1548.08,754.017 1550.14,718.722 1552.19,748.472 1554.24,781.935 1556.3,782.322 1558.35,778.635 1560.4,764.318 1562.45,744.049 1564.51,735.895 1566.56,757.216 1568.61,734.603 1570.67,729.846 1572.72,732.902 1574.77,743.117 1576.82,718.145 1578.88,709.779 1580.93,716.004 1582.98,716.871 1585.04,713.909 1587.09,709.004 1589.14,765.232 1591.19,746.55 1593.25,733.863 1595.3,744.217 1597.35,749.264 1599.41,775.512 1601.46,733.01 1603.51,733.354 1605.56,737.555 1607.62,748.586 1609.67,718.191 1611.72,740.334 1613.78,745.549 1615.83,697.274 1617.88,668.444 1619.94,671.993 1621.99,705.214 1624.04,739.747 1626.09,745.047 1628.15,787.516 1630.2,802.44 1632.25,816.19 1634.31,814.855 1636.36,822.383 1638.41,838.941 1640.46,873.658 1642.52,878.083 1644.57,856.408 1646.62,831.729 1648.68,845.431 1650.73,822.511 1652.78,810.339 1654.83,776.765 1656.89,783.331 1658.94,786.705 1660.99,758.434 1663.05,737.775 1665.1,729.074 1667.15,739.968 1669.2,705.92 1671.26,692.642 1673.31,740.407 1675.36,703.478 1677.42,694.395 1679.47,696.448 1681.52,700.24 1683.57,693.075 1685.63,738.081 1687.68,742.923 1689.73,732.885 1691.79,730.377 1693.84,756.341 1695.89,771.114 1697.94,743.642 1700,735.56 1702.05,689.173 1704.1,683.615 1706.16,695.789 1708.21,673.854 1710.26,658.185 1712.32,653.456 1714.37,603.826 1716.42,596.938 1718.47,586.107 1720.53,556.015 1722.58,554.186 1724.63,553.117 1726.69,560.013 1728.74,534.034 1730.79,530.279 1732.84,539.249 1734.9,535.003 1736.95,594.317 1739,561.492 1741.06,544.603 1743.11,539.367 1745.16,487.866 1747.21,510.549 1749.27,488.101 1751.32,479.403 1753.37,501.124 1755.43,469.816 1757.48,499.346 1759.53,472.003 1761.58,483.755 1763.64,458.071 1765.69,425.195 1767.74,437.406 1769.8,463.66 1771.85,470.029 1773.9,447.944 1775.95,436.6 1778.01,450.386 1780.06,467.089 1782.11,505.919 1784.17,524.196 1786.22,540.155 1788.27,508.553 1790.33,518.545 1792.38,518.342 1794.43,510.872 1796.48,509.769 1798.54,517.936 1800.59,543.705 1802.64,527.738 1804.7,537.281 1806.75,570.022 1808.8,588.26 1810.85,604.928 1812.91,588.624 1814.96,563.255 1817.01,532.123 1819.07,480.723 1821.12,439.277 1823.17,425.8 1825.22,454.498 1827.28,470.284 1829.33,497.219 1831.38,468.013 1833.44,445.384 1835.49,444.961 1837.54,413.995 1839.59,385.844 1841.65,335.841 1843.7,350.315 1845.75,338.629 1847.81,313.567 1849.86,310.19 1851.91,313.429 1853.96,325.191 1856.02,334.801 1858.07,330.547 1860.12,325.54 1862.18,300.309 1864.23,277.908 1866.28,273.555 1868.34,283.714 1870.39,301.267 1872.44,340.179 1874.49,343.906 1876.55,330.187 1878.6,343.828 1880.65,329.195 1882.71,311.649 1884.76,277.5 1886.81,262.038 1888.86,267.985 1890.92,276.657 1892.97,264.087 1895.02,264.89 1897.08,265.911 1899.13,256.803 1901.18,235.828 1903.23,170.233 1905.29,169.228 1907.34,162.78 1909.39,132.747 1911.45,108.87 1913.5,130.165 1915.55,129.267 1917.6,129.85 1919.66,120.856 1921.71,140.583 1923.76,154.555 1925.82,123.719 1927.87,150.547 1929.92,148.616 1931.97,167.828 1934.03,152.259 1936.08,142.623 1938.13,148.424 1940.19,148.344 1942.24,122.143 1944.29,106.725 1946.34,97.1504 1948.4,129.448 1950.45,151.322 1952.5,151.734 1954.56,139.967 1956.61,138.646 1958.66,110.95 1960.72,94.8167 1962.77,106.391 1964.82,111.941 1966.87,118.252 1968.93,141.903 1970.98,141.222 1973.03,123.582 1975.09,103.504 1977.14,111.183 1979.19,87.9763 1981.24,99.4497 1983.3,107.026 1985.35,108.135 1987.4,138.594 1989.46,134.578 1991.51,105.528 1993.56,132.142 1995.61,117.506 1997.67,144.198 1999.72,169.06 2001.77,153.747 2003.83,156.124 2005.88,179.903 2007.93,173.892 2009.98,209.924 2012.04,196.439 2014.09,214.135 2016.14,182.796 2018.2,193.438 2020.25,169.978 2022.3,182.242 2024.35,217.625 2026.41,214.037 2028.46,233.681 2030.51,195.882 2032.57,172.133 2034.62,205.492 2036.67,190.484 2038.73,212.184 2040.78,233.363 2042.83,235.156 2044.88,238.573 2046.94,256.305 2048.99,288.755 2051.04,293.558 2053.1,295.592 2055.15,281.839 2057.2,253.371 2059.25,242.171 2061.31,228.849 2063.36,219.553 2065.41,263.565 2067.47,272.736 2069.52,280.384 2071.57,277.409 2073.62,303.849 2075.68,302.815 2077.73,352.476 2079.78,355.476 2081.84,344.238 2083.89,364.206 2085.94,369.583 2087.99,337.418 2090.05,345.216 2092.1,346.533 2094.15,359.483 2096.21,338.205 2098.26,384.85 2100.31,394.124 2102.36,390.766 2104.42,428.301 2106.47,464.34 2108.52,463.893 2110.58,469.949 2112.63,505.292 2114.68,503.053 2116.73,461.754 2118.79,489.765 2120.84,437.251 2122.89,427.51 2124.95,419.49 2127,409.306 2129.05,416.505 2131.11,395.364 2133.16,385.38 2135.21,348.145 2137.26,332.858 2139.32,343.985 2141.37,360.029 2143.42,301.319 2145.48,292.789 2147.53,291.32 2149.58,277.445 2151.63,272.023 2153.69,243.666 2155.74,261.327 2157.79,272.056 2159.85,284.524 2161.9,276.027 2163.95,235.879 2166,228.186 2168.06,234.018 2170.11,250.911 2172.16,223.967 2174.22,261.781 2176.27,296.915 2178.32,322.156 2180.37,330.503 2182.43,296.489 2184.48,285.999 2186.53,316.076 2188.59,308.283 2190.64,293.879 2192.69,285.776 2194.74,288.075 2196.8,301.614 2198.85,323.262 2200.9,272.67 2202.96,287.13 2205.01,305.516 2207.06,309.182 2209.12,270.992 2211.17,276.762 2213.22,317.343 2215.27,283.95 2217.33,301.083 2219.38,290.897 2221.43,294.061 2223.49,291.369 2225.54,306.537 2227.59,298.755 2229.64,303.781 2231.7,322.643 2233.75,298.87 2235.8,290.592 2237.86,289.302 2239.91,260.054 2241.96,265.498 2244.01,253.868 2246.07,211.067 2248.12,225.554 2250.17,217.177 2252.23,270.428 2254.28,276.184 2256.33,318.219 2258.38,331.417 2260.44,311.414 2262.49,300.797 2264.54,306.498 2266.6,296.76 2268.65,270.644 2270.7,251.974 2272.75,210.662 2274.81,211.526 2276.86,216.642 2278.91,196.979 2280.97,229.312 2283.02,219 2285.07,233.166 2287.12,225.11 2289.18,250.652 2291.23,245.171 "></polyline>
<path clip-path="url(#clip050)" d="M251.33 198.898 L521.149 198.898 L521.149 95.2176 L251.33 95.2176  Z" fill="#ffffff" fill-rule="evenodd" fill-opacity="1"></path>
<polyline clip-path="url(#clip050)" style="stroke:#000000; stroke-linecap:round; stroke-linejoin:round; stroke-width:4; stroke-opacity:1; fill:none" points="251.33,198.898 521.149,198.898 521.149,95.2176 251.33,95.2176 251.33,198.898 "></polyline>
<polyline clip-path="url(#clip050)" style="stroke:#009af9; stroke-linecap:round; stroke-linejoin:round; stroke-width:4; stroke-opacity:1; fill:none" points="275.484,147.058 420.41,147.058 "></polyline>
<path clip-path="url(#clip050)" d="M458.407 166.745 Q456.601 171.375 454.888 172.787 Q453.175 174.199 450.305 174.199 L446.902 174.199 L446.902 170.634 L449.402 170.634 Q451.161 170.634 452.134 169.8 Q453.106 168.967 454.286 165.865 L455.05 163.921 L444.564 138.412 L449.078 138.412 L457.18 158.689 L465.282 138.412 L469.796 138.412 L458.407 166.745 Z" fill="#000000" fill-rule="nonzero" fill-opacity="1"></path><path clip-path="url(#clip050)" d="M477.087 160.402 L484.726 160.402 L484.726 134.037 L476.416 135.703 L476.416 131.444 L484.68 129.778 L489.356 129.778 L489.356 160.402 L496.994 160.402 L496.994 164.338 L477.087 164.338 L477.087 160.402 Z" fill="#000000" fill-rule="nonzero" fill-opacity="1"></path></svg>