<svg xmlns="http://www.w3.org/2000/svg" xmlns:xlink="http://www.w3.org/1999/xlink" width="600" height="400" viewBox="0 0 2400 1600">
<defs>
  <clipPath id="clip970">
    <rect x="0" y="0" width="2400" height="1600"></rect>
  </clipPath>
</defs>
<path clip-path="url(#clip970)" d="M0 1600 L2400 1600 L2400 8.88178e-14 L0 8.88178e-14  Z" fill="#ffffff" fill-rule="evenodd" fill-opacity="1"></path>
<defs>
  <clipPath id="clip971">
    <rect x="480" y="0" width="1681" height="1600"></rect>
  </clipPath>
</defs>
<path clip-path="url(#clip970)" d="M359.978 1486.45 L2352.76 1486.45 L2352.76 47.2441 L359.978 47.2441  Z" fill="#ffffff" fill-rule="evenodd" fill-opacity="1"></path>
<defs>
  <clipPath id="clip972">
    <rect x="359" y="47" width="1994" height="1440"></rect>
  </clipPath>
</defs>
<polyline clip-path="url(#clip972)" style="stroke:#000000; stroke-linecap:round; stroke-linejoin:round; stroke-width:2; stroke-opacity:0.1; fill:none" points="412.595,1486.45 412.595,47.2441 "></polyline>
<polyline clip-path="url(#clip972)" style="stroke:#000000; stroke-linecap:round; stroke-linejoin:round; stroke-width:2; stroke-opacity:0.1; fill:none" points="790.86,1486.45 790.86,47.2441 "></polyline>
<polyline clip-path="url(#clip972)" style="stroke:#000000; stroke-linecap:round; stroke-linejoin:round; stroke-width:2; stroke-opacity:0.1; fill:none" points="1169.13,1486.45 1169.13,47.2441 "></polyline>
<polyline clip-path="url(#clip972)" style="stroke:#000000; stroke-linecap:round; stroke-linejoin:round; stroke-width:2; stroke-opacity:0.1; fill:none" points="1547.39,1486.45 1547.39,47.2441 "></polyline>
<polyline clip-path="url(#clip972)" style="stroke:#000000; stroke-linecap:round; stroke-linejoin:round; stroke-width:2; stroke-opacity:0.1; fill:none" points="1925.66,1486.45 1925.66,47.2441 "></polyline>
<polyline clip-path="url(#clip972)" style="stroke:#000000; stroke-linecap:round; stroke-linejoin:round; stroke-width:2; stroke-opacity:0.1; fill:none" points="2303.92,1486.45 2303.92,47.2441 "></polyline>
<polyline clip-path="url(#clip972)" style="stroke:#000000; stroke-linecap:round; stroke-linejoin:round; stroke-width:2; stroke-opacity:0.1; fill:none" points="359.978,1243.49 2352.76,1243.49 "></polyline>
<polyline clip-path="url(#clip972)" style="stroke:#000000; stroke-linecap:round; stroke-linejoin:round; stroke-width:2; stroke-opacity:0.1; fill:none" points="359.978,858.32 2352.76,858.32 "></polyline>
<polyline clip-path="url(#clip972)" style="stroke:#000000; stroke-linecap:round; stroke-linejoin:round; stroke-width:2; stroke-opacity:0.1; fill:none" points="359.978,473.148 2352.76,473.148 "></polyline>
<polyline clip-path="url(#clip972)" style="stroke:#000000; stroke-linecap:round; stroke-linejoin:round; stroke-width:2; stroke-opacity:0.1; fill:none" points="359.978,87.9763 2352.76,87.9763 "></polyline>
<polyline clip-path="url(#clip970)" style="stroke:#000000; stroke-linecap:round; stroke-linejoin:round; stroke-width:4; stroke-opacity:1; fill:none" points="359.978,1486.45 2352.76,1486.45 "></polyline>
<polyline clip-path="url(#clip970)" style="stroke:#000000; stroke-linecap:round; stroke-linejoin:round; stroke-width:4; stroke-opacity:1; fill:none" points="412.595,1486.45 412.595,1467.55 "></polyline>
<polyline clip-path="url(#clip970)" style="stroke:#000000; stroke-linecap:round; stroke-linejoin:round; stroke-width:4; stroke-opacity:1; fill:none" points="790.86,1486.45 790.86,1467.55 "></polyline>
<polyline clip-path="url(#clip970)" style="stroke:#000000; stroke-linecap:round; stroke-linejoin:round; stroke-width:4; stroke-opacity:1; fill:none" points="1169.13,1486.45 1169.13,1467.55 "></polyline>
<polyline clip-path="url(#clip970)" style="stroke:#000000; stroke-linecap:round; stroke-linejoin:round; stroke-width:4; stroke-opacity:1; fill:none" points="1547.39,1486.45 1547.39,1467.55 "></polyline>
<polyline clip-path="url(#clip970)" style="stroke:#000000; stroke-linecap:round; stroke-linejoin:round; stroke-width:4; stroke-opacity:1; fill:none" points="1925.66,1486.45 1925.66,1467.55 "></polyline>
<polyline clip-path="url(#clip970)" style="stroke:#000000; stroke-linecap:round; stroke-linejoin:round; stroke-width:4; stroke-opacity:1; fill:none" points="2303.92,1486.45 2303.92,1467.55 "></polyline>
<path clip-path="url(#clip970)" d="M412.595 1517.37 Q408.984 1517.37 407.155 1520.93 Q405.35 1524.47 405.35 1531.6 Q405.35 1538.71 407.155 1542.27 Q408.984 1545.82 412.595 1545.82 Q416.229 1545.82 418.035 1542.27 Q419.863 1538.71 419.863 1531.6 Q419.863 1524.47 418.035 1520.93 Q416.229 1517.37 412.595 1517.37 M412.595 1513.66 Q418.405 1513.66 421.461 1518.27 Q424.539 1522.85 424.539 1531.6 Q424.539 1540.33 421.461 1544.94 Q418.405 1549.52 412.595 1549.52 Q406.785 1549.52 403.706 1544.94 Q400.651 1540.33 400.651 1531.6 Q400.651 1522.85 403.706 1518.27 Q406.785 1513.66 412.595 1513.66 Z" fill="#000000" fill-rule="nonzero" fill-opacity="1"></path><path clip-path="url(#clip970)" d="M750.467 1544.91 L758.106 1544.91 L758.106 1518.55 L749.796 1520.21 L749.796 1515.95 L758.06 1514.29 L762.735 1514.29 L762.735 1544.91 L770.374 1544.91 L770.374 1548.85 L750.467 1548.85 L750.467 1544.91 Z" fill="#000000" fill-rule="nonzero" fill-opacity="1"></path><path clip-path="url(#clip970)" d="M789.819 1517.37 Q786.208 1517.37 784.379 1520.93 Q782.573 1524.47 782.573 1531.6 Q782.573 1538.71 784.379 1542.27 Q786.208 1545.82 789.819 1545.82 Q793.453 1545.82 795.258 1542.27 Q797.087 1538.71 797.087 1531.6 Q797.087 1524.47 795.258 1520.93 Q793.453 1517.37 789.819 1517.37 M789.819 1513.66 Q795.629 1513.66 798.684 1518.27 Q801.763 1522.85 801.763 1531.6 Q801.763 1540.33 798.684 1544.94 Q795.629 1549.52 789.819 1549.52 Q784.009 1549.52 780.93 1544.94 Q777.874 1540.33 777.874 1531.6 Q777.874 1522.85 780.93 1518.27 Q784.009 1513.66 789.819 1513.66 Z" fill="#000000" fill-rule="nonzero" fill-opacity="1"></path><path clip-path="url(#clip970)" d="M819.981 1517.37 Q816.369 1517.37 814.541 1520.93 Q812.735 1524.47 812.735 1531.6 Q812.735 1538.71 814.541 1542.27 Q816.369 1545.82 819.981 1545.82 Q823.615 1545.82 825.42 1542.27 Q827.249 1538.71 827.249 1531.6 Q827.249 1524.47 825.42 1520.93 Q823.615 1517.37 819.981 1517.37 M819.981 1513.66 Q825.791 1513.66 828.846 1518.27 Q831.925 1522.85 831.925 1531.6 Q831.925 1540.33 828.846 1544.94 Q825.791 1549.52 819.981 1549.52 Q814.17 1549.52 811.092 1544.94 Q808.036 1540.33 808.036 1531.6 Q808.036 1522.85 811.092 1518.27 Q814.17 1513.66 819.981 1513.66 Z" fill="#000000" fill-rule="nonzero" fill-opacity="1"></path><path clip-path="url(#clip970)" d="M1132.82 1544.91 L1149.14 1544.91 L1149.14 1548.85 L1127.19 1548.85 L1127.19 1544.91 Q1129.86 1542.16 1134.44 1537.53 Q1139.04 1532.88 1140.23 1531.53 Q1142.47 1529.01 1143.35 1527.27 Q1144.25 1525.51 1144.25 1523.82 Q1144.25 1521.07 1142.31 1519.33 Q1140.39 1517.6 1137.29 1517.6 Q1135.09 1517.6 1132.63 1518.36 Q1130.2 1519.13 1127.42 1520.68 L1127.42 1515.95 Q1130.25 1514.82 1132.7 1514.24 Q1135.16 1513.66 1137.19 1513.66 Q1142.56 1513.66 1145.76 1516.35 Q1148.95 1519.03 1148.95 1523.52 Q1148.95 1525.65 1148.14 1527.57 Q1147.35 1529.47 1145.25 1532.07 Q1144.67 1532.74 1141.57 1535.95 Q1138.47 1539.15 1132.82 1544.91 Z" fill="#000000" fill-rule="nonzero" fill-opacity="1"></path><path clip-path="url(#clip970)" d="M1168.95 1517.37 Q1165.34 1517.37 1163.51 1520.93 Q1161.71 1524.47 1161.71 1531.6 Q1161.71 1538.71 1163.51 1542.27 Q1165.34 1545.82 1168.95 1545.82 Q1172.59 1545.82 1174.39 1542.27 Q1176.22 1538.71 1176.22 1531.6 Q1176.22 1524.47 1174.39 1520.93 Q1172.59 1517.37 1168.95 1517.37 M1168.95 1513.66 Q1174.76 1513.66 1177.82 1518.27 Q1180.9 1522.85 1180.9 1531.6 Q1180.9 1540.33 1177.82 1544.94 Q1174.76 1549.52 1168.95 1549.52 Q1163.14 1549.52 1160.06 1544.94 Q1157.01 1540.33 1157.01 1531.6 Q1157.01 1522.85 1160.06 1518.27 Q1163.14 1513.66 1168.95 1513.66 Z" fill="#000000" fill-rule="nonzero" fill-opacity="1"></path><path clip-path="url(#clip970)" d="M1199.11 1517.37 Q1195.5 1517.37 1193.67 1520.93 Q1191.87 1524.47 1191.87 1531.6 Q1191.87 1538.71 1193.67 1542.27 Q1195.5 1545.82 1199.11 1545.82 Q1202.75 1545.82 1204.55 1542.27 Q1206.38 1538.71 1206.38 1531.6 Q1206.38 1524.47 1204.55 1520.93 Q1202.75 1517.37 1199.11 1517.37 M1199.11 1513.66 Q1204.92 1513.66 1207.98 1518.27 Q1211.06 1522.85 1211.06 1531.6 Q1211.06 1540.33 1207.98 1544.94 Q1204.92 1549.52 1199.11 1549.52 Q1193.3 1549.52 1190.23 1544.94 Q1187.17 1540.33 1187.17 1531.6 Q1187.17 1522.85 1190.23 1518.27 Q1193.3 1513.66 1199.11 1513.66 Z" fill="#000000" fill-rule="nonzero" fill-opacity="1"></path><path clip-path="url(#clip970)" d="M1521.15 1530.21 Q1524.51 1530.93 1526.38 1533.2 Q1528.28 1535.47 1528.28 1538.8 Q1528.28 1543.92 1524.76 1546.72 Q1521.25 1549.52 1514.76 1549.52 Q1512.59 1549.52 1510.27 1549.08 Q1507.98 1548.66 1505.53 1547.81 L1505.53 1543.29 Q1507.47 1544.43 1509.79 1545.01 Q1512.1 1545.58 1514.63 1545.58 Q1519.02 1545.58 1521.31 1543.85 Q1523.63 1542.11 1523.63 1538.8 Q1523.63 1535.75 1521.48 1534.03 Q1519.35 1532.3 1515.53 1532.3 L1511.5 1532.3 L1511.5 1528.45 L1515.71 1528.45 Q1519.16 1528.45 1520.99 1527.09 Q1522.82 1525.7 1522.82 1523.11 Q1522.82 1520.45 1520.92 1519.03 Q1519.05 1517.6 1515.53 1517.6 Q1513.61 1517.6 1511.41 1518.01 Q1509.21 1518.43 1506.57 1519.31 L1506.57 1515.14 Q1509.23 1514.4 1511.55 1514.03 Q1513.88 1513.66 1515.94 1513.66 Q1521.27 1513.66 1524.37 1516.09 Q1527.47 1518.5 1527.47 1522.62 Q1527.47 1525.49 1525.83 1527.48 Q1524.19 1529.45 1521.15 1530.21 Z" fill="#000000" fill-rule="nonzero" fill-opacity="1"></path><path clip-path="url(#clip970)" d="M1547.15 1517.37 Q1543.54 1517.37 1541.71 1520.93 Q1539.9 1524.47 1539.9 1531.6 Q1539.9 1538.71 1541.71 1542.27 Q1543.54 1545.82 1547.15 1545.82 Q1550.78 1545.82 1552.59 1542.27 Q1554.42 1538.71 1554.42 1531.6 Q1554.42 1524.47 1552.59 1520.93 Q1550.78 1517.37 1547.15 1517.37 M1547.15 1513.66 Q1552.96 1513.66 1556.01 1518.27 Q1559.09 1522.85 1559.09 1531.6 Q1559.09 1540.33 1556.01 1544.94 Q1552.96 1549.52 1547.15 1549.52 Q1541.34 1549.52 1538.26 1544.94 Q1535.2 1540.33 1535.2 1531.6 Q1535.2 1522.85 1538.26 1518.27 Q1541.34 1513.66 1547.15 1513.66 Z" fill="#000000" fill-rule="nonzero" fill-opacity="1"></path><path clip-path="url(#clip970)" d="M1577.31 1517.37 Q1573.7 1517.37 1571.87 1520.93 Q1570.06 1524.47 1570.06 1531.6 Q1570.06 1538.71 1571.87 1542.27 Q1573.7 1545.82 1577.31 1545.82 Q1580.94 1545.82 1582.75 1542.27 Q1584.58 1538.71 1584.58 1531.6 Q1584.58 1524.47 1582.75 1520.93 Q1580.94 1517.37 1577.31 1517.37 M1577.31 1513.66 Q1583.12 1513.66 1586.18 1518.27 Q1589.25 1522.85 1589.25 1531.6 Q1589.25 1540.33 1586.18 1544.94 Q1583.12 1549.52 1577.31 1549.52 Q1571.5 1549.52 1568.42 1544.94 Q1565.37 1540.33 1565.37 1531.6 Q1565.37 1522.85 1568.42 1518.27 Q1571.5 1513.66 1577.31 1513.66 Z" fill="#000000" fill-rule="nonzero" fill-opacity="1"></path><path clip-path="url(#clip970)" d="M1898.75 1518.36 L1886.94 1536.81 L1898.75 1536.81 L1898.75 1518.36 M1897.52 1514.29 L1903.4 1514.29 L1903.4 1536.81 L1908.33 1536.81 L1908.33 1540.7 L1903.4 1540.7 L1903.4 1548.85 L1898.75 1548.85 L1898.75 1540.7 L1883.15 1540.7 L1883.15 1536.19 L1897.52 1514.29 Z" fill="#000000" fill-rule="nonzero" fill-opacity="1"></path><path clip-path="url(#clip970)" d="M1926.06 1517.37 Q1922.45 1517.37 1920.62 1520.93 Q1918.82 1524.47 1918.82 1531.6 Q1918.82 1538.71 1920.62 1542.27 Q1922.45 1545.82 1926.06 1545.82 Q1929.7 1545.82 1931.5 1542.27 Q1933.33 1538.71 1933.33 1531.6 Q1933.33 1524.47 1931.5 1520.93 Q1929.7 1517.37 1926.06 1517.37 M1926.06 1513.66 Q1931.87 1513.66 1934.93 1518.27 Q1938.01 1522.85 1938.01 1531.6 Q1938.01 1540.33 1934.93 1544.94 Q1931.87 1549.52 1926.06 1549.52 Q1920.25 1549.52 1917.17 1544.94 Q1914.12 1540.33 1914.12 1531.6 Q1914.12 1522.85 1917.17 1518.27 Q1920.25 1513.66 1926.06 1513.66 Z" fill="#000000" fill-rule="nonzero" fill-opacity="1"></path><path clip-path="url(#clip970)" d="M1956.22 1517.37 Q1952.61 1517.37 1950.78 1520.93 Q1948.98 1524.47 1948.98 1531.6 Q1948.98 1538.71 1950.78 1542.27 Q1952.61 1545.82 1956.22 1545.82 Q1959.86 1545.82 1961.66 1542.27 Q1963.49 1538.71 1963.49 1531.6 Q1963.49 1524.47 1961.66 1520.93 Q1959.86 1517.37 1956.22 1517.37 M1956.22 1513.66 Q1962.03 1513.66 1965.09 1518.27 Q1968.17 1522.85 1968.17 1531.6 Q1968.17 1540.33 1965.09 1544.94 Q1962.03 1549.52 1956.22 1549.52 Q1950.41 1549.52 1947.33 1544.94 Q1944.28 1540.33 1944.28 1531.6 Q1944.28 1522.85 1947.33 1518.27 Q1950.41 1513.66 1956.22 1513.66 Z" fill="#000000" fill-rule="nonzero" fill-opacity="1"></path><path clip-path="url(#clip970)" d="M2263.54 1514.29 L2281.9 1514.29 L2281.9 1518.22 L2267.82 1518.22 L2267.82 1526.7 Q2268.84 1526.35 2269.86 1526.19 Q2270.88 1526 2271.9 1526 Q2277.68 1526 2281.06 1529.17 Q2284.44 1532.34 2284.44 1537.76 Q2284.44 1543.34 2280.97 1546.44 Q2277.5 1549.52 2271.18 1549.52 Q2269 1549.52 2266.73 1549.15 Q2264.49 1548.78 2262.08 1548.04 L2262.08 1543.34 Q2264.17 1544.47 2266.39 1545.03 Q2268.61 1545.58 2271.09 1545.58 Q2275.09 1545.58 2277.43 1543.48 Q2279.77 1541.37 2279.77 1537.76 Q2279.77 1534.15 2277.43 1532.04 Q2275.09 1529.94 2271.09 1529.94 Q2269.21 1529.94 2267.34 1530.35 Q2265.48 1530.77 2263.54 1531.65 L2263.54 1514.29 Z" fill="#000000" fill-rule="nonzero" fill-opacity="1"></path><path clip-path="url(#clip970)" d="M2303.66 1517.37 Q2300.04 1517.37 2298.22 1520.93 Q2296.41 1524.47 2296.41 1531.6 Q2296.41 1538.71 2298.22 1542.27 Q2300.04 1545.82 2303.66 1545.82 Q2307.29 1545.82 2309.1 1542.27 Q2310.92 1538.71 2310.92 1531.6 Q2310.92 1524.47 2309.1 1520.93 Q2307.29 1517.37 2303.66 1517.37 M2303.66 1513.66 Q2309.47 1513.66 2312.52 1518.27 Q2315.6 1522.85 2315.6 1531.6 Q2315.6 1540.33 2312.52 1544.94 Q2309.47 1549.52 2303.66 1549.52 Q2297.85 1549.52 2294.77 1544.94 Q2291.71 1540.33 2291.71 1531.6 Q2291.71 1522.85 2294.77 1518.27 Q2297.85 1513.66 2303.66 1513.66 Z" fill="#000000" fill-rule="nonzero" fill-opacity="1"></path><path clip-path="url(#clip970)" d="M2333.82 1517.37 Q2330.21 1517.37 2328.38 1520.93 Q2326.57 1524.47 2326.57 1531.6 Q2326.57 1538.71 2328.38 1542.27 Q2330.21 1545.82 2333.82 1545.82 Q2337.45 1545.82 2339.26 1542.27 Q2341.09 1538.71 2341.09 1531.6 Q2341.09 1524.47 2339.26 1520.93 Q2337.45 1517.37 2333.82 1517.37 M2333.82 1513.66 Q2339.63 1513.66 2342.68 1518.27 Q2345.76 1522.85 2345.76 1531.6 Q2345.76 1540.33 2342.68 1544.94 Q2339.63 1549.52 2333.82 1549.52 Q2328.01 1549.52 2324.93 1544.94 Q2321.87 1540.33 2321.87 1531.6 Q2321.87 1522.85 2324.93 1518.27 Q2328.01 1513.66 2333.82 1513.66 Z" fill="#000000" fill-rule="nonzero" fill-opacity="1"></path><polyline clip-path="url(#clip970)" style="stroke:#000000; stroke-linecap:round; stroke-linejoin:round; stroke-width:4; stroke-opacity:1; fill:none" points="359.978,1486.45 359.978,47.2441 "></polyline>
<polyline clip-path="url(#clip970)" style="stroke:#000000; stroke-linecap:round; stroke-linejoin:round; stroke-width:4; stroke-opacity:1; fill:none" points="359.978,1243.49 378.876,1243.49 "></polyline>
<polyline clip-path="url(#clip970)" style="stroke:#000000; stroke-linecap:round; stroke-linejoin:round; stroke-width:4; stroke-opacity:1; fill:none" points="359.978,858.32 378.876,858.32 "></polyline>
<polyline clip-path="url(#clip970)" style="stroke:#000000; stroke-linecap:round; stroke-linejoin:round; stroke-width:4; stroke-opacity:1; fill:none" points="359.978,473.148 378.876,473.148 "></polyline>
<polyline clip-path="url(#clip970)" style="stroke:#000000; stroke-linecap:round; stroke-linejoin:round; stroke-width:4; stroke-opacity:1; fill:none" points="359.978,87.9763 378.876,87.9763 "></polyline>
<path clip-path="url(#clip970)" d="M50.9921 1250.39 L80.6679 1250.39 L80.6679 1254.33 L50.9921 1254.33 L50.9921 1250.39 Z" fill="#000000" fill-rule="nonzero" fill-opacity="1"></path><path clip-path="url(#clip970)" d="M104.927 1248.59 Q108.283 1249.3 110.158 1251.57 Q112.057 1253.84 112.057 1257.17 Q112.057 1262.29 108.538 1265.09 Q105.02 1267.89 98.5382 1267.89 Q96.3623 1267.89 94.0475 1267.45 Q91.7558 1267.03 89.3021 1266.18 L89.3021 1261.66 Q91.2465 1262.8 93.5613 1263.38 Q95.8761 1263.96 98.3993 1263.96 Q102.797 1263.96 105.089 1262.22 Q107.404 1260.48 107.404 1257.17 Q107.404 1254.12 105.251 1252.4 Q103.121 1250.67 99.3021 1250.67 L95.2743 1250.67 L95.2743 1246.83 L99.4872 1246.83 Q102.936 1246.83 104.765 1245.46 Q106.594 1244.07 106.594 1241.48 Q106.594 1238.82 104.696 1237.41 Q102.821 1235.97 99.3021 1235.97 Q97.3808 1235.97 95.1817 1236.39 Q92.9826 1236.8 90.3438 1237.68 L90.3438 1233.52 Q93.0058 1232.78 95.3206 1232.41 Q97.6585 1232.03 99.7187 1232.03 Q105.043 1232.03 108.145 1234.47 Q111.246 1236.87 111.246 1240.99 Q111.246 1243.86 109.603 1245.85 Q107.959 1247.82 104.927 1248.59 Z" fill="#000000" fill-rule="nonzero" fill-opacity="1"></path><path clip-path="url(#clip970)" d="M120.922 1261.34 L125.807 1261.34 L125.807 1267.22 L120.922 1267.22 L120.922 1261.34 Z" fill="#000000" fill-rule="nonzero" fill-opacity="1"></path><path clip-path="url(#clip970)" d="M145.992 1235.74 Q142.381 1235.74 140.552 1239.3 Q138.746 1242.84 138.746 1249.97 Q138.746 1257.08 140.552 1260.65 Q142.381 1264.19 145.992 1264.19 Q149.626 1264.19 151.431 1260.65 Q153.26 1257.08 153.26 1249.97 Q153.26 1242.84 151.431 1239.3 Q149.626 1235.74 145.992 1235.74 M145.992 1232.03 Q151.802 1232.03 154.857 1236.64 Q157.936 1241.22 157.936 1249.97 Q157.936 1258.7 154.857 1263.31 Q151.802 1267.89 145.992 1267.89 Q140.181 1267.89 137.103 1263.31 Q134.047 1258.7 134.047 1249.97 Q134.047 1241.22 137.103 1236.64 Q140.181 1232.03 145.992 1232.03 Z" fill="#000000" fill-rule="nonzero" fill-opacity="1"></path><path clip-path="url(#clip970)" d="M194.325 1241.76 L183.746 1252.38 L194.325 1262.96 L191.57 1265.76 L180.945 1255.14 L170.32 1265.76 L167.589 1262.96 L178.144 1252.38 L167.589 1241.76 L170.32 1238.96 L180.945 1249.58 L191.57 1238.96 L194.325 1241.76 Z" fill="#000000" fill-rule="nonzero" fill-opacity="1"></path><path clip-path="url(#clip970)" d="M206.686 1263.28 L214.325 1263.28 L214.325 1236.92 L206.014 1238.59 L206.014 1234.33 L214.278 1232.66 L218.954 1232.66 L218.954 1263.28 L226.593 1263.28 L226.593 1267.22 L206.686 1267.22 L206.686 1263.28 Z" fill="#000000" fill-rule="nonzero" fill-opacity="1"></path><path clip-path="url(#clip970)" d="M246.037 1235.74 Q242.426 1235.74 240.598 1239.3 Q238.792 1242.84 238.792 1249.97 Q238.792 1257.08 240.598 1260.65 Q242.426 1264.19 246.037 1264.19 Q249.672 1264.19 251.477 1260.65 Q253.306 1257.08 253.306 1249.97 Q253.306 1242.84 251.477 1239.3 Q249.672 1235.74 246.037 1235.74 M246.037 1232.03 Q251.848 1232.03 254.903 1236.64 Q257.982 1241.22 257.982 1249.97 Q257.982 1258.7 254.903 1263.31 Q251.848 1267.89 246.037 1267.89 Q240.227 1267.89 237.149 1263.31 Q234.093 1258.7 234.093 1249.97 Q234.093 1241.22 237.149 1236.64 Q240.227 1232.03 246.037 1232.03 Z" fill="#000000" fill-rule="nonzero" fill-opacity="1"></path><path clip-path="url(#clip970)" d="M258.527 1236.61 L264.734 1236.61 L264.734 1215.19 L257.982 1216.54 L257.982 1213.08 L264.696 1211.73 L268.495 1211.73 L268.495 1236.61 L274.702 1236.61 L274.702 1239.81 L258.527 1239.81 L258.527 1236.61 Z" fill="#000000" fill-rule="nonzero" fill-opacity="1"></path><path clip-path="url(#clip970)" d="M290.5 1214.23 Q287.566 1214.23 286.081 1217.13 Q284.614 1220 284.614 1225.8 Q284.614 1231.57 286.081 1234.47 Q287.566 1237.35 290.5 1237.35 Q293.453 1237.35 294.92 1234.47 Q296.406 1231.57 296.406 1225.8 Q296.406 1220 294.92 1217.13 Q293.453 1214.23 290.5 1214.23 M290.5 1211.22 Q295.221 1211.22 297.704 1214.96 Q300.205 1218.69 300.205 1225.8 Q300.205 1232.89 297.704 1236.63 Q295.221 1240.35 290.5 1240.35 Q285.78 1240.35 283.278 1236.63 Q280.796 1232.89 280.796 1225.8 Q280.796 1218.69 283.278 1214.96 Q285.78 1211.22 290.5 1211.22 Z" fill="#000000" fill-rule="nonzero" fill-opacity="1"></path><path clip-path="url(#clip970)" d="M305.923 1211.73 L323.978 1211.73 L323.978 1213.35 L313.784 1239.81 L309.816 1239.81 L319.408 1214.93 L305.923 1214.93 L305.923 1211.73 Z" fill="#000000" fill-rule="nonzero" fill-opacity="1"></path><path clip-path="url(#clip970)" d="M50.9921 865.219 L80.6679 865.219 L80.6679 869.154 L50.9921 869.154 L50.9921 865.219 Z" fill="#000000" fill-rule="nonzero" fill-opacity="1"></path><path clip-path="url(#clip970)" d="M94.7882 878.113 L111.108 878.113 L111.108 882.048 L89.1632 882.048 L89.1632 878.113 Q91.8252 875.358 96.4085 870.728 Q101.015 866.076 102.196 864.733 Q104.441 862.21 105.321 860.474 Q106.223 858.715 106.223 857.025 Q106.223 854.27 104.279 852.534 Q102.358 850.798 99.2558 850.798 Q97.0567 850.798 94.603 851.562 Q92.1725 852.326 89.3947 853.877 L89.3947 849.154 Q92.2188 848.02 94.6724 847.441 Q97.1261 846.863 99.1632 846.863 Q104.534 846.863 107.728 849.548 Q110.922 852.233 110.922 856.724 Q110.922 858.853 110.112 860.775 Q109.325 862.673 107.219 865.265 Q106.64 865.937 103.538 869.154 Q100.436 872.349 94.7882 878.113 Z" fill="#000000" fill-rule="nonzero" fill-opacity="1"></path><path clip-path="url(#clip970)" d="M120.922 876.168 L125.807 876.168 L125.807 882.048 L120.922 882.048 L120.922 876.168 Z" fill="#000000" fill-rule="nonzero" fill-opacity="1"></path><path clip-path="url(#clip970)" d="M145.992 850.566 Q142.381 850.566 140.552 854.131 Q138.746 857.673 138.746 864.802 Q138.746 871.909 140.552 875.474 Q142.381 879.015 145.992 879.015 Q149.626 879.015 151.431 875.474 Q153.26 871.909 153.26 864.802 Q153.26 857.673 151.431 854.131 Q149.626 850.566 145.992 850.566 M145.992 846.863 Q151.802 846.863 154.857 851.469 Q157.936 856.053 157.936 864.802 Q157.936 873.529 154.857 878.136 Q151.802 882.719 145.992 882.719 Q140.181 882.719 137.103 878.136 Q134.047 873.529 134.047 864.802 Q134.047 856.053 137.103 851.469 Q140.181 846.863 145.992 846.863 Z" fill="#000000" fill-rule="nonzero" fill-opacity="1"></path><path clip-path="url(#clip970)" d="M194.325 856.585 L183.746 867.21 L194.325 877.789 L191.57 880.589 L180.945 869.965 L170.32 880.589 L167.589 877.789 L178.144 867.21 L167.589 856.585 L170.32 853.784 L180.945 864.409 L191.57 853.784 L194.325 856.585 Z" fill="#000000" fill-rule="nonzero" fill-opacity="1"></path><path clip-path="url(#clip970)" d="M206.686 878.113 L214.325 878.113 L214.325 851.747 L206.014 853.414 L206.014 849.154 L214.278 847.488 L218.954 847.488 L218.954 878.113 L226.593 878.113 L226.593 882.048 L206.686 882.048 L206.686 878.113 Z" fill="#000000" fill-rule="nonzero" fill-opacity="1"></path><path clip-path="url(#clip970)" d="M246.037 850.566 Q242.426 850.566 240.598 854.131 Q238.792 857.673 238.792 864.802 Q238.792 871.909 240.598 875.474 Q242.426 879.015 246.037 879.015 Q249.672 879.015 251.477 875.474 Q253.306 871.909 253.306 864.802 Q253.306 857.673 251.477 854.131 Q249.672 850.566 246.037 850.566 M246.037 846.863 Q251.848 846.863 254.903 851.469 Q257.982 856.053 257.982 864.802 Q257.982 873.529 254.903 878.136 Q251.848 882.719 246.037 882.719 Q240.227 882.719 237.149 878.136 Q234.093 873.529 234.093 864.802 Q234.093 856.053 237.149 851.469 Q240.227 846.863 246.037 846.863 Z" fill="#000000" fill-rule="nonzero" fill-opacity="1"></path><path clip-path="url(#clip970)" d="M258.527 851.44 L264.734 851.44 L264.734 830.018 L257.982 831.372 L257.982 827.912 L264.696 826.557 L268.495 826.557 L268.495 851.44 L274.702 851.44 L274.702 854.637 L258.527 854.637 L258.527 851.44 Z" fill="#000000" fill-rule="nonzero" fill-opacity="1"></path><path clip-path="url(#clip970)" d="M290.5 829.059 Q287.566 829.059 286.081 831.955 Q284.614 834.833 284.614 840.626 Q284.614 846.4 286.081 849.296 Q287.566 852.174 290.5 852.174 Q293.453 852.174 294.92 849.296 Q296.406 846.4 296.406 840.626 Q296.406 834.833 294.92 831.955 Q293.453 829.059 290.5 829.059 M290.5 826.05 Q295.221 826.05 297.704 829.792 Q300.205 833.516 300.205 840.626 Q300.205 847.716 297.704 851.459 Q295.221 855.183 290.5 855.183 Q285.78 855.183 283.278 851.459 Q280.796 847.716 280.796 840.626 Q280.796 833.516 283.278 829.792 Q285.78 826.05 290.5 826.05 Z" fill="#000000" fill-rule="nonzero" fill-opacity="1"></path><path clip-path="url(#clip970)" d="M305.923 826.557 L323.978 826.557 L323.978 828.175 L313.784 854.637 L309.816 854.637 L319.408 829.755 L305.923 829.755 L305.923 826.557 Z" fill="#000000" fill-rule="nonzero" fill-opacity="1"></path><path clip-path="url(#clip970)" d="M50.9921 480.047 L80.6679 480.047 L80.6679 483.982 L50.9921 483.982 L50.9921 480.047 Z" fill="#000000" fill-rule="nonzero" fill-opacity="1"></path><path clip-path="url(#clip970)" d="M91.5706 492.941 L99.2095 492.941 L99.2095 466.575 L90.8993 468.242 L90.8993 463.982 L99.1632 462.316 L103.839 462.316 L103.839 492.941 L111.478 492.941 L111.478 496.876 L91.5706 496.876 L91.5706 492.941 Z" fill="#000000" fill-rule="nonzero" fill-opacity="1"></path><path clip-path="url(#clip970)" d="M120.922 490.996 L125.807 490.996 L125.807 496.876 L120.922 496.876 L120.922 490.996 Z" fill="#000000" fill-rule="nonzero" fill-opacity="1"></path><path clip-path="url(#clip970)" d="M145.992 465.395 Q142.381 465.395 140.552 468.959 Q138.746 472.501 138.746 479.631 Q138.746 486.737 140.552 490.302 Q142.381 493.843 145.992 493.843 Q149.626 493.843 151.431 490.302 Q153.26 486.737 153.26 479.631 Q153.26 472.501 151.431 468.959 Q149.626 465.395 145.992 465.395 M145.992 461.691 Q151.802 461.691 154.857 466.297 Q157.936 470.881 157.936 479.631 Q157.936 488.357 154.857 492.964 Q151.802 497.547 145.992 497.547 Q140.181 497.547 137.103 492.964 Q134.047 488.357 134.047 479.631 Q134.047 470.881 137.103 466.297 Q140.181 461.691 145.992 461.691 Z" fill="#000000" fill-rule="nonzero" fill-opacity="1"></path><path clip-path="url(#clip970)" d="M194.325 471.413 L183.746 482.038 L194.325 492.617 L191.57 495.417 L180.945 484.793 L170.32 495.417 L167.589 492.617 L178.144 482.038 L167.589 471.413 L170.32 468.612 L180.945 479.237 L191.57 468.612 L194.325 471.413 Z" fill="#000000" fill-rule="nonzero" fill-opacity="1"></path><path clip-path="url(#clip970)" d="M206.686 492.941 L214.325 492.941 L214.325 466.575 L206.014 468.242 L206.014 463.982 L214.278 462.316 L218.954 462.316 L218.954 492.941 L226.593 492.941 L226.593 496.876 L206.686 496.876 L206.686 492.941 Z" fill="#000000" fill-rule="nonzero" fill-opacity="1"></path><path clip-path="url(#clip970)" d="M246.037 465.395 Q242.426 465.395 240.598 468.959 Q238.792 472.501 238.792 479.631 Q238.792 486.737 240.598 490.302 Q242.426 493.843 246.037 493.843 Q249.672 493.843 251.477 490.302 Q253.306 486.737 253.306 479.631 Q253.306 472.501 251.477 468.959 Q249.672 465.395 246.037 465.395 M246.037 461.691 Q251.848 461.691 254.903 466.297 Q257.982 470.881 257.982 479.631 Q257.982 488.357 254.903 492.964 Q251.848 497.547 246.037 497.547 Q240.227 497.547 237.149 492.964 Q234.093 488.357 234.093 479.631 Q234.093 470.881 237.149 466.297 Q240.227 461.691 246.037 461.691 Z" fill="#000000" fill-rule="nonzero" fill-opacity="1"></path><path clip-path="url(#clip970)" d="M258.527 466.268 L264.734 466.268 L264.734 444.846 L257.982 446.2 L257.982 442.74 L264.696 441.385 L268.495 441.385 L268.495 466.268 L274.702 466.268 L274.702 469.465 L258.527 469.465 L258.527 466.268 Z" fill="#000000" fill-rule="nonzero" fill-opacity="1"></path><path clip-path="url(#clip970)" d="M290.5 443.887 Q287.566 443.887 286.081 446.783 Q284.614 449.661 284.614 455.454 Q284.614 461.228 286.081 464.124 Q287.566 467.002 290.5 467.002 Q293.453 467.002 294.92 464.124 Q296.406 461.228 296.406 455.454 Q296.406 449.661 294.92 446.783 Q293.453 443.887 290.5 443.887 M290.5 440.878 Q295.221 440.878 297.704 444.62 Q300.205 448.344 300.205 455.454 Q300.205 462.544 297.704 466.287 Q295.221 470.011 290.5 470.011 Q285.78 470.011 283.278 466.287 Q280.796 462.544 280.796 455.454 Q280.796 448.344 283.278 444.62 Q285.78 440.878 290.5 440.878 Z" fill="#000000" fill-rule="nonzero" fill-opacity="1"></path><path clip-path="url(#clip970)" d="M305.923 441.385 L323.978 441.385 L323.978 443.003 L313.784 469.465 L309.816 469.465 L319.408 444.583 L305.923 444.583 L305.923 441.385 Z" fill="#000000" fill-rule="nonzero" fill-opacity="1"></path><path clip-path="url(#clip970)" d="M312.034 73.775 Q308.423 73.775 306.594 77.3398 Q304.789 80.8814 304.789 88.011 Q304.789 95.1174 306.594 98.6822 Q308.423 102.224 312.034 102.224 Q315.668 102.224 317.474 98.6822 Q319.302 95.1174 319.302 88.011 Q319.302 80.8814 317.474 77.3398 Q315.668 73.775 312.034 73.775 M312.034 70.0713 Q317.844 70.0713 320.9 74.6777 Q323.978 79.261 323.978 88.011 Q323.978 96.7378 320.9 101.344 Q317.844 105.928 312.034 105.928 Q306.224 105.928 303.145 101.344 Q300.089 96.7378 300.089 88.011 Q300.089 79.261 303.145 74.6777 Q306.224 70.0713 312.034 70.0713 Z" fill="#000000" fill-rule="nonzero" fill-opacity="1"></path><polyline clip-path="url(#clip972)" style="stroke:#009af9; stroke-linecap:round; stroke-linejoin:round; stroke-width:4; stroke-opacity:1; fill:none" points="416.378,87.9763 420.16,87.9763 423.943,87.9763 427.726,87.9763 431.508,87.9763 435.291,87.9763 439.074,87.9763 442.856,87.9763 446.639,87.9763 450.421,87.9763 454.204,87.9763 457.987,87.9763 461.769,87.9763 465.552,87.9763 469.335,87.9763 473.117,87.9763 476.9,87.9763 480.683,87.9763 484.465,87.9763 488.248,87.9763 492.031,87.9763 495.813,87.9763 499.596,87.9763 503.379,87.9763 507.161,87.9763 510.944,87.9763 514.727,87.9763 518.509,87.9763 522.292,87.9763 526.075,87.9763 529.857,87.9763 533.64,87.9763 537.423,87.9763 541.205,87.9763 544.988,87.9763 548.77,87.9763 552.553,87.9763 556.336,87.9763 560.118,87.9763 563.901,87.9763 567.684,87.9763 571.466,87.9763 575.249,87.9763 579.032,87.9763 582.814,87.9763 586.597,87.9763 590.38,87.9763 594.162,87.9763 597.945,87.9763 601.728,87.9763 605.51,87.9763 609.293,87.9763 613.076,87.9763 616.858,87.9763 620.641,87.9763 624.424,87.9763 628.206,87.9763 631.989,87.9763 635.772,87.9763 639.554,87.9763 643.337,87.9763 647.119,87.9763 650.902,87.9763 654.685,87.9763 658.467,87.9763 662.25,87.9763 666.033,87.9763 669.815,87.9763 673.598,87.9763 677.381,87.9763 681.163,87.9763 684.946,87.9763 688.729,87.9763 692.511,87.9763 696.294,87.9763 700.077,87.9763 703.859,87.9763 707.642,87.9763 711.425,87.9763 715.207,87.9763 718.99,87.9763 722.773,87.9763 726.555,87.9763 730.338,87.9763 734.121,87.9763 737.903,87.9763 741.686,87.9763 745.468,87.9763 749.251,87.9763 753.034,87.9763 756.816,87.9763 760.599,87.9763 764.382,87.9763 768.164,87.9763 771.947,87.9763 775.73,87.9763 779.512,87.9763 783.295,87.9763 787.078,87.9763 790.86,87.9763 794.643,87.9763 798.426,87.9763 802.208,87.9763 805.991,87.9763 809.774,87.9763 813.556,87.9763 817.339,87.9763 821.122,87.9763 824.904,87.9763 828.687,87.9763 832.47,87.9763 836.252,87.9763 840.035,87.9763 843.817,87.9763 847.6,87.9763 851.383,87.9763 855.165,87.9763 858.948,87.9763 862.731,87.9763 866.513,87.9763 870.296,87.9763 874.079,87.9763 877.861,87.9763 881.644,87.9763 885.427,87.9763 889.209,87.9763 892.992,87.9763 896.775,87.9763 900.557,87.9763 904.34,87.9763 908.123,87.9763 911.905,87.9763 915.688,87.9763 919.471,87.9763 923.253,87.9763 927.036,87.9763 930.819,87.9763 934.601,87.9763 938.384,87.9763 942.166,87.9763 945.949,87.9763 949.732,87.9763 953.514,87.9763 957.297,87.9763 961.08,87.9763 964.862,87.9763 968.645,87.9763 972.428,87.9763 976.21,87.9763 979.993,87.9763 983.776,87.9763 987.558,87.9763 991.341,87.9763 995.124,87.9763 998.906,87.9763 1002.69,87.9763 1006.47,87.9763 1010.25,87.9763 1014.04,87.9763 1017.82,87.9763 1021.6,87.9763 1025.38,87.9763 1029.17,87.9763 1032.95,87.9763 1036.73,87.9763 1040.52,87.9763 1044.3,87.9763 1048.08,87.9763 1051.86,87.9763 1055.65,87.9763 1059.43,87.9763 1063.21,87.9763 1066.99,87.9763 1070.78,87.9763 1074.56,87.9763 1078.34,87.9763 1082.12,87.9763 1085.91,87.9763 1089.69,87.9763 1093.47,87.9763 1097.26,87.9763 1101.04,87.9763 1104.82,87.9763 1108.6,87.9763 1112.39,87.9763 1116.17,87.9763 1119.95,87.9763 1123.73,87.9763 1127.52,87.9763 1131.3,87.9763 1135.08,87.9763 1138.86,87.9763 1142.65,87.9763 1146.43,87.9763 1150.21,87.9763 1154,87.9763 1157.78,87.9763 1161.56,87.9763 1165.34,87.9763 1169.13,87.9763 1172.91,87.9763 1176.69,87.9763 1180.47,87.9763 1184.26,87.9763 1188.04,87.9763 1191.82,87.9763 1195.6,87.9763 1199.39,87.9763 1203.17,87.9763 1206.95,87.9763 1210.73,87.9763 1214.52,87.9763 1218.3,87.9763 1222.08,87.9763 1225.87,87.9763 1229.65,87.9763 1233.43,87.9763 1237.21,87.9763 1241,87.9763 1244.78,87.9763 1248.56,87.9763 1252.34,87.9763 1256.13,87.9763 1259.91,87.9763 1263.69,87.9763 1267.47,87.9763 1271.26,87.9763 1275.04,87.9763 1278.82,87.9763 1282.61,87.9763 1286.39,87.9763 1290.17,87.9763 1293.95,87.9763 1297.74,87.9763 1301.52,87.9763 1305.3,87.9763 1309.08,87.9763 1312.87,87.9763 1316.65,87.9763 1320.43,87.9763 1324.21,87.9763 1328,87.9763 1331.78,87.9763 1335.56,87.9763 1339.35,87.9763 1343.13,87.9763 1346.91,87.9763 1350.69,87.9763 1354.48,87.9763 1358.26,87.9763 1362.04,87.9763 1365.82,87.9763 1369.61,87.9763 1373.39,87.9763 1377.17,87.9763 1380.95,87.9763 1384.74,87.9763 1388.52,87.9763 1392.3,87.9763 1396.08,87.9763 1399.87,87.9763 1403.65,87.9763 1407.43,87.9763 1411.22,87.9763 1415,87.9763 1418.78,87.9763 1422.56,87.9763 1426.35,87.9763 1430.13,87.9763 1433.91,87.9763 1437.69,87.9763 1441.48,87.9763 1445.26,87.9763 1449.04,87.9763 1452.82,87.9763 1456.61,87.9763 1460.39,87.9763 1464.17,87.9763 1467.96,87.9763 1471.74,87.9763 1475.52,87.9763 1479.3,87.9763 1483.09,87.9763 1486.87,87.9763 1490.65,87.9763 1494.43,87.9763 1498.22,87.9763 1502,87.9763 1505.78,87.9763 1509.56,87.9763 1513.35,87.9763 1517.13,87.9763 1520.91,87.9763 1524.7,87.9763 1528.48,87.9763 1532.26,87.9763 1536.04,87.9763 1539.83,87.9763 1543.61,87.9763 1547.39,87.9763 1551.17,87.9763 1554.96,87.9763 1558.74,87.9763 1562.52,87.9763 1566.3,87.9763 1570.09,87.9763 1573.87,87.9763 1577.65,87.9763 1581.43,87.9763 1585.22,87.9763 1589,87.9763 1592.78,87.9763 1596.57,87.9763 1600.35,87.9763 1604.13,87.9763 1607.91,87.9763 1611.7,87.9763 1615.48,87.9763 1619.26,87.9763 1623.04,87.9763 1626.83,87.9763 1630.61,87.9763 1634.39,87.9763 1638.17,87.9763 1641.96,87.9763 1645.74,87.9763 1649.52,87.9763 1653.31,87.9763 1657.09,87.9763 1660.87,87.9763 1664.65,87.9763 1668.44,87.9763 1672.22,87.9763 1676,87.9763 1679.78,87.9763 1683.57,87.9763 1687.35,87.9763 1691.13,87.9763 1694.91,87.9763 1698.7,87.9763 1702.48,87.9763 1706.26,87.9763 1710.05,87.9763 1713.83,87.9763 1717.61,87.9763 1721.39,87.9763 1725.18,87.9763 1728.96,87.9763 1732.74,87.9763 1736.52,87.9763 1740.31,87.9763 1744.09,87.9763 1747.87,87.9763 1751.65,87.9763 1755.44,87.9763 1759.22,87.9763 1763,87.9763 1766.79,87.9763 1770.57,87.9763 1774.35,87.9763 1778.13,87.9763 1781.92,87.9763 1785.7,87.9763 1789.48,87.9763 1793.26,87.9763 1797.05,87.9763 1800.83,87.9763 1804.61,87.9763 1808.39,87.9763 1812.18,87.9763 1815.96,87.9763 1819.74,87.9763 1823.52,87.9763 1827.31,87.9763 1831.09,87.9763 1834.87,87.9763 1838.66,87.9763 1842.44,87.9763 1846.22,87.9763 1850,87.9763 1853.79,87.9763 1857.57,87.9763 1861.35,87.9763 1865.13,87.9763 1868.92,87.9763 1872.7,87.9763 1876.48,87.9763 1880.26,87.9763 1884.05,87.9763 1887.83,87.9763 1891.61,87.9763 1895.4,87.9763 1899.18,87.9763 1902.96,87.9763 1906.74,87.9763 1910.53,87.9763 1914.31,87.9763 1918.09,87.9763 1921.87,87.9763 1925.66,87.9763 1929.44,87.9763 1933.22,87.9763 1937,87.9763 1940.79,87.9763 1944.57,87.9763 1948.35,87.9763 1952.14,87.9763 1955.92,87.9763 1959.7,87.9763 1963.48,87.9763 1967.27,87.9763 1971.05,87.9763 1974.83,87.9763 1978.61,87.9763 1982.4,87.9763 1986.18,87.9763 1989.96,87.9763 1993.74,87.9763 1997.53,87.9763 2001.31,87.9763 2005.09,87.9763 2008.87,87.9763 2012.66,87.9763 2016.44,87.9763 2020.22,87.9763 2024.01,87.9763 2027.79,87.9763 2031.57,87.9763 2035.35,87.9763 2039.14,87.9763 2042.92,87.9763 2046.7,87.9763 2050.48,87.9763 2054.27,87.9763 2058.05,87.9763 2061.83,87.9763 2065.61,87.9763 2069.4,87.9763 2073.18,87.9763 2076.96,87.9763 2080.75,87.9763 2084.53,87.9763 2088.31,87.9763 2092.09,87.9763 2095.88,87.9763 2099.66,87.9763 2103.44,87.9763 2107.22,87.9763 2111.01,87.9763 2114.79,87.9763 2118.57,87.9763 2122.35,87.9763 2126.14,87.9763 2129.92,87.9763 2133.7,87.9763 2137.49,87.9763 2141.27,87.9763 2145.05,87.9763 2148.83,87.9763 2152.62,87.9763 2156.4,87.9763 2160.18,87.9763 2163.96,87.9763 2167.75,87.9763 2171.53,87.9764 2175.31,87.9764 2179.09,87.9765 2182.88,87.9767 2186.66,87.9769 2190.44,87.9773 2194.22,87.978 2198.01,87.9791 2201.79,87.9809 2205.57,87.9839 2209.36,87.989 2213.14,87.9972 2216.92,88.011 2220.7,88.0337 2224.49,88.0713 2228.27,88.1334 2232.05,88.2363 2235.83,88.4066 2239.62,88.6882 2243.4,89.1542 2247.18,89.9253 2250.96,91.2012 2254.75,93.3121 2258.53,96.805 2262.31,102.584 2266.1,112.147 2269.88,127.968 2273.66,154.147 2277.44,197.462 2281.23,269.131 2285.01,387.713 2288.79,583.92 2292.57,908.563 2296.36,1445.72 "></polyline>
<path clip-path="url(#clip970)" d="M426.404 1438.47 L678.112 1438.47 L678.112 1334.79 L426.404 1334.79  Z" fill="#ffffff" fill-rule="evenodd" fill-opacity="1"></path>
<polyline clip-path="url(#clip970)" style="stroke:#000000; stroke-linecap:round; stroke-linejoin:round; stroke-width:4; stroke-opacity:1; fill:none" points="426.404,1438.47 678.112,1438.47 678.112,1334.79 426.404,1334.79 426.404,1438.47 "></polyline>
<polyline clip-path="url(#clip970)" style="stroke:#009af9; stroke-linecap:round; stroke-linejoin:round; stroke-width:4; stroke-opacity:1; fill:none" points="448.546,1386.63 581.398,1386.63 "></polyline>
<path clip-path="url(#clip970)" d="M617.382 1406.32 Q615.577 1410.95 613.864 1412.36 Q612.151 1413.78 609.281 1413.78 L605.878 1413.78 L605.878 1410.21 L608.378 1410.21 Q610.137 1410.21 611.109 1409.38 Q612.082 1408.54 613.262 1405.44 L614.026 1403.5 L603.54 1377.99 L608.054 1377.99 L616.156 1398.27 L624.257 1377.99 L628.771 1377.99 L617.382 1406.32 Z" fill="#000000" fill-rule="nonzero" fill-opacity="1"></path><path clip-path="url(#clip970)" d="M636.063 1399.98 L643.702 1399.98 L643.702 1373.61 L635.392 1375.28 L635.392 1371.02 L643.655 1369.35 L648.331 1369.35 L648.331 1399.98 L655.97 1399.98 L655.97 1403.91 L636.063 1403.91 L636.063 1399.98 Z" fill="#000000" fill-rule="nonzero" fill-opacity="1"></path></svg>