<svg xmlns="http://www.w3.org/2000/svg" xmlns:xlink="http://www.w3.org/1999/xlink" width="600" height="400" viewBox="0 0 2400 1600">
<defs>
  <clipPath id="clip410">
    <rect x="0" y="0" width="2400" height="1600"></rect>
  </clipPath>
</defs>
<path clip-path="url(#clip410)" d="M0 1600 L2400 1600 L2400 8.88178e-14 L0 8.88178e-14  Z" fill="#ffffff" fill-rule="evenodd" fill-opacity="1"></path>
<defs>
  <clipPath id="clip411">
    <rect x="480" y="0" width="1681" height="1600"></rect>
  </clipPath>
</defs>
<path clip-path="url(#clip410)" d="M178.867 1486.45 L2352.76 1486.45 L2352.76 47.2441 L178.867 47.2441  Z" fill="#ffffff" fill-rule="evenodd" fill-opacity="1"></path>
<defs>
  <clipPath id="clip412">
    <rect x="178" y="47" width="2175" height="1440"></rect>
  </clipPath>
</defs>
<polyline clip-path="url(#clip412)" style="stroke:#000000; stroke-linecap:round; stroke-linejoin:round; stroke-width:2; stroke-opacity:0.1; fill:none" points="230.086,1486.45 230.086,47.2441 "></polyline>
<polyline clip-path="url(#clip412)" style="stroke:#000000; stroke-linecap:round; stroke-linejoin:round; stroke-width:2; stroke-opacity:0.1; fill:none" points="745.372,1486.45 745.372,47.2441 "></polyline>
<polyline clip-path="url(#clip412)" style="stroke:#000000; stroke-linecap:round; stroke-linejoin:round; stroke-width:2; stroke-opacity:0.1; fill:none" points="1260.66,1486.45 1260.66,47.2441 "></polyline>
<polyline clip-path="url(#clip412)" style="stroke:#000000; stroke-linecap:round; stroke-linejoin:round; stroke-width:2; stroke-opacity:0.1; fill:none" points="1775.94,1486.45 1775.94,47.2441 "></polyline>
<polyline clip-path="url(#clip412)" style="stroke:#000000; stroke-linecap:round; stroke-linejoin:round; stroke-width:2; stroke-opacity:0.1; fill:none" points="2291.23,1486.45 2291.23,47.2441 "></polyline>
<polyline clip-path="url(#clip412)" style="stroke:#000000; stroke-linecap:round; stroke-linejoin:round; stroke-width:2; stroke-opacity:0.1; fill:none" points="178.867,1371.34 2352.76,1371.34 "></polyline>
<polyline clip-path="url(#clip412)" style="stroke:#000000; stroke-linecap:round; stroke-linejoin:round; stroke-width:2; stroke-opacity:0.1; fill:none" points="178.867,1136.56 2352.76,1136.56 "></polyline>
<polyline clip-path="url(#clip412)" style="stroke:#000000; stroke-linecap:round; stroke-linejoin:round; stroke-width:2; stroke-opacity:0.1; fill:none" points="178.867,901.78 2352.76,901.78 "></polyline>
<polyline clip-path="url(#clip412)" style="stroke:#000000; stroke-linecap:round; stroke-linejoin:round; stroke-width:2; stroke-opacity:0.1; fill:none" points="178.867,667.001 2352.76,667.001 "></polyline>
<polyline clip-path="url(#clip412)" style="stroke:#000000; stroke-linecap:round; stroke-linejoin:round; stroke-width:2; stroke-opacity:0.1; fill:none" points="178.867,432.223 2352.76,432.223 "></polyline>
<polyline clip-path="url(#clip412)" style="stroke:#000000; stroke-linecap:round; stroke-linejoin:round; stroke-width:2; stroke-opacity:0.1; fill:none" points="178.867,197.445 2352.76,197.445 "></polyline>
<polyline clip-path="url(#clip410)" style="stroke:#000000; stroke-linecap:round; stroke-linejoin:round; stroke-width:4; stroke-opacity:1; fill:none" points="178.867,1486.45 2352.76,1486.45 "></polyline>
<polyline clip-path="url(#clip410)" style="stroke:#000000; stroke-linecap:round; stroke-linejoin:round; stroke-width:4; stroke-opacity:1; fill:none" points="230.086,1486.45 230.086,1467.55 "></polyline>
<polyline clip-path="url(#clip410)" style="stroke:#000000; stroke-linecap:round; stroke-linejoin:round; stroke-width:4; stroke-opacity:1; fill:none" points="745.372,1486.45 745.372,1467.55 "></polyline>
<polyline clip-path="url(#clip410)" style="stroke:#000000; stroke-linecap:round; stroke-linejoin:round; stroke-width:4; stroke-opacity:1; fill:none" points="1260.66,1486.45 1260.66,1467.55 "></polyline>
<polyline clip-path="url(#clip410)" style="stroke:#000000; stroke-linecap:round; stroke-linejoin:round; stroke-width:4; stroke-opacity:1; fill:none" points="1775.94,1486.45 1775.94,1467.55 "></polyline>
<polyline clip-path="url(#clip410)" style="stroke:#000000; stroke-linecap:round; stroke-linejoin:round; stroke-width:4; stroke-opacity:1; fill:none" points="2291.23,1486.45 2291.23,1467.55 "></polyline>
<path clip-path="url(#clip410)" d="M230.086 1517.37 Q226.475 1517.37 224.646 1520.93 Q222.841 1524.47 222.841 1531.6 Q222.841 1538.71 224.646 1542.27 Q226.475 1545.82 230.086 1545.82 Q233.72 1545.82 235.526 1542.27 Q237.355 1538.71 237.355 1531.6 Q237.355 1524.47 235.526 1520.93 Q233.72 1517.37 230.086 1517.37 M230.086 1513.66 Q235.896 1513.66 238.952 1518.27 Q242.03 1522.85 242.03 1531.6 Q242.03 1540.33 238.952 1544.94 Q235.896 1549.52 230.086 1549.52 Q224.276 1549.52 221.197 1544.94 Q218.142 1540.33 218.142 1531.6 Q218.142 1522.85 221.197 1518.27 Q224.276 1513.66 230.086 1513.66 Z" fill="#000000" fill-rule="nonzero" fill-opacity="1"></path><path clip-path="url(#clip410)" d="M720.071 1514.29 L738.428 1514.29 L738.428 1518.22 L724.354 1518.22 L724.354 1526.7 Q725.372 1526.35 726.391 1526.19 Q727.409 1526 728.428 1526 Q734.215 1526 737.595 1529.17 Q740.974 1532.34 740.974 1537.76 Q740.974 1543.34 737.502 1546.44 Q734.03 1549.52 727.71 1549.52 Q725.534 1549.52 723.266 1549.15 Q721.021 1548.78 718.613 1548.04 L718.613 1543.34 Q720.696 1544.47 722.919 1545.03 Q725.141 1545.58 727.618 1545.58 Q731.622 1545.58 733.96 1543.48 Q736.298 1541.37 736.298 1537.76 Q736.298 1534.15 733.96 1532.04 Q731.622 1529.94 727.618 1529.94 Q725.743 1529.94 723.868 1530.35 Q722.016 1530.77 720.071 1531.65 L720.071 1514.29 Z" fill="#000000" fill-rule="nonzero" fill-opacity="1"></path><path clip-path="url(#clip410)" d="M760.187 1517.37 Q756.576 1517.37 754.747 1520.93 Q752.942 1524.47 752.942 1531.6 Q752.942 1538.71 754.747 1542.27 Q756.576 1545.82 760.187 1545.82 Q763.821 1545.82 765.627 1542.27 Q767.455 1538.71 767.455 1531.6 Q767.455 1524.47 765.627 1520.93 Q763.821 1517.37 760.187 1517.37 M760.187 1513.66 Q765.997 1513.66 769.053 1518.27 Q772.131 1522.85 772.131 1531.6 Q772.131 1540.33 769.053 1544.94 Q765.997 1549.52 760.187 1549.52 Q754.377 1549.52 751.298 1544.94 Q748.243 1540.33 748.243 1531.6 Q748.243 1522.85 751.298 1518.27 Q754.377 1513.66 760.187 1513.66 Z" fill="#000000" fill-rule="nonzero" fill-opacity="1"></path><path clip-path="url(#clip410)" d="M1220.27 1544.91 L1227.9 1544.91 L1227.9 1518.55 L1219.59 1520.21 L1219.59 1515.95 L1227.86 1514.29 L1232.53 1514.29 L1232.53 1544.91 L1240.17 1544.91 L1240.17 1548.85 L1220.27 1548.85 L1220.27 1544.91 Z" fill="#000000" fill-rule="nonzero" fill-opacity="1"></path><path clip-path="url(#clip410)" d="M1259.62 1517.37 Q1256.01 1517.37 1254.18 1520.93 Q1252.37 1524.47 1252.37 1531.6 Q1252.37 1538.71 1254.18 1542.27 Q1256.01 1545.82 1259.62 1545.82 Q1263.25 1545.82 1265.06 1542.27 Q1266.89 1538.71 1266.89 1531.6 Q1266.89 1524.47 1265.06 1520.93 Q1263.25 1517.37 1259.62 1517.37 M1259.62 1513.66 Q1265.43 1513.66 1268.48 1518.27 Q1271.56 1522.85 1271.56 1531.6 Q1271.56 1540.33 1268.48 1544.94 Q1265.43 1549.52 1259.62 1549.52 Q1253.81 1549.52 1250.73 1544.94 Q1247.67 1540.33 1247.67 1531.6 Q1247.67 1522.85 1250.73 1518.27 Q1253.81 1513.66 1259.62 1513.66 Z" fill="#000000" fill-rule="nonzero" fill-opacity="1"></path><path clip-path="url(#clip410)" d="M1289.78 1517.37 Q1286.17 1517.37 1284.34 1520.93 Q1282.53 1524.47 1282.53 1531.6 Q1282.53 1538.71 1284.34 1542.27 Q1286.17 1545.82 1289.78 1545.82 Q1293.41 1545.82 1295.22 1542.27 Q1297.05 1538.71 1297.05 1531.6 Q1297.05 1524.47 1295.22 1520.93 Q1293.41 1517.37 1289.78 1517.37 M1289.78 1513.66 Q1295.59 1513.66 1298.64 1518.27 Q1301.72 1522.85 1301.72 1531.6 Q1301.72 1540.33 1298.64 1544.94 Q1295.59 1549.52 1289.78 1549.52 Q1283.97 1549.52 1280.89 1544.94 Q1277.83 1540.33 1277.83 1531.6 Q1277.83 1522.85 1280.89 1518.27 Q1283.97 1513.66 1289.78 1513.66 Z" fill="#000000" fill-rule="nonzero" fill-opacity="1"></path><path clip-path="url(#clip410)" d="M1735.55 1544.91 L1743.19 1544.91 L1743.19 1518.55 L1734.88 1520.21 L1734.88 1515.95 L1743.14 1514.29 L1747.82 1514.29 L1747.82 1544.91 L1755.46 1544.91 L1755.46 1548.85 L1735.55 1548.85 L1735.55 1544.91 Z" fill="#000000" fill-rule="nonzero" fill-opacity="1"></path><path clip-path="url(#clip410)" d="M1764.95 1514.29 L1783.31 1514.29 L1783.31 1518.22 L1769.23 1518.22 L1769.23 1526.7 Q1770.25 1526.35 1771.27 1526.19 Q1772.29 1526 1773.31 1526 Q1779.09 1526 1782.47 1529.17 Q1785.85 1532.34 1785.85 1537.76 Q1785.85 1543.34 1782.38 1546.44 Q1778.91 1549.52 1772.59 1549.52 Q1770.41 1549.52 1768.14 1549.15 Q1765.9 1548.78 1763.49 1548.04 L1763.49 1543.34 Q1765.57 1544.47 1767.8 1545.03 Q1770.02 1545.58 1772.5 1545.58 Q1776.5 1545.58 1778.84 1543.48 Q1781.18 1541.37 1781.18 1537.76 Q1781.18 1534.15 1778.84 1532.04 Q1776.5 1529.94 1772.5 1529.94 Q1770.62 1529.94 1768.75 1530.35 Q1766.89 1530.77 1764.95 1531.65 L1764.95 1514.29 Z" fill="#000000" fill-rule="nonzero" fill-opacity="1"></path><path clip-path="url(#clip410)" d="M1805.06 1517.37 Q1801.45 1517.37 1799.63 1520.93 Q1797.82 1524.47 1797.82 1531.6 Q1797.82 1538.71 1799.63 1542.27 Q1801.45 1545.82 1805.06 1545.82 Q1808.7 1545.82 1810.5 1542.27 Q1812.33 1538.71 1812.33 1531.6 Q1812.33 1524.47 1810.5 1520.93 Q1808.7 1517.37 1805.06 1517.37 M1805.06 1513.66 Q1810.87 1513.66 1813.93 1518.27 Q1817.01 1522.85 1817.01 1531.6 Q1817.01 1540.33 1813.93 1544.94 Q1810.87 1549.52 1805.06 1549.52 Q1799.25 1549.52 1796.18 1544.94 Q1793.12 1540.33 1793.12 1531.6 Q1793.12 1522.85 1796.18 1518.27 Q1799.25 1513.66 1805.06 1513.66 Z" fill="#000000" fill-rule="nonzero" fill-opacity="1"></path><path clip-path="url(#clip410)" d="M2254.92 1544.91 L2271.24 1544.91 L2271.24 1548.85 L2249.3 1548.85 L2249.3 1544.91 Q2251.96 1542.16 2256.54 1537.53 Q2261.15 1532.88 2262.33 1531.53 Q2264.58 1529.01 2265.46 1527.27 Q2266.36 1525.51 2266.36 1523.82 Q2266.36 1521.07 2264.41 1519.33 Q2262.49 1517.6 2259.39 1517.6 Q2257.19 1517.6 2254.74 1518.36 Q2252.31 1519.13 2249.53 1520.68 L2249.53 1515.95 Q2252.35 1514.82 2254.81 1514.24 Q2257.26 1513.66 2259.3 1513.66 Q2264.67 1513.66 2267.86 1516.35 Q2271.06 1519.03 2271.06 1523.52 Q2271.06 1525.65 2270.25 1527.57 Q2269.46 1529.47 2267.35 1532.07 Q2266.77 1532.74 2263.67 1535.95 Q2260.57 1539.15 2254.92 1544.91 Z" fill="#000000" fill-rule="nonzero" fill-opacity="1"></path><path clip-path="url(#clip410)" d="M2291.06 1517.37 Q2287.45 1517.37 2285.62 1520.93 Q2283.81 1524.47 2283.81 1531.6 Q2283.81 1538.71 2285.62 1542.27 Q2287.45 1545.82 2291.06 1545.82 Q2294.69 1545.82 2296.5 1542.27 Q2298.33 1538.71 2298.33 1531.6 Q2298.33 1524.47 2296.5 1520.93 Q2294.69 1517.37 2291.06 1517.37 M2291.06 1513.66 Q2296.87 1513.66 2299.92 1518.27 Q2303 1522.85 2303 1531.6 Q2303 1540.33 2299.92 1544.94 Q2296.87 1549.52 2291.06 1549.52 Q2285.25 1549.52 2282.17 1544.94 Q2279.11 1540.33 2279.11 1531.6 Q2279.11 1522.85 2282.17 1518.27 Q2285.25 1513.66 2291.06 1513.66 Z" fill="#000000" fill-rule="nonzero" fill-opacity="1"></path><path clip-path="url(#clip410)" d="M2321.22 1517.37 Q2317.61 1517.37 2315.78 1520.93 Q2313.97 1524.47 2313.97 1531.6 Q2313.97 1538.71 2315.78 1542.27 Q2317.61 1545.82 2321.22 1545.82 Q2324.85 1545.82 2326.66 1542.27 Q2328.49 1538.71 2328.49 1531.6 Q2328.49 1524.47 2326.66 1520.93 Q2324.85 1517.37 2321.22 1517.37 M2321.22 1513.66 Q2327.03 1513.66 2330.08 1518.27 Q2333.16 1522.85 2333.16 1531.6 Q2333.16 1540.33 2330.08 1544.94 Q2327.03 1549.52 2321.22 1549.52 Q2315.41 1549.52 2312.33 1544.94 Q2309.27 1540.33 2309.27 1531.6 Q2309.27 1522.85 2312.33 1518.27 Q2315.41 1513.66 2321.22 1513.66 Z" fill="#000000" fill-rule="nonzero" fill-opacity="1"></path><polyline clip-path="url(#clip410)" style="stroke:#000000; stroke-linecap:round; stroke-linejoin:round; stroke-width:4; stroke-opacity:1; fill:none" points="178.867,1486.45 178.867,47.2441 "></polyline>
<polyline clip-path="url(#clip410)" style="stroke:#000000; stroke-linecap:round; stroke-linejoin:round; stroke-width:4; stroke-opacity:1; fill:none" points="178.867,1371.34 197.764,1371.34 "></polyline>
<polyline clip-path="url(#clip410)" style="stroke:#000000; stroke-linecap:round; stroke-linejoin:round; stroke-width:4; stroke-opacity:1; fill:none" points="178.867,1136.56 197.764,1136.56 "></polyline>
<polyline clip-path="url(#clip410)" style="stroke:#000000; stroke-linecap:round; stroke-linejoin:round; stroke-width:4; stroke-opacity:1; fill:none" points="178.867,901.78 197.764,901.78 "></polyline>
<polyline clip-path="url(#clip410)" style="stroke:#000000; stroke-linecap:round; stroke-linejoin:round; stroke-width:4; stroke-opacity:1; fill:none" points="178.867,667.001 197.764,667.001 "></polyline>
<polyline clip-path="url(#clip410)" style="stroke:#000000; stroke-linecap:round; stroke-linejoin:round; stroke-width:4; stroke-opacity:1; fill:none" points="178.867,432.223 197.764,432.223 "></polyline>
<polyline clip-path="url(#clip410)" style="stroke:#000000; stroke-linecap:round; stroke-linejoin:round; stroke-width:4; stroke-opacity:1; fill:none" points="178.867,197.445 197.764,197.445 "></polyline>
<path clip-path="url(#clip410)" d="M50.9921 1371.79 L80.6679 1371.79 L80.6679 1375.72 L50.9921 1375.72 L50.9921 1371.79 Z" fill="#000000" fill-rule="nonzero" fill-opacity="1"></path><path clip-path="url(#clip410)" d="M94.7882 1384.68 L111.108 1384.68 L111.108 1388.62 L89.1632 1388.62 L89.1632 1384.68 Q91.8252 1381.93 96.4085 1377.3 Q101.015 1372.64 102.196 1371.3 Q104.441 1368.78 105.321 1367.04 Q106.223 1365.28 106.223 1363.59 Q106.223 1360.84 104.279 1359.1 Q102.358 1357.37 99.2558 1357.37 Q97.0567 1357.37 94.603 1358.13 Q92.1725 1358.89 89.3947 1360.45 L89.3947 1355.72 Q92.2188 1354.59 94.6724 1354.01 Q97.1261 1353.43 99.1632 1353.43 Q104.534 1353.43 107.728 1356.12 Q110.922 1358.8 110.922 1363.29 Q110.922 1365.42 110.112 1367.34 Q109.325 1369.24 107.219 1371.83 Q106.64 1372.51 103.538 1375.72 Q100.436 1378.92 94.7882 1384.68 Z" fill="#000000" fill-rule="nonzero" fill-opacity="1"></path><path clip-path="url(#clip410)" d="M130.922 1357.14 Q127.311 1357.14 125.482 1360.7 Q123.677 1364.24 123.677 1371.37 Q123.677 1378.48 125.482 1382.04 Q127.311 1385.58 130.922 1385.58 Q134.556 1385.58 136.362 1382.04 Q138.191 1378.48 138.191 1371.37 Q138.191 1364.24 136.362 1360.7 Q134.556 1357.14 130.922 1357.14 M130.922 1353.43 Q136.732 1353.43 139.788 1358.04 Q142.867 1362.62 142.867 1371.37 Q142.867 1380.1 139.788 1384.7 Q136.732 1389.29 130.922 1389.29 Q125.112 1389.29 122.033 1384.7 Q118.978 1380.1 118.978 1371.37 Q118.978 1362.62 122.033 1358.04 Q125.112 1353.43 130.922 1353.43 Z" fill="#000000" fill-rule="nonzero" fill-opacity="1"></path><path clip-path="url(#clip410)" d="M51.9875 1137.01 L81.6633 1137.01 L81.6633 1140.94 L51.9875 1140.94 L51.9875 1137.01 Z" fill="#000000" fill-rule="nonzero" fill-opacity="1"></path><path clip-path="url(#clip410)" d="M92.566 1149.9 L100.205 1149.9 L100.205 1123.54 L91.8947 1125.2 L91.8947 1120.94 L100.159 1119.28 L104.834 1119.28 L104.834 1149.9 L112.473 1149.9 L112.473 1153.84 L92.566 1153.84 L92.566 1149.9 Z" fill="#000000" fill-rule="nonzero" fill-opacity="1"></path><path clip-path="url(#clip410)" d="M121.964 1119.28 L140.32 1119.28 L140.32 1123.21 L126.246 1123.21 L126.246 1131.69 Q127.265 1131.34 128.283 1131.18 Q129.302 1130.99 130.32 1130.99 Q136.107 1130.99 139.487 1134.16 Q142.867 1137.33 142.867 1142.75 Q142.867 1148.33 139.394 1151.43 Q135.922 1154.51 129.603 1154.51 Q127.427 1154.51 125.158 1154.14 Q122.913 1153.77 120.506 1153.03 L120.506 1148.33 Q122.589 1149.46 124.811 1150.02 Q127.033 1150.57 129.51 1150.57 Q133.515 1150.57 135.853 1148.47 Q138.191 1146.36 138.191 1142.75 Q138.191 1139.14 135.853 1137.03 Q133.515 1134.93 129.51 1134.93 Q127.635 1134.93 125.76 1135.34 Q123.908 1135.76 121.964 1136.64 L121.964 1119.28 Z" fill="#000000" fill-rule="nonzero" fill-opacity="1"></path><path clip-path="url(#clip410)" d="M50.9921 902.231 L80.6679 902.231 L80.6679 906.166 L50.9921 906.166 L50.9921 902.231 Z" fill="#000000" fill-rule="nonzero" fill-opacity="1"></path><path clip-path="url(#clip410)" d="M91.5706 915.125 L99.2095 915.125 L99.2095 888.759 L90.8993 890.426 L90.8993 886.166 L99.1632 884.5 L103.839 884.5 L103.839 915.125 L111.478 915.125 L111.478 919.06 L91.5706 919.06 L91.5706 915.125 Z" fill="#000000" fill-rule="nonzero" fill-opacity="1"></path><path clip-path="url(#clip410)" d="M130.922 887.578 Q127.311 887.578 125.482 891.143 Q123.677 894.685 123.677 901.815 Q123.677 908.921 125.482 912.486 Q127.311 916.027 130.922 916.027 Q134.556 916.027 136.362 912.486 Q138.191 908.921 138.191 901.815 Q138.191 894.685 136.362 891.143 Q134.556 887.578 130.922 887.578 M130.922 883.875 Q136.732 883.875 139.788 888.481 Q142.867 893.065 142.867 901.815 Q142.867 910.541 139.788 915.148 Q136.732 919.731 130.922 919.731 Q125.112 919.731 122.033 915.148 Q118.978 910.541 118.978 901.815 Q118.978 893.065 122.033 888.481 Q125.112 883.875 130.922 883.875 Z" fill="#000000" fill-rule="nonzero" fill-opacity="1"></path><path clip-path="url(#clip410)" d="M82.1494 667.453 L111.825 667.453 L111.825 671.388 L82.1494 671.388 L82.1494 667.453 Z" fill="#000000" fill-rule="nonzero" fill-opacity="1"></path><path clip-path="url(#clip410)" d="M121.964 649.721 L140.32 649.721 L140.32 653.657 L126.246 653.657 L126.246 662.129 Q127.265 661.782 128.283 661.62 Q129.302 661.434 130.32 661.434 Q136.107 661.434 139.487 664.606 Q142.867 667.777 142.867 673.194 Q142.867 678.772 139.394 681.874 Q135.922 684.953 129.603 684.953 Q127.427 684.953 125.158 684.582 Q122.913 684.212 120.506 683.471 L120.506 678.772 Q122.589 679.906 124.811 680.462 Q127.033 681.018 129.51 681.018 Q133.515 681.018 135.853 678.911 Q138.191 676.805 138.191 673.194 Q138.191 669.582 135.853 667.476 Q133.515 665.369 129.51 665.369 Q127.635 665.369 125.76 665.786 Q123.908 666.203 121.964 667.082 L121.964 649.721 Z" fill="#000000" fill-rule="nonzero" fill-opacity="1"></path><path clip-path="url(#clip410)" d="M130.922 418.022 Q127.311 418.022 125.482 421.587 Q123.677 425.128 123.677 432.258 Q123.677 439.364 125.482 442.929 Q127.311 446.471 130.922 446.471 Q134.556 446.471 136.362 442.929 Q138.191 439.364 138.191 432.258 Q138.191 425.128 136.362 421.587 Q134.556 418.022 130.922 418.022 M130.922 414.318 Q136.732 414.318 139.788 418.925 Q142.867 423.508 142.867 432.258 Q142.867 440.985 139.788 445.591 Q136.732 450.174 130.922 450.174 Q125.112 450.174 122.033 445.591 Q118.978 440.985 118.978 432.258 Q118.978 423.508 122.033 418.925 Q125.112 414.318 130.922 414.318 Z" fill="#000000" fill-rule="nonzero" fill-opacity="1"></path><path clip-path="url(#clip410)" d="M121.964 180.165 L140.32 180.165 L140.32 184.1 L126.246 184.1 L126.246 192.572 Q127.265 192.225 128.283 192.063 Q129.302 191.878 130.32 191.878 Q136.107 191.878 139.487 195.049 Q142.867 198.22 142.867 203.637 Q142.867 209.215 139.394 212.317 Q135.922 215.396 129.603 215.396 Q127.427 215.396 125.158 215.026 Q122.913 214.655 120.506 213.915 L120.506 209.215 Q122.589 210.35 124.811 210.905 Q127.033 211.461 129.51 211.461 Q133.515 211.461 135.853 209.354 Q138.191 207.248 138.191 203.637 Q138.191 200.026 135.853 197.919 Q133.515 195.813 129.51 195.813 Q127.635 195.813 125.76 196.229 Q123.908 196.646 121.964 197.526 L121.964 180.165 Z" fill="#000000" fill-rule="nonzero" fill-opacity="1"></path><polyline clip-path="url(#clip412)" style="stroke:#009af9; stroke-linecap:round; stroke-linejoin:round; stroke-width:4; stroke-opacity:1; fill:none" points="240.392,367.61 250.698,490.299 261.003,463.392 271.309,355.217 281.615,303.869 291.92,245.709 302.226,261.741 312.532,241.376 322.838,253.127 333.143,356.997 343.449,310.987 353.755,282.935 364.06,296.443 374.366,202.186 384.672,223.167 394.978,257.055 405.283,284.795 415.589,295.345 425.895,262.037 436.201,231.261 446.506,202.299 456.812,220.085 467.118,87.9763 477.423,100.381 487.729,141.53 498.035,180.391 508.341,102.786 518.646,116.44 528.952,130.448 539.258,128.732 549.564,159.093 559.869,292.851 570.175,308.883 580.481,303.959 590.786,384.078 601.092,430.453 611.398,412.693 621.704,418.069 632.009,368.441 642.315,307.074 652.621,328.869 662.926,353.898 673.232,355.246 683.538,429.693 693.844,424.596 704.149,371.969 714.455,377.369 724.761,357.832 735.067,306.528 745.372,340.592 755.678,420.316 765.984,421.209 776.289,435.142 786.595,510.79 796.901,534.963 807.207,549.105 817.512,565.112 827.818,574.491 838.124,557.266 848.429,592.888 858.735,645.558 869.041,692.819 879.347,665.191 889.652,677.306 899.958,640.941 910.264,725.514 920.57,812.885 930.875,824.092 941.181,811.851 951.487,738.478 961.792,721.514 972.098,689.584 982.404,743.022 992.71,760.919 1003.02,819.97 1013.32,737.859 1023.63,765.028 1033.93,701.25 1044.24,692.596 1054.54,629.24 1064.85,662.418 1075.16,620.664 1085.46,590.276 1095.77,566.297 1106.07,516.909 1116.38,477.828 1126.68,482.049 1136.99,428.139 1147.3,404.667 1157.6,478.637 1167.91,364.891 1178.21,475.193 1188.52,406.608 1198.82,424.208 1209.13,461.056 1219.44,508.202 1229.74,446.667 1240.05,407.554 1250.35,379.514 1260.66,291.425 1270.96,287.027 1281.27,317.602 1291.58,395.718 1301.88,408.708 1312.19,399.424 1322.49,476.323 1332.8,458.289 1343.1,473.733 1353.41,481.247 1363.72,516.986 1374.02,471.434 1384.33,396.701 1394.63,375.945 1404.94,319.966 1415.24,379.459 1425.55,308.845 1435.86,362.693 1446.16,409.132 1456.47,341.291 1466.77,344.583 1477.08,329.87 1487.38,285.96 1497.69,247.399 1508,195.527 1518.3,224.481 1528.61,257.885 1538.91,211.856 1549.22,135.021 1559.52,145.758 1569.83,114.288 1580.14,143.391 1590.44,153.946 1600.75,135.08 1611.05,163.972 1621.36,138.386 1631.66,141.793 1641.97,175.535 1652.28,171.88 1662.58,136.006 1672.89,137.456 1683.19,161.524 1693.5,242.9 1703.8,309.139 1714.11,285.019 1724.42,277.374 1734.72,352.856 1745.03,394.055 1755.33,405.587 1765.64,521.076 1775.94,545.723 1786.25,510.348 1796.56,530.987 1806.86,486.147 1817.17,533.861 1827.47,458.156 1837.78,551.519 1848.08,603.526 1858.39,573.134 1868.7,596.003 1879,644.093 1889.31,654.818 1899.61,614.193 1909.92,684.429 1920.22,707.107 1930.53,754.008 1940.84,778.965 1951.14,847.148 1961.45,843.138 1971.75,823.732 1982.06,959.677 1992.36,1011.53 2002.67,1009.92 2012.98,1012.76 2023.28,1056.88 2033.59,1086.55 2043.89,1073.91 2054.2,1184.29 2064.5,1114.41 2074.81,1170.28 2085.12,1132.35 2095.42,1092.88 2105.73,1176.23 2116.03,1206.68 2126.34,1165.21 2136.64,1174.93 2146.95,1238.29 2157.26,1189.8 2167.56,1214.73 2177.87,1209.72 2188.17,1296.49 2198.48,1325.27 2208.78,1238.13 2219.09,1328.72 2229.4,1374.74 2239.7,1445.72 2250.01,1373.92 2260.31,1345.92 2270.62,1333.5 2280.93,1314.53 2291.23,1371.81 "></polyline>
<polyline clip-path="url(#clip412)" style="stroke:#e26f46; stroke-linecap:round; stroke-linejoin:round; stroke-width:4; stroke-opacity:1; fill:none" points="240.392,296.918 250.698,437.283 261.003,371.674 271.309,363.422 281.615,325.857 291.92,291.288 302.226,306.652 312.532,303.469 322.838,256.222 333.143,366.731 343.449,328.223 353.755,290.169 364.06,357.319 374.366,284.055 384.672,241.816 394.978,286.823 405.283,353.576 415.589,276.459 425.895,322.213 436.201,208.888 446.506,293.771 456.812,329.192 467.118,276.459 477.423,213.173 487.729,269.511 498.035,300.986 508.341,246.998 518.646,306.065 528.952,235.142 539.258,196.815 549.564,252.989 559.869,288.207 570.175,351.403 580.481,301.676 590.786,416.49 601.092,354.595 611.398,343.438 621.704,416.554 632.009,312.613 642.315,333.378 652.621,301.143 662.926,367.587 673.232,350.949 683.538,359.254 693.844,377.977 704.149,417.413 714.455,353.837 724.761,317.466 735.067,363.119 745.372,334.967 755.678,354.888 765.984,438.517 776.289,383.41 786.595,455.096 796.901,406.162 807.207,440.612 817.512,489.72 827.818,456.271 838.124,458.496 848.429,429.137 858.735,471.839 869.041,513.083 879.347,546.644 889.652,521.211 899.958,510.124 910.264,481.775 920.57,523.243 930.875,599.958 941.181,555.639 951.487,544.158 961.792,556.295 972.098,549.15 982.404,547.501 992.71,478.351 1003.02,532.512 1013.32,571.924 1023.63,564.279 1033.93,527.53 1044.24,539.539 1054.54,500.254 1064.85,515.833 1075.16,495.738 1085.46,425.008 1095.77,404.408 1106.07,423.431 1116.38,399.24 1126.68,396.842 1136.99,387.603 1147.3,389.846 1157.6,414.638 1167.91,329.716 1178.21,372.065 1188.52,369.46 1198.82,374.139 1209.13,330.91 1219.44,389.216 1229.74,333.158 1240.05,348.541 1250.35,354.214 1260.66,311.343 1270.96,329.487 1281.27,349.848 1291.58,405.411 1301.88,384.61 1312.19,345.408 1322.49,377.256 1332.8,372.915 1343.1,398.702 1353.41,391.379 1363.72,409.156 1374.02,383.982 1384.33,319.943 1394.63,362.104 1404.94,349.023 1415.24,324.563 1425.55,329.055 1435.86,363.117 1446.16,374.649 1456.47,369.922 1466.77,360.771 1477.08,345.959 1487.38,301.245 1497.69,234.86 1508,266.535 1518.3,198.74 1528.61,288.973 1538.91,226.732 1549.22,180.085 1559.52,265.823 1569.83,218.861 1580.14,227.475 1590.44,244.498 1600.75,213.07 1611.05,267.917 1621.36,299.58 1631.66,278.672 1641.97,254.574 1652.28,278.846 1662.58,251.492 1672.89,193.08 1683.19,232.122 1693.5,277.364 1703.8,339.039 1714.11,331.145 1724.42,259.733 1734.72,354.193 1745.03,380.017 1755.33,355.315 1765.64,438.844 1775.94,413.988 1786.25,396.972 1796.56,438.759 1806.86,424.968 1817.17,437.949 1827.47,425.488 1837.78,476.446 1848.08,450.449 1858.39,460.777 1868.7,457.904 1879,414.414 1889.31,524.317 1899.61,435.142 1909.92,489.012 1920.22,550.531 1930.53,584.453 1940.84,529.253 1951.14,596.755 1961.45,514.869 1971.75,574.998 1982.06,662.426 1992.36,663.911 2002.67,671.687 2012.98,707.32 2023.28,678.337 2033.59,695.068 2043.89,677.468 2054.2,754.77 2064.5,777.128 2074.81,804.138 2085.12,736.856 2095.42,751.652 2105.73,773.411 2116.03,763.948 2126.34,736.863 2136.64,771.371 2146.95,788.951 2157.26,770.609 2167.56,810.389 2177.87,824.525 2188.17,793.871 2198.48,823.405 2208.78,775.17 2219.09,837.888 2229.4,884.475 2239.7,864.451 2250.01,846.793 2260.31,863.289 2270.62,889.137 2280.93,829.288 2291.23,882.962 "></polyline>
<path clip-path="url(#clip410)" d="M2037.67 250.738 L2280.29 250.738 L2280.29 95.2176 L2037.67 95.2176  Z" fill="#ffffff" fill-rule="evenodd" fill-opacity="1"></path>
<polyline clip-path="url(#clip410)" style="stroke:#000000; stroke-linecap:round; stroke-linejoin:round; stroke-width:4; stroke-opacity:1; fill:none" points="2037.67,250.738 2280.29,250.738 2280.29,95.2176 2037.67,95.2176 2037.67,250.738 "></polyline>
<polyline clip-path="url(#clip410)" style="stroke:#009af9; stroke-linecap:round; stroke-linejoin:round; stroke-width:4; stroke-opacity:1; fill:none" points="2061.83,147.058 2206.75,147.058 "></polyline>
<path clip-path="url(#clip410)" d="M2255.56 138.412 L2246.18 151.027 L2256.05 164.338 L2251.02 164.338 L2243.48 154.152 L2235.93 164.338 L2230.91 164.338 L2240.98 150.773 L2231.76 138.412 L2236.79 138.412 L2243.66 147.648 L2250.54 138.412 L2255.56 138.412 Z" fill="#000000" fill-rule="nonzero" fill-opacity="1"></path><polyline clip-path="url(#clip410)" style="stroke:#e26f46; stroke-linecap:round; stroke-linejoin:round; stroke-width:4; stroke-opacity:1; fill:none" points="2061.83,198.898 2206.75,198.898 "></polyline>
<path clip-path="url(#clip410)" d="M2244.75 218.585 Q2242.94 223.215 2241.23 224.627 Q2239.52 226.039 2236.65 226.039 L2233.25 226.039 L2233.25 222.474 L2235.75 222.474 Q2237.5 222.474 2238.48 221.64 Q2239.45 220.807 2240.63 217.705 L2241.39 215.761 L2230.91 190.252 L2235.42 190.252 L2243.52 210.529 L2251.62 190.252 L2256.14 190.252 L2244.75 218.585 Z" fill="#000000" fill-rule="nonzero" fill-opacity="1"></path></svg>