<svg xmlns="http://www.w3.org/2000/svg" xmlns:xlink="http://www.w3.org/1999/xlink" width="600" height="400" viewBox="0 0 2400 1600">
<defs>
  <clipPath id="clip170">
    <rect x="0" y="0" width="2400" height="1600"></rect>
  </clipPath>
</defs>
<path clip-path="url(#clip170)" d="M0 1600 L2400 1600 L2400 8.88178e-14 L0 8.88178e-14  Z" fill="#ffffff" fill-rule="evenodd" fill-opacity="1"></path>
<defs>
  <clipPath id="clip171">
    <rect x="480" y="0" width="1681" height="1600"></rect>
  </clipPath>
</defs>
<path clip-path="url(#clip170)" d="M170.857 1486.45 L2352.76 1486.45 L2352.76 47.2441 L170.857 47.2441  Z" fill="#ffffff" fill-rule="evenodd" fill-opacity="1"></path>
<defs>
  <clipPath id="clip172">
    <rect x="170" y="47" width="2183" height="1440"></rect>
  </clipPath>
</defs>
<polyline clip-path="url(#clip172)" style="stroke:#000000; stroke-linecap:round; stroke-linejoin:round; stroke-width:2; stroke-opacity:0.1; fill:none" points="222.266,1486.45 222.266,47.2441 "></polyline>
<polyline clip-path="url(#clip172)" style="stroke:#000000; stroke-linecap:round; stroke-linejoin:round; stroke-width:2; stroke-opacity:0.1; fill:none" points="739.45,1486.45 739.45,47.2441 "></polyline>
<polyline clip-path="url(#clip172)" style="stroke:#000000; stroke-linecap:round; stroke-linejoin:round; stroke-width:2; stroke-opacity:0.1; fill:none" points="1256.63,1486.45 1256.63,47.2441 "></polyline>
<polyline clip-path="url(#clip172)" style="stroke:#000000; stroke-linecap:round; stroke-linejoin:round; stroke-width:2; stroke-opacity:0.1; fill:none" points="1773.82,1486.45 1773.82,47.2441 "></polyline>
<polyline clip-path="url(#clip172)" style="stroke:#000000; stroke-linecap:round; stroke-linejoin:round; stroke-width:2; stroke-opacity:0.1; fill:none" points="2291,1486.45 2291,47.2441 "></polyline>
<polyline clip-path="url(#clip172)" style="stroke:#000000; stroke-linecap:round; stroke-linejoin:round; stroke-width:2; stroke-opacity:0.1; fill:none" points="170.857,1435.8 2352.76,1435.8 "></polyline>
<polyline clip-path="url(#clip172)" style="stroke:#000000; stroke-linecap:round; stroke-linejoin:round; stroke-width:2; stroke-opacity:0.1; fill:none" points="170.857,984.09 2352.76,984.09 "></polyline>
<polyline clip-path="url(#clip172)" style="stroke:#000000; stroke-linecap:round; stroke-linejoin:round; stroke-width:2; stroke-opacity:0.1; fill:none" points="170.857,532.379 2352.76,532.379 "></polyline>
<polyline clip-path="url(#clip172)" style="stroke:#000000; stroke-linecap:round; stroke-linejoin:round; stroke-width:2; stroke-opacity:0.1; fill:none" points="170.857,80.6687 2352.76,80.6687 "></polyline>
<polyline clip-path="url(#clip170)" style="stroke:#000000; stroke-linecap:round; stroke-linejoin:round; stroke-width:4; stroke-opacity:1; fill:none" points="170.857,1486.45 2352.76,1486.45 "></polyline>
<polyline clip-path="url(#clip170)" style="stroke:#000000; stroke-linecap:round; stroke-linejoin:round; stroke-width:4; stroke-opacity:1; fill:none" points="222.266,1486.45 222.266,1467.55 "></polyline>
<polyline clip-path="url(#clip170)" style="stroke:#000000; stroke-linecap:round; stroke-linejoin:round; stroke-width:4; stroke-opacity:1; fill:none" points="739.45,1486.45 739.45,1467.55 "></polyline>
<polyline clip-path="url(#clip170)" style="stroke:#000000; stroke-linecap:round; stroke-linejoin:round; stroke-width:4; stroke-opacity:1; fill:none" points="1256.63,1486.45 1256.63,1467.55 "></polyline>
<polyline clip-path="url(#clip170)" style="stroke:#000000; stroke-linecap:round; stroke-linejoin:round; stroke-width:4; stroke-opacity:1; fill:none" points="1773.82,1486.45 1773.82,1467.55 "></polyline>
<polyline clip-path="url(#clip170)" style="stroke:#000000; stroke-linecap:round; stroke-linejoin:round; stroke-width:4; stroke-opacity:1; fill:none" points="2291,1486.45 2291,1467.55 "></polyline>
<path clip-path="url(#clip170)" d="M222.266 1517.37 Q218.654 1517.37 216.826 1520.93 Q215.02 1524.47 215.02 1531.6 Q215.02 1538.71 216.826 1542.27 Q218.654 1545.82 222.266 1545.82 Q225.9 1545.82 227.705 1542.27 Q229.534 1538.71 229.534 1531.6 Q229.534 1524.47 227.705 1520.93 Q225.9 1517.37 222.266 1517.37 M222.266 1513.66 Q228.076 1513.66 231.131 1518.27 Q234.21 1522.85 234.21 1531.6 Q234.21 1540.33 231.131 1544.94 Q228.076 1549.52 222.266 1549.52 Q216.455 1549.52 213.377 1544.94 Q210.321 1540.33 210.321 1531.6 Q210.321 1522.85 213.377 1518.27 Q216.455 1513.66 222.266 1513.66 Z" fill="#000000" fill-rule="nonzero" fill-opacity="1"></path><path clip-path="url(#clip170)" d="M714.149 1514.29 L732.506 1514.29 L732.506 1518.22 L718.432 1518.22 L718.432 1526.7 Q719.45 1526.35 720.469 1526.19 Q721.487 1526 722.506 1526 Q728.293 1526 731.672 1529.17 Q735.052 1532.34 735.052 1537.76 Q735.052 1543.34 731.58 1546.44 Q728.108 1549.52 721.788 1549.52 Q719.612 1549.52 717.344 1549.15 Q715.098 1548.78 712.691 1548.04 L712.691 1543.34 Q714.774 1544.47 716.997 1545.03 Q719.219 1545.58 721.696 1545.58 Q725.7 1545.58 728.038 1543.48 Q730.376 1541.37 730.376 1537.76 Q730.376 1534.15 728.038 1532.04 Q725.7 1529.94 721.696 1529.94 Q719.821 1529.94 717.946 1530.35 Q716.094 1530.77 714.149 1531.65 L714.149 1514.29 Z" fill="#000000" fill-rule="nonzero" fill-opacity="1"></path><path clip-path="url(#clip170)" d="M754.265 1517.37 Q750.654 1517.37 748.825 1520.93 Q747.02 1524.47 747.02 1531.6 Q747.02 1538.71 748.825 1542.27 Q750.654 1545.82 754.265 1545.82 Q757.899 1545.82 759.705 1542.27 Q761.533 1538.71 761.533 1531.6 Q761.533 1524.47 759.705 1520.93 Q757.899 1517.37 754.265 1517.37 M754.265 1513.66 Q760.075 1513.66 763.131 1518.27 Q766.209 1522.85 766.209 1531.6 Q766.209 1540.33 763.131 1544.94 Q760.075 1549.52 754.265 1549.52 Q748.455 1549.52 745.376 1544.94 Q742.321 1540.33 742.321 1531.6 Q742.321 1522.85 745.376 1518.27 Q748.455 1513.66 754.265 1513.66 Z" fill="#000000" fill-rule="nonzero" fill-opacity="1"></path><path clip-path="url(#clip170)" d="M1216.24 1544.91 L1223.88 1544.91 L1223.88 1518.55 L1215.57 1520.21 L1215.57 1515.95 L1223.83 1514.29 L1228.51 1514.29 L1228.51 1544.91 L1236.15 1544.91 L1236.15 1548.85 L1216.24 1548.85 L1216.24 1544.91 Z" fill="#000000" fill-rule="nonzero" fill-opacity="1"></path><path clip-path="url(#clip170)" d="M1255.59 1517.37 Q1251.98 1517.37 1250.15 1520.93 Q1248.35 1524.47 1248.35 1531.6 Q1248.35 1538.71 1250.15 1542.27 Q1251.98 1545.82 1255.59 1545.82 Q1259.23 1545.82 1261.03 1542.27 Q1262.86 1538.71 1262.86 1531.6 Q1262.86 1524.47 1261.03 1520.93 Q1259.23 1517.37 1255.59 1517.37 M1255.59 1513.66 Q1261.4 1513.66 1264.46 1518.27 Q1267.54 1522.85 1267.54 1531.6 Q1267.54 1540.33 1264.46 1544.94 Q1261.4 1549.52 1255.59 1549.52 Q1249.78 1549.52 1246.7 1544.94 Q1243.65 1540.33 1243.65 1531.6 Q1243.65 1522.85 1246.7 1518.27 Q1249.78 1513.66 1255.59 1513.66 Z" fill="#000000" fill-rule="nonzero" fill-opacity="1"></path><path clip-path="url(#clip170)" d="M1285.76 1517.37 Q1282.14 1517.37 1280.32 1520.93 Q1278.51 1524.47 1278.51 1531.6 Q1278.51 1538.71 1280.32 1542.27 Q1282.14 1545.82 1285.76 1545.82 Q1289.39 1545.82 1291.19 1542.27 Q1293.02 1538.71 1293.02 1531.6 Q1293.02 1524.47 1291.19 1520.93 Q1289.39 1517.37 1285.76 1517.37 M1285.76 1513.66 Q1291.57 1513.66 1294.62 1518.27 Q1297.7 1522.85 1297.7 1531.6 Q1297.7 1540.33 1294.62 1544.94 Q1291.57 1549.52 1285.76 1549.52 Q1279.94 1549.52 1276.87 1544.94 Q1273.81 1540.33 1273.81 1531.6 Q1273.81 1522.85 1276.87 1518.27 Q1279.94 1513.66 1285.76 1513.66 Z" fill="#000000" fill-rule="nonzero" fill-opacity="1"></path><path clip-path="url(#clip170)" d="M1733.43 1544.91 L1741.06 1544.91 L1741.06 1518.55 L1732.75 1520.21 L1732.75 1515.95 L1741.02 1514.29 L1745.69 1514.29 L1745.69 1544.91 L1753.33 1544.91 L1753.33 1548.85 L1733.43 1548.85 L1733.43 1544.91 Z" fill="#000000" fill-rule="nonzero" fill-opacity="1"></path><path clip-path="url(#clip170)" d="M1762.82 1514.29 L1781.18 1514.29 L1781.18 1518.22 L1767.11 1518.22 L1767.11 1526.7 Q1768.13 1526.35 1769.14 1526.19 Q1770.16 1526 1771.18 1526 Q1776.97 1526 1780.35 1529.17 Q1783.73 1532.34 1783.73 1537.76 Q1783.73 1543.34 1780.25 1546.44 Q1776.78 1549.52 1770.46 1549.52 Q1768.29 1549.52 1766.02 1549.15 Q1763.77 1548.78 1761.37 1548.04 L1761.37 1543.34 Q1763.45 1544.47 1765.67 1545.03 Q1767.89 1545.58 1770.37 1545.58 Q1774.37 1545.58 1776.71 1543.48 Q1779.05 1541.37 1779.05 1537.76 Q1779.05 1534.15 1776.71 1532.04 Q1774.37 1529.94 1770.37 1529.94 Q1768.5 1529.94 1766.62 1530.35 Q1764.77 1530.77 1762.82 1531.65 L1762.82 1514.29 Z" fill="#000000" fill-rule="nonzero" fill-opacity="1"></path><path clip-path="url(#clip170)" d="M1802.94 1517.37 Q1799.33 1517.37 1797.5 1520.93 Q1795.69 1524.47 1795.69 1531.6 Q1795.69 1538.71 1797.5 1542.27 Q1799.33 1545.82 1802.94 1545.82 Q1806.57 1545.82 1808.38 1542.27 Q1810.21 1538.71 1810.21 1531.6 Q1810.21 1524.47 1808.38 1520.93 Q1806.57 1517.37 1802.94 1517.37 M1802.94 1513.66 Q1808.75 1513.66 1811.81 1518.27 Q1814.88 1522.85 1814.88 1531.6 Q1814.88 1540.33 1811.81 1544.94 Q1808.75 1549.52 1802.94 1549.52 Q1797.13 1549.52 1794.05 1544.94 Q1791 1540.33 1791 1531.6 Q1791 1522.85 1794.05 1518.27 Q1797.13 1513.66 1802.94 1513.66 Z" fill="#000000" fill-rule="nonzero" fill-opacity="1"></path><path clip-path="url(#clip170)" d="M2254.7 1544.91 L2271.02 1544.91 L2271.02 1548.85 L2249.07 1548.85 L2249.07 1544.91 Q2251.73 1542.16 2256.32 1537.53 Q2260.92 1532.88 2262.1 1531.53 Q2264.35 1529.01 2265.23 1527.27 Q2266.13 1525.51 2266.13 1523.82 Q2266.13 1521.07 2264.19 1519.33 Q2262.27 1517.6 2259.16 1517.6 Q2256.96 1517.6 2254.51 1518.36 Q2252.08 1519.13 2249.3 1520.68 L2249.3 1515.95 Q2252.13 1514.82 2254.58 1514.24 Q2257.03 1513.66 2259.07 1513.66 Q2264.44 1513.66 2267.64 1516.35 Q2270.83 1519.03 2270.83 1523.52 Q2270.83 1525.65 2270.02 1527.57 Q2269.23 1529.47 2267.13 1532.07 Q2266.55 1532.74 2263.45 1535.95 Q2260.34 1539.15 2254.7 1544.91 Z" fill="#000000" fill-rule="nonzero" fill-opacity="1"></path><path clip-path="url(#clip170)" d="M2290.83 1517.37 Q2287.22 1517.37 2285.39 1520.93 Q2283.59 1524.47 2283.59 1531.6 Q2283.59 1538.71 2285.39 1542.27 Q2287.22 1545.82 2290.83 1545.82 Q2294.46 1545.82 2296.27 1542.27 Q2298.1 1538.71 2298.1 1531.6 Q2298.1 1524.47 2296.27 1520.93 Q2294.46 1517.37 2290.83 1517.37 M2290.83 1513.66 Q2296.64 1513.66 2299.7 1518.27 Q2302.77 1522.85 2302.77 1531.6 Q2302.77 1540.33 2299.7 1544.94 Q2296.64 1549.52 2290.83 1549.52 Q2285.02 1549.52 2281.94 1544.94 Q2278.89 1540.33 2278.89 1531.6 Q2278.89 1522.85 2281.94 1518.27 Q2285.02 1513.66 2290.83 1513.66 Z" fill="#000000" fill-rule="nonzero" fill-opacity="1"></path><path clip-path="url(#clip170)" d="M2320.99 1517.37 Q2317.38 1517.37 2315.55 1520.93 Q2313.75 1524.47 2313.75 1531.6 Q2313.75 1538.71 2315.55 1542.27 Q2317.38 1545.82 2320.99 1545.82 Q2324.63 1545.82 2326.43 1542.27 Q2328.26 1538.71 2328.26 1531.6 Q2328.26 1524.47 2326.43 1520.93 Q2324.63 1517.37 2320.99 1517.37 M2320.99 1513.66 Q2326.8 1513.66 2329.86 1518.27 Q2332.94 1522.85 2332.94 1531.6 Q2332.94 1540.33 2329.86 1544.94 Q2326.8 1549.52 2320.99 1549.52 Q2315.18 1549.52 2312.1 1544.94 Q2309.05 1540.33 2309.05 1531.6 Q2309.05 1522.85 2312.1 1518.27 Q2315.18 1513.66 2320.99 1513.66 Z" fill="#000000" fill-rule="nonzero" fill-opacity="1"></path><polyline clip-path="url(#clip170)" style="stroke:#000000; stroke-linecap:round; stroke-linejoin:round; stroke-width:4; stroke-opacity:1; fill:none" points="170.857,1486.45 170.857,47.2441 "></polyline>
<polyline clip-path="url(#clip170)" style="stroke:#000000; stroke-linecap:round; stroke-linejoin:round; stroke-width:4; stroke-opacity:1; fill:none" points="170.857,1435.8 189.755,1435.8 "></polyline>
<polyline clip-path="url(#clip170)" style="stroke:#000000; stroke-linecap:round; stroke-linejoin:round; stroke-width:4; stroke-opacity:1; fill:none" points="170.857,984.09 189.755,984.09 "></polyline>
<polyline clip-path="url(#clip170)" style="stroke:#000000; stroke-linecap:round; stroke-linejoin:round; stroke-width:4; stroke-opacity:1; fill:none" points="170.857,532.379 189.755,532.379 "></polyline>
<polyline clip-path="url(#clip170)" style="stroke:#000000; stroke-linecap:round; stroke-linejoin:round; stroke-width:4; stroke-opacity:1; fill:none" points="170.857,80.6687 189.755,80.6687 "></polyline>
<path clip-path="url(#clip170)" d="M122.913 1421.6 Q119.302 1421.6 117.473 1425.16 Q115.668 1428.71 115.668 1435.84 Q115.668 1442.94 117.473 1446.51 Q119.302 1450.05 122.913 1450.05 Q126.547 1450.05 128.353 1446.51 Q130.182 1442.94 130.182 1435.84 Q130.182 1428.71 128.353 1425.16 Q126.547 1421.6 122.913 1421.6 M122.913 1417.9 Q128.723 1417.9 131.779 1422.5 Q134.857 1427.09 134.857 1435.84 Q134.857 1444.56 131.779 1449.17 Q128.723 1453.75 122.913 1453.75 Q117.103 1453.75 114.024 1449.17 Q110.969 1444.56 110.969 1435.84 Q110.969 1427.09 114.024 1422.5 Q117.103 1417.9 122.913 1417.9 Z" fill="#000000" fill-rule="nonzero" fill-opacity="1"></path><path clip-path="url(#clip170)" d="M53.3995 997.435 L61.0384 997.435 L61.0384 971.069 L52.7282 972.736 L52.7282 968.476 L60.9921 966.81 L65.668 966.81 L65.668 997.435 L73.3068 997.435 L73.3068 1001.37 L53.3995 1001.37 L53.3995 997.435 Z" fill="#000000" fill-rule="nonzero" fill-opacity="1"></path><path clip-path="url(#clip170)" d="M92.7512 969.888 Q89.1401 969.888 87.3114 973.453 Q85.5058 976.995 85.5058 984.125 Q85.5058 991.231 87.3114 994.796 Q89.1401 998.337 92.7512 998.337 Q96.3854 998.337 98.1909 994.796 Q100.02 991.231 100.02 984.125 Q100.02 976.995 98.1909 973.453 Q96.3854 969.888 92.7512 969.888 M92.7512 966.185 Q98.5613 966.185 101.617 970.791 Q104.696 975.375 104.696 984.125 Q104.696 992.851 101.617 997.458 Q98.5613 1002.04 92.7512 1002.04 Q86.941 1002.04 83.8623 997.458 Q80.8068 992.851 80.8068 984.125 Q80.8068 975.375 83.8623 970.791 Q86.941 966.185 92.7512 966.185 Z" fill="#000000" fill-rule="nonzero" fill-opacity="1"></path><path clip-path="url(#clip170)" d="M122.913 969.888 Q119.302 969.888 117.473 973.453 Q115.668 976.995 115.668 984.125 Q115.668 991.231 117.473 994.796 Q119.302 998.337 122.913 998.337 Q126.547 998.337 128.353 994.796 Q130.182 991.231 130.182 984.125 Q130.182 976.995 128.353 973.453 Q126.547 969.888 122.913 969.888 M122.913 966.185 Q128.723 966.185 131.779 970.791 Q134.857 975.375 134.857 984.125 Q134.857 992.851 131.779 997.458 Q128.723 1002.04 122.913 1002.04 Q117.103 1002.04 114.024 997.458 Q110.969 992.851 110.969 984.125 Q110.969 975.375 114.024 970.791 Q117.103 966.185 122.913 966.185 Z" fill="#000000" fill-rule="nonzero" fill-opacity="1"></path><path clip-path="url(#clip170)" d="M56.6171 545.724 L72.9365 545.724 L72.9365 549.659 L50.9921 549.659 L50.9921 545.724 Q53.6541 542.969 58.2375 538.34 Q62.8439 533.687 64.0245 532.345 Q66.2698 529.821 67.1494 528.085 Q68.0522 526.326 68.0522 524.636 Q68.0522 521.882 66.1078 520.145 Q64.1865 518.409 61.0847 518.409 Q58.8856 518.409 56.4319 519.173 Q54.0014 519.937 51.2236 521.488 L51.2236 516.766 Q54.0477 515.632 56.5014 515.053 Q58.955 514.474 60.9921 514.474 Q66.3624 514.474 69.5568 517.159 Q72.7513 519.845 72.7513 524.335 Q72.7513 526.465 71.9411 528.386 Q71.1541 530.284 69.0476 532.877 Q68.4689 533.548 65.367 536.766 Q62.2652 539.96 56.6171 545.724 Z" fill="#000000" fill-rule="nonzero" fill-opacity="1"></path><path clip-path="url(#clip170)" d="M92.7512 518.178 Q89.1401 518.178 87.3114 521.743 Q85.5058 525.284 85.5058 532.414 Q85.5058 539.52 87.3114 543.085 Q89.1401 546.627 92.7512 546.627 Q96.3854 546.627 98.1909 543.085 Q100.02 539.52 100.02 532.414 Q100.02 525.284 98.1909 521.743 Q96.3854 518.178 92.7512 518.178 M92.7512 514.474 Q98.5613 514.474 101.617 519.081 Q104.696 523.664 104.696 532.414 Q104.696 541.141 101.617 545.747 Q98.5613 550.331 92.7512 550.331 Q86.941 550.331 83.8623 545.747 Q80.8068 541.141 80.8068 532.414 Q80.8068 523.664 83.8623 519.081 Q86.941 514.474 92.7512 514.474 Z" fill="#000000" fill-rule="nonzero" fill-opacity="1"></path><path clip-path="url(#clip170)" d="M122.913 518.178 Q119.302 518.178 117.473 521.743 Q115.668 525.284 115.668 532.414 Q115.668 539.52 117.473 543.085 Q119.302 546.627 122.913 546.627 Q126.547 546.627 128.353 543.085 Q130.182 539.52 130.182 532.414 Q130.182 525.284 128.353 521.743 Q126.547 518.178 122.913 518.178 M122.913 514.474 Q128.723 514.474 131.779 519.081 Q134.857 523.664 134.857 532.414 Q134.857 541.141 131.779 545.747 Q128.723 550.331 122.913 550.331 Q117.103 550.331 114.024 545.747 Q110.969 541.141 110.969 532.414 Q110.969 523.664 114.024 519.081 Q117.103 514.474 122.913 514.474 Z" fill="#000000" fill-rule="nonzero" fill-opacity="1"></path><path clip-path="url(#clip170)" d="M66.7559 79.3145 Q70.1124 80.0321 71.9874 82.3006 Q73.8855 84.5691 73.8855 87.9024 Q73.8855 93.0181 70.367 95.819 Q66.8485 98.62 60.3671 98.62 Q58.1912 98.62 55.8764 98.1801 Q53.5847 97.7635 51.131 96.907 L51.131 92.3931 Q53.0754 93.5274 55.3903 94.1061 Q57.7051 94.6848 60.2282 94.6848 Q64.6263 94.6848 66.918 92.9487 Q69.2328 91.2126 69.2328 87.9024 Q69.2328 84.8469 67.08 83.1339 Q64.9504 81.3978 61.131 81.3978 L57.1032 81.3978 L57.1032 77.5553 L61.3161 77.5553 Q64.7652 77.5553 66.5939 76.1895 Q68.4226 74.8006 68.4226 72.2081 Q68.4226 69.546 66.5245 68.134 Q64.6495 66.6988 61.131 66.6988 Q59.2097 66.6988 57.0106 67.1155 Q54.8115 67.5322 52.1727 68.4118 L52.1727 64.2451 Q54.8347 63.5044 57.1495 63.134 Q59.4875 62.7637 61.5476 62.7637 Q66.8717 62.7637 69.9735 65.1942 Q73.0753 67.6016 73.0753 71.722 Q73.0753 74.5923 71.4318 76.583 Q69.7883 78.5506 66.7559 79.3145 Z" fill="#000000" fill-rule="nonzero" fill-opacity="1"></path><path clip-path="url(#clip170)" d="M92.7512 66.4674 Q89.1401 66.4674 87.3114 70.0321 Q85.5058 73.5738 85.5058 80.7034 Q85.5058 87.8098 87.3114 91.3746 Q89.1401 94.9163 92.7512 94.9163 Q96.3854 94.9163 98.1909 91.3746 Q100.02 87.8098 100.02 80.7034 Q100.02 73.5738 98.1909 70.0321 Q96.3854 66.4674 92.7512 66.4674 M92.7512 62.7637 Q98.5613 62.7637 101.617 67.3701 Q104.696 71.9534 104.696 80.7034 Q104.696 89.4302 101.617 94.0366 Q98.5613 98.62 92.7512 98.62 Q86.941 98.62 83.8623 94.0366 Q80.8068 89.4302 80.8068 80.7034 Q80.8068 71.9534 83.8623 67.3701 Q86.941 62.7637 92.7512 62.7637 Z" fill="#000000" fill-rule="nonzero" fill-opacity="1"></path><path clip-path="url(#clip170)" d="M122.913 66.4674 Q119.302 66.4674 117.473 70.0321 Q115.668 73.5738 115.668 80.7034 Q115.668 87.8098 117.473 91.3746 Q119.302 94.9163 122.913 94.9163 Q126.547 94.9163 128.353 91.3746 Q130.182 87.8098 130.182 80.7034 Q130.182 73.5738 128.353 70.0321 Q126.547 66.4674 122.913 66.4674 M122.913 62.7637 Q128.723 62.7637 131.779 67.3701 Q134.857 71.9534 134.857 80.7034 Q134.857 89.4302 131.779 94.0366 Q128.723 98.62 122.913 98.62 Q117.103 98.62 114.024 94.0366 Q110.969 89.4302 110.969 80.7034 Q110.969 71.9534 114.024 67.3701 Q117.103 62.7637 122.913 62.7637 Z" fill="#000000" fill-rule="nonzero" fill-opacity="1"></path><polyline clip-path="url(#clip172)" style="stroke:#009af9; stroke-linecap:round; stroke-linejoin:round; stroke-width:4; stroke-opacity:1; fill:none" points="232.609,1445.72 242.953,1420.54 253.297,1385.02 263.64,1288.12 273.984,1302.57 284.328,1275.61 294.671,1249.8 305.015,1270.08 315.359,1269.28 325.702,1265.47 336.046,1265.16 346.39,1377.02 356.734,1415.1 367.077,1362.23 377.421,1347.85 387.765,1370.69 398.108,1419.22 408.452,1397.41 418.796,1359.34 429.139,1386.07 439.483,1406.99 449.827,1382.13 460.17,1306.29 470.514,1329.24 480.858,1305.64 491.202,1352.92 501.545,1394.24 511.889,1295.56 522.233,1301.86 532.576,1301.71 542.92,1259.51 553.264,1241.55 563.607,1242.71 573.951,1251.46 584.295,1229.4 594.638,1180.99 604.982,1168.6 615.326,1109.71 625.67,1093.43 636.013,1068.04 646.357,1065.55 656.701,1014.4 667.044,1012.04 677.388,943.086 687.732,954.584 698.075,1010.81 708.419,930.187 718.763,971.73 729.106,1008.74 739.45,1002.66 749.794,1046.54 760.138,1039.32 770.481,1041.69 780.825,1048.56 791.169,1139.24 801.512,1075.67 811.856,1053.32 822.2,1119.47 832.543,1079.63 842.887,1075 853.231,1151.91 863.575,1136.41 873.918,1132.58 884.262,1096.58 894.606,1128.03 904.949,1114.5 915.293,1126.39 925.637,1047.74 935.98,1024.49 946.324,995.356 956.668,946.193 967.011,1000.41 977.355,936.992 987.699,958.846 998.043,913.39 1008.39,818.353 1018.73,765.274 1029.07,767.546 1039.42,787.841 1049.76,803.348 1060.1,774.974 1070.45,763.145 1080.79,738.531 1091.14,743.271 1101.48,773.576 1111.82,794.287 1122.17,697.477 1132.51,722.835 1142.85,780.837 1153.2,811.972 1163.54,812.87 1173.89,832.844 1184.23,867.669 1194.57,881.202 1204.92,855.643 1215.26,917.469 1225.6,874.659 1235.95,879.472 1246.29,915.176 1256.63,870.762 1266.98,802.418 1277.32,788.14 1287.67,695.627 1298.01,619.608 1308.35,604.456 1318.7,508.95 1329.04,494.806 1339.38,455.141 1349.73,466.535 1360.07,458.632 1370.42,453.805 1380.76,476.049 1391.1,390.526 1401.45,363.602 1411.79,345.019 1422.13,406.104 1432.48,430.581 1442.82,393.469 1453.16,378.288 1463.51,417.823 1473.85,420.229 1484.2,477.651 1494.54,435.56 1504.88,372.191 1515.23,346.914 1525.57,419.064 1535.91,366.554 1546.26,340.319 1556.6,330.191 1566.95,302.717 1577.29,283.805 1587.63,286.398 1597.98,277.618 1608.32,226.077 1618.66,213.422 1629.01,180.927 1639.35,110.089 1649.7,134.511 1660.04,102.408 1670.38,106.821 1680.73,110.204 1691.07,87.9763 1701.41,150.485 1711.76,231.282 1722.1,283.635 1732.44,382.707 1742.79,408.381 1753.13,438.645 1763.48,448.338 1773.82,393.692 1784.16,357.316 1794.51,311.645 1804.85,401.173 1815.19,478.433 1825.54,489.212 1835.88,467.779 1846.23,583.426 1856.57,530.874 1866.91,500.098 1877.26,499.091 1887.6,530.955 1897.94,491.628 1908.29,497.029 1918.63,478.192 1928.97,465.218 1939.32,553.058 1949.66,565.107 1960.01,582.555 1970.35,525.203 1980.69,541.159 1991.04,501.248 2001.38,472.217 2011.72,444.753 2022.07,432.227 2032.41,475.242 2042.76,454.749 2053.1,395.991 2063.44,475.332 2073.79,530.939 2084.13,489.732 2094.47,439.893 2104.82,502.559 2115.16,512.09 2125.5,502.338 2135.85,457.891 2146.19,466.517 2156.54,469.433 2166.88,461.15 2177.22,467.879 2187.57,436.571 2197.91,384.023 2208.25,398.789 2218.6,277.988 2228.94,281.596 2239.29,289.507 2249.63,318.478 2259.97,274.771 2270.32,247.755 2280.66,228.777 2291,232.537 "></polyline>
<path clip-path="url(#clip170)" d="M243.587 198.898 L514.207 198.898 L514.207 95.2176 L243.587 95.2176  Z" fill="#ffffff" fill-rule="evenodd" fill-opacity="1"></path>
<polyline clip-path="url(#clip170)" style="stroke:#000000; stroke-linecap:round; stroke-linejoin:round; stroke-width:4; stroke-opacity:1; fill:none" points="243.587,198.898 514.207,198.898 514.207,95.2176 243.587,95.2176 243.587,198.898 "></polyline>
<polyline clip-path="url(#clip170)" style="stroke:#009af9; stroke-linecap:round; stroke-linejoin:round; stroke-width:4; stroke-opacity:1; fill:none" points="267.831,147.058 413.291,147.058 "></polyline>
<path clip-path="url(#clip170)" d="M451.376 166.745 Q449.571 171.375 447.858 172.787 Q446.145 174.199 443.275 174.199 L439.872 174.199 L439.872 170.634 L442.372 170.634 Q444.131 170.634 445.103 169.8 Q446.076 168.967 447.256 165.865 L448.02 163.921 L437.534 138.412 L442.048 138.412 L450.15 158.689 L458.251 138.412 L462.765 138.412 L451.376 166.745 Z" fill="#000000" fill-rule="nonzero" fill-opacity="1"></path><path clip-path="url(#clip170)" d="M470.057 160.402 L477.696 160.402 L477.696 134.037 L469.386 135.703 L469.386 131.444 L477.649 129.778 L482.325 129.778 L482.325 160.402 L489.964 160.402 L489.964 164.338 L470.057 164.338 L470.057 160.402 Z" fill="#000000" fill-rule="nonzero" fill-opacity="1"></path></svg>