<svg xmlns="http://www.w3.org/2000/svg" xmlns:xlink="http://www.w3.org/1999/xlink" width="600" height="400" viewBox="0 0 2400 1600">
<defs>
  <clipPath id="clip690">
    <rect x="0" y="0" width="2400" height="1600"></rect>
  </clipPath>
</defs>
<path clip-path="url(#clip690)" d="M0 1600 L2400 1600 L2400 8.88178e-14 L0 8.88178e-14  Z" fill="#ffffff" fill-rule="evenodd" fill-opacity="1"></path>
<defs>
  <clipPath id="clip691">
    <rect x="480" y="0" width="1681" height="1600"></rect>
  </clipPath>
</defs>
<path clip-path="url(#clip690)" d="M147.709 1486.45 L2352.76 1486.45 L2352.76 47.2441 L147.709 47.2441  Z" fill="#ffffff" fill-rule="evenodd" fill-opacity="1"></path>
<defs>
  <clipPath id="clip692">
    <rect x="147" y="47" width="2206" height="1440"></rect>
  </clipPath>
</defs>
<polyline clip-path="url(#clip692)" style="stroke:#000000; stroke-linecap:round; stroke-linejoin:round; stroke-width:2; stroke-opacity:0.1; fill:none" points="205.948,1486.45 205.948,47.2441 "></polyline>
<polyline clip-path="url(#clip692)" style="stroke:#000000; stroke-linecap:round; stroke-linejoin:round; stroke-width:2; stroke-opacity:0.1; fill:none" points="622.828,1486.45 622.828,47.2441 "></polyline>
<polyline clip-path="url(#clip692)" style="stroke:#000000; stroke-linecap:round; stroke-linejoin:round; stroke-width:2; stroke-opacity:0.1; fill:none" points="1039.71,1486.45 1039.71,47.2441 "></polyline>
<polyline clip-path="url(#clip692)" style="stroke:#000000; stroke-linecap:round; stroke-linejoin:round; stroke-width:2; stroke-opacity:0.1; fill:none" points="1456.59,1486.45 1456.59,47.2441 "></polyline>
<polyline clip-path="url(#clip692)" style="stroke:#000000; stroke-linecap:round; stroke-linejoin:round; stroke-width:2; stroke-opacity:0.1; fill:none" points="1873.47,1486.45 1873.47,47.2441 "></polyline>
<polyline clip-path="url(#clip692)" style="stroke:#000000; stroke-linecap:round; stroke-linejoin:round; stroke-width:2; stroke-opacity:0.1; fill:none" points="2290.35,1486.45 2290.35,47.2441 "></polyline>
<polyline clip-path="url(#clip692)" style="stroke:#000000; stroke-linecap:round; stroke-linejoin:round; stroke-width:2; stroke-opacity:0.1; fill:none" points="147.709,1364.24 2352.76,1364.24 "></polyline>
<polyline clip-path="url(#clip692)" style="stroke:#000000; stroke-linecap:round; stroke-linejoin:round; stroke-width:2; stroke-opacity:0.1; fill:none" points="147.709,1139.81 2352.76,1139.81 "></polyline>
<polyline clip-path="url(#clip692)" style="stroke:#000000; stroke-linecap:round; stroke-linejoin:round; stroke-width:2; stroke-opacity:0.1; fill:none" points="147.709,915.386 2352.76,915.386 "></polyline>
<polyline clip-path="url(#clip692)" style="stroke:#000000; stroke-linecap:round; stroke-linejoin:round; stroke-width:2; stroke-opacity:0.1; fill:none" points="147.709,690.958 2352.76,690.958 "></polyline>
<polyline clip-path="url(#clip692)" style="stroke:#000000; stroke-linecap:round; stroke-linejoin:round; stroke-width:2; stroke-opacity:0.1; fill:none" points="147.709,466.53 2352.76,466.53 "></polyline>
<polyline clip-path="url(#clip692)" style="stroke:#000000; stroke-linecap:round; stroke-linejoin:round; stroke-width:2; stroke-opacity:0.1; fill:none" points="147.709,242.102 2352.76,242.102 "></polyline>
<polyline clip-path="url(#clip690)" style="stroke:#000000; stroke-linecap:round; stroke-linejoin:round; stroke-width:4; stroke-opacity:1; fill:none" points="147.709,1486.45 2352.76,1486.45 "></polyline>
<polyline clip-path="url(#clip690)" style="stroke:#000000; stroke-linecap:round; stroke-linejoin:round; stroke-width:4; stroke-opacity:1; fill:none" points="205.948,1486.45 205.948,1467.55 "></polyline>
<polyline clip-path="url(#clip690)" style="stroke:#000000; stroke-linecap:round; stroke-linejoin:round; stroke-width:4; stroke-opacity:1; fill:none" points="622.828,1486.45 622.828,1467.55 "></polyline>
<polyline clip-path="url(#clip690)" style="stroke:#000000; stroke-linecap:round; stroke-linejoin:round; stroke-width:4; stroke-opacity:1; fill:none" points="1039.71,1486.45 1039.71,1467.55 "></polyline>
<polyline clip-path="url(#clip690)" style="stroke:#000000; stroke-linecap:round; stroke-linejoin:round; stroke-width:4; stroke-opacity:1; fill:none" points="1456.59,1486.45 1456.59,1467.55 "></polyline>
<polyline clip-path="url(#clip690)" style="stroke:#000000; stroke-linecap:round; stroke-linejoin:round; stroke-width:4; stroke-opacity:1; fill:none" points="1873.47,1486.45 1873.47,1467.55 "></polyline>
<polyline clip-path="url(#clip690)" style="stroke:#000000; stroke-linecap:round; stroke-linejoin:round; stroke-width:4; stroke-opacity:1; fill:none" points="2290.35,1486.45 2290.35,1467.55 "></polyline>
<path clip-path="url(#clip690)" d="M205.948 1517.37 Q202.336 1517.37 200.508 1520.93 Q198.702 1524.47 198.702 1531.6 Q198.702 1538.71 200.508 1542.27 Q202.336 1545.82 205.948 1545.82 Q209.582 1545.82 211.387 1542.27 Q213.216 1538.71 213.216 1531.6 Q213.216 1524.47 211.387 1520.93 Q209.582 1517.37 205.948 1517.37 M205.948 1513.66 Q211.758 1513.66 214.813 1518.27 Q217.892 1522.85 217.892 1531.6 Q217.892 1540.33 214.813 1544.94 Q211.758 1549.52 205.948 1549.52 Q200.137 1549.52 197.059 1544.94 Q194.003 1540.33 194.003 1531.6 Q194.003 1522.85 197.059 1518.27 Q200.137 1513.66 205.948 1513.66 Z" fill="#000000" fill-rule="nonzero" fill-opacity="1"></path><path clip-path="url(#clip690)" d="M582.435 1544.91 L590.073 1544.91 L590.073 1518.55 L581.763 1520.21 L581.763 1515.95 L590.027 1514.29 L594.703 1514.29 L594.703 1544.91 L602.342 1544.91 L602.342 1548.85 L582.435 1548.85 L582.435 1544.91 Z" fill="#000000" fill-rule="nonzero" fill-opacity="1"></path><path clip-path="url(#clip690)" d="M621.786 1517.37 Q618.175 1517.37 616.346 1520.93 Q614.541 1524.47 614.541 1531.6 Q614.541 1538.71 616.346 1542.27 Q618.175 1545.82 621.786 1545.82 Q625.42 1545.82 627.226 1542.27 Q629.055 1538.71 629.055 1531.6 Q629.055 1524.47 627.226 1520.93 Q625.42 1517.37 621.786 1517.37 M621.786 1513.66 Q627.596 1513.66 630.652 1518.27 Q633.731 1522.85 633.731 1531.6 Q633.731 1540.33 630.652 1544.94 Q627.596 1549.52 621.786 1549.52 Q615.976 1549.52 612.897 1544.94 Q609.842 1540.33 609.842 1531.6 Q609.842 1522.85 612.897 1518.27 Q615.976 1513.66 621.786 1513.66 Z" fill="#000000" fill-rule="nonzero" fill-opacity="1"></path><path clip-path="url(#clip690)" d="M651.948 1517.37 Q648.337 1517.37 646.508 1520.93 Q644.703 1524.47 644.703 1531.6 Q644.703 1538.71 646.508 1542.27 Q648.337 1545.82 651.948 1545.82 Q655.582 1545.82 657.388 1542.27 Q659.217 1538.71 659.217 1531.6 Q659.217 1524.47 657.388 1520.93 Q655.582 1517.37 651.948 1517.37 M651.948 1513.66 Q657.758 1513.66 660.814 1518.27 Q663.892 1522.85 663.892 1531.6 Q663.892 1540.33 660.814 1544.94 Q657.758 1549.52 651.948 1549.52 Q646.138 1549.52 643.059 1544.94 Q640.004 1540.33 640.004 1531.6 Q640.004 1522.85 643.059 1518.27 Q646.138 1513.66 651.948 1513.66 Z" fill="#000000" fill-rule="nonzero" fill-opacity="1"></path><path clip-path="url(#clip690)" d="M1003.4 1544.91 L1019.72 1544.91 L1019.72 1548.85 L997.775 1548.85 L997.775 1544.91 Q1000.44 1542.16 1005.02 1537.53 Q1009.63 1532.88 1010.81 1531.53 Q1013.05 1529.01 1013.93 1527.27 Q1014.84 1525.51 1014.84 1523.82 Q1014.84 1521.07 1012.89 1519.33 Q1010.97 1517.6 1007.87 1517.6 Q1005.67 1517.6 1003.22 1518.36 Q1000.78 1519.13 998.007 1520.68 L998.007 1515.95 Q1000.83 1514.82 1003.28 1514.24 Q1005.74 1513.66 1007.78 1513.66 Q1013.15 1513.66 1016.34 1516.35 Q1019.53 1519.03 1019.53 1523.52 Q1019.53 1525.65 1018.72 1527.57 Q1017.94 1529.47 1015.83 1532.07 Q1015.25 1532.74 1012.15 1535.95 Q1009.05 1539.15 1003.4 1544.91 Z" fill="#000000" fill-rule="nonzero" fill-opacity="1"></path><path clip-path="url(#clip690)" d="M1039.53 1517.37 Q1035.92 1517.37 1034.09 1520.93 Q1032.29 1524.47 1032.29 1531.6 Q1032.29 1538.71 1034.09 1542.27 Q1035.92 1545.82 1039.53 1545.82 Q1043.17 1545.82 1044.97 1542.27 Q1046.8 1538.71 1046.8 1531.6 Q1046.8 1524.47 1044.97 1520.93 Q1043.17 1517.37 1039.53 1517.37 M1039.53 1513.66 Q1045.34 1513.66 1048.4 1518.27 Q1051.48 1522.85 1051.48 1531.6 Q1051.48 1540.33 1048.4 1544.94 Q1045.34 1549.52 1039.53 1549.52 Q1033.72 1549.52 1030.65 1544.94 Q1027.59 1540.33 1027.59 1531.6 Q1027.59 1522.85 1030.65 1518.27 Q1033.72 1513.66 1039.53 1513.66 Z" fill="#000000" fill-rule="nonzero" fill-opacity="1"></path><path clip-path="url(#clip690)" d="M1069.7 1517.37 Q1066.09 1517.37 1064.26 1520.93 Q1062.45 1524.47 1062.45 1531.6 Q1062.45 1538.71 1064.26 1542.27 Q1066.09 1545.82 1069.7 1545.82 Q1073.33 1545.82 1075.14 1542.27 Q1076.96 1538.71 1076.96 1531.6 Q1076.96 1524.47 1075.14 1520.93 Q1073.33 1517.37 1069.7 1517.37 M1069.7 1513.66 Q1075.51 1513.66 1078.56 1518.27 Q1081.64 1522.85 1081.64 1531.6 Q1081.64 1540.33 1078.56 1544.94 Q1075.51 1549.52 1069.7 1549.52 Q1063.89 1549.52 1060.81 1544.94 Q1057.75 1540.33 1057.75 1531.6 Q1057.75 1522.85 1060.81 1518.27 Q1063.89 1513.66 1069.7 1513.66 Z" fill="#000000" fill-rule="nonzero" fill-opacity="1"></path><path clip-path="url(#clip690)" d="M1430.35 1530.21 Q1433.71 1530.93 1435.58 1533.2 Q1437.48 1535.47 1437.48 1538.8 Q1437.48 1543.92 1433.96 1546.72 Q1430.44 1549.52 1423.96 1549.52 Q1421.79 1549.52 1419.47 1549.08 Q1417.18 1548.66 1414.73 1547.81 L1414.73 1543.29 Q1416.67 1544.43 1418.98 1545.01 Q1421.3 1545.58 1423.82 1545.58 Q1428.22 1545.58 1430.51 1543.85 Q1432.83 1542.11 1432.83 1538.8 Q1432.83 1535.75 1430.67 1534.03 Q1428.54 1532.3 1424.73 1532.3 L1420.7 1532.3 L1420.7 1528.45 L1424.91 1528.45 Q1428.36 1528.45 1430.19 1527.09 Q1432.02 1525.7 1432.02 1523.11 Q1432.02 1520.45 1430.12 1519.03 Q1428.24 1517.6 1424.73 1517.6 Q1422.8 1517.6 1420.6 1518.01 Q1418.41 1518.43 1415.77 1519.31 L1415.77 1515.14 Q1418.43 1514.4 1420.74 1514.03 Q1423.08 1513.66 1425.14 1513.66 Q1430.47 1513.66 1433.57 1516.09 Q1436.67 1518.5 1436.67 1522.62 Q1436.67 1525.49 1435.03 1527.48 Q1433.38 1529.45 1430.35 1530.21 Z" fill="#000000" fill-rule="nonzero" fill-opacity="1"></path><path clip-path="url(#clip690)" d="M1456.35 1517.37 Q1452.73 1517.37 1450.91 1520.93 Q1449.1 1524.47 1449.1 1531.6 Q1449.1 1538.71 1450.91 1542.27 Q1452.73 1545.82 1456.35 1545.82 Q1459.98 1545.82 1461.79 1542.27 Q1463.61 1538.71 1463.61 1531.6 Q1463.61 1524.47 1461.79 1520.93 Q1459.98 1517.37 1456.35 1517.37 M1456.35 1513.66 Q1462.16 1513.66 1465.21 1518.27 Q1468.29 1522.85 1468.29 1531.6 Q1468.29 1540.33 1465.21 1544.94 Q1462.16 1549.52 1456.35 1549.52 Q1450.54 1549.52 1447.46 1544.94 Q1444.4 1540.33 1444.4 1531.6 Q1444.4 1522.85 1447.46 1518.27 Q1450.54 1513.66 1456.35 1513.66 Z" fill="#000000" fill-rule="nonzero" fill-opacity="1"></path><path clip-path="url(#clip690)" d="M1486.51 1517.37 Q1482.9 1517.37 1481.07 1520.93 Q1479.26 1524.47 1479.26 1531.6 Q1479.26 1538.71 1481.07 1542.27 Q1482.9 1545.82 1486.51 1545.82 Q1490.14 1545.82 1491.95 1542.27 Q1493.78 1538.71 1493.78 1531.6 Q1493.78 1524.47 1491.95 1520.93 Q1490.14 1517.37 1486.51 1517.37 M1486.51 1513.66 Q1492.32 1513.66 1495.37 1518.27 Q1498.45 1522.85 1498.45 1531.6 Q1498.45 1540.33 1495.37 1544.94 Q1492.32 1549.52 1486.51 1549.52 Q1480.7 1549.52 1477.62 1544.94 Q1474.56 1540.33 1474.56 1531.6 Q1474.56 1522.85 1477.62 1518.27 Q1480.7 1513.66 1486.51 1513.66 Z" fill="#000000" fill-rule="nonzero" fill-opacity="1"></path><path clip-path="url(#clip690)" d="M1846.56 1518.36 L1834.75 1536.81 L1846.56 1536.81 L1846.56 1518.36 M1845.33 1514.29 L1851.21 1514.29 L1851.21 1536.81 L1856.14 1536.81 L1856.14 1540.7 L1851.21 1540.7 L1851.21 1548.85 L1846.56 1548.85 L1846.56 1540.7 L1830.96 1540.7 L1830.96 1536.19 L1845.33 1514.29 Z" fill="#000000" fill-rule="nonzero" fill-opacity="1"></path><path clip-path="url(#clip690)" d="M1873.87 1517.37 Q1870.26 1517.37 1868.43 1520.93 Q1866.63 1524.47 1866.63 1531.6 Q1866.63 1538.71 1868.43 1542.27 Q1870.26 1545.82 1873.87 1545.82 Q1877.51 1545.82 1879.31 1542.27 Q1881.14 1538.71 1881.14 1531.6 Q1881.14 1524.47 1879.31 1520.93 Q1877.51 1517.37 1873.87 1517.37 M1873.87 1513.66 Q1879.68 1513.66 1882.74 1518.27 Q1885.82 1522.85 1885.82 1531.6 Q1885.82 1540.33 1882.74 1544.94 Q1879.68 1549.52 1873.87 1549.52 Q1868.06 1549.52 1864.98 1544.94 Q1861.93 1540.33 1861.93 1531.6 Q1861.93 1522.85 1864.98 1518.27 Q1868.06 1513.66 1873.87 1513.66 Z" fill="#000000" fill-rule="nonzero" fill-opacity="1"></path><path clip-path="url(#clip690)" d="M1904.04 1517.37 Q1900.42 1517.37 1898.6 1520.93 Q1896.79 1524.47 1896.79 1531.6 Q1896.79 1538.71 1898.6 1542.27 Q1900.42 1545.82 1904.04 1545.82 Q1907.67 1545.82 1909.48 1542.27 Q1911.3 1538.71 1911.3 1531.6 Q1911.3 1524.47 1909.48 1520.93 Q1907.67 1517.37 1904.04 1517.37 M1904.04 1513.66 Q1909.85 1513.66 1912.9 1518.27 Q1915.98 1522.85 1915.98 1531.6 Q1915.98 1540.33 1912.9 1544.94 Q1909.85 1549.52 1904.04 1549.52 Q1898.23 1549.52 1895.15 1544.94 Q1892.09 1540.33 1892.09 1531.6 Q1892.09 1522.85 1895.15 1518.27 Q1898.23 1513.66 1904.04 1513.66 Z" fill="#000000" fill-rule="nonzero" fill-opacity="1"></path><path clip-path="url(#clip690)" d="M2249.97 1514.29 L2268.32 1514.29 L2268.32 1518.22 L2254.25 1518.22 L2254.25 1526.7 Q2255.27 1526.35 2256.29 1526.19 Q2257.31 1526 2258.32 1526 Q2264.11 1526 2267.49 1529.17 Q2270.87 1532.34 2270.87 1537.76 Q2270.87 1543.34 2267.4 1546.44 Q2263.93 1549.52 2257.61 1549.52 Q2255.43 1549.52 2253.16 1549.15 Q2250.92 1548.78 2248.51 1548.04 L2248.51 1543.34 Q2250.59 1544.47 2252.81 1545.03 Q2255.04 1545.58 2257.51 1545.58 Q2261.52 1545.58 2263.86 1543.48 Q2266.19 1541.37 2266.19 1537.76 Q2266.19 1534.15 2263.86 1532.04 Q2261.52 1529.94 2257.51 1529.94 Q2255.64 1529.94 2253.76 1530.35 Q2251.91 1530.77 2249.97 1531.65 L2249.97 1514.29 Z" fill="#000000" fill-rule="nonzero" fill-opacity="1"></path><path clip-path="url(#clip690)" d="M2290.08 1517.37 Q2286.47 1517.37 2284.64 1520.93 Q2282.84 1524.47 2282.84 1531.6 Q2282.84 1538.71 2284.64 1542.27 Q2286.47 1545.82 2290.08 1545.82 Q2293.72 1545.82 2295.52 1542.27 Q2297.35 1538.71 2297.35 1531.6 Q2297.35 1524.47 2295.52 1520.93 Q2293.72 1517.37 2290.08 1517.37 M2290.08 1513.66 Q2295.89 1513.66 2298.95 1518.27 Q2302.03 1522.85 2302.03 1531.6 Q2302.03 1540.33 2298.95 1544.94 Q2295.89 1549.52 2290.08 1549.52 Q2284.27 1549.52 2281.19 1544.94 Q2278.14 1540.33 2278.14 1531.6 Q2278.14 1522.85 2281.19 1518.27 Q2284.27 1513.66 2290.08 1513.66 Z" fill="#000000" fill-rule="nonzero" fill-opacity="1"></path><path clip-path="url(#clip690)" d="M2320.24 1517.37 Q2316.63 1517.37 2314.8 1520.93 Q2313 1524.47 2313 1531.6 Q2313 1538.71 2314.8 1542.27 Q2316.63 1545.82 2320.24 1545.82 Q2323.88 1545.82 2325.68 1542.27 Q2327.51 1538.71 2327.51 1531.6 Q2327.51 1524.47 2325.68 1520.93 Q2323.88 1517.37 2320.24 1517.37 M2320.24 1513.66 Q2326.05 1513.66 2329.11 1518.27 Q2332.19 1522.85 2332.19 1531.6 Q2332.19 1540.33 2329.11 1544.94 Q2326.05 1549.52 2320.24 1549.52 Q2314.43 1549.52 2311.36 1544.94 Q2308.3 1540.33 2308.3 1531.6 Q2308.3 1522.85 2311.36 1518.27 Q2314.43 1513.66 2320.24 1513.66 Z" fill="#000000" fill-rule="nonzero" fill-opacity="1"></path><polyline clip-path="url(#clip690)" style="stroke:#000000; stroke-linecap:round; stroke-linejoin:round; stroke-width:4; stroke-opacity:1; fill:none" points="147.709,1486.45 147.709,47.2441 "></polyline>
<polyline clip-path="url(#clip690)" style="stroke:#000000; stroke-linecap:round; stroke-linejoin:round; stroke-width:4; stroke-opacity:1; fill:none" points="147.709,1364.24 166.607,1364.24 "></polyline>
<polyline clip-path="url(#clip690)" style="stroke:#000000; stroke-linecap:round; stroke-linejoin:round; stroke-width:4; stroke-opacity:1; fill:none" points="147.709,1139.81 166.607,1139.81 "></polyline>
<polyline clip-path="url(#clip690)" style="stroke:#000000; stroke-linecap:round; stroke-linejoin:round; stroke-width:4; stroke-opacity:1; fill:none" points="147.709,915.386 166.607,915.386 "></polyline>
<polyline clip-path="url(#clip690)" style="stroke:#000000; stroke-linecap:round; stroke-linejoin:round; stroke-width:4; stroke-opacity:1; fill:none" points="147.709,690.958 166.607,690.958 "></polyline>
<polyline clip-path="url(#clip690)" style="stroke:#000000; stroke-linecap:round; stroke-linejoin:round; stroke-width:4; stroke-opacity:1; fill:none" points="147.709,466.53 166.607,466.53 "></polyline>
<polyline clip-path="url(#clip690)" style="stroke:#000000; stroke-linecap:round; stroke-linejoin:round; stroke-width:4; stroke-opacity:1; fill:none" points="147.709,242.102 166.607,242.102 "></polyline>
<path clip-path="url(#clip690)" d="M50.9921 1364.69 L80.6679 1364.69 L80.6679 1368.63 L50.9921 1368.63 L50.9921 1364.69 Z" fill="#000000" fill-rule="nonzero" fill-opacity="1"></path><path clip-path="url(#clip690)" d="M90.8067 1346.96 L109.163 1346.96 L109.163 1350.9 L95.0891 1350.9 L95.0891 1359.37 Q96.1076 1359.02 97.1261 1358.86 Q98.1447 1358.67 99.1632 1358.67 Q104.95 1358.67 108.33 1361.85 Q111.709 1365.02 111.709 1370.43 Q111.709 1376.01 108.237 1379.11 Q104.765 1382.19 98.4456 1382.19 Q96.2697 1382.19 94.0012 1381.82 Q91.7558 1381.45 89.3484 1380.71 L89.3484 1376.01 Q91.4317 1377.15 93.6539 1377.7 Q95.8761 1378.26 98.353 1378.26 Q102.358 1378.26 104.696 1376.15 Q107.033 1374.04 107.033 1370.43 Q107.033 1366.82 104.696 1364.72 Q102.358 1362.61 98.353 1362.61 Q96.478 1362.61 94.603 1363.03 Q92.7512 1363.44 90.8067 1364.32 L90.8067 1346.96 Z" fill="#000000" fill-rule="nonzero" fill-opacity="1"></path><path clip-path="url(#clip690)" d="M99.765 1125.61 Q96.1539 1125.61 94.3252 1129.18 Q92.5197 1132.72 92.5197 1139.85 Q92.5197 1146.95 94.3252 1150.52 Q96.1539 1154.06 99.765 1154.06 Q103.399 1154.06 105.205 1150.52 Q107.033 1146.95 107.033 1139.85 Q107.033 1132.72 105.205 1129.18 Q103.399 1125.61 99.765 1125.61 M99.765 1121.91 Q105.575 1121.91 108.631 1126.52 Q111.709 1131.1 111.709 1139.85 Q111.709 1148.58 108.631 1153.18 Q105.575 1157.77 99.765 1157.77 Q93.9549 1157.77 90.8762 1153.18 Q87.8206 1148.58 87.8206 1139.85 Q87.8206 1131.1 90.8762 1126.52 Q93.9549 1121.91 99.765 1121.91 Z" fill="#000000" fill-rule="nonzero" fill-opacity="1"></path><path clip-path="url(#clip690)" d="M90.8067 898.106 L109.163 898.106 L109.163 902.041 L95.0891 902.041 L95.0891 910.513 Q96.1076 910.166 97.1261 910.004 Q98.1447 909.819 99.1632 909.819 Q104.95 909.819 108.33 912.99 Q111.709 916.161 111.709 921.578 Q111.709 927.156 108.237 930.258 Q104.765 933.337 98.4456 933.337 Q96.2697 933.337 94.0012 932.967 Q91.7558 932.596 89.3484 931.856 L89.3484 927.156 Q91.4317 928.291 93.6539 928.846 Q95.8761 929.402 98.353 929.402 Q102.358 929.402 104.696 927.295 Q107.033 925.189 107.033 921.578 Q107.033 917.967 104.696 915.86 Q102.358 913.754 98.353 913.754 Q96.478 913.754 94.603 914.17 Q92.7512 914.587 90.8067 915.467 L90.8067 898.106 Z" fill="#000000" fill-rule="nonzero" fill-opacity="1"></path><path clip-path="url(#clip690)" d="M60.4134 704.303 L68.0522 704.303 L68.0522 677.937 L59.7421 679.604 L59.7421 675.344 L68.0059 673.678 L72.6818 673.678 L72.6818 704.303 L80.3207 704.303 L80.3207 708.238 L60.4134 708.238 L60.4134 704.303 Z" fill="#000000" fill-rule="nonzero" fill-opacity="1"></path><path clip-path="url(#clip690)" d="M99.765 676.756 Q96.1539 676.756 94.3252 680.321 Q92.5197 683.863 92.5197 690.992 Q92.5197 698.099 94.3252 701.664 Q96.1539 705.205 99.765 705.205 Q103.399 705.205 105.205 701.664 Q107.033 698.099 107.033 690.992 Q107.033 683.863 105.205 680.321 Q103.399 676.756 99.765 676.756 M99.765 673.053 Q105.575 673.053 108.631 677.659 Q111.709 682.242 111.709 690.992 Q111.709 699.719 108.631 704.326 Q105.575 708.909 99.765 708.909 Q93.9549 708.909 90.8762 704.326 Q87.8206 699.719 87.8206 690.992 Q87.8206 682.242 90.8762 677.659 Q93.9549 673.053 99.765 673.053 Z" fill="#000000" fill-rule="nonzero" fill-opacity="1"></path><path clip-path="url(#clip690)" d="M61.4087 479.874 L69.0476 479.874 L69.0476 453.509 L60.7374 455.176 L60.7374 450.916 L69.0013 449.25 L73.6772 449.25 L73.6772 479.874 L81.316 479.874 L81.316 483.81 L61.4087 483.81 L61.4087 479.874 Z" fill="#000000" fill-rule="nonzero" fill-opacity="1"></path><path clip-path="url(#clip690)" d="M90.8067 449.25 L109.163 449.25 L109.163 453.185 L95.0891 453.185 L95.0891 461.657 Q96.1076 461.31 97.1261 461.148 Q98.1447 460.963 99.1632 460.963 Q104.95 460.963 108.33 464.134 Q111.709 467.305 111.709 472.722 Q111.709 478.3 108.237 481.402 Q104.765 484.481 98.4456 484.481 Q96.2697 484.481 94.0012 484.111 Q91.7558 483.74 89.3484 482.999 L89.3484 478.3 Q91.4317 479.435 93.6539 479.99 Q95.8761 480.546 98.353 480.546 Q102.358 480.546 104.696 478.439 Q107.033 476.333 107.033 472.722 Q107.033 469.111 104.696 467.004 Q102.358 464.898 98.353 464.898 Q96.478 464.898 94.603 465.314 Q92.7512 465.731 90.8067 466.611 L90.8067 449.25 Z" fill="#000000" fill-rule="nonzero" fill-opacity="1"></path><path clip-path="url(#clip690)" d="M63.6309 255.446 L79.9503 255.446 L79.9503 259.382 L58.006 259.382 L58.006 255.446 Q60.668 252.692 65.2513 248.062 Q69.8578 243.409 71.0383 242.067 Q73.2837 239.544 74.1633 237.808 Q75.0661 236.048 75.0661 234.359 Q75.0661 231.604 73.1216 229.868 Q71.2004 228.132 68.0985 228.132 Q65.8995 228.132 63.4458 228.896 Q61.0152 229.66 58.2375 231.21 L58.2375 226.488 Q61.0615 225.354 63.5152 224.775 Q65.9689 224.197 68.0059 224.197 Q73.3763 224.197 76.5707 226.882 Q79.7651 229.567 79.7651 234.058 Q79.7651 236.187 78.9549 238.109 Q78.1679 240.007 76.0614 242.599 Q75.4827 243.271 72.3809 246.488 Q69.2791 249.683 63.6309 255.446 Z" fill="#000000" fill-rule="nonzero" fill-opacity="1"></path><path clip-path="url(#clip690)" d="M99.765 227.9 Q96.1539 227.9 94.3252 231.465 Q92.5197 235.007 92.5197 242.136 Q92.5197 249.243 94.3252 252.808 Q96.1539 256.349 99.765 256.349 Q103.399 256.349 105.205 252.808 Q107.033 249.243 107.033 242.136 Q107.033 235.007 105.205 231.465 Q103.399 227.9 99.765 227.9 M99.765 224.197 Q105.575 224.197 108.631 228.803 Q111.709 233.386 111.709 242.136 Q111.709 250.863 108.631 255.47 Q105.575 260.053 99.765 260.053 Q93.9549 260.053 90.8762 255.47 Q87.8206 250.863 87.8206 242.136 Q87.8206 233.386 90.8762 228.803 Q93.9549 224.197 99.765 224.197 Z" fill="#000000" fill-rule="nonzero" fill-opacity="1"></path><polyline clip-path="url(#clip692)" style="stroke:#009af9; stroke-linecap:round; stroke-linejoin:round; stroke-width:4; stroke-opacity:1; fill:none" points="210.116,1135.33 214.285,1066.2 218.454,1100.8 222.623,1112.28 226.792,1100.5 230.96,1066.89 235.129,1069.6 239.298,1042.69 243.467,1055.89 247.636,1061.66 251.804,1089.67 255.973,1027.18 260.142,1057.53 264.311,1152.37 268.48,1159.96 272.648,1145.76 276.817,1160.33 280.986,1119.25 285.155,1083.18 289.324,1014.36 293.492,1031.26 297.661,1106.87 301.83,1076.47 305.999,1126.65 310.168,1074.54 314.336,1031.9 318.505,1067.67 322.674,1023.81 326.843,1036.67 331.012,1023.42 335.18,1033.76 339.349,1058.74 343.518,999.535 347.687,994.88 351.856,956.339 356.024,989.92 360.193,927.447 364.362,895.084 368.531,930.975 372.7,966.943 376.868,980.601 381.037,1019.32 385.206,1009.87 389.375,1035.96 393.544,1099.33 397.712,1061.49 401.881,1036.8 406.05,1027.03 410.219,1034.24 414.388,1025.44 418.557,1033.07 422.725,988.911 426.894,1002.17 431.063,908.689 435.232,920.64 439.401,900.951 443.569,878.031 447.738,869.902 451.907,916.647 456.076,926.631 460.245,939.314 464.413,987.392 468.582,1007.4 472.751,984.255 476.92,939.96 481.089,958.866 485.257,912.379 489.426,905.994 493.595,862.984 497.764,922.204 501.933,935.478 506.101,945.508 510.27,992.134 514.439,952.332 518.608,927.872 522.777,856.913 526.945,874.251 531.114,868.707 535.283,836.834 539.452,780.22 543.621,852.9 547.789,797.143 551.958,750.998 556.127,729.382 560.296,809.894 564.465,846.949 568.633,893.526 572.802,951.139 576.971,889.898 581.14,852.083 585.309,862.526 589.477,878.313 593.646,915.714 597.815,993.866 601.984,1073.14 606.153,1027 610.321,1037.89 614.49,1126.92 618.659,1067.52 622.828,1088.31 626.997,1089.54 631.165,1074.15 635.334,1044.92 639.503,1095.73 643.672,1123.93 647.841,1143.46 652.009,1069.95 656.178,1059.35 660.347,1075.58 664.516,1038.39 668.685,999.347 672.853,994.794 677.022,1034.7 681.191,1060.5 685.36,1062.9 689.529,1105.75 693.697,1173.85 697.866,1286.33 702.035,1377.2 706.204,1358.13 710.373,1445.72 714.541,1429.95 718.71,1378.5 722.879,1319.15 727.048,1253.17 731.217,1231.99 735.386,1232.71 739.554,1249.17 743.723,1287.67 747.892,1308.33 752.061,1264.45 756.23,1294.63 760.398,1323.95 764.567,1402.15 768.736,1348.96 772.905,1352.28 777.074,1332 781.242,1330.78 785.411,1308.31 789.58,1282.3 793.749,1212.73 797.918,1284.6 802.086,1268.13 806.255,1210.09 810.424,1182.23 814.593,1210.51 818.762,1247.16 822.93,1202.34 827.099,1187.66 831.268,1221.91 835.437,1215.53 839.606,1208 843.774,1181.72 847.943,1161.97 852.112,1120.21 856.281,1035.87 860.45,1026.78 864.618,998.418 868.787,1011.87 872.956,1025.71 877.125,944.188 881.294,872.327 885.462,872.061 889.631,832.462 893.8,857.818 897.969,788.726 902.138,832.028 906.306,807.833 910.475,866.483 914.644,821.822 918.813,835.615 922.982,898.892 927.15,859.622 931.319,895.174 935.488,871.257 939.657,915.474 943.826,916.373 947.994,869.836 952.163,837.668 956.332,823.98 960.501,795.615 964.67,858.786 968.838,811.003 973.007,851.613 977.176,835.145 981.345,833.586 985.514,857.007 989.682,803.94 993.851,826.502 998.02,803.146 1002.19,765.697 1006.36,735.709 1010.53,690.79 1014.7,787.068 1018.86,840.182 1023.03,824.769 1027.2,834.177 1031.37,779.878 1035.54,741.398 1039.71,766.52 1043.88,751.578 1048.05,779.566 1052.21,869.597 1056.38,837.681 1060.55,889.004 1064.72,904.47 1068.89,881.814 1073.06,861.986 1077.23,885.372 1081.4,938.521 1085.56,907.892 1089.73,852.625 1093.9,777.824 1098.07,791.549 1102.24,764.073 1106.41,709.438 1110.58,643.307 1114.75,592.598 1118.92,590.375 1123.08,565.129 1127.25,524.554 1131.42,546.731 1135.59,515.2 1139.76,588.093 1143.93,607.622 1148.1,598.242 1152.27,517.93 1156.43,499.086 1160.6,518.337 1164.77,514.142 1168.94,454.388 1173.11,491.374 1177.28,472.306 1181.45,472.382 1185.62,462.101 1189.79,432.91 1193.95,460.177 1198.12,489.294 1202.29,516.315 1206.46,583.107 1210.63,552.609 1214.8,611.479 1218.97,624.623 1223.14,607.21 1227.3,637.64 1231.47,625.083 1235.64,548.366 1239.81,560.699 1243.98,561.404 1248.15,550.265 1252.32,520.643 1256.49,505.999 1260.65,490.045 1264.82,430.767 1268.99,379.846 1273.16,378.646 1277.33,292.504 1281.5,325.089 1285.67,248.94 1289.84,219.32 1294.01,202.183 1298.17,184.991 1302.34,203.091 1306.51,165.11 1310.68,119.965 1314.85,142.272 1319.02,174.842 1323.19,189.846 1327.36,122.184 1331.52,107.938 1335.69,151.246 1339.86,87.9763 1344.03,131.623 1348.2,125.771 1352.37,172.612 1356.54,240.957 1360.71,297.764 1364.87,279.419 1369.04,324.795 1373.21,364.954 1377.38,428.026 1381.55,419.683 1385.72,417.064 1389.89,444.563 1394.06,443.456 1398.23,504.48 1402.39,544.026 1406.56,587.484 1410.73,617.722 1414.9,656.408 1419.07,616.415 1423.24,621.613 1427.41,590.816 1431.58,563.569 1435.74,553.962 1439.91,528.588 1444.08,546.164 1448.25,549.493 1452.42,590.237 1456.59,568.904 1460.76,614.967 1464.93,574.557 1469.09,573.208 1473.26,517.931 1477.43,513.964 1481.6,536.31 1485.77,565.84 1489.94,593.664 1494.11,607.147 1498.28,559.792 1502.45,595.724 1506.61,525.955 1510.78,460.751 1514.95,468.636 1519.12,518.301 1523.29,536.596 1527.46,564.111 1531.63,639.941 1535.8,636.709 1539.96,636.08 1544.13,585.505 1548.3,575.988 1552.47,627.747 1556.64,621.047 1560.81,567.652 1564.98,476.494 1569.15,446.557 1573.31,474.278 1577.48,576.843 1581.65,567.727 1585.82,536.283 1589.99,415.129 1594.16,393.223 1598.33,354.805 1602.5,373.855 1606.67,364.384 1610.83,339.614 1615,305.605 1619.17,292.534 1623.34,370.582 1627.51,355.378 1631.68,391.608 1635.85,500.273 1640.02,498.22 1644.18,444.967 1648.35,448.784 1652.52,493.613 1656.69,522.237 1660.86,561.584 1665.03,495.81 1669.2,477.505 1673.37,550.026 1677.53,569.919 1681.7,556.194 1685.87,552.586 1690.04,568.044 1694.21,649.108 1698.38,733.858 1702.55,771.475 1706.72,700.074 1710.89,745.092 1715.05,720.245 1719.22,833.052 1723.39,894.557 1727.56,977.607 1731.73,1045.77 1735.9,1014.23 1740.07,978.513 1744.24,1006.35 1748.4,937.109 1752.57,932.106 1756.74,919.849 1760.91,891.536 1765.08,811.746 1769.25,798.009 1773.42,840.243 1777.59,788.354 1781.75,829.095 1785.92,801.266 1790.09,851.2 1794.26,839.539 1798.43,861.698 1802.6,866.642 1806.77,836.16 1810.94,823.382 1815.11,828.326 1819.27,847.164 1823.44,872.168 1827.61,923.264 1831.78,896.271 1835.95,899.25 1840.12,900.141 1844.29,864.61 1848.46,823.816 1852.62,795.159 1856.79,744.532 1860.96,757.802 1865.13,821.325 1869.3,816.594 1873.47,813.252 1877.64,774.045 1881.81,781.649 1885.98,732.855 1890.14,719.794 1894.31,742.672 1898.48,790.267 1902.65,681.197 1906.82,644.816 1910.99,575.776 1915.16,574.365 1919.33,560.037 1923.49,525.608 1927.66,445.01 1931.83,483.571 1936,451.473 1940.17,454.159 1944.34,441.917 1948.51,402.102 1952.68,410.308 1956.84,397.1 1961.01,356.232 1965.18,380.555 1969.35,410.989 1973.52,343.286 1977.69,222.211 1981.86,179.206 1986.03,189.144 1990.2,185.17 1994.36,188.063 1998.53,162.629 2002.7,214.025 2006.87,224.036 2011.04,277.562 2015.21,341.339 2019.38,487.042 2023.55,400.611 2027.71,358.758 2031.88,325.551 2036.05,347.036 2040.22,317.06 2044.39,295.365 2048.56,221.392 2052.73,256.579 2056.9,342.654 2061.06,461.54 2065.23,438.307 2069.4,413.483 2073.57,368.917 2077.74,350.914 2081.91,286.9 2086.08,340.837 2090.25,340.533 2094.42,365.803 2098.58,441.733 2102.75,452.925 2106.92,422.344 2111.09,422.118 2115.26,414.305 2119.43,349.222 2123.6,345.387 2127.77,380.777 2131.93,435.441 2136.1,378.987 2140.27,421.717 2144.44,395.321 2148.61,445.167 2152.78,387.135 2156.95,252.05 2161.12,313.738 2165.28,351.677 2169.45,350.411 2173.62,389.408 2177.79,498.61 2181.96,433.652 2186.13,453.819 2190.3,445.239 2194.47,493.54 2198.64,513.871 2202.8,468.597 2206.97,546.997 2211.14,633.867 2215.31,672.434 2219.48,615.75 2223.65,588.566 2227.82,612.233 2231.99,575.99 2236.15,584.611 2240.32,624.259 2244.49,626.853 2248.66,671.575 2252.83,628.596 2257,632.208 2261.17,534.362 2265.34,578.064 2269.5,645.988 2273.67,690.887 2277.84,562.088 2282.01,472.937 2286.18,442.855 2290.35,474.301 "></polyline>
<path clip-path="url(#clip690)" d="M221.211 198.898 L494.146 198.898 L494.146 95.2176 L221.211 95.2176  Z" fill="#ffffff" fill-rule="evenodd" fill-opacity="1"></path>
<polyline clip-path="url(#clip690)" style="stroke:#000000; stroke-linecap:round; stroke-linejoin:round; stroke-width:4; stroke-opacity:1; fill:none" points="221.211,198.898 494.146,198.898 494.146,95.2176 221.211,95.2176 221.211,198.898 "></polyline>
<polyline clip-path="url(#clip690)" style="stroke:#009af9; stroke-linecap:round; stroke-linejoin:round; stroke-width:4; stroke-opacity:1; fill:none" points="245.711,147.058 392.715,147.058 "></polyline>
<path clip-path="url(#clip690)" d="M431.058 166.745 Q429.252 171.375 427.539 172.787 Q425.826 174.199 422.956 174.199 L419.553 174.199 L419.553 170.634 L422.053 170.634 Q423.812 170.634 424.784 169.8 Q425.757 168.967 426.937 165.865 L427.701 163.921 L417.215 138.412 L421.729 138.412 L429.831 158.689 L437.933 138.412 L442.446 138.412 L431.058 166.745 Z" fill="#000000" fill-rule="nonzero" fill-opacity="1"></path><path clip-path="url(#clip690)" d="M449.738 160.402 L457.377 160.402 L457.377 134.037 L449.067 135.703 L449.067 131.444 L457.331 129.778 L462.007 129.778 L462.007 160.402 L469.645 160.402 L469.645 164.338 L449.738 164.338 L449.738 160.402 Z" fill="#000000" fill-rule="nonzero" fill-opacity="1"></path></svg>