<svg xmlns="http://www.w3.org/2000/svg" xmlns:xlink="http://www.w3.org/1999/xlink" width="600" height="400" viewBox="0 0 2400 1600">
<defs>
  <clipPath id="clip890">
    <rect x="0" y="0" width="2400" height="1600"></rect>
  </clipPath>
</defs>
<path clip-path="url(#clip890)" d="M0 1600 L2400 1600 L2400 8.88178e-14 L0 8.88178e-14  Z" fill="#ffffff" fill-rule="evenodd" fill-opacity="1"></path>
<defs>
  <clipPath id="clip891">
    <rect x="480" y="0" width="1681" height="1600"></rect>
  </clipPath>
</defs>
<path clip-path="url(#clip890)" d="M300.264 1486.45 L2352.76 1486.45 L2352.76 47.2441 L300.264 47.2441  Z" fill="#ffffff" fill-rule="evenodd" fill-opacity="1"></path>
<defs>
  <clipPath id="clip892">
    <rect x="300" y="47" width="2053" height="1440"></rect>
  </clipPath>
</defs>
<polyline clip-path="url(#clip892)" style="stroke:#000000; stroke-linecap:round; stroke-linejoin:round; stroke-width:2; stroke-opacity:0.1; fill:none" points="354.457,1486.45 354.457,47.2441 "></polyline>
<polyline clip-path="url(#clip892)" style="stroke:#000000; stroke-linecap:round; stroke-linejoin:round; stroke-width:2; stroke-opacity:0.1; fill:none" points="744.057,1486.45 744.057,47.2441 "></polyline>
<polyline clip-path="url(#clip892)" style="stroke:#000000; stroke-linecap:round; stroke-linejoin:round; stroke-width:2; stroke-opacity:0.1; fill:none" points="1133.66,1486.45 1133.66,47.2441 "></polyline>
<polyline clip-path="url(#clip892)" style="stroke:#000000; stroke-linecap:round; stroke-linejoin:round; stroke-width:2; stroke-opacity:0.1; fill:none" points="1523.26,1486.45 1523.26,47.2441 "></polyline>
<polyline clip-path="url(#clip892)" style="stroke:#000000; stroke-linecap:round; stroke-linejoin:round; stroke-width:2; stroke-opacity:0.1; fill:none" points="1912.86,1486.45 1912.86,47.2441 "></polyline>
<polyline clip-path="url(#clip892)" style="stroke:#000000; stroke-linecap:round; stroke-linejoin:round; stroke-width:2; stroke-opacity:0.1; fill:none" points="2302.46,1486.45 2302.46,47.2441 "></polyline>
<polyline clip-path="url(#clip892)" style="stroke:#000000; stroke-linecap:round; stroke-linejoin:round; stroke-width:2; stroke-opacity:0.1; fill:none" points="300.264,1445.72 2352.76,1445.72 "></polyline>
<polyline clip-path="url(#clip892)" style="stroke:#000000; stroke-linecap:round; stroke-linejoin:round; stroke-width:2; stroke-opacity:0.1; fill:none" points="300.264,1245.53 2352.76,1245.53 "></polyline>
<polyline clip-path="url(#clip892)" style="stroke:#000000; stroke-linecap:round; stroke-linejoin:round; stroke-width:2; stroke-opacity:0.1; fill:none" points="300.264,1045.35 2352.76,1045.35 "></polyline>
<polyline clip-path="url(#clip892)" style="stroke:#000000; stroke-linecap:round; stroke-linejoin:round; stroke-width:2; stroke-opacity:0.1; fill:none" points="300.264,845.173 2352.76,845.173 "></polyline>
<polyline clip-path="url(#clip892)" style="stroke:#000000; stroke-linecap:round; stroke-linejoin:round; stroke-width:2; stroke-opacity:0.1; fill:none" points="300.264,644.992 2352.76,644.992 "></polyline>
<polyline clip-path="url(#clip892)" style="stroke:#000000; stroke-linecap:round; stroke-linejoin:round; stroke-width:2; stroke-opacity:0.1; fill:none" points="300.264,444.812 2352.76,444.812 "></polyline>
<polyline clip-path="url(#clip892)" style="stroke:#000000; stroke-linecap:round; stroke-linejoin:round; stroke-width:2; stroke-opacity:0.1; fill:none" points="300.264,244.631 2352.76,244.631 "></polyline>
<polyline clip-path="url(#clip890)" style="stroke:#000000; stroke-linecap:round; stroke-linejoin:round; stroke-width:4; stroke-opacity:1; fill:none" points="300.264,1486.45 2352.76,1486.45 "></polyline>
<polyline clip-path="url(#clip890)" style="stroke:#000000; stroke-linecap:round; stroke-linejoin:round; stroke-width:4; stroke-opacity:1; fill:none" points="354.457,1486.45 354.457,1467.55 "></polyline>
<polyline clip-path="url(#clip890)" style="stroke:#000000; stroke-linecap:round; stroke-linejoin:round; stroke-width:4; stroke-opacity:1; fill:none" points="744.057,1486.45 744.057,1467.55 "></polyline>
<polyline clip-path="url(#clip890)" style="stroke:#000000; stroke-linecap:round; stroke-linejoin:round; stroke-width:4; stroke-opacity:1; fill:none" points="1133.66,1486.45 1133.66,1467.55 "></polyline>
<polyline clip-path="url(#clip890)" style="stroke:#000000; stroke-linecap:round; stroke-linejoin:round; stroke-width:4; stroke-opacity:1; fill:none" points="1523.26,1486.45 1523.26,1467.55 "></polyline>
<polyline clip-path="url(#clip890)" style="stroke:#000000; stroke-linecap:round; stroke-linejoin:round; stroke-width:4; stroke-opacity:1; fill:none" points="1912.86,1486.45 1912.86,1467.55 "></polyline>
<polyline clip-path="url(#clip890)" style="stroke:#000000; stroke-linecap:round; stroke-linejoin:round; stroke-width:4; stroke-opacity:1; fill:none" points="2302.46,1486.45 2302.46,1467.55 "></polyline>
<path clip-path="url(#clip890)" d="M354.457 1517.37 Q350.846 1517.37 349.017 1520.93 Q347.212 1524.47 347.212 1531.6 Q347.212 1538.71 349.017 1542.27 Q350.846 1545.82 354.457 1545.82 Q358.091 1545.82 359.897 1542.27 Q361.725 1538.71 361.725 1531.6 Q361.725 1524.47 359.897 1520.93 Q358.091 1517.37 354.457 1517.37 M354.457 1513.66 Q360.267 1513.66 363.323 1518.27 Q366.401 1522.85 366.401 1531.6 Q366.401 1540.33 363.323 1544.94 Q360.267 1549.52 354.457 1549.52 Q348.647 1549.52 345.568 1544.94 Q342.513 1540.33 342.513 1531.6 Q342.513 1522.85 345.568 1518.27 Q348.647 1513.66 354.457 1513.66 Z" fill="#000000" fill-rule="nonzero" fill-opacity="1"></path><path clip-path="url(#clip890)" d="M703.664 1544.91 L711.303 1544.91 L711.303 1518.55 L702.993 1520.21 L702.993 1515.95 L711.257 1514.29 L715.932 1514.29 L715.932 1544.91 L723.571 1544.91 L723.571 1548.85 L703.664 1548.85 L703.664 1544.91 Z" fill="#000000" fill-rule="nonzero" fill-opacity="1"></path><path clip-path="url(#clip890)" d="M743.016 1517.37 Q739.405 1517.37 737.576 1520.93 Q735.77 1524.47 735.77 1531.6 Q735.77 1538.71 737.576 1542.27 Q739.405 1545.82 743.016 1545.82 Q746.65 1545.82 748.455 1542.27 Q750.284 1538.71 750.284 1531.6 Q750.284 1524.47 748.455 1520.93 Q746.65 1517.37 743.016 1517.37 M743.016 1513.66 Q748.826 1513.66 751.881 1518.27 Q754.96 1522.85 754.96 1531.6 Q754.96 1540.33 751.881 1544.94 Q748.826 1549.52 743.016 1549.52 Q737.205 1549.52 734.127 1544.94 Q731.071 1540.33 731.071 1531.6 Q731.071 1522.85 734.127 1518.27 Q737.205 1513.66 743.016 1513.66 Z" fill="#000000" fill-rule="nonzero" fill-opacity="1"></path><path clip-path="url(#clip890)" d="M773.177 1517.37 Q769.566 1517.37 767.738 1520.93 Q765.932 1524.47 765.932 1531.6 Q765.932 1538.71 767.738 1542.27 Q769.566 1545.82 773.177 1545.82 Q776.812 1545.82 778.617 1542.27 Q780.446 1538.71 780.446 1531.6 Q780.446 1524.47 778.617 1520.93 Q776.812 1517.37 773.177 1517.37 M773.177 1513.66 Q778.988 1513.66 782.043 1518.27 Q785.122 1522.85 785.122 1531.6 Q785.122 1540.33 782.043 1544.94 Q778.988 1549.52 773.177 1549.52 Q767.367 1549.52 764.289 1544.94 Q761.233 1540.33 761.233 1531.6 Q761.233 1522.85 764.289 1518.27 Q767.367 1513.66 773.177 1513.66 Z" fill="#000000" fill-rule="nonzero" fill-opacity="1"></path><path clip-path="url(#clip890)" d="M1097.35 1544.91 L1113.67 1544.91 L1113.67 1548.85 L1091.72 1548.85 L1091.72 1544.91 Q1094.39 1542.16 1098.97 1537.53 Q1103.58 1532.88 1104.76 1531.53 Q1107 1529.01 1107.88 1527.27 Q1108.79 1525.51 1108.79 1523.82 Q1108.79 1521.07 1106.84 1519.33 Q1104.92 1517.6 1101.82 1517.6 Q1099.62 1517.6 1097.16 1518.36 Q1094.73 1519.13 1091.96 1520.68 L1091.96 1515.95 Q1094.78 1514.82 1097.23 1514.24 Q1099.69 1513.66 1101.72 1513.66 Q1107.1 1513.66 1110.29 1516.35 Q1113.48 1519.03 1113.48 1523.52 Q1113.48 1525.65 1112.67 1527.57 Q1111.89 1529.47 1109.78 1532.07 Q1109.2 1532.74 1106.1 1535.95 Q1103 1539.15 1097.35 1544.91 Z" fill="#000000" fill-rule="nonzero" fill-opacity="1"></path><path clip-path="url(#clip890)" d="M1133.48 1517.37 Q1129.87 1517.37 1128.04 1520.93 Q1126.24 1524.47 1126.24 1531.6 Q1126.24 1538.71 1128.04 1542.27 Q1129.87 1545.82 1133.48 1545.82 Q1137.12 1545.82 1138.92 1542.27 Q1140.75 1538.71 1140.75 1531.6 Q1140.75 1524.47 1138.92 1520.93 Q1137.12 1517.37 1133.48 1517.37 M1133.48 1513.66 Q1139.29 1513.66 1142.35 1518.27 Q1145.43 1522.85 1145.43 1531.6 Q1145.43 1540.33 1142.35 1544.94 Q1139.29 1549.52 1133.48 1549.52 Q1127.67 1549.52 1124.6 1544.94 Q1121.54 1540.33 1121.54 1531.6 Q1121.54 1522.85 1124.6 1518.27 Q1127.67 1513.66 1133.48 1513.66 Z" fill="#000000" fill-rule="nonzero" fill-opacity="1"></path><path clip-path="url(#clip890)" d="M1163.65 1517.37 Q1160.03 1517.37 1158.21 1520.93 Q1156.4 1524.47 1156.4 1531.6 Q1156.4 1538.71 1158.21 1542.27 Q1160.03 1545.82 1163.65 1545.82 Q1167.28 1545.82 1169.09 1542.27 Q1170.91 1538.71 1170.91 1531.6 Q1170.91 1524.47 1169.09 1520.93 Q1167.28 1517.37 1163.65 1517.37 M1163.65 1513.66 Q1169.46 1513.66 1172.51 1518.27 Q1175.59 1522.85 1175.59 1531.6 Q1175.59 1540.33 1172.51 1544.94 Q1169.46 1549.52 1163.65 1549.52 Q1157.84 1549.52 1154.76 1544.94 Q1151.7 1540.33 1151.7 1531.6 Q1151.7 1522.85 1154.76 1518.27 Q1157.84 1513.66 1163.65 1513.66 Z" fill="#000000" fill-rule="nonzero" fill-opacity="1"></path><path clip-path="url(#clip890)" d="M1497.02 1530.21 Q1500.38 1530.93 1502.25 1533.2 Q1504.15 1535.47 1504.15 1538.8 Q1504.15 1543.92 1500.63 1546.72 Q1497.11 1549.52 1490.63 1549.52 Q1488.45 1549.52 1486.14 1549.08 Q1483.85 1548.66 1481.39 1547.81 L1481.39 1543.29 Q1483.34 1544.43 1485.65 1545.01 Q1487.97 1545.58 1490.49 1545.58 Q1494.89 1545.58 1497.18 1543.85 Q1499.5 1542.11 1499.5 1538.8 Q1499.5 1535.75 1497.34 1534.03 Q1495.21 1532.3 1491.39 1532.3 L1487.37 1532.3 L1487.37 1528.45 L1491.58 1528.45 Q1495.03 1528.45 1496.86 1527.09 Q1498.69 1525.7 1498.69 1523.11 Q1498.69 1520.45 1496.79 1519.03 Q1494.91 1517.6 1491.39 1517.6 Q1489.47 1517.6 1487.27 1518.01 Q1485.08 1518.43 1482.44 1519.31 L1482.44 1515.14 Q1485.1 1514.4 1487.41 1514.03 Q1489.75 1513.66 1491.81 1513.66 Q1497.14 1513.66 1500.24 1516.09 Q1503.34 1518.5 1503.34 1522.62 Q1503.34 1525.49 1501.7 1527.48 Q1500.05 1529.45 1497.02 1530.21 Z" fill="#000000" fill-rule="nonzero" fill-opacity="1"></path><path clip-path="url(#clip890)" d="M1523.01 1517.37 Q1519.4 1517.37 1517.58 1520.93 Q1515.77 1524.47 1515.77 1531.6 Q1515.77 1538.71 1517.58 1542.27 Q1519.4 1545.82 1523.01 1545.82 Q1526.65 1545.82 1528.45 1542.27 Q1530.28 1538.71 1530.28 1531.6 Q1530.28 1524.47 1528.45 1520.93 Q1526.65 1517.37 1523.01 1517.37 M1523.01 1513.66 Q1528.82 1513.66 1531.88 1518.27 Q1534.96 1522.85 1534.96 1531.6 Q1534.96 1540.33 1531.88 1544.94 Q1528.82 1549.52 1523.01 1549.52 Q1517.2 1549.52 1514.13 1544.94 Q1511.07 1540.33 1511.07 1531.6 Q1511.07 1522.85 1514.13 1518.27 Q1517.2 1513.66 1523.01 1513.66 Z" fill="#000000" fill-rule="nonzero" fill-opacity="1"></path><path clip-path="url(#clip890)" d="M1553.18 1517.37 Q1549.57 1517.37 1547.74 1520.93 Q1545.93 1524.47 1545.93 1531.6 Q1545.93 1538.71 1547.74 1542.27 Q1549.57 1545.82 1553.18 1545.82 Q1556.81 1545.82 1558.62 1542.27 Q1560.45 1538.71 1560.45 1531.6 Q1560.45 1524.47 1558.62 1520.93 Q1556.81 1517.37 1553.18 1517.37 M1553.18 1513.66 Q1558.99 1513.66 1562.04 1518.27 Q1565.12 1522.85 1565.12 1531.6 Q1565.12 1540.33 1562.04 1544.94 Q1558.99 1549.52 1553.18 1549.52 Q1547.37 1549.52 1544.29 1544.94 Q1541.23 1540.33 1541.23 1531.6 Q1541.23 1522.85 1544.29 1518.27 Q1547.37 1513.66 1553.18 1513.66 Z" fill="#000000" fill-rule="nonzero" fill-opacity="1"></path><path clip-path="url(#clip890)" d="M1885.95 1518.36 L1874.14 1536.81 L1885.95 1536.81 L1885.95 1518.36 M1884.72 1514.29 L1890.6 1514.29 L1890.6 1536.81 L1895.53 1536.81 L1895.53 1540.7 L1890.6 1540.7 L1890.6 1548.85 L1885.95 1548.85 L1885.95 1540.7 L1870.35 1540.7 L1870.35 1536.19 L1884.72 1514.29 Z" fill="#000000" fill-rule="nonzero" fill-opacity="1"></path><path clip-path="url(#clip890)" d="M1913.26 1517.37 Q1909.65 1517.37 1907.82 1520.93 Q1906.02 1524.47 1906.02 1531.6 Q1906.02 1538.71 1907.82 1542.27 Q1909.65 1545.82 1913.26 1545.82 Q1916.9 1545.82 1918.7 1542.27 Q1920.53 1538.71 1920.53 1531.6 Q1920.53 1524.47 1918.7 1520.93 Q1916.9 1517.37 1913.26 1517.37 M1913.26 1513.66 Q1919.07 1513.66 1922.13 1518.27 Q1925.21 1522.85 1925.21 1531.6 Q1925.21 1540.33 1922.13 1544.94 Q1919.07 1549.52 1913.26 1549.52 Q1907.45 1549.52 1904.37 1544.94 Q1901.32 1540.33 1901.32 1531.6 Q1901.32 1522.85 1904.37 1518.27 Q1907.45 1513.66 1913.26 1513.66 Z" fill="#000000" fill-rule="nonzero" fill-opacity="1"></path><path clip-path="url(#clip890)" d="M1943.43 1517.37 Q1939.81 1517.37 1937.99 1520.93 Q1936.18 1524.47 1936.18 1531.6 Q1936.18 1538.71 1937.99 1542.27 Q1939.81 1545.82 1943.43 1545.82 Q1947.06 1545.82 1948.86 1542.27 Q1950.69 1538.71 1950.69 1531.6 Q1950.69 1524.47 1948.86 1520.93 Q1947.06 1517.37 1943.43 1517.37 M1943.43 1513.66 Q1949.24 1513.66 1952.29 1518.27 Q1955.37 1522.85 1955.37 1531.6 Q1955.37 1540.33 1952.29 1544.94 Q1949.24 1549.52 1943.43 1549.52 Q1937.62 1549.52 1934.54 1544.94 Q1931.48 1540.33 1931.48 1531.6 Q1931.48 1522.85 1934.54 1518.27 Q1937.62 1513.66 1943.43 1513.66 Z" fill="#000000" fill-rule="nonzero" fill-opacity="1"></path><path clip-path="url(#clip890)" d="M2262.08 1514.29 L2280.43 1514.29 L2280.43 1518.22 L2266.36 1518.22 L2266.36 1526.7 Q2267.38 1526.35 2268.4 1526.19 Q2269.41 1526 2270.43 1526 Q2276.22 1526 2279.6 1529.17 Q2282.98 1532.34 2282.98 1537.76 Q2282.98 1543.34 2279.51 1546.44 Q2276.04 1549.52 2269.72 1549.52 Q2267.54 1549.52 2265.27 1549.15 Q2263.03 1548.78 2260.62 1548.04 L2260.62 1543.34 Q2262.7 1544.47 2264.92 1545.03 Q2267.15 1545.58 2269.62 1545.58 Q2273.63 1545.58 2275.97 1543.48 Q2278.3 1541.37 2278.3 1537.76 Q2278.3 1534.15 2275.97 1532.04 Q2273.63 1529.94 2269.62 1529.94 Q2267.75 1529.94 2265.87 1530.35 Q2264.02 1530.77 2262.08 1531.65 L2262.08 1514.29 Z" fill="#000000" fill-rule="nonzero" fill-opacity="1"></path><path clip-path="url(#clip890)" d="M2302.19 1517.37 Q2298.58 1517.37 2296.75 1520.93 Q2294.95 1524.47 2294.95 1531.6 Q2294.95 1538.71 2296.75 1542.27 Q2298.58 1545.82 2302.19 1545.82 Q2305.83 1545.82 2307.63 1542.27 Q2309.46 1538.71 2309.46 1531.6 Q2309.46 1524.47 2307.63 1520.93 Q2305.83 1517.37 2302.19 1517.37 M2302.19 1513.66 Q2308 1513.66 2311.06 1518.27 Q2314.14 1522.85 2314.14 1531.6 Q2314.14 1540.33 2311.06 1544.94 Q2308 1549.52 2302.19 1549.52 Q2296.38 1549.52 2293.3 1544.94 Q2290.25 1540.33 2290.25 1531.6 Q2290.25 1522.85 2293.3 1518.27 Q2296.38 1513.66 2302.19 1513.66 Z" fill="#000000" fill-rule="nonzero" fill-opacity="1"></path><path clip-path="url(#clip890)" d="M2332.35 1517.37 Q2328.74 1517.37 2326.91 1520.93 Q2325.11 1524.47 2325.11 1531.6 Q2325.11 1538.71 2326.91 1542.27 Q2328.74 1545.82 2332.35 1545.82 Q2335.99 1545.82 2337.79 1542.27 Q2339.62 1538.71 2339.62 1531.6 Q2339.62 1524.47 2337.79 1520.93 Q2335.99 1517.37 2332.35 1517.37 M2332.35 1513.66 Q2338.16 1513.66 2341.22 1518.27 Q2344.3 1522.85 2344.3 1531.6 Q2344.3 1540.33 2341.22 1544.94 Q2338.16 1549.52 2332.35 1549.52 Q2326.54 1549.52 2323.47 1544.94 Q2320.41 1540.33 2320.41 1531.6 Q2320.41 1522.85 2323.47 1518.27 Q2326.54 1513.66 2332.35 1513.66 Z" fill="#000000" fill-rule="nonzero" fill-opacity="1"></path><polyline clip-path="url(#clip890)" style="stroke:#000000; stroke-linecap:round; stroke-linejoin:round; stroke-width:4; stroke-opacity:1; fill:none" points="300.264,1486.45 300.264,47.2441 "></polyline>
<polyline clip-path="url(#clip890)" style="stroke:#000000; stroke-linecap:round; stroke-linejoin:round; stroke-width:4; stroke-opacity:1; fill:none" points="300.264,1445.72 319.161,1445.72 "></polyline>
<polyline clip-path="url(#clip890)" style="stroke:#000000; stroke-linecap:round; stroke-linejoin:round; stroke-width:4; stroke-opacity:1; fill:none" points="300.264,1245.53 319.161,1245.53 "></polyline>
<polyline clip-path="url(#clip890)" style="stroke:#000000; stroke-linecap:round; stroke-linejoin:round; stroke-width:4; stroke-opacity:1; fill:none" points="300.264,1045.35 319.161,1045.35 "></polyline>
<polyline clip-path="url(#clip890)" style="stroke:#000000; stroke-linecap:round; stroke-linejoin:round; stroke-width:4; stroke-opacity:1; fill:none" points="300.264,845.173 319.161,845.173 "></polyline>
<polyline clip-path="url(#clip890)" style="stroke:#000000; stroke-linecap:round; stroke-linejoin:round; stroke-width:4; stroke-opacity:1; fill:none" points="300.264,644.992 319.161,644.992 "></polyline>
<polyline clip-path="url(#clip890)" style="stroke:#000000; stroke-linecap:round; stroke-linejoin:round; stroke-width:4; stroke-opacity:1; fill:none" points="300.264,444.812 319.161,444.812 "></polyline>
<polyline clip-path="url(#clip890)" style="stroke:#000000; stroke-linecap:round; stroke-linejoin:round; stroke-width:4; stroke-opacity:1; fill:none" points="300.264,244.631 319.161,244.631 "></polyline>
<path clip-path="url(#clip890)" d="M252.319 1431.51 Q248.708 1431.51 246.879 1435.08 Q245.074 1438.62 245.074 1445.75 Q245.074 1452.86 246.879 1456.42 Q248.708 1459.96 252.319 1459.96 Q255.953 1459.96 257.759 1456.42 Q259.588 1452.86 259.588 1445.75 Q259.588 1438.62 257.759 1435.08 Q255.953 1431.51 252.319 1431.51 M252.319 1427.81 Q258.129 1427.81 261.185 1432.42 Q264.264 1437 264.264 1445.75 Q264.264 1454.48 261.185 1459.08 Q258.129 1463.67 252.319 1463.67 Q246.509 1463.67 243.43 1459.08 Q240.375 1454.48 240.375 1445.75 Q240.375 1437 243.43 1432.42 Q246.509 1427.81 252.319 1427.81 Z" fill="#000000" fill-rule="nonzero" fill-opacity="1"></path><path clip-path="url(#clip890)" d="M54.5569 1265.33 L62.1958 1265.33 L62.1958 1238.96 L53.8856 1240.63 L53.8856 1236.37 L62.1495 1234.7 L66.8254 1234.7 L66.8254 1265.33 L74.4642 1265.33 L74.4642 1269.26 L54.5569 1269.26 L54.5569 1265.33 Z" fill="#000000" fill-rule="nonzero" fill-opacity="1"></path><path clip-path="url(#clip890)" d="M83.9086 1263.38 L88.7928 1263.38 L88.7928 1269.26 L83.9086 1269.26 L83.9086 1263.38 Z" fill="#000000" fill-rule="nonzero" fill-opacity="1"></path><path clip-path="url(#clip890)" d="M108.978 1237.78 Q105.367 1237.78 103.538 1241.35 Q101.733 1244.89 101.733 1252.02 Q101.733 1259.12 103.538 1262.69 Q105.367 1266.23 108.978 1266.23 Q112.612 1266.23 114.418 1262.69 Q116.246 1259.12 116.246 1252.02 Q116.246 1244.89 114.418 1241.35 Q112.612 1237.78 108.978 1237.78 M108.978 1234.08 Q114.788 1234.08 117.844 1238.68 Q120.922 1243.27 120.922 1252.02 Q120.922 1260.74 117.844 1265.35 Q114.788 1269.93 108.978 1269.93 Q103.168 1269.93 100.089 1265.35 Q97.0335 1260.74 97.0335 1252.02 Q97.0335 1243.27 100.089 1238.68 Q103.168 1234.08 108.978 1234.08 Z" fill="#000000" fill-rule="nonzero" fill-opacity="1"></path><path clip-path="url(#clip890)" d="M157.311 1243.8 L146.732 1254.42 L157.311 1265 L154.556 1267.8 L143.931 1257.18 L133.306 1267.8 L130.575 1265 L141.131 1254.42 L130.575 1243.8 L133.306 1241 L143.931 1251.62 L154.556 1241 L157.311 1243.8 Z" fill="#000000" fill-rule="nonzero" fill-opacity="1"></path><path clip-path="url(#clip890)" d="M169.672 1265.33 L177.311 1265.33 L177.311 1238.96 L169.001 1240.63 L169.001 1236.37 L177.265 1234.7 L181.94 1234.7 L181.94 1265.33 L189.579 1265.33 L189.579 1269.26 L169.672 1269.26 L169.672 1265.33 Z" fill="#000000" fill-rule="nonzero" fill-opacity="1"></path><path clip-path="url(#clip890)" d="M209.024 1237.78 Q205.413 1237.78 203.584 1241.35 Q201.778 1244.89 201.778 1252.02 Q201.778 1259.12 203.584 1262.69 Q205.413 1266.23 209.024 1266.23 Q212.658 1266.23 214.463 1262.69 Q216.292 1259.12 216.292 1252.02 Q216.292 1244.89 214.463 1241.35 Q212.658 1237.78 209.024 1237.78 M209.024 1234.08 Q214.834 1234.08 217.889 1238.68 Q220.968 1243.27 220.968 1252.02 Q220.968 1260.74 217.889 1265.35 Q214.834 1269.93 209.024 1269.93 Q203.214 1269.93 200.135 1265.35 Q197.079 1260.74 197.079 1252.02 Q197.079 1243.27 200.135 1238.68 Q203.214 1234.08 209.024 1234.08 Z" fill="#000000" fill-rule="nonzero" fill-opacity="1"></path><path clip-path="url(#clip890)" d="M222.774 1241.27 L222.774 1237.81 Q224.203 1238.49 225.67 1238.84 Q227.137 1239.2 228.548 1239.2 Q232.309 1239.2 234.284 1236.68 Q236.278 1234.14 236.56 1228.99 Q235.469 1230.61 233.795 1231.47 Q232.121 1232.34 230.09 1232.34 Q225.877 1232.34 223.413 1229.8 Q220.968 1227.24 220.968 1222.82 Q220.968 1218.49 223.526 1215.88 Q226.084 1213.26 230.334 1213.26 Q235.206 1213.26 237.763 1217.01 Q240.34 1220.73 240.34 1227.84 Q240.34 1234.48 237.18 1238.45 Q234.039 1242.4 228.717 1242.4 Q227.287 1242.4 225.82 1242.12 Q224.353 1241.83 222.774 1241.27 M230.334 1229.36 Q232.892 1229.36 234.378 1227.61 Q235.883 1225.87 235.883 1222.82 Q235.883 1219.79 234.378 1218.04 Q232.892 1216.27 230.334 1216.27 Q227.776 1216.27 226.272 1218.04 Q224.786 1219.79 224.786 1222.82 Q224.786 1225.87 226.272 1227.61 Q227.776 1229.36 230.334 1229.36 Z" fill="#000000" fill-rule="nonzero" fill-opacity="1"></path><path clip-path="url(#clip890)" d="M246.208 1213.77 L264.264 1213.77 L264.264 1215.39 L254.07 1241.85 L250.101 1241.85 L259.693 1216.97 L246.208 1216.97 L246.208 1213.77 Z" fill="#000000" fill-rule="nonzero" fill-opacity="1"></path><path clip-path="url(#clip890)" d="M57.7745 1065.15 L74.0939 1065.15 L74.0939 1069.08 L52.1495 1069.08 L52.1495 1065.15 Q54.8115 1062.39 59.3949 1057.76 Q64.0013 1053.11 65.1819 1051.77 Q67.4272 1049.24 68.3068 1047.51 Q69.2096 1045.75 69.2096 1044.06 Q69.2096 1041.3 67.2652 1039.57 Q65.3439 1037.83 62.2421 1037.83 Q60.043 1037.83 57.5893 1038.6 Q55.1588 1039.36 52.381 1040.91 L52.381 1036.19 Q55.2051 1035.05 57.6588 1034.48 Q60.1124 1033.9 62.1495 1033.9 Q67.5198 1033.9 70.7142 1036.58 Q73.9087 1039.27 73.9087 1043.76 Q73.9087 1045.89 73.0985 1047.81 Q72.3115 1049.71 70.205 1052.3 Q69.6263 1052.97 66.5245 1056.19 Q63.4226 1059.38 57.7745 1065.15 Z" fill="#000000" fill-rule="nonzero" fill-opacity="1"></path><path clip-path="url(#clip890)" d="M83.9086 1063.2 L88.7928 1063.2 L88.7928 1069.08 L83.9086 1069.08 L83.9086 1063.2 Z" fill="#000000" fill-rule="nonzero" fill-opacity="1"></path><path clip-path="url(#clip890)" d="M108.978 1037.6 Q105.367 1037.6 103.538 1041.17 Q101.733 1044.71 101.733 1051.84 Q101.733 1058.94 103.538 1062.51 Q105.367 1066.05 108.978 1066.05 Q112.612 1066.05 114.418 1062.51 Q116.246 1058.94 116.246 1051.84 Q116.246 1044.71 114.418 1041.17 Q112.612 1037.6 108.978 1037.6 M108.978 1033.9 Q114.788 1033.9 117.844 1038.5 Q120.922 1043.09 120.922 1051.84 Q120.922 1060.56 117.844 1065.17 Q114.788 1069.75 108.978 1069.75 Q103.168 1069.75 100.089 1065.17 Q97.0335 1060.56 97.0335 1051.84 Q97.0335 1043.09 100.089 1038.5 Q103.168 1033.9 108.978 1033.9 Z" fill="#000000" fill-rule="nonzero" fill-opacity="1"></path><path clip-path="url(#clip890)" d="M157.311 1043.62 L146.732 1054.24 L157.311 1064.82 L154.556 1067.62 L143.931 1057 L133.306 1067.62 L130.575 1064.82 L141.131 1054.24 L130.575 1043.62 L133.306 1040.82 L143.931 1051.44 L154.556 1040.82 L157.311 1043.62 Z" fill="#000000" fill-rule="nonzero" fill-opacity="1"></path><path clip-path="url(#clip890)" d="M169.672 1065.15 L177.311 1065.15 L177.311 1038.78 L169.001 1040.45 L169.001 1036.19 L177.265 1034.52 L181.94 1034.52 L181.94 1065.15 L189.579 1065.15 L189.579 1069.08 L169.672 1069.08 L169.672 1065.15 Z" fill="#000000" fill-rule="nonzero" fill-opacity="1"></path><path clip-path="url(#clip890)" d="M209.024 1037.6 Q205.413 1037.6 203.584 1041.17 Q201.778 1044.71 201.778 1051.84 Q201.778 1058.94 203.584 1062.51 Q205.413 1066.05 209.024 1066.05 Q212.658 1066.05 214.463 1062.51 Q216.292 1058.94 216.292 1051.84 Q216.292 1044.71 214.463 1041.17 Q212.658 1037.6 209.024 1037.6 M209.024 1033.9 Q214.834 1033.9 217.889 1038.5 Q220.968 1043.09 220.968 1051.84 Q220.968 1060.56 217.889 1065.17 Q214.834 1069.75 209.024 1069.75 Q203.214 1069.75 200.135 1065.17 Q197.079 1060.56 197.079 1051.84 Q197.079 1043.09 200.135 1038.5 Q203.214 1033.9 209.024 1033.9 Z" fill="#000000" fill-rule="nonzero" fill-opacity="1"></path><path clip-path="url(#clip890)" d="M222.774 1041.09 L222.774 1037.63 Q224.203 1038.3 225.67 1038.66 Q227.137 1039.02 228.548 1039.02 Q232.309 1039.02 234.284 1036.5 Q236.278 1033.96 236.56 1028.81 Q235.469 1030.42 233.795 1031.29 Q232.121 1032.15 230.09 1032.15 Q225.877 1032.15 223.413 1029.62 Q220.968 1027.06 220.968 1022.64 Q220.968 1018.31 223.526 1015.7 Q226.084 1013.08 230.334 1013.08 Q235.206 1013.08 237.763 1016.83 Q240.34 1020.55 240.34 1027.66 Q240.34 1034.3 237.18 1038.27 Q234.039 1042.22 228.717 1042.22 Q227.287 1042.22 225.82 1041.93 Q224.353 1041.65 222.774 1041.09 M230.334 1029.18 Q232.892 1029.18 234.378 1027.43 Q235.883 1025.68 235.883 1022.64 Q235.883 1019.61 234.378 1017.86 Q232.892 1016.09 230.334 1016.09 Q227.776 1016.09 226.272 1017.86 Q224.786 1019.61 224.786 1022.64 Q224.786 1025.68 226.272 1027.43 Q227.776 1029.18 230.334 1029.18 Z" fill="#000000" fill-rule="nonzero" fill-opacity="1"></path><path clip-path="url(#clip890)" d="M246.208 1013.59 L264.264 1013.59 L264.264 1015.21 L254.07 1041.67 L250.101 1041.67 L259.693 1016.79 L246.208 1016.79 L246.208 1013.59 Z" fill="#000000" fill-rule="nonzero" fill-opacity="1"></path><path clip-path="url(#clip890)" d="M67.9133 850.267 Q71.2698 850.984 73.1448 853.253 Q75.0429 855.521 75.0429 858.855 Q75.0429 863.97 71.5244 866.771 Q68.0059 869.572 61.5245 869.572 Q59.3486 869.572 57.0338 869.132 Q54.7421 868.716 52.2884 867.859 L52.2884 863.345 Q54.2328 864.48 56.5477 865.058 Q58.8625 865.637 61.3856 865.637 Q65.7837 865.637 68.0754 863.901 Q70.3902 862.165 70.3902 858.855 Q70.3902 855.799 68.2374 854.086 Q66.1078 852.35 62.2884 852.35 L58.2606 852.35 L58.2606 848.507 L62.4735 848.507 Q65.9226 848.507 67.7513 847.142 Q69.58 845.753 69.58 843.16 Q69.58 840.498 67.6819 839.086 Q65.8069 837.651 62.2884 837.651 Q60.3671 837.651 58.168 838.068 Q55.969 838.484 53.3301 839.364 L53.3301 835.197 Q55.9921 834.457 58.3069 834.086 Q60.6449 833.716 62.705 833.716 Q68.0291 833.716 71.1309 836.146 Q74.2327 838.554 74.2327 842.674 Q74.2327 845.545 72.5892 847.535 Q70.9457 849.503 67.9133 850.267 Z" fill="#000000" fill-rule="nonzero" fill-opacity="1"></path><path clip-path="url(#clip890)" d="M83.9086 863.021 L88.7928 863.021 L88.7928 868.901 L83.9086 868.901 L83.9086 863.021 Z" fill="#000000" fill-rule="nonzero" fill-opacity="1"></path><path clip-path="url(#clip890)" d="M108.978 837.42 Q105.367 837.42 103.538 840.984 Q101.733 844.526 101.733 851.656 Q101.733 858.762 103.538 862.327 Q105.367 865.868 108.978 865.868 Q112.612 865.868 114.418 862.327 Q116.246 858.762 116.246 851.656 Q116.246 844.526 114.418 840.984 Q112.612 837.42 108.978 837.42 M108.978 833.716 Q114.788 833.716 117.844 838.322 Q120.922 842.906 120.922 851.656 Q120.922 860.382 117.844 864.989 Q114.788 869.572 108.978 869.572 Q103.168 869.572 100.089 864.989 Q97.0335 860.382 97.0335 851.656 Q97.0335 842.906 100.089 838.322 Q103.168 833.716 108.978 833.716 Z" fill="#000000" fill-rule="nonzero" fill-opacity="1"></path><path clip-path="url(#clip890)" d="M157.311 843.438 L146.732 854.063 L157.311 864.642 L154.556 867.443 L143.931 856.818 L133.306 867.443 L130.575 864.642 L141.131 854.063 L130.575 843.438 L133.306 840.637 L143.931 851.262 L154.556 840.637 L157.311 843.438 Z" fill="#000000" fill-rule="nonzero" fill-opacity="1"></path><path clip-path="url(#clip890)" d="M169.672 864.966 L177.311 864.966 L177.311 838.6 L169.001 840.267 L169.001 836.008 L177.265 834.341 L181.94 834.341 L181.94 864.966 L189.579 864.966 L189.579 868.901 L169.672 868.901 L169.672 864.966 Z" fill="#000000" fill-rule="nonzero" fill-opacity="1"></path><path clip-path="url(#clip890)" d="M209.024 837.42 Q205.413 837.42 203.584 840.984 Q201.778 844.526 201.778 851.656 Q201.778 858.762 203.584 862.327 Q205.413 865.868 209.024 865.868 Q212.658 865.868 214.463 862.327 Q216.292 858.762 216.292 851.656 Q216.292 844.526 214.463 840.984 Q212.658 837.42 209.024 837.42 M209.024 833.716 Q214.834 833.716 217.889 838.322 Q220.968 842.906 220.968 851.656 Q220.968 860.382 217.889 864.989 Q214.834 869.572 209.024 869.572 Q203.214 869.572 200.135 864.989 Q197.079 860.382 197.079 851.656 Q197.079 842.906 200.135 838.322 Q203.214 833.716 209.024 833.716 Z" fill="#000000" fill-rule="nonzero" fill-opacity="1"></path><path clip-path="url(#clip890)" d="M222.774 840.907 L222.774 837.447 Q224.203 838.124 225.67 838.481 Q227.137 838.839 228.548 838.839 Q232.309 838.839 234.284 836.318 Q236.278 833.779 236.56 828.626 Q235.469 830.243 233.795 831.109 Q232.121 831.974 230.09 831.974 Q225.877 831.974 223.413 829.435 Q220.968 826.877 220.968 822.457 Q220.968 818.131 223.526 815.517 Q226.084 812.903 230.334 812.903 Q235.206 812.903 237.763 816.645 Q240.34 820.369 240.34 827.479 Q240.34 834.118 237.18 838.086 Q234.039 842.036 228.717 842.036 Q227.287 842.036 225.82 841.754 Q224.353 841.472 222.774 840.907 M230.334 829.002 Q232.892 829.002 234.378 827.253 Q235.883 825.504 235.883 822.457 Q235.883 819.429 234.378 817.68 Q232.892 815.912 230.334 815.912 Q227.776 815.912 226.272 817.68 Q224.786 819.429 224.786 822.457 Q224.786 825.504 226.272 827.253 Q227.776 829.002 230.334 829.002 Z" fill="#000000" fill-rule="nonzero" fill-opacity="1"></path><path clip-path="url(#clip890)" d="M246.208 813.41 L264.264 813.41 L264.264 815.028 L254.07 841.49 L250.101 841.49 L259.693 816.608 L246.208 816.608 L246.208 813.41 Z" fill="#000000" fill-rule="nonzero" fill-opacity="1"></path><path clip-path="url(#clip890)" d="M66.5939 638.234 L54.7884 656.683 L66.5939 656.683 L66.5939 638.234 M65.367 634.16 L71.2466 634.16 L71.2466 656.683 L76.1772 656.683 L76.1772 660.572 L71.2466 660.572 L71.2466 668.72 L66.5939 668.72 L66.5939 660.572 L50.9921 660.572 L50.9921 656.058 L65.367 634.16 Z" fill="#000000" fill-rule="nonzero" fill-opacity="1"></path><path clip-path="url(#clip890)" d="M83.9086 662.84 L88.7928 662.84 L88.7928 668.72 L83.9086 668.72 L83.9086 662.84 Z" fill="#000000" fill-rule="nonzero" fill-opacity="1"></path><path clip-path="url(#clip890)" d="M108.978 637.239 Q105.367 637.239 103.538 640.804 Q101.733 644.345 101.733 651.475 Q101.733 658.581 103.538 662.146 Q105.367 665.688 108.978 665.688 Q112.612 665.688 114.418 662.146 Q116.246 658.581 116.246 651.475 Q116.246 644.345 114.418 640.804 Q112.612 637.239 108.978 637.239 M108.978 633.535 Q114.788 633.535 117.844 638.142 Q120.922 642.725 120.922 651.475 Q120.922 660.202 117.844 664.808 Q114.788 669.391 108.978 669.391 Q103.168 669.391 100.089 664.808 Q97.0335 660.202 97.0335 651.475 Q97.0335 642.725 100.089 638.142 Q103.168 633.535 108.978 633.535 Z" fill="#000000" fill-rule="nonzero" fill-opacity="1"></path><path clip-path="url(#clip890)" d="M157.311 643.257 L146.732 653.882 L157.311 664.461 L154.556 667.262 L143.931 656.637 L133.306 667.262 L130.575 664.461 L141.131 653.882 L130.575 643.257 L133.306 640.456 L143.931 651.081 L154.556 640.456 L157.311 643.257 Z" fill="#000000" fill-rule="nonzero" fill-opacity="1"></path><path clip-path="url(#clip890)" d="M169.672 664.785 L177.311 664.785 L177.311 638.419 L169.001 640.086 L169.001 635.827 L177.265 634.16 L181.94 634.16 L181.94 664.785 L189.579 664.785 L189.579 668.72 L169.672 668.72 L169.672 664.785 Z" fill="#000000" fill-rule="nonzero" fill-opacity="1"></path><path clip-path="url(#clip890)" d="M209.024 637.239 Q205.413 637.239 203.584 640.804 Q201.778 644.345 201.778 651.475 Q201.778 658.581 203.584 662.146 Q205.413 665.688 209.024 665.688 Q212.658 665.688 214.463 662.146 Q216.292 658.581 216.292 651.475 Q216.292 644.345 214.463 640.804 Q212.658 637.239 209.024 637.239 M209.024 633.535 Q214.834 633.535 217.889 638.142 Q220.968 642.725 220.968 651.475 Q220.968 660.202 217.889 664.808 Q214.834 669.391 209.024 669.391 Q203.214 669.391 200.135 664.808 Q197.079 660.202 197.079 651.475 Q197.079 642.725 200.135 638.142 Q203.214 633.535 209.024 633.535 Z" fill="#000000" fill-rule="nonzero" fill-opacity="1"></path><path clip-path="url(#clip890)" d="M222.774 640.727 L222.774 637.266 Q224.203 637.943 225.67 638.3 Q227.137 638.658 228.548 638.658 Q232.309 638.658 234.284 636.138 Q236.278 633.598 236.56 628.445 Q235.469 630.063 233.795 630.928 Q232.121 631.793 230.09 631.793 Q225.877 631.793 223.413 629.254 Q220.968 626.696 220.968 622.276 Q220.968 617.95 223.526 615.336 Q226.084 612.722 230.334 612.722 Q235.206 612.722 237.763 616.465 Q240.34 620.189 240.34 627.298 Q240.34 633.937 237.18 637.905 Q234.039 641.855 228.717 641.855 Q227.287 641.855 225.82 641.573 Q224.353 641.291 222.774 640.727 M230.334 628.821 Q232.892 628.821 234.378 627.072 Q235.883 625.323 235.883 622.276 Q235.883 619.248 234.378 617.499 Q232.892 615.731 230.334 615.731 Q227.776 615.731 226.272 617.499 Q224.786 619.248 224.786 622.276 Q224.786 625.323 226.272 627.072 Q227.776 628.821 230.334 628.821 Z" fill="#000000" fill-rule="nonzero" fill-opacity="1"></path><path clip-path="url(#clip890)" d="M246.208 613.23 L264.264 613.23 L264.264 614.847 L254.07 641.31 L250.101 641.31 L259.693 616.427 L246.208 616.427 L246.208 613.23 Z" fill="#000000" fill-rule="nonzero" fill-opacity="1"></path><path clip-path="url(#clip890)" d="M53.793 433.979 L72.1494 433.979 L72.1494 437.914 L58.0754 437.914 L58.0754 446.387 Q59.0939 446.039 60.1124 445.877 Q61.131 445.692 62.1495 445.692 Q67.9365 445.692 71.3161 448.863 Q74.6957 452.035 74.6957 457.451 Q74.6957 463.03 71.2235 466.132 Q67.7513 469.211 61.4319 469.211 Q59.256 469.211 56.9875 468.84 Q54.7421 468.47 52.3347 467.729 L52.3347 463.03 Q54.418 464.164 56.6402 464.72 Q58.8625 465.275 61.3393 465.275 Q65.3439 465.275 67.6819 463.169 Q70.0198 461.062 70.0198 457.451 Q70.0198 453.84 67.6819 451.734 Q65.3439 449.627 61.3393 449.627 Q59.4643 449.627 57.5893 450.044 Q55.7375 450.461 53.793 451.34 L53.793 433.979 Z" fill="#000000" fill-rule="nonzero" fill-opacity="1"></path><path clip-path="url(#clip890)" d="M83.9086 462.66 L88.7928 462.66 L88.7928 468.539 L83.9086 468.539 L83.9086 462.66 Z" fill="#000000" fill-rule="nonzero" fill-opacity="1"></path><path clip-path="url(#clip890)" d="M108.978 437.058 Q105.367 437.058 103.538 440.623 Q101.733 444.164 101.733 451.294 Q101.733 458.4 103.538 461.965 Q105.367 465.507 108.978 465.507 Q112.612 465.507 114.418 461.965 Q116.246 458.4 116.246 451.294 Q116.246 444.164 114.418 440.623 Q112.612 437.058 108.978 437.058 M108.978 433.354 Q114.788 433.354 117.844 437.961 Q120.922 442.544 120.922 451.294 Q120.922 460.021 117.844 464.627 Q114.788 469.211 108.978 469.211 Q103.168 469.211 100.089 464.627 Q97.0335 460.021 97.0335 451.294 Q97.0335 442.544 100.089 437.961 Q103.168 433.354 108.978 433.354 Z" fill="#000000" fill-rule="nonzero" fill-opacity="1"></path><path clip-path="url(#clip890)" d="M157.311 443.076 L146.732 453.701 L157.311 464.28 L154.556 467.081 L143.931 456.456 L133.306 467.081 L130.575 464.28 L141.131 453.701 L130.575 443.076 L133.306 440.276 L143.931 450.9 L154.556 440.276 L157.311 443.076 Z" fill="#000000" fill-rule="nonzero" fill-opacity="1"></path><path clip-path="url(#clip890)" d="M169.672 464.604 L177.311 464.604 L177.311 438.238 L169.001 439.905 L169.001 435.646 L177.265 433.979 L181.94 433.979 L181.94 464.604 L189.579 464.604 L189.579 468.539 L169.672 468.539 L169.672 464.604 Z" fill="#000000" fill-rule="nonzero" fill-opacity="1"></path><path clip-path="url(#clip890)" d="M209.024 437.058 Q205.413 437.058 203.584 440.623 Q201.778 444.164 201.778 451.294 Q201.778 458.4 203.584 461.965 Q205.413 465.507 209.024 465.507 Q212.658 465.507 214.463 461.965 Q216.292 458.4 216.292 451.294 Q216.292 444.164 214.463 440.623 Q212.658 437.058 209.024 437.058 M209.024 433.354 Q214.834 433.354 217.889 437.961 Q220.968 442.544 220.968 451.294 Q220.968 460.021 217.889 464.627 Q214.834 469.211 209.024 469.211 Q203.214 469.211 200.135 464.627 Q197.079 460.021 197.079 451.294 Q197.079 442.544 200.135 437.961 Q203.214 433.354 209.024 433.354 Z" fill="#000000" fill-rule="nonzero" fill-opacity="1"></path><path clip-path="url(#clip890)" d="M222.774 440.546 L222.774 437.085 Q224.203 437.762 225.67 438.12 Q227.137 438.477 228.548 438.477 Q232.309 438.477 234.284 435.957 Q236.278 433.418 236.56 428.264 Q235.469 429.882 233.795 430.747 Q232.121 431.612 230.09 431.612 Q225.877 431.612 223.413 429.073 Q220.968 426.515 220.968 422.095 Q220.968 417.77 223.526 415.155 Q226.084 412.541 230.334 412.541 Q235.206 412.541 237.763 416.284 Q240.34 420.008 240.34 427.117 Q240.34 433.756 237.18 437.725 Q234.039 441.674 228.717 441.674 Q227.287 441.674 225.82 441.392 Q224.353 441.11 222.774 440.546 M230.334 428.64 Q232.892 428.64 234.378 426.891 Q235.883 425.142 235.883 422.095 Q235.883 419.067 234.378 417.318 Q232.892 415.55 230.334 415.55 Q227.776 415.55 226.272 417.318 Q224.786 419.067 224.786 422.095 Q224.786 425.142 226.272 426.891 Q227.776 428.64 230.334 428.64 Z" fill="#000000" fill-rule="nonzero" fill-opacity="1"></path><path clip-path="url(#clip890)" d="M246.208 413.049 L264.264 413.049 L264.264 414.666 L254.07 441.129 L250.101 441.129 L259.693 416.246 L246.208 416.246 L246.208 413.049 Z" fill="#000000" fill-rule="nonzero" fill-opacity="1"></path><path clip-path="url(#clip890)" d="M64.3254 249.215 Q61.1773 249.215 59.3254 251.368 Q57.4967 253.521 57.4967 257.271 Q57.4967 260.997 59.3254 263.173 Q61.1773 265.326 64.3254 265.326 Q67.4735 265.326 69.3022 263.173 Q71.1541 260.997 71.1541 257.271 Q71.1541 253.521 69.3022 251.368 Q67.4735 249.215 64.3254 249.215 M73.6077 234.562 L73.6077 238.822 Q71.8485 237.988 70.0429 237.548 Q68.2606 237.109 66.5013 237.109 Q61.8717 237.109 59.418 240.234 Q56.9875 243.359 56.6402 249.678 Q58.006 247.664 60.0662 246.599 Q62.1263 245.511 64.6032 245.511 Q69.8115 245.511 72.8207 248.683 Q75.8531 251.831 75.8531 257.271 Q75.8531 262.595 72.705 265.812 Q69.5568 269.03 64.3254 269.03 Q58.33 269.03 55.1588 264.446 Q51.9875 259.84 51.9875 251.113 Q51.9875 242.919 55.8764 238.058 Q59.7652 233.173 66.3161 233.173 Q68.0754 233.173 69.8578 233.521 Q71.6633 233.868 73.6077 234.562 Z" fill="#000000" fill-rule="nonzero" fill-opacity="1"></path><path clip-path="url(#clip890)" d="M83.9086 262.479 L88.7928 262.479 L88.7928 268.358 L83.9086 268.358 L83.9086 262.479 Z" fill="#000000" fill-rule="nonzero" fill-opacity="1"></path><path clip-path="url(#clip890)" d="M108.978 236.877 Q105.367 236.877 103.538 240.442 Q101.733 243.984 101.733 251.113 Q101.733 258.22 103.538 261.784 Q105.367 265.326 108.978 265.326 Q112.612 265.326 114.418 261.784 Q116.246 258.22 116.246 251.113 Q116.246 243.984 114.418 240.442 Q112.612 236.877 108.978 236.877 M108.978 233.173 Q114.788 233.173 117.844 237.78 Q120.922 242.363 120.922 251.113 Q120.922 259.84 117.844 264.446 Q114.788 269.03 108.978 269.03 Q103.168 269.03 100.089 264.446 Q97.0335 259.84 97.0335 251.113 Q97.0335 242.363 100.089 237.78 Q103.168 233.173 108.978 233.173 Z" fill="#000000" fill-rule="nonzero" fill-opacity="1"></path><path clip-path="url(#clip890)" d="M157.311 242.896 L146.732 253.521 L157.311 264.099 L154.556 266.9 L143.931 256.275 L133.306 266.9 L130.575 264.099 L141.131 253.521 L130.575 242.896 L133.306 240.095 L143.931 250.72 L154.556 240.095 L157.311 242.896 Z" fill="#000000" fill-rule="nonzero" fill-opacity="1"></path><path clip-path="url(#clip890)" d="M169.672 264.423 L177.311 264.423 L177.311 238.058 L169.001 239.724 L169.001 235.465 L177.265 233.798 L181.94 233.798 L181.94 264.423 L189.579 264.423 L189.579 268.358 L169.672 268.358 L169.672 264.423 Z" fill="#000000" fill-rule="nonzero" fill-opacity="1"></path><path clip-path="url(#clip890)" d="M209.024 236.877 Q205.413 236.877 203.584 240.442 Q201.778 243.984 201.778 251.113 Q201.778 258.22 203.584 261.784 Q205.413 265.326 209.024 265.326 Q212.658 265.326 214.463 261.784 Q216.292 258.22 216.292 251.113 Q216.292 243.984 214.463 240.442 Q212.658 236.877 209.024 236.877 M209.024 233.173 Q214.834 233.173 217.889 237.78 Q220.968 242.363 220.968 251.113 Q220.968 259.84 217.889 264.446 Q214.834 269.03 209.024 269.03 Q203.214 269.03 200.135 264.446 Q197.079 259.84 197.079 251.113 Q197.079 242.363 200.135 237.78 Q203.214 233.173 209.024 233.173 Z" fill="#000000" fill-rule="nonzero" fill-opacity="1"></path><path clip-path="url(#clip890)" d="M222.774 240.365 L222.774 236.904 Q224.203 237.581 225.67 237.939 Q227.137 238.296 228.548 238.296 Q232.309 238.296 234.284 235.776 Q236.278 233.237 236.56 228.084 Q235.469 229.701 233.795 230.566 Q232.121 231.431 230.09 231.431 Q225.877 231.431 223.413 228.892 Q220.968 226.334 220.968 221.915 Q220.968 217.589 223.526 214.975 Q226.084 212.36 230.334 212.36 Q235.206 212.36 237.763 216.103 Q240.34 219.827 240.34 226.936 Q240.34 233.575 237.18 237.544 Q234.039 241.493 228.717 241.493 Q227.287 241.493 225.82 241.211 Q224.353 240.929 222.774 240.365 M230.334 228.46 Q232.892 228.46 234.378 226.711 Q235.883 224.961 235.883 221.915 Q235.883 218.887 234.378 217.137 Q232.892 215.369 230.334 215.369 Q227.776 215.369 226.272 217.137 Q224.786 218.887 224.786 221.915 Q224.786 224.961 226.272 226.711 Q227.776 228.46 230.334 228.46 Z" fill="#000000" fill-rule="nonzero" fill-opacity="1"></path><path clip-path="url(#clip890)" d="M246.208 212.868 L264.264 212.868 L264.264 214.486 L254.07 240.948 L250.101 240.948 L259.693 216.065 L246.208 216.065 L246.208 212.868 Z" fill="#000000" fill-rule="nonzero" fill-opacity="1"></path><polyline clip-path="url(#clip892)" style="stroke:#009af9; stroke-linecap:round; stroke-linejoin:round; stroke-width:4; stroke-opacity:1; fill:none" points="358.353,1445.72 362.249,1445.72 366.145,1445.72 370.041,1445.72 373.937,1445.72 377.833,1445.72 381.729,1445.72 385.625,1445.72 389.521,1445.72 393.417,1445.72 397.313,1445.72 401.209,1445.72 405.105,1445.72 409.001,1445.72 412.897,1445.72 416.793,1445.72 420.689,1445.72 424.585,1445.72 428.481,1445.72 432.377,1445.72 436.273,1445.72 440.169,1445.72 444.065,1445.72 447.961,1445.72 451.857,1445.72 455.753,1445.72 459.649,1445.72 463.545,1445.72 467.441,1445.72 471.337,1445.72 475.233,1445.72 479.129,1445.72 483.025,1445.72 486.921,1445.72 490.817,1445.72 494.713,1445.72 498.609,1445.72 502.505,1445.72 506.401,1445.72 510.297,1445.72 514.193,1445.72 518.089,1445.72 521.985,1445.72 525.881,1445.72 529.777,1445.72 533.673,1445.72 537.569,1445.72 541.465,1445.72 545.361,1445.72 549.257,1445.72 553.153,1445.72 557.049,1445.72 560.945,1445.72 564.841,1445.72 568.737,1445.72 572.633,1445.72 576.529,1445.72 580.425,1445.72 584.321,1445.72 588.217,1445.72 592.113,1445.72 596.009,1445.72 599.905,1445.72 603.801,1445.72 607.697,1445.72 611.593,1445.72 615.489,1445.72 619.385,1445.72 623.281,1445.72 627.177,1445.72 631.073,1445.72 634.969,1445.72 638.865,1445.72 642.761,1445.72 646.657,1445.72 650.553,1445.72 654.449,1445.72 658.345,1445.72 662.241,1445.72 666.137,1445.72 670.033,1445.72 673.929,1445.72 677.825,1445.72 681.721,1445.72 685.617,1445.72 689.513,1445.72 693.409,1445.72 697.305,1445.72 701.201,1445.72 705.097,1445.72 708.993,1445.72 712.889,1445.72 716.785,1445.72 720.681,1445.72 724.577,1445.72 728.473,1445.72 732.369,1445.72 736.265,1445.72 740.161,1445.72 744.057,1445.72 747.953,1445.72 751.849,1445.72 755.745,1445.72 759.641,1445.72 763.537,1445.72 767.433,1445.72 771.329,1445.72 775.225,1445.72 779.121,1445.72 783.017,1445.72 786.913,1445.72 790.809,1445.72 794.705,1445.72 798.601,1445.72 802.497,1445.72 806.393,1445.72 810.289,1445.72 814.185,1445.72 818.081,1445.72 821.977,1445.72 825.873,1445.72 829.769,1445.72 833.665,1445.72 837.561,1445.72 841.457,1445.72 845.353,1445.72 849.249,1445.72 853.145,1445.72 857.041,1445.72 860.937,1445.72 864.833,1445.72 868.729,1445.72 872.625,1445.72 876.521,1445.72 880.417,1445.72 884.313,1445.72 888.209,1445.72 892.105,1445.72 896.001,1445.72 899.897,1445.72 903.793,1445.72 907.689,1445.72 911.585,1445.72 915.481,1445.72 919.377,1445.72 923.273,1445.72 927.169,1445.72 931.065,1445.72 934.961,1445.72 938.857,1445.72 942.753,1445.72 946.649,1445.72 950.545,1445.72 954.441,1445.72 958.337,1445.72 962.233,1445.72 966.129,1445.72 970.025,1445.72 973.921,1445.72 977.817,1445.72 981.713,1445.72 985.609,1445.72 989.505,1445.72 993.401,1445.72 997.297,1445.72 1001.19,1445.72 1005.09,1445.72 1008.99,1445.72 1012.88,1445.72 1016.78,1445.72 1020.67,1445.72 1024.57,1445.72 1028.47,1445.72 1032.36,1445.72 1036.26,1445.72 1040.15,1445.72 1044.05,1445.72 1047.95,1445.72 1051.84,1445.72 1055.74,1445.72 1059.63,1445.72 1063.53,1445.72 1067.43,1445.72 1071.32,1445.72 1075.22,1445.72 1079.11,1445.72 1083.01,1445.72 1086.91,1445.72 1090.8,1445.72 1094.7,1445.72 1098.59,1445.72 1102.49,1445.72 1106.39,1445.72 1110.28,1445.72 1114.18,1445.72 1118.07,1445.72 1121.97,1445.72 1125.87,1445.72 1129.76,1445.72 1133.66,1445.72 1137.55,1445.72 1141.45,1445.72 1145.35,1445.72 1149.24,1445.72 1153.14,1445.72 1157.03,1445.72 1160.93,1445.72 1164.83,1445.72 1168.72,1445.72 1172.62,1445.72 1176.51,1445.72 1180.41,1445.72 1184.31,1445.72 1188.2,1445.72 1192.1,1445.72 1195.99,1445.72 1199.89,1445.72 1203.79,1445.72 1207.68,1445.72 1211.58,1445.72 1215.47,1445.72 1219.37,1445.72 1223.27,1445.72 1227.16,1445.72 1231.06,1445.72 1234.95,1445.72 1238.85,1445.72 1242.75,1445.72 1246.64,1445.72 1250.54,1445.72 1254.43,1445.72 1258.33,1445.72 1262.23,1445.72 1266.12,1445.72 1270.02,1445.72 1273.91,1445.72 1277.81,1445.72 1281.71,1445.72 1285.6,1445.72 1289.5,1445.72 1293.39,1445.72 1297.29,1445.72 1301.19,1445.72 1305.08,1445.72 1308.98,1445.72 1312.87,1445.72 1316.77,1445.72 1320.67,1445.72 1324.56,1445.72 1328.46,1445.72 1332.35,1445.72 1336.25,1445.72 1340.15,1445.72 1344.04,1445.72 1347.94,1445.72 1351.83,1445.72 1355.73,1445.72 1359.63,1445.72 1363.52,1445.72 1367.42,1445.72 1371.31,1445.72 1375.21,1445.72 1379.11,1445.72 1383,1445.72 1386.9,1445.72 1390.79,1445.72 1394.69,1445.72 1398.59,1445.72 1402.48,1445.72 1406.38,1445.72 1410.27,1445.72 1414.17,1445.72 1418.07,1445.72 1421.96,1445.72 1425.86,1445.72 1429.75,1445.72 1433.65,1445.72 1437.55,1445.72 1441.44,1445.72 1445.34,1445.72 1449.23,1445.72 1453.13,1445.72 1457.03,1445.72 1460.92,1445.72 1464.82,1445.72 1468.71,1445.72 1472.61,1445.72 1476.51,1445.72 1480.4,1445.72 1484.3,1445.72 1488.19,1445.72 1492.09,1445.72 1495.99,1445.72 1499.88,1445.72 1503.78,1445.72 1507.67,1445.72 1511.57,1445.72 1515.47,1445.72 1519.36,1445.72 1523.26,1445.72 1527.15,1445.72 1531.05,1445.72 1534.95,1445.72 1538.84,1445.72 1542.74,1445.72 1546.63,1445.72 1550.53,1445.72 1554.43,1445.72 1558.32,1445.72 1562.22,1445.72 1566.11,1445.72 1570.01,1445.72 1573.91,1445.72 1577.8,1445.72 1581.7,1445.72 1585.59,1445.72 1589.49,1445.72 1593.39,1445.72 1597.28,1445.72 1601.18,1445.72 1605.07,1445.72 1608.97,1445.72 1612.87,1445.72 1616.76,1445.72 1620.66,1445.72 1624.55,1445.72 1628.45,1445.72 1632.35,1445.72 1636.24,1445.72 1640.14,1445.72 1644.03,1445.72 1647.93,1445.72 1651.83,1445.72 1655.72,1445.72 1659.62,1445.72 1663.51,1445.72 1667.41,1445.72 1671.31,1445.72 1675.2,1445.72 1679.1,1445.72 1682.99,1445.72 1686.89,1445.72 1690.79,1445.72 1694.68,1445.72 1698.58,1445.72 1702.47,1445.72 1706.37,1445.72 1710.27,1445.72 1714.16,1445.72 1718.06,1445.72 1721.95,1445.72 1725.85,1445.72 1729.75,1445.72 1733.64,1445.72 1737.54,1445.72 1741.43,1445.72 1745.33,1445.72 1749.23,1445.72 1753.12,1445.72 1757.02,1445.72 1760.91,1445.72 1764.81,1445.72 1768.71,1445.72 1772.6,1445.72 1776.5,1445.72 1780.39,1445.72 1784.29,1445.72 1788.19,1445.72 1792.08,1445.72 1795.98,1445.72 1799.87,1445.72 1803.77,1445.72 1807.67,1445.72 1811.56,1445.72 1815.46,1445.72 1819.35,1445.72 1823.25,1445.72 1827.15,1445.72 1831.04,1445.72 1834.94,1445.72 1838.83,1445.72 1842.73,1445.72 1846.63,1445.72 1850.52,1445.72 1854.42,1445.72 1858.31,1445.72 1862.21,1445.72 1866.11,1445.72 1870,1445.72 1873.9,1445.72 1877.79,1445.72 1881.69,1445.72 1885.59,1445.72 1889.48,1445.72 1893.38,1445.72 1897.27,1445.72 1901.17,1445.72 1905.07,1445.72 1908.96,1445.72 1912.86,1445.72 1916.75,1445.72 1920.65,1445.72 1924.55,1445.72 1928.44,1445.72 1932.34,1445.72 1936.23,1445.72 1940.13,1445.72 1944.03,1445.72 1947.92,1445.72 1951.82,1445.72 1955.71,1445.72 1959.61,1445.72 1963.51,1445.72 1967.4,1445.72 1971.3,1445.72 1975.19,1445.72 1979.09,1445.72 1982.99,1445.72 1986.88,1445.72 1990.78,1445.72 1994.67,1445.72 1998.57,1445.72 2002.47,1445.72 2006.36,1445.72 2010.26,1445.72 2014.15,1445.72 2018.05,1445.72 2021.95,1445.72 2025.84,1445.72 2029.74,1445.72 2033.63,1445.72 2037.53,1445.72 2041.43,1445.72 2045.32,1445.72 2049.22,1445.72 2053.11,1445.72 2057.01,1445.72 2060.91,1445.72 2064.8,1445.72 2068.7,1445.72 2072.59,1445.72 2076.49,1445.72 2080.39,1445.72 2084.28,1445.72 2088.18,1445.72 2092.07,1445.72 2095.97,1445.72 2099.87,1445.72 2103.76,1445.72 2107.66,1445.72 2111.55,1445.72 2115.45,1445.72 2119.35,1445.72 2123.24,1445.72 2127.14,1445.72 2131.03,1445.72 2134.93,1445.72 2138.83,1445.72 2142.72,1445.72 2146.62,1445.72 2150.51,1445.72 2154.41,1445.72 2158.31,1445.72 2162.2,1445.72 2166.1,1445.72 2169.99,1445.72 2173.89,1445.71 2177.79,1445.71 2181.68,1445.71 2185.58,1445.71 2189.47,1445.71 2193.37,1445.71 2197.27,1445.7 2201.16,1445.69 2205.06,1445.68 2208.95,1445.65 2212.85,1445.62 2216.75,1445.56 2220.64,1445.47 2224.54,1445.33 2228.43,1445.1 2232.33,1444.75 2236.23,1444.2 2240.12,1443.32 2244.02,1441.95 2247.91,1439.8 2251.81,1436.41 2255.71,1431.08 2259.6,1422.69 2263.5,1409.49 2267.39,1388.74 2271.29,1356.09 2275.19,1304.74 2279.08,1223.95 2282.98,1096.88 2286.87,896.992 2290.77,582.568 2294.67,87.9763 "></polyline>
<path clip-path="url(#clip890)" d="M368.68 198.898 L626.359 198.898 L626.359 95.2176 L368.68 95.2176  Z" fill="#ffffff" fill-rule="evenodd" fill-opacity="1"></path>
<polyline clip-path="url(#clip890)" style="stroke:#000000; stroke-linecap:round; stroke-linejoin:round; stroke-width:4; stroke-opacity:1; fill:none" points="368.68,198.898 626.359,198.898 626.359,95.2176 368.68,95.2176 368.68,198.898 "></polyline>
<polyline clip-path="url(#clip890)" style="stroke:#009af9; stroke-linecap:round; stroke-linejoin:round; stroke-width:4; stroke-opacity:1; fill:none" points="391.485,147.058 528.318,147.058 "></polyline>
<path clip-path="url(#clip890)" d="M564.966 166.745 Q563.161 171.375 561.448 172.787 Q559.735 174.199 556.864 174.199 L553.462 174.199 L553.462 170.634 L555.962 170.634 Q557.721 170.634 558.693 169.8 Q559.665 168.967 560.846 165.865 L561.61 163.921 L551.124 138.412 L555.638 138.412 L563.739 158.689 L571.841 138.412 L576.355 138.412 L564.966 166.745 Z" fill="#000000" fill-rule="nonzero" fill-opacity="1"></path><path clip-path="url(#clip890)" d="M583.647 160.402 L591.286 160.402 L591.286 134.037 L582.975 135.703 L582.975 131.444 L591.239 129.778 L595.915 129.778 L595.915 160.402 L603.554 160.402 L603.554 164.338 L583.647 164.338 L583.647 160.402 Z" fill="#000000" fill-rule="nonzero" fill-opacity="1"></path></svg>