<svg xmlns="http://www.w3.org/2000/svg" xmlns:xlink="http://www.w3.org/1999/xlink" width="600" height="400" viewBox="0 0 2400 1600">
<defs>
  <clipPath id="clip450">
    <rect x="0" y="0" width="2400" height="1600"></rect>
  </clipPath>
</defs>
<path clip-path="url(#clip450)" d="M0 1600 L2400 1600 L2400 8.88178e-14 L0 8.88178e-14  Z" fill="#ffffff" fill-rule="evenodd" fill-opacity="1"></path>
<defs>
  <clipPath id="clip451">
    <rect x="480" y="0" width="1681" height="1600"></rect>
  </clipPath>
</defs>
<path clip-path="url(#clip450)" d="M148.057 1486.45 L2352.76 1486.45 L2352.76 47.2441 L148.057 47.2441  Z" fill="#ffffff" fill-rule="evenodd" fill-opacity="1"></path>
<defs>
  <clipPath id="clip452">
    <rect x="148" y="47" width="2206" height="1440"></rect>
  </clipPath>
</defs>
<polyline clip-path="url(#clip452)" style="stroke:#000000; stroke-linecap:round; stroke-linejoin:round; stroke-width:2; stroke-opacity:0.1; fill:none" points="199.949,1486.45 199.949,47.2441 "></polyline>
<polyline clip-path="url(#clip452)" style="stroke:#000000; stroke-linecap:round; stroke-linejoin:round; stroke-width:2; stroke-opacity:0.1; fill:none" points="725.178,1486.45 725.178,47.2441 "></polyline>
<polyline clip-path="url(#clip452)" style="stroke:#000000; stroke-linecap:round; stroke-linejoin:round; stroke-width:2; stroke-opacity:0.1; fill:none" points="1250.41,1486.45 1250.41,47.2441 "></polyline>
<polyline clip-path="url(#clip452)" style="stroke:#000000; stroke-linecap:round; stroke-linejoin:round; stroke-width:2; stroke-opacity:0.1; fill:none" points="1775.63,1486.45 1775.63,47.2441 "></polyline>
<polyline clip-path="url(#clip452)" style="stroke:#000000; stroke-linecap:round; stroke-linejoin:round; stroke-width:2; stroke-opacity:0.1; fill:none" points="2300.86,1486.45 2300.86,47.2441 "></polyline>
<polyline clip-path="url(#clip452)" style="stroke:#000000; stroke-linecap:round; stroke-linejoin:round; stroke-width:2; stroke-opacity:0.1; fill:none" points="148.057,1470.65 2352.76,1470.65 "></polyline>
<polyline clip-path="url(#clip452)" style="stroke:#000000; stroke-linecap:round; stroke-linejoin:round; stroke-width:2; stroke-opacity:0.1; fill:none" points="148.057,1232.81 2352.76,1232.81 "></polyline>
<polyline clip-path="url(#clip452)" style="stroke:#000000; stroke-linecap:round; stroke-linejoin:round; stroke-width:2; stroke-opacity:0.1; fill:none" points="148.057,994.97 2352.76,994.97 "></polyline>
<polyline clip-path="url(#clip452)" style="stroke:#000000; stroke-linecap:round; stroke-linejoin:round; stroke-width:2; stroke-opacity:0.1; fill:none" points="148.057,757.131 2352.76,757.131 "></polyline>
<polyline clip-path="url(#clip452)" style="stroke:#000000; stroke-linecap:round; stroke-linejoin:round; stroke-width:2; stroke-opacity:0.1; fill:none" points="148.057,519.291 2352.76,519.291 "></polyline>
<polyline clip-path="url(#clip452)" style="stroke:#000000; stroke-linecap:round; stroke-linejoin:round; stroke-width:2; stroke-opacity:0.1; fill:none" points="148.057,281.452 2352.76,281.452 "></polyline>
<polyline clip-path="url(#clip450)" style="stroke:#000000; stroke-linecap:round; stroke-linejoin:round; stroke-width:4; stroke-opacity:1; fill:none" points="148.057,1486.45 2352.76,1486.45 "></polyline>
<polyline clip-path="url(#clip450)" style="stroke:#000000; stroke-linecap:round; stroke-linejoin:round; stroke-width:4; stroke-opacity:1; fill:none" points="199.949,1486.45 199.949,1467.55 "></polyline>
<polyline clip-path="url(#clip450)" style="stroke:#000000; stroke-linecap:round; stroke-linejoin:round; stroke-width:4; stroke-opacity:1; fill:none" points="725.178,1486.45 725.178,1467.55 "></polyline>
<polyline clip-path="url(#clip450)" style="stroke:#000000; stroke-linecap:round; stroke-linejoin:round; stroke-width:4; stroke-opacity:1; fill:none" points="1250.41,1486.45 1250.41,1467.55 "></polyline>
<polyline clip-path="url(#clip450)" style="stroke:#000000; stroke-linecap:round; stroke-linejoin:round; stroke-width:4; stroke-opacity:1; fill:none" points="1775.63,1486.45 1775.63,1467.55 "></polyline>
<polyline clip-path="url(#clip450)" style="stroke:#000000; stroke-linecap:round; stroke-linejoin:round; stroke-width:4; stroke-opacity:1; fill:none" points="2300.86,1486.45 2300.86,1467.55 "></polyline>
<path clip-path="url(#clip450)" d="M199.949 1517.37 Q196.338 1517.37 194.509 1520.93 Q192.704 1524.47 192.704 1531.6 Q192.704 1538.71 194.509 1542.27 Q196.338 1545.82 199.949 1545.82 Q203.583 1545.82 205.389 1542.27 Q207.218 1538.71 207.218 1531.6 Q207.218 1524.47 205.389 1520.93 Q203.583 1517.37 199.949 1517.37 M199.949 1513.66 Q205.759 1513.66 208.815 1518.27 Q211.894 1522.85 211.894 1531.6 Q211.894 1540.33 208.815 1544.94 Q205.759 1549.52 199.949 1549.52 Q194.139 1549.52 191.06 1544.94 Q188.005 1540.33 188.005 1531.6 Q188.005 1522.85 191.06 1518.27 Q194.139 1513.66 199.949 1513.66 Z" fill="#000000" fill-rule="nonzero" fill-opacity="1"></path><path clip-path="url(#clip450)" d="M699.877 1514.29 L718.233 1514.29 L718.233 1518.22 L704.159 1518.22 L704.159 1526.7 Q705.178 1526.35 706.196 1526.19 Q707.215 1526 708.233 1526 Q714.02 1526 717.4 1529.17 Q720.78 1532.34 720.78 1537.76 Q720.78 1543.34 717.307 1546.44 Q713.835 1549.52 707.516 1549.52 Q705.34 1549.52 703.071 1549.15 Q700.826 1548.78 698.419 1548.04 L698.419 1543.34 Q700.502 1544.47 702.724 1545.03 Q704.946 1545.58 707.423 1545.58 Q711.428 1545.58 713.766 1543.48 Q716.104 1541.37 716.104 1537.76 Q716.104 1534.15 713.766 1532.04 Q711.428 1529.94 707.423 1529.94 Q705.548 1529.94 703.673 1530.35 Q701.821 1530.77 699.877 1531.65 L699.877 1514.29 Z" fill="#000000" fill-rule="nonzero" fill-opacity="1"></path><path clip-path="url(#clip450)" d="M739.992 1517.37 Q736.381 1517.37 734.553 1520.93 Q732.747 1524.47 732.747 1531.6 Q732.747 1538.71 734.553 1542.27 Q736.381 1545.82 739.992 1545.82 Q743.627 1545.82 745.432 1542.27 Q747.261 1538.71 747.261 1531.6 Q747.261 1524.47 745.432 1520.93 Q743.627 1517.37 739.992 1517.37 M739.992 1513.66 Q745.803 1513.66 748.858 1518.27 Q751.937 1522.85 751.937 1531.6 Q751.937 1540.33 748.858 1544.94 Q745.803 1549.52 739.992 1549.52 Q734.182 1549.52 731.104 1544.94 Q728.048 1540.33 728.048 1531.6 Q728.048 1522.85 731.104 1518.27 Q734.182 1513.66 739.992 1513.66 Z" fill="#000000" fill-rule="nonzero" fill-opacity="1"></path><path clip-path="url(#clip450)" d="M1210.01 1544.91 L1217.65 1544.91 L1217.65 1518.55 L1209.34 1520.21 L1209.34 1515.95 L1217.61 1514.29 L1222.28 1514.29 L1222.28 1544.91 L1229.92 1544.91 L1229.92 1548.85 L1210.01 1548.85 L1210.01 1544.91 Z" fill="#000000" fill-rule="nonzero" fill-opacity="1"></path><path clip-path="url(#clip450)" d="M1249.36 1517.37 Q1245.75 1517.37 1243.92 1520.93 Q1242.12 1524.47 1242.12 1531.6 Q1242.12 1538.71 1243.92 1542.27 Q1245.75 1545.82 1249.36 1545.82 Q1253 1545.82 1254.8 1542.27 Q1256.63 1538.71 1256.63 1531.6 Q1256.63 1524.47 1254.8 1520.93 Q1253 1517.37 1249.36 1517.37 M1249.36 1513.66 Q1255.17 1513.66 1258.23 1518.27 Q1261.31 1522.85 1261.31 1531.6 Q1261.31 1540.33 1258.23 1544.94 Q1255.17 1549.52 1249.36 1549.52 Q1243.55 1549.52 1240.48 1544.94 Q1237.42 1540.33 1237.42 1531.6 Q1237.42 1522.85 1240.48 1518.27 Q1243.55 1513.66 1249.36 1513.66 Z" fill="#000000" fill-rule="nonzero" fill-opacity="1"></path><path clip-path="url(#clip450)" d="M1279.53 1517.37 Q1275.92 1517.37 1274.09 1520.93 Q1272.28 1524.47 1272.28 1531.6 Q1272.28 1538.71 1274.09 1542.27 Q1275.92 1545.82 1279.53 1545.82 Q1283.16 1545.82 1284.97 1542.27 Q1286.79 1538.71 1286.79 1531.6 Q1286.79 1524.47 1284.97 1520.93 Q1283.16 1517.37 1279.53 1517.37 M1279.53 1513.66 Q1285.34 1513.66 1288.39 1518.27 Q1291.47 1522.85 1291.47 1531.6 Q1291.47 1540.33 1288.39 1544.94 Q1285.34 1549.52 1279.53 1549.52 Q1273.72 1549.52 1270.64 1544.94 Q1267.58 1540.33 1267.58 1531.6 Q1267.58 1522.85 1270.64 1518.27 Q1273.72 1513.66 1279.53 1513.66 Z" fill="#000000" fill-rule="nonzero" fill-opacity="1"></path><path clip-path="url(#clip450)" d="M1735.24 1544.91 L1742.88 1544.91 L1742.88 1518.55 L1734.57 1520.21 L1734.57 1515.95 L1742.83 1514.29 L1747.51 1514.29 L1747.51 1544.91 L1755.15 1544.91 L1755.15 1548.85 L1735.24 1548.85 L1735.24 1544.91 Z" fill="#000000" fill-rule="nonzero" fill-opacity="1"></path><path clip-path="url(#clip450)" d="M1764.64 1514.29 L1783 1514.29 L1783 1518.22 L1768.92 1518.22 L1768.92 1526.7 Q1769.94 1526.35 1770.96 1526.19 Q1771.98 1526 1773 1526 Q1778.78 1526 1782.16 1529.17 Q1785.54 1532.34 1785.54 1537.76 Q1785.54 1543.34 1782.07 1546.44 Q1778.6 1549.52 1772.28 1549.52 Q1770.1 1549.52 1767.83 1549.15 Q1765.59 1548.78 1763.18 1548.04 L1763.18 1543.34 Q1765.26 1544.47 1767.49 1545.03 Q1769.71 1545.58 1772.19 1545.58 Q1776.19 1545.58 1778.53 1543.48 Q1780.87 1541.37 1780.87 1537.76 Q1780.87 1534.15 1778.53 1532.04 Q1776.19 1529.94 1772.19 1529.94 Q1770.31 1529.94 1768.44 1530.35 Q1766.58 1530.77 1764.64 1531.65 L1764.64 1514.29 Z" fill="#000000" fill-rule="nonzero" fill-opacity="1"></path><path clip-path="url(#clip450)" d="M1804.76 1517.37 Q1801.14 1517.37 1799.32 1520.93 Q1797.51 1524.47 1797.51 1531.6 Q1797.51 1538.71 1799.32 1542.27 Q1801.14 1545.82 1804.76 1545.82 Q1808.39 1545.82 1810.19 1542.27 Q1812.02 1538.71 1812.02 1531.6 Q1812.02 1524.47 1810.19 1520.93 Q1808.39 1517.37 1804.76 1517.37 M1804.76 1513.66 Q1810.57 1513.66 1813.62 1518.27 Q1816.7 1522.85 1816.7 1531.6 Q1816.7 1540.33 1813.62 1544.94 Q1810.57 1549.52 1804.76 1549.52 Q1798.94 1549.52 1795.87 1544.94 Q1792.81 1540.33 1792.81 1531.6 Q1792.81 1522.85 1795.87 1518.27 Q1798.94 1513.66 1804.76 1513.66 Z" fill="#000000" fill-rule="nonzero" fill-opacity="1"></path><path clip-path="url(#clip450)" d="M2264.56 1544.91 L2280.88 1544.91 L2280.88 1548.85 L2258.93 1548.85 L2258.93 1544.91 Q2261.59 1542.16 2266.18 1537.53 Q2270.78 1532.88 2271.96 1531.53 Q2274.21 1529.01 2275.09 1527.27 Q2275.99 1525.51 2275.99 1523.82 Q2275.99 1521.07 2274.05 1519.33 Q2272.13 1517.6 2269.02 1517.6 Q2266.82 1517.6 2264.37 1518.36 Q2261.94 1519.13 2259.16 1520.68 L2259.16 1515.95 Q2261.99 1514.82 2264.44 1514.24 Q2266.89 1513.66 2268.93 1513.66 Q2274.3 1513.66 2277.5 1516.35 Q2280.69 1519.03 2280.69 1523.52 Q2280.69 1525.65 2279.88 1527.57 Q2279.09 1529.47 2276.99 1532.07 Q2276.41 1532.74 2273.31 1535.95 Q2270.2 1539.15 2264.56 1544.91 Z" fill="#000000" fill-rule="nonzero" fill-opacity="1"></path><path clip-path="url(#clip450)" d="M2300.69 1517.37 Q2297.08 1517.37 2295.25 1520.93 Q2293.44 1524.47 2293.44 1531.6 Q2293.44 1538.71 2295.25 1542.27 Q2297.08 1545.82 2300.69 1545.82 Q2304.32 1545.82 2306.13 1542.27 Q2307.96 1538.71 2307.96 1531.6 Q2307.96 1524.47 2306.13 1520.93 Q2304.32 1517.37 2300.69 1517.37 M2300.69 1513.66 Q2306.5 1513.66 2309.56 1518.27 Q2312.63 1522.85 2312.63 1531.6 Q2312.63 1540.33 2309.56 1544.94 Q2306.5 1549.52 2300.69 1549.52 Q2294.88 1549.52 2291.8 1544.94 Q2288.75 1540.33 2288.75 1531.6 Q2288.75 1522.85 2291.8 1518.27 Q2294.88 1513.66 2300.69 1513.66 Z" fill="#000000" fill-rule="nonzero" fill-opacity="1"></path><path clip-path="url(#clip450)" d="M2330.85 1517.37 Q2327.24 1517.37 2325.41 1520.93 Q2323.61 1524.47 2323.61 1531.6 Q2323.61 1538.71 2325.41 1542.27 Q2327.24 1545.82 2330.85 1545.82 Q2334.49 1545.82 2336.29 1542.27 Q2338.12 1538.71 2338.12 1531.6 Q2338.12 1524.47 2336.29 1520.93 Q2334.49 1517.37 2330.85 1517.37 M2330.85 1513.66 Q2336.66 1513.66 2339.72 1518.27 Q2342.8 1522.85 2342.8 1531.6 Q2342.8 1540.33 2339.72 1544.94 Q2336.66 1549.52 2330.85 1549.52 Q2325.04 1549.52 2321.96 1544.94 Q2318.91 1540.33 2318.91 1531.6 Q2318.91 1522.85 2321.96 1518.27 Q2325.04 1513.66 2330.85 1513.66 Z" fill="#000000" fill-rule="nonzero" fill-opacity="1"></path><polyline clip-path="url(#clip450)" style="stroke:#000000; stroke-linecap:round; stroke-linejoin:round; stroke-width:4; stroke-opacity:1; fill:none" points="148.057,1486.45 148.057,47.2441 "></polyline>
<polyline clip-path="url(#clip450)" style="stroke:#000000; stroke-linecap:round; stroke-linejoin:round; stroke-width:4; stroke-opacity:1; fill:none" points="148.057,1470.65 166.954,1470.65 "></polyline>
<polyline clip-path="url(#clip450)" style="stroke:#000000; stroke-linecap:round; stroke-linejoin:round; stroke-width:4; stroke-opacity:1; fill:none" points="148.057,1232.81 166.954,1232.81 "></polyline>
<polyline clip-path="url(#clip450)" style="stroke:#000000; stroke-linecap:round; stroke-linejoin:round; stroke-width:4; stroke-opacity:1; fill:none" points="148.057,994.97 166.954,994.97 "></polyline>
<polyline clip-path="url(#clip450)" style="stroke:#000000; stroke-linecap:round; stroke-linejoin:round; stroke-width:4; stroke-opacity:1; fill:none" points="148.057,757.131 166.954,757.131 "></polyline>
<polyline clip-path="url(#clip450)" style="stroke:#000000; stroke-linecap:round; stroke-linejoin:round; stroke-width:4; stroke-opacity:1; fill:none" points="148.057,519.291 166.954,519.291 "></polyline>
<polyline clip-path="url(#clip450)" style="stroke:#000000; stroke-linecap:round; stroke-linejoin:round; stroke-width:4; stroke-opacity:1; fill:none" points="148.057,281.452 166.954,281.452 "></polyline>
<path clip-path="url(#clip450)" d="M50.9921 1471.1 L80.6679 1471.1 L80.6679 1475.04 L50.9921 1475.04 L50.9921 1471.1 Z" fill="#000000" fill-rule="nonzero" fill-opacity="1"></path><path clip-path="url(#clip450)" d="M104.927 1469.29 Q108.283 1470.01 110.158 1472.28 Q112.057 1474.55 112.057 1477.88 Q112.057 1483 108.538 1485.8 Q105.02 1488.6 98.5382 1488.6 Q96.3623 1488.6 94.0475 1488.16 Q91.7558 1487.74 89.3021 1486.89 L89.3021 1482.37 Q91.2465 1483.51 93.5613 1484.09 Q95.8761 1484.66 98.3993 1484.66 Q102.797 1484.66 105.089 1482.93 Q107.404 1481.19 107.404 1477.88 Q107.404 1474.83 105.251 1473.11 Q103.121 1471.38 99.3021 1471.38 L95.2743 1471.38 L95.2743 1467.54 L99.4872 1467.54 Q102.936 1467.54 104.765 1466.17 Q106.594 1464.78 106.594 1462.19 Q106.594 1459.53 104.696 1458.11 Q102.821 1456.68 99.3021 1456.68 Q97.3808 1456.68 95.1817 1457.1 Q92.9826 1457.51 90.3438 1458.39 L90.3438 1454.22 Q93.0058 1453.48 95.3206 1453.11 Q97.6585 1452.74 99.7187 1452.74 Q105.043 1452.74 108.145 1455.17 Q111.246 1457.58 111.246 1461.7 Q111.246 1464.57 109.603 1466.56 Q107.959 1468.53 104.927 1469.29 Z" fill="#000000" fill-rule="nonzero" fill-opacity="1"></path><path clip-path="url(#clip450)" d="M51.9412 1233.26 L81.617 1233.26 L81.617 1237.2 L51.9412 1237.2 L51.9412 1233.26 Z" fill="#000000" fill-rule="nonzero" fill-opacity="1"></path><path clip-path="url(#clip450)" d="M95.7373 1246.15 L112.057 1246.15 L112.057 1250.09 L90.1123 1250.09 L90.1123 1246.15 Q92.7743 1243.4 97.3576 1238.77 Q101.964 1234.12 103.145 1232.77 Q105.39 1230.25 106.27 1228.52 Q107.172 1226.76 107.172 1225.07 Q107.172 1222.31 105.228 1220.58 Q103.307 1218.84 100.205 1218.84 Q98.0058 1218.84 95.5521 1219.6 Q93.1215 1220.37 90.3438 1221.92 L90.3438 1217.2 Q93.1678 1216.06 95.6215 1215.48 Q98.0752 1214.9 100.112 1214.9 Q105.483 1214.9 108.677 1217.59 Q111.871 1220.27 111.871 1224.77 Q111.871 1226.89 111.061 1228.82 Q110.274 1230.71 108.168 1233.31 Q107.589 1233.98 104.487 1237.2 Q101.385 1240.39 95.7373 1246.15 Z" fill="#000000" fill-rule="nonzero" fill-opacity="1"></path><path clip-path="url(#clip450)" d="M51.5708 995.421 L81.2466 995.421 L81.2466 999.356 L51.5708 999.356 L51.5708 995.421 Z" fill="#000000" fill-rule="nonzero" fill-opacity="1"></path><path clip-path="url(#clip450)" d="M92.1493 1008.31 L99.7882 1008.31 L99.7882 981.949 L91.478 983.616 L91.478 979.357 L99.7419 977.69 L104.418 977.69 L104.418 1008.31 L112.057 1008.31 L112.057 1012.25 L92.1493 1012.25 L92.1493 1008.31 Z" fill="#000000" fill-rule="nonzero" fill-opacity="1"></path><path clip-path="url(#clip450)" d="M100.112 742.929 Q96.5011 742.929 94.6724 746.494 Q92.8669 750.036 92.8669 757.165 Q92.8669 764.272 94.6724 767.837 Q96.5011 771.378 100.112 771.378 Q103.746 771.378 105.552 767.837 Q107.381 764.272 107.381 757.165 Q107.381 750.036 105.552 746.494 Q103.746 742.929 100.112 742.929 M100.112 739.226 Q105.922 739.226 108.978 743.832 Q112.057 748.415 112.057 757.165 Q112.057 765.892 108.978 770.499 Q105.922 775.082 100.112 775.082 Q94.3021 775.082 91.2234 770.499 Q88.1679 765.892 88.1679 757.165 Q88.1679 748.415 91.2234 743.832 Q94.3021 739.226 100.112 739.226 Z" fill="#000000" fill-rule="nonzero" fill-opacity="1"></path><path clip-path="url(#clip450)" d="M92.1493 532.636 L99.7882 532.636 L99.7882 506.271 L91.478 507.937 L91.478 503.678 L99.7419 502.011 L104.418 502.011 L104.418 532.636 L112.057 532.636 L112.057 536.571 L92.1493 536.571 L92.1493 532.636 Z" fill="#000000" fill-rule="nonzero" fill-opacity="1"></path><path clip-path="url(#clip450)" d="M95.7373 294.797 L112.057 294.797 L112.057 298.732 L90.1123 298.732 L90.1123 294.797 Q92.7743 292.042 97.3576 287.413 Q101.964 282.76 103.145 281.417 Q105.39 278.894 106.27 277.158 Q107.172 275.399 107.172 273.709 Q107.172 270.954 105.228 269.218 Q103.307 267.482 100.205 267.482 Q98.0058 267.482 95.5521 268.246 Q93.1215 269.01 90.3438 270.561 L90.3438 265.839 Q93.1678 264.704 95.6215 264.126 Q98.0752 263.547 100.112 263.547 Q105.483 263.547 108.677 266.232 Q111.871 268.917 111.871 273.408 Q111.871 275.538 111.061 277.459 Q110.274 279.357 108.168 281.95 Q107.589 282.621 104.487 285.839 Q101.385 289.033 95.7373 294.797 Z" fill="#000000" fill-rule="nonzero" fill-opacity="1"></path><polyline clip-path="url(#clip452)" style="stroke:#009af9; stroke-linecap:round; stroke-linejoin:round; stroke-width:4; stroke-opacity:1; fill:none" points="210.454,1378.57 220.958,620.843 231.463,209.205 241.967,497.041 252.472,462.542 262.977,838.335 273.481,653.976 283.986,816.654 294.49,1283.25 304.995,524.082 315.499,615.041 326.004,825.555 336.509,279.7 347.013,863.404 357.518,928.78 368.022,897.639 378.527,810.566 389.031,588.418 399.536,601.245 410.041,610.435 420.545,847.218 431.05,87.9763 441.554,819.963 452.059,965.556 462.563,953.969 473.068,364.049 483.573,826.289 494.077,828.086 504.582,748.438 515.086,910.915 525.591,1434.64 536.095,838.334 546.6,732.189 557.105,1162.95 567.609,992.03 578.114,667.173 588.618,784.363 599.123,505.756 609.627,446.297 620.132,867.525 630.637,883.905 641.141,763.96 651.646,1134.22 662.15,731.314 672.655,490.563 683.159,784.483 693.664,658.17 704.169,497.269 714.673,929.671 725.178,1160.95 735.682,761.653 746.187,827.702 756.691,1140.3 767.196,879.571 777.701,828.765 788.205,838.208 798.71,804.636 809.214,669.882 819.719,937.566 830.223,1023.91 840.728,996.521 851.233,617.189 861.737,818.495 872.242,572.932 882.746,1185.51 893.251,1199.68 903.755,813.899 914.26,695.124 924.765,385.485 935.269,671.205 945.774,595.395 956.278,1027.81 966.783,847.784 977.287,1056.24 987.792,341.22 998.297,894.748 1008.8,434.081 1019.31,713.301 1029.81,436.218 1040.31,925.186 1050.82,545.639 1061.32,603.209 1071.83,635.669 1082.33,506.975 1092.84,559.176 1103.34,778.51 1113.85,484.065 1124.35,638.242 1134.86,1131.8 1145.36,180.987 1155.87,1315.83 1166.37,409.736 1176.87,846.278 1187.38,943.773 1197.88,995.933 1208.39,445.443 1218.89,559.019 1229.4,615.102 1239.9,310.944 1250.41,734.853 1260.91,911.995 1271.42,1152.8 1281.92,822.926 1292.42,710.108 1302.93,1146.64 1313.43,665.784 1323.94,835.358 1334.44,795.188 1344.95,938.158 1355.45,526.403 1365.96,378.593 1376.46,651.998 1386.97,473.584 1397.47,1058.47 1407.97,399.46 1418.48,1029.88 1428.98,992.355 1439.49,413.502 1449.99,773.804 1460.5,682.606 1471,534.718 1481.51,561.811 1492.01,494.39 1502.52,903.79 1513.02,926.33 1523.53,523.984 1534.03,367.944 1544.53,811.515 1555.04,597.73 1565.54,904.543 1576.05,810.597 1586.55,661.567 1597.06,903.476 1607.56,627.534 1618.07,774.387 1628.57,928.038 1639.08,738.62 1649.58,575.419 1660.08,764.476 1670.59,879.043 1681.09,1169.32 1691.6,1092.64 1702.1,634.955 1712.61,718.411 1723.11,1139.46 1733.62,965.807 1744.12,815.543 1754.63,1342.1 1765.13,881.975 1775.63,577.949 1786.14,861.673 1796.64,530.003 1807.15,998.812 1817.65,373.672 1828.16,1230.03 1838.66,1020.56 1849.17,603.191 1859.67,872.963 1870.18,1000.72 1880.68,811.455 1891.19,551.355 1901.69,1112.89 1912.19,871.998 1922.7,994.692 1933.2,883.544 1943.71,1102.49 1954.21,736.818 1964.72,658.837 1975.22,1445.72 1985.73,1019.79 1996.23,748.964 2006.74,771.512 2017.24,980.606 2027.74,907.388 2038.25,693.156 2048.75,1316.22 2059.26,403.157 2069.76,1040.12 2080.27,565.002 2090.77,557.235 2101.28,1179.28 2111.78,911.375 2122.29,547.063 2132.79,806.36 2143.29,1078.08 2153.8,511.508 2164.3,883.432 2174.81,731.718 2185.31,1196.67 2195.82,902.868 2206.32,315.77 2216.83,1216.01 2227.33,990.223 2237.84,1116.63 2248.34,393.484 2258.85,615.312 2269.35,694.203 2279.85,661.052 2290.36,1047.25 "></polyline>
<path clip-path="url(#clip450)" d="M2000.23 198.898 L2279.27 198.898 L2279.27 95.2176 L2000.23 95.2176  Z" fill="#ffffff" fill-rule="evenodd" fill-opacity="1"></path>
<polyline clip-path="url(#clip450)" style="stroke:#000000; stroke-linecap:round; stroke-linejoin:round; stroke-width:4; stroke-opacity:1; fill:none" points="2000.23,198.898 2279.27,198.898 2279.27,95.2176 2000.23,95.2176 2000.23,198.898 "></polyline>
<polyline clip-path="url(#clip450)" style="stroke:#009af9; stroke-linecap:round; stroke-linejoin:round; stroke-width:4; stroke-opacity:1; fill:none" points="2024.73,147.058 2171.71,147.058 "></polyline>
<path clip-path="url(#clip450)" d="M2212.04 134.384 L2202.55 160.449 L2221.55 160.449 L2212.04 134.384 M2196.2 164.338 L2209.4 129.778 L2214.7 129.778 L2227.87 164.338 L2196.2 164.338 Z" fill="#000000" fill-rule="nonzero" fill-opacity="1"></path><path clip-path="url(#clip450)" d="M2254.28 138.412 L2244.91 151.027 L2254.77 164.338 L2249.75 164.338 L2242.2 154.152 L2234.65 164.338 L2229.63 164.338 L2239.7 150.773 L2230.49 138.412 L2235.51 138.412 L2242.39 147.648 L2249.26 138.412 L2254.28 138.412 Z" fill="#000000" fill-rule="nonzero" fill-opacity="1"></path></svg>