<svg xmlns="http://www.w3.org/2000/svg" xmlns:xlink="http://www.w3.org/1999/xlink" width="600" height="400" viewBox="0 0 2400 1600">
<defs>
  <clipPath id="clip930">
    <rect x="0" y="0" width="2400" height="1600"></rect>
  </clipPath>
</defs>
<path clip-path="url(#clip930)" d="M0 1600 L2400 1600 L2400 8.88178e-14 L0 8.88178e-14  Z" fill="#ffffff" fill-rule="evenodd" fill-opacity="1"></path>
<defs>
  <clipPath id="clip931">
    <rect x="480" y="0" width="1681" height="1600"></rect>
  </clipPath>
</defs>
<path clip-path="url(#clip930)" d="M322.4 1486.45 L2352.76 1486.45 L2352.76 47.2441 L322.4 47.2441  Z" fill="#ffffff" fill-rule="evenodd" fill-opacity="1"></path>
<defs>
  <clipPath id="clip932">
    <rect x="322" y="47" width="2031" height="1440"></rect>
  </clipPath>
</defs>
<polyline clip-path="url(#clip932)" style="stroke:#000000; stroke-linecap:round; stroke-linejoin:round; stroke-width:2; stroke-opacity:0.1; fill:none" points="376.009,1486.45 376.009,47.2441 "></polyline>
<polyline clip-path="url(#clip932)" style="stroke:#000000; stroke-linecap:round; stroke-linejoin:round; stroke-width:2; stroke-opacity:0.1; fill:none" points="761.408,1486.45 761.408,47.2441 "></polyline>
<polyline clip-path="url(#clip932)" style="stroke:#000000; stroke-linecap:round; stroke-linejoin:round; stroke-width:2; stroke-opacity:0.1; fill:none" points="1146.81,1486.45 1146.81,47.2441 "></polyline>
<polyline clip-path="url(#clip932)" style="stroke:#000000; stroke-linecap:round; stroke-linejoin:round; stroke-width:2; stroke-opacity:0.1; fill:none" points="1532.2,1486.45 1532.2,47.2441 "></polyline>
<polyline clip-path="url(#clip932)" style="stroke:#000000; stroke-linecap:round; stroke-linejoin:round; stroke-width:2; stroke-opacity:0.1; fill:none" points="1917.6,1486.45 1917.6,47.2441 "></polyline>
<polyline clip-path="url(#clip932)" style="stroke:#000000; stroke-linecap:round; stroke-linejoin:round; stroke-width:2; stroke-opacity:0.1; fill:none" points="2303,1486.45 2303,47.2441 "></polyline>
<polyline clip-path="url(#clip932)" style="stroke:#000000; stroke-linecap:round; stroke-linejoin:round; stroke-width:2; stroke-opacity:0.1; fill:none" points="322.4,1445.72 2352.76,1445.72 "></polyline>
<polyline clip-path="url(#clip932)" style="stroke:#000000; stroke-linecap:round; stroke-linejoin:round; stroke-width:2; stroke-opacity:0.1; fill:none" points="322.4,1162.51 2352.76,1162.51 "></polyline>
<polyline clip-path="url(#clip932)" style="stroke:#000000; stroke-linecap:round; stroke-linejoin:round; stroke-width:2; stroke-opacity:0.1; fill:none" points="322.4,879.297 2352.76,879.297 "></polyline>
<polyline clip-path="url(#clip932)" style="stroke:#000000; stroke-linecap:round; stroke-linejoin:round; stroke-width:2; stroke-opacity:0.1; fill:none" points="322.4,596.088 2352.76,596.088 "></polyline>
<polyline clip-path="url(#clip932)" style="stroke:#000000; stroke-linecap:round; stroke-linejoin:round; stroke-width:2; stroke-opacity:0.1; fill:none" points="322.4,312.878 2352.76,312.878 "></polyline>
<polyline clip-path="url(#clip930)" style="stroke:#000000; stroke-linecap:round; stroke-linejoin:round; stroke-width:4; stroke-opacity:1; fill:none" points="322.4,1486.45 2352.76,1486.45 "></polyline>
<polyline clip-path="url(#clip930)" style="stroke:#000000; stroke-linecap:round; stroke-linejoin:round; stroke-width:4; stroke-opacity:1; fill:none" points="376.009,1486.45 376.009,1467.55 "></polyline>
<polyline clip-path="url(#clip930)" style="stroke:#000000; stroke-linecap:round; stroke-linejoin:round; stroke-width:4; stroke-opacity:1; fill:none" points="761.408,1486.45 761.408,1467.55 "></polyline>
<polyline clip-path="url(#clip930)" style="stroke:#000000; stroke-linecap:round; stroke-linejoin:round; stroke-width:4; stroke-opacity:1; fill:none" points="1146.81,1486.45 1146.81,1467.55 "></polyline>
<polyline clip-path="url(#clip930)" style="stroke:#000000; stroke-linecap:round; stroke-linejoin:round; stroke-width:4; stroke-opacity:1; fill:none" points="1532.2,1486.45 1532.2,1467.55 "></polyline>
<polyline clip-path="url(#clip930)" style="stroke:#000000; stroke-linecap:round; stroke-linejoin:round; stroke-width:4; stroke-opacity:1; fill:none" points="1917.6,1486.45 1917.6,1467.55 "></polyline>
<polyline clip-path="url(#clip930)" style="stroke:#000000; stroke-linecap:round; stroke-linejoin:round; stroke-width:4; stroke-opacity:1; fill:none" points="2303,1486.45 2303,1467.55 "></polyline>
<path clip-path="url(#clip930)" d="M376.009 1517.37 Q372.398 1517.37 370.569 1520.93 Q368.764 1524.47 368.764 1531.6 Q368.764 1538.71 370.569 1542.27 Q372.398 1545.82 376.009 1545.82 Q379.643 1545.82 381.449 1542.27 Q383.278 1538.71 383.278 1531.6 Q383.278 1524.47 381.449 1520.93 Q379.643 1517.37 376.009 1517.37 M376.009 1513.66 Q381.819 1513.66 384.875 1518.27 Q387.954 1522.85 387.954 1531.6 Q387.954 1540.33 384.875 1544.94 Q381.819 1549.52 376.009 1549.52 Q370.199 1549.52 367.12 1544.94 Q364.065 1540.33 364.065 1531.6 Q364.065 1522.85 367.12 1518.27 Q370.199 1513.66 376.009 1513.66 Z" fill="#000000" fill-rule="nonzero" fill-opacity="1"></path><path clip-path="url(#clip930)" d="M721.014 1544.91 L728.653 1544.91 L728.653 1518.55 L720.343 1520.21 L720.343 1515.95 L728.607 1514.29 L733.283 1514.29 L733.283 1544.91 L740.922 1544.91 L740.922 1548.85 L721.014 1548.85 L721.014 1544.91 Z" fill="#000000" fill-rule="nonzero" fill-opacity="1"></path><path clip-path="url(#clip930)" d="M760.366 1517.37 Q756.755 1517.37 754.926 1520.93 Q753.121 1524.47 753.121 1531.6 Q753.121 1538.71 754.926 1542.27 Q756.755 1545.82 760.366 1545.82 Q764 1545.82 765.806 1542.27 Q767.634 1538.71 767.634 1531.6 Q767.634 1524.47 765.806 1520.93 Q764 1517.37 760.366 1517.37 M760.366 1513.66 Q766.176 1513.66 769.232 1518.27 Q772.31 1522.85 772.31 1531.6 Q772.31 1540.33 769.232 1544.94 Q766.176 1549.52 760.366 1549.52 Q754.556 1549.52 751.477 1544.94 Q748.422 1540.33 748.422 1531.6 Q748.422 1522.85 751.477 1518.27 Q754.556 1513.66 760.366 1513.66 Z" fill="#000000" fill-rule="nonzero" fill-opacity="1"></path><path clip-path="url(#clip930)" d="M790.528 1517.37 Q786.917 1517.37 785.088 1520.93 Q783.282 1524.47 783.282 1531.6 Q783.282 1538.71 785.088 1542.27 Q786.917 1545.82 790.528 1545.82 Q794.162 1545.82 795.968 1542.27 Q797.796 1538.71 797.796 1531.6 Q797.796 1524.47 795.968 1520.93 Q794.162 1517.37 790.528 1517.37 M790.528 1513.66 Q796.338 1513.66 799.393 1518.27 Q802.472 1522.85 802.472 1531.6 Q802.472 1540.33 799.393 1544.94 Q796.338 1549.52 790.528 1549.52 Q784.718 1549.52 781.639 1544.94 Q778.583 1540.33 778.583 1531.6 Q778.583 1522.85 781.639 1518.27 Q784.718 1513.66 790.528 1513.66 Z" fill="#000000" fill-rule="nonzero" fill-opacity="1"></path><path clip-path="url(#clip930)" d="M1110.5 1544.91 L1126.82 1544.91 L1126.82 1548.85 L1104.87 1548.85 L1104.87 1544.91 Q1107.54 1542.16 1112.12 1537.53 Q1116.73 1532.88 1117.91 1531.53 Q1120.15 1529.01 1121.03 1527.27 Q1121.93 1525.51 1121.93 1523.82 Q1121.93 1521.07 1119.99 1519.33 Q1118.07 1517.6 1114.97 1517.6 Q1112.77 1517.6 1110.31 1518.36 Q1107.88 1519.13 1105.1 1520.68 L1105.1 1515.95 Q1107.93 1514.82 1110.38 1514.24 Q1112.84 1513.66 1114.87 1513.66 Q1120.24 1513.66 1123.44 1516.35 Q1126.63 1519.03 1126.63 1523.52 Q1126.63 1525.65 1125.82 1527.57 Q1125.04 1529.47 1122.93 1532.07 Q1122.35 1532.74 1119.25 1535.95 Q1116.15 1539.15 1110.5 1544.91 Z" fill="#000000" fill-rule="nonzero" fill-opacity="1"></path><path clip-path="url(#clip930)" d="M1146.63 1517.37 Q1143.02 1517.37 1141.19 1520.93 Q1139.39 1524.47 1139.39 1531.6 Q1139.39 1538.71 1141.19 1542.27 Q1143.02 1545.82 1146.63 1545.82 Q1150.27 1545.82 1152.07 1542.27 Q1153.9 1538.71 1153.9 1531.6 Q1153.9 1524.47 1152.07 1520.93 Q1150.27 1517.37 1146.63 1517.37 M1146.63 1513.66 Q1152.44 1513.66 1155.5 1518.27 Q1158.58 1522.85 1158.58 1531.6 Q1158.58 1540.33 1155.5 1544.94 Q1152.44 1549.52 1146.63 1549.52 Q1140.82 1549.52 1137.74 1544.94 Q1134.69 1540.33 1134.69 1531.6 Q1134.69 1522.85 1137.74 1518.27 Q1140.82 1513.66 1146.63 1513.66 Z" fill="#000000" fill-rule="nonzero" fill-opacity="1"></path><path clip-path="url(#clip930)" d="M1176.79 1517.37 Q1173.18 1517.37 1171.35 1520.93 Q1169.55 1524.47 1169.55 1531.6 Q1169.55 1538.71 1171.35 1542.27 Q1173.18 1545.82 1176.79 1545.82 Q1180.43 1545.82 1182.23 1542.27 Q1184.06 1538.71 1184.06 1531.6 Q1184.06 1524.47 1182.23 1520.93 Q1180.43 1517.37 1176.79 1517.37 M1176.79 1513.66 Q1182.6 1513.66 1185.66 1518.27 Q1188.74 1522.85 1188.74 1531.6 Q1188.74 1540.33 1185.66 1544.94 Q1182.6 1549.52 1176.79 1549.52 Q1170.98 1549.52 1167.91 1544.94 Q1164.85 1540.33 1164.85 1531.6 Q1164.85 1522.85 1167.91 1518.27 Q1170.98 1513.66 1176.79 1513.66 Z" fill="#000000" fill-rule="nonzero" fill-opacity="1"></path><path clip-path="url(#clip930)" d="M1505.97 1530.21 Q1509.32 1530.93 1511.2 1533.2 Q1513.1 1535.47 1513.1 1538.8 Q1513.1 1543.92 1509.58 1546.72 Q1506.06 1549.52 1499.58 1549.52 Q1497.4 1549.52 1495.09 1549.08 Q1492.79 1548.66 1490.34 1547.81 L1490.34 1543.29 Q1492.29 1544.43 1494.6 1545.01 Q1496.92 1545.58 1499.44 1545.58 Q1503.84 1545.58 1506.13 1543.85 Q1508.44 1542.11 1508.44 1538.8 Q1508.44 1535.75 1506.29 1534.03 Q1504.16 1532.3 1500.34 1532.3 L1496.31 1532.3 L1496.31 1528.45 L1500.53 1528.45 Q1503.98 1528.45 1505.8 1527.09 Q1507.63 1525.7 1507.63 1523.11 Q1507.63 1520.45 1505.73 1519.03 Q1503.86 1517.6 1500.34 1517.6 Q1498.42 1517.6 1496.22 1518.01 Q1494.02 1518.43 1491.38 1519.31 L1491.38 1515.14 Q1494.04 1514.4 1496.36 1514.03 Q1498.7 1513.66 1500.76 1513.66 Q1506.08 1513.66 1509.18 1516.09 Q1512.29 1518.5 1512.29 1522.62 Q1512.29 1525.49 1510.64 1527.48 Q1509 1529.45 1505.97 1530.21 Z" fill="#000000" fill-rule="nonzero" fill-opacity="1"></path><path clip-path="url(#clip930)" d="M1531.96 1517.37 Q1528.35 1517.37 1526.52 1520.93 Q1524.72 1524.47 1524.72 1531.6 Q1524.72 1538.71 1526.52 1542.27 Q1528.35 1545.82 1531.96 1545.82 Q1535.6 1545.82 1537.4 1542.27 Q1539.23 1538.71 1539.23 1531.6 Q1539.23 1524.47 1537.4 1520.93 Q1535.6 1517.37 1531.96 1517.37 M1531.96 1513.66 Q1537.77 1513.66 1540.83 1518.27 Q1543.91 1522.85 1543.91 1531.6 Q1543.91 1540.33 1540.83 1544.94 Q1537.77 1549.52 1531.96 1549.52 Q1526.15 1549.52 1523.07 1544.94 Q1520.02 1540.33 1520.02 1531.6 Q1520.02 1522.85 1523.07 1518.27 Q1526.15 1513.66 1531.96 1513.66 Z" fill="#000000" fill-rule="nonzero" fill-opacity="1"></path><path clip-path="url(#clip930)" d="M1562.12 1517.37 Q1558.51 1517.37 1556.68 1520.93 Q1554.88 1524.47 1554.88 1531.6 Q1554.88 1538.71 1556.68 1542.27 Q1558.51 1545.82 1562.12 1545.82 Q1565.76 1545.82 1567.56 1542.27 Q1569.39 1538.71 1569.39 1531.6 Q1569.39 1524.47 1567.56 1520.93 Q1565.76 1517.37 1562.12 1517.37 M1562.12 1513.66 Q1567.93 1513.66 1570.99 1518.27 Q1574.07 1522.85 1574.07 1531.6 Q1574.07 1540.33 1570.99 1544.94 Q1567.93 1549.52 1562.12 1549.52 Q1556.31 1549.52 1553.23 1544.94 Q1550.18 1540.33 1550.18 1531.6 Q1550.18 1522.85 1553.23 1518.27 Q1556.31 1513.66 1562.12 1513.66 Z" fill="#000000" fill-rule="nonzero" fill-opacity="1"></path><path clip-path="url(#clip930)" d="M1890.69 1518.36 L1878.89 1536.81 L1890.69 1536.81 L1890.69 1518.36 M1889.47 1514.29 L1895.35 1514.29 L1895.35 1536.81 L1900.28 1536.81 L1900.28 1540.7 L1895.35 1540.7 L1895.35 1548.85 L1890.69 1548.85 L1890.69 1540.7 L1875.09 1540.7 L1875.09 1536.19 L1889.47 1514.29 Z" fill="#000000" fill-rule="nonzero" fill-opacity="1"></path><path clip-path="url(#clip930)" d="M1918.01 1517.37 Q1914.4 1517.37 1912.57 1520.93 Q1910.76 1524.47 1910.76 1531.6 Q1910.76 1538.71 1912.57 1542.27 Q1914.4 1545.82 1918.01 1545.82 Q1921.64 1545.82 1923.45 1542.27 Q1925.28 1538.71 1925.28 1531.6 Q1925.28 1524.47 1923.45 1520.93 Q1921.64 1517.37 1918.01 1517.37 M1918.01 1513.66 Q1923.82 1513.66 1926.87 1518.27 Q1929.95 1522.85 1929.95 1531.6 Q1929.95 1540.33 1926.87 1544.94 Q1923.82 1549.52 1918.01 1549.52 Q1912.2 1549.52 1909.12 1544.94 Q1906.06 1540.33 1906.06 1531.6 Q1906.06 1522.85 1909.12 1518.27 Q1912.2 1513.66 1918.01 1513.66 Z" fill="#000000" fill-rule="nonzero" fill-opacity="1"></path><path clip-path="url(#clip930)" d="M1948.17 1517.37 Q1944.56 1517.37 1942.73 1520.93 Q1940.92 1524.47 1940.92 1531.6 Q1940.92 1538.71 1942.73 1542.27 Q1944.56 1545.82 1948.17 1545.82 Q1951.8 1545.82 1953.61 1542.27 Q1955.44 1538.71 1955.44 1531.6 Q1955.44 1524.47 1953.61 1520.93 Q1951.8 1517.37 1948.17 1517.37 M1948.17 1513.66 Q1953.98 1513.66 1957.04 1518.27 Q1960.11 1522.85 1960.11 1531.6 Q1960.11 1540.33 1957.04 1544.94 Q1953.98 1549.52 1948.17 1549.52 Q1942.36 1549.52 1939.28 1544.94 Q1936.23 1540.33 1936.23 1531.6 Q1936.23 1522.85 1939.28 1518.27 Q1942.36 1513.66 1948.17 1513.66 Z" fill="#000000" fill-rule="nonzero" fill-opacity="1"></path><path clip-path="url(#clip930)" d="M2262.62 1514.29 L2280.98 1514.29 L2280.98 1518.22 L2266.9 1518.22 L2266.9 1526.7 Q2267.92 1526.35 2268.94 1526.19 Q2269.96 1526 2270.98 1526 Q2276.76 1526 2280.14 1529.17 Q2283.52 1532.34 2283.52 1537.76 Q2283.52 1543.34 2280.05 1546.44 Q2276.58 1549.52 2270.26 1549.52 Q2268.08 1549.52 2265.81 1549.15 Q2263.57 1548.78 2261.16 1548.04 L2261.16 1543.34 Q2263.24 1544.47 2265.47 1545.03 Q2267.69 1545.58 2270.17 1545.58 Q2274.17 1545.58 2276.51 1543.48 Q2278.85 1541.37 2278.85 1537.76 Q2278.85 1534.15 2276.51 1532.04 Q2274.17 1529.94 2270.17 1529.94 Q2268.29 1529.94 2266.42 1530.35 Q2264.56 1530.77 2262.62 1531.65 L2262.62 1514.29 Z" fill="#000000" fill-rule="nonzero" fill-opacity="1"></path><path clip-path="url(#clip930)" d="M2302.73 1517.37 Q2299.12 1517.37 2297.29 1520.93 Q2295.49 1524.47 2295.49 1531.6 Q2295.49 1538.71 2297.29 1542.27 Q2299.12 1545.82 2302.73 1545.82 Q2306.37 1545.82 2308.17 1542.27 Q2310 1538.71 2310 1531.6 Q2310 1524.47 2308.17 1520.93 Q2306.37 1517.37 2302.73 1517.37 M2302.73 1513.66 Q2308.54 1513.66 2311.6 1518.27 Q2314.68 1522.85 2314.68 1531.6 Q2314.68 1540.33 2311.6 1544.94 Q2308.54 1549.52 2302.73 1549.52 Q2296.92 1549.52 2293.85 1544.94 Q2290.79 1540.33 2290.79 1531.6 Q2290.79 1522.85 2293.85 1518.27 Q2296.92 1513.66 2302.73 1513.66 Z" fill="#000000" fill-rule="nonzero" fill-opacity="1"></path><path clip-path="url(#clip930)" d="M2332.9 1517.37 Q2329.29 1517.37 2327.46 1520.93 Q2325.65 1524.47 2325.65 1531.6 Q2325.65 1538.71 2327.46 1542.27 Q2329.29 1545.82 2332.9 1545.82 Q2336.53 1545.82 2338.34 1542.27 Q2340.17 1538.71 2340.17 1531.6 Q2340.17 1524.47 2338.34 1520.93 Q2336.53 1517.37 2332.9 1517.37 M2332.9 1513.66 Q2338.71 1513.66 2341.76 1518.27 Q2344.84 1522.85 2344.84 1531.6 Q2344.84 1540.33 2341.76 1544.94 Q2338.71 1549.52 2332.9 1549.52 Q2327.09 1549.52 2324.01 1544.94 Q2320.95 1540.33 2320.95 1531.6 Q2320.95 1522.85 2324.01 1518.27 Q2327.09 1513.66 2332.9 1513.66 Z" fill="#000000" fill-rule="nonzero" fill-opacity="1"></path><polyline clip-path="url(#clip930)" style="stroke:#000000; stroke-linecap:round; stroke-linejoin:round; stroke-width:4; stroke-opacity:1; fill:none" points="322.4,1486.45 322.4,47.2441 "></polyline>
<polyline clip-path="url(#clip930)" style="stroke:#000000; stroke-linecap:round; stroke-linejoin:round; stroke-width:4; stroke-opacity:1; fill:none" points="322.4,1445.72 341.298,1445.72 "></polyline>
<polyline clip-path="url(#clip930)" style="stroke:#000000; stroke-linecap:round; stroke-linejoin:round; stroke-width:4; stroke-opacity:1; fill:none" points="322.4,1162.51 341.298,1162.51 "></polyline>
<polyline clip-path="url(#clip930)" style="stroke:#000000; stroke-linecap:round; stroke-linejoin:round; stroke-width:4; stroke-opacity:1; fill:none" points="322.4,879.297 341.298,879.297 "></polyline>
<polyline clip-path="url(#clip930)" style="stroke:#000000; stroke-linecap:round; stroke-linejoin:round; stroke-width:4; stroke-opacity:1; fill:none" points="322.4,596.088 341.298,596.088 "></polyline>
<polyline clip-path="url(#clip930)" style="stroke:#000000; stroke-linecap:round; stroke-linejoin:round; stroke-width:4; stroke-opacity:1; fill:none" points="322.4,312.878 341.298,312.878 "></polyline>
<path clip-path="url(#clip930)" d="M274.456 1431.51 Q270.845 1431.51 269.016 1435.08 Q267.211 1438.62 267.211 1445.75 Q267.211 1452.86 269.016 1456.42 Q270.845 1459.96 274.456 1459.96 Q278.09 1459.96 279.896 1456.42 Q281.724 1452.86 281.724 1445.75 Q281.724 1438.62 279.896 1435.08 Q278.09 1431.51 274.456 1431.51 M274.456 1427.81 Q280.266 1427.81 283.322 1432.42 Q286.4 1437 286.4 1445.75 Q286.4 1454.48 283.322 1459.08 Q280.266 1463.67 274.456 1463.67 Q268.646 1463.67 265.567 1459.08 Q262.512 1454.48 262.512 1445.75 Q262.512 1437 265.567 1432.42 Q268.646 1427.81 274.456 1427.81 Z" fill="#000000" fill-rule="nonzero" fill-opacity="1"></path><path clip-path="url(#clip930)" d="M54.5569 1182.3 L62.1958 1182.3 L62.1958 1155.93 L53.8856 1157.6 L53.8856 1153.34 L62.1495 1151.67 L66.8254 1151.67 L66.8254 1182.3 L74.4642 1182.3 L74.4642 1186.23 L54.5569 1186.23 L54.5569 1182.3 Z" fill="#000000" fill-rule="nonzero" fill-opacity="1"></path><path clip-path="url(#clip930)" d="M83.9086 1180.35 L88.7928 1180.35 L88.7928 1186.23 L83.9086 1186.23 L83.9086 1180.35 Z" fill="#000000" fill-rule="nonzero" fill-opacity="1"></path><path clip-path="url(#clip930)" d="M108.978 1154.75 Q105.367 1154.75 103.538 1158.32 Q101.733 1161.86 101.733 1168.99 Q101.733 1176.1 103.538 1179.66 Q105.367 1183.2 108.978 1183.2 Q112.612 1183.2 114.418 1179.66 Q116.246 1176.1 116.246 1168.99 Q116.246 1161.86 114.418 1158.32 Q112.612 1154.75 108.978 1154.75 M108.978 1151.05 Q114.788 1151.05 117.844 1155.66 Q120.922 1160.24 120.922 1168.99 Q120.922 1177.72 117.844 1182.32 Q114.788 1186.91 108.978 1186.91 Q103.168 1186.91 100.089 1182.32 Q97.0335 1177.72 97.0335 1168.99 Q97.0335 1160.24 100.089 1155.66 Q103.168 1151.05 108.978 1151.05 Z" fill="#000000" fill-rule="nonzero" fill-opacity="1"></path><path clip-path="url(#clip930)" d="M157.311 1160.77 L146.732 1171.4 L157.311 1181.97 L154.556 1184.78 L143.931 1174.15 L133.306 1184.78 L130.575 1181.97 L141.131 1171.4 L130.575 1160.77 L133.306 1157.97 L143.931 1168.6 L154.556 1157.97 L157.311 1160.77 Z" fill="#000000" fill-rule="nonzero" fill-opacity="1"></path><path clip-path="url(#clip930)" d="M169.672 1182.3 L177.311 1182.3 L177.311 1155.93 L169.001 1157.6 L169.001 1153.34 L177.265 1151.67 L181.94 1151.67 L181.94 1182.3 L189.579 1182.3 L189.579 1186.23 L169.672 1186.23 L169.672 1182.3 Z" fill="#000000" fill-rule="nonzero" fill-opacity="1"></path><path clip-path="url(#clip930)" d="M209.024 1154.75 Q205.413 1154.75 203.584 1158.32 Q201.778 1161.86 201.778 1168.99 Q201.778 1176.1 203.584 1179.66 Q205.413 1183.2 209.024 1183.2 Q212.658 1183.2 214.463 1179.66 Q216.292 1176.1 216.292 1168.99 Q216.292 1161.86 214.463 1158.32 Q212.658 1154.75 209.024 1154.75 M209.024 1151.05 Q214.834 1151.05 217.889 1155.66 Q220.968 1160.24 220.968 1168.99 Q220.968 1177.72 217.889 1182.32 Q214.834 1186.91 209.024 1186.91 Q203.214 1186.91 200.135 1182.32 Q197.079 1177.72 197.079 1168.99 Q197.079 1160.24 200.135 1155.66 Q203.214 1151.05 209.024 1151.05 Z" fill="#000000" fill-rule="nonzero" fill-opacity="1"></path><path clip-path="url(#clip930)" d="M221.513 1155.63 L227.72 1155.63 L227.72 1134.2 L220.968 1135.56 L220.968 1132.1 L227.682 1130.74 L231.482 1130.74 L231.482 1155.63 L237.688 1155.63 L237.688 1158.82 L221.513 1158.82 L221.513 1155.63 Z" fill="#000000" fill-rule="nonzero" fill-opacity="1"></path><path clip-path="url(#clip930)" d="M253.487 1133.24 Q250.553 1133.24 249.067 1136.14 Q247.6 1139.02 247.6 1144.81 Q247.6 1150.59 249.067 1153.48 Q250.553 1156.36 253.487 1156.36 Q256.44 1156.36 257.907 1153.48 Q259.392 1150.59 259.392 1144.81 Q259.392 1139.02 257.907 1136.14 Q256.44 1133.24 253.487 1133.24 M253.487 1130.24 Q258.207 1130.24 260.69 1133.98 Q263.192 1137.7 263.192 1144.81 Q263.192 1151.9 260.69 1155.64 Q258.207 1159.37 253.487 1159.37 Q248.766 1159.37 246.265 1155.64 Q243.782 1151.9 243.782 1144.81 Q243.782 1137.7 246.265 1133.98 Q248.766 1130.24 253.487 1130.24 Z" fill="#000000" fill-rule="nonzero" fill-opacity="1"></path><path clip-path="url(#clip930)" d="M273.141 1155.63 L286.4 1155.63 L286.4 1158.82 L268.571 1158.82 L268.571 1155.63 Q270.733 1153.39 274.457 1149.63 Q278.2 1145.85 279.159 1144.76 Q280.984 1142.71 281.698 1141.29 Q282.432 1139.87 282.432 1138.49 Q282.432 1136.25 280.852 1134.84 Q279.291 1133.43 276.771 1133.43 Q274.984 1133.43 272.99 1134.05 Q271.016 1134.67 268.759 1135.93 L268.759 1132.1 Q271.053 1131.18 273.047 1130.71 Q275.04 1130.24 276.695 1130.24 Q281.059 1130.24 283.654 1132.42 Q286.25 1134.6 286.25 1138.25 Q286.25 1139.98 285.592 1141.54 Q284.952 1143.08 283.241 1145.19 Q282.77 1145.73 280.25 1148.35 Q277.73 1150.94 273.141 1155.63 Z" fill="#000000" fill-rule="nonzero" fill-opacity="1"></path><path clip-path="url(#clip930)" d="M57.7745 899.089 L74.0939 899.089 L74.0939 903.025 L52.1495 903.025 L52.1495 899.089 Q54.8115 896.335 59.3949 891.705 Q64.0013 887.052 65.1819 885.71 Q67.4272 883.187 68.3068 881.451 Q69.2096 879.691 69.2096 878.002 Q69.2096 875.247 67.2652 873.511 Q65.3439 871.775 62.2421 871.775 Q60.043 871.775 57.5893 872.539 Q55.1588 873.302 52.381 874.853 L52.381 870.131 Q55.2051 868.997 57.6588 868.418 Q60.1124 867.84 62.1495 867.84 Q67.5198 867.84 70.7142 870.525 Q73.9087 873.21 73.9087 877.701 Q73.9087 879.83 73.0985 881.751 Q72.3115 883.65 70.205 886.242 Q69.6263 886.913 66.5245 890.131 Q63.4226 893.326 57.7745 899.089 Z" fill="#000000" fill-rule="nonzero" fill-opacity="1"></path><path clip-path="url(#clip930)" d="M83.9086 897.145 L88.7928 897.145 L88.7928 903.025 L83.9086 903.025 L83.9086 897.145 Z" fill="#000000" fill-rule="nonzero" fill-opacity="1"></path><path clip-path="url(#clip930)" d="M108.978 871.543 Q105.367 871.543 103.538 875.108 Q101.733 878.65 101.733 885.779 Q101.733 892.886 103.538 896.45 Q105.367 899.992 108.978 899.992 Q112.612 899.992 114.418 896.45 Q116.246 892.886 116.246 885.779 Q116.246 878.65 114.418 875.108 Q112.612 871.543 108.978 871.543 M108.978 867.84 Q114.788 867.84 117.844 872.446 Q120.922 877.029 120.922 885.779 Q120.922 894.506 117.844 899.113 Q114.788 903.696 108.978 903.696 Q103.168 903.696 100.089 899.113 Q97.0335 894.506 97.0335 885.779 Q97.0335 877.029 100.089 872.446 Q103.168 867.84 108.978 867.84 Z" fill="#000000" fill-rule="nonzero" fill-opacity="1"></path><path clip-path="url(#clip930)" d="M157.311 877.562 L146.732 888.187 L157.311 898.765 L154.556 901.566 L143.931 890.941 L133.306 901.566 L130.575 898.765 L141.131 888.187 L130.575 877.562 L133.306 874.761 L143.931 885.386 L154.556 874.761 L157.311 877.562 Z" fill="#000000" fill-rule="nonzero" fill-opacity="1"></path><path clip-path="url(#clip930)" d="M169.672 899.089 L177.311 899.089 L177.311 872.724 L169.001 874.39 L169.001 870.131 L177.265 868.465 L181.94 868.465 L181.94 899.089 L189.579 899.089 L189.579 903.025 L169.672 903.025 L169.672 899.089 Z" fill="#000000" fill-rule="nonzero" fill-opacity="1"></path><path clip-path="url(#clip930)" d="M209.024 871.543 Q205.413 871.543 203.584 875.108 Q201.778 878.65 201.778 885.779 Q201.778 892.886 203.584 896.45 Q205.413 899.992 209.024 899.992 Q212.658 899.992 214.463 896.45 Q216.292 892.886 216.292 885.779 Q216.292 878.65 214.463 875.108 Q212.658 871.543 209.024 871.543 M209.024 867.84 Q214.834 867.84 217.889 872.446 Q220.968 877.029 220.968 885.779 Q220.968 894.506 217.889 899.113 Q214.834 903.696 209.024 903.696 Q203.214 903.696 200.135 899.113 Q197.079 894.506 197.079 885.779 Q197.079 877.029 200.135 872.446 Q203.214 867.84 209.024 867.84 Z" fill="#000000" fill-rule="nonzero" fill-opacity="1"></path><path clip-path="url(#clip930)" d="M221.513 872.417 L227.72 872.417 L227.72 850.995 L220.968 852.349 L220.968 848.888 L227.682 847.534 L231.482 847.534 L231.482 872.417 L237.688 872.417 L237.688 875.614 L221.513 875.614 L221.513 872.417 Z" fill="#000000" fill-rule="nonzero" fill-opacity="1"></path><path clip-path="url(#clip930)" d="M253.487 850.036 Q250.553 850.036 249.067 852.932 Q247.6 855.81 247.6 861.602 Q247.6 867.376 249.067 870.273 Q250.553 873.15 253.487 873.15 Q256.44 873.15 257.907 870.273 Q259.392 867.376 259.392 861.602 Q259.392 855.81 257.907 852.932 Q256.44 850.036 253.487 850.036 M253.487 847.026 Q258.207 847.026 260.69 850.769 Q263.192 854.493 263.192 861.602 Q263.192 868.693 260.69 872.436 Q258.207 876.16 253.487 876.16 Q248.766 876.16 246.265 872.436 Q243.782 868.693 243.782 861.602 Q243.782 854.493 246.265 850.769 Q248.766 847.026 253.487 847.026 Z" fill="#000000" fill-rule="nonzero" fill-opacity="1"></path><path clip-path="url(#clip930)" d="M273.141 872.417 L286.4 872.417 L286.4 875.614 L268.571 875.614 L268.571 872.417 Q270.733 870.179 274.457 866.417 Q278.2 862.637 279.159 861.546 Q280.984 859.496 281.698 858.085 Q282.432 856.656 282.432 855.283 Q282.432 853.045 280.852 851.634 Q279.291 850.224 276.771 850.224 Q274.984 850.224 272.99 850.844 Q271.016 851.465 268.759 852.725 L268.759 848.888 Q271.053 847.967 273.047 847.497 Q275.04 847.026 276.695 847.026 Q281.059 847.026 283.654 849.208 Q286.25 851.39 286.25 855.038 Q286.25 856.769 285.592 858.33 Q284.952 859.872 283.241 861.978 Q282.77 862.524 280.25 865.138 Q277.73 867.734 273.141 872.417 Z" fill="#000000" fill-rule="nonzero" fill-opacity="1"></path><path clip-path="url(#clip930)" d="M67.9133 601.181 Q71.2698 601.899 73.1448 604.167 Q75.0429 606.436 75.0429 609.769 Q75.0429 614.885 71.5244 617.686 Q68.0059 620.486 61.5245 620.486 Q59.3486 620.486 57.0338 620.047 Q54.7421 619.63 52.2884 618.773 L52.2884 614.26 Q54.2328 615.394 56.5477 615.973 Q58.8625 616.551 61.3856 616.551 Q65.7837 616.551 68.0754 614.815 Q70.3902 613.079 70.3902 609.769 Q70.3902 606.713 68.2374 605 Q66.1078 603.264 62.2884 603.264 L58.2606 603.264 L58.2606 599.422 L62.4735 599.422 Q65.9226 599.422 67.7513 598.056 Q69.58 596.667 69.58 594.075 Q69.58 591.413 67.6819 590 Q65.8069 588.565 62.2884 588.565 Q60.3671 588.565 58.168 588.982 Q55.969 589.399 53.3301 590.278 L53.3301 586.112 Q55.9921 585.371 58.3069 585.001 Q60.6449 584.63 62.705 584.63 Q68.0291 584.63 71.1309 587.061 Q74.2327 589.468 74.2327 593.588 Q74.2327 596.459 72.5892 598.45 Q70.9457 600.417 67.9133 601.181 Z" fill="#000000" fill-rule="nonzero" fill-opacity="1"></path><path clip-path="url(#clip930)" d="M83.9086 613.936 L88.7928 613.936 L88.7928 619.815 L83.9086 619.815 L83.9086 613.936 Z" fill="#000000" fill-rule="nonzero" fill-opacity="1"></path><path clip-path="url(#clip930)" d="M108.978 588.334 Q105.367 588.334 103.538 591.899 Q101.733 595.44 101.733 602.57 Q101.733 609.676 103.538 613.241 Q105.367 616.783 108.978 616.783 Q112.612 616.783 114.418 613.241 Q116.246 609.676 116.246 602.57 Q116.246 595.44 114.418 591.899 Q112.612 588.334 108.978 588.334 M108.978 584.63 Q114.788 584.63 117.844 589.237 Q120.922 593.82 120.922 602.57 Q120.922 611.297 117.844 615.903 Q114.788 620.486 108.978 620.486 Q103.168 620.486 100.089 615.903 Q97.0335 611.297 97.0335 602.57 Q97.0335 593.82 100.089 589.237 Q103.168 584.63 108.978 584.63 Z" fill="#000000" fill-rule="nonzero" fill-opacity="1"></path><path clip-path="url(#clip930)" d="M157.311 594.352 L146.732 604.977 L157.311 615.556 L154.556 618.357 L143.931 607.732 L133.306 618.357 L130.575 615.556 L141.131 604.977 L130.575 594.352 L133.306 591.551 L143.931 602.176 L154.556 591.551 L157.311 594.352 Z" fill="#000000" fill-rule="nonzero" fill-opacity="1"></path><path clip-path="url(#clip930)" d="M169.672 615.88 L177.311 615.88 L177.311 589.514 L169.001 591.181 L169.001 586.922 L177.265 585.255 L181.94 585.255 L181.94 615.88 L189.579 615.88 L189.579 619.815 L169.672 619.815 L169.672 615.88 Z" fill="#000000" fill-rule="nonzero" fill-opacity="1"></path><path clip-path="url(#clip930)" d="M209.024 588.334 Q205.413 588.334 203.584 591.899 Q201.778 595.44 201.778 602.57 Q201.778 609.676 203.584 613.241 Q205.413 616.783 209.024 616.783 Q212.658 616.783 214.463 613.241 Q216.292 609.676 216.292 602.57 Q216.292 595.44 214.463 591.899 Q212.658 588.334 209.024 588.334 M209.024 584.63 Q214.834 584.63 217.889 589.237 Q220.968 593.82 220.968 602.57 Q220.968 611.297 217.889 615.903 Q214.834 620.486 209.024 620.486 Q203.214 620.486 200.135 615.903 Q197.079 611.297 197.079 602.57 Q197.079 593.82 200.135 589.237 Q203.214 584.63 209.024 584.63 Z" fill="#000000" fill-rule="nonzero" fill-opacity="1"></path><path clip-path="url(#clip930)" d="M221.513 589.207 L227.72 589.207 L227.72 567.785 L220.968 569.14 L220.968 565.679 L227.682 564.325 L231.482 564.325 L231.482 589.207 L237.688 589.207 L237.688 592.405 L221.513 592.405 L221.513 589.207 Z" fill="#000000" fill-rule="nonzero" fill-opacity="1"></path><path clip-path="url(#clip930)" d="M253.487 566.826 Q250.553 566.826 249.067 569.723 Q247.6 572.6 247.6 578.393 Q247.6 584.167 249.067 587.063 Q250.553 589.941 253.487 589.941 Q256.44 589.941 257.907 587.063 Q259.392 584.167 259.392 578.393 Q259.392 572.6 257.907 569.723 Q256.44 566.826 253.487 566.826 M253.487 563.817 Q258.207 563.817 260.69 567.56 Q263.192 571.284 263.192 578.393 Q263.192 585.483 260.69 589.226 Q258.207 592.95 253.487 592.95 Q248.766 592.95 246.265 589.226 Q243.782 585.483 243.782 578.393 Q243.782 571.284 246.265 567.56 Q248.766 563.817 253.487 563.817 Z" fill="#000000" fill-rule="nonzero" fill-opacity="1"></path><path clip-path="url(#clip930)" d="M273.141 589.207 L286.4 589.207 L286.4 592.405 L268.571 592.405 L268.571 589.207 Q270.733 586.969 274.457 583.208 Q278.2 579.427 279.159 578.337 Q280.984 576.286 281.698 574.876 Q282.432 573.447 282.432 572.074 Q282.432 569.835 280.852 568.425 Q279.291 567.014 276.771 567.014 Q274.984 567.014 272.99 567.635 Q271.016 568.256 268.759 569.516 L268.759 565.679 Q271.053 564.757 273.047 564.287 Q275.04 563.817 276.695 563.817 Q281.059 563.817 283.654 565.999 Q286.25 568.18 286.25 571.829 Q286.25 573.559 285.592 575.12 Q284.952 576.663 283.241 578.769 Q282.77 579.315 280.25 581.929 Q277.73 584.524 273.141 589.207 Z" fill="#000000" fill-rule="nonzero" fill-opacity="1"></path><path clip-path="url(#clip930)" d="M66.5939 306.12 L54.7884 324.569 L66.5939 324.569 L66.5939 306.12 M65.367 302.046 L71.2466 302.046 L71.2466 324.569 L76.1772 324.569 L76.1772 328.458 L71.2466 328.458 L71.2466 336.606 L66.5939 336.606 L66.5939 328.458 L50.9921 328.458 L50.9921 323.944 L65.367 302.046 Z" fill="#000000" fill-rule="nonzero" fill-opacity="1"></path><path clip-path="url(#clip930)" d="M83.9086 330.726 L88.7928 330.726 L88.7928 336.606 L83.9086 336.606 L83.9086 330.726 Z" fill="#000000" fill-rule="nonzero" fill-opacity="1"></path><path clip-path="url(#clip930)" d="M108.978 305.124 Q105.367 305.124 103.538 308.689 Q101.733 312.231 101.733 319.36 Q101.733 326.467 103.538 330.032 Q105.367 333.573 108.978 333.573 Q112.612 333.573 114.418 330.032 Q116.246 326.467 116.246 319.36 Q116.246 312.231 114.418 308.689 Q112.612 305.124 108.978 305.124 M108.978 301.421 Q114.788 301.421 117.844 306.027 Q120.922 310.611 120.922 319.36 Q120.922 328.087 117.844 332.694 Q114.788 337.277 108.978 337.277 Q103.168 337.277 100.089 332.694 Q97.0335 328.087 97.0335 319.36 Q97.0335 310.611 100.089 306.027 Q103.168 301.421 108.978 301.421 Z" fill="#000000" fill-rule="nonzero" fill-opacity="1"></path><path clip-path="url(#clip930)" d="M157.311 311.143 L146.732 321.768 L157.311 332.347 L154.556 335.147 L143.931 324.522 L133.306 335.147 L130.575 332.347 L141.131 321.768 L130.575 311.143 L133.306 308.342 L143.931 318.967 L154.556 308.342 L157.311 311.143 Z" fill="#000000" fill-rule="nonzero" fill-opacity="1"></path><path clip-path="url(#clip930)" d="M169.672 332.671 L177.311 332.671 L177.311 306.305 L169.001 307.972 L169.001 303.712 L177.265 302.046 L181.94 302.046 L181.94 332.671 L189.579 332.671 L189.579 336.606 L169.672 336.606 L169.672 332.671 Z" fill="#000000" fill-rule="nonzero" fill-opacity="1"></path><path clip-path="url(#clip930)" d="M209.024 305.124 Q205.413 305.124 203.584 308.689 Q201.778 312.231 201.778 319.36 Q201.778 326.467 203.584 330.032 Q205.413 333.573 209.024 333.573 Q212.658 333.573 214.463 330.032 Q216.292 326.467 216.292 319.36 Q216.292 312.231 214.463 308.689 Q212.658 305.124 209.024 305.124 M209.024 301.421 Q214.834 301.421 217.889 306.027 Q220.968 310.611 220.968 319.36 Q220.968 328.087 217.889 332.694 Q214.834 337.277 209.024 337.277 Q203.214 337.277 200.135 332.694 Q197.079 328.087 197.079 319.36 Q197.079 310.611 200.135 306.027 Q203.214 301.421 209.024 301.421 Z" fill="#000000" fill-rule="nonzero" fill-opacity="1"></path><path clip-path="url(#clip930)" d="M221.513 305.998 L227.72 305.998 L227.72 284.576 L220.968 285.93 L220.968 282.47 L227.682 281.115 L231.482 281.115 L231.482 305.998 L237.688 305.998 L237.688 309.195 L221.513 309.195 L221.513 305.998 Z" fill="#000000" fill-rule="nonzero" fill-opacity="1"></path><path clip-path="url(#clip930)" d="M253.487 283.617 Q250.553 283.617 249.067 286.513 Q247.6 289.391 247.6 295.184 Q247.6 300.958 249.067 303.854 Q250.553 306.732 253.487 306.732 Q256.44 306.732 257.907 303.854 Q259.392 300.958 259.392 295.184 Q259.392 289.391 257.907 286.513 Q256.44 283.617 253.487 283.617 M253.487 280.608 Q258.207 280.608 260.69 284.35 Q263.192 288.074 263.192 295.184 Q263.192 302.274 260.69 306.017 Q258.207 309.741 253.487 309.741 Q248.766 309.741 246.265 306.017 Q243.782 302.274 243.782 295.184 Q243.782 288.074 246.265 284.35 Q248.766 280.608 253.487 280.608 Z" fill="#000000" fill-rule="nonzero" fill-opacity="1"></path><path clip-path="url(#clip930)" d="M273.141 305.998 L286.4 305.998 L286.4 309.195 L268.571 309.195 L268.571 305.998 Q270.733 303.76 274.457 299.998 Q278.2 296.218 279.159 295.127 Q280.984 293.077 281.698 291.667 Q282.432 290.237 282.432 288.864 Q282.432 286.626 280.852 285.215 Q279.291 283.805 276.771 283.805 Q274.984 283.805 272.99 284.426 Q271.016 285.046 268.759 286.306 L268.759 282.47 Q271.053 281.548 273.047 281.078 Q275.04 280.608 276.695 280.608 Q281.059 280.608 283.654 282.789 Q286.25 284.971 286.25 288.62 Q286.25 290.35 285.592 291.911 Q284.952 293.453 283.241 295.56 Q282.77 296.105 280.25 298.719 Q277.73 301.315 273.141 305.998 Z" fill="#000000" fill-rule="nonzero" fill-opacity="1"></path><polyline clip-path="url(#clip932)" style="stroke:#009af9; stroke-linecap:round; stroke-linejoin:round; stroke-width:4; stroke-opacity:1; fill:none" points="379.863,1445.72 383.717,1445.72 387.571,1445.72 391.425,1445.72 395.279,1445.72 399.133,1445.72 402.987,1445.72 406.841,1445.72 410.695,1445.72 414.549,1445.72 418.403,1445.72 422.257,1445.72 426.111,1445.72 429.965,1445.72 433.819,1445.72 437.673,1445.72 441.527,1445.72 445.381,1445.72 449.235,1445.72 453.089,1445.72 456.943,1445.72 460.797,1445.72 464.651,1445.72 468.505,1445.72 472.359,1445.72 476.213,1445.72 480.067,1445.72 483.921,1445.72 487.775,1445.72 491.629,1445.72 495.483,1445.72 499.337,1445.72 503.191,1445.72 507.045,1445.72 510.899,1445.72 514.753,1445.72 518.607,1445.72 522.461,1445.72 526.315,1445.72 530.169,1445.72 534.023,1445.72 537.877,1445.72 541.731,1445.72 545.584,1445.72 549.438,1445.72 553.292,1445.72 557.146,1445.72 561,1445.72 564.854,1445.72 568.708,1445.72 572.562,1445.72 576.416,1445.72 580.27,1445.72 584.124,1445.72 587.978,1445.72 591.832,1445.72 595.686,1445.72 599.54,1445.72 603.394,1445.72 607.248,1445.72 611.102,1445.72 614.956,1445.72 618.81,1445.72 622.664,1445.72 626.518,1445.72 630.372,1445.72 634.226,1445.72 638.08,1445.72 641.934,1445.72 645.788,1445.72 649.642,1445.72 653.496,1445.72 657.35,1445.72 661.204,1445.72 665.058,1445.72 668.912,1445.72 672.766,1445.72 676.62,1445.72 680.474,1445.72 684.328,1445.72 688.182,1445.72 692.036,1445.72 695.89,1445.72 699.744,1445.72 703.598,1445.72 707.452,1445.72 711.306,1445.72 715.16,1445.72 719.014,1445.72 722.868,1445.72 726.722,1445.72 730.576,1445.72 734.43,1445.72 738.284,1445.72 742.138,1445.72 745.992,1445.72 749.846,1445.72 753.7,1445.72 757.554,1445.72 761.408,1445.72 765.262,1445.72 769.116,1445.72 772.97,1445.72 776.823,1445.72 780.677,1445.72 784.531,1445.72 788.385,1445.72 792.239,1445.72 796.093,1445.72 799.947,1445.72 803.801,1445.72 807.655,1445.72 811.509,1445.72 815.363,1445.72 819.217,1445.72 823.071,1445.72 826.925,1445.72 830.779,1445.72 834.633,1445.72 838.487,1445.72 842.341,1445.72 846.195,1445.72 850.049,1445.72 853.903,1445.72 857.757,1445.72 861.611,1445.72 865.465,1445.72 869.319,1445.72 873.173,1445.72 877.027,1445.72 880.881,1445.72 884.735,1445.72 888.589,1445.72 892.443,1445.72 896.297,1445.72 900.151,1445.72 904.005,1445.72 907.859,1445.72 911.713,1445.72 915.567,1445.72 919.421,1445.72 923.275,1445.72 927.129,1445.72 930.983,1445.72 934.837,1445.72 938.691,1445.72 942.545,1445.72 946.399,1445.72 950.253,1445.72 954.107,1445.72 957.961,1445.72 961.815,1445.72 965.669,1445.72 969.523,1445.72 973.377,1445.72 977.231,1445.72 981.085,1445.72 984.939,1445.72 988.793,1445.72 992.647,1445.72 996.501,1445.72 1000.35,1445.72 1004.21,1445.72 1008.06,1445.72 1011.92,1445.72 1015.77,1445.72 1019.62,1445.72 1023.48,1445.72 1027.33,1445.72 1031.19,1445.72 1035.04,1445.72 1038.89,1445.72 1042.75,1445.72 1046.6,1445.72 1050.46,1445.72 1054.31,1445.72 1058.16,1445.72 1062.02,1445.72 1065.87,1445.72 1069.73,1445.72 1073.58,1445.72 1077.43,1445.72 1081.29,1445.72 1085.14,1445.72 1089,1445.72 1092.85,1445.72 1096.7,1445.72 1100.56,1445.72 1104.41,1445.72 1108.27,1445.72 1112.12,1445.72 1115.97,1445.72 1119.83,1445.72 1123.68,1445.72 1127.54,1445.72 1131.39,1445.72 1135.24,1445.72 1139.1,1445.72 1142.95,1445.72 1146.81,1445.72 1150.66,1445.72 1154.51,1445.72 1158.37,1445.72 1162.22,1445.72 1166.08,1445.72 1169.93,1445.72 1173.78,1445.72 1177.64,1445.72 1181.49,1445.72 1185.35,1445.72 1189.2,1445.72 1193.05,1445.72 1196.91,1445.72 1200.76,1445.72 1204.62,1445.72 1208.47,1445.72 1212.32,1445.72 1216.18,1445.72 1220.03,1445.72 1223.89,1445.72 1227.74,1445.72 1231.59,1445.72 1235.45,1445.72 1239.3,1445.72 1243.16,1445.72 1247.01,1445.72 1250.86,1445.72 1254.72,1445.72 1258.57,1445.72 1262.43,1445.72 1266.28,1445.72 1270.13,1445.72 1273.99,1445.72 1277.84,1445.72 1281.7,1445.72 1285.55,1445.72 1289.4,1445.72 1293.26,1445.72 1297.11,1445.72 1300.97,1445.72 1304.82,1445.72 1308.67,1445.72 1312.53,1445.72 1316.38,1445.72 1320.24,1445.72 1324.09,1445.72 1327.94,1445.72 1331.8,1445.72 1335.65,1445.72 1339.51,1445.72 1343.36,1445.72 1347.21,1445.72 1351.07,1445.72 1354.92,1445.72 1358.78,1445.72 1362.63,1445.72 1366.48,1445.72 1370.34,1445.72 1374.19,1445.72 1378.04,1445.72 1381.9,1445.72 1385.75,1445.72 1389.61,1445.72 1393.46,1445.72 1397.31,1445.72 1401.17,1445.72 1405.02,1445.72 1408.88,1445.72 1412.73,1445.72 1416.58,1445.72 1420.44,1445.72 1424.29,1445.72 1428.15,1445.72 1432,1445.72 1435.85,1445.72 1439.71,1445.72 1443.56,1445.72 1447.42,1445.72 1451.27,1445.72 1455.12,1445.72 1458.98,1445.72 1462.83,1445.72 1466.69,1445.72 1470.54,1445.72 1474.39,1445.72 1478.25,1445.72 1482.1,1445.72 1485.96,1445.72 1489.81,1445.72 1493.66,1445.72 1497.52,1445.72 1501.37,1445.72 1505.23,1445.72 1509.08,1445.72 1512.93,1445.72 1516.79,1445.72 1520.64,1445.72 1524.5,1445.72 1528.35,1445.72 1532.2,1445.72 1536.06,1445.72 1539.91,1445.72 1543.77,1445.72 1547.62,1445.72 1551.47,1445.72 1555.33,1445.72 1559.18,1445.72 1563.04,1445.72 1566.89,1445.72 1570.74,1445.72 1574.6,1445.72 1578.45,1445.72 1582.31,1445.72 1586.16,1445.72 1590.01,1445.72 1593.87,1445.72 1597.72,1445.72 1601.58,1445.72 1605.43,1445.72 1609.28,1445.72 1613.14,1445.72 1616.99,1445.72 1620.85,1445.72 1624.7,1445.72 1628.55,1445.72 1632.41,1445.72 1636.26,1445.72 1640.12,1445.72 1643.97,1445.72 1647.82,1445.72 1651.68,1445.72 1655.53,1445.72 1659.39,1445.72 1663.24,1445.72 1667.09,1445.72 1670.95,1445.72 1674.8,1445.72 1678.66,1445.72 1682.51,1445.72 1686.36,1445.72 1690.22,1445.72 1694.07,1445.72 1697.93,1445.72 1701.78,1445.72 1705.63,1445.72 1709.49,1445.72 1713.34,1445.72 1717.2,1445.72 1721.05,1445.72 1724.9,1445.72 1728.76,1445.72 1732.61,1445.72 1736.47,1445.72 1740.32,1445.72 1744.17,1445.72 1748.03,1445.72 1751.88,1445.72 1755.74,1445.72 1759.59,1445.72 1763.44,1445.72 1767.3,1445.72 1771.15,1445.72 1775.01,1445.72 1778.86,1445.72 1782.71,1445.72 1786.57,1445.72 1790.42,1445.72 1794.28,1445.72 1798.13,1445.72 1801.98,1445.72 1805.84,1445.72 1809.69,1445.72 1813.55,1445.72 1817.4,1445.72 1821.25,1445.72 1825.11,1445.72 1828.96,1445.72 1832.81,1445.72 1836.67,1445.72 1840.52,1445.72 1844.38,1445.72 1848.23,1445.72 1852.08,1445.72 1855.94,1445.72 1859.79,1445.72 1863.65,1445.72 1867.5,1445.72 1871.35,1445.72 1875.21,1445.72 1879.06,1445.72 1882.92,1445.72 1886.77,1445.72 1890.62,1445.72 1894.48,1445.72 1898.33,1445.72 1902.19,1445.72 1906.04,1445.72 1909.89,1445.72 1913.75,1445.72 1917.6,1445.72 1921.46,1445.72 1925.31,1445.72 1929.16,1445.72 1933.02,1445.72 1936.87,1445.72 1940.73,1445.72 1944.58,1445.72 1948.43,1445.72 1952.29,1445.72 1956.14,1445.72 1960,1445.72 1963.85,1445.72 1967.7,1445.72 1971.56,1445.72 1975.41,1445.72 1979.27,1445.72 1983.12,1445.72 1986.97,1445.72 1990.83,1445.72 1994.68,1445.72 1998.54,1445.72 2002.39,1445.72 2006.24,1445.72 2010.1,1445.72 2013.95,1445.72 2017.81,1445.72 2021.66,1445.72 2025.51,1445.72 2029.37,1445.72 2033.22,1445.72 2037.08,1445.72 2040.93,1445.72 2044.78,1445.72 2048.64,1445.72 2052.49,1445.72 2056.35,1445.72 2060.2,1445.72 2064.05,1445.72 2067.91,1445.72 2071.76,1445.72 2075.62,1445.72 2079.47,1445.72 2083.32,1445.72 2087.18,1445.72 2091.03,1445.72 2094.89,1445.72 2098.74,1445.72 2102.59,1445.72 2106.45,1445.72 2110.3,1445.72 2114.16,1445.72 2118.01,1445.72 2121.86,1445.72 2125.72,1445.72 2129.57,1445.72 2133.43,1445.72 2137.28,1445.72 2141.13,1445.72 2144.99,1445.72 2148.84,1445.72 2152.7,1445.72 2156.55,1445.72 2160.4,1445.72 2164.26,1445.72 2168.11,1445.72 2171.97,1445.72 2175.82,1445.72 2179.67,1445.71 2183.53,1445.71 2187.38,1445.71 2191.24,1445.71 2195.09,1445.71 2198.94,1445.71 2202.8,1445.7 2206.65,1445.69 2210.51,1445.68 2214.36,1445.65 2218.21,1445.62 2222.07,1445.55 2225.92,1445.46 2229.78,1445.3 2233.63,1445.04 2237.48,1444.63 2241.34,1443.97 2245.19,1442.91 2249.05,1441.21 2252.9,1438.46 2256.75,1434.04 2260.61,1426.94 2264.46,1415.5 2268.32,1397.09 2272.17,1367.48 2276.02,1319.83 2279.88,1243.16 2283.73,1119.8 2287.59,921.3 2291.44,601.903 2295.29,87.9763 "></polyline>
<path clip-path="url(#clip930)" d="M390.079 198.898 L645.545 198.898 L645.545 95.2176 L390.079 95.2176  Z" fill="#ffffff" fill-rule="evenodd" fill-opacity="1"></path>
<polyline clip-path="url(#clip930)" style="stroke:#000000; stroke-linecap:round; stroke-linejoin:round; stroke-width:4; stroke-opacity:1; fill:none" points="390.079,198.898 645.545,198.898 645.545,95.2176 390.079,95.2176 390.079,198.898 "></polyline>
<polyline clip-path="url(#clip930)" style="stroke:#009af9; stroke-linecap:round; stroke-linejoin:round; stroke-width:4; stroke-opacity:1; fill:none" points="412.638,147.058 547.995,147.058 "></polyline>
<path clip-path="url(#clip930)" d="M584.397 166.745 Q582.592 171.375 580.879 172.787 Q579.166 174.199 576.296 174.199 L572.893 174.199 L572.893 170.634 L575.393 170.634 Q577.152 170.634 578.124 169.8 Q579.096 168.967 580.277 165.865 L581.041 163.921 L570.555 138.412 L575.069 138.412 L583.171 158.689 L591.272 138.412 L595.786 138.412 L584.397 166.745 Z" fill="#000000" fill-rule="nonzero" fill-opacity="1"></path><path clip-path="url(#clip930)" d="M603.078 160.402 L610.717 160.402 L610.717 134.037 L602.407 135.703 L602.407 131.444 L610.67 129.778 L615.346 129.778 L615.346 160.402 L622.985 160.402 L622.985 164.338 L603.078 164.338 L603.078 160.402 Z" fill="#000000" fill-rule="nonzero" fill-opacity="1"></path></svg>