<svg xmlns="http://www.w3.org/2000/svg" xmlns:xlink="http://www.w3.org/1999/xlink" width="600" height="400" viewBox="0 0 2400 1600">
<defs>
  <clipPath id="clip090">
    <rect x="0" y="0" width="2400" height="1600"></rect>
  </clipPath>
</defs>
<path clip-path="url(#clip090)" d="M0 1600 L2400 1600 L2400 8.88178e-14 L0 8.88178e-14  Z" fill="#ffffff" fill-rule="evenodd" fill-opacity="1"></path>
<defs>
  <clipPath id="clip091">
    <rect x="480" y="0" width="1681" height="1600"></rect>
  </clipPath>
</defs>
<path clip-path="url(#clip090)" d="M184.191 1486.45 L2352.76 1486.45 L2352.76 47.2441 L184.191 47.2441  Z" fill="#ffffff" fill-rule="evenodd" fill-opacity="1"></path>
<defs>
  <clipPath id="clip092">
    <rect x="184" y="47" width="2170" height="1440"></rect>
  </clipPath>
</defs>
<polyline clip-path="url(#clip092)" style="stroke:#000000; stroke-linecap:round; stroke-linejoin:round; stroke-width:2; stroke-opacity:0.1; fill:none" points="401.179,1486.45 401.179,47.2441 "></polyline>
<polyline clip-path="url(#clip092)" style="stroke:#000000; stroke-linecap:round; stroke-linejoin:round; stroke-width:2; stroke-opacity:0.1; fill:none" points="691.157,1486.45 691.157,47.2441 "></polyline>
<polyline clip-path="url(#clip092)" style="stroke:#000000; stroke-linecap:round; stroke-linejoin:round; stroke-width:2; stroke-opacity:0.1; fill:none" points="981.134,1486.45 981.134,47.2441 "></polyline>
<polyline clip-path="url(#clip092)" style="stroke:#000000; stroke-linecap:round; stroke-linejoin:round; stroke-width:2; stroke-opacity:0.1; fill:none" points="1271.11,1486.45 1271.11,47.2441 "></polyline>
<polyline clip-path="url(#clip092)" style="stroke:#000000; stroke-linecap:round; stroke-linejoin:round; stroke-width:2; stroke-opacity:0.1; fill:none" points="1561.09,1486.45 1561.09,47.2441 "></polyline>
<polyline clip-path="url(#clip092)" style="stroke:#000000; stroke-linecap:round; stroke-linejoin:round; stroke-width:2; stroke-opacity:0.1; fill:none" points="1851.07,1486.45 1851.07,47.2441 "></polyline>
<polyline clip-path="url(#clip092)" style="stroke:#000000; stroke-linecap:round; stroke-linejoin:round; stroke-width:2; stroke-opacity:0.1; fill:none" points="2141.05,1486.45 2141.05,47.2441 "></polyline>
<polyline clip-path="url(#clip092)" style="stroke:#000000; stroke-linecap:round; stroke-linejoin:round; stroke-width:2; stroke-opacity:0.1; fill:none" points="184.191,1445.72 2352.76,1445.72 "></polyline>
<polyline clip-path="url(#clip092)" style="stroke:#000000; stroke-linecap:round; stroke-linejoin:round; stroke-width:2; stroke-opacity:0.1; fill:none" points="184.191,1152.88 2352.76,1152.88 "></polyline>
<polyline clip-path="url(#clip092)" style="stroke:#000000; stroke-linecap:round; stroke-linejoin:round; stroke-width:2; stroke-opacity:0.1; fill:none" points="184.191,860.05 2352.76,860.05 "></polyline>
<polyline clip-path="url(#clip092)" style="stroke:#000000; stroke-linecap:round; stroke-linejoin:round; stroke-width:2; stroke-opacity:0.1; fill:none" points="184.191,567.217 2352.76,567.217 "></polyline>
<polyline clip-path="url(#clip092)" style="stroke:#000000; stroke-linecap:round; stroke-linejoin:round; stroke-width:2; stroke-opacity:0.1; fill:none" points="184.191,274.384 2352.76,274.384 "></polyline>
<polyline clip-path="url(#clip090)" style="stroke:#000000; stroke-linecap:round; stroke-linejoin:round; stroke-width:4; stroke-opacity:1; fill:none" points="184.191,1486.45 2352.76,1486.45 "></polyline>
<polyline clip-path="url(#clip090)" style="stroke:#000000; stroke-linecap:round; stroke-linejoin:round; stroke-width:4; stroke-opacity:1; fill:none" points="401.179,1486.45 401.179,1467.55 "></polyline>
<polyline clip-path="url(#clip090)" style="stroke:#000000; stroke-linecap:round; stroke-linejoin:round; stroke-width:4; stroke-opacity:1; fill:none" points="691.157,1486.45 691.157,1467.55 "></polyline>
<polyline clip-path="url(#clip090)" style="stroke:#000000; stroke-linecap:round; stroke-linejoin:round; stroke-width:4; stroke-opacity:1; fill:none" points="981.134,1486.45 981.134,1467.55 "></polyline>
<polyline clip-path="url(#clip090)" style="stroke:#000000; stroke-linecap:round; stroke-linejoin:round; stroke-width:4; stroke-opacity:1; fill:none" points="1271.11,1486.45 1271.11,1467.55 "></polyline>
<polyline clip-path="url(#clip090)" style="stroke:#000000; stroke-linecap:round; stroke-linejoin:round; stroke-width:4; stroke-opacity:1; fill:none" points="1561.09,1486.45 1561.09,1467.55 "></polyline>
<polyline clip-path="url(#clip090)" style="stroke:#000000; stroke-linecap:round; stroke-linejoin:round; stroke-width:4; stroke-opacity:1; fill:none" points="1851.07,1486.45 1851.07,1467.55 "></polyline>
<polyline clip-path="url(#clip090)" style="stroke:#000000; stroke-linecap:round; stroke-linejoin:round; stroke-width:4; stroke-opacity:1; fill:none" points="2141.05,1486.45 2141.05,1467.55 "></polyline>
<path clip-path="url(#clip090)" d="M363.98 1517.37 Q360.369 1517.37 358.54 1520.93 Q356.735 1524.47 356.735 1531.6 Q356.735 1538.71 358.54 1542.27 Q360.369 1545.82 363.98 1545.82 Q367.614 1545.82 369.42 1542.27 Q371.249 1538.71 371.249 1531.6 Q371.249 1524.47 369.42 1520.93 Q367.614 1517.37 363.98 1517.37 M363.98 1513.66 Q369.79 1513.66 372.846 1518.27 Q375.925 1522.85 375.925 1531.6 Q375.925 1540.33 372.846 1544.94 Q369.79 1549.52 363.98 1549.52 Q358.17 1549.52 355.091 1544.94 Q352.036 1540.33 352.036 1531.6 Q352.036 1522.85 355.091 1518.27 Q358.17 1513.66 363.98 1513.66 Z" fill="#000000" fill-rule="nonzero" fill-opacity="1"></path><path clip-path="url(#clip090)" d="M384.142 1542.97 L389.026 1542.97 L389.026 1548.85 L384.142 1548.85 L384.142 1542.97 Z" fill="#000000" fill-rule="nonzero" fill-opacity="1"></path><path clip-path="url(#clip090)" d="M398.031 1514.29 L420.253 1514.29 L420.253 1516.28 L407.707 1548.85 L402.823 1548.85 L414.628 1518.22 L398.031 1518.22 L398.031 1514.29 Z" fill="#000000" fill-rule="nonzero" fill-opacity="1"></path><path clip-path="url(#clip090)" d="M429.42 1514.29 L447.776 1514.29 L447.776 1518.22 L433.702 1518.22 L433.702 1526.7 Q434.721 1526.35 435.739 1526.19 Q436.758 1526 437.776 1526 Q443.563 1526 446.943 1529.17 Q450.322 1532.34 450.322 1537.76 Q450.322 1543.34 446.85 1546.44 Q443.378 1549.52 437.059 1549.52 Q434.883 1549.52 432.614 1549.15 Q430.369 1548.78 427.961 1548.04 L427.961 1543.34 Q430.045 1544.47 432.267 1545.03 Q434.489 1545.58 436.966 1545.58 Q440.971 1545.58 443.308 1543.48 Q445.646 1541.37 445.646 1537.76 Q445.646 1534.15 443.308 1532.04 Q440.971 1529.94 436.966 1529.94 Q435.091 1529.94 433.216 1530.35 Q431.364 1530.77 429.42 1531.65 L429.42 1514.29 Z" fill="#000000" fill-rule="nonzero" fill-opacity="1"></path><path clip-path="url(#clip090)" d="M653.46 1517.37 Q649.849 1517.37 648.02 1520.93 Q646.215 1524.47 646.215 1531.6 Q646.215 1538.71 648.02 1542.27 Q649.849 1545.82 653.46 1545.82 Q657.094 1545.82 658.9 1542.27 Q660.729 1538.71 660.729 1531.6 Q660.729 1524.47 658.9 1520.93 Q657.094 1517.37 653.46 1517.37 M653.46 1513.66 Q659.27 1513.66 662.326 1518.27 Q665.405 1522.85 665.405 1531.6 Q665.405 1540.33 662.326 1544.94 Q659.27 1549.52 653.46 1549.52 Q647.65 1549.52 644.571 1544.94 Q641.516 1540.33 641.516 1531.6 Q641.516 1522.85 644.571 1518.27 Q647.65 1513.66 653.46 1513.66 Z" fill="#000000" fill-rule="nonzero" fill-opacity="1"></path><path clip-path="url(#clip090)" d="M673.622 1542.97 L678.506 1542.97 L678.506 1548.85 L673.622 1548.85 L673.622 1542.97 Z" fill="#000000" fill-rule="nonzero" fill-opacity="1"></path><path clip-path="url(#clip090)" d="M698.691 1532.44 Q695.358 1532.44 693.437 1534.22 Q691.539 1536 691.539 1539.13 Q691.539 1542.25 693.437 1544.03 Q695.358 1545.82 698.691 1545.82 Q702.025 1545.82 703.946 1544.03 Q705.867 1542.23 705.867 1539.13 Q705.867 1536 703.946 1534.22 Q702.048 1532.44 698.691 1532.44 M694.016 1530.45 Q691.006 1529.7 689.317 1527.64 Q687.65 1525.58 687.65 1522.62 Q687.65 1518.48 690.59 1516.07 Q693.553 1513.66 698.691 1513.66 Q703.853 1513.66 706.793 1516.07 Q709.733 1518.48 709.733 1522.62 Q709.733 1525.58 708.043 1527.64 Q706.377 1529.7 703.391 1530.45 Q706.77 1531.23 708.645 1533.52 Q710.543 1535.82 710.543 1539.13 Q710.543 1544.15 707.465 1546.83 Q704.409 1549.52 698.691 1549.52 Q692.974 1549.52 689.895 1546.83 Q686.84 1544.15 686.84 1539.13 Q686.84 1535.82 688.738 1533.52 Q690.636 1531.23 694.016 1530.45 M692.303 1523.06 Q692.303 1525.75 693.969 1527.25 Q695.659 1528.76 698.691 1528.76 Q701.701 1528.76 703.391 1527.25 Q705.103 1525.75 705.103 1523.06 Q705.103 1520.38 703.391 1518.87 Q701.701 1517.37 698.691 1517.37 Q695.659 1517.37 693.969 1518.87 Q692.303 1520.38 692.303 1523.06 Z" fill="#000000" fill-rule="nonzero" fill-opacity="1"></path><path clip-path="url(#clip090)" d="M728.853 1517.37 Q725.242 1517.37 723.414 1520.93 Q721.608 1524.47 721.608 1531.6 Q721.608 1538.71 723.414 1542.27 Q725.242 1545.82 728.853 1545.82 Q732.488 1545.82 734.293 1542.27 Q736.122 1538.71 736.122 1531.6 Q736.122 1524.47 734.293 1520.93 Q732.488 1517.37 728.853 1517.37 M728.853 1513.66 Q734.663 1513.66 737.719 1518.27 Q740.798 1522.85 740.798 1531.6 Q740.798 1540.33 737.719 1544.94 Q734.663 1549.52 728.853 1549.52 Q723.043 1549.52 719.965 1544.94 Q716.909 1540.33 716.909 1531.6 Q716.909 1522.85 719.965 1518.27 Q723.043 1513.66 728.853 1513.66 Z" fill="#000000" fill-rule="nonzero" fill-opacity="1"></path><path clip-path="url(#clip090)" d="M943.936 1517.37 Q940.325 1517.37 938.496 1520.93 Q936.69 1524.47 936.69 1531.6 Q936.69 1538.71 938.496 1542.27 Q940.325 1545.82 943.936 1545.82 Q947.57 1545.82 949.375 1542.27 Q951.204 1538.71 951.204 1531.6 Q951.204 1524.47 949.375 1520.93 Q947.57 1517.37 943.936 1517.37 M943.936 1513.66 Q949.746 1513.66 952.801 1518.27 Q955.88 1522.85 955.88 1531.6 Q955.88 1540.33 952.801 1544.94 Q949.746 1549.52 943.936 1549.52 Q938.125 1549.52 935.047 1544.94 Q931.991 1540.33 931.991 1531.6 Q931.991 1522.85 935.047 1518.27 Q938.125 1513.66 943.936 1513.66 Z" fill="#000000" fill-rule="nonzero" fill-opacity="1"></path><path clip-path="url(#clip090)" d="M964.098 1542.97 L968.982 1542.97 L968.982 1548.85 L964.098 1548.85 L964.098 1542.97 Z" fill="#000000" fill-rule="nonzero" fill-opacity="1"></path><path clip-path="url(#clip090)" d="M989.167 1532.44 Q985.834 1532.44 983.912 1534.22 Q982.014 1536 982.014 1539.13 Q982.014 1542.25 983.912 1544.03 Q985.834 1545.82 989.167 1545.82 Q992.5 1545.82 994.421 1544.03 Q996.343 1542.23 996.343 1539.13 Q996.343 1536 994.421 1534.22 Q992.523 1532.44 989.167 1532.44 M984.491 1530.45 Q981.482 1529.7 979.792 1527.64 Q978.125 1525.58 978.125 1522.62 Q978.125 1518.48 981.065 1516.07 Q984.028 1513.66 989.167 1513.66 Q994.329 1513.66 997.269 1516.07 Q1000.21 1518.48 1000.21 1522.62 Q1000.21 1525.58 998.519 1527.64 Q996.852 1529.7 993.866 1530.45 Q997.246 1531.23 999.121 1533.52 Q1001.02 1535.82 1001.02 1539.13 Q1001.02 1544.15 997.94 1546.83 Q994.884 1549.52 989.167 1549.52 Q983.449 1549.52 980.371 1546.83 Q977.315 1544.15 977.315 1539.13 Q977.315 1535.82 979.213 1533.52 Q981.111 1531.23 984.491 1530.45 M982.778 1523.06 Q982.778 1525.75 984.445 1527.25 Q986.134 1528.76 989.167 1528.76 Q992.176 1528.76 993.866 1527.25 Q995.579 1525.75 995.579 1523.06 Q995.579 1520.38 993.866 1518.87 Q992.176 1517.37 989.167 1517.37 Q986.134 1517.37 984.445 1518.87 Q982.778 1520.38 982.778 1523.06 Z" fill="#000000" fill-rule="nonzero" fill-opacity="1"></path><path clip-path="url(#clip090)" d="M1009.38 1514.29 L1027.73 1514.29 L1027.73 1518.22 L1013.66 1518.22 L1013.66 1526.7 Q1014.68 1526.35 1015.69 1526.19 Q1016.71 1526 1017.73 1526 Q1023.52 1526 1026.9 1529.17 Q1030.28 1532.34 1030.28 1537.76 Q1030.28 1543.34 1026.81 1546.44 Q1023.33 1549.52 1017.01 1549.52 Q1014.84 1549.52 1012.57 1549.15 Q1010.32 1548.78 1007.92 1548.04 L1007.92 1543.34 Q1010 1544.47 1012.22 1545.03 Q1014.44 1545.58 1016.92 1545.58 Q1020.93 1545.58 1023.26 1543.48 Q1025.6 1541.37 1025.6 1537.76 Q1025.6 1534.15 1023.26 1532.04 Q1020.93 1529.94 1016.92 1529.94 Q1015.05 1529.94 1013.17 1530.35 Q1011.32 1530.77 1009.38 1531.65 L1009.38 1514.29 Z" fill="#000000" fill-rule="nonzero" fill-opacity="1"></path><path clip-path="url(#clip090)" d="M1233.42 1517.37 Q1229.8 1517.37 1227.98 1520.93 Q1226.17 1524.47 1226.17 1531.6 Q1226.17 1538.71 1227.98 1542.27 Q1229.8 1545.82 1233.42 1545.82 Q1237.05 1545.82 1238.86 1542.27 Q1240.68 1538.71 1240.68 1531.6 Q1240.68 1524.47 1238.86 1520.93 Q1237.05 1517.37 1233.42 1517.37 M1233.42 1513.66 Q1239.23 1513.66 1242.28 1518.27 Q1245.36 1522.85 1245.36 1531.6 Q1245.36 1540.33 1242.28 1544.94 Q1239.23 1549.52 1233.42 1549.52 Q1227.61 1549.52 1224.53 1544.94 Q1221.47 1540.33 1221.47 1531.6 Q1221.47 1522.85 1224.53 1518.27 Q1227.61 1513.66 1233.42 1513.66 Z" fill="#000000" fill-rule="nonzero" fill-opacity="1"></path><path clip-path="url(#clip090)" d="M1253.58 1542.97 L1258.46 1542.97 L1258.46 1548.85 L1253.58 1548.85 L1253.58 1542.97 Z" fill="#000000" fill-rule="nonzero" fill-opacity="1"></path><path clip-path="url(#clip090)" d="M1268.79 1548.13 L1268.79 1543.87 Q1270.55 1544.7 1272.35 1545.14 Q1274.16 1545.58 1275.89 1545.58 Q1280.52 1545.58 1282.95 1542.48 Q1285.41 1539.36 1285.75 1533.01 Q1284.41 1535.01 1282.35 1536.07 Q1280.29 1537.13 1277.79 1537.13 Q1272.61 1537.13 1269.57 1534.01 Q1266.56 1530.86 1266.56 1525.42 Q1266.56 1520.1 1269.71 1516.88 Q1272.86 1513.66 1278.09 1513.66 Q1284.09 1513.66 1287.23 1518.27 Q1290.41 1522.85 1290.41 1531.6 Q1290.41 1539.77 1286.52 1544.66 Q1282.65 1549.52 1276.1 1549.52 Q1274.34 1549.52 1272.54 1549.17 Q1270.73 1548.82 1268.79 1548.13 M1278.09 1533.48 Q1281.24 1533.48 1283.07 1531.32 Q1284.92 1529.17 1284.92 1525.42 Q1284.92 1521.7 1283.07 1519.54 Q1281.24 1517.37 1278.09 1517.37 Q1274.94 1517.37 1273.09 1519.54 Q1271.26 1521.7 1271.26 1525.42 Q1271.26 1529.17 1273.09 1531.32 Q1274.94 1533.48 1278.09 1533.48 Z" fill="#000000" fill-rule="nonzero" fill-opacity="1"></path><path clip-path="url(#clip090)" d="M1308.81 1517.37 Q1305.2 1517.37 1303.37 1520.93 Q1301.56 1524.47 1301.56 1531.6 Q1301.56 1538.71 1303.37 1542.27 Q1305.2 1545.82 1308.81 1545.82 Q1312.44 1545.82 1314.25 1542.27 Q1316.08 1538.71 1316.08 1531.6 Q1316.08 1524.47 1314.25 1520.93 Q1312.44 1517.37 1308.81 1517.37 M1308.81 1513.66 Q1314.62 1513.66 1317.67 1518.27 Q1320.75 1522.85 1320.75 1531.6 Q1320.75 1540.33 1317.67 1544.94 Q1314.62 1549.52 1308.81 1549.52 Q1303 1549.52 1299.92 1544.94 Q1296.86 1540.33 1296.86 1531.6 Q1296.86 1522.85 1299.92 1518.27 Q1303 1513.66 1308.81 1513.66 Z" fill="#000000" fill-rule="nonzero" fill-opacity="1"></path><path clip-path="url(#clip090)" d="M1523.89 1517.37 Q1520.28 1517.37 1518.45 1520.93 Q1516.65 1524.47 1516.65 1531.6 Q1516.65 1538.71 1518.45 1542.27 Q1520.28 1545.82 1523.89 1545.82 Q1527.53 1545.82 1529.33 1542.27 Q1531.16 1538.71 1531.16 1531.6 Q1531.16 1524.47 1529.33 1520.93 Q1527.53 1517.37 1523.89 1517.37 M1523.89 1513.66 Q1529.7 1513.66 1532.76 1518.27 Q1535.84 1522.85 1535.84 1531.6 Q1535.84 1540.33 1532.76 1544.94 Q1529.7 1549.52 1523.89 1549.52 Q1518.08 1549.52 1515 1544.94 Q1511.95 1540.33 1511.95 1531.6 Q1511.95 1522.85 1515 1518.27 Q1518.08 1513.66 1523.89 1513.66 Z" fill="#000000" fill-rule="nonzero" fill-opacity="1"></path><path clip-path="url(#clip090)" d="M1544.05 1542.97 L1548.94 1542.97 L1548.94 1548.85 L1544.05 1548.85 L1544.05 1542.97 Z" fill="#000000" fill-rule="nonzero" fill-opacity="1"></path><path clip-path="url(#clip090)" d="M1559.26 1548.13 L1559.26 1543.87 Q1561.02 1544.7 1562.83 1545.14 Q1564.63 1545.58 1566.37 1545.58 Q1571 1545.58 1573.43 1542.48 Q1575.88 1539.36 1576.23 1533.01 Q1574.89 1535.01 1572.83 1536.07 Q1570.77 1537.13 1568.27 1537.13 Q1563.08 1537.13 1560.05 1534.01 Q1557.04 1530.86 1557.04 1525.42 Q1557.04 1520.1 1560.19 1516.88 Q1563.34 1513.66 1568.57 1513.66 Q1574.56 1513.66 1577.71 1518.27 Q1580.88 1522.85 1580.88 1531.6 Q1580.88 1539.77 1576.99 1544.66 Q1573.13 1549.52 1566.58 1549.52 Q1564.82 1549.52 1563.01 1549.17 Q1561.21 1548.82 1559.26 1548.13 M1568.57 1533.48 Q1571.71 1533.48 1573.54 1531.32 Q1575.4 1529.17 1575.4 1525.42 Q1575.4 1521.7 1573.54 1519.54 Q1571.71 1517.37 1568.57 1517.37 Q1565.42 1517.37 1563.57 1519.54 Q1561.74 1521.7 1561.74 1525.42 Q1561.74 1529.17 1563.57 1531.32 Q1565.42 1533.48 1568.57 1533.48 Z" fill="#000000" fill-rule="nonzero" fill-opacity="1"></path><path clip-path="url(#clip090)" d="M1589.33 1514.29 L1607.69 1514.29 L1607.69 1518.22 L1593.61 1518.22 L1593.61 1526.7 Q1594.63 1526.35 1595.65 1526.19 Q1596.67 1526 1597.69 1526 Q1603.47 1526 1606.85 1529.17 Q1610.23 1532.34 1610.23 1537.76 Q1610.23 1543.34 1606.76 1546.44 Q1603.29 1549.52 1596.97 1549.52 Q1594.79 1549.52 1592.52 1549.15 Q1590.28 1548.78 1587.87 1548.04 L1587.87 1543.34 Q1589.96 1544.47 1592.18 1545.03 Q1594.4 1545.58 1596.88 1545.58 Q1600.88 1545.58 1603.22 1543.48 Q1605.56 1541.37 1605.56 1537.76 Q1605.56 1534.15 1603.22 1532.04 Q1600.88 1529.94 1596.88 1529.94 Q1595 1529.94 1593.13 1530.35 Q1591.27 1530.77 1589.33 1531.65 L1589.33 1514.29 Z" fill="#000000" fill-rule="nonzero" fill-opacity="1"></path><path clip-path="url(#clip090)" d="M1803.14 1544.91 L1810.78 1544.91 L1810.78 1518.55 L1802.47 1520.21 L1802.47 1515.95 L1810.73 1514.29 L1815.41 1514.29 L1815.41 1544.91 L1823.05 1544.91 L1823.05 1548.85 L1803.14 1548.85 L1803.14 1544.91 Z" fill="#000000" fill-rule="nonzero" fill-opacity="1"></path><path clip-path="url(#clip090)" d="M1832.49 1542.97 L1837.38 1542.97 L1837.38 1548.85 L1832.49 1548.85 L1832.49 1542.97 Z" fill="#000000" fill-rule="nonzero" fill-opacity="1"></path><path clip-path="url(#clip090)" d="M1857.56 1517.37 Q1853.95 1517.37 1852.12 1520.93 Q1850.32 1524.47 1850.32 1531.6 Q1850.32 1538.71 1852.12 1542.27 Q1853.95 1545.82 1857.56 1545.82 Q1861.19 1545.82 1863 1542.27 Q1864.83 1538.71 1864.83 1531.6 Q1864.83 1524.47 1863 1520.93 Q1861.19 1517.37 1857.56 1517.37 M1857.56 1513.66 Q1863.37 1513.66 1866.43 1518.27 Q1869.51 1522.85 1869.51 1531.6 Q1869.51 1540.33 1866.43 1544.94 Q1863.37 1549.52 1857.56 1549.52 Q1851.75 1549.52 1848.67 1544.94 Q1845.62 1540.33 1845.62 1531.6 Q1845.62 1522.85 1848.67 1518.27 Q1851.75 1513.66 1857.56 1513.66 Z" fill="#000000" fill-rule="nonzero" fill-opacity="1"></path><path clip-path="url(#clip090)" d="M1887.72 1517.37 Q1884.11 1517.37 1882.28 1520.93 Q1880.48 1524.47 1880.48 1531.6 Q1880.48 1538.71 1882.28 1542.27 Q1884.11 1545.82 1887.72 1545.82 Q1891.36 1545.82 1893.16 1542.27 Q1894.99 1538.71 1894.99 1531.6 Q1894.99 1524.47 1893.16 1520.93 Q1891.36 1517.37 1887.72 1517.37 M1887.72 1513.66 Q1893.53 1513.66 1896.59 1518.27 Q1899.67 1522.85 1899.67 1531.6 Q1899.67 1540.33 1896.59 1544.94 Q1893.53 1549.52 1887.72 1549.52 Q1881.91 1549.52 1878.83 1544.94 Q1875.78 1540.33 1875.78 1531.6 Q1875.78 1522.85 1878.83 1518.27 Q1881.91 1513.66 1887.72 1513.66 Z" fill="#000000" fill-rule="nonzero" fill-opacity="1"></path><path clip-path="url(#clip090)" d="M2093.62 1544.91 L2101.25 1544.91 L2101.25 1518.55 L2092.94 1520.21 L2092.94 1515.95 L2101.21 1514.29 L2105.88 1514.29 L2105.88 1544.91 L2113.52 1544.91 L2113.52 1548.85 L2093.62 1548.85 L2093.62 1544.91 Z" fill="#000000" fill-rule="nonzero" fill-opacity="1"></path><path clip-path="url(#clip090)" d="M2122.97 1542.97 L2127.85 1542.97 L2127.85 1548.85 L2122.97 1548.85 L2122.97 1542.97 Z" fill="#000000" fill-rule="nonzero" fill-opacity="1"></path><path clip-path="url(#clip090)" d="M2148.04 1517.37 Q2144.42 1517.37 2142.6 1520.93 Q2140.79 1524.47 2140.79 1531.6 Q2140.79 1538.71 2142.6 1542.27 Q2144.42 1545.82 2148.04 1545.82 Q2151.67 1545.82 2153.48 1542.27 Q2155.3 1538.71 2155.3 1531.6 Q2155.3 1524.47 2153.48 1520.93 Q2151.67 1517.37 2148.04 1517.37 M2148.04 1513.66 Q2153.85 1513.66 2156.9 1518.27 Q2159.98 1522.85 2159.98 1531.6 Q2159.98 1540.33 2156.9 1544.94 Q2153.85 1549.52 2148.04 1549.52 Q2142.23 1549.52 2139.15 1544.94 Q2136.09 1540.33 2136.09 1531.6 Q2136.09 1522.85 2139.15 1518.27 Q2142.23 1513.66 2148.04 1513.66 Z" fill="#000000" fill-rule="nonzero" fill-opacity="1"></path><path clip-path="url(#clip090)" d="M2168.24 1514.29 L2186.6 1514.29 L2186.6 1518.22 L2172.53 1518.22 L2172.53 1526.7 Q2173.55 1526.35 2174.56 1526.19 Q2175.58 1526 2176.6 1526 Q2182.39 1526 2185.77 1529.17 Q2189.15 1532.34 2189.15 1537.76 Q2189.15 1543.34 2185.67 1546.44 Q2182.2 1549.52 2175.88 1549.52 Q2173.71 1549.52 2171.44 1549.15 Q2169.19 1548.78 2166.79 1548.04 L2166.79 1543.34 Q2168.87 1544.47 2171.09 1545.03 Q2173.31 1545.58 2175.79 1545.58 Q2179.8 1545.58 2182.13 1543.48 Q2184.47 1541.37 2184.47 1537.76 Q2184.47 1534.15 2182.13 1532.04 Q2179.8 1529.94 2175.79 1529.94 Q2173.92 1529.94 2172.04 1530.35 Q2170.19 1530.77 2168.24 1531.65 L2168.24 1514.29 Z" fill="#000000" fill-rule="nonzero" fill-opacity="1"></path><polyline clip-path="url(#clip090)" style="stroke:#000000; stroke-linecap:round; stroke-linejoin:round; stroke-width:4; stroke-opacity:1; fill:none" points="184.191,1486.45 184.191,47.2441 "></polyline>
<polyline clip-path="url(#clip090)" style="stroke:#000000; stroke-linecap:round; stroke-linejoin:round; stroke-width:4; stroke-opacity:1; fill:none" points="184.191,1445.72 203.088,1445.72 "></polyline>
<polyline clip-path="url(#clip090)" style="stroke:#000000; stroke-linecap:round; stroke-linejoin:round; stroke-width:4; stroke-opacity:1; fill:none" points="184.191,1152.88 203.088,1152.88 "></polyline>
<polyline clip-path="url(#clip090)" style="stroke:#000000; stroke-linecap:round; stroke-linejoin:round; stroke-width:4; stroke-opacity:1; fill:none" points="184.191,860.05 203.088,860.05 "></polyline>
<polyline clip-path="url(#clip090)" style="stroke:#000000; stroke-linecap:round; stroke-linejoin:round; stroke-width:4; stroke-opacity:1; fill:none" points="184.191,567.217 203.088,567.217 "></polyline>
<polyline clip-path="url(#clip090)" style="stroke:#000000; stroke-linecap:round; stroke-linejoin:round; stroke-width:4; stroke-opacity:1; fill:none" points="184.191,274.384 203.088,274.384 "></polyline>
<path clip-path="url(#clip090)" d="M91.0151 1431.51 Q87.404 1431.51 85.5753 1435.08 Q83.7697 1438.62 83.7697 1445.75 Q83.7697 1452.86 85.5753 1456.42 Q87.404 1459.96 91.0151 1459.96 Q94.6493 1459.96 96.4548 1456.42 Q98.2835 1452.86 98.2835 1445.75 Q98.2835 1438.62 96.4548 1435.08 Q94.6493 1431.51 91.0151 1431.51 M91.0151 1427.81 Q96.8252 1427.81 99.8808 1432.42 Q102.959 1437 102.959 1445.75 Q102.959 1454.48 99.8808 1459.08 Q96.8252 1463.67 91.0151 1463.67 Q85.2049 1463.67 82.1262 1459.08 Q79.0707 1454.48 79.0707 1445.75 Q79.0707 1437 82.1262 1432.42 Q85.2049 1427.81 91.0151 1427.81 Z" fill="#000000" fill-rule="nonzero" fill-opacity="1"></path><path clip-path="url(#clip090)" d="M111.177 1457.12 L116.061 1457.12 L116.061 1463 L111.177 1463 L111.177 1457.12 Z" fill="#000000" fill-rule="nonzero" fill-opacity="1"></path><path clip-path="url(#clip090)" d="M136.246 1431.51 Q132.635 1431.51 130.807 1435.08 Q129.001 1438.62 129.001 1445.75 Q129.001 1452.86 130.807 1456.42 Q132.635 1459.96 136.246 1459.96 Q139.881 1459.96 141.686 1456.42 Q143.515 1452.86 143.515 1445.75 Q143.515 1438.62 141.686 1435.08 Q139.881 1431.51 136.246 1431.51 M136.246 1427.81 Q142.056 1427.81 145.112 1432.42 Q148.191 1437 148.191 1445.75 Q148.191 1454.48 145.112 1459.08 Q142.056 1463.67 136.246 1463.67 Q130.436 1463.67 127.357 1459.08 Q124.302 1454.48 124.302 1445.75 Q124.302 1437 127.357 1432.42 Q130.436 1427.81 136.246 1427.81 Z" fill="#000000" fill-rule="nonzero" fill-opacity="1"></path><path clip-path="url(#clip090)" d="M86.0382 1166.23 L102.358 1166.23 L102.358 1170.16 L80.4133 1170.16 L80.4133 1166.23 Q83.0753 1163.47 87.6586 1158.84 Q92.2651 1154.19 93.4456 1152.85 Q95.691 1150.32 96.5706 1148.59 Q97.4734 1146.83 97.4734 1145.14 Q97.4734 1142.39 95.5289 1140.65 Q93.6076 1138.91 90.5058 1138.91 Q88.3067 1138.91 85.8531 1139.68 Q83.4225 1140.44 80.6447 1141.99 L80.6447 1137.27 Q83.4688 1136.14 85.9225 1135.56 Q88.3762 1134.98 90.4132 1134.98 Q95.7836 1134.98 98.978 1137.66 Q102.172 1140.35 102.172 1144.84 Q102.172 1146.97 101.362 1148.89 Q100.575 1150.79 98.4687 1153.38 Q97.89 1154.05 94.7882 1157.27 Q91.6864 1160.46 86.0382 1166.23 Z" fill="#000000" fill-rule="nonzero" fill-opacity="1"></path><path clip-path="url(#clip090)" d="M112.172 1164.28 L117.057 1164.28 L117.057 1170.16 L112.172 1170.16 L112.172 1164.28 Z" fill="#000000" fill-rule="nonzero" fill-opacity="1"></path><path clip-path="url(#clip090)" d="M127.288 1135.6 L145.644 1135.6 L145.644 1139.54 L131.57 1139.54 L131.57 1148.01 Q132.589 1147.66 133.607 1147.5 Q134.626 1147.32 135.644 1147.32 Q141.431 1147.32 144.811 1150.49 Q148.191 1153.66 148.191 1159.07 Q148.191 1164.65 144.718 1167.76 Q141.246 1170.83 134.927 1170.83 Q132.751 1170.83 130.482 1170.46 Q128.237 1170.09 125.83 1169.35 L125.83 1164.65 Q127.913 1165.79 130.135 1166.34 Q132.357 1166.9 134.834 1166.9 Q138.839 1166.9 141.177 1164.79 Q143.515 1162.69 143.515 1159.07 Q143.515 1155.46 141.177 1153.36 Q138.839 1151.25 134.834 1151.25 Q132.959 1151.25 131.084 1151.67 Q129.232 1152.08 127.288 1152.96 L127.288 1135.6 Z" fill="#000000" fill-rule="nonzero" fill-opacity="1"></path><path clip-path="url(#clip090)" d="M81.0614 842.77 L99.4178 842.77 L99.4178 846.705 L85.3438 846.705 L85.3438 855.177 Q86.3623 854.83 87.3808 854.668 Q88.3993 854.483 89.4178 854.483 Q95.2049 854.483 98.5845 857.654 Q101.964 860.825 101.964 866.242 Q101.964 871.82 98.4919 874.922 Q95.0197 878.001 88.7003 878.001 Q86.5243 878.001 84.2558 877.631 Q82.0105 877.26 79.6031 876.52 L79.6031 871.82 Q81.6864 872.955 83.9086 873.51 Q86.1308 874.066 88.6077 874.066 Q92.6123 874.066 94.9502 871.959 Q97.2882 869.853 97.2882 866.242 Q97.2882 862.631 94.9502 860.524 Q92.6123 858.418 88.6077 858.418 Q86.7327 858.418 84.8577 858.834 Q83.0058 859.251 81.0614 860.131 L81.0614 842.77 Z" fill="#000000" fill-rule="nonzero" fill-opacity="1"></path><path clip-path="url(#clip090)" d="M111.177 871.45 L116.061 871.45 L116.061 877.33 L111.177 877.33 L111.177 871.45 Z" fill="#000000" fill-rule="nonzero" fill-opacity="1"></path><path clip-path="url(#clip090)" d="M136.246 845.848 Q132.635 845.848 130.807 849.413 Q129.001 852.955 129.001 860.084 Q129.001 867.191 130.807 870.756 Q132.635 874.297 136.246 874.297 Q139.881 874.297 141.686 870.756 Q143.515 867.191 143.515 860.084 Q143.515 852.955 141.686 849.413 Q139.881 845.848 136.246 845.848 M136.246 842.145 Q142.056 842.145 145.112 846.751 Q148.191 851.334 148.191 860.084 Q148.191 868.811 145.112 873.418 Q142.056 878.001 136.246 878.001 Q130.436 878.001 127.357 873.418 Q124.302 868.811 124.302 860.084 Q124.302 851.334 127.357 846.751 Q130.436 842.145 136.246 842.145 Z" fill="#000000" fill-rule="nonzero" fill-opacity="1"></path><path clip-path="url(#clip090)" d="M80.8299 549.937 L103.052 549.937 L103.052 551.927 L90.5058 584.497 L85.6216 584.497 L97.4271 553.872 L80.8299 553.872 L80.8299 549.937 Z" fill="#000000" fill-rule="nonzero" fill-opacity="1"></path><path clip-path="url(#clip090)" d="M112.172 578.617 L117.057 578.617 L117.057 584.497 L112.172 584.497 L112.172 578.617 Z" fill="#000000" fill-rule="nonzero" fill-opacity="1"></path><path clip-path="url(#clip090)" d="M127.288 549.937 L145.644 549.937 L145.644 553.872 L131.57 553.872 L131.57 562.344 Q132.589 561.997 133.607 561.835 Q134.626 561.65 135.644 561.65 Q141.431 561.65 144.811 564.821 Q148.191 567.992 148.191 573.409 Q148.191 578.987 144.718 582.089 Q141.246 585.168 134.927 585.168 Q132.751 585.168 130.482 584.798 Q128.237 584.427 125.83 583.686 L125.83 578.987 Q127.913 580.122 130.135 580.677 Q132.357 581.233 134.834 581.233 Q138.839 581.233 141.177 579.126 Q143.515 577.02 143.515 573.409 Q143.515 569.798 141.177 567.691 Q138.839 565.585 134.834 565.585 Q132.959 565.585 131.084 566.001 Q129.232 566.418 127.288 567.298 L127.288 549.937 Z" fill="#000000" fill-rule="nonzero" fill-opacity="1"></path><path clip-path="url(#clip090)" d="M51.6634 287.729 L59.3023 287.729 L59.3023 261.363 L50.9921 263.03 L50.9921 258.77 L59.256 257.104 L63.9319 257.104 L63.9319 287.729 L71.5707 287.729 L71.5707 291.664 L51.6634 291.664 L51.6634 287.729 Z" fill="#000000" fill-rule="nonzero" fill-opacity="1"></path><path clip-path="url(#clip090)" d="M91.0151 260.182 Q87.404 260.182 85.5753 263.747 Q83.7697 267.289 83.7697 274.418 Q83.7697 281.525 85.5753 285.09 Q87.404 288.631 91.0151 288.631 Q94.6493 288.631 96.4548 285.09 Q98.2835 281.525 98.2835 274.418 Q98.2835 267.289 96.4548 263.747 Q94.6493 260.182 91.0151 260.182 M91.0151 256.479 Q96.8252 256.479 99.8808 261.085 Q102.959 265.668 102.959 274.418 Q102.959 283.145 99.8808 287.752 Q96.8252 292.335 91.0151 292.335 Q85.2049 292.335 82.1262 287.752 Q79.0707 283.145 79.0707 274.418 Q79.0707 265.668 82.1262 261.085 Q85.2049 256.479 91.0151 256.479 Z" fill="#000000" fill-rule="nonzero" fill-opacity="1"></path><path clip-path="url(#clip090)" d="M111.177 285.784 L116.061 285.784 L116.061 291.664 L111.177 291.664 L111.177 285.784 Z" fill="#000000" fill-rule="nonzero" fill-opacity="1"></path><path clip-path="url(#clip090)" d="M136.246 260.182 Q132.635 260.182 130.807 263.747 Q129.001 267.289 129.001 274.418 Q129.001 281.525 130.807 285.09 Q132.635 288.631 136.246 288.631 Q139.881 288.631 141.686 285.09 Q143.515 281.525 143.515 274.418 Q143.515 267.289 141.686 263.747 Q139.881 260.182 136.246 260.182 M136.246 256.479 Q142.056 256.479 145.112 261.085 Q148.191 265.668 148.191 274.418 Q148.191 283.145 145.112 287.752 Q142.056 292.335 136.246 292.335 Q130.436 292.335 127.357 287.752 Q124.302 283.145 124.302 274.418 Q124.302 265.668 127.357 261.085 Q130.436 256.479 136.246 256.479 Z" fill="#000000" fill-rule="nonzero" fill-opacity="1"></path><path clip-path="url(#clip092)" d="M245.565 1445.72 L255.846 1445.72 L266.126 1445.71 L276.407 1445.7 L286.687 1445.69 L296.968 1445.68 L307.248 1445.66 L317.529 1445.63 L327.809 1445.61 L338.09 1445.62 L348.37 1445.64 L358.65 1445.65 L368.931 1445.64 L379.211 1445.61 L389.492 1445.55 L399.772 1445.49 L410.053 1445.42 L420.333 1445.4 L430.614 1445.43 L440.894 1445.45 L451.175 1445.41 L461.455 1445.29 L471.736 1445.11 L482.016 1444.88 L492.297 1444.57 L502.577 1444.23 L512.858 1443.93 L523.138 1443.57 L533.419 1443.08 L543.699 1442.62 L553.98 1442.29 L564.26 1441.94 L574.541 1441.41 L584.821 1440.7 L595.102 1439.86 L605.382 1438.81 L615.663 1437.53 L625.943 1436.16 L636.224 1434.93 L646.504 1433.51 L656.785 1431.44 L667.065 1428.76 L677.345 1425.72 L687.626 1422.51 L697.906 1418.98 L708.187 1414.82 L718.467 1410.09 L728.748 1404.96 L739.028 1399.36 L749.309 1393.46 L759.589 1387.23 L769.87 1379.75 L780.15 1370.5 L790.431 1360.36 L800.711 1348.96 L810.992 1335.55 L821.272 1321.33 L831.553 1306.87 L841.833 1291.72 L852.114 1275.21 L862.394 1256.59 L872.675 1236.25 L882.955 1215.36 L893.236 1192.67 L903.516 1166.98 L913.797 1139.86 L924.077 1112.03 L934.358 1083.08 L944.638 1053.21 L954.919 1022.39 L965.199 990.076 L975.48 954.409 L985.76 914.38 L996.04 871.942 L1006.32 830.882 L1016.6 791.662 L1026.88 752.254 L1037.16 712.363 L1047.44 671.873 L1057.72 630.693 L1068 588.658 L1078.28 546.399 L1088.56 506.215 L1098.85 466.281 L1109.13 423.717 L1119.41 381.43 L1129.69 341.256 L1139.97 304.142 L1150.25 271.94 L1160.53 240.809 L1170.81 207.086 L1181.09 173.28 L1191.37 144.658 L1201.65 124.511 L1211.93 112.423 L1222.21 102.647 L1232.49 93.7594 L1242.77 89.1912 L1253.05 87.9763 L1263.33 88.2987 L1273.61 89.4522 L1283.89 92.6987 L1294.17 101.399 L1304.45 113.968 L1314.74 128.141 L1325.02 149.327 L1335.3 178.767 L1345.58 211.197 L1355.86 242.656 L1366.14 273.568 L1376.42 306.111 L1386.7 341.54 L1396.98 381.379 L1407.26 424.265 L1417.54 464.907 L1427.82 502.075 L1438.1 540.234 L1448.38 582.522 L1458.66 628.095 L1468.94 673.592 L1479.22 717.348 L1489.5 760.582 L1499.78 803.633 L1510.06 844.973 L1520.35 882.578 L1530.63 916.532 L1540.91 950.663 L1551.19 986.483 L1561.47 1021.34 L1571.75 1052.8 L1582.03 1081.82 L1592.31 1110.57 L1602.59 1138.98 L1612.87 1166.67 L1623.15 1192.9 L1633.43 1216.24 L1643.71 1236.45 L1653.99 1255.17 L1664.27 1274.02 L1674.55 1292.16 L1684.83 1307.91 L1695.11 1321.09 L1705.39 1333.03 L1715.67 1345.24 L1725.95 1357.45 L1736.24 1367.97 L1746.52 1376.7 L1756.8 1384.65 L1767.08 1392.02 L1777.36 1398.83 L1787.64 1404.94 L1797.92 1410.25 L1808.2 1414.83 L1818.48 1418.67 L1828.76 1422.13 L1839.04 1425.42 L1849.32 1428.39 L1859.6 1430.86 L1869.88 1432.68 L1880.16 1434.33 L1890.44 1436.14 L1900.72 1437.77 L1911 1438.91 L1921.28 1439.75 L1931.56 1440.52 L1941.84 1441.3 L1952.13 1442 L1962.41 1442.53 L1972.69 1443.02 L1982.97 1443.53 L1993.25 1443.95 L2003.53 1444.27 L2013.81 1444.51 L2024.09 1444.65 L2034.37 1444.82 L2044.65 1445.01 L2054.93 1445.11 L2065.21 1445.17 L2075.49 1445.22 L2085.77 1445.31 L2096.05 1445.43 L2106.33 1445.5 L2116.61 1445.49 L2126.89 1445.49 L2137.17 1445.53 L2147.45 1445.59 L2157.74 1445.64 L2168.02 1445.68 L2178.3 1445.68 L2188.58 1445.67 L2198.86 1445.68 L2209.14 1445.7 L2219.42 1445.71 L2229.7 1445.71 L2239.98 1445.7 L2250.26 1445.7 L2260.54 1445.7 L2270.82 1445.71 L2281.1 1445.72 L2291.38 1445.72 L2291.38 1445.72 L2281.1 1445.72 L2270.82 1445.72 L2260.54 1445.72 L2250.26 1445.72 L2239.98 1445.72 L2229.7 1445.72 L2219.42 1445.72 L2209.14 1445.72 L2198.86 1445.72 L2188.58 1445.72 L2178.3 1445.72 L2168.02 1445.72 L2157.74 1445.72 L2147.45 1445.72 L2137.17 1445.72 L2126.89 1445.72 L2116.61 1445.72 L2106.33 1445.72 L2096.05 1445.72 L2085.77 1445.72 L2075.49 1445.72 L2065.21 1445.72 L2054.93 1445.72 L2044.65 1445.72 L2034.37 1445.72 L2024.09 1445.72 L2013.81 1445.72 L2003.53 1445.72 L1993.25 1445.72 L1982.97 1445.72 L1972.69 1445.72 L1962.41 1445.72 L1952.13 1445.72 L1941.84 1445.72 L1931.56 1445.72 L1921.28 1445.72 L1911 1445.72 L1900.72 1445.72 L1890.44 1445.72 L1880.16 1445.72 L1869.88 1445.72 L1859.6 1445.72 L1849.32 1445.72 L1839.04 1445.72 L1828.76 1445.72 L1818.48 1445.72 L1808.2 1445.72 L1797.92 1445.72 L1787.64 1445.72 L1777.36 1445.72 L1767.08 1445.72 L1756.8 1445.72 L1746.52 1445.72 L1736.24 1445.72 L1725.95 1445.72 L1715.67 1445.72 L1705.39 1445.72 L1695.11 1445.72 L1684.83 1445.72 L1674.55 1445.72 L1664.27 1445.72 L1653.99 1445.72 L1643.71 1445.72 L1633.43 1445.72 L1623.15 1445.72 L1612.87 1445.72 L1602.59 1445.72 L1592.31 1445.72 L1582.03 1445.72 L1571.75 1445.72 L1561.47 1445.72 L1551.19 1445.72 L1540.91 1445.72 L1530.63 1445.72 L1520.35 1445.72 L1510.06 1445.72 L1499.78 1445.72 L1489.5 1445.72 L1479.22 1445.72 L1468.94 1445.72 L1458.66 1445.72 L1448.38 1445.72 L1438.1 1445.72 L1427.82 1445.72 L1417.54 1445.72 L1407.26 1445.72 L1396.98 1445.72 L1386.7 1445.72 L1376.42 1445.72 L1366.14 1445.72 L1355.86 1445.72 L1345.58 1445.72 L1335.3 1445.72 L1325.02 1445.72 L1314.74 1445.72 L1304.45 1445.72 L1294.17 1445.72 L1283.89 1445.72 L1273.61 1445.72 L1263.33 1445.72 L1253.05 1445.72 L1242.77 1445.72 L1232.49 1445.72 L1222.21 1445.72 L1211.93 1445.72 L1201.65 1445.72 L1191.37 1445.72 L1181.09 1445.72 L1170.81 1445.72 L1160.53 1445.72 L1150.25 1445.72 L1139.97 1445.72 L1129.69 1445.72 L1119.41 1445.72 L1109.13 1445.72 L1098.85 1445.72 L1088.56 1445.72 L1078.28 1445.72 L1068 1445.72 L1057.72 1445.72 L1047.44 1445.72 L1037.16 1445.72 L1026.88 1445.72 L1016.6 1445.72 L1006.32 1445.72 L996.04 1445.72 L985.76 1445.72 L975.48 1445.72 L965.199 1445.72 L954.919 1445.72 L944.638 1445.72 L934.358 1445.72 L924.077 1445.72 L913.797 1445.72 L903.516 1445.72 L893.236 1445.72 L882.955 1445.72 L872.675 1445.72 L862.394 1445.72 L852.114 1445.72 L841.833 1445.72 L831.553 1445.72 L821.272 1445.72 L810.992 1445.72 L800.711 1445.72 L790.431 1445.72 L780.15 1445.72 L769.87 1445.72 L759.589 1445.72 L749.309 1445.72 L739.028 1445.72 L728.748 1445.72 L718.467 1445.72 L708.187 1445.72 L697.906 1445.72 L687.626 1445.72 L677.345 1445.72 L667.065 1445.72 L656.785 1445.72 L646.504 1445.72 L636.224 1445.72 L625.943 1445.72 L615.663 1445.72 L605.382 1445.72 L595.102 1445.72 L584.821 1445.72 L574.541 1445.72 L564.26 1445.72 L553.98 1445.72 L543.699 1445.72 L533.419 1445.72 L523.138 1445.72 L512.858 1445.72 L502.577 1445.72 L492.297 1445.72 L482.016 1445.72 L471.736 1445.72 L461.455 1445.72 L451.175 1445.72 L440.894 1445.72 L430.614 1445.72 L420.333 1445.72 L410.053 1445.72 L399.772 1445.72 L389.492 1445.72 L379.211 1445.72 L368.931 1445.72 L358.65 1445.72 L348.37 1445.72 L338.09 1445.72 L327.809 1445.72 L317.529 1445.72 L307.248 1445.72 L296.968 1445.72 L286.687 1445.72 L276.407 1445.72 L266.126 1445.72 L255.846 1445.72 L245.565 1445.72  Z" fill="#009af9" fill-rule="evenodd" fill-opacity="1"></path>
<polyline clip-path="url(#clip092)" style="stroke:#009af9; stroke-linecap:round; stroke-linejoin:round; stroke-width:4; stroke-opacity:1; fill:none" points="245.565,1445.72 255.846,1445.72 266.126,1445.71 276.407,1445.7 286.687,1445.69 296.968,1445.68 307.248,1445.66 317.529,1445.63 327.809,1445.61 338.09,1445.62 348.37,1445.64 358.65,1445.65 368.931,1445.64 379.211,1445.61 389.492,1445.55 399.772,1445.49 410.053,1445.42 420.333,1445.4 430.614,1445.43 440.894,1445.45 451.175,1445.41 461.455,1445.29 471.736,1445.11 482.016,1444.88 492.297,1444.57 502.577,1444.23 512.858,1443.93 523.138,1443.57 533.419,1443.08 543.699,1442.62 553.98,1442.29 564.26,1441.94 574.541,1441.41 584.821,1440.7 595.102,1439.86 605.382,1438.81 615.663,1437.53 625.943,1436.16 636.224,1434.93 646.504,1433.51 656.785,1431.44 667.065,1428.76 677.345,1425.72 687.626,1422.51 697.906,1418.98 708.187,1414.82 718.467,1410.09 728.748,1404.96 739.028,1399.36 749.309,1393.46 759.589,1387.23 769.87,1379.75 780.15,1370.5 790.431,1360.36 800.711,1348.96 810.992,1335.55 821.272,1321.33 831.553,1306.87 841.833,1291.72 852.114,1275.21 862.394,1256.59 872.675,1236.25 882.955,1215.36 893.236,1192.67 903.516,1166.98 913.797,1139.86 924.077,1112.03 934.358,1083.08 944.638,1053.21 954.919,1022.39 965.199,990.076 975.48,954.409 985.76,914.38 996.04,871.942 1006.32,830.882 1016.6,791.662 1026.88,752.254 1037.16,712.363 1047.44,671.873 1057.72,630.693 1068,588.658 1078.28,546.399 1088.56,506.215 1098.85,466.281 1109.13,423.717 1119.41,381.43 1129.69,341.256 1139.97,304.142 1150.25,271.94 1160.53,240.809 1170.81,207.086 1181.09,173.28 1191.37,144.658 1201.65,124.511 1211.93,112.423 1222.21,102.647 1232.49,93.7594 1242.77,89.1912 1253.05,87.9763 1263.33,88.2987 1273.61,89.4522 1283.89,92.6987 1294.17,101.399 1304.45,113.968 1314.74,128.141 1325.02,149.327 1335.3,178.767 1345.58,211.197 1355.86,242.656 1366.14,273.568 1376.42,306.111 1386.7,341.54 1396.98,381.379 1407.26,424.265 1417.54,464.907 1427.82,502.075 1438.1,540.234 1448.38,582.522 1458.66,628.095 1468.94,673.592 1479.22,717.348 1489.5,760.582 1499.78,803.633 1510.06,844.973 1520.35,882.578 1530.63,916.532 1540.91,950.663 1551.19,986.483 1561.47,1021.34 1571.75,1052.8 1582.03,1081.82 1592.31,1110.57 1602.59,1138.98 1612.87,1166.67 1623.15,1192.9 1633.43,1216.24 1643.71,1236.45 1653.99,1255.17 1664.27,1274.02 1674.55,1292.16 1684.83,1307.91 1695.11,1321.09 1705.39,1333.03 1715.67,1345.24 1725.95,1357.45 1736.24,1367.97 1746.52,1376.7 1756.8,1384.65 1767.08,1392.02 1777.36,1398.83 1787.64,1404.94 1797.92,1410.25 1808.2,1414.83 1818.48,1418.67 1828.76,1422.13 1839.04,1425.42 1849.32,1428.39 1859.6,1430.86 1869.88,1432.68 1880.16,1434.33 1890.44,1436.14 1900.72,1437.77 1911,1438.91 1921.28,1439.75 1931.56,1440.52 1941.84,1441.3 1952.13,1442 1962.41,1442.53 1972.69,1443.02 1982.97,1443.53 1993.25,1443.95 2003.53,1444.27 2013.81,1444.51 2024.09,1444.65 2034.37,1444.82 2044.65,1445.01 2054.93,1445.11 2065.21,1445.17 2075.49,1445.22 2085.77,1445.31 2096.05,1445.43 2106.33,1445.5 2116.61,1445.49 2126.89,1445.49 2137.17,1445.53 2147.45,1445.59 2157.74,1445.64 2168.02,1445.68 2178.3,1445.68 2188.58,1445.67 2198.86,1445.68 2209.14,1445.7 2219.42,1445.71 2229.7,1445.71 2239.98,1445.7 2250.26,1445.7 2260.54,1445.7 2270.82,1445.71 2281.1,1445.72 2291.38,1445.72 "></polyline>
<polyline clip-path="url(#clip092)" style="stroke:#e26f46; stroke-linecap:round; stroke-linejoin:round; stroke-width:4; stroke-opacity:1; fill:none" points="1851.07,2925.65 1851.07,-1391.96 "></polyline>
<path clip-path="url(#clip090)" d="M256.476 198.898 L525.763 198.898 L525.763 95.2176 L256.476 95.2176  Z" fill="#ffffff" fill-rule="evenodd" fill-opacity="1"></path>
<polyline clip-path="url(#clip090)" style="stroke:#000000; stroke-linecap:round; stroke-linejoin:round; stroke-width:4; stroke-opacity:1; fill:none" points="256.476,198.898 525.763,198.898 525.763,95.2176 256.476,95.2176 256.476,198.898 "></polyline>
<path clip-path="url(#clip090)" d="M280.571 167.794 L425.142 167.794 L425.142 126.322 L280.571 126.322 L280.571 167.794  Z" fill="#009af9" fill-rule="evenodd" fill-opacity="1"></path>
<polyline clip-path="url(#clip090)" style="stroke:#009af9; stroke-linecap:round; stroke-linejoin:round; stroke-width:4; stroke-opacity:1; fill:none" points="280.571,126.322 425.142,126.322 "></polyline>
<path clip-path="url(#clip090)" d="M463.08 166.745 Q461.275 171.375 459.562 172.787 Q457.849 174.199 454.978 174.199 L451.575 174.199 L451.575 170.634 L454.075 170.634 Q455.835 170.634 456.807 169.8 Q457.779 168.967 458.96 165.865 L459.724 163.921 L449.238 138.412 L453.751 138.412 L461.853 158.689 L469.955 138.412 L474.469 138.412 L463.08 166.745 Z" fill="#000000" fill-rule="nonzero" fill-opacity="1"></path><path clip-path="url(#clip090)" d="M481.761 160.402 L489.399 160.402 L489.399 134.037 L481.089 135.703 L481.089 131.444 L489.353 129.778 L494.029 129.778 L494.029 160.402 L501.668 160.402 L501.668 164.338 L481.761 164.338 L481.761 160.402 Z" fill="#000000" fill-rule="nonzero" fill-opacity="1"></path></svg>