<svg xmlns="http://www.w3.org/2000/svg" xmlns:xlink="http://www.w3.org/1999/xlink" width="600" height="400" viewBox="0 0 2400 1600">
<defs>
  <clipPath id="clip850">
    <rect x="0" y="0" width="2400" height="1600"></rect>
  </clipPath>
</defs>
<path clip-path="url(#clip850)" d="M0 1600 L2400 1600 L2400 8.88178e-14 L0 8.88178e-14  Z" fill="#ffffff" fill-rule="evenodd" fill-opacity="1"></path>
<defs>
  <clipPath id="clip851">
    <rect x="480" y="0" width="1681" height="1600"></rect>
  </clipPath>
</defs>
<path clip-path="url(#clip850)" d="M178.867 1486.45 L2352.76 1486.45 L2352.76 47.2441 L178.867 47.2441  Z" fill="#ffffff" fill-rule="evenodd" fill-opacity="1"></path>
<defs>
  <clipPath id="clip852">
    <rect x="178" y="47" width="2175" height="1440"></rect>
  </clipPath>
</defs>
<polyline clip-path="url(#clip852)" style="stroke:#000000; stroke-linecap:round; stroke-linejoin:round; stroke-width:2; stroke-opacity:0.1; fill:none" points="236.265,1486.45 236.265,47.2441 "></polyline>
<polyline clip-path="url(#clip852)" style="stroke:#000000; stroke-linecap:round; stroke-linejoin:round; stroke-width:2; stroke-opacity:0.1; fill:none" points="648.909,1486.45 648.909,47.2441 "></polyline>
<polyline clip-path="url(#clip852)" style="stroke:#000000; stroke-linecap:round; stroke-linejoin:round; stroke-width:2; stroke-opacity:0.1; fill:none" points="1061.55,1486.45 1061.55,47.2441 "></polyline>
<polyline clip-path="url(#clip852)" style="stroke:#000000; stroke-linecap:round; stroke-linejoin:round; stroke-width:2; stroke-opacity:0.1; fill:none" points="1474.2,1486.45 1474.2,47.2441 "></polyline>
<polyline clip-path="url(#clip852)" style="stroke:#000000; stroke-linecap:round; stroke-linejoin:round; stroke-width:2; stroke-opacity:0.1; fill:none" points="1886.84,1486.45 1886.84,47.2441 "></polyline>
<polyline clip-path="url(#clip852)" style="stroke:#000000; stroke-linecap:round; stroke-linejoin:round; stroke-width:2; stroke-opacity:0.1; fill:none" points="2299.48,1486.45 2299.48,47.2441 "></polyline>
<polyline clip-path="url(#clip852)" style="stroke:#000000; stroke-linecap:round; stroke-linejoin:round; stroke-width:2; stroke-opacity:0.1; fill:none" points="178.867,1297.06 2352.76,1297.06 "></polyline>
<polyline clip-path="url(#clip852)" style="stroke:#000000; stroke-linecap:round; stroke-linejoin:round; stroke-width:2; stroke-opacity:0.1; fill:none" points="178.867,1021.21 2352.76,1021.21 "></polyline>
<polyline clip-path="url(#clip852)" style="stroke:#000000; stroke-linecap:round; stroke-linejoin:round; stroke-width:2; stroke-opacity:0.1; fill:none" points="178.867,745.363 2352.76,745.363 "></polyline>
<polyline clip-path="url(#clip852)" style="stroke:#000000; stroke-linecap:round; stroke-linejoin:round; stroke-width:2; stroke-opacity:0.1; fill:none" points="178.867,469.513 2352.76,469.513 "></polyline>
<polyline clip-path="url(#clip852)" style="stroke:#000000; stroke-linecap:round; stroke-linejoin:round; stroke-width:2; stroke-opacity:0.1; fill:none" points="178.867,193.662 2352.76,193.662 "></polyline>
<polyline clip-path="url(#clip850)" style="stroke:#000000; stroke-linecap:round; stroke-linejoin:round; stroke-width:4; stroke-opacity:1; fill:none" points="178.867,1486.45 2352.76,1486.45 "></polyline>
<polyline clip-path="url(#clip850)" style="stroke:#000000; stroke-linecap:round; stroke-linejoin:round; stroke-width:4; stroke-opacity:1; fill:none" points="236.265,1486.45 236.265,1467.55 "></polyline>
<polyline clip-path="url(#clip850)" style="stroke:#000000; stroke-linecap:round; stroke-linejoin:round; stroke-width:4; stroke-opacity:1; fill:none" points="648.909,1486.45 648.909,1467.55 "></polyline>
<polyline clip-path="url(#clip850)" style="stroke:#000000; stroke-linecap:round; stroke-linejoin:round; stroke-width:4; stroke-opacity:1; fill:none" points="1061.55,1486.45 1061.55,1467.55 "></polyline>
<polyline clip-path="url(#clip850)" style="stroke:#000000; stroke-linecap:round; stroke-linejoin:round; stroke-width:4; stroke-opacity:1; fill:none" points="1474.2,1486.45 1474.2,1467.55 "></polyline>
<polyline clip-path="url(#clip850)" style="stroke:#000000; stroke-linecap:round; stroke-linejoin:round; stroke-width:4; stroke-opacity:1; fill:none" points="1886.84,1486.45 1886.84,1467.55 "></polyline>
<polyline clip-path="url(#clip850)" style="stroke:#000000; stroke-linecap:round; stroke-linejoin:round; stroke-width:4; stroke-opacity:1; fill:none" points="2299.48,1486.45 2299.48,1467.55 "></polyline>
<path clip-path="url(#clip850)" d="M236.265 1517.37 Q232.654 1517.37 230.826 1520.93 Q229.02 1524.47 229.02 1531.6 Q229.02 1538.71 230.826 1542.27 Q232.654 1545.82 236.265 1545.82 Q239.9 1545.82 241.705 1542.27 Q243.534 1538.71 243.534 1531.6 Q243.534 1524.47 241.705 1520.93 Q239.9 1517.37 236.265 1517.37 M236.265 1513.66 Q242.076 1513.66 245.131 1518.27 Q248.21 1522.85 248.21 1531.6 Q248.21 1540.33 245.131 1544.94 Q242.076 1549.52 236.265 1549.52 Q230.455 1549.52 227.377 1544.94 Q224.321 1540.33 224.321 1531.6 Q224.321 1522.85 227.377 1518.27 Q230.455 1513.66 236.265 1513.66 Z" fill="#000000" fill-rule="nonzero" fill-opacity="1"></path><path clip-path="url(#clip850)" d="M608.516 1544.91 L616.155 1544.91 L616.155 1518.55 L607.844 1520.21 L607.844 1515.95 L616.108 1514.29 L620.784 1514.29 L620.784 1544.91 L628.423 1544.91 L628.423 1548.85 L608.516 1548.85 L608.516 1544.91 Z" fill="#000000" fill-rule="nonzero" fill-opacity="1"></path><path clip-path="url(#clip850)" d="M647.867 1517.37 Q644.256 1517.37 642.428 1520.93 Q640.622 1524.47 640.622 1531.6 Q640.622 1538.71 642.428 1542.27 Q644.256 1545.82 647.867 1545.82 Q651.502 1545.82 653.307 1542.27 Q655.136 1538.71 655.136 1531.6 Q655.136 1524.47 653.307 1520.93 Q651.502 1517.37 647.867 1517.37 M647.867 1513.66 Q653.678 1513.66 656.733 1518.27 Q659.812 1522.85 659.812 1531.6 Q659.812 1540.33 656.733 1544.94 Q653.678 1549.52 647.867 1549.52 Q642.057 1549.52 638.979 1544.94 Q635.923 1540.33 635.923 1531.6 Q635.923 1522.85 638.979 1518.27 Q642.057 1513.66 647.867 1513.66 Z" fill="#000000" fill-rule="nonzero" fill-opacity="1"></path><path clip-path="url(#clip850)" d="M678.029 1517.37 Q674.418 1517.37 672.589 1520.93 Q670.784 1524.47 670.784 1531.6 Q670.784 1538.71 672.589 1542.27 Q674.418 1545.82 678.029 1545.82 Q681.663 1545.82 683.469 1542.27 Q685.298 1538.71 685.298 1531.6 Q685.298 1524.47 683.469 1520.93 Q681.663 1517.37 678.029 1517.37 M678.029 1513.66 Q683.839 1513.66 686.895 1518.27 Q689.974 1522.85 689.974 1531.6 Q689.974 1540.33 686.895 1544.94 Q683.839 1549.52 678.029 1549.52 Q672.219 1549.52 669.14 1544.94 Q666.085 1540.33 666.085 1531.6 Q666.085 1522.85 669.14 1518.27 Q672.219 1513.66 678.029 1513.66 Z" fill="#000000" fill-rule="nonzero" fill-opacity="1"></path><path clip-path="url(#clip850)" d="M1025.24 1544.91 L1041.56 1544.91 L1041.56 1548.85 L1019.62 1548.85 L1019.62 1544.91 Q1022.28 1542.16 1026.87 1537.53 Q1031.47 1532.88 1032.65 1531.53 Q1034.9 1529.01 1035.78 1527.27 Q1036.68 1525.51 1036.68 1523.82 Q1036.68 1521.07 1034.74 1519.33 Q1032.81 1517.6 1029.71 1517.6 Q1027.51 1517.6 1025.06 1518.36 Q1022.63 1519.13 1019.85 1520.68 L1019.85 1515.95 Q1022.68 1514.82 1025.13 1514.24 Q1027.58 1513.66 1029.62 1513.66 Q1034.99 1513.66 1038.18 1516.35 Q1041.38 1519.03 1041.38 1523.52 Q1041.38 1525.65 1040.57 1527.57 Q1039.78 1529.47 1037.68 1532.07 Q1037.1 1532.74 1033.99 1535.95 Q1030.89 1539.15 1025.24 1544.91 Z" fill="#000000" fill-rule="nonzero" fill-opacity="1"></path><path clip-path="url(#clip850)" d="M1061.38 1517.37 Q1057.77 1517.37 1055.94 1520.93 Q1054.13 1524.47 1054.13 1531.6 Q1054.13 1538.71 1055.94 1542.27 Q1057.77 1545.82 1061.38 1545.82 Q1065.01 1545.82 1066.82 1542.27 Q1068.65 1538.71 1068.65 1531.6 Q1068.65 1524.47 1066.82 1520.93 Q1065.01 1517.37 1061.38 1517.37 M1061.38 1513.66 Q1067.19 1513.66 1070.24 1518.27 Q1073.32 1522.85 1073.32 1531.6 Q1073.32 1540.33 1070.24 1544.94 Q1067.19 1549.52 1061.38 1549.52 Q1055.57 1549.52 1052.49 1544.94 Q1049.43 1540.33 1049.43 1531.6 Q1049.43 1522.85 1052.49 1518.27 Q1055.57 1513.66 1061.38 1513.66 Z" fill="#000000" fill-rule="nonzero" fill-opacity="1"></path><path clip-path="url(#clip850)" d="M1091.54 1517.37 Q1087.93 1517.37 1086.1 1520.93 Q1084.3 1524.47 1084.3 1531.6 Q1084.3 1538.71 1086.1 1542.27 Q1087.93 1545.82 1091.54 1545.82 Q1095.18 1545.82 1096.98 1542.27 Q1098.81 1538.71 1098.81 1531.6 Q1098.81 1524.47 1096.98 1520.93 Q1095.18 1517.37 1091.54 1517.37 M1091.54 1513.66 Q1097.35 1513.66 1100.41 1518.27 Q1103.49 1522.85 1103.49 1531.6 Q1103.49 1540.33 1100.41 1544.94 Q1097.35 1549.52 1091.54 1549.52 Q1085.73 1549.52 1082.65 1544.94 Q1079.6 1540.33 1079.6 1531.6 Q1079.6 1522.85 1082.65 1518.27 Q1085.73 1513.66 1091.54 1513.66 Z" fill="#000000" fill-rule="nonzero" fill-opacity="1"></path><path clip-path="url(#clip850)" d="M1447.96 1530.21 Q1451.31 1530.93 1453.19 1533.2 Q1455.09 1535.47 1455.09 1538.8 Q1455.09 1543.92 1451.57 1546.72 Q1448.05 1549.52 1441.57 1549.52 Q1439.39 1549.52 1437.08 1549.08 Q1434.79 1548.66 1432.33 1547.81 L1432.33 1543.29 Q1434.28 1544.43 1436.59 1545.01 Q1438.91 1545.58 1441.43 1545.58 Q1445.83 1545.58 1448.12 1543.85 Q1450.43 1542.11 1450.43 1538.8 Q1450.43 1535.75 1448.28 1534.03 Q1446.15 1532.3 1442.33 1532.3 L1438.31 1532.3 L1438.31 1528.45 L1442.52 1528.45 Q1445.97 1528.45 1447.8 1527.09 Q1449.62 1525.7 1449.62 1523.11 Q1449.62 1520.45 1447.73 1519.03 Q1445.85 1517.6 1442.33 1517.6 Q1440.41 1517.6 1438.21 1518.01 Q1436.01 1518.43 1433.37 1519.31 L1433.37 1515.14 Q1436.04 1514.4 1438.35 1514.03 Q1440.69 1513.66 1442.75 1513.66 Q1448.07 1513.66 1451.18 1516.09 Q1454.28 1518.5 1454.28 1522.62 Q1454.28 1525.49 1452.63 1527.48 Q1450.99 1529.45 1447.96 1530.21 Z" fill="#000000" fill-rule="nonzero" fill-opacity="1"></path><path clip-path="url(#clip850)" d="M1473.95 1517.37 Q1470.34 1517.37 1468.51 1520.93 Q1466.71 1524.47 1466.71 1531.6 Q1466.71 1538.71 1468.51 1542.27 Q1470.34 1545.82 1473.95 1545.82 Q1477.59 1545.82 1479.39 1542.27 Q1481.22 1538.71 1481.22 1531.6 Q1481.22 1524.47 1479.39 1520.93 Q1477.59 1517.37 1473.95 1517.37 M1473.95 1513.66 Q1479.76 1513.66 1482.82 1518.27 Q1485.9 1522.85 1485.9 1531.6 Q1485.9 1540.33 1482.82 1544.94 Q1479.76 1549.52 1473.95 1549.52 Q1468.14 1549.52 1465.06 1544.94 Q1462.01 1540.33 1462.01 1531.6 Q1462.01 1522.85 1465.06 1518.27 Q1468.14 1513.66 1473.95 1513.66 Z" fill="#000000" fill-rule="nonzero" fill-opacity="1"></path><path clip-path="url(#clip850)" d="M1504.12 1517.37 Q1500.5 1517.37 1498.68 1520.93 Q1496.87 1524.47 1496.87 1531.6 Q1496.87 1538.71 1498.68 1542.27 Q1500.5 1545.82 1504.12 1545.82 Q1507.75 1545.82 1509.55 1542.27 Q1511.38 1538.71 1511.38 1531.6 Q1511.38 1524.47 1509.55 1520.93 Q1507.75 1517.37 1504.12 1517.37 M1504.12 1513.66 Q1509.93 1513.66 1512.98 1518.27 Q1516.06 1522.85 1516.06 1531.6 Q1516.06 1540.33 1512.98 1544.94 Q1509.93 1549.52 1504.12 1549.52 Q1498.3 1549.52 1495.23 1544.94 Q1492.17 1540.33 1492.17 1531.6 Q1492.17 1522.85 1495.23 1518.27 Q1498.3 1513.66 1504.12 1513.66 Z" fill="#000000" fill-rule="nonzero" fill-opacity="1"></path><path clip-path="url(#clip850)" d="M1859.93 1518.36 L1848.12 1536.81 L1859.93 1536.81 L1859.93 1518.36 M1858.7 1514.29 L1864.58 1514.29 L1864.58 1536.81 L1869.51 1536.81 L1869.51 1540.7 L1864.58 1540.7 L1864.58 1548.85 L1859.93 1548.85 L1859.93 1540.7 L1844.33 1540.7 L1844.33 1536.19 L1858.7 1514.29 Z" fill="#000000" fill-rule="nonzero" fill-opacity="1"></path><path clip-path="url(#clip850)" d="M1887.25 1517.37 Q1883.63 1517.37 1881.81 1520.93 Q1880 1524.47 1880 1531.6 Q1880 1538.71 1881.81 1542.27 Q1883.63 1545.82 1887.25 1545.82 Q1890.88 1545.82 1892.68 1542.27 Q1894.51 1538.71 1894.51 1531.6 Q1894.51 1524.47 1892.68 1520.93 Q1890.88 1517.37 1887.25 1517.37 M1887.25 1513.66 Q1893.06 1513.66 1896.11 1518.27 Q1899.19 1522.85 1899.19 1531.6 Q1899.19 1540.33 1896.11 1544.94 Q1893.06 1549.52 1887.25 1549.52 Q1881.43 1549.52 1878.36 1544.94 Q1875.3 1540.33 1875.3 1531.6 Q1875.3 1522.85 1878.36 1518.27 Q1881.43 1513.66 1887.25 1513.66 Z" fill="#000000" fill-rule="nonzero" fill-opacity="1"></path><path clip-path="url(#clip850)" d="M1917.41 1517.37 Q1913.8 1517.37 1911.97 1520.93 Q1910.16 1524.47 1910.16 1531.6 Q1910.16 1538.71 1911.97 1542.27 Q1913.8 1545.82 1917.41 1545.82 Q1921.04 1545.82 1922.85 1542.27 Q1924.68 1538.71 1924.68 1531.6 Q1924.68 1524.47 1922.85 1520.93 Q1921.04 1517.37 1917.41 1517.37 M1917.41 1513.66 Q1923.22 1513.66 1926.27 1518.27 Q1929.35 1522.85 1929.35 1531.6 Q1929.35 1540.33 1926.27 1544.94 Q1923.22 1549.52 1917.41 1549.52 Q1911.6 1549.52 1908.52 1544.94 Q1905.46 1540.33 1905.46 1531.6 Q1905.46 1522.85 1908.52 1518.27 Q1911.6 1513.66 1917.41 1513.66 Z" fill="#000000" fill-rule="nonzero" fill-opacity="1"></path><path clip-path="url(#clip850)" d="M2259.1 1514.29 L2277.46 1514.29 L2277.46 1518.22 L2263.38 1518.22 L2263.38 1526.7 Q2264.4 1526.35 2265.42 1526.19 Q2266.44 1526 2267.46 1526 Q2273.25 1526 2276.62 1529.17 Q2280 1532.34 2280 1537.76 Q2280 1543.34 2276.53 1546.44 Q2273.06 1549.52 2266.74 1549.52 Q2264.56 1549.52 2262.3 1549.15 Q2260.05 1548.78 2257.64 1548.04 L2257.64 1543.34 Q2259.73 1544.47 2261.95 1545.03 Q2264.17 1545.58 2266.65 1545.58 Q2270.65 1545.58 2272.99 1543.48 Q2275.33 1541.37 2275.33 1537.76 Q2275.33 1534.15 2272.99 1532.04 Q2270.65 1529.94 2266.65 1529.94 Q2264.77 1529.94 2262.9 1530.35 Q2261.05 1530.77 2259.1 1531.65 L2259.1 1514.29 Z" fill="#000000" fill-rule="nonzero" fill-opacity="1"></path><path clip-path="url(#clip850)" d="M2299.22 1517.37 Q2295.61 1517.37 2293.78 1520.93 Q2291.97 1524.47 2291.97 1531.6 Q2291.97 1538.71 2293.78 1542.27 Q2295.61 1545.82 2299.22 1545.82 Q2302.85 1545.82 2304.66 1542.27 Q2306.49 1538.71 2306.49 1531.6 Q2306.49 1524.47 2304.66 1520.93 Q2302.85 1517.37 2299.22 1517.37 M2299.22 1513.66 Q2305.03 1513.66 2308.08 1518.27 Q2311.16 1522.85 2311.16 1531.6 Q2311.16 1540.33 2308.08 1544.94 Q2305.03 1549.52 2299.22 1549.52 Q2293.41 1549.52 2290.33 1544.94 Q2287.27 1540.33 2287.27 1531.6 Q2287.27 1522.85 2290.33 1518.27 Q2293.41 1513.66 2299.22 1513.66 Z" fill="#000000" fill-rule="nonzero" fill-opacity="1"></path><path clip-path="url(#clip850)" d="M2329.38 1517.37 Q2325.77 1517.37 2323.94 1520.93 Q2322.13 1524.47 2322.13 1531.6 Q2322.13 1538.71 2323.94 1542.27 Q2325.77 1545.82 2329.38 1545.82 Q2333.01 1545.82 2334.82 1542.27 Q2336.65 1538.71 2336.65 1531.6 Q2336.65 1524.47 2334.82 1520.93 Q2333.01 1517.37 2329.38 1517.37 M2329.38 1513.66 Q2335.19 1513.66 2338.24 1518.27 Q2341.32 1522.85 2341.32 1531.6 Q2341.32 1540.33 2338.24 1544.94 Q2335.19 1549.52 2329.38 1549.52 Q2323.57 1549.52 2320.49 1544.94 Q2317.43 1540.33 2317.43 1531.6 Q2317.43 1522.85 2320.49 1518.27 Q2323.57 1513.66 2329.38 1513.66 Z" fill="#000000" fill-rule="nonzero" fill-opacity="1"></path><polyline clip-path="url(#clip850)" style="stroke:#000000; stroke-linecap:round; stroke-linejoin:round; stroke-width:4; stroke-opacity:1; fill:none" points="178.867,1486.45 178.867,47.2441 "></polyline>
<polyline clip-path="url(#clip850)" style="stroke:#000000; stroke-linecap:round; stroke-linejoin:round; stroke-width:4; stroke-opacity:1; fill:none" points="178.867,1297.06 197.764,1297.06 "></polyline>
<polyline clip-path="url(#clip850)" style="stroke:#000000; stroke-linecap:round; stroke-linejoin:round; stroke-width:4; stroke-opacity:1; fill:none" points="178.867,1021.21 197.764,1021.21 "></polyline>
<polyline clip-path="url(#clip850)" style="stroke:#000000; stroke-linecap:round; stroke-linejoin:round; stroke-width:4; stroke-opacity:1; fill:none" points="178.867,745.363 197.764,745.363 "></polyline>
<polyline clip-path="url(#clip850)" style="stroke:#000000; stroke-linecap:round; stroke-linejoin:round; stroke-width:4; stroke-opacity:1; fill:none" points="178.867,469.513 197.764,469.513 "></polyline>
<polyline clip-path="url(#clip850)" style="stroke:#000000; stroke-linecap:round; stroke-linejoin:round; stroke-width:4; stroke-opacity:1; fill:none" points="178.867,193.662 197.764,193.662 "></polyline>
<path clip-path="url(#clip850)" d="M51.9875 1297.52 L81.6633 1297.52 L81.6633 1301.45 L51.9875 1301.45 L51.9875 1297.52 Z" fill="#000000" fill-rule="nonzero" fill-opacity="1"></path><path clip-path="url(#clip850)" d="M92.566 1310.41 L100.205 1310.41 L100.205 1284.04 L91.8947 1285.71 L91.8947 1281.45 L100.159 1279.78 L104.834 1279.78 L104.834 1310.41 L112.473 1310.41 L112.473 1314.34 L92.566 1314.34 L92.566 1310.41 Z" fill="#000000" fill-rule="nonzero" fill-opacity="1"></path><path clip-path="url(#clip850)" d="M121.964 1279.78 L140.32 1279.78 L140.32 1283.72 L126.246 1283.72 L126.246 1292.19 Q127.265 1291.84 128.283 1291.68 Q129.302 1291.5 130.32 1291.5 Q136.107 1291.5 139.487 1294.67 Q142.867 1297.84 142.867 1303.26 Q142.867 1308.83 139.394 1311.94 Q135.922 1315.01 129.603 1315.01 Q127.427 1315.01 125.158 1314.64 Q122.913 1314.27 120.506 1313.53 L120.506 1308.83 Q122.589 1309.97 124.811 1310.52 Q127.033 1311.08 129.51 1311.08 Q133.515 1311.08 135.853 1308.97 Q138.191 1306.87 138.191 1303.26 Q138.191 1299.64 135.853 1297.54 Q133.515 1295.43 129.51 1295.43 Q127.635 1295.43 125.76 1295.85 Q123.908 1296.27 121.964 1297.14 L121.964 1279.78 Z" fill="#000000" fill-rule="nonzero" fill-opacity="1"></path><path clip-path="url(#clip850)" d="M50.9921 1021.66 L80.6679 1021.66 L80.6679 1025.6 L50.9921 1025.6 L50.9921 1021.66 Z" fill="#000000" fill-rule="nonzero" fill-opacity="1"></path><path clip-path="url(#clip850)" d="M91.5706 1034.56 L99.2095 1034.56 L99.2095 1008.19 L90.8993 1009.86 L90.8993 1005.6 L99.1632 1003.93 L103.839 1003.93 L103.839 1034.56 L111.478 1034.56 L111.478 1038.49 L91.5706 1038.49 L91.5706 1034.56 Z" fill="#000000" fill-rule="nonzero" fill-opacity="1"></path><path clip-path="url(#clip850)" d="M130.922 1007.01 Q127.311 1007.01 125.482 1010.58 Q123.677 1014.12 123.677 1021.25 Q123.677 1028.35 125.482 1031.92 Q127.311 1035.46 130.922 1035.46 Q134.556 1035.46 136.362 1031.92 Q138.191 1028.35 138.191 1021.25 Q138.191 1014.12 136.362 1010.58 Q134.556 1007.01 130.922 1007.01 M130.922 1003.31 Q136.732 1003.31 139.788 1007.91 Q142.867 1012.5 142.867 1021.25 Q142.867 1029.97 139.788 1034.58 Q136.732 1039.16 130.922 1039.16 Q125.112 1039.16 122.033 1034.58 Q118.978 1029.97 118.978 1021.25 Q118.978 1012.5 122.033 1007.91 Q125.112 1003.31 130.922 1003.31 Z" fill="#000000" fill-rule="nonzero" fill-opacity="1"></path><path clip-path="url(#clip850)" d="M82.1494 745.814 L111.825 745.814 L111.825 749.75 L82.1494 749.75 L82.1494 745.814 Z" fill="#000000" fill-rule="nonzero" fill-opacity="1"></path><path clip-path="url(#clip850)" d="M121.964 728.083 L140.32 728.083 L140.32 732.018 L126.246 732.018 L126.246 740.49 Q127.265 740.143 128.283 739.981 Q129.302 739.796 130.32 739.796 Q136.107 739.796 139.487 742.967 Q142.867 746.138 142.867 751.555 Q142.867 757.134 139.394 760.236 Q135.922 763.314 129.603 763.314 Q127.427 763.314 125.158 762.944 Q122.913 762.574 120.506 761.833 L120.506 757.134 Q122.589 758.268 124.811 758.824 Q127.033 759.379 129.51 759.379 Q133.515 759.379 135.853 757.273 Q138.191 755.166 138.191 751.555 Q138.191 747.944 135.853 745.838 Q133.515 743.731 129.51 743.731 Q127.635 743.731 125.76 744.148 Q123.908 744.564 121.964 745.444 L121.964 728.083 Z" fill="#000000" fill-rule="nonzero" fill-opacity="1"></path><path clip-path="url(#clip850)" d="M130.922 455.311 Q127.311 455.311 125.482 458.876 Q123.677 462.418 123.677 469.547 Q123.677 476.654 125.482 480.219 Q127.311 483.76 130.922 483.76 Q134.556 483.76 136.362 480.219 Q138.191 476.654 138.191 469.547 Q138.191 462.418 136.362 458.876 Q134.556 455.311 130.922 455.311 M130.922 451.608 Q136.732 451.608 139.788 456.214 Q142.867 460.797 142.867 469.547 Q142.867 478.274 139.788 482.881 Q136.732 487.464 130.922 487.464 Q125.112 487.464 122.033 482.881 Q118.978 478.274 118.978 469.547 Q118.978 460.797 122.033 456.214 Q125.112 451.608 130.922 451.608 Z" fill="#000000" fill-rule="nonzero" fill-opacity="1"></path><path clip-path="url(#clip850)" d="M121.964 176.382 L140.32 176.382 L140.32 180.318 L126.246 180.318 L126.246 188.79 Q127.265 188.443 128.283 188.28 Q129.302 188.095 130.32 188.095 Q136.107 188.095 139.487 191.267 Q142.867 194.438 142.867 199.854 Q142.867 205.433 139.394 208.535 Q135.922 211.614 129.603 211.614 Q127.427 211.614 125.158 211.243 Q122.913 210.873 120.506 210.132 L120.506 205.433 Q122.589 206.567 124.811 207.123 Q127.033 207.679 129.51 207.679 Q133.515 207.679 135.853 205.572 Q138.191 203.466 138.191 199.854 Q138.191 196.243 135.853 194.137 Q133.515 192.03 129.51 192.03 Q127.635 192.03 125.76 192.447 Q123.908 192.864 121.964 193.743 L121.964 176.382 Z" fill="#000000" fill-rule="nonzero" fill-opacity="1"></path><polyline clip-path="url(#clip852)" style="stroke:#009af9; stroke-linecap:round; stroke-linejoin:round; stroke-width:4; stroke-opacity:1; fill:none" points="240.392,463.996 244.518,409.912 248.645,443.603 252.771,346.788 256.898,296.914 261.024,256.854 265.15,261.53 269.277,281.714 273.403,262.106 277.53,245.587 281.656,249.714 285.783,286.877 289.909,298.243 294.035,260.62 298.162,281.64 302.288,329.792 306.415,390.064 310.541,247.164 314.668,432.817 318.794,329.157 322.921,334.875 327.047,393.472 331.173,476.625 335.3,409.899 339.426,428.054 343.553,402.487 347.679,449.116 351.806,392.385 355.932,452.3 360.058,480.248 364.185,446.469 368.311,440.569 372.438,463.09 376.564,475.034 380.691,641.493 384.817,609.019 388.944,640.467 393.07,607.71 397.196,698.925 401.323,654.327 405.449,684.961 409.576,677.715 413.702,679.873 417.829,708.727 421.955,660.615 426.081,710.707 430.208,645.644 434.334,796.295 438.461,752.884 442.587,854.11 446.714,842.371 450.84,718.468 454.966,667.022 459.093,725.288 463.219,780.451 467.346,775.453 471.472,722.934 475.599,713.204 479.725,817.954 483.852,821.065 487.978,932.544 492.104,879.107 496.231,928.098 500.357,830.874 504.484,967.013 508.61,851.28 512.737,971.286 516.863,874.652 520.989,823.216 525.116,853.535 529.242,888.437 533.369,852.016 537.495,809.028 541.622,887.97 545.748,885.856 549.875,956.963 554.001,952.63 558.127,1015.62 562.254,932.246 566.38,1027.6 570.507,1057.9 574.633,1039.51 578.76,1020.25 582.886,1065.09 587.012,1016.71 591.139,1043.14 595.265,1055.81 599.392,1022.64 603.518,1067.39 607.645,1036.48 611.771,1050.77 615.898,989.123 620.024,1004.54 624.15,905.297 628.277,996.823 632.403,968.348 636.53,956.434 640.656,941.489 644.783,864.134 648.909,1013.37 653.035,984.924 657.162,1042.38 661.288,951.779 665.415,951.552 669.541,946.133 673.668,987.849 677.794,1001.74 681.921,1008.63 686.047,977.952 690.173,950.118 694.3,932.623 698.426,870.774 702.553,946.244 706.679,918.49 710.806,827.157 714.932,927.874 719.058,942.658 723.185,996.585 727.311,945.152 731.438,979.099 735.564,888.667 739.691,937.663 743.817,952.82 747.943,959.622 752.07,940.705 756.196,979.274 760.323,1043.63 764.449,1055.34 768.576,959.835 772.702,997.752 776.829,1079.86 780.955,1054.42 785.081,1132.28 789.208,1051.72 793.334,1091.06 797.461,1038.38 801.587,1041.64 805.714,1036.41 809.84,1041.29 813.966,1026.15 818.093,1093.71 822.219,1119.74 826.346,1156.34 830.472,1121.21 834.599,1105.83 838.725,1144.61 842.852,1121.76 846.978,1011.65 851.104,1063.16 855.231,1082.29 859.357,1170.8 863.484,1165.35 867.61,1204.33 871.737,1241.85 875.863,1228.66 879.989,1224.02 884.116,1371.48 888.242,1296.54 892.369,1297.62 896.495,1271.12 900.622,1212.65 904.748,1287.73 908.875,1306.34 913.001,1324.61 917.127,1281.72 921.254,1374.44 925.38,1397.38 929.507,1445.72 933.633,1389.58 937.76,1314.52 941.886,1326.24 946.012,1306.95 950.139,1267.62 954.265,1232.09 958.392,1263.89 962.518,1258 966.645,1332.33 970.771,1185.2 974.897,1243.03 979.024,1085.06 983.15,1128.15 987.277,1195.85 991.403,1160.31 995.53,1184.39 999.656,1209.85 1003.78,1181.39 1007.91,1172.51 1012.04,1127.84 1016.16,1084 1020.29,1133.32 1024.41,1082.17 1028.54,1099.87 1032.67,1209.44 1036.79,1185.15 1040.92,1113.76 1045.05,1076.9 1049.17,1043.67 1053.3,1088.15 1057.43,1129.82 1061.55,1008.5 1065.68,1050.43 1069.81,967.714 1073.93,1012.26 1078.06,990.159 1082.18,992.558 1086.31,872.826 1090.44,797.789 1094.56,823.529 1098.69,771.526 1102.82,878.845 1106.94,754.113 1111.07,690.758 1115.2,690.12 1119.32,707.627 1123.45,659.079 1127.58,659.55 1131.7,604.089 1135.83,508.409 1139.95,542.44 1144.08,580.298 1148.21,555.615 1152.33,630.136 1156.46,579.785 1160.59,537.278 1164.71,490.527 1168.84,489.969 1172.97,506.264 1177.09,412.134 1181.22,432.634 1185.35,435.292 1189.47,389.774 1193.6,336.328 1197.73,261.815 1201.85,298.091 1205.98,306.147 1210.1,252.194 1214.23,351.667 1218.36,364.651 1222.48,321.068 1226.61,213.732 1230.74,322.587 1234.86,284.005 1238.99,268.01 1243.12,227.985 1247.24,200.044 1251.37,148.791 1255.5,210.198 1259.62,204.04 1263.75,165.513 1267.87,156.936 1272,114.525 1276.13,87.9763 1280.25,96.0803 1284.38,142.943 1288.51,192.105 1292.63,121.69 1296.76,196.132 1300.89,121.004 1305.01,149.538 1309.14,105.297 1313.27,180.091 1317.39,118.822 1321.52,237.373 1325.64,223.343 1329.77,215.008 1333.9,272.24 1338.02,307.649 1342.15,357.39 1346.28,331.296 1350.4,277.235 1354.53,295.765 1358.66,283.154 1362.78,241.407 1366.91,255.417 1371.04,249.663 1375.16,295.688 1379.29,302.822 1383.41,289.782 1387.54,323.351 1391.67,342.433 1395.79,325.658 1399.92,322.116 1404.05,262.491 1408.17,361.099 1412.3,307.433 1416.43,313.913 1420.55,333.105 1424.68,501.926 1428.81,453.799 1432.93,452.118 1437.06,476.675 1441.18,526.594 1445.31,549.886 1449.44,490.545 1453.56,455.013 1457.69,504.586 1461.82,553.631 1465.94,627.402 1470.07,568.51 1474.2,559.01 1478.32,516.341 1482.45,543.679 1486.58,519 1490.7,475.617 1494.83,539.378 1498.95,498.01 1503.08,504.081 1507.21,498.998 1511.33,518.666 1515.46,486.145 1519.59,531.456 1523.71,580.161 1527.84,505.851 1531.97,530.57 1536.09,580.239 1540.22,453.203 1544.35,500.17 1548.47,533.772 1552.6,563.318 1556.73,486.337 1560.85,491.607 1564.98,469.558 1569.1,527.321 1573.23,513.501 1577.36,477.167 1581.48,462.006 1585.61,452.412 1589.74,455.479 1593.86,533.645 1597.99,537.477 1602.12,567.721 1606.24,642.07 1610.37,678.639 1614.5,715.814 1618.62,702.28 1622.75,676.32 1626.87,627.675 1631,690.753 1635.13,650.52 1639.25,678.073 1643.38,723.62 1647.51,771.117 1651.63,763.212 1655.76,725.973 1659.89,757.822 1664.01,675.174 1668.14,752.027 1672.27,720.95 1676.39,754.153 1680.52,698.173 1684.64,698.422 1688.77,645.522 1692.9,706.957 1697.02,600.832 1701.15,621.365 1705.28,684.332 1709.4,629.011 1713.53,611.431 1717.66,587.246 1721.78,570.286 1725.91,431.79 1730.04,352.069 1734.16,424.845 1738.29,392.482 1742.41,488.794 1746.54,421.84 1750.67,413.919 1754.79,465.144 1758.92,541.02 1763.05,517.135 1767.17,486.224 1771.3,507.659 1775.43,530.617 1779.55,643.792 1783.68,619.451 1787.81,729.135 1791.93,535.655 1796.06,598.867 1800.18,566.414 1804.31,559.589 1808.44,545.808 1812.56,529.792 1816.69,613.114 1820.82,593.567 1824.94,571.525 1829.07,616.474 1833.2,663.181 1837.32,695.567 1841.45,658.675 1845.58,695.799 1849.7,637.295 1853.83,699.301 1857.95,724.983 1862.08,701.558 1866.21,711.615 1870.33,741.113 1874.46,684.515 1878.59,773.606 1882.71,816.629 1886.84,790.847 1890.97,767.619 1895.09,798.275 1899.22,781.904 1903.35,828.842 1907.47,833.259 1911.6,741.373 1915.73,821.096 1919.85,789.247 1923.98,831.86 1928.1,856.475 1932.23,924.385 1936.36,950.5 1940.48,903.287 1944.61,847.49 1948.74,884.319 1952.86,895.292 1956.99,878.912 1961.12,891.016 1965.24,903.858 1969.37,913.888 1973.5,853.08 1977.62,869.125 1981.75,922.271 1985.87,953.166 1990,935.479 1994.13,1021.15 1998.25,1027.19 2002.38,957.467 2006.51,925.225 2010.63,949.855 2014.76,918.317 2018.89,934.733 2023.01,939.295 2027.14,994.741 2031.27,993.022 2035.39,922.646 2039.52,1042.75 2043.64,911.688 2047.77,1063.5 2051.9,1069.49 2056.02,1068.85 2060.15,1064.44 2064.28,989.01 2068.4,1087.29 2072.53,1058.33 2076.66,941.686 2080.78,860.752 2084.91,863.534 2089.04,886.922 2093.16,927.059 2097.29,931.308 2101.41,940.895 2105.54,888.008 2109.67,958.281 2113.79,909.683 2117.92,984.011 2122.05,1040.84 2126.17,1038.67 2130.3,1078.21 2134.43,1025.65 2138.55,1057.11 2142.68,1025.44 2146.81,1054.35 2150.93,1046.17 2155.06,1065.34 2159.18,1127.77 2163.31,1078.59 2167.44,1152.12 2171.56,1164.82 2175.69,1054.88 2179.82,1084.81 2183.94,1019.79 2188.07,1005.5 2192.2,1014.41 2196.32,997.129 2200.45,995.431 2204.58,1094.78 2208.7,1058.54 2212.83,1002.52 2216.95,1140.1 2221.08,1080.7 2225.21,1229.24 2229.33,1237.74 2233.46,1230.73 2237.59,1252.95 2241.71,1230.31 2245.84,1187.76 2249.97,1169.31 2254.09,1155.4 2258.22,1211.63 2262.35,1174.48 2266.47,1199.07 2270.6,1191.46 2274.72,1214.4 2278.85,1208.71 2282.98,1229.63 2287.1,1263.27 2291.23,1177.97 "></polyline>
<path clip-path="url(#clip850)" d="M2010.47 198.898 L2280.29 198.898 L2280.29 95.2176 L2010.47 95.2176  Z" fill="#ffffff" fill-rule="evenodd" fill-opacity="1"></path>
<polyline clip-path="url(#clip850)" style="stroke:#000000; stroke-linecap:round; stroke-linejoin:round; stroke-width:4; stroke-opacity:1; fill:none" points="2010.47,198.898 2280.29,198.898 2280.29,95.2176 2010.47,95.2176 2010.47,198.898 "></polyline>
<polyline clip-path="url(#clip850)" style="stroke:#009af9; stroke-linecap:round; stroke-linejoin:round; stroke-width:4; stroke-opacity:1; fill:none" points="2034.63,147.058 2179.55,147.058 "></polyline>
<path clip-path="url(#clip850)" d="M2217.55 166.745 Q2215.75 171.375 2214.03 172.787 Q2212.32 174.199 2209.45 174.199 L2206.05 174.199 L2206.05 170.634 L2208.55 170.634 Q2210.31 170.634 2211.28 169.8 Q2212.25 168.967 2213.43 165.865 L2214.19 163.921 L2203.71 138.412 L2208.22 138.412 L2216.32 158.689 L2224.43 138.412 L2228.94 138.412 L2217.55 166.745 Z" fill="#000000" fill-rule="nonzero" fill-opacity="1"></path><path clip-path="url(#clip850)" d="M2236.23 160.402 L2243.87 160.402 L2243.87 134.037 L2235.56 135.703 L2235.56 131.444 L2243.82 129.778 L2248.5 129.778 L2248.5 160.402 L2256.14 160.402 L2256.14 164.338 L2236.23 164.338 L2236.23 160.402 Z" fill="#000000" fill-rule="nonzero" fill-opacity="1"></path></svg>