<svg xmlns="http://www.w3.org/2000/svg" xmlns:xlink="http://www.w3.org/1999/xlink" width="600" height="400" viewBox="0 0 2400 1600">
<defs>
  <clipPath id="clip610">
    <rect x="0" y="0" width="2400" height="1600"></rect>
  </clipPath>
</defs>
<path clip-path="url(#clip610)" d="M0 1600 L2400 1600 L2400 8.88178e-14 L0 8.88178e-14  Z" fill="#ffffff" fill-rule="evenodd" fill-opacity="1"></path>
<defs>
  <clipPath id="clip611">
    <rect x="480" y="0" width="1681" height="1600"></rect>
  </clipPath>
</defs>
<path clip-path="url(#clip610)" d="M169.121 1486.45 L2352.76 1486.45 L2352.76 47.2441 L169.121 47.2441  Z" fill="#ffffff" fill-rule="evenodd" fill-opacity="1"></path>
<defs>
  <clipPath id="clip612">
    <rect x="169" y="47" width="2185" height="1440"></rect>
  </clipPath>
</defs>
<polyline clip-path="url(#clip612)" style="stroke:#000000; stroke-linecap:round; stroke-linejoin:round; stroke-width:2; stroke-opacity:0.1; fill:none" points="237.446,1486.45 237.446,47.2441 "></polyline>
<polyline clip-path="url(#clip612)" style="stroke:#000000; stroke-linecap:round; stroke-linejoin:round; stroke-width:2; stroke-opacity:0.1; fill:none" points="749.47,1486.45 749.47,47.2441 "></polyline>
<polyline clip-path="url(#clip612)" style="stroke:#000000; stroke-linecap:round; stroke-linejoin:round; stroke-width:2; stroke-opacity:0.1; fill:none" points="1261.49,1486.45 1261.49,47.2441 "></polyline>
<polyline clip-path="url(#clip612)" style="stroke:#000000; stroke-linecap:round; stroke-linejoin:round; stroke-width:2; stroke-opacity:0.1; fill:none" points="1773.52,1486.45 1773.52,47.2441 "></polyline>
<polyline clip-path="url(#clip612)" style="stroke:#000000; stroke-linecap:round; stroke-linejoin:round; stroke-width:2; stroke-opacity:0.1; fill:none" points="2285.54,1486.45 2285.54,47.2441 "></polyline>
<polyline clip-path="url(#clip612)" style="stroke:#000000; stroke-linecap:round; stroke-linejoin:round; stroke-width:2; stroke-opacity:0.1; fill:none" points="169.121,1445.72 2352.76,1445.72 "></polyline>
<polyline clip-path="url(#clip612)" style="stroke:#000000; stroke-linecap:round; stroke-linejoin:round; stroke-width:2; stroke-opacity:0.1; fill:none" points="169.121,1243.11 2352.76,1243.11 "></polyline>
<polyline clip-path="url(#clip612)" style="stroke:#000000; stroke-linecap:round; stroke-linejoin:round; stroke-width:2; stroke-opacity:0.1; fill:none" points="169.121,1040.51 2352.76,1040.51 "></polyline>
<polyline clip-path="url(#clip612)" style="stroke:#000000; stroke-linecap:round; stroke-linejoin:round; stroke-width:2; stroke-opacity:0.1; fill:none" points="169.121,837.906 2352.76,837.906 "></polyline>
<polyline clip-path="url(#clip612)" style="stroke:#000000; stroke-linecap:round; stroke-linejoin:round; stroke-width:2; stroke-opacity:0.1; fill:none" points="169.121,635.303 2352.76,635.303 "></polyline>
<polyline clip-path="url(#clip612)" style="stroke:#000000; stroke-linecap:round; stroke-linejoin:round; stroke-width:2; stroke-opacity:0.1; fill:none" points="169.121,432.7 2352.76,432.7 "></polyline>
<polyline clip-path="url(#clip612)" style="stroke:#000000; stroke-linecap:round; stroke-linejoin:round; stroke-width:2; stroke-opacity:0.1; fill:none" points="169.121,230.097 2352.76,230.097 "></polyline>
<polyline clip-path="url(#clip610)" style="stroke:#000000; stroke-linecap:round; stroke-linejoin:round; stroke-width:4; stroke-opacity:1; fill:none" points="169.121,1486.45 2352.76,1486.45 "></polyline>
<polyline clip-path="url(#clip610)" style="stroke:#000000; stroke-linecap:round; stroke-linejoin:round; stroke-width:4; stroke-opacity:1; fill:none" points="237.446,1486.45 237.446,1467.55 "></polyline>
<polyline clip-path="url(#clip610)" style="stroke:#000000; stroke-linecap:round; stroke-linejoin:round; stroke-width:4; stroke-opacity:1; fill:none" points="749.47,1486.45 749.47,1467.55 "></polyline>
<polyline clip-path="url(#clip610)" style="stroke:#000000; stroke-linecap:round; stroke-linejoin:round; stroke-width:4; stroke-opacity:1; fill:none" points="1261.49,1486.45 1261.49,1467.55 "></polyline>
<polyline clip-path="url(#clip610)" style="stroke:#000000; stroke-linecap:round; stroke-linejoin:round; stroke-width:4; stroke-opacity:1; fill:none" points="1773.52,1486.45 1773.52,1467.55 "></polyline>
<polyline clip-path="url(#clip610)" style="stroke:#000000; stroke-linecap:round; stroke-linejoin:round; stroke-width:4; stroke-opacity:1; fill:none" points="2285.54,1486.45 2285.54,1467.55 "></polyline>
<path clip-path="url(#clip610)" d="M183.974 1532.02 L213.65 1532.02 L213.65 1535.95 L183.974 1535.95 L183.974 1532.02 Z" fill="#000000" fill-rule="nonzero" fill-opacity="1"></path><path clip-path="url(#clip610)" d="M224.553 1544.91 L232.191 1544.91 L232.191 1518.55 L223.881 1520.21 L223.881 1515.95 L232.145 1514.29 L236.821 1514.29 L236.821 1544.91 L244.46 1544.91 L244.46 1548.85 L224.553 1548.85 L224.553 1544.91 Z" fill="#000000" fill-rule="nonzero" fill-opacity="1"></path><path clip-path="url(#clip610)" d="M253.904 1542.97 L258.788 1542.97 L258.788 1548.85 L253.904 1548.85 L253.904 1542.97 Z" fill="#000000" fill-rule="nonzero" fill-opacity="1"></path><path clip-path="url(#clip610)" d="M278.974 1517.37 Q275.362 1517.37 273.534 1520.93 Q271.728 1524.47 271.728 1531.6 Q271.728 1538.71 273.534 1542.27 Q275.362 1545.82 278.974 1545.82 Q282.608 1545.82 284.413 1542.27 Q286.242 1538.71 286.242 1531.6 Q286.242 1524.47 284.413 1520.93 Q282.608 1517.37 278.974 1517.37 M278.974 1513.66 Q284.784 1513.66 287.839 1518.27 Q290.918 1522.85 290.918 1531.6 Q290.918 1540.33 287.839 1544.94 Q284.784 1549.52 278.974 1549.52 Q273.163 1549.52 270.085 1544.94 Q267.029 1540.33 267.029 1531.6 Q267.029 1522.85 270.085 1518.27 Q273.163 1513.66 278.974 1513.66 Z" fill="#000000" fill-rule="nonzero" fill-opacity="1"></path><path clip-path="url(#clip610)" d="M696.495 1532.02 L726.171 1532.02 L726.171 1535.95 L696.495 1535.95 L696.495 1532.02 Z" fill="#000000" fill-rule="nonzero" fill-opacity="1"></path><path clip-path="url(#clip610)" d="M746.264 1517.37 Q742.652 1517.37 740.824 1520.93 Q739.018 1524.47 739.018 1531.6 Q739.018 1538.71 740.824 1542.27 Q742.652 1545.82 746.264 1545.82 Q749.898 1545.82 751.703 1542.27 Q753.532 1538.71 753.532 1531.6 Q753.532 1524.47 751.703 1520.93 Q749.898 1517.37 746.264 1517.37 M746.264 1513.66 Q752.074 1513.66 755.129 1518.27 Q758.208 1522.85 758.208 1531.6 Q758.208 1540.33 755.129 1544.94 Q752.074 1549.52 746.264 1549.52 Q740.453 1549.52 737.375 1544.94 Q734.319 1540.33 734.319 1531.6 Q734.319 1522.85 737.375 1518.27 Q740.453 1513.66 746.264 1513.66 Z" fill="#000000" fill-rule="nonzero" fill-opacity="1"></path><path clip-path="url(#clip610)" d="M766.425 1542.97 L771.31 1542.97 L771.31 1548.85 L766.425 1548.85 L766.425 1542.97 Z" fill="#000000" fill-rule="nonzero" fill-opacity="1"></path><path clip-path="url(#clip610)" d="M781.541 1514.29 L799.898 1514.29 L799.898 1518.22 L785.824 1518.22 L785.824 1526.7 Q786.842 1526.35 787.861 1526.19 Q788.879 1526 789.898 1526 Q795.685 1526 799.064 1529.17 Q802.444 1532.34 802.444 1537.76 Q802.444 1543.34 798.972 1546.44 Q795.499 1549.52 789.18 1549.52 Q787.004 1549.52 784.736 1549.15 Q782.49 1548.78 780.083 1548.04 L780.083 1543.34 Q782.166 1544.47 784.388 1545.03 Q786.611 1545.58 789.087 1545.58 Q793.092 1545.58 795.43 1543.48 Q797.768 1541.37 797.768 1537.76 Q797.768 1534.15 795.43 1532.04 Q793.092 1529.94 789.087 1529.94 Q787.212 1529.94 785.337 1530.35 Q783.486 1530.77 781.541 1531.65 L781.541 1514.29 Z" fill="#000000" fill-rule="nonzero" fill-opacity="1"></path><path clip-path="url(#clip610)" d="M1238.88 1517.37 Q1235.27 1517.37 1233.44 1520.93 Q1231.63 1524.47 1231.63 1531.6 Q1231.63 1538.71 1233.44 1542.27 Q1235.27 1545.82 1238.88 1545.82 Q1242.51 1545.82 1244.32 1542.27 Q1246.15 1538.71 1246.15 1531.6 Q1246.15 1524.47 1244.32 1520.93 Q1242.51 1517.37 1238.88 1517.37 M1238.88 1513.66 Q1244.69 1513.66 1247.74 1518.27 Q1250.82 1522.85 1250.82 1531.6 Q1250.82 1540.33 1247.74 1544.94 Q1244.69 1549.52 1238.88 1549.52 Q1233.07 1549.52 1229.99 1544.94 Q1226.93 1540.33 1226.93 1531.6 Q1226.93 1522.85 1229.99 1518.27 Q1233.07 1513.66 1238.88 1513.66 Z" fill="#000000" fill-rule="nonzero" fill-opacity="1"></path><path clip-path="url(#clip610)" d="M1259.04 1542.97 L1263.92 1542.97 L1263.92 1548.85 L1259.04 1548.85 L1259.04 1542.97 Z" fill="#000000" fill-rule="nonzero" fill-opacity="1"></path><path clip-path="url(#clip610)" d="M1284.11 1517.37 Q1280.5 1517.37 1278.67 1520.93 Q1276.86 1524.47 1276.86 1531.6 Q1276.86 1538.71 1278.67 1542.27 Q1280.5 1545.82 1284.11 1545.82 Q1287.74 1545.82 1289.55 1542.27 Q1291.38 1538.71 1291.38 1531.6 Q1291.38 1524.47 1289.55 1520.93 Q1287.74 1517.37 1284.11 1517.37 M1284.11 1513.66 Q1289.92 1513.66 1292.97 1518.27 Q1296.05 1522.85 1296.05 1531.6 Q1296.05 1540.33 1292.97 1544.94 Q1289.92 1549.52 1284.11 1549.52 Q1278.3 1549.52 1275.22 1544.94 Q1272.16 1540.33 1272.16 1531.6 Q1272.16 1522.85 1275.22 1518.27 Q1278.3 1513.66 1284.11 1513.66 Z" fill="#000000" fill-rule="nonzero" fill-opacity="1"></path><path clip-path="url(#clip610)" d="M1751.4 1517.37 Q1747.79 1517.37 1745.96 1520.93 Q1744.15 1524.47 1744.15 1531.6 Q1744.15 1538.71 1745.96 1542.27 Q1747.79 1545.82 1751.4 1545.82 Q1755.03 1545.82 1756.84 1542.27 Q1758.67 1538.71 1758.67 1531.6 Q1758.67 1524.47 1756.84 1520.93 Q1755.03 1517.37 1751.4 1517.37 M1751.4 1513.66 Q1757.21 1513.66 1760.26 1518.27 Q1763.34 1522.85 1763.34 1531.6 Q1763.34 1540.33 1760.26 1544.94 Q1757.21 1549.52 1751.4 1549.52 Q1745.59 1549.52 1742.51 1544.94 Q1739.45 1540.33 1739.45 1531.6 Q1739.45 1522.85 1742.51 1518.27 Q1745.59 1513.66 1751.4 1513.66 Z" fill="#000000" fill-rule="nonzero" fill-opacity="1"></path><path clip-path="url(#clip610)" d="M1771.56 1542.97 L1776.44 1542.97 L1776.44 1548.85 L1771.56 1548.85 L1771.56 1542.97 Z" fill="#000000" fill-rule="nonzero" fill-opacity="1"></path><path clip-path="url(#clip610)" d="M1786.68 1514.29 L1805.03 1514.29 L1805.03 1518.22 L1790.96 1518.22 L1790.96 1526.7 Q1791.98 1526.35 1793 1526.19 Q1794.01 1526 1795.03 1526 Q1800.82 1526 1804.2 1529.17 Q1807.58 1532.34 1807.58 1537.76 Q1807.58 1543.34 1804.11 1546.44 Q1800.63 1549.52 1794.32 1549.52 Q1792.14 1549.52 1789.87 1549.15 Q1787.63 1548.78 1785.22 1548.04 L1785.22 1543.34 Q1787.3 1544.47 1789.52 1545.03 Q1791.75 1545.58 1794.22 1545.58 Q1798.23 1545.58 1800.57 1543.48 Q1802.9 1541.37 1802.9 1537.76 Q1802.9 1534.15 1800.57 1532.04 Q1798.23 1529.94 1794.22 1529.94 Q1792.35 1529.94 1790.47 1530.35 Q1788.62 1530.77 1786.68 1531.65 L1786.68 1514.29 Z" fill="#000000" fill-rule="nonzero" fill-opacity="1"></path><path clip-path="url(#clip610)" d="M2252.69 1544.91 L2260.33 1544.91 L2260.33 1518.55 L2252.02 1520.21 L2252.02 1515.95 L2260.29 1514.29 L2264.96 1514.29 L2264.96 1544.91 L2272.6 1544.91 L2272.6 1548.85 L2252.69 1548.85 L2252.69 1544.91 Z" fill="#000000" fill-rule="nonzero" fill-opacity="1"></path><path clip-path="url(#clip610)" d="M2282.04 1542.97 L2286.93 1542.97 L2286.93 1548.85 L2282.04 1548.85 L2282.04 1542.97 Z" fill="#000000" fill-rule="nonzero" fill-opacity="1"></path><path clip-path="url(#clip610)" d="M2307.11 1517.37 Q2303.5 1517.37 2301.67 1520.93 Q2299.87 1524.47 2299.87 1531.6 Q2299.87 1538.71 2301.67 1542.27 Q2303.5 1545.82 2307.11 1545.82 Q2310.75 1545.82 2312.55 1542.27 Q2314.38 1538.71 2314.38 1531.6 Q2314.38 1524.47 2312.55 1520.93 Q2310.75 1517.37 2307.11 1517.37 M2307.11 1513.66 Q2312.92 1513.66 2315.98 1518.27 Q2319.06 1522.85 2319.06 1531.6 Q2319.06 1540.33 2315.98 1544.94 Q2312.92 1549.52 2307.11 1549.52 Q2301.3 1549.52 2298.23 1544.94 Q2295.17 1540.33 2295.17 1531.6 Q2295.17 1522.85 2298.23 1518.27 Q2301.3 1513.66 2307.11 1513.66 Z" fill="#000000" fill-rule="nonzero" fill-opacity="1"></path><polyline clip-path="url(#clip610)" style="stroke:#000000; stroke-linecap:round; stroke-linejoin:round; stroke-width:4; stroke-opacity:1; fill:none" points="169.121,1486.45 169.121,47.2441 "></polyline>
<polyline clip-path="url(#clip610)" style="stroke:#000000; stroke-linecap:round; stroke-linejoin:round; stroke-width:4; stroke-opacity:1; fill:none" points="169.121,1445.72 188.019,1445.72 "></polyline>
<polyline clip-path="url(#clip610)" style="stroke:#000000; stroke-linecap:round; stroke-linejoin:round; stroke-width:4; stroke-opacity:1; fill:none" points="169.121,1243.11 188.019,1243.11 "></polyline>
<polyline clip-path="url(#clip610)" style="stroke:#000000; stroke-linecap:round; stroke-linejoin:round; stroke-width:4; stroke-opacity:1; fill:none" points="169.121,1040.51 188.019,1040.51 "></polyline>
<polyline clip-path="url(#clip610)" style="stroke:#000000; stroke-linecap:round; stroke-linejoin:round; stroke-width:4; stroke-opacity:1; fill:none" points="169.121,837.906 188.019,837.906 "></polyline>
<polyline clip-path="url(#clip610)" style="stroke:#000000; stroke-linecap:round; stroke-linejoin:round; stroke-width:4; stroke-opacity:1; fill:none" points="169.121,635.303 188.019,635.303 "></polyline>
<polyline clip-path="url(#clip610)" style="stroke:#000000; stroke-linecap:round; stroke-linejoin:round; stroke-width:4; stroke-opacity:1; fill:none" points="169.121,432.7 188.019,432.7 "></polyline>
<polyline clip-path="url(#clip610)" style="stroke:#000000; stroke-linecap:round; stroke-linejoin:round; stroke-width:4; stroke-opacity:1; fill:none" points="169.121,230.097 188.019,230.097 "></polyline>
<path clip-path="url(#clip610)" d="M121.177 1431.51 Q117.566 1431.51 115.737 1435.08 Q113.932 1438.62 113.932 1445.75 Q113.932 1452.86 115.737 1456.42 Q117.566 1459.96 121.177 1459.96 Q124.811 1459.96 126.617 1456.42 Q128.445 1452.86 128.445 1445.75 Q128.445 1438.62 126.617 1435.08 Q124.811 1431.51 121.177 1431.51 M121.177 1427.81 Q126.987 1427.81 130.043 1432.42 Q133.121 1437 133.121 1445.75 Q133.121 1454.48 130.043 1459.08 Q126.987 1463.67 121.177 1463.67 Q115.367 1463.67 112.288 1459.08 Q109.233 1454.48 109.233 1445.75 Q109.233 1437 112.288 1432.42 Q115.367 1427.81 121.177 1427.81 Z" fill="#000000" fill-rule="nonzero" fill-opacity="1"></path><path clip-path="url(#clip610)" d="M85.0429 1256.46 L101.362 1256.46 L101.362 1260.39 L79.4179 1260.39 L79.4179 1256.46 Q82.0799 1253.7 86.6632 1249.07 Q91.2697 1244.42 92.4502 1243.08 Q94.6956 1240.55 95.5752 1238.82 Q96.478 1237.06 96.478 1235.37 Q96.478 1232.61 94.5336 1230.88 Q92.6123 1229.14 89.5104 1229.14 Q87.3114 1229.14 84.8577 1229.91 Q82.4271 1230.67 79.6494 1232.22 L79.6494 1227.5 Q82.4734 1226.37 84.9271 1225.79 Q87.3808 1225.21 89.4178 1225.21 Q94.7882 1225.21 97.9826 1227.89 Q101.177 1230.58 101.177 1235.07 Q101.177 1237.2 100.367 1239.12 Q99.5798 1241.02 97.4734 1243.61 Q96.8947 1244.28 93.7928 1247.5 Q90.691 1250.69 85.0429 1256.46 Z" fill="#000000" fill-rule="nonzero" fill-opacity="1"></path><path clip-path="url(#clip610)" d="M121.177 1228.91 Q117.566 1228.91 115.737 1232.48 Q113.932 1236.02 113.932 1243.15 Q113.932 1250.25 115.737 1253.82 Q117.566 1257.36 121.177 1257.36 Q124.811 1257.36 126.617 1253.82 Q128.445 1250.25 128.445 1243.15 Q128.445 1236.02 126.617 1232.48 Q124.811 1228.91 121.177 1228.91 M121.177 1225.21 Q126.987 1225.21 130.043 1229.81 Q133.121 1234.4 133.121 1243.15 Q133.121 1251.87 130.043 1256.48 Q126.987 1261.06 121.177 1261.06 Q115.367 1261.06 112.288 1256.48 Q109.233 1251.87 109.233 1243.15 Q109.233 1234.4 112.288 1229.81 Q115.367 1225.21 121.177 1225.21 Z" fill="#000000" fill-rule="nonzero" fill-opacity="1"></path><path clip-path="url(#clip610)" d="M93.8623 1027.3 L82.0568 1045.75 L93.8623 1045.75 L93.8623 1027.3 M92.6354 1023.23 L98.515 1023.23 L98.515 1045.75 L103.446 1045.75 L103.446 1049.64 L98.515 1049.64 L98.515 1057.79 L93.8623 1057.79 L93.8623 1049.64 L78.2605 1049.64 L78.2605 1045.13 L92.6354 1023.23 Z" fill="#000000" fill-rule="nonzero" fill-opacity="1"></path><path clip-path="url(#clip610)" d="M121.177 1026.31 Q117.566 1026.31 115.737 1029.87 Q113.932 1033.41 113.932 1040.54 Q113.932 1047.65 115.737 1051.22 Q117.566 1054.76 121.177 1054.76 Q124.811 1054.76 126.617 1051.22 Q128.445 1047.65 128.445 1040.54 Q128.445 1033.41 126.617 1029.87 Q124.811 1026.31 121.177 1026.31 M121.177 1022.6 Q126.987 1022.6 130.043 1027.21 Q133.121 1031.79 133.121 1040.54 Q133.121 1049.27 130.043 1053.88 Q126.987 1058.46 121.177 1058.46 Q115.367 1058.46 112.288 1053.88 Q109.233 1049.27 109.233 1040.54 Q109.233 1031.79 112.288 1027.21 Q115.367 1022.6 121.177 1022.6 Z" fill="#000000" fill-rule="nonzero" fill-opacity="1"></path><path clip-path="url(#clip610)" d="M91.5938 836.043 Q88.4456 836.043 86.5938 838.196 Q84.7651 840.349 84.7651 844.099 Q84.7651 847.825 86.5938 850.001 Q88.4456 852.154 91.5938 852.154 Q94.7419 852.154 96.5706 850.001 Q98.4224 847.825 98.4224 844.099 Q98.4224 840.349 96.5706 838.196 Q94.7419 836.043 91.5938 836.043 M100.876 821.39 L100.876 825.65 Q99.1169 824.816 97.3113 824.376 Q95.5289 823.937 93.7697 823.937 Q89.1401 823.937 86.6864 827.062 Q84.2558 830.187 83.9086 836.506 Q85.2743 834.492 87.3345 833.427 Q89.3947 832.339 91.8715 832.339 Q97.0798 832.339 100.089 835.511 Q103.121 838.659 103.121 844.099 Q103.121 849.423 99.9733 852.64 Q96.8252 855.858 91.5938 855.858 Q85.5984 855.858 82.4271 851.274 Q79.2559 846.668 79.2559 837.941 Q79.2559 829.747 83.1447 824.886 Q87.0336 820.001 93.5845 820.001 Q95.3437 820.001 97.1261 820.349 Q98.9317 820.696 100.876 821.39 Z" fill="#000000" fill-rule="nonzero" fill-opacity="1"></path><path clip-path="url(#clip610)" d="M121.177 823.705 Q117.566 823.705 115.737 827.27 Q113.932 830.812 113.932 837.941 Q113.932 845.048 115.737 848.612 Q117.566 852.154 121.177 852.154 Q124.811 852.154 126.617 848.612 Q128.445 845.048 128.445 837.941 Q128.445 830.812 126.617 827.27 Q124.811 823.705 121.177 823.705 M121.177 820.001 Q126.987 820.001 130.043 824.608 Q133.121 829.191 133.121 837.941 Q133.121 846.668 130.043 851.274 Q126.987 855.858 121.177 855.858 Q115.367 855.858 112.288 851.274 Q109.233 846.668 109.233 837.941 Q109.233 829.191 112.288 824.608 Q115.367 820.001 121.177 820.001 Z" fill="#000000" fill-rule="nonzero" fill-opacity="1"></path><path clip-path="url(#clip610)" d="M91.0151 636.171 Q87.6817 636.171 85.7605 637.954 Q83.8623 639.736 83.8623 642.861 Q83.8623 645.986 85.7605 647.769 Q87.6817 649.551 91.0151 649.551 Q94.3484 649.551 96.2697 647.769 Q98.1909 645.963 98.1909 642.861 Q98.1909 639.736 96.2697 637.954 Q94.3715 636.171 91.0151 636.171 M86.3392 634.181 Q83.3299 633.44 81.6401 631.38 Q79.9735 629.32 79.9735 626.357 Q79.9735 622.213 82.9133 619.806 Q85.8762 617.398 91.0151 617.398 Q96.1771 617.398 99.1169 619.806 Q102.057 622.213 102.057 626.357 Q102.057 629.32 100.367 631.38 Q98.7002 633.44 95.7141 634.181 Q99.0937 634.968 100.969 637.259 Q102.867 639.551 102.867 642.861 Q102.867 647.884 99.7882 650.57 Q96.7326 653.255 91.0151 653.255 Q85.2975 653.255 82.2188 650.57 Q79.1633 647.884 79.1633 642.861 Q79.1633 639.551 81.0614 637.259 Q82.9595 634.968 86.3392 634.181 M84.6262 626.797 Q84.6262 629.482 86.2929 630.986 Q87.9827 632.491 91.0151 632.491 Q94.0243 632.491 95.7141 630.986 Q97.4271 629.482 97.4271 626.797 Q97.4271 624.111 95.7141 622.607 Q94.0243 621.102 91.0151 621.102 Q87.9827 621.102 86.2929 622.607 Q84.6262 624.111 84.6262 626.797 Z" fill="#000000" fill-rule="nonzero" fill-opacity="1"></path><path clip-path="url(#clip610)" d="M121.177 621.102 Q117.566 621.102 115.737 624.667 Q113.932 628.209 113.932 635.338 Q113.932 642.445 115.737 646.009 Q117.566 649.551 121.177 649.551 Q124.811 649.551 126.617 646.009 Q128.445 642.445 128.445 635.338 Q128.445 628.209 126.617 624.667 Q124.811 621.102 121.177 621.102 M121.177 617.398 Q126.987 617.398 130.043 622.005 Q133.121 626.588 133.121 635.338 Q133.121 644.065 130.043 648.671 Q126.987 653.255 121.177 653.255 Q115.367 653.255 112.288 648.671 Q109.233 644.065 109.233 635.338 Q109.233 626.588 112.288 622.005 Q115.367 617.398 121.177 617.398 Z" fill="#000000" fill-rule="nonzero" fill-opacity="1"></path><path clip-path="url(#clip610)" d="M51.6634 446.045 L59.3023 446.045 L59.3023 419.68 L50.9921 421.346 L50.9921 417.087 L59.256 415.42 L63.9319 415.42 L63.9319 446.045 L71.5707 446.045 L71.5707 449.98 L51.6634 449.98 L51.6634 446.045 Z" fill="#000000" fill-rule="nonzero" fill-opacity="1"></path><path clip-path="url(#clip610)" d="M91.0151 418.499 Q87.404 418.499 85.5753 422.064 Q83.7697 425.605 83.7697 432.735 Q83.7697 439.842 85.5753 443.406 Q87.404 446.948 91.0151 446.948 Q94.6493 446.948 96.4548 443.406 Q98.2835 439.842 98.2835 432.735 Q98.2835 425.605 96.4548 422.064 Q94.6493 418.499 91.0151 418.499 M91.0151 414.795 Q96.8252 414.795 99.8808 419.402 Q102.959 423.985 102.959 432.735 Q102.959 441.462 99.8808 446.068 Q96.8252 450.652 91.0151 450.652 Q85.2049 450.652 82.1262 446.068 Q79.0707 441.462 79.0707 432.735 Q79.0707 423.985 82.1262 419.402 Q85.2049 414.795 91.0151 414.795 Z" fill="#000000" fill-rule="nonzero" fill-opacity="1"></path><path clip-path="url(#clip610)" d="M121.177 418.499 Q117.566 418.499 115.737 422.064 Q113.932 425.605 113.932 432.735 Q113.932 439.842 115.737 443.406 Q117.566 446.948 121.177 446.948 Q124.811 446.948 126.617 443.406 Q128.445 439.842 128.445 432.735 Q128.445 425.605 126.617 422.064 Q124.811 418.499 121.177 418.499 M121.177 414.795 Q126.987 414.795 130.043 419.402 Q133.121 423.985 133.121 432.735 Q133.121 441.462 130.043 446.068 Q126.987 450.652 121.177 450.652 Q115.367 450.652 112.288 446.068 Q109.233 441.462 109.233 432.735 Q109.233 423.985 112.288 419.402 Q115.367 414.795 121.177 414.795 Z" fill="#000000" fill-rule="nonzero" fill-opacity="1"></path><path clip-path="url(#clip610)" d="M51.6634 243.442 L59.3023 243.442 L59.3023 217.077 L50.9921 218.743 L50.9921 214.484 L59.256 212.817 L63.9319 212.817 L63.9319 243.442 L71.5707 243.442 L71.5707 247.377 L51.6634 247.377 L51.6634 243.442 Z" fill="#000000" fill-rule="nonzero" fill-opacity="1"></path><path clip-path="url(#clip610)" d="M85.0429 243.442 L101.362 243.442 L101.362 247.377 L79.4179 247.377 L79.4179 243.442 Q82.0799 240.687 86.6632 236.058 Q91.2697 231.405 92.4502 230.063 Q94.6956 227.539 95.5752 225.803 Q96.478 224.044 96.478 222.354 Q96.478 219.6 94.5336 217.864 Q92.6123 216.127 89.5104 216.127 Q87.3114 216.127 84.8577 216.891 Q82.4271 217.655 79.6494 219.206 L79.6494 214.484 Q82.4734 213.35 84.9271 212.771 Q87.3808 212.192 89.4178 212.192 Q94.7882 212.192 97.9826 214.877 Q101.177 217.563 101.177 222.053 Q101.177 224.183 100.367 226.104 Q99.5798 228.002 97.4734 230.595 Q96.8947 231.266 93.7928 234.484 Q90.691 237.678 85.0429 243.442 Z" fill="#000000" fill-rule="nonzero" fill-opacity="1"></path><path clip-path="url(#clip610)" d="M121.177 215.896 Q117.566 215.896 115.737 219.461 Q113.932 223.002 113.932 230.132 Q113.932 237.238 115.737 240.803 Q117.566 244.345 121.177 244.345 Q124.811 244.345 126.617 240.803 Q128.445 237.238 128.445 230.132 Q128.445 223.002 126.617 219.461 Q124.811 215.896 121.177 215.896 M121.177 212.192 Q126.987 212.192 130.043 216.799 Q133.121 221.382 133.121 230.132 Q133.121 238.859 130.043 243.465 Q126.987 248.049 121.177 248.049 Q115.367 248.049 112.288 243.465 Q109.233 238.859 109.233 230.132 Q109.233 221.382 112.288 216.799 Q115.367 212.192 121.177 212.192 Z" fill="#000000" fill-rule="nonzero" fill-opacity="1"></path><path clip-path="url(#clip612)" d="M1249.52 1445.72 L1249.65 1445.71 L1249.78 1445.71 L1249.91 1445.71 L1250.04 1445.7 L1250.16 1445.67 L1250.29 1445.63 L1250.42 1445.55 L1250.55 1445.44 L1250.68 1445.28 L1250.81 1445.07 L1250.93 1444.82 L1251.06 1444.57 L1251.19 1444.32 L1251.32 1444.09 L1251.45 1443.88 L1251.58 1443.67 L1251.7 1443.41 L1251.83 1443.03 L1251.96 1442.48 L1252.09 1441.68 L1252.22 1440.61 L1252.35 1439.28 L1252.47 1437.71 L1252.6 1435.98 L1252.73 1434.15 L1252.86 1432.25 L1252.99 1430.31 L1253.12 1428.27 L1253.24 1426.07 L1253.37 1423.6 L1253.5 1420.78 L1253.63 1417.6 L1253.76 1414.1 L1253.89 1410.39 L1254.01 1406.64 L1254.14 1402.96 L1254.27 1399.4 L1254.4 1395.91 L1254.53 1392.32 L1254.66 1388.36 L1254.78 1383.8 L1254.91 1378.45 L1255.04 1372.3 L1255.17 1365.49 L1255.3 1358.34 L1255.43 1351.18 L1255.55 1344.28 L1255.68 1337.71 L1255.81 1331.21 L1255.94 1324.27 L1256.07 1316.17 L1256.2 1306.11 L1256.32 1293.39 L1256.45 1277.6 L1256.58 1258.69 L1256.71 1237.04 L1256.84 1213.4 L1256.97 1188.75 L1257.09 1164.07 L1257.22 1140.14 L1257.35 1117.39 L1257.48 1095.89 L1257.61 1075.46 L1257.74 1055.81 L1257.86 1036.6 L1257.99 1017.31 L1258.12 997.093 L1258.25 974.694 L1258.38 948.659 L1258.51 917.784 L1258.63 881.656 L1258.76 841.011 L1258.89 797.692 L1259.02 754.157 L1259.15 712.739 L1259.28 674.938 L1259.41 641.029 L1259.53 610.122 L1259.66 580.587 L1259.79 550.656 L1259.92 518.962 L1260.05 484.85 L1260.18 448.448 L1260.3 410.534 L1260.43 372.296 L1260.56 335.07 L1260.69 300.096 L1260.82 268.355 L1260.95 240.492 L1261.07 216.811 L1261.2 197.302 L1261.33 181.675 L1261.46 169.375 L1261.59 159.619 L1261.72 151.429 L1261.84 143.732 L1261.97 135.535 L1262.1 126.202 L1262.23 115.746 L1262.36 104.998 L1262.49 95.5207 L1262.61 89.2492 L1262.74 87.9763 L1262.87 92.8819 L1263 104.264 L1263.13 121.513 L1263.26 143.278 L1263.38 167.723 L1263.51 192.842 L1263.64 216.801 L1263.77 238.293 L1263.9 256.801 L1264.03 272.674 L1264.15 286.993 L1264.28 301.277 L1264.41 317.161 L1264.54 336.131 L1264.67 359.338 L1264.8 387.433 L1264.92 420.419 L1265.05 457.57 L1265.18 497.478 L1265.31 538.309 L1265.44 578.228 L1265.57 615.857 L1265.69 650.61 L1265.82 682.748 L1265.95 713.146 L1266.08 742.881 L1266.21 772.831 L1266.34 803.433 L1266.46 834.675 L1266.59 866.252 L1266.72 897.768 L1266.85 928.889 L1266.98 959.385 L1267.11 989.105 L1267.23 1017.92 L1267.36 1045.69 L1267.49 1072.22 L1267.62 1097.34 L1267.75 1120.97 L1267.88 1143.16 L1268 1164.18 L1268.13 1184.4 L1268.26 1204.09 L1268.39 1223.32 L1268.52 1241.83 L1268.65 1259.21 L1268.77 1275.03 L1268.9 1289.08 L1269.03 1301.48 L1269.16 1312.59 L1269.29 1322.91 L1269.42 1332.91 L1269.54 1342.83 L1269.67 1352.68 L1269.8 1362.27 L1269.93 1371.3 L1270.06 1379.54 L1270.19 1386.91 L1270.31 1393.5 L1270.44 1399.44 L1270.57 1404.8 L1270.7 1409.61 L1270.83 1413.82 L1270.96 1417.43 L1271.08 1420.47 L1271.21 1423.05 L1271.34 1425.31 L1271.47 1427.32 L1271.6 1429.12 L1271.73 1430.72 L1271.85 1432.11 L1271.98 1433.32 L1272.11 1434.38 L1272.24 1435.35 L1272.37 1436.25 L1272.5 1437.14 L1272.62 1438.05 L1272.75 1438.99 L1272.88 1439.95 L1273.01 1440.9 L1273.14 1441.81 L1273.27 1442.64 L1273.4 1443.38 L1273.52 1444 L1273.65 1444.5 L1273.78 1444.9 L1273.91 1445.19 L1274.04 1445.4 L1274.17 1445.54 L1274.29 1445.62 L1274.42 1445.67 L1274.55 1445.7 L1274.68 1445.71 L1274.81 1445.71 L1274.94 1445.71 L1275.06 1445.72 L1275.06 1445.72 L1274.94 1445.72 L1274.81 1445.72 L1274.68 1445.72 L1274.55 1445.72 L1274.42 1445.72 L1274.29 1445.72 L1274.17 1445.72 L1274.04 1445.72 L1273.91 1445.72 L1273.78 1445.72 L1273.65 1445.72 L1273.52 1445.72 L1273.4 1445.72 L1273.27 1445.72 L1273.14 1445.72 L1273.01 1445.72 L1272.88 1445.72 L1272.75 1445.72 L1272.62 1445.72 L1272.5 1445.72 L1272.37 1445.72 L1272.24 1445.72 L1272.11 1445.72 L1271.98 1445.72 L1271.85 1445.72 L1271.73 1445.72 L1271.6 1445.72 L1271.47 1445.72 L1271.34 1445.72 L1271.21 1445.72 L1271.08 1445.72 L1270.96 1445.72 L1270.83 1445.72 L1270.7 1445.72 L1270.57 1445.72 L1270.44 1445.72 L1270.31 1445.72 L1270.19 1445.72 L1270.06 1445.72 L1269.93 1445.72 L1269.8 1445.72 L1269.67 1445.72 L1269.54 1445.72 L1269.42 1445.72 L1269.29 1445.72 L1269.16 1445.72 L1269.03 1445.72 L1268.9 1445.72 L1268.77 1445.72 L1268.65 1445.72 L1268.52 1445.72 L1268.39 1445.72 L1268.26 1445.72 L1268.13 1445.72 L1268 1445.72 L1267.88 1445.72 L1267.75 1445.72 L1267.62 1445.72 L1267.49 1445.72 L1267.36 1445.72 L1267.23 1445.72 L1267.11 1445.72 L1266.98 1445.72 L1266.85 1445.72 L1266.72 1445.72 L1266.59 1445.72 L1266.46 1445.72 L1266.34 1445.72 L1266.21 1445.72 L1266.08 1445.72 L1265.95 1445.72 L1265.82 1445.72 L1265.69 1445.72 L1265.57 1445.72 L1265.44 1445.72 L1265.31 1445.72 L1265.18 1445.72 L1265.05 1445.72 L1264.92 1445.72 L1264.8 1445.72 L1264.67 1445.72 L1264.54 1445.72 L1264.41 1445.72 L1264.28 1445.72 L1264.15 1445.72 L1264.03 1445.72 L1263.9 1445.72 L1263.77 1445.72 L1263.64 1445.72 L1263.51 1445.72 L1263.38 1445.72 L1263.26 1445.72 L1263.13 1445.72 L1263 1445.72 L1262.87 1445.72 L1262.74 1445.72 L1262.61 1445.72 L1262.49 1445.72 L1262.36 1445.72 L1262.23 1445.72 L1262.1 1445.72 L1261.97 1445.72 L1261.84 1445.72 L1261.72 1445.72 L1261.59 1445.72 L1261.46 1445.72 L1261.33 1445.72 L1261.2 1445.72 L1261.07 1445.72 L1260.95 1445.72 L1260.82 1445.72 L1260.69 1445.72 L1260.56 1445.72 L1260.43 1445.72 L1260.3 1445.72 L1260.18 1445.72 L1260.05 1445.72 L1259.92 1445.72 L1259.79 1445.72 L1259.66 1445.72 L1259.53 1445.72 L1259.41 1445.72 L1259.28 1445.72 L1259.15 1445.72 L1259.02 1445.72 L1258.89 1445.72 L1258.76 1445.72 L1258.63 1445.72 L1258.51 1445.72 L1258.38 1445.72 L1258.25 1445.72 L1258.12 1445.72 L1257.99 1445.72 L1257.86 1445.72 L1257.74 1445.72 L1257.61 1445.72 L1257.48 1445.72 L1257.35 1445.72 L1257.22 1445.72 L1257.09 1445.72 L1256.97 1445.72 L1256.84 1445.72 L1256.71 1445.72 L1256.58 1445.72 L1256.45 1445.72 L1256.32 1445.72 L1256.2 1445.72 L1256.07 1445.72 L1255.94 1445.72 L1255.81 1445.72 L1255.68 1445.72 L1255.55 1445.72 L1255.43 1445.72 L1255.3 1445.72 L1255.17 1445.72 L1255.04 1445.72 L1254.91 1445.72 L1254.78 1445.72 L1254.66 1445.72 L1254.53 1445.72 L1254.4 1445.72 L1254.27 1445.72 L1254.14 1445.72 L1254.01 1445.72 L1253.89 1445.72 L1253.76 1445.72 L1253.63 1445.72 L1253.5 1445.72 L1253.37 1445.72 L1253.24 1445.72 L1253.12 1445.72 L1252.99 1445.72 L1252.86 1445.72 L1252.73 1445.72 L1252.6 1445.72 L1252.47 1445.72 L1252.35 1445.72 L1252.22 1445.72 L1252.09 1445.72 L1251.96 1445.72 L1251.83 1445.72 L1251.7 1445.72 L1251.58 1445.72 L1251.45 1445.72 L1251.32 1445.72 L1251.19 1445.72 L1251.06 1445.72 L1250.93 1445.72 L1250.81 1445.72 L1250.68 1445.72 L1250.55 1445.72 L1250.42 1445.72 L1250.29 1445.72 L1250.16 1445.72 L1250.04 1445.72 L1249.91 1445.72 L1249.78 1445.72 L1249.65 1445.72 L1249.52 1445.72  Z" fill="#009af9" fill-rule="evenodd" fill-opacity="0.5"></path>
<polyline clip-path="url(#clip612)" style="stroke:#009af9; stroke-linecap:round; stroke-linejoin:round; stroke-width:4; stroke-opacity:0.5; fill:none" points="1249.52,1445.72 1249.65,1445.71 1249.78,1445.71 1249.91,1445.71 1250.04,1445.7 1250.16,1445.67 1250.29,1445.63 1250.42,1445.55 1250.55,1445.44 1250.68,1445.28 1250.81,1445.07 1250.93,1444.82 1251.06,1444.57 1251.19,1444.32 1251.32,1444.09 1251.45,1443.88 1251.58,1443.67 1251.7,1443.41 1251.83,1443.03 1251.96,1442.48 1252.09,1441.68 1252.22,1440.61 1252.35,1439.28 1252.47,1437.71 1252.6,1435.98 1252.73,1434.15 1252.86,1432.25 1252.99,1430.31 1253.12,1428.27 1253.24,1426.07 1253.37,1423.6 1253.5,1420.78 1253.63,1417.6 1253.76,1414.1 1253.89,1410.39 1254.01,1406.64 1254.14,1402.96 1254.27,1399.4 1254.4,1395.91 1254.53,1392.32 1254.66,1388.36 1254.78,1383.8 1254.91,1378.45 1255.04,1372.3 1255.17,1365.49 1255.3,1358.34 1255.43,1351.18 1255.55,1344.28 1255.68,1337.71 1255.81,1331.21 1255.94,1324.27 1256.07,1316.17 1256.2,1306.11 1256.32,1293.39 1256.45,1277.6 1256.58,1258.69 1256.71,1237.04 1256.84,1213.4 1256.97,1188.75 1257.09,1164.07 1257.22,1140.14 1257.35,1117.39 1257.48,1095.89 1257.61,1075.46 1257.74,1055.81 1257.86,1036.6 1257.99,1017.31 1258.12,997.093 1258.25,974.694 1258.38,948.659 1258.51,917.784 1258.63,881.656 1258.76,841.011 1258.89,797.692 1259.02,754.157 1259.15,712.739 1259.28,674.938 1259.41,641.029 1259.53,610.122 1259.66,580.587 1259.79,550.656 1259.92,518.962 1260.05,484.85 1260.18,448.448 1260.3,410.534 1260.43,372.296 1260.56,335.07 1260.69,300.096 1260.82,268.355 1260.95,240.492 1261.07,216.811 1261.2,197.302 1261.33,181.675 1261.46,169.375 1261.59,159.619 1261.72,151.429 1261.84,143.732 1261.97,135.535 1262.1,126.202 1262.23,115.746 1262.36,104.998 1262.49,95.5207 1262.61,89.2492 1262.74,87.9763 1262.87,92.8819 1263,104.264 1263.13,121.513 1263.26,143.278 1263.38,167.723 1263.51,192.842 1263.64,216.801 1263.77,238.293 1263.9,256.801 1264.03,272.674 1264.15,286.993 1264.28,301.277 1264.41,317.161 1264.54,336.131 1264.67,359.338 1264.8,387.433 1264.92,420.419 1265.05,457.57 1265.18,497.478 1265.31,538.309 1265.44,578.228 1265.57,615.857 1265.69,650.61 1265.82,682.748 1265.95,713.146 1266.08,742.881 1266.21,772.831 1266.34,803.433 1266.46,834.675 1266.59,866.252 1266.72,897.768 1266.85,928.889 1266.98,959.385 1267.11,989.105 1267.23,1017.92 1267.36,1045.69 1267.49,1072.22 1267.62,1097.34 1267.75,1120.97 1267.88,1143.16 1268,1164.18 1268.13,1184.4 1268.26,1204.09 1268.39,1223.32 1268.52,1241.83 1268.65,1259.21 1268.77,1275.03 1268.9,1289.08 1269.03,1301.48 1269.16,1312.59 1269.29,1322.91 1269.42,1332.91 1269.54,1342.83 1269.67,1352.68 1269.8,1362.27 1269.93,1371.3 1270.06,1379.54 1270.19,1386.91 1270.31,1393.5 1270.44,1399.44 1270.57,1404.8 1270.7,1409.61 1270.83,1413.82 1270.96,1417.43 1271.08,1420.47 1271.21,1423.05 1271.34,1425.31 1271.47,1427.32 1271.6,1429.12 1271.73,1430.72 1271.85,1432.11 1271.98,1433.32 1272.11,1434.38 1272.24,1435.35 1272.37,1436.25 1272.5,1437.14 1272.62,1438.05 1272.75,1438.99 1272.88,1439.95 1273.01,1440.9 1273.14,1441.81 1273.27,1442.64 1273.4,1443.38 1273.52,1444 1273.65,1444.5 1273.78,1444.9 1273.91,1445.19 1274.04,1445.4 1274.17,1445.54 1274.29,1445.62 1274.42,1445.67 1274.55,1445.7 1274.68,1445.71 1274.81,1445.71 1274.94,1445.71 1275.06,1445.72 "></polyline>
<path clip-path="url(#clip612)" d="M2123.95 1445.72 L2124.79 1445.72 L2125.63 1445.71 L2126.47 1445.71 L2127.31 1445.71 L2128.15 1445.7 L2128.99 1445.69 L2129.83 1445.66 L2130.67 1445.63 L2131.5 1445.59 L2132.34 1445.56 L2133.18 1445.54 L2134.02 1445.55 L2134.86 1445.57 L2135.7 1445.59 L2136.54 1445.61 L2137.38 1445.62 L2138.22 1445.61 L2139.06 1445.59 L2139.9 1445.56 L2140.74 1445.55 L2141.58 1445.54 L2142.41 1445.56 L2143.25 1445.59 L2144.09 1445.63 L2144.93 1445.65 L2145.77 1445.67 L2146.61 1445.66 L2147.45 1445.64 L2148.29 1445.6 L2149.13 1445.55 L2149.97 1445.48 L2150.81 1445.41 L2151.65 1445.33 L2152.48 1445.22 L2153.32 1445.1 L2154.16 1444.96 L2155 1444.81 L2155.84 1444.66 L2156.68 1444.53 L2157.52 1444.42 L2158.36 1444.34 L2159.2 1444.3 L2160.04 1444.26 L2160.88 1444.19 L2161.72 1444.08 L2162.56 1443.92 L2163.39 1443.71 L2164.23 1443.5 L2165.07 1443.35 L2165.91 1443.29 L2166.75 1443.34 L2167.59 1443.47 L2168.43 1443.63 L2169.27 1443.78 L2170.11 1443.86 L2170.95 1443.86 L2171.79 1443.79 L2172.63 1443.66 L2173.47 1443.5 L2174.3 1443.3 L2175.14 1443.06 L2175.98 1442.8 L2176.82 1442.51 L2177.66 1442.23 L2178.5 1441.95 L2179.34 1441.69 L2180.18 1441.4 L2181.02 1441.05 L2181.86 1440.57 L2182.7 1439.94 L2183.54 1439.19 L2184.38 1438.41 L2185.21 1437.67 L2186.05 1437.01 L2186.89 1436.36 L2187.73 1435.6 L2188.57 1434.62 L2189.41 1433.36 L2190.25 1431.86 L2191.09 1430.23 L2191.93 1428.57 L2192.77 1426.94 L2193.61 1425.34 L2194.45 1423.73 L2195.28 1422.08 L2196.12 1420.37 L2196.96 1418.57 L2197.8 1416.65 L2198.64 1414.54 L2199.48 1412.13 L2200.32 1409.32 L2201.16 1406.12 L2202 1402.66 L2202.84 1399.16 L2203.68 1395.86 L2204.52 1392.91 L2205.36 1390.28 L2206.19 1387.77 L2207.03 1385.06 L2207.87 1381.79 L2208.71 1377.71 L2209.55 1372.81 L2210.39 1367.29 L2211.23 1361.47 L2212.07 1355.67 L2212.91 1349.97 L2213.75 1344.24 L2214.59 1338.23 L2215.43 1331.77 L2216.27 1324.94 L2217.1 1318.11 L2217.94 1311.73 L2218.78 1306.07 L2219.62 1301.01 L2220.46 1296.05 L2221.3 1290.58 L2222.14 1284.18 L2222.98 1276.77 L2223.82 1268.68 L2224.66 1260.39 L2225.5 1252.42 L2226.34 1245.06 L2227.17 1238.39 L2228.01 1232.29 L2228.85 1226.65 L2229.69 1221.47 L2230.53 1216.84 L2231.37 1212.84 L2232.21 1209.4 L2233.05 1206.33 L2233.89 1203.48 L2234.73 1200.82 L2235.57 1198.46 L2236.41 1196.62 L2237.25 1195.55 L2238.08 1195.37 L2238.92 1196.12 L2239.76 1197.69 L2240.6 1199.9 L2241.44 1202.6 L2242.28 1205.76 L2243.12 1209.52 L2243.96 1214.05 L2244.8 1219.38 L2245.64 1225.32 L2246.48 1231.48 L2247.32 1237.49 L2248.16 1243.27 L2248.99 1249.01 L2249.83 1255.16 L2250.67 1262.2 L2251.51 1270.44 L2252.35 1279.86 L2253.19 1290.11 L2254.03 1300.73 L2254.87 1311.25 L2255.71 1321.4 L2256.55 1331.06 L2257.39 1340.26 L2258.23 1349.09 L2259.06 1357.64 L2259.9 1365.92 L2260.74 1373.89 L2261.58 1381.41 L2262.42 1388.32 L2263.26 1394.54 L2264.1 1400.08 L2264.94 1405.06 L2265.78 1409.64 L2266.62 1413.97 L2267.46 1418.15 L2268.3 1422.2 L2269.14 1426.09 L2269.97 1429.75 L2270.81 1433.05 L2271.65 1435.93 L2272.49 1438.32 L2273.33 1440.23 L2274.17 1441.7 L2275.01 1442.8 L2275.85 1443.61 L2276.69 1444.18 L2277.53 1444.56 L2278.37 1444.8 L2279.21 1444.95 L2280.05 1445.06 L2280.88 1445.16 L2281.72 1445.27 L2282.56 1445.38 L2283.4 1445.48 L2284.24 1445.57 L2285.08 1445.63 L2285.92 1445.67 L2286.76 1445.7 L2287.6 1445.71 L2288.44 1445.71 L2289.28 1445.71 L2290.12 1445.72 L2290.95 1445.72 L2290.95 1445.72 L2290.12 1445.72 L2289.28 1445.72 L2288.44 1445.72 L2287.6 1445.72 L2286.76 1445.72 L2285.92 1445.72 L2285.08 1445.72 L2284.24 1445.72 L2283.4 1445.72 L2282.56 1445.72 L2281.72 1445.72 L2280.88 1445.72 L2280.05 1445.72 L2279.21 1445.72 L2278.37 1445.72 L2277.53 1445.72 L2276.69 1445.72 L2275.85 1445.72 L2275.01 1445.72 L2274.17 1445.72 L2273.33 1445.72 L2272.49 1445.72 L2271.65 1445.72 L2270.81 1445.72 L2269.97 1445.72 L2269.14 1445.72 L2268.3 1445.72 L2267.46 1445.72 L2266.62 1445.72 L2265.78 1445.72 L2264.94 1445.72 L2264.1 1445.72 L2263.26 1445.72 L2262.42 1445.72 L2261.58 1445.72 L2260.74 1445.72 L2259.9 1445.72 L2259.06 1445.72 L2258.23 1445.72 L2257.39 1445.72 L2256.55 1445.72 L2255.71 1445.72 L2254.87 1445.72 L2254.03 1445.72 L2253.19 1445.72 L2252.35 1445.72 L2251.51 1445.72 L2250.67 1445.72 L2249.83 1445.72 L2248.99 1445.72 L2248.16 1445.72 L2247.32 1445.72 L2246.48 1445.72 L2245.64 1445.72 L2244.8 1445.72 L2243.96 1445.72 L2243.12 1445.72 L2242.28 1445.72 L2241.44 1445.72 L2240.6 1445.72 L2239.76 1445.72 L2238.92 1445.72 L2238.08 1445.72 L2237.25 1445.72 L2236.41 1445.72 L2235.57 1445.72 L2234.73 1445.72 L2233.89 1445.72 L2233.05 1445.72 L2232.21 1445.72 L2231.37 1445.72 L2230.53 1445.72 L2229.69 1445.72 L2228.85 1445.72 L2228.01 1445.72 L2227.17 1445.72 L2226.34 1445.72 L2225.5 1445.72 L2224.66 1445.72 L2223.82 1445.72 L2222.98 1445.72 L2222.14 1445.72 L2221.3 1445.72 L2220.46 1445.72 L2219.62 1445.72 L2218.78 1445.72 L2217.94 1445.72 L2217.1 1445.72 L2216.27 1445.72 L2215.43 1445.72 L2214.59 1445.72 L2213.75 1445.72 L2212.91 1445.72 L2212.07 1445.72 L2211.23 1445.72 L2210.39 1445.72 L2209.55 1445.72 L2208.71 1445.72 L2207.87 1445.72 L2207.03 1445.72 L2206.19 1445.72 L2205.36 1445.72 L2204.52 1445.72 L2203.68 1445.72 L2202.84 1445.72 L2202 1445.72 L2201.16 1445.72 L2200.32 1445.72 L2199.48 1445.72 L2198.64 1445.72 L2197.8 1445.72 L2196.96 1445.72 L2196.12 1445.72 L2195.28 1445.72 L2194.45 1445.72 L2193.61 1445.72 L2192.77 1445.72 L2191.93 1445.72 L2191.09 1445.72 L2190.25 1445.72 L2189.41 1445.72 L2188.57 1445.72 L2187.73 1445.72 L2186.89 1445.72 L2186.05 1445.72 L2185.21 1445.72 L2184.38 1445.72 L2183.54 1445.72 L2182.7 1445.72 L2181.86 1445.72 L2181.02 1445.72 L2180.18 1445.72 L2179.34 1445.72 L2178.5 1445.72 L2177.66 1445.72 L2176.82 1445.72 L2175.98 1445.72 L2175.14 1445.72 L2174.3 1445.72 L2173.47 1445.72 L2172.63 1445.72 L2171.79 1445.72 L2170.95 1445.72 L2170.11 1445.72 L2169.27 1445.72 L2168.43 1445.72 L2167.59 1445.72 L2166.75 1445.72 L2165.91 1445.72 L2165.07 1445.72 L2164.23 1445.72 L2163.39 1445.72 L2162.56 1445.72 L2161.72 1445.72 L2160.88 1445.72 L2160.04 1445.72 L2159.2 1445.72 L2158.36 1445.72 L2157.52 1445.72 L2156.68 1445.72 L2155.84 1445.72 L2155 1445.72 L2154.16 1445.72 L2153.32 1445.72 L2152.48 1445.72 L2151.65 1445.72 L2150.81 1445.72 L2149.97 1445.72 L2149.13 1445.72 L2148.29 1445.72 L2147.45 1445.72 L2146.61 1445.72 L2145.77 1445.72 L2144.93 1445.72 L2144.09 1445.72 L2143.25 1445.72 L2142.41 1445.72 L2141.58 1445.72 L2140.74 1445.72 L2139.9 1445.72 L2139.06 1445.72 L2138.22 1445.72 L2137.38 1445.72 L2136.54 1445.72 L2135.7 1445.72 L2134.86 1445.72 L2134.02 1445.72 L2133.18 1445.72 L2132.34 1445.72 L2131.5 1445.72 L2130.67 1445.72 L2129.83 1445.72 L2128.99 1445.72 L2128.15 1445.72 L2127.31 1445.72 L2126.47 1445.72 L2125.63 1445.72 L2124.79 1445.72 L2123.95 1445.72  Z" fill="#e26f46" fill-rule="evenodd" fill-opacity="0.5"></path>
<polyline clip-path="url(#clip612)" style="stroke:#e26f46; stroke-linecap:round; stroke-linejoin:round; stroke-width:4; stroke-opacity:0.5; fill:none" points="2123.95,1445.72 2124.79,1445.72 2125.63,1445.71 2126.47,1445.71 2127.31,1445.71 2128.15,1445.7 2128.99,1445.69 2129.83,1445.66 2130.67,1445.63 2131.5,1445.59 2132.34,1445.56 2133.18,1445.54 2134.02,1445.55 2134.86,1445.57 2135.7,1445.59 2136.54,1445.61 2137.38,1445.62 2138.22,1445.61 2139.06,1445.59 2139.9,1445.56 2140.74,1445.55 2141.58,1445.54 2142.41,1445.56 2143.25,1445.59 2144.09,1445.63 2144.93,1445.65 2145.77,1445.67 2146.61,1445.66 2147.45,1445.64 2148.29,1445.6 2149.13,1445.55 2149.97,1445.48 2150.81,1445.41 2151.65,1445.33 2152.48,1445.22 2153.32,1445.1 2154.16,1444.96 2155,1444.81 2155.84,1444.66 2156.68,1444.53 2157.52,1444.42 2158.36,1444.34 2159.2,1444.3 2160.04,1444.26 2160.88,1444.19 2161.72,1444.08 2162.56,1443.92 2163.39,1443.71 2164.23,1443.5 2165.07,1443.35 2165.91,1443.29 2166.75,1443.34 2167.59,1443.47 2168.43,1443.63 2169.27,1443.78 2170.11,1443.86 2170.95,1443.86 2171.79,1443.79 2172.63,1443.66 2173.47,1443.5 2174.3,1443.3 2175.14,1443.06 2175.98,1442.8 2176.82,1442.51 2177.66,1442.23 2178.5,1441.95 2179.34,1441.69 2180.18,1441.4 2181.02,1441.05 2181.86,1440.57 2182.7,1439.94 2183.54,1439.19 2184.38,1438.41 2185.21,1437.67 2186.05,1437.01 2186.89,1436.36 2187.73,1435.6 2188.57,1434.62 2189.41,1433.36 2190.25,1431.86 2191.09,1430.23 2191.93,1428.57 2192.77,1426.94 2193.61,1425.34 2194.45,1423.73 2195.28,1422.08 2196.12,1420.37 2196.96,1418.57 2197.8,1416.65 2198.64,1414.54 2199.48,1412.13 2200.32,1409.32 2201.16,1406.12 2202,1402.66 2202.84,1399.16 2203.68,1395.86 2204.52,1392.91 2205.36,1390.28 2206.19,1387.77 2207.03,1385.06 2207.87,1381.79 2208.71,1377.71 2209.55,1372.81 2210.39,1367.29 2211.23,1361.47 2212.07,1355.67 2212.91,1349.97 2213.75,1344.24 2214.59,1338.23 2215.43,1331.77 2216.27,1324.94 2217.1,1318.11 2217.94,1311.73 2218.78,1306.07 2219.62,1301.01 2220.46,1296.05 2221.3,1290.58 2222.14,1284.18 2222.98,1276.77 2223.82,1268.68 2224.66,1260.39 2225.5,1252.42 2226.34,1245.06 2227.17,1238.39 2228.01,1232.29 2228.85,1226.65 2229.69,1221.47 2230.53,1216.84 2231.37,1212.84 2232.21,1209.4 2233.05,1206.33 2233.89,1203.48 2234.73,1200.82 2235.57,1198.46 2236.41,1196.62 2237.25,1195.55 2238.08,1195.37 2238.92,1196.12 2239.76,1197.69 2240.6,1199.9 2241.44,1202.6 2242.28,1205.76 2243.12,1209.52 2243.96,1214.05 2244.8,1219.38 2245.64,1225.32 2246.48,1231.48 2247.32,1237.49 2248.16,1243.27 2248.99,1249.01 2249.83,1255.16 2250.67,1262.2 2251.51,1270.44 2252.35,1279.86 2253.19,1290.11 2254.03,1300.73 2254.87,1311.25 2255.71,1321.4 2256.55,1331.06 2257.39,1340.26 2258.23,1349.09 2259.06,1357.64 2259.9,1365.92 2260.74,1373.89 2261.58,1381.41 2262.42,1388.32 2263.26,1394.54 2264.1,1400.08 2264.94,1405.06 2265.78,1409.64 2266.62,1413.97 2267.46,1418.15 2268.3,1422.2 2269.14,1426.09 2269.97,1429.75 2270.81,1433.05 2271.65,1435.93 2272.49,1438.32 2273.33,1440.23 2274.17,1441.7 2275.01,1442.8 2275.85,1443.61 2276.69,1444.18 2277.53,1444.56 2278.37,1444.8 2279.21,1444.95 2280.05,1445.06 2280.88,1445.16 2281.72,1445.27 2282.56,1445.38 2283.4,1445.48 2284.24,1445.57 2285.08,1445.63 2285.92,1445.67 2286.76,1445.7 2287.6,1445.71 2288.44,1445.71 2289.28,1445.71 2290.12,1445.72 2290.95,1445.72 "></polyline>
<path clip-path="url(#clip612)" d="M230.922 1445.72 L231.775 1445.72 L232.627 1445.71 L233.48 1445.71 L234.332 1445.7 L235.185 1445.69 L236.037 1445.66 L236.89 1445.61 L237.742 1445.53 L238.595 1445.43 L239.447 1445.32 L240.3 1445.22 L241.152 1445.14 L242.005 1445.09 L242.857 1445.04 L243.71 1444.95 L244.562 1444.76 L245.415 1444.44 L246.267 1443.95 L247.12 1443.26 L247.972 1442.34 L248.825 1441.14 L249.677 1439.64 L250.53 1437.8 L251.382 1435.64 L252.235 1433.19 L253.087 1430.45 L253.94 1427.39 L254.792 1423.98 L255.645 1420.17 L256.497 1416 L257.35 1411.58 L258.202 1407.04 L259.055 1402.41 L259.907 1397.59 L260.76 1392.35 L261.612 1386.47 L262.465 1379.84 L263.317 1372.5 L264.17 1364.6 L265.022 1356.29 L265.875 1347.63 L266.727 1338.65 L267.58 1329.35 L268.432 1319.8 L269.285 1310.15 L270.137 1300.59 L270.99 1291.26 L271.842 1282.24 L272.695 1273.48 L273.547 1264.94 L274.4 1256.59 L275.252 1248.54 L276.105 1241.07 L276.957 1234.56 L277.81 1229.31 L278.662 1225.28 L279.515 1222.06 L280.367 1218.95 L281.22 1215.31 L282.072 1210.86 L282.925 1205.81 L283.777 1200.69 L284.63 1196.15 L285.482 1192.81 L286.335 1191.13 L287.187 1191.37 L288.04 1193.55 L288.892 1197.41 L289.745 1202.43 L290.597 1208.01 L291.45 1213.59 L292.302 1218.83 L293.155 1223.63 L294.007 1228.15 L294.86 1232.71 L295.712 1237.68 L296.565 1243.31 L297.417 1249.59 L298.27 1256.23 L299.122 1262.82 L299.975 1269.03 L300.827 1274.81 L301.68 1280.37 L302.532 1286.07 L303.385 1292.12 L304.237 1298.53 L305.09 1305.13 L305.942 1311.73 L306.795 1318.2 L307.647 1324.56 L308.5 1330.85 L309.352 1337.12 L310.205 1343.35 L311.057 1349.52 L311.91 1355.57 L312.762 1361.42 L313.615 1366.95 L314.467 1372 L315.32 1376.46 L316.172 1380.3 L317.025 1383.58 L317.877 1386.47 L318.73 1389.12 L319.582 1391.71 L320.435 1394.37 L321.287 1397.14 L322.14 1400.04 L322.992 1403 L323.845 1405.95 L324.697 1408.85 L325.55 1411.7 L326.402 1414.48 L327.255 1417.11 L328.107 1419.5 L328.96 1421.56 L329.812 1423.29 L330.665 1424.79 L331.517 1426.21 L332.37 1427.66 L333.222 1429.23 L334.075 1430.91 L334.927 1432.62 L335.78 1434.26 L336.632 1435.73 L337.485 1436.96 L338.337 1437.9 L339.19 1438.61 L340.042 1439.16 L340.895 1439.63 L341.747 1440.08 L342.6 1440.54 L343.452 1440.98 L344.305 1441.36 L345.157 1441.66 L346.01 1441.87 L346.862 1442.02 L347.715 1442.15 L348.567 1442.31 L349.42 1442.49 L350.272 1442.7 L351.125 1442.9 L351.977 1443.1 L352.83 1443.27 L353.682 1443.42 L354.535 1443.54 L355.387 1443.62 L356.24 1443.66 L357.092 1443.66 L357.945 1443.63 L358.797 1443.59 L359.65 1443.6 L360.502 1443.68 L361.355 1443.84 L362.207 1444.08 L363.06 1444.33 L363.912 1444.56 L364.765 1444.73 L365.617 1444.83 L366.47 1444.86 L367.322 1444.86 L368.175 1444.87 L369.027 1444.91 L369.88 1445 L370.732 1445.1 L371.585 1445.2 L372.437 1445.27 L373.29 1445.31 L374.142 1445.33 L374.995 1445.35 L375.847 1445.38 L376.7 1445.43 L377.552 1445.49 L378.405 1445.54 L379.257 1445.56 L380.11 1445.56 L380.962 1445.55 L381.815 1445.54 L382.667 1445.55 L383.52 1445.57 L384.372 1445.6 L385.225 1445.62 L386.077 1445.64 L386.93 1445.64 L387.782 1445.62 L388.635 1445.6 L389.487 1445.57 L390.34 1445.55 L391.192 1445.55 L392.045 1445.57 L392.897 1445.6 L393.75 1445.63 L394.602 1445.66 L395.455 1445.69 L396.307 1445.7 L397.16 1445.71 L398.012 1445.71 L398.865 1445.71 L399.717 1445.72 L400.569 1445.72 L400.569 1445.72 L399.717 1445.72 L398.865 1445.72 L398.012 1445.72 L397.16 1445.72 L396.307 1445.72 L395.455 1445.72 L394.602 1445.72 L393.75 1445.72 L392.897 1445.72 L392.045 1445.72 L391.192 1445.72 L390.34 1445.72 L389.487 1445.72 L388.635 1445.72 L387.782 1445.72 L386.93 1445.72 L386.077 1445.72 L385.225 1445.72 L384.372 1445.72 L383.52 1445.72 L382.667 1445.72 L381.815 1445.72 L380.962 1445.72 L380.11 1445.72 L379.257 1445.72 L378.405 1445.72 L377.552 1445.72 L376.7 1445.72 L375.847 1445.72 L374.995 1445.72 L374.142 1445.72 L373.29 1445.72 L372.437 1445.72 L371.585 1445.72 L370.732 1445.72 L369.88 1445.72 L369.027 1445.72 L368.175 1445.72 L367.322 1445.72 L366.47 1445.72 L365.617 1445.72 L364.765 1445.72 L363.912 1445.72 L363.06 1445.72 L362.207 1445.72 L361.355 1445.72 L360.502 1445.72 L359.65 1445.72 L358.797 1445.72 L357.945 1445.72 L357.092 1445.72 L356.24 1445.72 L355.387 1445.72 L354.535 1445.72 L353.682 1445.72 L352.83 1445.72 L351.977 1445.72 L351.125 1445.72 L350.272 1445.72 L349.42 1445.72 L348.567 1445.72 L347.715 1445.72 L346.862 1445.72 L346.01 1445.72 L345.157 1445.72 L344.305 1445.72 L343.452 1445.72 L342.6 1445.72 L341.747 1445.72 L340.895 1445.72 L340.042 1445.72 L339.19 1445.72 L338.337 1445.72 L337.485 1445.72 L336.632 1445.72 L335.78 1445.72 L334.927 1445.72 L334.075 1445.72 L333.222 1445.72 L332.37 1445.72 L331.517 1445.72 L330.665 1445.72 L329.812 1445.72 L328.96 1445.72 L328.107 1445.72 L327.255 1445.72 L326.402 1445.72 L325.55 1445.72 L324.697 1445.72 L323.845 1445.72 L322.992 1445.72 L322.14 1445.72 L321.287 1445.72 L320.435 1445.72 L319.582 1445.72 L318.73 1445.72 L317.877 1445.72 L317.025 1445.72 L316.172 1445.72 L315.32 1445.72 L314.467 1445.72 L313.615 1445.72 L312.762 1445.72 L311.91 1445.72 L311.057 1445.72 L310.205 1445.72 L309.352 1445.72 L308.5 1445.72 L307.647 1445.72 L306.795 1445.72 L305.942 1445.72 L305.09 1445.72 L304.237 1445.72 L303.385 1445.72 L302.532 1445.72 L301.68 1445.72 L300.827 1445.72 L299.975 1445.72 L299.122 1445.72 L298.27 1445.72 L297.417 1445.72 L296.565 1445.72 L295.712 1445.72 L294.86 1445.72 L294.007 1445.72 L293.155 1445.72 L292.302 1445.72 L291.45 1445.72 L290.597 1445.72 L289.745 1445.72 L288.892 1445.72 L288.04 1445.72 L287.187 1445.72 L286.335 1445.72 L285.482 1445.72 L284.63 1445.72 L283.777 1445.72 L282.925 1445.72 L282.072 1445.72 L281.22 1445.72 L280.367 1445.72 L279.515 1445.72 L278.662 1445.72 L277.81 1445.72 L276.957 1445.72 L276.105 1445.72 L275.252 1445.72 L274.4 1445.72 L273.547 1445.72 L272.695 1445.72 L271.842 1445.72 L270.99 1445.72 L270.137 1445.72 L269.285 1445.72 L268.432 1445.72 L267.58 1445.72 L266.727 1445.72 L265.875 1445.72 L265.022 1445.72 L264.17 1445.72 L263.317 1445.72 L262.465 1445.72 L261.612 1445.72 L260.76 1445.72 L259.907 1445.72 L259.055 1445.72 L258.202 1445.72 L257.35 1445.72 L256.497 1445.72 L255.645 1445.72 L254.792 1445.72 L253.94 1445.72 L253.087 1445.72 L252.235 1445.72 L251.382 1445.72 L250.53 1445.72 L249.677 1445.72 L248.825 1445.72 L247.972 1445.72 L247.12 1445.72 L246.267 1445.72 L245.415 1445.72 L244.562 1445.72 L243.71 1445.72 L242.857 1445.72 L242.005 1445.72 L241.152 1445.72 L240.3 1445.72 L239.447 1445.72 L238.595 1445.72 L237.742 1445.72 L236.89 1445.72 L236.037 1445.72 L235.185 1445.72 L234.332 1445.72 L233.48 1445.72 L232.627 1445.72 L231.775 1445.72 L230.922 1445.72  Z" fill="#3da44d" fill-rule="evenodd" fill-opacity="1"></path>
<polyline clip-path="url(#clip612)" style="stroke:#3da44d; stroke-linecap:round; stroke-linejoin:round; stroke-width:4; stroke-opacity:1; fill:none" points="230.922,1445.72 231.775,1445.72 232.627,1445.71 233.48,1445.71 234.332,1445.7 235.185,1445.69 236.037,1445.66 236.89,1445.61 237.742,1445.53 238.595,1445.43 239.447,1445.32 240.3,1445.22 241.152,1445.14 242.005,1445.09 242.857,1445.04 243.71,1444.95 244.562,1444.76 245.415,1444.44 246.267,1443.95 247.12,1443.26 247.972,1442.34 248.825,1441.14 249.677,1439.64 250.53,1437.8 251.382,1435.64 252.235,1433.19 253.087,1430.45 253.94,1427.39 254.792,1423.98 255.645,1420.17 256.497,1416 257.35,1411.58 258.202,1407.04 259.055,1402.41 259.907,1397.59 260.76,1392.35 261.612,1386.47 262.465,1379.84 263.317,1372.5 264.17,1364.6 265.022,1356.29 265.875,1347.63 266.727,1338.65 267.58,1329.35 268.432,1319.8 269.285,1310.15 270.137,1300.59 270.99,1291.26 271.842,1282.24 272.695,1273.48 273.547,1264.94 274.4,1256.59 275.252,1248.54 276.105,1241.07 276.957,1234.56 277.81,1229.31 278.662,1225.28 279.515,1222.06 280.367,1218.95 281.22,1215.31 282.072,1210.86 282.925,1205.81 283.777,1200.69 284.63,1196.15 285.482,1192.81 286.335,1191.13 287.187,1191.37 288.04,1193.55 288.892,1197.41 289.745,1202.43 290.597,1208.01 291.45,1213.59 292.302,1218.83 293.155,1223.63 294.007,1228.15 294.86,1232.71 295.712,1237.68 296.565,1243.31 297.417,1249.59 298.27,1256.23 299.122,1262.82 299.975,1269.03 300.827,1274.81 301.68,1280.37 302.532,1286.07 303.385,1292.12 304.237,1298.53 305.09,1305.13 305.942,1311.73 306.795,1318.2 307.647,1324.56 308.5,1330.85 309.352,1337.12 310.205,1343.35 311.057,1349.52 311.91,1355.57 312.762,1361.42 313.615,1366.95 314.467,1372 315.32,1376.46 316.172,1380.3 317.025,1383.58 317.877,1386.47 318.73,1389.12 319.582,1391.71 320.435,1394.37 321.287,1397.14 322.14,1400.04 322.992,1403 323.845,1405.95 324.697,1408.85 325.55,1411.7 326.402,1414.48 327.255,1417.11 328.107,1419.5 328.96,1421.56 329.812,1423.29 330.665,1424.79 331.517,1426.21 332.37,1427.66 333.222,1429.23 334.075,1430.91 334.927,1432.62 335.78,1434.26 336.632,1435.73 337.485,1436.96 338.337,1437.9 339.19,1438.61 340.042,1439.16 340.895,1439.63 341.747,1440.08 342.6,1440.54 343.452,1440.98 344.305,1441.36 345.157,1441.66 346.01,1441.87 346.862,1442.02 347.715,1442.15 348.567,1442.31 349.42,1442.49 350.272,1442.7 351.125,1442.9 351.977,1443.1 352.83,1443.27 353.682,1443.42 354.535,1443.54 355.387,1443.62 356.24,1443.66 357.092,1443.66 357.945,1443.63 358.797,1443.59 359.65,1443.6 360.502,1443.68 361.355,1443.84 362.207,1444.08 363.06,1444.33 363.912,1444.56 364.765,1444.73 365.617,1444.83 366.47,1444.86 367.322,1444.86 368.175,1444.87 369.027,1444.91 369.88,1445 370.732,1445.1 371.585,1445.2 372.437,1445.27 373.29,1445.31 374.142,1445.33 374.995,1445.35 375.847,1445.38 376.7,1445.43 377.552,1445.49 378.405,1445.54 379.257,1445.56 380.11,1445.56 380.962,1445.55 381.815,1445.54 382.667,1445.55 383.52,1445.57 384.372,1445.6 385.225,1445.62 386.077,1445.64 386.93,1445.64 387.782,1445.62 388.635,1445.6 389.487,1445.57 390.34,1445.55 391.192,1445.55 392.045,1445.57 392.897,1445.6 393.75,1445.63 394.602,1445.66 395.455,1445.69 396.307,1445.7 397.16,1445.71 398.012,1445.71 398.865,1445.71 399.717,1445.72 400.569,1445.72 "></polyline>
<polyline clip-path="url(#clip612)" style="stroke:#000000; stroke-linecap:round; stroke-linejoin:round; stroke-width:8; stroke-opacity:1; fill:none" points="1261.49,2925.65 1261.49,-1391.96 "></polyline>
<polyline clip-path="url(#clip612)" style="stroke:#000000; stroke-linecap:round; stroke-linejoin:round; stroke-width:8; stroke-opacity:1; fill:none" points="1261.49,2925.65 1261.49,-1391.96 "></polyline>
<polyline clip-path="url(#clip612)" style="stroke:#000000; stroke-linecap:round; stroke-linejoin:round; stroke-width:8; stroke-opacity:1; fill:none" points="1261.49,2925.65 1261.49,-1391.96 "></polyline>
<polyline clip-path="url(#clip612)" style="stroke:#000000; stroke-linecap:round; stroke-linejoin:round; stroke-width:8; stroke-opacity:1; fill:none" points="1261.49,2925.65 1261.49,-1391.96 "></polyline>
<polyline clip-path="url(#clip612)" style="stroke:#0000ff; stroke-linecap:round; stroke-linejoin:round; stroke-width:8; stroke-opacity:1; fill:none" points="264.5,2925.65 264.5,-1391.96 "></polyline>
<polyline clip-path="url(#clip612)" style="stroke:#0000ff; stroke-linecap:round; stroke-linejoin:round; stroke-width:8; stroke-opacity:1; fill:none" points="321.031,2925.65 321.031,-1391.96 "></polyline>
<path clip-path="url(#clip610)" d="M1230.1 302.578 L2279.97 302.578 L2279.97 95.2176 L1230.1 95.2176  Z" fill="#ffffff" fill-rule="evenodd" fill-opacity="1"></path>
<polyline clip-path="url(#clip610)" style="stroke:#000000; stroke-linecap:round; stroke-linejoin:round; stroke-width:4; stroke-opacity:1; fill:none" points="1230.1,302.578 2279.97,302.578 2279.97,95.2176 1230.1,95.2176 1230.1,302.578 "></polyline>
<path clip-path="url(#clip610)" d="M1254.37 167.794 L1399.94 167.794 L1399.94 126.322 L1254.37 126.322 L1254.37 167.794  Z" fill="#009af9" fill-rule="evenodd" fill-opacity="0.5"></path>
<polyline clip-path="url(#clip610)" style="stroke:#009af9; stroke-linecap:round; stroke-linejoin:round; stroke-width:4; stroke-opacity:0.5; fill:none" points="1254.37,126.322 1399.94,126.322 "></polyline>
<path clip-path="url(#clip610)" d="M1440.04 134.384 L1433.7 151.583 L1446.4 151.583 L1440.04 134.384 M1437.4 129.778 L1442.7 129.778 L1455.87 164.338 L1451.01 164.338 L1447.86 155.472 L1432.28 155.472 L1429.14 164.338 L1424.21 164.338 L1437.4 129.778 Z" fill="#000000" fill-rule="nonzero" fill-opacity="1"></path><path clip-path="url(#clip610)" d="M1477.31 148.134 Q1478.81 148.643 1480.22 150.31 Q1481.66 151.977 1483.09 154.893 L1487.84 164.338 L1482.82 164.338 L1478.39 155.472 Q1476.68 152 1475.06 150.865 Q1473.46 149.731 1470.69 149.731 L1465.59 149.731 L1465.59 164.338 L1460.92 164.338 L1460.92 129.778 L1471.47 129.778 Q1477.4 129.778 1480.32 132.254 Q1483.23 134.731 1483.23 139.731 Q1483.23 142.995 1481.7 145.148 Q1480.2 147.301 1477.31 148.134 M1465.59 133.62 L1465.59 145.889 L1471.47 145.889 Q1474.85 145.889 1476.57 144.338 Q1478.3 142.764 1478.3 139.731 Q1478.3 136.699 1476.57 135.171 Q1474.85 133.62 1471.47 133.62 L1465.59 133.62 Z" fill="#000000" fill-rule="nonzero" fill-opacity="1"></path><path clip-path="url(#clip610)" d="M1493.86 129.778 L1500.83 129.778 L1509.64 153.296 L1518.51 129.778 L1525.48 129.778 L1525.48 164.338 L1520.92 164.338 L1520.92 133.99 L1512.01 157.694 L1507.31 157.694 L1498.39 133.99 L1498.39 164.338 L1493.86 164.338 L1493.86 129.778 Z" fill="#000000" fill-rule="nonzero" fill-opacity="1"></path><path clip-path="url(#clip610)" d="M1546.31 134.384 L1539.97 151.583 L1552.68 151.583 L1546.31 134.384 M1543.67 129.778 L1548.97 129.778 L1562.14 164.338 L1557.28 164.338 L1554.14 155.472 L1538.56 155.472 L1535.41 164.338 L1530.48 164.338 L1543.67 129.778 Z" fill="#000000" fill-rule="nonzero" fill-opacity="1"></path><path clip-path="url(#clip610)" d="M1577.24 128.366 Q1574.14 133.69 1572.63 138.898 Q1571.13 144.106 1571.13 149.453 Q1571.13 154.801 1572.63 160.055 Q1574.16 165.287 1577.24 170.588 L1573.53 170.588 Q1570.06 165.148 1568.32 159.893 Q1566.61 154.639 1566.61 149.453 Q1566.61 144.291 1568.32 139.06 Q1570.04 133.828 1573.53 128.366 L1577.24 128.366 Z" fill="#000000" fill-rule="nonzero" fill-opacity="1"></path><path clip-path="url(#clip610)" d="M1590.13 160.402 L1606.45 160.402 L1606.45 164.338 L1584.51 164.338 L1584.51 160.402 Q1587.17 157.648 1591.75 153.018 Q1596.36 148.365 1597.54 147.023 Q1599.78 144.5 1600.66 142.764 Q1601.57 141.004 1601.57 139.315 Q1601.57 136.56 1599.62 134.824 Q1597.7 133.088 1594.6 133.088 Q1592.4 133.088 1589.95 133.852 Q1587.51 134.615 1584.74 136.166 L1584.74 131.444 Q1587.56 130.31 1590.01 129.731 Q1592.47 129.153 1594.51 129.153 Q1599.88 129.153 1603.07 131.838 Q1606.26 134.523 1606.26 139.014 Q1606.26 141.143 1605.45 143.065 Q1604.67 144.963 1602.56 147.555 Q1601.98 148.227 1598.88 151.444 Q1595.78 154.639 1590.13 160.402 Z" fill="#000000" fill-rule="nonzero" fill-opacity="1"></path><path clip-path="url(#clip610)" d="M1616.75 158.458 L1621.63 158.458 L1621.63 162.439 L1617.84 169.847 L1614.85 169.847 L1616.75 162.439 L1616.75 158.458 Z" fill="#000000" fill-rule="nonzero" fill-opacity="1"></path><path clip-path="url(#clip610)" d="M1632.14 160.402 L1639.78 160.402 L1639.78 134.037 L1631.47 135.703 L1631.47 131.444 L1639.74 129.778 L1644.41 129.778 L1644.41 160.402 L1652.05 160.402 L1652.05 164.338 L1632.14 164.338 L1632.14 160.402 Z" fill="#000000" fill-rule="nonzero" fill-opacity="1"></path><path clip-path="url(#clip610)" d="M1660.22 128.366 L1663.93 128.366 Q1667.4 133.828 1669.11 139.06 Q1670.85 144.291 1670.85 149.453 Q1670.85 154.639 1669.11 159.893 Q1667.4 165.148 1663.93 170.588 L1660.22 170.588 Q1663.3 165.287 1664.81 160.055 Q1666.33 154.801 1666.33 149.453 Q1666.33 144.106 1664.81 138.898 Q1663.3 133.69 1660.22 128.366 Z" fill="#000000" fill-rule="nonzero" fill-opacity="1"></path><path clip-path="url(#clip610)" d="M1714.64 143.389 Q1716.24 140.518 1718.46 139.153 Q1720.69 137.787 1723.69 137.787 Q1727.75 137.787 1729.94 140.634 Q1732.14 143.458 1732.14 148.689 L1732.14 164.338 L1727.86 164.338 L1727.86 148.828 Q1727.86 145.102 1726.54 143.296 Q1725.22 141.49 1722.51 141.49 Q1719.2 141.49 1717.28 143.69 Q1715.36 145.889 1715.36 149.685 L1715.36 164.338 L1711.08 164.338 L1711.08 148.828 Q1711.08 145.078 1709.76 143.296 Q1708.44 141.49 1705.69 141.49 Q1702.42 141.49 1700.5 143.713 Q1698.58 145.912 1698.58 149.685 L1698.58 164.338 L1694.3 164.338 L1694.3 138.412 L1698.58 138.412 L1698.58 142.44 Q1700.04 140.055 1702.07 138.921 Q1704.11 137.787 1706.91 137.787 Q1709.74 137.787 1711.7 139.222 Q1713.69 140.657 1714.64 143.389 Z" fill="#000000" fill-rule="nonzero" fill-opacity="1"></path><path clip-path="url(#clip610)" d="M1750.69 141.398 Q1747.26 141.398 1745.27 144.083 Q1743.28 146.745 1743.28 151.398 Q1743.28 156.051 1745.25 158.736 Q1747.24 161.398 1750.69 161.398 Q1754.09 161.398 1756.08 158.713 Q1758.07 156.027 1758.07 151.398 Q1758.07 146.791 1756.08 144.106 Q1754.09 141.398 1750.69 141.398 M1750.69 137.787 Q1756.24 137.787 1759.41 141.398 Q1762.58 145.009 1762.58 151.398 Q1762.58 157.764 1759.41 161.398 Q1756.24 165.009 1750.69 165.009 Q1745.11 165.009 1741.94 161.398 Q1738.79 157.764 1738.79 151.398 Q1738.79 145.009 1741.94 141.398 Q1745.11 137.787 1750.69 137.787 Z" fill="#000000" fill-rule="nonzero" fill-opacity="1"></path><path clip-path="url(#clip610)" d="M1786.7 142.347 L1786.7 128.319 L1790.96 128.319 L1790.96 164.338 L1786.7 164.338 L1786.7 160.449 Q1785.36 162.763 1783.3 163.898 Q1781.26 165.009 1778.39 165.009 Q1773.69 165.009 1770.73 161.259 Q1767.79 157.509 1767.79 151.398 Q1767.79 145.287 1770.73 141.537 Q1773.69 137.787 1778.39 137.787 Q1781.26 137.787 1783.3 138.921 Q1785.36 140.032 1786.7 142.347 M1772.19 151.398 Q1772.19 156.097 1774.11 158.782 Q1776.06 161.444 1779.43 161.444 Q1782.81 161.444 1784.76 158.782 Q1786.7 156.097 1786.7 151.398 Q1786.7 146.699 1784.76 144.037 Q1782.81 141.352 1779.43 141.352 Q1776.06 141.352 1774.11 144.037 Q1772.19 146.699 1772.19 151.398 Z" fill="#000000" fill-rule="nonzero" fill-opacity="1"></path><path clip-path="url(#clip610)" d="M1821.91 150.31 L1821.91 152.393 L1802.33 152.393 Q1802.61 156.791 1804.97 159.106 Q1807.35 161.398 1811.59 161.398 Q1814.04 161.398 1816.33 160.796 Q1818.65 160.194 1820.92 158.99 L1820.92 163.018 Q1818.62 163.99 1816.22 164.5 Q1813.81 165.009 1811.33 165.009 Q1805.13 165.009 1801.49 161.398 Q1797.88 157.787 1797.88 151.629 Q1797.88 145.264 1801.31 141.537 Q1804.76 137.787 1810.59 137.787 Q1815.82 137.787 1818.86 141.166 Q1821.91 144.523 1821.91 150.31 M1817.65 149.06 Q1817.61 145.565 1815.68 143.481 Q1813.79 141.398 1810.64 141.398 Q1807.07 141.398 1804.92 143.412 Q1802.79 145.426 1802.47 149.083 L1817.65 149.06 Z" fill="#000000" fill-rule="nonzero" fill-opacity="1"></path><path clip-path="url(#clip610)" d="M1828.9 128.319 L1833.16 128.319 L1833.16 164.338 L1828.9 164.338 L1828.9 128.319 Z" fill="#000000" fill-rule="nonzero" fill-opacity="1"></path><path clip-path="url(#clip610)" d="M1861.26 160.449 L1861.26 174.199 L1856.98 174.199 L1856.98 138.412 L1861.26 138.412 L1861.26 142.347 Q1862.61 140.032 1864.64 138.921 Q1866.7 137.787 1869.55 137.787 Q1874.27 137.787 1877.21 141.537 Q1880.18 145.287 1880.18 151.398 Q1880.18 157.509 1877.21 161.259 Q1874.27 165.009 1869.55 165.009 Q1866.7 165.009 1864.64 163.898 Q1862.61 162.763 1861.26 160.449 M1875.75 151.398 Q1875.75 146.699 1873.81 144.037 Q1871.89 141.352 1868.51 141.352 Q1865.13 141.352 1863.18 144.037 Q1861.26 146.699 1861.26 151.398 Q1861.26 156.097 1863.18 158.782 Q1865.13 161.444 1868.51 161.444 Q1871.89 161.444 1873.81 158.782 Q1875.75 156.097 1875.75 151.398 Z" fill="#000000" fill-rule="nonzero" fill-opacity="1"></path><path clip-path="url(#clip610)" d="M1897.28 141.398 Q1893.86 141.398 1891.86 144.083 Q1889.87 146.745 1889.87 151.398 Q1889.87 156.051 1891.84 158.736 Q1893.83 161.398 1897.28 161.398 Q1900.68 161.398 1902.67 158.713 Q1904.67 156.027 1904.67 151.398 Q1904.67 146.791 1902.67 144.106 Q1900.68 141.398 1897.28 141.398 M1897.28 137.787 Q1902.84 137.787 1906.01 141.398 Q1909.18 145.009 1909.18 151.398 Q1909.18 157.764 1906.01 161.398 Q1902.84 165.009 1897.28 165.009 Q1891.7 165.009 1888.53 161.398 Q1885.38 157.764 1885.38 151.398 Q1885.38 145.009 1888.53 141.398 Q1891.7 137.787 1897.28 137.787 Z" fill="#000000" fill-rule="nonzero" fill-opacity="1"></path><path clip-path="url(#clip610)" d="M1932.77 139.176 L1932.77 143.203 Q1930.96 142.277 1929.02 141.815 Q1927.07 141.352 1924.99 141.352 Q1921.82 141.352 1920.22 142.324 Q1918.65 143.296 1918.65 145.24 Q1918.65 146.722 1919.78 147.578 Q1920.92 148.412 1924.34 149.176 L1925.8 149.5 Q1930.34 150.472 1932.23 152.254 Q1934.16 154.014 1934.16 157.185 Q1934.16 160.796 1931.29 162.902 Q1928.44 165.009 1923.44 165.009 Q1921.36 165.009 1919.09 164.592 Q1916.84 164.199 1914.34 163.388 L1914.34 158.99 Q1916.7 160.217 1918.99 160.842 Q1921.29 161.444 1923.53 161.444 Q1926.54 161.444 1928.16 160.426 Q1929.78 159.384 1929.78 157.509 Q1929.78 155.773 1928.6 154.847 Q1927.44 153.921 1923.49 153.064 L1922 152.717 Q1918.05 151.884 1916.29 150.171 Q1914.53 148.435 1914.53 145.426 Q1914.53 141.768 1917.12 139.778 Q1919.71 137.787 1924.48 137.787 Q1926.84 137.787 1928.92 138.134 Q1931.01 138.481 1932.77 139.176 Z" fill="#000000" fill-rule="nonzero" fill-opacity="1"></path><path clip-path="url(#clip610)" d="M1945.15 131.051 L1945.15 138.412 L1953.92 138.412 L1953.92 141.722 L1945.15 141.722 L1945.15 155.796 Q1945.15 158.967 1946.01 159.87 Q1946.89 160.773 1949.55 160.773 L1953.92 160.773 L1953.92 164.338 L1949.55 164.338 Q1944.62 164.338 1942.74 162.509 Q1940.87 160.657 1940.87 155.796 L1940.87 141.722 L1937.74 141.722 L1937.74 138.412 L1940.87 138.412 L1940.87 131.051 L1945.15 131.051 Z" fill="#000000" fill-rule="nonzero" fill-opacity="1"></path><path clip-path="url(#clip610)" d="M1981.7 150.31 L1981.7 152.393 L1962.12 152.393 Q1962.4 156.791 1964.76 159.106 Q1967.14 161.398 1971.38 161.398 Q1973.83 161.398 1976.12 160.796 Q1978.44 160.194 1980.71 158.99 L1980.71 163.018 Q1978.42 163.99 1976.01 164.5 Q1973.6 165.009 1971.12 165.009 Q1964.92 165.009 1961.29 161.398 Q1957.67 157.787 1957.67 151.629 Q1957.67 145.264 1961.1 141.537 Q1964.55 137.787 1970.38 137.787 Q1975.61 137.787 1978.65 141.166 Q1981.7 144.523 1981.7 150.31 M1977.44 149.06 Q1977.4 145.565 1975.48 143.481 Q1973.58 141.398 1970.43 141.398 Q1966.86 141.398 1964.71 143.412 Q1962.58 145.426 1962.26 149.083 L1977.44 149.06 Z" fill="#000000" fill-rule="nonzero" fill-opacity="1"></path><path clip-path="url(#clip610)" d="M2003.72 142.393 Q2003 141.977 2002.14 141.791 Q2001.31 141.583 2000.29 141.583 Q1996.68 141.583 1994.73 143.944 Q1992.81 146.282 1992.81 150.68 L1992.81 164.338 L1988.53 164.338 L1988.53 138.412 L1992.81 138.412 L1992.81 142.44 Q1994.16 140.078 1996.31 138.944 Q1998.46 137.787 2001.54 137.787 Q2001.98 137.787 2002.51 137.856 Q2003.04 137.903 2003.69 138.018 L2003.72 142.393 Z" fill="#000000" fill-rule="nonzero" fill-opacity="1"></path><path clip-path="url(#clip610)" d="M2008.18 138.412 L2012.44 138.412 L2012.44 164.338 L2008.18 164.338 L2008.18 138.412 M2008.18 128.319 L2012.44 128.319 L2012.44 133.713 L2008.18 133.713 L2008.18 128.319 Z" fill="#000000" fill-rule="nonzero" fill-opacity="1"></path><path clip-path="url(#clip610)" d="M2031.4 141.398 Q2027.98 141.398 2025.98 144.083 Q2023.99 146.745 2023.99 151.398 Q2023.99 156.051 2025.96 158.736 Q2027.95 161.398 2031.4 161.398 Q2034.8 161.398 2036.79 158.713 Q2038.79 156.027 2038.79 151.398 Q2038.79 146.791 2036.79 144.106 Q2034.8 141.398 2031.4 141.398 M2031.4 137.787 Q2036.96 137.787 2040.13 141.398 Q2043.3 145.009 2043.3 151.398 Q2043.3 157.764 2040.13 161.398 Q2036.96 165.009 2031.4 165.009 Q2025.82 165.009 2022.65 161.398 Q2019.5 157.764 2019.5 151.398 Q2019.5 145.009 2022.65 141.398 Q2025.82 137.787 2031.4 137.787 Z" fill="#000000" fill-rule="nonzero" fill-opacity="1"></path><path clip-path="url(#clip610)" d="M2065.38 142.393 Q2064.66 141.977 2063.81 141.791 Q2062.98 141.583 2061.96 141.583 Q2058.35 141.583 2056.4 143.944 Q2054.48 146.282 2054.48 150.68 L2054.48 164.338 L2050.2 164.338 L2050.2 138.412 L2054.48 138.412 L2054.48 142.44 Q2055.82 140.078 2057.98 138.944 Q2060.13 137.787 2063.21 137.787 Q2063.65 137.787 2064.18 137.856 Q2064.71 137.903 2065.36 138.018 L2065.38 142.393 Z" fill="#000000" fill-rule="nonzero" fill-opacity="1"></path><path clip-path="url(#clip610)" d="M1254.37 219.634 L1399.94 219.634 L1399.94 178.162 L1254.37 178.162 L1254.37 219.634  Z" fill="#e26f46" fill-rule="evenodd" fill-opacity="0.5"></path>
<polyline clip-path="url(#clip610)" style="stroke:#e26f46; stroke-linecap:round; stroke-linejoin:round; stroke-width:4; stroke-opacity:0.5; fill:none" points="1254.37,178.162 1399.94,178.162 "></polyline>
<path clip-path="url(#clip610)" d="M1440.04 186.224 L1433.7 203.423 L1446.4 203.423 L1440.04 186.224 M1437.4 181.618 L1442.7 181.618 L1455.87 216.178 L1451.01 216.178 L1447.86 207.312 L1432.28 207.312 L1429.14 216.178 L1424.21 216.178 L1437.4 181.618 Z" fill="#000000" fill-rule="nonzero" fill-opacity="1"></path><path clip-path="url(#clip610)" d="M1477.31 199.974 Q1478.81 200.483 1480.22 202.15 Q1481.66 203.817 1483.09 206.733 L1487.84 216.178 L1482.82 216.178 L1478.39 207.312 Q1476.68 203.84 1475.06 202.705 Q1473.46 201.571 1470.69 201.571 L1465.59 201.571 L1465.59 216.178 L1460.92 216.178 L1460.92 181.618 L1471.47 181.618 Q1477.4 181.618 1480.32 184.094 Q1483.23 186.571 1483.23 191.571 Q1483.23 194.835 1481.7 196.988 Q1480.2 199.141 1477.31 199.974 M1465.59 185.46 L1465.59 197.729 L1471.47 197.729 Q1474.85 197.729 1476.57 196.178 Q1478.3 194.604 1478.3 191.571 Q1478.3 188.539 1476.57 187.011 Q1474.85 185.46 1471.47 185.46 L1465.59 185.46 Z" fill="#000000" fill-rule="nonzero" fill-opacity="1"></path><path clip-path="url(#clip610)" d="M1493.86 181.618 L1500.83 181.618 L1509.64 205.136 L1518.51 181.618 L1525.48 181.618 L1525.48 216.178 L1520.92 216.178 L1520.92 185.83 L1512.01 209.534 L1507.31 209.534 L1498.39 185.83 L1498.39 216.178 L1493.86 216.178 L1493.86 181.618 Z" fill="#000000" fill-rule="nonzero" fill-opacity="1"></path><path clip-path="url(#clip610)" d="M1546.31 186.224 L1539.97 203.423 L1552.68 203.423 L1546.31 186.224 M1543.67 181.618 L1548.97 181.618 L1562.14 216.178 L1557.28 216.178 L1554.14 207.312 L1538.56 207.312 L1535.41 216.178 L1530.48 216.178 L1543.67 181.618 Z" fill="#000000" fill-rule="nonzero" fill-opacity="1"></path><path clip-path="url(#clip610)" d="M1577.24 180.206 Q1574.14 185.53 1572.63 190.738 Q1571.13 195.946 1571.13 201.293 Q1571.13 206.641 1572.63 211.895 Q1574.16 217.127 1577.24 222.428 L1573.53 222.428 Q1570.06 216.988 1568.32 211.733 Q1566.61 206.479 1566.61 201.293 Q1566.61 196.131 1568.32 190.9 Q1570.04 185.668 1573.53 180.206 L1577.24 180.206 Z" fill="#000000" fill-rule="nonzero" fill-opacity="1"></path><path clip-path="url(#clip610)" d="M1586.91 212.242 L1594.55 212.242 L1594.55 185.877 L1586.24 187.543 L1586.24 183.284 L1594.51 181.618 L1599.18 181.618 L1599.18 212.242 L1606.82 212.242 L1606.82 216.178 L1586.91 216.178 L1586.91 212.242 Z" fill="#000000" fill-rule="nonzero" fill-opacity="1"></path><path clip-path="url(#clip610)" d="M1616.75 210.298 L1621.63 210.298 L1621.63 214.279 L1617.84 221.687 L1614.85 221.687 L1616.75 214.279 L1616.75 210.298 Z" fill="#000000" fill-rule="nonzero" fill-opacity="1"></path><path clip-path="url(#clip610)" d="M1635.36 212.242 L1651.68 212.242 L1651.68 216.178 L1629.74 216.178 L1629.74 212.242 Q1632.4 209.488 1636.98 204.858 Q1641.59 200.205 1642.77 198.863 Q1645.01 196.34 1645.89 194.604 Q1646.8 192.844 1646.8 191.155 Q1646.8 188.4 1644.85 186.664 Q1642.93 184.928 1639.83 184.928 Q1637.63 184.928 1635.18 185.692 Q1632.75 186.455 1629.97 188.006 L1629.97 183.284 Q1632.79 182.15 1635.25 181.571 Q1637.7 180.993 1639.74 180.993 Q1645.11 180.993 1648.3 183.678 Q1651.5 186.363 1651.5 190.854 Q1651.5 192.983 1650.69 194.905 Q1649.9 196.803 1647.79 199.395 Q1647.21 200.067 1644.11 203.284 Q1641.01 206.479 1635.36 212.242 Z" fill="#000000" fill-rule="nonzero" fill-opacity="1"></path><path clip-path="url(#clip610)" d="M1660.22 180.206 L1663.93 180.206 Q1667.4 185.668 1669.11 190.9 Q1670.85 196.131 1670.85 201.293 Q1670.85 206.479 1669.11 211.733 Q1667.4 216.988 1663.93 222.428 L1660.22 222.428 Q1663.3 217.127 1664.81 211.895 Q1666.33 206.641 1666.33 201.293 Q1666.33 195.946 1664.81 190.738 Q1663.3 185.53 1660.22 180.206 Z" fill="#000000" fill-rule="nonzero" fill-opacity="1"></path><path clip-path="url(#clip610)" d="M1699.57 195.229 Q1701.17 192.358 1703.39 190.993 Q1705.62 189.627 1708.63 189.627 Q1712.68 189.627 1714.88 192.474 Q1717.07 195.298 1717.07 200.529 L1717.07 216.178 L1712.79 216.178 L1712.79 200.668 Q1712.79 196.942 1711.47 195.136 Q1710.15 193.33 1707.44 193.33 Q1704.13 193.33 1702.21 195.53 Q1700.29 197.729 1700.29 201.525 L1700.29 216.178 L1696.01 216.178 L1696.01 200.668 Q1696.01 196.918 1694.69 195.136 Q1693.37 193.33 1690.62 193.33 Q1687.35 193.33 1685.43 195.553 Q1683.51 197.752 1683.51 201.525 L1683.51 216.178 L1679.23 216.178 L1679.23 190.252 L1683.51 190.252 L1683.51 194.28 Q1684.97 191.895 1687 190.761 Q1689.04 189.627 1691.84 189.627 Q1694.67 189.627 1696.63 191.062 Q1698.63 192.497 1699.57 195.229 Z" fill="#000000" fill-rule="nonzero" fill-opacity="1"></path><path clip-path="url(#clip610)" d="M1735.62 193.238 Q1732.19 193.238 1730.2 195.923 Q1728.21 198.585 1728.21 203.238 Q1728.21 207.891 1730.18 210.576 Q1732.17 213.238 1735.62 213.238 Q1739.02 213.238 1741.01 210.553 Q1743 207.867 1743 203.238 Q1743 198.631 1741.01 195.946 Q1739.02 193.238 1735.62 193.238 M1735.62 189.627 Q1741.17 189.627 1744.34 193.238 Q1747.51 196.849 1747.51 203.238 Q1747.51 209.604 1744.34 213.238 Q1741.17 216.849 1735.62 216.849 Q1730.04 216.849 1726.87 213.238 Q1723.72 209.604 1723.72 203.238 Q1723.72 196.849 1726.87 193.238 Q1730.04 189.627 1735.62 189.627 Z" fill="#000000" fill-rule="nonzero" fill-opacity="1"></path><path clip-path="url(#clip610)" d="M1771.63 194.187 L1771.63 180.159 L1775.89 180.159 L1775.89 216.178 L1771.63 216.178 L1771.63 212.289 Q1770.29 214.603 1768.23 215.738 Q1766.19 216.849 1763.32 216.849 Q1758.62 216.849 1755.66 213.099 Q1752.72 209.349 1752.72 203.238 Q1752.72 197.127 1755.66 193.377 Q1758.62 189.627 1763.32 189.627 Q1766.19 189.627 1768.23 190.761 Q1770.29 191.872 1771.63 194.187 M1757.12 203.238 Q1757.12 207.937 1759.04 210.622 Q1760.99 213.284 1764.37 213.284 Q1767.75 213.284 1769.69 210.622 Q1771.63 207.937 1771.63 203.238 Q1771.63 198.539 1769.69 195.877 Q1767.75 193.192 1764.37 193.192 Q1760.99 193.192 1759.04 195.877 Q1757.12 198.539 1757.12 203.238 Z" fill="#000000" fill-rule="nonzero" fill-opacity="1"></path><path clip-path="url(#clip610)" d="M1806.84 202.15 L1806.84 204.233 L1787.26 204.233 Q1787.54 208.631 1789.9 210.946 Q1792.28 213.238 1796.52 213.238 Q1798.97 213.238 1801.26 212.636 Q1803.58 212.034 1805.85 210.83 L1805.85 214.858 Q1803.56 215.83 1801.15 216.34 Q1798.74 216.849 1796.26 216.849 Q1790.06 216.849 1786.43 213.238 Q1782.81 209.627 1782.81 203.469 Q1782.81 197.104 1786.24 193.377 Q1789.69 189.627 1795.52 189.627 Q1800.75 189.627 1803.79 193.006 Q1806.84 196.363 1806.84 202.15 M1802.58 200.9 Q1802.54 197.405 1800.62 195.321 Q1798.72 193.238 1795.57 193.238 Q1792 193.238 1789.85 195.252 Q1787.72 197.266 1787.4 200.923 L1802.58 200.9 Z" fill="#000000" fill-rule="nonzero" fill-opacity="1"></path><path clip-path="url(#clip610)" d="M1813.83 180.159 L1818.09 180.159 L1818.09 216.178 L1813.83 216.178 L1813.83 180.159 Z" fill="#000000" fill-rule="nonzero" fill-opacity="1"></path><path clip-path="url(#clip610)" d="M1846.19 212.289 L1846.19 226.039 L1841.91 226.039 L1841.91 190.252 L1846.19 190.252 L1846.19 194.187 Q1847.54 191.872 1849.57 190.761 Q1851.63 189.627 1854.48 189.627 Q1859.2 189.627 1862.14 193.377 Q1865.11 197.127 1865.11 203.238 Q1865.11 209.349 1862.14 213.099 Q1859.2 216.849 1854.48 216.849 Q1851.63 216.849 1849.57 215.738 Q1847.54 214.603 1846.19 212.289 M1860.68 203.238 Q1860.68 198.539 1858.74 195.877 Q1856.82 193.192 1853.44 193.192 Q1850.06 193.192 1848.12 195.877 Q1846.19 198.539 1846.19 203.238 Q1846.19 207.937 1848.12 210.622 Q1850.06 213.284 1853.44 213.284 Q1856.82 213.284 1858.74 210.622 Q1860.68 207.937 1860.68 203.238 Z" fill="#000000" fill-rule="nonzero" fill-opacity="1"></path><path clip-path="url(#clip610)" d="M1882.21 193.238 Q1878.79 193.238 1876.8 195.923 Q1874.8 198.585 1874.8 203.238 Q1874.8 207.891 1876.77 210.576 Q1878.76 213.238 1882.21 213.238 Q1885.61 213.238 1887.61 210.553 Q1889.6 207.867 1889.6 203.238 Q1889.6 198.631 1887.61 195.946 Q1885.61 193.238 1882.21 193.238 M1882.21 189.627 Q1887.77 189.627 1890.94 193.238 Q1894.11 196.849 1894.11 203.238 Q1894.11 209.604 1890.94 213.238 Q1887.77 216.849 1882.21 216.849 Q1876.63 216.849 1873.46 213.238 Q1870.31 209.604 1870.31 203.238 Q1870.31 196.849 1873.46 193.238 Q1876.63 189.627 1882.21 189.627 Z" fill="#000000" fill-rule="nonzero" fill-opacity="1"></path><path clip-path="url(#clip610)" d="M1917.7 191.016 L1917.7 195.043 Q1915.89 194.117 1913.95 193.655 Q1912 193.192 1909.92 193.192 Q1906.75 193.192 1905.15 194.164 Q1903.58 195.136 1903.58 197.08 Q1903.58 198.562 1904.71 199.418 Q1905.85 200.252 1909.27 201.016 L1910.73 201.34 Q1915.27 202.312 1917.17 204.094 Q1919.09 205.854 1919.09 209.025 Q1919.09 212.636 1916.22 214.742 Q1913.37 216.849 1908.37 216.849 Q1906.29 216.849 1904.02 216.432 Q1901.77 216.039 1899.27 215.228 L1899.27 210.83 Q1901.63 212.057 1903.92 212.682 Q1906.22 213.284 1908.46 213.284 Q1911.47 213.284 1913.09 212.266 Q1914.71 211.224 1914.71 209.349 Q1914.71 207.613 1913.53 206.687 Q1912.37 205.761 1908.42 204.904 L1906.93 204.557 Q1902.98 203.724 1901.22 202.011 Q1899.46 200.275 1899.46 197.266 Q1899.46 193.608 1902.05 191.618 Q1904.64 189.627 1909.41 189.627 Q1911.77 189.627 1913.86 189.974 Q1915.94 190.321 1917.7 191.016 Z" fill="#000000" fill-rule="nonzero" fill-opacity="1"></path><path clip-path="url(#clip610)" d="M1930.08 182.891 L1930.08 190.252 L1938.86 190.252 L1938.86 193.562 L1930.08 193.562 L1930.08 207.636 Q1930.08 210.807 1930.94 211.71 Q1931.82 212.613 1934.48 212.613 L1938.86 212.613 L1938.86 216.178 L1934.48 216.178 Q1929.55 216.178 1927.67 214.349 Q1925.8 212.497 1925.8 207.636 L1925.8 193.562 L1922.67 193.562 L1922.67 190.252 L1925.8 190.252 L1925.8 182.891 L1930.08 182.891 Z" fill="#000000" fill-rule="nonzero" fill-opacity="1"></path><path clip-path="url(#clip610)" d="M1966.63 202.15 L1966.63 204.233 L1947.05 204.233 Q1947.33 208.631 1949.69 210.946 Q1952.07 213.238 1956.31 213.238 Q1958.76 213.238 1961.05 212.636 Q1963.37 212.034 1965.64 210.83 L1965.64 214.858 Q1963.35 215.83 1960.94 216.34 Q1958.53 216.849 1956.05 216.849 Q1949.85 216.849 1946.22 213.238 Q1942.61 209.627 1942.61 203.469 Q1942.61 197.104 1946.03 193.377 Q1949.48 189.627 1955.31 189.627 Q1960.55 189.627 1963.58 193.006 Q1966.63 196.363 1966.63 202.15 M1962.37 200.9 Q1962.33 197.405 1960.41 195.321 Q1958.51 193.238 1955.36 193.238 Q1951.8 193.238 1949.64 195.252 Q1947.51 197.266 1947.19 200.923 L1962.37 200.9 Z" fill="#000000" fill-rule="nonzero" fill-opacity="1"></path><path clip-path="url(#clip610)" d="M1988.65 194.233 Q1987.93 193.817 1987.07 193.631 Q1986.24 193.423 1985.22 193.423 Q1981.61 193.423 1979.67 195.784 Q1977.74 198.122 1977.74 202.52 L1977.74 216.178 L1973.46 216.178 L1973.46 190.252 L1977.74 190.252 L1977.74 194.28 Q1979.09 191.918 1981.24 190.784 Q1983.39 189.627 1986.47 189.627 Q1986.91 189.627 1987.44 189.696 Q1987.98 189.743 1988.62 189.858 L1988.65 194.233 Z" fill="#000000" fill-rule="nonzero" fill-opacity="1"></path><path clip-path="url(#clip610)" d="M1993.11 190.252 L1997.37 190.252 L1997.37 216.178 L1993.11 216.178 L1993.11 190.252 M1993.11 180.159 L1997.37 180.159 L1997.37 185.553 L1993.11 185.553 L1993.11 180.159 Z" fill="#000000" fill-rule="nonzero" fill-opacity="1"></path><path clip-path="url(#clip610)" d="M2016.33 193.238 Q2012.91 193.238 2010.92 195.923 Q2008.92 198.585 2008.92 203.238 Q2008.92 207.891 2010.89 210.576 Q2012.88 213.238 2016.33 213.238 Q2019.73 213.238 2021.73 210.553 Q2023.72 207.867 2023.72 203.238 Q2023.72 198.631 2021.73 195.946 Q2019.73 193.238 2016.33 193.238 M2016.33 189.627 Q2021.89 189.627 2025.06 193.238 Q2028.23 196.849 2028.23 203.238 Q2028.23 209.604 2025.06 213.238 Q2021.89 216.849 2016.33 216.849 Q2010.75 216.849 2007.58 213.238 Q2004.43 209.604 2004.43 203.238 Q2004.43 196.849 2007.58 193.238 Q2010.75 189.627 2016.33 189.627 Z" fill="#000000" fill-rule="nonzero" fill-opacity="1"></path><path clip-path="url(#clip610)" d="M2050.31 194.233 Q2049.6 193.817 2048.74 193.631 Q2047.91 193.423 2046.89 193.423 Q2043.28 193.423 2041.33 195.784 Q2039.41 198.122 2039.41 202.52 L2039.41 216.178 L2035.13 216.178 L2035.13 190.252 L2039.41 190.252 L2039.41 194.28 Q2040.75 191.918 2042.91 190.784 Q2045.06 189.627 2048.14 189.627 Q2048.58 189.627 2049.11 189.696 Q2049.64 189.743 2050.29 189.858 L2050.31 194.233 Z" fill="#000000" fill-rule="nonzero" fill-opacity="1"></path><path clip-path="url(#clip610)" d="M1254.37 271.474 L1399.94 271.474 L1399.94 230.002 L1254.37 230.002 L1254.37 271.474  Z" fill="#3da44d" fill-rule="evenodd" fill-opacity="1"></path>
<polyline clip-path="url(#clip610)" style="stroke:#3da44d; stroke-linecap:round; stroke-linejoin:round; stroke-width:4; stroke-opacity:1; fill:none" points="1254.37,230.002 1399.94,230.002 "></polyline>
<path clip-path="url(#clip610)" d="M1428.88 237.3 L1428.88 264.175 L1434.53 264.175 Q1441.68 264.175 1444.99 260.934 Q1448.33 257.694 1448.33 250.703 Q1448.33 243.758 1444.99 240.541 Q1441.68 237.3 1434.53 237.3 L1428.88 237.3 M1424.21 233.458 L1433.81 233.458 Q1443.86 233.458 1448.56 237.647 Q1453.26 241.814 1453.26 250.703 Q1453.26 259.638 1448.53 263.828 Q1443.81 268.018 1433.81 268.018 L1424.21 268.018 L1424.21 233.458 Z" fill="#000000" fill-rule="nonzero" fill-opacity="1"></path><path clip-path="url(#clip610)" d="M1460.52 242.092 L1464.78 242.092 L1464.78 268.018 L1460.52 268.018 L1460.52 242.092 M1460.52 231.999 L1464.78 231.999 L1464.78 237.393 L1460.52 237.393 L1460.52 231.999 Z" fill="#000000" fill-rule="nonzero" fill-opacity="1"></path><path clip-path="url(#clip610)" d="M1486.82 231.999 L1486.82 235.541 L1482.75 235.541 Q1480.46 235.541 1479.55 236.467 Q1478.67 237.393 1478.67 239.8 L1478.67 242.092 L1485.69 242.092 L1485.69 245.402 L1478.67 245.402 L1478.67 268.018 L1474.39 268.018 L1474.39 245.402 L1470.32 245.402 L1470.32 242.092 L1474.39 242.092 L1474.39 240.286 Q1474.39 235.958 1476.4 233.99 Q1478.42 231.999 1482.79 231.999 L1486.82 231.999 Z" fill="#000000" fill-rule="nonzero" fill-opacity="1"></path><path clip-path="url(#clip610)" d="M1503.51 231.999 L1503.51 235.541 L1499.44 235.541 Q1497.14 235.541 1496.24 236.467 Q1495.36 237.393 1495.36 239.8 L1495.36 242.092 L1502.38 242.092 L1502.38 245.402 L1495.36 245.402 L1495.36 268.018 L1491.08 268.018 L1491.08 245.402 L1487.01 245.402 L1487.01 242.092 L1491.08 242.092 L1491.08 240.286 Q1491.08 235.958 1493.09 233.99 Q1495.11 231.999 1499.48 231.999 L1503.51 231.999 Z" fill="#000000" fill-rule="nonzero" fill-opacity="1"></path><path clip-path="url(#clip610)" d="M1529.25 253.99 L1529.25 256.073 L1509.67 256.073 Q1509.95 260.471 1512.31 262.786 Q1514.69 265.078 1518.93 265.078 Q1521.38 265.078 1523.67 264.476 Q1525.99 263.874 1528.26 262.67 L1528.26 266.698 Q1525.96 267.67 1523.56 268.18 Q1521.15 268.689 1518.67 268.689 Q1512.47 268.689 1508.83 265.078 Q1505.22 261.467 1505.22 255.309 Q1505.22 248.944 1508.65 245.217 Q1512.1 241.467 1517.93 241.467 Q1523.16 241.467 1526.2 244.846 Q1529.25 248.203 1529.25 253.99 M1524.99 252.74 Q1524.95 249.245 1523.02 247.161 Q1521.13 245.078 1517.98 245.078 Q1514.41 245.078 1512.26 247.092 Q1510.13 249.106 1509.81 252.763 L1524.99 252.74 Z" fill="#000000" fill-rule="nonzero" fill-opacity="1"></path><path clip-path="url(#clip610)" d="M1551.26 246.073 Q1550.55 245.657 1549.69 245.471 Q1548.86 245.263 1547.84 245.263 Q1544.23 245.263 1542.28 247.624 Q1540.36 249.962 1540.36 254.36 L1540.36 268.018 L1536.08 268.018 L1536.08 242.092 L1540.36 242.092 L1540.36 246.12 Q1541.7 243.758 1543.86 242.624 Q1546.01 241.467 1549.09 241.467 Q1549.53 241.467 1550.06 241.536 Q1550.59 241.583 1551.24 241.698 L1551.26 246.073 Z" fill="#000000" fill-rule="nonzero" fill-opacity="1"></path><path clip-path="url(#clip610)" d="M1576.87 253.99 L1576.87 256.073 L1557.28 256.073 Q1557.56 260.471 1559.92 262.786 Q1562.31 265.078 1566.54 265.078 Q1569 265.078 1571.29 264.476 Q1573.6 263.874 1575.87 262.67 L1575.87 266.698 Q1573.58 267.67 1571.17 268.18 Q1568.76 268.689 1566.29 268.689 Q1560.08 268.689 1556.45 265.078 Q1552.84 261.467 1552.84 255.309 Q1552.84 248.944 1556.26 245.217 Q1559.71 241.467 1565.55 241.467 Q1570.78 241.467 1573.81 244.846 Q1576.87 248.203 1576.87 253.99 M1572.61 252.74 Q1572.56 249.245 1570.64 247.161 Q1568.74 245.078 1565.59 245.078 Q1562.03 245.078 1559.88 247.092 Q1557.75 249.106 1557.42 252.763 L1572.61 252.74 Z" fill="#000000" fill-rule="nonzero" fill-opacity="1"></path><path clip-path="url(#clip610)" d="M1605.41 252.369 L1605.41 268.018 L1601.15 268.018 L1601.15 252.508 Q1601.15 248.828 1599.71 246.999 Q1598.28 245.17 1595.41 245.17 Q1591.96 245.17 1589.97 247.37 Q1587.98 249.569 1587.98 253.365 L1587.98 268.018 L1583.7 268.018 L1583.7 242.092 L1587.98 242.092 L1587.98 246.12 Q1589.51 243.782 1591.57 242.624 Q1593.65 241.467 1596.36 241.467 Q1600.82 241.467 1603.12 244.245 Q1605.41 246.999 1605.41 252.369 Z" fill="#000000" fill-rule="nonzero" fill-opacity="1"></path><path clip-path="url(#clip610)" d="M1632.56 243.087 L1632.56 247.069 Q1630.76 246.073 1628.93 245.587 Q1627.12 245.078 1625.27 245.078 Q1621.13 245.078 1618.83 247.717 Q1616.54 250.332 1616.54 255.078 Q1616.54 259.823 1618.83 262.462 Q1621.13 265.078 1625.27 265.078 Q1627.12 265.078 1628.93 264.592 Q1630.76 264.082 1632.56 263.087 L1632.56 267.022 Q1630.78 267.856 1628.86 268.272 Q1626.96 268.689 1624.81 268.689 Q1618.95 268.689 1615.5 265.008 Q1612.05 261.328 1612.05 255.078 Q1612.05 248.735 1615.52 245.101 Q1619.02 241.467 1625.08 241.467 Q1627.05 241.467 1628.93 241.883 Q1630.8 242.277 1632.56 243.087 Z" fill="#000000" fill-rule="nonzero" fill-opacity="1"></path><path clip-path="url(#clip610)" d="M1662.14 253.99 L1662.14 256.073 L1642.56 256.073 Q1642.84 260.471 1645.2 262.786 Q1647.58 265.078 1651.82 265.078 Q1654.27 265.078 1656.57 264.476 Q1658.88 263.874 1661.15 262.67 L1661.15 266.698 Q1658.86 267.67 1656.45 268.18 Q1654.04 268.689 1651.57 268.689 Q1645.36 268.689 1641.73 265.078 Q1638.12 261.467 1638.12 255.309 Q1638.12 248.944 1641.54 245.217 Q1644.99 241.467 1650.82 241.467 Q1656.06 241.467 1659.09 244.846 Q1662.14 248.203 1662.14 253.99 M1657.88 252.74 Q1657.84 249.245 1655.92 247.161 Q1654.02 245.078 1650.87 245.078 Q1647.31 245.078 1645.15 247.092 Q1643.02 249.106 1642.7 252.763 L1657.88 252.74 Z" fill="#000000" fill-rule="nonzero" fill-opacity="1"></path><path clip-path="url(#clip610)" d="M1684.2 242.092 L1688.46 242.092 L1688.46 268.018 L1684.2 268.018 L1684.2 242.092 M1684.2 231.999 L1688.46 231.999 L1688.46 237.393 L1684.2 237.393 L1684.2 231.999 Z" fill="#000000" fill-rule="nonzero" fill-opacity="1"></path><path clip-path="url(#clip610)" d="M1718.93 252.369 L1718.93 268.018 L1714.67 268.018 L1714.67 252.508 Q1714.67 248.828 1713.23 246.999 Q1711.8 245.17 1708.93 245.17 Q1705.48 245.17 1703.49 247.37 Q1701.5 249.569 1701.5 253.365 L1701.5 268.018 L1697.21 268.018 L1697.21 242.092 L1701.5 242.092 L1701.5 246.12 Q1703.02 243.782 1705.08 242.624 Q1707.17 241.467 1709.88 241.467 Q1714.34 241.467 1716.63 244.245 Q1718.93 246.999 1718.93 252.369 Z" fill="#000000" fill-rule="nonzero" fill-opacity="1"></path><path clip-path="url(#clip610)" d="M1754.23 238.064 L1747.88 255.263 L1760.59 255.263 L1754.23 238.064 M1751.59 233.458 L1756.89 233.458 L1770.06 268.018 L1765.2 268.018 L1762.05 259.152 L1746.47 259.152 L1743.32 268.018 L1738.39 268.018 L1751.59 233.458 Z" fill="#000000" fill-rule="nonzero" fill-opacity="1"></path><path clip-path="url(#clip610)" d="M1791.5 251.814 Q1793 252.323 1794.41 253.99 Q1795.85 255.657 1797.28 258.573 L1802.03 268.018 L1797 268.018 L1792.58 259.152 Q1790.87 255.68 1789.25 254.545 Q1787.65 253.411 1784.87 253.411 L1779.78 253.411 L1779.78 268.018 L1775.11 268.018 L1775.11 233.458 L1785.66 233.458 Q1791.59 233.458 1794.5 235.934 Q1797.42 238.411 1797.42 243.411 Q1797.42 246.675 1795.89 248.828 Q1794.39 250.981 1791.5 251.814 M1779.78 237.3 L1779.78 249.569 L1785.66 249.569 Q1789.04 249.569 1790.75 248.018 Q1792.49 246.444 1792.49 243.411 Q1792.49 240.379 1790.75 238.851 Q1789.04 237.3 1785.66 237.3 L1779.78 237.3 Z" fill="#000000" fill-rule="nonzero" fill-opacity="1"></path><path clip-path="url(#clip610)" d="M1818.09 232.046 Q1814.99 237.37 1813.49 242.578 Q1811.98 247.786 1811.98 253.133 Q1811.98 258.481 1813.49 263.735 Q1815.01 268.967 1818.09 274.268 L1814.39 274.268 Q1810.92 268.828 1809.18 263.573 Q1807.47 258.319 1807.47 253.133 Q1807.47 247.971 1809.18 242.74 Q1810.89 237.508 1814.39 232.046 L1818.09 232.046 Z" fill="#000000" fill-rule="nonzero" fill-opacity="1"></path><path clip-path="url(#clip610)" d="M1827.77 264.082 L1835.41 264.082 L1835.41 237.717 L1827.1 239.383 L1827.1 235.124 L1835.36 233.458 L1840.04 233.458 L1840.04 264.082 L1847.68 264.082 L1847.68 268.018 L1827.77 268.018 L1827.77 264.082 Z" fill="#000000" fill-rule="nonzero" fill-opacity="1"></path><path clip-path="url(#clip610)" d="M1855.85 232.046 L1859.55 232.046 Q1863.02 237.508 1864.74 242.74 Q1866.47 247.971 1866.47 253.133 Q1866.47 258.319 1864.74 263.573 Q1863.02 268.828 1859.55 274.268 L1855.85 274.268 Q1858.93 268.967 1860.43 263.735 Q1861.96 258.481 1861.96 253.133 Q1861.96 247.786 1860.43 242.578 Q1858.93 237.37 1855.85 232.046 Z" fill="#000000" fill-rule="nonzero" fill-opacity="1"></path><path clip-path="url(#clip610)" d="M1908.74 243.087 L1908.74 247.069 Q1906.93 246.073 1905.11 245.587 Q1903.3 245.078 1901.45 245.078 Q1897.3 245.078 1895.01 247.717 Q1892.72 250.332 1892.72 255.078 Q1892.72 259.823 1895.01 262.462 Q1897.3 265.078 1901.45 265.078 Q1903.3 265.078 1905.11 264.592 Q1906.93 264.082 1908.74 263.087 L1908.74 267.022 Q1906.96 267.856 1905.04 268.272 Q1903.14 268.689 1900.99 268.689 Q1895.13 268.689 1891.68 265.008 Q1888.23 261.328 1888.23 255.078 Q1888.23 248.735 1891.7 245.101 Q1895.2 241.467 1901.26 241.467 Q1903.23 241.467 1905.11 241.883 Q1906.98 242.277 1908.74 243.087 Z" fill="#000000" fill-rule="nonzero" fill-opacity="1"></path><path clip-path="url(#clip610)" d="M1926.19 245.078 Q1922.77 245.078 1920.78 247.763 Q1918.79 250.425 1918.79 255.078 Q1918.79 259.731 1920.75 262.416 Q1922.74 265.078 1926.19 265.078 Q1929.6 265.078 1931.59 262.393 Q1933.58 259.707 1933.58 255.078 Q1933.58 250.471 1931.59 247.786 Q1929.6 245.078 1926.19 245.078 M1926.19 241.467 Q1931.75 241.467 1934.92 245.078 Q1938.09 248.689 1938.09 255.078 Q1938.09 261.444 1934.92 265.078 Q1931.75 268.689 1926.19 268.689 Q1920.61 268.689 1917.44 265.078 Q1914.3 261.444 1914.3 255.078 Q1914.3 248.689 1917.44 245.078 Q1920.61 241.467 1926.19 241.467 Z" fill="#000000" fill-rule="nonzero" fill-opacity="1"></path><path clip-path="url(#clip610)" d="M1967.33 253.99 L1967.33 256.073 L1947.74 256.073 Q1948.02 260.471 1950.38 262.786 Q1952.77 265.078 1957 265.078 Q1959.46 265.078 1961.75 264.476 Q1964.06 263.874 1966.33 262.67 L1966.33 266.698 Q1964.04 267.67 1961.63 268.18 Q1959.23 268.689 1956.75 268.689 Q1950.55 268.689 1946.91 265.078 Q1943.3 261.467 1943.3 255.309 Q1943.3 248.944 1946.73 245.217 Q1950.17 241.467 1956.01 241.467 Q1961.24 241.467 1964.27 244.846 Q1967.33 248.203 1967.33 253.99 M1963.07 252.74 Q1963.02 249.245 1961.1 247.161 Q1959.2 245.078 1956.05 245.078 Q1952.49 245.078 1950.34 247.092 Q1948.21 249.106 1947.88 252.763 L1963.07 252.74 Z" fill="#000000" fill-rule="nonzero" fill-opacity="1"></path><path clip-path="url(#clip610)" d="M1987.44 231.999 L1987.44 235.541 L1983.37 235.541 Q1981.08 235.541 1980.17 236.467 Q1979.29 237.393 1979.29 239.8 L1979.29 242.092 L1986.31 242.092 L1986.31 245.402 L1979.29 245.402 L1979.29 268.018 L1975.01 268.018 L1975.01 245.402 L1970.94 245.402 L1970.94 242.092 L1975.01 242.092 L1975.01 240.286 Q1975.01 235.958 1977.03 233.99 Q1979.04 231.999 1983.42 231.999 L1987.44 231.999 Z" fill="#000000" fill-rule="nonzero" fill-opacity="1"></path><path clip-path="url(#clip610)" d="M2004.13 231.999 L2004.13 235.541 L2000.06 235.541 Q1997.77 235.541 1996.86 236.467 Q1995.98 237.393 1995.98 239.8 L1995.98 242.092 L2003 242.092 L2003 245.402 L1995.98 245.402 L1995.98 268.018 L1991.7 268.018 L1991.7 245.402 L1987.63 245.402 L1987.63 242.092 L1991.7 242.092 L1991.7 240.286 Q1991.7 235.958 1993.72 233.99 Q1995.73 231.999 2000.1 231.999 L2004.13 231.999 Z" fill="#000000" fill-rule="nonzero" fill-opacity="1"></path><path clip-path="url(#clip610)" d="M2024.23 242.856 L2024.23 246.883 Q2022.42 245.957 2020.48 245.495 Q2018.53 245.032 2016.45 245.032 Q2013.28 245.032 2011.68 246.004 Q2010.1 246.976 2010.1 248.92 Q2010.1 250.402 2011.24 251.258 Q2012.37 252.092 2015.8 252.856 L2017.26 253.18 Q2021.79 254.152 2023.69 255.934 Q2025.61 257.694 2025.61 260.865 Q2025.61 264.476 2022.74 266.582 Q2019.9 268.689 2014.9 268.689 Q2012.81 268.689 2010.54 268.272 Q2008.3 267.879 2005.8 267.068 L2005.8 262.67 Q2008.16 263.897 2010.45 264.522 Q2012.74 265.124 2014.99 265.124 Q2018 265.124 2019.62 264.106 Q2021.24 263.064 2021.24 261.189 Q2021.24 259.453 2020.06 258.527 Q2018.9 257.601 2014.94 256.744 L2013.46 256.397 Q2009.5 255.564 2007.74 253.851 Q2005.98 252.115 2005.98 249.106 Q2005.98 245.448 2008.58 243.458 Q2011.17 241.467 2015.94 241.467 Q2018.3 241.467 2020.38 241.814 Q2022.47 242.161 2024.23 242.856 Z" fill="#000000" fill-rule="nonzero" fill-opacity="1"></path><path clip-path="url(#clip610)" d="M2051.59 264.129 L2051.59 277.879 L2047.3 277.879 L2047.3 242.092 L2051.59 242.092 L2051.59 246.027 Q2052.93 243.712 2054.97 242.601 Q2057.03 241.467 2059.87 241.467 Q2064.6 241.467 2067.54 245.217 Q2070.5 248.967 2070.5 255.078 Q2070.5 261.189 2067.54 264.939 Q2064.6 268.689 2059.87 268.689 Q2057.03 268.689 2054.97 267.578 Q2052.93 266.443 2051.59 264.129 M2066.08 255.078 Q2066.08 250.379 2064.13 247.717 Q2062.21 245.032 2058.83 245.032 Q2055.45 245.032 2053.51 247.717 Q2051.59 250.379 2051.59 255.078 Q2051.59 259.777 2053.51 262.462 Q2055.45 265.124 2058.83 265.124 Q2062.21 265.124 2064.13 262.462 Q2066.08 259.777 2066.08 255.078 Z" fill="#000000" fill-rule="nonzero" fill-opacity="1"></path><path clip-path="url(#clip610)" d="M2087.6 245.078 Q2084.18 245.078 2082.19 247.763 Q2080.2 250.425 2080.2 255.078 Q2080.2 259.731 2082.16 262.416 Q2084.16 265.078 2087.6 265.078 Q2091.01 265.078 2093 262.393 Q2094.99 259.707 2094.99 255.078 Q2094.99 250.471 2093 247.786 Q2091.01 245.078 2087.6 245.078 M2087.6 241.467 Q2093.16 241.467 2096.33 245.078 Q2099.5 248.689 2099.5 255.078 Q2099.5 261.444 2096.33 265.078 Q2093.16 268.689 2087.6 268.689 Q2082.03 268.689 2078.85 265.078 Q2075.71 261.444 2075.71 255.078 Q2075.71 248.689 2078.85 245.078 Q2082.03 241.467 2087.6 241.467 Z" fill="#000000" fill-rule="nonzero" fill-opacity="1"></path><path clip-path="url(#clip610)" d="M2123.09 242.856 L2123.09 246.883 Q2121.28 245.957 2119.34 245.495 Q2117.4 245.032 2115.31 245.032 Q2112.14 245.032 2110.54 246.004 Q2108.97 246.976 2108.97 248.92 Q2108.97 250.402 2110.1 251.258 Q2111.24 252.092 2114.66 252.856 L2116.12 253.18 Q2120.66 254.152 2122.56 255.934 Q2124.48 257.694 2124.48 260.865 Q2124.48 264.476 2121.61 266.582 Q2118.76 268.689 2113.76 268.689 Q2111.68 268.689 2109.41 268.272 Q2107.16 267.879 2104.66 267.068 L2104.66 262.67 Q2107.03 263.897 2109.32 264.522 Q2111.61 265.124 2113.85 265.124 Q2116.86 265.124 2118.48 264.106 Q2120.1 263.064 2120.1 261.189 Q2120.1 259.453 2118.92 258.527 Q2117.77 257.601 2113.81 256.744 L2112.33 256.397 Q2108.37 255.564 2106.61 253.851 Q2104.85 252.115 2104.85 249.106 Q2104.85 245.448 2107.44 243.458 Q2110.03 241.467 2114.8 241.467 Q2117.16 241.467 2119.25 241.814 Q2121.33 242.161 2123.09 242.856 Z" fill="#000000" fill-rule="nonzero" fill-opacity="1"></path><path clip-path="url(#clip610)" d="M2135.47 234.731 L2135.47 242.092 L2144.25 242.092 L2144.25 245.402 L2135.47 245.402 L2135.47 259.476 Q2135.47 262.647 2136.33 263.55 Q2137.21 264.453 2139.87 264.453 L2144.25 264.453 L2144.25 268.018 L2139.87 268.018 Q2134.94 268.018 2133.07 266.189 Q2131.19 264.337 2131.19 259.476 L2131.19 245.402 L2128.07 245.402 L2128.07 242.092 L2131.19 242.092 L2131.19 234.731 L2135.47 234.731 Z" fill="#000000" fill-rule="nonzero" fill-opacity="1"></path><path clip-path="url(#clip610)" d="M2172.03 253.99 L2172.03 256.073 L2152.44 256.073 Q2152.72 260.471 2155.08 262.786 Q2157.47 265.078 2161.7 265.078 Q2164.16 265.078 2166.45 264.476 Q2168.76 263.874 2171.03 262.67 L2171.03 266.698 Q2168.74 267.67 2166.33 268.18 Q2163.92 268.689 2161.45 268.689 Q2155.24 268.689 2151.61 265.078 Q2148 261.467 2148 255.309 Q2148 248.944 2151.42 245.217 Q2154.87 241.467 2160.71 241.467 Q2165.94 241.467 2168.97 244.846 Q2172.03 248.203 2172.03 253.99 M2167.77 252.74 Q2167.72 249.245 2165.8 247.161 Q2163.9 245.078 2160.75 245.078 Q2157.19 245.078 2155.03 247.092 Q2152.91 249.106 2152.58 252.763 L2167.77 252.74 Z" fill="#000000" fill-rule="nonzero" fill-opacity="1"></path><path clip-path="url(#clip610)" d="M2194.04 246.073 Q2193.32 245.657 2192.47 245.471 Q2191.63 245.263 2190.61 245.263 Q2187 245.263 2185.06 247.624 Q2183.14 249.962 2183.14 254.36 L2183.14 268.018 L2178.85 268.018 L2178.85 242.092 L2183.14 242.092 L2183.14 246.12 Q2184.48 243.758 2186.63 242.624 Q2188.78 241.467 2191.86 241.467 Q2192.3 241.467 2192.84 241.536 Q2193.37 241.583 2194.02 241.698 L2194.04 246.073 Z" fill="#000000" fill-rule="nonzero" fill-opacity="1"></path><path clip-path="url(#clip610)" d="M2198.51 242.092 L2202.77 242.092 L2202.77 268.018 L2198.51 268.018 L2198.51 242.092 M2198.51 231.999 L2202.77 231.999 L2202.77 237.393 L2198.51 237.393 L2198.51 231.999 Z" fill="#000000" fill-rule="nonzero" fill-opacity="1"></path><path clip-path="url(#clip610)" d="M2221.72 245.078 Q2218.3 245.078 2216.31 247.763 Q2214.32 250.425 2214.32 255.078 Q2214.32 259.731 2216.28 262.416 Q2218.28 265.078 2221.72 265.078 Q2225.13 265.078 2227.12 262.393 Q2229.11 259.707 2229.11 255.078 Q2229.11 250.471 2227.12 247.786 Q2225.13 245.078 2221.72 245.078 M2221.72 241.467 Q2227.28 241.467 2230.45 245.078 Q2233.62 248.689 2233.62 255.078 Q2233.62 261.444 2230.45 265.078 Q2227.28 268.689 2221.72 268.689 Q2216.15 268.689 2212.97 265.078 Q2209.83 261.444 2209.83 255.078 Q2209.83 248.689 2212.97 245.078 Q2216.15 241.467 2221.72 241.467 Z" fill="#000000" fill-rule="nonzero" fill-opacity="1"></path><path clip-path="url(#clip610)" d="M2255.71 246.073 Q2254.99 245.657 2254.13 245.471 Q2253.3 245.263 2252.28 245.263 Q2248.67 245.263 2246.72 247.624 Q2244.8 249.962 2244.8 254.36 L2244.8 268.018 L2240.52 268.018 L2240.52 242.092 L2244.8 242.092 L2244.8 246.12 Q2246.15 243.758 2248.3 242.624 Q2250.45 241.467 2253.53 241.467 Q2253.97 241.467 2254.5 241.536 Q2255.03 241.583 2255.68 241.698 L2255.71 246.073 Z" fill="#000000" fill-rule="nonzero" fill-opacity="1"></path></svg>