<svg xmlns="http://www.w3.org/2000/svg" xmlns:xlink="http://www.w3.org/1999/xlink" width="600" height="400" viewBox="0 0 2400 1600">
<defs>
  <clipPath id="clip610">
    <rect x="0" y="0" width="2400" height="1600"></rect>
  </clipPath>
</defs>
<path clip-path="url(#clip610)" d="M0 1600 L2400 1600 L2400 8.88178e-14 L0 8.88178e-14  Z" fill="#ffffff" fill-rule="evenodd" fill-opacity="1"></path>
<defs>
  <clipPath id="clip611">
    <rect x="480" y="0" width="1681" height="1600"></rect>
  </clipPath>
</defs>
<path clip-path="url(#clip610)" d="M148.057 1486.45 L2352.76 1486.45 L2352.76 47.2441 L148.057 47.2441  Z" fill="#ffffff" fill-rule="evenodd" fill-opacity="1"></path>
<defs>
  <clipPath id="clip612">
    <rect x="148" y="47" width="2206" height="1440"></rect>
  </clipPath>
</defs>
<polyline clip-path="url(#clip612)" style="stroke:#000000; stroke-linecap:round; stroke-linejoin:round; stroke-width:2; stroke-opacity:0.1; fill:none" points="206.286,1486.45 206.286,47.2441 "></polyline>
<polyline clip-path="url(#clip612)" style="stroke:#000000; stroke-linecap:round; stroke-linejoin:round; stroke-width:2; stroke-opacity:0.1; fill:none" points="623.1,1486.45 623.1,47.2441 "></polyline>
<polyline clip-path="url(#clip612)" style="stroke:#000000; stroke-linecap:round; stroke-linejoin:round; stroke-width:2; stroke-opacity:0.1; fill:none" points="1039.91,1486.45 1039.91,47.2441 "></polyline>
<polyline clip-path="url(#clip612)" style="stroke:#000000; stroke-linecap:round; stroke-linejoin:round; stroke-width:2; stroke-opacity:0.1; fill:none" points="1456.73,1486.45 1456.73,47.2441 "></polyline>
<polyline clip-path="url(#clip612)" style="stroke:#000000; stroke-linecap:round; stroke-linejoin:round; stroke-width:2; stroke-opacity:0.1; fill:none" points="1873.54,1486.45 1873.54,47.2441 "></polyline>
<polyline clip-path="url(#clip612)" style="stroke:#000000; stroke-linecap:round; stroke-linejoin:round; stroke-width:2; stroke-opacity:0.1; fill:none" points="2290.36,1486.45 2290.36,47.2441 "></polyline>
<polyline clip-path="url(#clip612)" style="stroke:#000000; stroke-linecap:round; stroke-linejoin:round; stroke-width:2; stroke-opacity:0.1; fill:none" points="148.057,1324.75 2352.76,1324.75 "></polyline>
<polyline clip-path="url(#clip612)" style="stroke:#000000; stroke-linecap:round; stroke-linejoin:round; stroke-width:2; stroke-opacity:0.1; fill:none" points="148.057,1133.04 2352.76,1133.04 "></polyline>
<polyline clip-path="url(#clip612)" style="stroke:#000000; stroke-linecap:round; stroke-linejoin:round; stroke-width:2; stroke-opacity:0.1; fill:none" points="148.057,941.319 2352.76,941.319 "></polyline>
<polyline clip-path="url(#clip612)" style="stroke:#000000; stroke-linecap:round; stroke-linejoin:round; stroke-width:2; stroke-opacity:0.1; fill:none" points="148.057,749.601 2352.76,749.601 "></polyline>
<polyline clip-path="url(#clip612)" style="stroke:#000000; stroke-linecap:round; stroke-linejoin:round; stroke-width:2; stroke-opacity:0.1; fill:none" points="148.057,557.884 2352.76,557.884 "></polyline>
<polyline clip-path="url(#clip612)" style="stroke:#000000; stroke-linecap:round; stroke-linejoin:round; stroke-width:2; stroke-opacity:0.1; fill:none" points="148.057,366.167 2352.76,366.167 "></polyline>
<polyline clip-path="url(#clip612)" style="stroke:#000000; stroke-linecap:round; stroke-linejoin:round; stroke-width:2; stroke-opacity:0.1; fill:none" points="148.057,174.449 2352.76,174.449 "></polyline>
<polyline clip-path="url(#clip610)" style="stroke:#000000; stroke-linecap:round; stroke-linejoin:round; stroke-width:4; stroke-opacity:1; fill:none" points="148.057,1486.45 2352.76,1486.45 "></polyline>
<polyline clip-path="url(#clip610)" style="stroke:#000000; stroke-linecap:round; stroke-linejoin:round; stroke-width:4; stroke-opacity:1; fill:none" points="206.286,1486.45 206.286,1467.55 "></polyline>
<polyline clip-path="url(#clip610)" style="stroke:#000000; stroke-linecap:round; stroke-linejoin:round; stroke-width:4; stroke-opacity:1; fill:none" points="623.1,1486.45 623.1,1467.55 "></polyline>
<polyline clip-path="url(#clip610)" style="stroke:#000000; stroke-linecap:round; stroke-linejoin:round; stroke-width:4; stroke-opacity:1; fill:none" points="1039.91,1486.45 1039.91,1467.55 "></polyline>
<polyline clip-path="url(#clip610)" style="stroke:#000000; stroke-linecap:round; stroke-linejoin:round; stroke-width:4; stroke-opacity:1; fill:none" points="1456.73,1486.45 1456.73,1467.55 "></polyline>
<polyline clip-path="url(#clip610)" style="stroke:#000000; stroke-linecap:round; stroke-linejoin:round; stroke-width:4; stroke-opacity:1; fill:none" points="1873.54,1486.45 1873.54,1467.55 "></polyline>
<polyline clip-path="url(#clip610)" style="stroke:#000000; stroke-linecap:round; stroke-linejoin:round; stroke-width:4; stroke-opacity:1; fill:none" points="2290.36,1486.45 2290.36,1467.55 "></polyline>
<path clip-path="url(#clip610)" d="M206.286 1517.37 Q202.675 1517.37 200.846 1520.93 Q199.04 1524.47 199.04 1531.6 Q199.04 1538.71 200.846 1542.27 Q202.675 1545.82 206.286 1545.82 Q209.92 1545.82 211.725 1542.27 Q213.554 1538.71 213.554 1531.6 Q213.554 1524.47 211.725 1520.93 Q209.92 1517.37 206.286 1517.37 M206.286 1513.66 Q212.096 1513.66 215.151 1518.27 Q218.23 1522.85 218.23 1531.6 Q218.23 1540.33 215.151 1544.94 Q212.096 1549.52 206.286 1549.52 Q200.475 1549.52 197.397 1544.94 Q194.341 1540.33 194.341 1531.6 Q194.341 1522.85 197.397 1518.27 Q200.475 1513.66 206.286 1513.66 Z" fill="#000000" fill-rule="nonzero" fill-opacity="1"></path><path clip-path="url(#clip610)" d="M582.707 1544.91 L590.346 1544.91 L590.346 1518.55 L582.036 1520.21 L582.036 1515.95 L590.299 1514.29 L594.975 1514.29 L594.975 1544.91 L602.614 1544.91 L602.614 1548.85 L582.707 1548.85 L582.707 1544.91 Z" fill="#000000" fill-rule="nonzero" fill-opacity="1"></path><path clip-path="url(#clip610)" d="M622.059 1517.37 Q618.447 1517.37 616.619 1520.93 Q614.813 1524.47 614.813 1531.6 Q614.813 1538.71 616.619 1542.27 Q618.447 1545.82 622.059 1545.82 Q625.693 1545.82 627.498 1542.27 Q629.327 1538.71 629.327 1531.6 Q629.327 1524.47 627.498 1520.93 Q625.693 1517.37 622.059 1517.37 M622.059 1513.66 Q627.869 1513.66 630.924 1518.27 Q634.003 1522.85 634.003 1531.6 Q634.003 1540.33 630.924 1544.94 Q627.869 1549.52 622.059 1549.52 Q616.248 1549.52 613.17 1544.94 Q610.114 1540.33 610.114 1531.6 Q610.114 1522.85 613.17 1518.27 Q616.248 1513.66 622.059 1513.66 Z" fill="#000000" fill-rule="nonzero" fill-opacity="1"></path><path clip-path="url(#clip610)" d="M652.22 1517.37 Q648.609 1517.37 646.781 1520.93 Q644.975 1524.47 644.975 1531.6 Q644.975 1538.71 646.781 1542.27 Q648.609 1545.82 652.22 1545.82 Q655.855 1545.82 657.66 1542.27 Q659.489 1538.71 659.489 1531.6 Q659.489 1524.47 657.66 1520.93 Q655.855 1517.37 652.22 1517.37 M652.22 1513.66 Q658.031 1513.66 661.086 1518.27 Q664.165 1522.85 664.165 1531.6 Q664.165 1540.33 661.086 1544.94 Q658.031 1549.52 652.22 1549.52 Q646.41 1549.52 643.332 1544.94 Q640.276 1540.33 640.276 1531.6 Q640.276 1522.85 643.332 1518.27 Q646.41 1513.66 652.22 1513.66 Z" fill="#000000" fill-rule="nonzero" fill-opacity="1"></path><path clip-path="url(#clip610)" d="M1003.61 1544.91 L1019.93 1544.91 L1019.93 1548.85 L997.982 1548.85 L997.982 1544.91 Q1000.64 1542.16 1005.23 1537.53 Q1009.83 1532.88 1011.01 1531.53 Q1013.26 1529.01 1014.14 1527.27 Q1015.04 1525.51 1015.04 1523.82 Q1015.04 1521.07 1013.1 1519.33 Q1011.18 1517.6 1008.07 1517.6 Q1005.88 1517.6 1003.42 1518.36 Q1000.99 1519.13 998.214 1520.68 L998.214 1515.95 Q1001.04 1514.82 1003.49 1514.24 Q1005.95 1513.66 1007.98 1513.66 Q1013.35 1513.66 1016.55 1516.35 Q1019.74 1519.03 1019.74 1523.52 Q1019.74 1525.65 1018.93 1527.57 Q1018.14 1529.47 1016.04 1532.07 Q1015.46 1532.74 1012.36 1535.95 Q1009.26 1539.15 1003.61 1544.91 Z" fill="#000000" fill-rule="nonzero" fill-opacity="1"></path><path clip-path="url(#clip610)" d="M1039.74 1517.37 Q1036.13 1517.37 1034.3 1520.93 Q1032.5 1524.47 1032.5 1531.6 Q1032.5 1538.71 1034.3 1542.27 Q1036.13 1545.82 1039.74 1545.82 Q1043.38 1545.82 1045.18 1542.27 Q1047.01 1538.71 1047.01 1531.6 Q1047.01 1524.47 1045.18 1520.93 Q1043.38 1517.37 1039.74 1517.37 M1039.74 1513.66 Q1045.55 1513.66 1048.61 1518.27 Q1051.69 1522.85 1051.69 1531.6 Q1051.69 1540.33 1048.61 1544.94 Q1045.55 1549.52 1039.74 1549.52 Q1033.93 1549.52 1030.85 1544.94 Q1027.8 1540.33 1027.8 1531.6 Q1027.8 1522.85 1030.85 1518.27 Q1033.93 1513.66 1039.74 1513.66 Z" fill="#000000" fill-rule="nonzero" fill-opacity="1"></path><path clip-path="url(#clip610)" d="M1069.9 1517.37 Q1066.29 1517.37 1064.46 1520.93 Q1062.66 1524.47 1062.66 1531.6 Q1062.66 1538.71 1064.46 1542.27 Q1066.29 1545.82 1069.9 1545.82 Q1073.54 1545.82 1075.34 1542.27 Q1077.17 1538.71 1077.17 1531.6 Q1077.17 1524.47 1075.34 1520.93 Q1073.54 1517.37 1069.9 1517.37 M1069.9 1513.66 Q1075.71 1513.66 1078.77 1518.27 Q1081.85 1522.85 1081.85 1531.6 Q1081.85 1540.33 1078.77 1544.94 Q1075.71 1549.52 1069.9 1549.52 Q1064.09 1549.52 1061.01 1544.94 Q1057.96 1540.33 1057.96 1531.6 Q1057.96 1522.85 1061.01 1518.27 Q1064.09 1513.66 1069.9 1513.66 Z" fill="#000000" fill-rule="nonzero" fill-opacity="1"></path><path clip-path="url(#clip610)" d="M1430.49 1530.21 Q1433.85 1530.93 1435.72 1533.2 Q1437.62 1535.47 1437.62 1538.8 Q1437.62 1543.92 1434.1 1546.72 Q1430.58 1549.52 1424.1 1549.52 Q1421.93 1549.52 1419.61 1549.08 Q1417.32 1548.66 1414.87 1547.81 L1414.87 1543.29 Q1416.81 1544.43 1419.13 1545.01 Q1421.44 1545.58 1423.96 1545.58 Q1428.36 1545.58 1430.65 1543.85 Q1432.97 1542.11 1432.97 1538.8 Q1432.97 1535.75 1430.82 1534.03 Q1428.69 1532.3 1424.87 1532.3 L1420.84 1532.3 L1420.84 1528.45 L1425.05 1528.45 Q1428.5 1528.45 1430.33 1527.09 Q1432.16 1525.7 1432.16 1523.11 Q1432.16 1520.45 1430.26 1519.03 Q1428.38 1517.6 1424.87 1517.6 Q1422.94 1517.6 1420.75 1518.01 Q1418.55 1518.43 1415.91 1519.31 L1415.91 1515.14 Q1418.57 1514.4 1420.88 1514.03 Q1423.22 1513.66 1425.28 1513.66 Q1430.61 1513.66 1433.71 1516.09 Q1436.81 1518.5 1436.81 1522.62 Q1436.81 1525.49 1435.17 1527.48 Q1433.52 1529.45 1430.49 1530.21 Z" fill="#000000" fill-rule="nonzero" fill-opacity="1"></path><path clip-path="url(#clip610)" d="M1456.49 1517.37 Q1452.88 1517.37 1451.05 1520.93 Q1449.24 1524.47 1449.24 1531.6 Q1449.24 1538.71 1451.05 1542.27 Q1452.88 1545.82 1456.49 1545.82 Q1460.12 1545.82 1461.93 1542.27 Q1463.75 1538.71 1463.75 1531.6 Q1463.75 1524.47 1461.93 1520.93 Q1460.12 1517.37 1456.49 1517.37 M1456.49 1513.66 Q1462.3 1513.66 1465.35 1518.27 Q1468.43 1522.85 1468.43 1531.6 Q1468.43 1540.33 1465.35 1544.94 Q1462.3 1549.52 1456.49 1549.52 Q1450.68 1549.52 1447.6 1544.94 Q1444.54 1540.33 1444.54 1531.6 Q1444.54 1522.85 1447.6 1518.27 Q1450.68 1513.66 1456.49 1513.66 Z" fill="#000000" fill-rule="nonzero" fill-opacity="1"></path><path clip-path="url(#clip610)" d="M1486.65 1517.37 Q1483.04 1517.37 1481.21 1520.93 Q1479.4 1524.47 1479.4 1531.6 Q1479.4 1538.71 1481.21 1542.27 Q1483.04 1545.82 1486.65 1545.82 Q1490.28 1545.82 1492.09 1542.27 Q1493.92 1538.71 1493.92 1531.6 Q1493.92 1524.47 1492.09 1520.93 Q1490.28 1517.37 1486.65 1517.37 M1486.65 1513.66 Q1492.46 1513.66 1495.51 1518.27 Q1498.59 1522.85 1498.59 1531.6 Q1498.59 1540.33 1495.51 1544.94 Q1492.46 1549.52 1486.65 1549.52 Q1480.84 1549.52 1477.76 1544.94 Q1474.7 1540.33 1474.7 1531.6 Q1474.7 1522.85 1477.76 1518.27 Q1480.84 1513.66 1486.65 1513.66 Z" fill="#000000" fill-rule="nonzero" fill-opacity="1"></path><path clip-path="url(#clip610)" d="M1846.63 1518.36 L1834.83 1536.81 L1846.63 1536.81 L1846.63 1518.36 M1845.41 1514.29 L1851.29 1514.29 L1851.29 1536.81 L1856.22 1536.81 L1856.22 1540.7 L1851.29 1540.7 L1851.29 1548.85 L1846.63 1548.85 L1846.63 1540.7 L1831.03 1540.7 L1831.03 1536.19 L1845.41 1514.29 Z" fill="#000000" fill-rule="nonzero" fill-opacity="1"></path><path clip-path="url(#clip610)" d="M1873.95 1517.37 Q1870.34 1517.37 1868.51 1520.93 Q1866.7 1524.47 1866.7 1531.6 Q1866.7 1538.71 1868.51 1542.27 Q1870.34 1545.82 1873.95 1545.82 Q1877.58 1545.82 1879.39 1542.27 Q1881.22 1538.71 1881.22 1531.6 Q1881.22 1524.47 1879.39 1520.93 Q1877.58 1517.37 1873.95 1517.37 M1873.95 1513.66 Q1879.76 1513.66 1882.81 1518.27 Q1885.89 1522.85 1885.89 1531.6 Q1885.89 1540.33 1882.81 1544.94 Q1879.76 1549.52 1873.95 1549.52 Q1868.14 1549.52 1865.06 1544.94 Q1862 1540.33 1862 1531.6 Q1862 1522.85 1865.06 1518.27 Q1868.14 1513.66 1873.95 1513.66 Z" fill="#000000" fill-rule="nonzero" fill-opacity="1"></path><path clip-path="url(#clip610)" d="M1904.11 1517.37 Q1900.5 1517.37 1898.67 1520.93 Q1896.87 1524.47 1896.87 1531.6 Q1896.87 1538.71 1898.67 1542.27 Q1900.5 1545.82 1904.11 1545.82 Q1907.75 1545.82 1909.55 1542.27 Q1911.38 1538.71 1911.38 1531.6 Q1911.38 1524.47 1909.55 1520.93 Q1907.75 1517.37 1904.11 1517.37 M1904.11 1513.66 Q1909.92 1513.66 1912.98 1518.27 Q1916.06 1522.85 1916.06 1531.6 Q1916.06 1540.33 1912.98 1544.94 Q1909.92 1549.52 1904.11 1549.52 Q1898.3 1549.52 1895.22 1544.94 Q1892.17 1540.33 1892.17 1531.6 Q1892.17 1522.85 1895.22 1518.27 Q1898.3 1513.66 1904.11 1513.66 Z" fill="#000000" fill-rule="nonzero" fill-opacity="1"></path><path clip-path="url(#clip610)" d="M2249.98 1514.29 L2268.33 1514.29 L2268.33 1518.22 L2254.26 1518.22 L2254.26 1526.7 Q2255.28 1526.35 2256.3 1526.19 Q2257.31 1526 2258.33 1526 Q2264.12 1526 2267.5 1529.17 Q2270.88 1532.34 2270.88 1537.76 Q2270.88 1543.34 2267.41 1546.44 Q2263.94 1549.52 2257.62 1549.52 Q2255.44 1549.52 2253.17 1549.15 Q2250.93 1548.78 2248.52 1548.04 L2248.52 1543.34 Q2250.6 1544.47 2252.82 1545.03 Q2255.05 1545.58 2257.52 1545.58 Q2261.53 1545.58 2263.87 1543.48 Q2266.2 1541.37 2266.2 1537.76 Q2266.2 1534.15 2263.87 1532.04 Q2261.53 1529.94 2257.52 1529.94 Q2255.65 1529.94 2253.77 1530.35 Q2251.92 1530.77 2249.98 1531.65 L2249.98 1514.29 Z" fill="#000000" fill-rule="nonzero" fill-opacity="1"></path><path clip-path="url(#clip610)" d="M2290.09 1517.37 Q2286.48 1517.37 2284.65 1520.93 Q2282.85 1524.47 2282.85 1531.6 Q2282.85 1538.71 2284.65 1542.27 Q2286.48 1545.82 2290.09 1545.82 Q2293.73 1545.82 2295.53 1542.27 Q2297.36 1538.71 2297.36 1531.6 Q2297.36 1524.47 2295.53 1520.93 Q2293.73 1517.37 2290.09 1517.37 M2290.09 1513.66 Q2295.9 1513.66 2298.96 1518.27 Q2302.04 1522.85 2302.04 1531.6 Q2302.04 1540.33 2298.96 1544.94 Q2295.9 1549.52 2290.09 1549.52 Q2284.28 1549.52 2281.2 1544.94 Q2278.15 1540.33 2278.15 1531.6 Q2278.15 1522.85 2281.2 1518.27 Q2284.28 1513.66 2290.09 1513.66 Z" fill="#000000" fill-rule="nonzero" fill-opacity="1"></path><path clip-path="url(#clip610)" d="M2320.25 1517.37 Q2316.64 1517.37 2314.81 1520.93 Q2313.01 1524.47 2313.01 1531.6 Q2313.01 1538.71 2314.81 1542.27 Q2316.64 1545.82 2320.25 1545.82 Q2323.89 1545.82 2325.69 1542.27 Q2327.52 1538.71 2327.52 1531.6 Q2327.52 1524.47 2325.69 1520.93 Q2323.89 1517.37 2320.25 1517.37 M2320.25 1513.66 Q2326.06 1513.66 2329.12 1518.27 Q2332.2 1522.85 2332.2 1531.6 Q2332.2 1540.33 2329.12 1544.94 Q2326.06 1549.52 2320.25 1549.52 Q2314.44 1549.52 2311.37 1544.94 Q2308.31 1540.33 2308.31 1531.6 Q2308.31 1522.85 2311.37 1518.27 Q2314.44 1513.66 2320.25 1513.66 Z" fill="#000000" fill-rule="nonzero" fill-opacity="1"></path><polyline clip-path="url(#clip610)" style="stroke:#000000; stroke-linecap:round; stroke-linejoin:round; stroke-width:4; stroke-opacity:1; fill:none" points="148.057,1486.45 148.057,47.2441 "></polyline>
<polyline clip-path="url(#clip610)" style="stroke:#000000; stroke-linecap:round; stroke-linejoin:round; stroke-width:4; stroke-opacity:1; fill:none" points="148.057,1324.75 166.954,1324.75 "></polyline>
<polyline clip-path="url(#clip610)" style="stroke:#000000; stroke-linecap:round; stroke-linejoin:round; stroke-width:4; stroke-opacity:1; fill:none" points="148.057,1133.04 166.954,1133.04 "></polyline>
<polyline clip-path="url(#clip610)" style="stroke:#000000; stroke-linecap:round; stroke-linejoin:round; stroke-width:4; stroke-opacity:1; fill:none" points="148.057,941.319 166.954,941.319 "></polyline>
<polyline clip-path="url(#clip610)" style="stroke:#000000; stroke-linecap:round; stroke-linejoin:round; stroke-width:4; stroke-opacity:1; fill:none" points="148.057,749.601 166.954,749.601 "></polyline>
<polyline clip-path="url(#clip610)" style="stroke:#000000; stroke-linecap:round; stroke-linejoin:round; stroke-width:4; stroke-opacity:1; fill:none" points="148.057,557.884 166.954,557.884 "></polyline>
<polyline clip-path="url(#clip610)" style="stroke:#000000; stroke-linecap:round; stroke-linejoin:round; stroke-width:4; stroke-opacity:1; fill:none" points="148.057,366.167 166.954,366.167 "></polyline>
<polyline clip-path="url(#clip610)" style="stroke:#000000; stroke-linecap:round; stroke-linejoin:round; stroke-width:4; stroke-opacity:1; fill:none" points="148.057,174.449 166.954,174.449 "></polyline>
<path clip-path="url(#clip610)" d="M50.9921 1325.2 L80.6679 1325.2 L80.6679 1329.14 L50.9921 1329.14 L50.9921 1325.2 Z" fill="#000000" fill-rule="nonzero" fill-opacity="1"></path><path clip-path="url(#clip610)" d="M104.927 1323.4 Q108.283 1324.12 110.158 1326.39 Q112.057 1328.65 112.057 1331.99 Q112.057 1337.1 108.538 1339.9 Q105.02 1342.7 98.5382 1342.7 Q96.3623 1342.7 94.0475 1342.26 Q91.7558 1341.85 89.3021 1340.99 L89.3021 1336.48 Q91.2465 1337.61 93.5613 1338.19 Q95.8761 1338.77 98.3993 1338.77 Q102.797 1338.77 105.089 1337.03 Q107.404 1335.3 107.404 1331.99 Q107.404 1328.93 105.251 1327.22 Q103.121 1325.48 99.3021 1325.48 L95.2743 1325.48 L95.2743 1321.64 L99.4872 1321.64 Q102.936 1321.64 104.765 1320.27 Q106.594 1318.89 106.594 1316.29 Q106.594 1313.63 104.696 1312.22 Q102.821 1310.78 99.3021 1310.78 Q97.3808 1310.78 95.1817 1311.2 Q92.9826 1311.62 90.3438 1312.5 L90.3438 1308.33 Q93.0058 1307.59 95.3206 1307.22 Q97.6585 1306.85 99.7187 1306.85 Q105.043 1306.85 108.145 1309.28 Q111.246 1311.69 111.246 1315.81 Q111.246 1318.68 109.603 1320.67 Q107.959 1322.64 104.927 1323.4 Z" fill="#000000" fill-rule="nonzero" fill-opacity="1"></path><path clip-path="url(#clip610)" d="M51.9412 1133.49 L81.617 1133.49 L81.617 1137.42 L51.9412 1137.42 L51.9412 1133.49 Z" fill="#000000" fill-rule="nonzero" fill-opacity="1"></path><path clip-path="url(#clip610)" d="M95.7373 1146.38 L112.057 1146.38 L112.057 1150.32 L90.1123 1150.32 L90.1123 1146.38 Q92.7743 1143.63 97.3576 1139 Q101.964 1134.34 103.145 1133 Q105.39 1130.48 106.27 1128.74 Q107.172 1126.98 107.172 1125.29 Q107.172 1122.54 105.228 1120.8 Q103.307 1119.07 100.205 1119.07 Q98.0058 1119.07 95.5521 1119.83 Q93.1215 1120.59 90.3438 1122.14 L90.3438 1117.42 Q93.1678 1116.29 95.6215 1115.71 Q98.0752 1115.13 100.112 1115.13 Q105.483 1115.13 108.677 1117.82 Q111.871 1120.5 111.871 1124.99 Q111.871 1127.12 111.061 1129.04 Q110.274 1130.94 108.168 1133.53 Q107.589 1134.21 104.487 1137.42 Q101.385 1140.62 95.7373 1146.38 Z" fill="#000000" fill-rule="nonzero" fill-opacity="1"></path><path clip-path="url(#clip610)" d="M51.5708 941.77 L81.2466 941.77 L81.2466 945.705 L51.5708 945.705 L51.5708 941.77 Z" fill="#000000" fill-rule="nonzero" fill-opacity="1"></path><path clip-path="url(#clip610)" d="M92.1493 954.664 L99.7882 954.664 L99.7882 928.298 L91.478 929.965 L91.478 925.705 L99.7419 924.039 L104.418 924.039 L104.418 954.664 L112.057 954.664 L112.057 958.599 L92.1493 958.599 L92.1493 954.664 Z" fill="#000000" fill-rule="nonzero" fill-opacity="1"></path><path clip-path="url(#clip610)" d="M100.112 735.4 Q96.5011 735.4 94.6724 738.965 Q92.8669 742.507 92.8669 749.636 Q92.8669 756.743 94.6724 760.307 Q96.5011 763.849 100.112 763.849 Q103.746 763.849 105.552 760.307 Q107.381 756.743 107.381 749.636 Q107.381 742.507 105.552 738.965 Q103.746 735.4 100.112 735.4 M100.112 731.696 Q105.922 731.696 108.978 736.303 Q112.057 740.886 112.057 749.636 Q112.057 758.363 108.978 762.969 Q105.922 767.553 100.112 767.553 Q94.3021 767.553 91.2234 762.969 Q88.1679 758.363 88.1679 749.636 Q88.1679 740.886 91.2234 736.303 Q94.3021 731.696 100.112 731.696 Z" fill="#000000" fill-rule="nonzero" fill-opacity="1"></path><path clip-path="url(#clip610)" d="M92.1493 571.229 L99.7882 571.229 L99.7882 544.863 L91.478 546.53 L91.478 542.271 L99.7419 540.604 L104.418 540.604 L104.418 571.229 L112.057 571.229 L112.057 575.164 L92.1493 575.164 L92.1493 571.229 Z" fill="#000000" fill-rule="nonzero" fill-opacity="1"></path><path clip-path="url(#clip610)" d="M95.7373 379.512 L112.057 379.512 L112.057 383.447 L90.1123 383.447 L90.1123 379.512 Q92.7743 376.757 97.3576 372.127 Q101.964 367.475 103.145 366.132 Q105.39 363.609 106.27 361.873 Q107.172 360.114 107.172 358.424 Q107.172 355.669 105.228 353.933 Q103.307 352.197 100.205 352.197 Q98.0058 352.197 95.5521 352.961 Q93.1215 353.725 90.3438 355.276 L90.3438 350.553 Q93.1678 349.419 95.6215 348.84 Q98.0752 348.262 100.112 348.262 Q105.483 348.262 108.677 350.947 Q111.871 353.632 111.871 358.123 Q111.871 360.252 111.061 362.174 Q110.274 364.072 108.168 366.664 Q107.589 367.336 104.487 370.553 Q101.385 373.748 95.7373 379.512 Z" fill="#000000" fill-rule="nonzero" fill-opacity="1"></path><path clip-path="url(#clip610)" d="M104.927 173.095 Q108.283 173.813 110.158 176.081 Q112.057 178.35 112.057 181.683 Q112.057 186.799 108.538 189.6 Q105.02 192.401 98.5382 192.401 Q96.3623 192.401 94.0475 191.961 Q91.7558 191.544 89.3021 190.688 L89.3021 186.174 Q91.2465 187.308 93.5613 187.887 Q95.8761 188.466 98.3993 188.466 Q102.797 188.466 105.089 186.729 Q107.404 184.993 107.404 181.683 Q107.404 178.628 105.251 176.915 Q103.121 175.179 99.3021 175.179 L95.2743 175.179 L95.2743 171.336 L99.4872 171.336 Q102.936 171.336 104.765 169.97 Q106.594 168.581 106.594 165.989 Q106.594 163.327 104.696 161.915 Q102.821 160.48 99.3021 160.48 Q97.3808 160.48 95.1817 160.896 Q92.9826 161.313 90.3438 162.193 L90.3438 158.026 Q93.0058 157.285 95.3206 156.915 Q97.6585 156.544 99.7187 156.544 Q105.043 156.544 108.145 158.975 Q111.246 161.382 111.246 165.503 Q111.246 168.373 109.603 170.364 Q107.959 172.331 104.927 173.095 Z" fill="#000000" fill-rule="nonzero" fill-opacity="1"></path><polyline clip-path="url(#clip612)" style="stroke:#009af9; stroke-linecap:round; stroke-linejoin:round; stroke-width:4; stroke-opacity:1; fill:none" points="210.454,730.43 214.622,882.268 218.79,790.693 222.958,527.793 227.126,618.757 231.294,569.921 235.463,500.774 239.631,578.238 243.799,859.6 247.967,674.478 252.135,712.128 256.303,654.932 260.472,932.834 264.64,980.418 268.808,828.978 272.976,855.347 277.144,744.313 281.312,581.215 285.48,528.822 289.649,929.4 293.817,603.291 297.985,937.379 302.153,805.263 306.321,805.571 310.489,1032.84 314.657,1146.69 318.826,1202.73 322.994,1012.96 327.162,816.329 331.33,607.761 335.498,874.253 339.666,918.748 343.834,423.46 348.003,499.393 352.171,712.506 356.339,963.926 360.507,919.374 364.675,1419.33 368.843,1088.32 373.011,1046.46 377.18,978.528 381.348,680.363 385.516,426.128 389.684,615.781 393.852,687.777 398.02,571.127 402.188,769.94 406.357,594.407 410.525,1018.94 414.693,1161.64 418.861,1194.61 423.029,425.187 427.197,423.94 431.366,636.639 435.534,613.14 439.702,955.59 443.87,740.664 448.038,631.237 452.206,843.771 456.374,741.034 460.543,672.621 464.711,913.389 468.879,912.595 473.047,341.139 477.215,509.31 481.383,786.898 485.551,679.557 489.72,750.883 493.888,654.666 498.056,762.121 502.224,583.491 506.392,413.254 510.56,715.482 514.728,754.446 518.897,468.537 523.065,674.016 527.233,1002.37 531.401,912.74 535.569,767.781 539.737,841.119 543.905,1156.77 548.074,943.083 552.242,753.996 556.41,828.995 560.578,530.179 564.746,368.305 568.914,771.319 573.082,889.458 577.251,884.59 581.419,793.69 585.587,899.113 589.755,801.276 593.923,1077.19 598.091,829.371 602.26,693.282 606.428,291.374 610.596,607.844 614.764,901.99 618.932,568.728 623.1,771.228 627.268,783.628 631.437,920.037 635.605,1064.94 639.773,660.428 643.941,813.884 648.109,1013.27 652.277,621.367 656.445,725.447 660.614,637.639 664.782,1080.62 668.95,1193.91 673.118,873.148 677.286,770.172 681.454,745.341 685.622,770.628 689.791,810.161 693.959,852.641 698.127,953.703 702.295,1047.58 706.463,778.577 710.631,801.427 714.799,872.622 718.968,940.852 723.136,421.251 727.304,710.354 731.472,583.046 735.64,538 739.808,135.473 743.976,329.601 748.145,647.307 752.313,711.33 756.481,724.57 760.649,781.694 764.817,764.073 768.985,630.083 773.154,399.27 777.322,767.901 781.49,671.02 785.658,766.488 789.826,782.297 793.994,487.005 798.162,305.106 802.331,472.109 806.499,613.309 810.667,594.401 814.835,500.888 819.003,428.048 823.171,633.641 827.339,683.175 831.508,685.405 835.676,683.579 839.844,508.352 844.012,529.456 848.18,823.801 852.348,844.187 856.516,916.231 860.685,666.412 864.853,839.61 869.021,705.728 873.189,707.275 877.357,833.565 881.525,543.82 885.693,444.586 889.862,1085.27 894.03,897.125 898.198,939.202 902.366,853.692 906.534,931.507 910.702,937.722 914.87,982.934 919.039,772.039 923.207,893.46 927.375,790.886 931.543,824.328 935.711,508.464 939.879,702.86 944.048,863.02 948.216,865.615 952.384,285.39 956.552,414.72 960.72,580.48 964.888,757.466 969.056,937.101 973.225,818.817 977.393,931.519 981.561,777.787 985.729,697.901 989.897,653.615 994.065,918.654 998.233,725.788 1002.4,407.173 1006.57,948.416 1010.74,1204.25 1014.91,723.778 1019.07,817.818 1023.24,637.804 1027.41,1068.1 1031.58,1052.72 1035.75,687.232 1039.91,628.726 1044.08,722.18 1048.25,838.013 1052.42,1048.57 1056.59,1059.65 1060.76,1178.52 1064.92,866.61 1069.09,718.886 1073.26,828.712 1077.43,1102.23 1081.6,1027.17 1085.76,1049.19 1089.93,776.159 1094.1,847.997 1098.27,463.99 1102.44,619.654 1106.61,483.381 1110.77,715.082 1114.94,883.511 1119.11,901.548 1123.28,762.86 1127.45,659.627 1131.61,117.289 1135.78,303.141 1139.95,422.478 1144.12,576.656 1148.29,698.601 1152.45,683.644 1156.62,944.18 1160.79,740.393 1164.96,681.996 1169.13,320.44 1173.3,356.452 1177.46,645.218 1181.63,864.552 1185.8,944.798 1189.97,1046.68 1194.14,965.511 1198.3,1025.79 1202.47,714.226 1206.64,636.783 1210.81,679.272 1214.98,865.497 1219.15,798.193 1223.31,890.464 1227.48,756.68 1231.65,801.435 1235.82,897.935 1239.99,1014.2 1244.15,897.219 1248.32,809.553 1252.49,628.811 1256.66,648.504 1260.83,713.816 1264.99,714.579 1269.16,637.157 1273.33,729.651 1277.5,663.856 1281.67,221.487 1285.84,591.649 1290,713.549 1294.17,968.213 1298.34,830.734 1302.51,617.031 1306.68,438.024 1310.84,811.202 1315.01,849.887 1319.18,762.069 1323.35,746.834 1327.52,788.066 1331.69,947.463 1335.85,1055.41 1340.02,903.244 1344.19,667.113 1348.36,489.585 1352.53,791.702 1356.69,1126.61 1360.86,1445.72 1365.03,1080.67 1369.2,764.715 1373.37,813.219 1377.53,636.072 1381.7,907.32 1385.87,749.927 1390.04,481.702 1394.21,574.992 1398.38,1054.31 1402.54,954.034 1406.71,816.441 1410.88,656.456 1415.05,788.05 1419.22,636.86 1423.38,904.162 1427.55,793.662 1431.72,480.096 1435.89,644.318 1440.06,368.463 1444.23,562.7 1448.39,713.329 1452.56,969.172 1456.73,772.163 1460.9,780.92 1465.07,747.767 1469.23,567.813 1473.4,536.513 1477.57,443.254 1481.74,847.381 1485.91,902.839 1490.07,989.118 1494.24,960.044 1498.41,487.673 1502.58,671.343 1506.75,670.721 1510.92,428.395 1515.08,509.506 1519.25,565.185 1523.42,1125.4 1527.59,1242.99 1531.76,750.496 1535.92,1129.48 1540.09,621.349 1544.26,966.943 1548.43,1085.69 1552.6,744.037 1556.77,913.676 1560.93,785.055 1565.1,549.307 1569.27,900.469 1573.44,520.381 1577.61,890.003 1581.77,668.353 1585.94,848.313 1590.11,1074.41 1594.28,764.726 1598.45,610.255 1602.61,738.051 1606.78,841.471 1610.95,965.718 1615.12,773.319 1619.29,700.543 1623.46,446.723 1627.62,747.07 1631.79,706.982 1635.96,537.806 1640.13,387.146 1644.3,331.437 1648.46,629.589 1652.63,715.736 1656.8,517.382 1660.97,1074.84 1665.14,890.305 1669.3,697.068 1673.47,614.037 1677.64,906.216 1681.81,545.533 1685.98,766.773 1690.15,799.194 1694.31,795.558 1698.48,533.765 1702.65,522.68 1706.82,674.971 1710.99,715.925 1715.15,416.831 1719.32,634.439 1723.49,918.562 1727.66,975.474 1731.83,350.1 1736,388.915 1740.16,850.934 1744.33,987.963 1748.5,776.258 1752.67,782.135 1756.84,618.23 1761,519.208 1765.17,232.755 1769.34,184.42 1773.51,430.148 1777.68,568.42 1781.84,451.792 1786.01,567.549 1790.18,549.479 1794.35,674.163 1798.52,765.826 1802.69,883.741 1806.85,892.883 1811.02,1023.46 1815.19,642.971 1819.36,872.59 1823.53,818.084 1827.69,495.847 1831.86,692.525 1836.03,829.992 1840.2,890.054 1844.37,816.491 1848.54,1186.96 1852.7,988.356 1856.87,1258.41 1861.04,1181.01 1865.21,1197.71 1869.38,842.309 1873.54,849.487 1877.71,407.2 1881.88,425.144 1886.05,687.475 1890.22,513.803 1894.38,1012.37 1898.55,637.018 1902.72,455.335 1906.89,655.604 1911.06,921.699 1915.23,1083.29 1919.39,1028.98 1923.56,1361.72 1927.73,1371.14 1931.9,1222.83 1936.07,892.906 1940.23,524.984 1944.4,705.59 1948.57,811.003 1952.74,993.181 1956.91,520.851 1961.08,986.491 1965.24,1010.76 1969.41,712.513 1973.58,997.094 1977.75,869.646 1981.92,845.815 1986.08,965.159 1990.25,944.824 1994.42,945.392 1998.59,700.019 2002.76,1046.76 2006.92,968.711 2011.09,908.343 2015.26,700.09 2019.43,707.082 2023.6,356.503 2027.77,87.9763 2031.93,431.014 2036.1,708.583 2040.27,1006.33 2044.44,744.648 2048.61,842.889 2052.77,1109.24 2056.94,960.489 2061.11,1205.52 2065.28,1003.04 2069.45,1103.83 2073.62,833.459 2077.78,552.788 2081.95,436.041 2086.12,996.151 2090.29,1016.48 2094.46,676.35 2098.62,776.639 2102.79,513.438 2106.96,672.799 2111.13,788.561 2115.3,898.932 2119.46,1001.94 2123.63,700.673 2127.8,680.991 2131.97,627.616 2136.14,862.845 2140.31,838.183 2144.47,279.282 2148.64,404.849 2152.81,286.206 2156.98,252.831 2161.15,542.258 2165.31,679.521 2169.48,830.298 2173.65,903.506 2177.82,985.621 2181.99,1053.71 2186.16,775.304 2190.32,796.085 2194.49,873.25 2198.66,700.4 2202.83,886.794 2207,833.95 2211.16,760.479 2215.33,893.962 2219.5,754.226 2223.67,647.706 2227.84,696.198 2232,734.982 2236.17,470.714 2240.34,484.161 2244.51,412.035 2248.68,572.476 2252.85,1088.19 2257.01,993.402 2261.18,728.449 2265.35,939.01 2269.52,729.848 2273.69,789.635 2277.85,482.345 2282.02,1039.63 2286.19,713.018 2290.36,1169.07 "></polyline>
<path clip-path="url(#clip610)" d="M221.547 198.898 L494.447 198.898 L494.447 95.2176 L221.547 95.2176  Z" fill="#ffffff" fill-rule="evenodd" fill-opacity="1"></path>
<polyline clip-path="url(#clip610)" style="stroke:#000000; stroke-linecap:round; stroke-linejoin:round; stroke-width:4; stroke-opacity:1; fill:none" points="221.547,198.898 494.447,198.898 494.447,95.2176 221.547,95.2176 221.547,198.898 "></polyline>
<polyline clip-path="url(#clip610)" style="stroke:#009af9; stroke-linecap:round; stroke-linejoin:round; stroke-width:4; stroke-opacity:1; fill:none" points="246.043,147.058 393.023,147.058 "></polyline>
<path clip-path="url(#clip610)" d="M431.362 166.745 Q429.557 171.375 427.844 172.787 Q426.131 174.199 423.261 174.199 L419.858 174.199 L419.858 170.634 L422.358 170.634 Q424.117 170.634 425.089 169.8 Q426.061 168.967 427.242 165.865 L428.006 163.921 L417.52 138.412 L422.034 138.412 L430.136 158.689 L438.237 138.412 L442.751 138.412 L431.362 166.745 Z" fill="#000000" fill-rule="nonzero" fill-opacity="1"></path><path clip-path="url(#clip610)" d="M450.043 160.402 L457.682 160.402 L457.682 134.037 L449.372 135.703 L449.372 131.444 L457.635 129.778 L462.311 129.778 L462.311 160.402 L469.95 160.402 L469.95 164.338 L450.043 164.338 L450.043 160.402 Z" fill="#000000" fill-rule="nonzero" fill-opacity="1"></path></svg>