<svg xmlns="http://www.w3.org/2000/svg" xmlns:xlink="http://www.w3.org/1999/xlink" width="600" height="400" viewBox="0 0 2400 1600">
<defs>
  <clipPath id="clip290">
    <rect x="0" y="0" width="2400" height="1600"></rect>
  </clipPath>
</defs>
<path clip-path="url(#clip290)" d="M0 1600 L2400 1600 L2400 8.88178e-14 L0 8.88178e-14  Z" fill="#ffffff" fill-rule="evenodd" fill-opacity="1"></path>
<defs>
  <clipPath id="clip291">
    <rect x="480" y="0" width="1681" height="1600"></rect>
  </clipPath>
</defs>
<path clip-path="url(#clip290)" d="M169.121 1486.45 L2352.76 1486.45 L2352.76 47.2441 L169.121 47.2441  Z" fill="#ffffff" fill-rule="evenodd" fill-opacity="1"></path>
<defs>
  <clipPath id="clip292">
    <rect x="169" y="47" width="2185" height="1440"></rect>
  </clipPath>
</defs>
<polyline clip-path="url(#clip292)" style="stroke:#000000; stroke-linecap:round; stroke-linejoin:round; stroke-width:2; stroke-opacity:0.1; fill:none" points="370.5,1486.45 370.5,47.2441 "></polyline>
<polyline clip-path="url(#clip292)" style="stroke:#000000; stroke-linecap:round; stroke-linejoin:round; stroke-width:2; stroke-opacity:0.1; fill:none" points="783.468,1486.45 783.468,47.2441 "></polyline>
<polyline clip-path="url(#clip292)" style="stroke:#000000; stroke-linecap:round; stroke-linejoin:round; stroke-width:2; stroke-opacity:0.1; fill:none" points="1196.44,1486.45 1196.44,47.2441 "></polyline>
<polyline clip-path="url(#clip292)" style="stroke:#000000; stroke-linecap:round; stroke-linejoin:round; stroke-width:2; stroke-opacity:0.1; fill:none" points="1609.41,1486.45 1609.41,47.2441 "></polyline>
<polyline clip-path="url(#clip292)" style="stroke:#000000; stroke-linecap:round; stroke-linejoin:round; stroke-width:2; stroke-opacity:0.1; fill:none" points="2022.37,1486.45 2022.37,47.2441 "></polyline>
<polyline clip-path="url(#clip292)" style="stroke:#000000; stroke-linecap:round; stroke-linejoin:round; stroke-width:2; stroke-opacity:0.1; fill:none" points="169.121,1445.72 2352.76,1445.72 "></polyline>
<polyline clip-path="url(#clip292)" style="stroke:#000000; stroke-linecap:round; stroke-linejoin:round; stroke-width:2; stroke-opacity:0.1; fill:none" points="169.121,1243.11 2352.76,1243.11 "></polyline>
<polyline clip-path="url(#clip292)" style="stroke:#000000; stroke-linecap:round; stroke-linejoin:round; stroke-width:2; stroke-opacity:0.1; fill:none" points="169.121,1040.51 2352.76,1040.51 "></polyline>
<polyline clip-path="url(#clip292)" style="stroke:#000000; stroke-linecap:round; stroke-linejoin:round; stroke-width:2; stroke-opacity:0.1; fill:none" points="169.121,837.907 2352.76,837.907 "></polyline>
<polyline clip-path="url(#clip292)" style="stroke:#000000; stroke-linecap:round; stroke-linejoin:round; stroke-width:2; stroke-opacity:0.1; fill:none" points="169.121,635.304 2352.76,635.304 "></polyline>
<polyline clip-path="url(#clip292)" style="stroke:#000000; stroke-linecap:round; stroke-linejoin:round; stroke-width:2; stroke-opacity:0.1; fill:none" points="169.121,432.7 2352.76,432.7 "></polyline>
<polyline clip-path="url(#clip292)" style="stroke:#000000; stroke-linecap:round; stroke-linejoin:round; stroke-width:2; stroke-opacity:0.1; fill:none" points="169.121,230.097 2352.76,230.097 "></polyline>
<polyline clip-path="url(#clip290)" style="stroke:#000000; stroke-linecap:round; stroke-linejoin:round; stroke-width:4; stroke-opacity:1; fill:none" points="169.121,1486.45 2352.76,1486.45 "></polyline>
<polyline clip-path="url(#clip290)" style="stroke:#000000; stroke-linecap:round; stroke-linejoin:round; stroke-width:4; stroke-opacity:1; fill:none" points="370.5,1486.45 370.5,1467.55 "></polyline>
<polyline clip-path="url(#clip290)" style="stroke:#000000; stroke-linecap:round; stroke-linejoin:round; stroke-width:4; stroke-opacity:1; fill:none" points="783.468,1486.45 783.468,1467.55 "></polyline>
<polyline clip-path="url(#clip290)" style="stroke:#000000; stroke-linecap:round; stroke-linejoin:round; stroke-width:4; stroke-opacity:1; fill:none" points="1196.44,1486.45 1196.44,1467.55 "></polyline>
<polyline clip-path="url(#clip290)" style="stroke:#000000; stroke-linecap:round; stroke-linejoin:round; stroke-width:4; stroke-opacity:1; fill:none" points="1609.41,1486.45 1609.41,1467.55 "></polyline>
<polyline clip-path="url(#clip290)" style="stroke:#000000; stroke-linecap:round; stroke-linejoin:round; stroke-width:4; stroke-opacity:1; fill:none" points="2022.37,1486.45 2022.37,1467.55 "></polyline>
<path clip-path="url(#clip290)" d="M286.866 1532.02 L316.542 1532.02 L316.542 1535.95 L286.866 1535.95 L286.866 1532.02 Z" fill="#000000" fill-rule="nonzero" fill-opacity="1"></path><path clip-path="url(#clip290)" d="M336.634 1517.37 Q333.023 1517.37 331.194 1520.93 Q329.389 1524.47 329.389 1531.6 Q329.389 1538.71 331.194 1542.27 Q333.023 1545.82 336.634 1545.82 Q340.268 1545.82 342.074 1542.27 Q343.903 1538.71 343.903 1531.6 Q343.903 1524.47 342.074 1520.93 Q340.268 1517.37 336.634 1517.37 M336.634 1513.66 Q342.444 1513.66 345.5 1518.27 Q348.579 1522.85 348.579 1531.6 Q348.579 1540.33 345.5 1544.94 Q342.444 1549.52 336.634 1549.52 Q330.824 1549.52 327.745 1544.94 Q324.69 1540.33 324.69 1531.6 Q324.69 1522.85 327.745 1518.27 Q330.824 1513.66 336.634 1513.66 Z" fill="#000000" fill-rule="nonzero" fill-opacity="1"></path><path clip-path="url(#clip290)" d="M356.796 1542.97 L361.68 1542.97 L361.68 1548.85 L356.796 1548.85 L356.796 1542.97 Z" fill="#000000" fill-rule="nonzero" fill-opacity="1"></path><path clip-path="url(#clip290)" d="M381.865 1517.37 Q378.254 1517.37 376.426 1520.93 Q374.62 1524.47 374.62 1531.6 Q374.62 1538.71 376.426 1542.27 Q378.254 1545.82 381.865 1545.82 Q385.5 1545.82 387.305 1542.27 Q389.134 1538.71 389.134 1531.6 Q389.134 1524.47 387.305 1520.93 Q385.5 1517.37 381.865 1517.37 M381.865 1513.66 Q387.676 1513.66 390.731 1518.27 Q393.81 1522.85 393.81 1531.6 Q393.81 1540.33 390.731 1544.94 Q387.676 1549.52 381.865 1549.52 Q376.055 1549.52 372.977 1544.94 Q369.921 1540.33 369.921 1531.6 Q369.921 1522.85 372.977 1518.27 Q376.055 1513.66 381.865 1513.66 Z" fill="#000000" fill-rule="nonzero" fill-opacity="1"></path><path clip-path="url(#clip290)" d="M402.838 1544.91 L410.476 1544.91 L410.476 1518.55 L402.166 1520.21 L402.166 1515.95 L410.43 1514.29 L415.106 1514.29 L415.106 1544.91 L422.745 1544.91 L422.745 1548.85 L402.838 1548.85 L402.838 1544.91 Z" fill="#000000" fill-rule="nonzero" fill-opacity="1"></path><path clip-path="url(#clip290)" d="M442.189 1517.37 Q438.578 1517.37 436.749 1520.93 Q434.944 1524.47 434.944 1531.6 Q434.944 1538.71 436.749 1542.27 Q438.578 1545.82 442.189 1545.82 Q445.823 1545.82 447.629 1542.27 Q449.458 1538.71 449.458 1531.6 Q449.458 1524.47 447.629 1520.93 Q445.823 1517.37 442.189 1517.37 M442.189 1513.66 Q447.999 1513.66 451.055 1518.27 Q454.134 1522.85 454.134 1531.6 Q454.134 1540.33 451.055 1544.94 Q447.999 1549.52 442.189 1549.52 Q436.379 1549.52 433.3 1544.94 Q430.245 1540.33 430.245 1531.6 Q430.245 1522.85 433.3 1518.27 Q436.379 1513.66 442.189 1513.66 Z" fill="#000000" fill-rule="nonzero" fill-opacity="1"></path><path clip-path="url(#clip290)" d="M700.332 1532.02 L730.008 1532.02 L730.008 1535.95 L700.332 1535.95 L700.332 1532.02 Z" fill="#000000" fill-rule="nonzero" fill-opacity="1"></path><path clip-path="url(#clip290)" d="M750.1 1517.37 Q746.489 1517.37 744.661 1520.93 Q742.855 1524.47 742.855 1531.6 Q742.855 1538.71 744.661 1542.27 Q746.489 1545.82 750.1 1545.82 Q753.735 1545.82 755.54 1542.27 Q757.369 1538.71 757.369 1531.6 Q757.369 1524.47 755.54 1520.93 Q753.735 1517.37 750.1 1517.37 M750.1 1513.66 Q755.911 1513.66 758.966 1518.27 Q762.045 1522.85 762.045 1531.6 Q762.045 1540.33 758.966 1544.94 Q755.911 1549.52 750.1 1549.52 Q744.29 1549.52 741.212 1544.94 Q738.156 1540.33 738.156 1531.6 Q738.156 1522.85 741.212 1518.27 Q744.29 1513.66 750.1 1513.66 Z" fill="#000000" fill-rule="nonzero" fill-opacity="1"></path><path clip-path="url(#clip290)" d="M770.262 1542.97 L775.147 1542.97 L775.147 1548.85 L770.262 1548.85 L770.262 1542.97 Z" fill="#000000" fill-rule="nonzero" fill-opacity="1"></path><path clip-path="url(#clip290)" d="M795.332 1517.37 Q791.721 1517.37 789.892 1520.93 Q788.086 1524.47 788.086 1531.6 Q788.086 1538.71 789.892 1542.27 Q791.721 1545.82 795.332 1545.82 Q798.966 1545.82 800.771 1542.27 Q802.6 1538.71 802.6 1531.6 Q802.6 1524.47 800.771 1520.93 Q798.966 1517.37 795.332 1517.37 M795.332 1513.66 Q801.142 1513.66 804.197 1518.27 Q807.276 1522.85 807.276 1531.6 Q807.276 1540.33 804.197 1544.94 Q801.142 1549.52 795.332 1549.52 Q789.521 1549.52 786.443 1544.94 Q783.387 1540.33 783.387 1531.6 Q783.387 1522.85 786.443 1518.27 Q789.521 1513.66 795.332 1513.66 Z" fill="#000000" fill-rule="nonzero" fill-opacity="1"></path><path clip-path="url(#clip290)" d="M825.493 1517.37 Q821.882 1517.37 820.054 1520.93 Q818.248 1524.47 818.248 1531.6 Q818.248 1538.71 820.054 1542.27 Q821.882 1545.82 825.493 1545.82 Q829.128 1545.82 830.933 1542.27 Q832.762 1538.71 832.762 1531.6 Q832.762 1524.47 830.933 1520.93 Q829.128 1517.37 825.493 1517.37 M825.493 1513.66 Q831.304 1513.66 834.359 1518.27 Q837.438 1522.85 837.438 1531.6 Q837.438 1540.33 834.359 1544.94 Q831.304 1549.52 825.493 1549.52 Q819.683 1549.52 816.605 1544.94 Q813.549 1540.33 813.549 1531.6 Q813.549 1522.85 816.605 1518.27 Q819.683 1513.66 825.493 1513.66 Z" fill="#000000" fill-rule="nonzero" fill-opacity="1"></path><path clip-path="url(#clip290)" d="M845.702 1514.29 L864.058 1514.29 L864.058 1518.22 L849.984 1518.22 L849.984 1526.7 Q851.003 1526.35 852.021 1526.19 Q853.04 1526 854.058 1526 Q859.845 1526 863.225 1529.17 Q866.604 1532.34 866.604 1537.76 Q866.604 1543.34 863.132 1546.44 Q859.66 1549.52 853.341 1549.52 Q851.165 1549.52 848.896 1549.15 Q846.651 1548.78 844.243 1548.04 L844.243 1543.34 Q846.327 1544.47 848.549 1545.03 Q850.771 1545.58 853.248 1545.58 Q857.253 1545.58 859.591 1543.48 Q861.928 1541.37 861.928 1537.76 Q861.928 1534.15 859.591 1532.04 Q857.253 1529.94 853.248 1529.94 Q851.373 1529.94 849.498 1530.35 Q847.646 1530.77 845.702 1531.65 L845.702 1514.29 Z" fill="#000000" fill-rule="nonzero" fill-opacity="1"></path><path clip-path="url(#clip290)" d="M1143.66 1517.37 Q1140.05 1517.37 1138.22 1520.93 Q1136.41 1524.47 1136.41 1531.6 Q1136.41 1538.71 1138.22 1542.27 Q1140.05 1545.82 1143.66 1545.82 Q1147.29 1545.82 1149.1 1542.27 Q1150.93 1538.71 1150.93 1531.6 Q1150.93 1524.47 1149.1 1520.93 Q1147.29 1517.37 1143.66 1517.37 M1143.66 1513.66 Q1149.47 1513.66 1152.52 1518.27 Q1155.6 1522.85 1155.6 1531.6 Q1155.6 1540.33 1152.52 1544.94 Q1149.47 1549.52 1143.66 1549.52 Q1137.85 1549.52 1134.77 1544.94 Q1131.71 1540.33 1131.71 1531.6 Q1131.71 1522.85 1134.77 1518.27 Q1137.85 1513.66 1143.66 1513.66 Z" fill="#000000" fill-rule="nonzero" fill-opacity="1"></path><path clip-path="url(#clip290)" d="M1163.82 1542.97 L1168.71 1542.97 L1168.71 1548.85 L1163.82 1548.85 L1163.82 1542.97 Z" fill="#000000" fill-rule="nonzero" fill-opacity="1"></path><path clip-path="url(#clip290)" d="M1188.89 1517.37 Q1185.28 1517.37 1183.45 1520.93 Q1181.65 1524.47 1181.65 1531.6 Q1181.65 1538.71 1183.45 1542.27 Q1185.28 1545.82 1188.89 1545.82 Q1192.52 1545.82 1194.33 1542.27 Q1196.16 1538.71 1196.16 1531.6 Q1196.16 1524.47 1194.33 1520.93 Q1192.52 1517.37 1188.89 1517.37 M1188.89 1513.66 Q1194.7 1513.66 1197.76 1518.27 Q1200.83 1522.85 1200.83 1531.6 Q1200.83 1540.33 1197.76 1544.94 Q1194.7 1549.52 1188.89 1549.52 Q1183.08 1549.52 1180 1544.94 Q1176.95 1540.33 1176.95 1531.6 Q1176.95 1522.85 1180 1518.27 Q1183.08 1513.66 1188.89 1513.66 Z" fill="#000000" fill-rule="nonzero" fill-opacity="1"></path><path clip-path="url(#clip290)" d="M1219.05 1517.37 Q1215.44 1517.37 1213.61 1520.93 Q1211.81 1524.47 1211.81 1531.6 Q1211.81 1538.71 1213.61 1542.27 Q1215.44 1545.82 1219.05 1545.82 Q1222.69 1545.82 1224.49 1542.27 Q1226.32 1538.71 1226.32 1531.6 Q1226.32 1524.47 1224.49 1520.93 Q1222.69 1517.37 1219.05 1517.37 M1219.05 1513.66 Q1224.86 1513.66 1227.92 1518.27 Q1231 1522.85 1231 1531.6 Q1231 1540.33 1227.92 1544.94 Q1224.86 1549.52 1219.05 1549.52 Q1213.24 1549.52 1210.16 1544.94 Q1207.11 1540.33 1207.11 1531.6 Q1207.11 1522.85 1210.16 1518.27 Q1213.24 1513.66 1219.05 1513.66 Z" fill="#000000" fill-rule="nonzero" fill-opacity="1"></path><path clip-path="url(#clip290)" d="M1249.21 1517.37 Q1245.6 1517.37 1243.77 1520.93 Q1241.97 1524.47 1241.97 1531.6 Q1241.97 1538.71 1243.77 1542.27 Q1245.6 1545.82 1249.21 1545.82 Q1252.85 1545.82 1254.65 1542.27 Q1256.48 1538.71 1256.48 1531.6 Q1256.48 1524.47 1254.65 1520.93 Q1252.85 1517.37 1249.21 1517.37 M1249.21 1513.66 Q1255.02 1513.66 1258.08 1518.27 Q1261.16 1522.85 1261.16 1531.6 Q1261.16 1540.33 1258.08 1544.94 Q1255.02 1549.52 1249.21 1549.52 Q1243.4 1549.52 1240.33 1544.94 Q1237.27 1540.33 1237.27 1531.6 Q1237.27 1522.85 1240.33 1518.27 Q1243.4 1513.66 1249.21 1513.66 Z" fill="#000000" fill-rule="nonzero" fill-opacity="1"></path><path clip-path="url(#clip290)" d="M1557.13 1517.37 Q1553.51 1517.37 1551.69 1520.93 Q1549.88 1524.47 1549.88 1531.6 Q1549.88 1538.71 1551.69 1542.27 Q1553.51 1545.82 1557.13 1545.82 Q1560.76 1545.82 1562.57 1542.27 Q1564.39 1538.71 1564.39 1531.6 Q1564.39 1524.47 1562.57 1520.93 Q1560.76 1517.37 1557.13 1517.37 M1557.13 1513.66 Q1562.94 1513.66 1565.99 1518.27 Q1569.07 1522.85 1569.07 1531.6 Q1569.07 1540.33 1565.99 1544.94 Q1562.94 1549.52 1557.13 1549.52 Q1551.32 1549.52 1548.24 1544.94 Q1545.18 1540.33 1545.18 1531.6 Q1545.18 1522.85 1548.24 1518.27 Q1551.32 1513.66 1557.13 1513.66 Z" fill="#000000" fill-rule="nonzero" fill-opacity="1"></path><path clip-path="url(#clip290)" d="M1577.29 1542.97 L1582.17 1542.97 L1582.17 1548.85 L1577.29 1548.85 L1577.29 1542.97 Z" fill="#000000" fill-rule="nonzero" fill-opacity="1"></path><path clip-path="url(#clip290)" d="M1602.36 1517.37 Q1598.75 1517.37 1596.92 1520.93 Q1595.11 1524.47 1595.11 1531.6 Q1595.11 1538.71 1596.92 1542.27 Q1598.75 1545.82 1602.36 1545.82 Q1605.99 1545.82 1607.8 1542.27 Q1609.63 1538.71 1609.63 1531.6 Q1609.63 1524.47 1607.8 1520.93 Q1605.99 1517.37 1602.36 1517.37 M1602.36 1513.66 Q1608.17 1513.66 1611.22 1518.27 Q1614.3 1522.85 1614.3 1531.6 Q1614.3 1540.33 1611.22 1544.94 Q1608.17 1549.52 1602.36 1549.52 Q1596.55 1549.52 1593.47 1544.94 Q1590.41 1540.33 1590.41 1531.6 Q1590.41 1522.85 1593.47 1518.27 Q1596.55 1513.66 1602.36 1513.66 Z" fill="#000000" fill-rule="nonzero" fill-opacity="1"></path><path clip-path="url(#clip290)" d="M1632.52 1517.37 Q1628.91 1517.37 1627.08 1520.93 Q1625.27 1524.47 1625.27 1531.6 Q1625.27 1538.71 1627.08 1542.27 Q1628.91 1545.82 1632.52 1545.82 Q1636.15 1545.82 1637.96 1542.27 Q1639.79 1538.71 1639.79 1531.6 Q1639.79 1524.47 1637.96 1520.93 Q1636.15 1517.37 1632.52 1517.37 M1632.52 1513.66 Q1638.33 1513.66 1641.38 1518.27 Q1644.46 1522.85 1644.46 1531.6 Q1644.46 1540.33 1641.38 1544.94 Q1638.33 1549.52 1632.52 1549.52 Q1626.71 1549.52 1623.63 1544.94 Q1620.57 1540.33 1620.57 1531.6 Q1620.57 1522.85 1623.63 1518.27 Q1626.71 1513.66 1632.52 1513.66 Z" fill="#000000" fill-rule="nonzero" fill-opacity="1"></path><path clip-path="url(#clip290)" d="M1652.73 1514.29 L1671.08 1514.29 L1671.08 1518.22 L1657.01 1518.22 L1657.01 1526.7 Q1658.03 1526.35 1659.05 1526.19 Q1660.06 1526 1661.08 1526 Q1666.87 1526 1670.25 1529.17 Q1673.63 1532.34 1673.63 1537.76 Q1673.63 1543.34 1670.16 1546.44 Q1666.69 1549.52 1660.37 1549.52 Q1658.19 1549.52 1655.92 1549.15 Q1653.68 1548.78 1651.27 1548.04 L1651.27 1543.34 Q1653.35 1544.47 1655.57 1545.03 Q1657.8 1545.58 1660.27 1545.58 Q1664.28 1545.58 1666.62 1543.48 Q1668.95 1541.37 1668.95 1537.76 Q1668.95 1534.15 1666.62 1532.04 Q1664.28 1529.94 1660.27 1529.94 Q1658.4 1529.94 1656.52 1530.35 Q1654.67 1530.77 1652.73 1531.65 L1652.73 1514.29 Z" fill="#000000" fill-rule="nonzero" fill-opacity="1"></path><path clip-path="url(#clip290)" d="M1969.6 1517.37 Q1965.99 1517.37 1964.16 1520.93 Q1962.35 1524.47 1962.35 1531.6 Q1962.35 1538.71 1964.16 1542.27 Q1965.99 1545.82 1969.6 1545.82 Q1973.23 1545.82 1975.04 1542.27 Q1976.86 1538.71 1976.86 1531.6 Q1976.86 1524.47 1975.04 1520.93 Q1973.23 1517.37 1969.6 1517.37 M1969.6 1513.66 Q1975.41 1513.66 1978.46 1518.27 Q1981.54 1522.85 1981.54 1531.6 Q1981.54 1540.33 1978.46 1544.94 Q1975.41 1549.52 1969.6 1549.52 Q1963.79 1549.52 1960.71 1544.94 Q1957.65 1540.33 1957.65 1531.6 Q1957.65 1522.85 1960.71 1518.27 Q1963.79 1513.66 1969.6 1513.66 Z" fill="#000000" fill-rule="nonzero" fill-opacity="1"></path><path clip-path="url(#clip290)" d="M1989.76 1542.97 L1994.64 1542.97 L1994.64 1548.85 L1989.76 1548.85 L1989.76 1542.97 Z" fill="#000000" fill-rule="nonzero" fill-opacity="1"></path><path clip-path="url(#clip290)" d="M2014.83 1517.37 Q2011.22 1517.37 2009.39 1520.93 Q2007.58 1524.47 2007.58 1531.6 Q2007.58 1538.71 2009.39 1542.27 Q2011.22 1545.82 2014.83 1545.82 Q2018.46 1545.82 2020.27 1542.27 Q2022.1 1538.71 2022.1 1531.6 Q2022.1 1524.47 2020.27 1520.93 Q2018.46 1517.37 2014.83 1517.37 M2014.83 1513.66 Q2020.64 1513.66 2023.69 1518.27 Q2026.77 1522.85 2026.77 1531.6 Q2026.77 1540.33 2023.69 1544.94 Q2020.64 1549.52 2014.83 1549.52 Q2009.02 1549.52 2005.94 1544.94 Q2002.88 1540.33 2002.88 1531.6 Q2002.88 1522.85 2005.94 1518.27 Q2009.02 1513.66 2014.83 1513.66 Z" fill="#000000" fill-rule="nonzero" fill-opacity="1"></path><path clip-path="url(#clip290)" d="M2035.8 1544.91 L2043.44 1544.91 L2043.44 1518.55 L2035.13 1520.21 L2035.13 1515.95 L2043.39 1514.29 L2048.07 1514.29 L2048.07 1544.91 L2055.71 1544.91 L2055.71 1548.85 L2035.8 1548.85 L2035.8 1544.91 Z" fill="#000000" fill-rule="nonzero" fill-opacity="1"></path><path clip-path="url(#clip290)" d="M2075.15 1517.37 Q2071.54 1517.37 2069.71 1520.93 Q2067.91 1524.47 2067.91 1531.6 Q2067.91 1538.71 2069.71 1542.27 Q2071.54 1545.82 2075.15 1545.82 Q2078.79 1545.82 2080.59 1542.27 Q2082.42 1538.71 2082.42 1531.6 Q2082.42 1524.47 2080.59 1520.93 Q2078.79 1517.37 2075.15 1517.37 M2075.15 1513.66 Q2080.96 1513.66 2084.02 1518.27 Q2087.1 1522.85 2087.1 1531.6 Q2087.1 1540.33 2084.02 1544.94 Q2080.96 1549.52 2075.15 1549.52 Q2069.34 1549.52 2066.26 1544.94 Q2063.21 1540.33 2063.21 1531.6 Q2063.21 1522.85 2066.26 1518.27 Q2069.34 1513.66 2075.15 1513.66 Z" fill="#000000" fill-rule="nonzero" fill-opacity="1"></path><polyline clip-path="url(#clip290)" style="stroke:#000000; stroke-linecap:round; stroke-linejoin:round; stroke-width:4; stroke-opacity:1; fill:none" points="169.121,1486.45 169.121,47.2441 "></polyline>
<polyline clip-path="url(#clip290)" style="stroke:#000000; stroke-linecap:round; stroke-linejoin:round; stroke-width:4; stroke-opacity:1; fill:none" points="169.121,1445.72 188.019,1445.72 "></polyline>
<polyline clip-path="url(#clip290)" style="stroke:#000000; stroke-linecap:round; stroke-linejoin:round; stroke-width:4; stroke-opacity:1; fill:none" points="169.121,1243.11 188.019,1243.11 "></polyline>
<polyline clip-path="url(#clip290)" style="stroke:#000000; stroke-linecap:round; stroke-linejoin:round; stroke-width:4; stroke-opacity:1; fill:none" points="169.121,1040.51 188.019,1040.51 "></polyline>
<polyline clip-path="url(#clip290)" style="stroke:#000000; stroke-linecap:round; stroke-linejoin:round; stroke-width:4; stroke-opacity:1; fill:none" points="169.121,837.907 188.019,837.907 "></polyline>
<polyline clip-path="url(#clip290)" style="stroke:#000000; stroke-linecap:round; stroke-linejoin:round; stroke-width:4; stroke-opacity:1; fill:none" points="169.121,635.304 188.019,635.304 "></polyline>
<polyline clip-path="url(#clip290)" style="stroke:#000000; stroke-linecap:round; stroke-linejoin:round; stroke-width:4; stroke-opacity:1; fill:none" points="169.121,432.7 188.019,432.7 "></polyline>
<polyline clip-path="url(#clip290)" style="stroke:#000000; stroke-linecap:round; stroke-linejoin:round; stroke-width:4; stroke-opacity:1; fill:none" points="169.121,230.097 188.019,230.097 "></polyline>
<path clip-path="url(#clip290)" d="M121.177 1431.51 Q117.566 1431.51 115.737 1435.08 Q113.932 1438.62 113.932 1445.75 Q113.932 1452.86 115.737 1456.42 Q117.566 1459.96 121.177 1459.96 Q124.811 1459.96 126.617 1456.42 Q128.445 1452.86 128.445 1445.75 Q128.445 1438.62 126.617 1435.08 Q124.811 1431.51 121.177 1431.51 M121.177 1427.81 Q126.987 1427.81 130.043 1432.42 Q133.121 1437 133.121 1445.75 Q133.121 1454.48 130.043 1459.08 Q126.987 1463.67 121.177 1463.67 Q115.367 1463.67 112.288 1459.08 Q109.233 1454.48 109.233 1445.75 Q109.233 1437 112.288 1432.42 Q115.367 1427.81 121.177 1427.81 Z" fill="#000000" fill-rule="nonzero" fill-opacity="1"></path><path clip-path="url(#clip290)" d="M85.0429 1256.46 L101.362 1256.46 L101.362 1260.39 L79.4179 1260.39 L79.4179 1256.46 Q82.0799 1253.7 86.6632 1249.07 Q91.2697 1244.42 92.4502 1243.08 Q94.6956 1240.56 95.5752 1238.82 Q96.478 1237.06 96.478 1235.37 Q96.478 1232.62 94.5336 1230.88 Q92.6123 1229.14 89.5104 1229.14 Q87.3114 1229.14 84.8577 1229.91 Q82.4271 1230.67 79.6494 1232.22 L79.6494 1227.5 Q82.4734 1226.37 84.9271 1225.79 Q87.3808 1225.21 89.4178 1225.21 Q94.7882 1225.21 97.9826 1227.89 Q101.177 1230.58 101.177 1235.07 Q101.177 1237.2 100.367 1239.12 Q99.5798 1241.02 97.4734 1243.61 Q96.8947 1244.28 93.7928 1247.5 Q90.691 1250.69 85.0429 1256.46 Z" fill="#000000" fill-rule="nonzero" fill-opacity="1"></path><path clip-path="url(#clip290)" d="M121.177 1228.91 Q117.566 1228.91 115.737 1232.48 Q113.932 1236.02 113.932 1243.15 Q113.932 1250.25 115.737 1253.82 Q117.566 1257.36 121.177 1257.36 Q124.811 1257.36 126.617 1253.82 Q128.445 1250.25 128.445 1243.15 Q128.445 1236.02 126.617 1232.48 Q124.811 1228.91 121.177 1228.91 M121.177 1225.21 Q126.987 1225.21 130.043 1229.81 Q133.121 1234.4 133.121 1243.15 Q133.121 1251.87 130.043 1256.48 Q126.987 1261.06 121.177 1261.06 Q115.367 1261.06 112.288 1256.48 Q109.233 1251.87 109.233 1243.15 Q109.233 1234.4 112.288 1229.81 Q115.367 1225.21 121.177 1225.21 Z" fill="#000000" fill-rule="nonzero" fill-opacity="1"></path><path clip-path="url(#clip290)" d="M93.8623 1027.3 L82.0568 1045.75 L93.8623 1045.75 L93.8623 1027.3 M92.6354 1023.23 L98.515 1023.23 L98.515 1045.75 L103.446 1045.75 L103.446 1049.64 L98.515 1049.64 L98.515 1057.79 L93.8623 1057.79 L93.8623 1049.64 L78.2605 1049.64 L78.2605 1045.13 L92.6354 1023.23 Z" fill="#000000" fill-rule="nonzero" fill-opacity="1"></path><path clip-path="url(#clip290)" d="M121.177 1026.31 Q117.566 1026.31 115.737 1029.87 Q113.932 1033.42 113.932 1040.54 Q113.932 1047.65 115.737 1051.22 Q117.566 1054.76 121.177 1054.76 Q124.811 1054.76 126.617 1051.22 Q128.445 1047.65 128.445 1040.54 Q128.445 1033.42 126.617 1029.87 Q124.811 1026.31 121.177 1026.31 M121.177 1022.6 Q126.987 1022.6 130.043 1027.21 Q133.121 1031.79 133.121 1040.54 Q133.121 1049.27 130.043 1053.88 Q126.987 1058.46 121.177 1058.46 Q115.367 1058.46 112.288 1053.88 Q109.233 1049.27 109.233 1040.54 Q109.233 1031.79 112.288 1027.21 Q115.367 1022.6 121.177 1022.6 Z" fill="#000000" fill-rule="nonzero" fill-opacity="1"></path><path clip-path="url(#clip290)" d="M91.5938 836.043 Q88.4456 836.043 86.5938 838.196 Q84.7651 840.349 84.7651 844.099 Q84.7651 847.826 86.5938 850.002 Q88.4456 852.154 91.5938 852.154 Q94.7419 852.154 96.5706 850.002 Q98.4224 847.826 98.4224 844.099 Q98.4224 840.349 96.5706 838.196 Q94.7419 836.043 91.5938 836.043 M100.876 821.391 L100.876 825.65 Q99.1169 824.817 97.3113 824.377 Q95.5289 823.937 93.7697 823.937 Q89.1401 823.937 86.6864 827.062 Q84.2558 830.187 83.9086 836.506 Q85.2743 834.492 87.3345 833.428 Q89.3947 832.34 91.8715 832.34 Q97.0798 832.34 100.089 835.511 Q103.121 838.659 103.121 844.099 Q103.121 849.423 99.9733 852.64 Q96.8252 855.858 91.5938 855.858 Q85.5984 855.858 82.4271 851.275 Q79.2559 846.668 79.2559 837.941 Q79.2559 829.747 83.1447 824.886 Q87.0336 820.002 93.5845 820.002 Q95.3437 820.002 97.1261 820.349 Q98.9317 820.696 100.876 821.391 Z" fill="#000000" fill-rule="nonzero" fill-opacity="1"></path><path clip-path="url(#clip290)" d="M121.177 823.705 Q117.566 823.705 115.737 827.27 Q113.932 830.812 113.932 837.941 Q113.932 845.048 115.737 848.613 Q117.566 852.154 121.177 852.154 Q124.811 852.154 126.617 848.613 Q128.445 845.048 128.445 837.941 Q128.445 830.812 126.617 827.27 Q124.811 823.705 121.177 823.705 M121.177 820.002 Q126.987 820.002 130.043 824.608 Q133.121 829.192 133.121 837.941 Q133.121 846.668 130.043 851.275 Q126.987 855.858 121.177 855.858 Q115.367 855.858 112.288 851.275 Q109.233 846.668 109.233 837.941 Q109.233 829.192 112.288 824.608 Q115.367 820.002 121.177 820.002 Z" fill="#000000" fill-rule="nonzero" fill-opacity="1"></path><path clip-path="url(#clip290)" d="M91.0151 636.172 Q87.6817 636.172 85.7605 637.954 Q83.8623 639.736 83.8623 642.861 Q83.8623 645.986 85.7605 647.769 Q87.6817 649.551 91.0151 649.551 Q94.3484 649.551 96.2697 647.769 Q98.1909 645.963 98.1909 642.861 Q98.1909 639.736 96.2697 637.954 Q94.3715 636.172 91.0151 636.172 M86.3392 634.181 Q83.3299 633.44 81.6401 631.38 Q79.9735 629.32 79.9735 626.357 Q79.9735 622.213 82.9133 619.806 Q85.8762 617.399 91.0151 617.399 Q96.1771 617.399 99.1169 619.806 Q102.057 622.213 102.057 626.357 Q102.057 629.32 100.367 631.38 Q98.7002 633.44 95.7141 634.181 Q99.0937 634.968 100.969 637.26 Q102.867 639.551 102.867 642.861 Q102.867 647.885 99.7882 650.57 Q96.7326 653.255 91.0151 653.255 Q85.2975 653.255 82.2188 650.57 Q79.1633 647.885 79.1633 642.861 Q79.1633 639.551 81.0614 637.26 Q82.9595 634.968 86.3392 634.181 M84.6262 626.797 Q84.6262 629.482 86.2929 630.987 Q87.9827 632.491 91.0151 632.491 Q94.0243 632.491 95.7141 630.987 Q97.4271 629.482 97.4271 626.797 Q97.4271 624.112 95.7141 622.607 Q94.0243 621.102 91.0151 621.102 Q87.9827 621.102 86.2929 622.607 Q84.6262 624.112 84.6262 626.797 Z" fill="#000000" fill-rule="nonzero" fill-opacity="1"></path><path clip-path="url(#clip290)" d="M121.177 621.102 Q117.566 621.102 115.737 624.667 Q113.932 628.209 113.932 635.338 Q113.932 642.445 115.737 646.01 Q117.566 649.551 121.177 649.551 Q124.811 649.551 126.617 646.01 Q128.445 642.445 128.445 635.338 Q128.445 628.209 126.617 624.667 Q124.811 621.102 121.177 621.102 M121.177 617.399 Q126.987 617.399 130.043 622.005 Q133.121 626.588 133.121 635.338 Q133.121 644.065 130.043 648.672 Q126.987 653.255 121.177 653.255 Q115.367 653.255 112.288 648.672 Q109.233 644.065 109.233 635.338 Q109.233 626.588 112.288 622.005 Q115.367 617.399 121.177 617.399 Z" fill="#000000" fill-rule="nonzero" fill-opacity="1"></path><path clip-path="url(#clip290)" d="M51.6634 446.045 L59.3023 446.045 L59.3023 419.68 L50.9921 421.346 L50.9921 417.087 L59.256 415.42 L63.9319 415.42 L63.9319 446.045 L71.5707 446.045 L71.5707 449.98 L51.6634 449.98 L51.6634 446.045 Z" fill="#000000" fill-rule="nonzero" fill-opacity="1"></path><path clip-path="url(#clip290)" d="M91.0151 418.499 Q87.404 418.499 85.5753 422.064 Q83.7697 425.606 83.7697 432.735 Q83.7697 439.842 85.5753 443.406 Q87.404 446.948 91.0151 446.948 Q94.6493 446.948 96.4548 443.406 Q98.2835 439.842 98.2835 432.735 Q98.2835 425.606 96.4548 422.064 Q94.6493 418.499 91.0151 418.499 M91.0151 414.795 Q96.8252 414.795 99.8808 419.402 Q102.959 423.985 102.959 432.735 Q102.959 441.462 99.8808 446.068 Q96.8252 450.652 91.0151 450.652 Q85.2049 450.652 82.1262 446.068 Q79.0707 441.462 79.0707 432.735 Q79.0707 423.985 82.1262 419.402 Q85.2049 414.795 91.0151 414.795 Z" fill="#000000" fill-rule="nonzero" fill-opacity="1"></path><path clip-path="url(#clip290)" d="M121.177 418.499 Q117.566 418.499 115.737 422.064 Q113.932 425.606 113.932 432.735 Q113.932 439.842 115.737 443.406 Q117.566 446.948 121.177 446.948 Q124.811 446.948 126.617 443.406 Q128.445 439.842 128.445 432.735 Q128.445 425.606 126.617 422.064 Q124.811 418.499 121.177 418.499 M121.177 414.795 Q126.987 414.795 130.043 419.402 Q133.121 423.985 133.121 432.735 Q133.121 441.462 130.043 446.068 Q126.987 450.652 121.177 450.652 Q115.367 450.652 112.288 446.068 Q109.233 441.462 109.233 432.735 Q109.233 423.985 112.288 419.402 Q115.367 414.795 121.177 414.795 Z" fill="#000000" fill-rule="nonzero" fill-opacity="1"></path><path clip-path="url(#clip290)" d="M51.6634 243.442 L59.3023 243.442 L59.3023 217.077 L50.9921 218.743 L50.9921 214.484 L59.256 212.817 L63.9319 212.817 L63.9319 243.442 L71.5707 243.442 L71.5707 247.377 L51.6634 247.377 L51.6634 243.442 Z" fill="#000000" fill-rule="nonzero" fill-opacity="1"></path><path clip-path="url(#clip290)" d="M85.0429 243.442 L101.362 243.442 L101.362 247.377 L79.4179 247.377 L79.4179 243.442 Q82.0799 240.688 86.6632 236.058 Q91.2697 231.405 92.4502 230.063 Q94.6956 227.539 95.5752 225.803 Q96.478 224.044 96.478 222.354 Q96.478 219.6 94.5336 217.864 Q92.6123 216.127 89.5104 216.127 Q87.3114 216.127 84.8577 216.891 Q82.4271 217.655 79.6494 219.206 L79.6494 214.484 Q82.4734 213.35 84.9271 212.771 Q87.3808 212.192 89.4178 212.192 Q94.7882 212.192 97.9826 214.877 Q101.177 217.563 101.177 222.053 Q101.177 224.183 100.367 226.104 Q99.5798 228.002 97.4734 230.595 Q96.8947 231.266 93.7928 234.484 Q90.691 237.678 85.0429 243.442 Z" fill="#000000" fill-rule="nonzero" fill-opacity="1"></path><path clip-path="url(#clip290)" d="M121.177 215.896 Q117.566 215.896 115.737 219.461 Q113.932 223.002 113.932 230.132 Q113.932 237.238 115.737 240.803 Q117.566 244.345 121.177 244.345 Q124.811 244.345 126.617 240.803 Q128.445 237.238 128.445 230.132 Q128.445 223.002 126.617 219.461 Q124.811 215.896 121.177 215.896 M121.177 212.192 Q126.987 212.192 130.043 216.799 Q133.121 221.382 133.121 230.132 Q133.121 238.859 130.043 243.465 Q126.987 248.049 121.177 248.049 Q115.367 248.049 112.288 243.465 Q109.233 238.859 109.233 230.132 Q109.233 221.382 112.288 216.799 Q115.367 212.192 121.177 212.192 Z" fill="#000000" fill-rule="nonzero" fill-opacity="1"></path><polyline clip-path="url(#clip292)" style="stroke:#009af9; stroke-linecap:round; stroke-linejoin:round; stroke-width:4; stroke-opacity:1; fill:none" points="230.922,1445.72 241.274,1445.72 251.626,1445.71 261.978,1445.71 272.33,1445.7 282.682,1445.67 293.034,1445.63 303.386,1445.55 313.738,1445.44 324.09,1445.28 334.442,1445.07 344.793,1444.82 355.145,1444.57 365.497,1444.32 375.849,1444.09 386.201,1443.88 396.553,1443.67 406.905,1443.41 417.257,1443.04 427.609,1442.48 437.961,1441.68 448.313,1440.61 458.665,1439.28 469.017,1437.71 479.368,1435.98 489.72,1434.15 500.072,1432.25 510.424,1430.31 520.776,1428.28 531.128,1426.07 541.48,1423.6 551.832,1420.78 562.184,1417.6 572.536,1414.1 582.888,1410.39 593.24,1406.64 603.592,1402.96 613.943,1399.4 624.295,1395.91 634.647,1392.32 644.999,1388.36 655.351,1383.8 665.703,1378.45 676.055,1372.3 686.407,1365.49 696.759,1358.34 707.111,1351.18 717.463,1344.29 727.815,1337.71 738.167,1331.21 748.518,1324.27 758.87,1316.17 769.222,1306.11 779.574,1293.39 789.926,1277.6 800.278,1258.69 810.63,1237.04 820.982,1213.4 831.334,1188.75 841.686,1164.07 852.038,1140.14 862.39,1117.39 872.742,1095.89 883.093,1075.46 893.445,1055.81 903.797,1036.6 914.149,1017.31 924.501,997.093 934.853,974.694 945.205,948.66 955.557,917.785 965.909,881.656 976.261,841.011 986.613,797.692 996.965,754.157 1007.32,712.739 1017.67,674.938 1028.02,641.029 1038.37,610.122 1048.72,580.587 1059.08,550.656 1069.43,518.962 1079.78,484.85 1090.13,448.448 1100.48,410.534 1110.84,372.296 1121.19,335.07 1131.54,300.096 1141.89,268.355 1152.24,240.492 1162.6,216.811 1172.95,197.302 1183.3,181.675 1193.65,169.375 1204,159.619 1214.35,151.429 1224.71,143.732 1235.06,135.535 1245.41,126.202 1255.76,115.746 1266.11,104.998 1276.47,95.5207 1286.82,89.2492 1297.17,87.9763 1307.52,92.8819 1317.87,104.264 1328.23,121.513 1338.58,143.278 1348.93,167.723 1359.28,192.842 1369.63,216.801 1379.99,238.293 1390.34,256.801 1400.69,272.674 1411.04,286.993 1421.39,301.277 1431.75,317.161 1442.1,336.131 1452.45,359.338 1462.8,387.433 1473.15,420.42 1483.5,457.571 1493.86,497.478 1504.21,538.31 1514.56,578.228 1524.91,615.857 1535.26,650.611 1545.62,682.748 1555.97,713.146 1566.32,742.881 1576.67,772.831 1587.02,803.433 1597.38,834.676 1607.73,866.252 1618.08,897.769 1628.43,928.889 1638.78,959.385 1649.14,989.106 1659.49,1017.92 1669.84,1045.69 1680.19,1072.22 1690.54,1097.34 1700.9,1120.97 1711.25,1143.16 1721.6,1164.18 1731.95,1184.4 1742.3,1204.09 1752.65,1223.32 1763.01,1241.83 1773.36,1259.21 1783.71,1275.03 1794.06,1289.08 1804.41,1301.48 1814.77,1312.59 1825.12,1322.91 1835.47,1332.91 1845.82,1342.83 1856.17,1352.68 1866.53,1362.27 1876.88,1371.3 1887.23,1379.54 1897.58,1386.91 1907.93,1393.5 1918.29,1399.44 1928.64,1404.8 1938.99,1409.61 1949.34,1413.82 1959.69,1417.43 1970.05,1420.47 1980.4,1423.05 1990.75,1425.31 2001.1,1427.32 2011.45,1429.12 2021.8,1430.72 2032.16,1432.11 2042.51,1433.32 2052.86,1434.38 2063.21,1435.35 2073.56,1436.25 2083.92,1437.14 2094.27,1438.05 2104.62,1438.99 2114.97,1439.95 2125.32,1440.9 2135.68,1441.81 2146.03,1442.65 2156.38,1443.38 2166.73,1444 2177.08,1444.5 2187.44,1444.9 2197.79,1445.19 2208.14,1445.4 2218.49,1445.54 2228.84,1445.62 2239.2,1445.67 2249.55,1445.7 2259.9,1445.71 2270.25,1445.71 2280.6,1445.71 2290.95,1445.72 "></polyline>
<path clip-path="url(#clip290)" d="M2009.17 198.898 L2279.97 198.898 L2279.97 95.2176 L2009.17 95.2176  Z" fill="#ffffff" fill-rule="evenodd" fill-opacity="1"></path>
<polyline clip-path="url(#clip290)" style="stroke:#000000; stroke-linecap:round; stroke-linejoin:round; stroke-width:4; stroke-opacity:1; fill:none" points="2009.17,198.898 2279.97,198.898 2279.97,95.2176 2009.17,95.2176 2009.17,198.898 "></polyline>
<polyline clip-path="url(#clip290)" style="stroke:#009af9; stroke-linecap:round; stroke-linejoin:round; stroke-width:4; stroke-opacity:1; fill:none" points="2033.44,147.058 2179.01,147.058 "></polyline>
<path clip-path="url(#clip290)" d="M2217.12 166.745 Q2215.31 171.375 2213.6 172.787 Q2211.89 174.199 2209.02 174.199 L2205.61 174.199 L2205.61 170.634 L2208.11 170.634 Q2209.87 170.634 2210.84 169.8 Q2211.82 168.967 2213 165.865 L2213.76 163.921 L2203.28 138.412 L2207.79 138.412 L2215.89 158.689 L2223.99 138.412 L2228.51 138.412 L2217.12 166.745 Z" fill="#000000" fill-rule="nonzero" fill-opacity="1"></path><path clip-path="url(#clip290)" d="M2235.8 160.402 L2243.44 160.402 L2243.44 134.037 L2235.13 135.703 L2235.13 131.444 L2243.39 129.778 L2248.07 129.778 L2248.07 160.402 L2255.71 160.402 L2255.71 164.338 L2235.8 164.338 L2235.8 160.402 Z" fill="#000000" fill-rule="nonzero" fill-opacity="1"></path></svg>