<svg xmlns="http://www.w3.org/2000/svg" xmlns:xlink="http://www.w3.org/1999/xlink" width="600" height="400" viewBox="0 0 2400 1600">
<defs>
  <clipPath id="clip730">
    <rect x="0" y="0" width="2400" height="1600"></rect>
  </clipPath>
</defs>
<path clip-path="url(#clip730)" d="M0 1600 L2400 1600 L2400 8.88178e-14 L0 8.88178e-14  Z" fill="#ffffff" fill-rule="evenodd" fill-opacity="1"></path>
<defs>
  <clipPath id="clip731">
    <rect x="480" y="0" width="1681" height="1600"></rect>
  </clipPath>
</defs>
<path clip-path="url(#clip730)" d="M366.367 1486.45 L2352.76 1486.45 L2352.76 47.2441 L366.367 47.2441  Z" fill="#ffffff" fill-rule="evenodd" fill-opacity="1"></path>
<defs>
  <clipPath id="clip732">
    <rect x="366" y="47" width="1987" height="1440"></rect>
  </clipPath>
</defs>
<polyline clip-path="url(#clip732)" style="stroke:#000000; stroke-linecap:round; stroke-linejoin:round; stroke-width:2; stroke-opacity:0.1; fill:none" points="418.83,1486.45 418.83,47.2441 "></polyline>
<polyline clip-path="url(#clip732)" style="stroke:#000000; stroke-linecap:round; stroke-linejoin:round; stroke-width:2; stroke-opacity:0.1; fill:none" points="794.372,1486.45 794.372,47.2441 "></polyline>
<polyline clip-path="url(#clip732)" style="stroke:#000000; stroke-linecap:round; stroke-linejoin:round; stroke-width:2; stroke-opacity:0.1; fill:none" points="1169.91,1486.45 1169.91,47.2441 "></polyline>
<polyline clip-path="url(#clip732)" style="stroke:#000000; stroke-linecap:round; stroke-linejoin:round; stroke-width:2; stroke-opacity:0.1; fill:none" points="1545.45,1486.45 1545.45,47.2441 "></polyline>
<polyline clip-path="url(#clip732)" style="stroke:#000000; stroke-linecap:round; stroke-linejoin:round; stroke-width:2; stroke-opacity:0.1; fill:none" points="1921,1486.45 1921,47.2441 "></polyline>
<polyline clip-path="url(#clip732)" style="stroke:#000000; stroke-linecap:round; stroke-linejoin:round; stroke-width:2; stroke-opacity:0.1; fill:none" points="2296.54,1486.45 2296.54,47.2441 "></polyline>
<polyline clip-path="url(#clip732)" style="stroke:#000000; stroke-linecap:round; stroke-linejoin:round; stroke-width:2; stroke-opacity:0.1; fill:none" points="366.367,1302.17 2352.76,1302.17 "></polyline>
<polyline clip-path="url(#clip732)" style="stroke:#000000; stroke-linecap:round; stroke-linejoin:round; stroke-width:2; stroke-opacity:0.1; fill:none" points="366.367,998.622 2352.76,998.622 "></polyline>
<polyline clip-path="url(#clip732)" style="stroke:#000000; stroke-linecap:round; stroke-linejoin:round; stroke-width:2; stroke-opacity:0.1; fill:none" points="366.367,695.073 2352.76,695.073 "></polyline>
<polyline clip-path="url(#clip732)" style="stroke:#000000; stroke-linecap:round; stroke-linejoin:round; stroke-width:2; stroke-opacity:0.1; fill:none" points="366.367,391.525 2352.76,391.525 "></polyline>
<polyline clip-path="url(#clip732)" style="stroke:#000000; stroke-linecap:round; stroke-linejoin:round; stroke-width:2; stroke-opacity:0.1; fill:none" points="366.367,87.9763 2352.76,87.9763 "></polyline>
<polyline clip-path="url(#clip730)" style="stroke:#000000; stroke-linecap:round; stroke-linejoin:round; stroke-width:4; stroke-opacity:1; fill:none" points="366.367,1486.45 2352.76,1486.45 "></polyline>
<polyline clip-path="url(#clip730)" style="stroke:#000000; stroke-linecap:round; stroke-linejoin:round; stroke-width:4; stroke-opacity:1; fill:none" points="418.83,1486.45 418.83,1467.55 "></polyline>
<polyline clip-path="url(#clip730)" style="stroke:#000000; stroke-linecap:round; stroke-linejoin:round; stroke-width:4; stroke-opacity:1; fill:none" points="794.372,1486.45 794.372,1467.55 "></polyline>
<polyline clip-path="url(#clip730)" style="stroke:#000000; stroke-linecap:round; stroke-linejoin:round; stroke-width:4; stroke-opacity:1; fill:none" points="1169.91,1486.45 1169.91,1467.55 "></polyline>
<polyline clip-path="url(#clip730)" style="stroke:#000000; stroke-linecap:round; stroke-linejoin:round; stroke-width:4; stroke-opacity:1; fill:none" points="1545.45,1486.45 1545.45,1467.55 "></polyline>
<polyline clip-path="url(#clip730)" style="stroke:#000000; stroke-linecap:round; stroke-linejoin:round; stroke-width:4; stroke-opacity:1; fill:none" points="1921,1486.45 1921,1467.55 "></polyline>
<polyline clip-path="url(#clip730)" style="stroke:#000000; stroke-linecap:round; stroke-linejoin:round; stroke-width:4; stroke-opacity:1; fill:none" points="2296.54,1486.45 2296.54,1467.55 "></polyline>
<path clip-path="url(#clip730)" d="M418.83 1517.37 Q415.219 1517.37 413.39 1520.93 Q411.585 1524.47 411.585 1531.6 Q411.585 1538.71 413.39 1542.27 Q415.219 1545.82 418.83 1545.82 Q422.464 1545.82 424.27 1542.27 Q426.099 1538.71 426.099 1531.6 Q426.099 1524.47 424.27 1520.93 Q422.464 1517.37 418.83 1517.37 M418.83 1513.66 Q424.64 1513.66 427.696 1518.27 Q430.775 1522.85 430.775 1531.6 Q430.775 1540.33 427.696 1544.94 Q424.64 1549.52 418.83 1549.52 Q413.02 1549.52 409.941 1544.94 Q406.886 1540.33 406.886 1531.6 Q406.886 1522.85 409.941 1518.27 Q413.02 1513.66 418.83 1513.66 Z" fill="#000000" fill-rule="nonzero" fill-opacity="1"></path><path clip-path="url(#clip730)" d="M753.978 1544.91 L761.617 1544.91 L761.617 1518.55 L753.307 1520.21 L753.307 1515.95 L761.571 1514.29 L766.247 1514.29 L766.247 1544.91 L773.886 1544.91 L773.886 1548.85 L753.978 1548.85 L753.978 1544.91 Z" fill="#000000" fill-rule="nonzero" fill-opacity="1"></path><path clip-path="url(#clip730)" d="M793.33 1517.37 Q789.719 1517.37 787.89 1520.93 Q786.085 1524.47 786.085 1531.6 Q786.085 1538.71 787.89 1542.27 Q789.719 1545.82 793.33 1545.82 Q796.964 1545.82 798.77 1542.27 Q800.598 1538.71 800.598 1531.6 Q800.598 1524.47 798.77 1520.93 Q796.964 1517.37 793.33 1517.37 M793.33 1513.66 Q799.14 1513.66 802.196 1518.27 Q805.274 1522.85 805.274 1531.6 Q805.274 1540.33 802.196 1544.94 Q799.14 1549.52 793.33 1549.52 Q787.52 1549.52 784.441 1544.94 Q781.386 1540.33 781.386 1531.6 Q781.386 1522.85 784.441 1518.27 Q787.52 1513.66 793.33 1513.66 Z" fill="#000000" fill-rule="nonzero" fill-opacity="1"></path><path clip-path="url(#clip730)" d="M823.492 1517.37 Q819.881 1517.37 818.052 1520.93 Q816.247 1524.47 816.247 1531.6 Q816.247 1538.71 818.052 1542.27 Q819.881 1545.82 823.492 1545.82 Q827.126 1545.82 828.932 1542.27 Q830.76 1538.71 830.76 1531.6 Q830.76 1524.47 828.932 1520.93 Q827.126 1517.37 823.492 1517.37 M823.492 1513.66 Q829.302 1513.66 832.358 1518.27 Q835.436 1522.85 835.436 1531.6 Q835.436 1540.33 832.358 1544.94 Q829.302 1549.52 823.492 1549.52 Q817.682 1549.52 814.603 1544.94 Q811.547 1540.33 811.547 1531.6 Q811.547 1522.85 814.603 1518.27 Q817.682 1513.66 823.492 1513.66 Z" fill="#000000" fill-rule="nonzero" fill-opacity="1"></path><path clip-path="url(#clip730)" d="M1133.61 1544.91 L1149.92 1544.91 L1149.92 1548.85 L1127.98 1548.85 L1127.98 1544.91 Q1130.64 1542.16 1135.23 1537.53 Q1139.83 1532.88 1141.01 1531.53 Q1143.26 1529.01 1144.14 1527.27 Q1145.04 1525.51 1145.04 1523.82 Q1145.04 1521.07 1143.1 1519.33 Q1141.17 1517.6 1138.07 1517.6 Q1135.87 1517.6 1133.42 1518.36 Q1130.99 1519.13 1128.21 1520.68 L1128.21 1515.95 Q1131.04 1514.82 1133.49 1514.24 Q1135.94 1513.66 1137.98 1513.66 Q1143.35 1513.66 1146.55 1516.35 Q1149.74 1519.03 1149.74 1523.52 Q1149.74 1525.65 1148.93 1527.57 Q1148.14 1529.47 1146.04 1532.07 Q1145.46 1532.74 1142.36 1535.95 Q1139.25 1539.15 1133.61 1544.91 Z" fill="#000000" fill-rule="nonzero" fill-opacity="1"></path><path clip-path="url(#clip730)" d="M1169.74 1517.37 Q1166.13 1517.37 1164.3 1520.93 Q1162.49 1524.47 1162.49 1531.6 Q1162.49 1538.71 1164.3 1542.27 Q1166.13 1545.82 1169.74 1545.82 Q1173.37 1545.82 1175.18 1542.27 Q1177.01 1538.71 1177.01 1531.6 Q1177.01 1524.47 1175.18 1520.93 Q1173.37 1517.37 1169.74 1517.37 M1169.74 1513.66 Q1175.55 1513.66 1178.61 1518.27 Q1181.68 1522.85 1181.68 1531.6 Q1181.68 1540.33 1178.61 1544.94 Q1175.55 1549.52 1169.74 1549.52 Q1163.93 1549.52 1160.85 1544.94 Q1157.8 1540.33 1157.8 1531.6 Q1157.8 1522.85 1160.85 1518.27 Q1163.93 1513.66 1169.74 1513.66 Z" fill="#000000" fill-rule="nonzero" fill-opacity="1"></path><path clip-path="url(#clip730)" d="M1199.9 1517.37 Q1196.29 1517.37 1194.46 1520.93 Q1192.66 1524.47 1192.66 1531.6 Q1192.66 1538.71 1194.46 1542.27 Q1196.29 1545.82 1199.9 1545.82 Q1203.54 1545.82 1205.34 1542.27 Q1207.17 1538.71 1207.17 1531.6 Q1207.17 1524.47 1205.34 1520.93 Q1203.54 1517.37 1199.9 1517.37 M1199.9 1513.66 Q1205.71 1513.66 1208.77 1518.27 Q1211.85 1522.85 1211.85 1531.6 Q1211.85 1540.33 1208.77 1544.94 Q1205.71 1549.52 1199.9 1549.52 Q1194.09 1549.52 1191.01 1544.94 Q1187.96 1540.33 1187.96 1531.6 Q1187.96 1522.85 1191.01 1518.27 Q1194.09 1513.66 1199.9 1513.66 Z" fill="#000000" fill-rule="nonzero" fill-opacity="1"></path><path clip-path="url(#clip730)" d="M1519.22 1530.21 Q1522.57 1530.93 1524.45 1533.2 Q1526.35 1535.47 1526.35 1538.8 Q1526.35 1543.92 1522.83 1546.72 Q1519.31 1549.52 1512.83 1549.52 Q1510.65 1549.52 1508.34 1549.08 Q1506.04 1548.66 1503.59 1547.81 L1503.59 1543.29 Q1505.54 1544.43 1507.85 1545.01 Q1510.17 1545.58 1512.69 1545.58 Q1517.09 1545.58 1519.38 1543.85 Q1521.69 1542.11 1521.69 1538.8 Q1521.69 1535.75 1519.54 1534.03 Q1517.41 1532.3 1513.59 1532.3 L1509.56 1532.3 L1509.56 1528.45 L1513.78 1528.45 Q1517.23 1528.45 1519.05 1527.09 Q1520.88 1525.7 1520.88 1523.11 Q1520.88 1520.45 1518.98 1519.03 Q1517.11 1517.6 1513.59 1517.6 Q1511.67 1517.6 1509.47 1518.01 Q1507.27 1518.43 1504.63 1519.31 L1504.63 1515.14 Q1507.29 1514.4 1509.61 1514.03 Q1511.95 1513.66 1514.01 1513.66 Q1519.33 1513.66 1522.43 1516.09 Q1525.54 1518.5 1525.54 1522.62 Q1525.54 1525.49 1523.89 1527.48 Q1522.25 1529.45 1519.22 1530.21 Z" fill="#000000" fill-rule="nonzero" fill-opacity="1"></path><path clip-path="url(#clip730)" d="M1545.21 1517.37 Q1541.6 1517.37 1539.77 1520.93 Q1537.97 1524.47 1537.97 1531.6 Q1537.97 1538.71 1539.77 1542.27 Q1541.6 1545.82 1545.21 1545.82 Q1548.85 1545.82 1550.65 1542.27 Q1552.48 1538.71 1552.48 1531.6 Q1552.48 1524.47 1550.65 1520.93 Q1548.85 1517.37 1545.21 1517.37 M1545.21 1513.66 Q1551.02 1513.66 1554.08 1518.27 Q1557.16 1522.85 1557.16 1531.6 Q1557.16 1540.33 1554.08 1544.94 Q1551.02 1549.52 1545.21 1549.52 Q1539.4 1549.52 1536.32 1544.94 Q1533.27 1540.33 1533.27 1531.6 Q1533.27 1522.85 1536.32 1518.27 Q1539.4 1513.66 1545.21 1513.66 Z" fill="#000000" fill-rule="nonzero" fill-opacity="1"></path><path clip-path="url(#clip730)" d="M1575.37 1517.37 Q1571.76 1517.37 1569.93 1520.93 Q1568.13 1524.47 1568.13 1531.6 Q1568.13 1538.71 1569.93 1542.27 Q1571.76 1545.82 1575.37 1545.82 Q1579.01 1545.82 1580.81 1542.27 Q1582.64 1538.71 1582.64 1531.6 Q1582.64 1524.47 1580.81 1520.93 Q1579.01 1517.37 1575.37 1517.37 M1575.37 1513.66 Q1581.18 1513.66 1584.24 1518.27 Q1587.32 1522.85 1587.32 1531.6 Q1587.32 1540.33 1584.24 1544.94 Q1581.18 1549.52 1575.37 1549.52 Q1569.56 1549.52 1566.48 1544.94 Q1563.43 1540.33 1563.43 1531.6 Q1563.43 1522.85 1566.48 1518.27 Q1569.56 1513.66 1575.37 1513.66 Z" fill="#000000" fill-rule="nonzero" fill-opacity="1"></path><path clip-path="url(#clip730)" d="M1894.09 1518.36 L1882.28 1536.81 L1894.09 1536.81 L1894.09 1518.36 M1892.86 1514.29 L1898.74 1514.29 L1898.74 1536.81 L1903.67 1536.81 L1903.67 1540.7 L1898.74 1540.7 L1898.74 1548.85 L1894.09 1548.85 L1894.09 1540.7 L1878.48 1540.7 L1878.48 1536.19 L1892.86 1514.29 Z" fill="#000000" fill-rule="nonzero" fill-opacity="1"></path><path clip-path="url(#clip730)" d="M1921.4 1517.37 Q1917.79 1517.37 1915.96 1520.93 Q1914.16 1524.47 1914.16 1531.6 Q1914.16 1538.71 1915.96 1542.27 Q1917.79 1545.82 1921.4 1545.82 Q1925.04 1545.82 1926.84 1542.27 Q1928.67 1538.71 1928.67 1531.6 Q1928.67 1524.47 1926.84 1520.93 Q1925.04 1517.37 1921.4 1517.37 M1921.4 1513.66 Q1927.21 1513.66 1930.27 1518.27 Q1933.35 1522.85 1933.35 1531.6 Q1933.35 1540.33 1930.27 1544.94 Q1927.21 1549.52 1921.4 1549.52 Q1915.59 1549.52 1912.51 1544.94 Q1909.46 1540.33 1909.46 1531.6 Q1909.46 1522.85 1912.51 1518.27 Q1915.59 1513.66 1921.4 1513.66 Z" fill="#000000" fill-rule="nonzero" fill-opacity="1"></path><path clip-path="url(#clip730)" d="M1951.56 1517.37 Q1947.95 1517.37 1946.12 1520.93 Q1944.32 1524.47 1944.32 1531.6 Q1944.32 1538.71 1946.12 1542.27 Q1947.95 1545.82 1951.56 1545.82 Q1955.2 1545.82 1957 1542.27 Q1958.83 1538.71 1958.83 1531.6 Q1958.83 1524.47 1957 1520.93 Q1955.2 1517.37 1951.56 1517.37 M1951.56 1513.66 Q1957.37 1513.66 1960.43 1518.27 Q1963.51 1522.85 1963.51 1531.6 Q1963.51 1540.33 1960.43 1544.94 Q1957.37 1549.52 1951.56 1549.52 Q1945.75 1549.52 1942.67 1544.94 Q1939.62 1540.33 1939.62 1531.6 Q1939.62 1522.85 1942.67 1518.27 Q1945.75 1513.66 1951.56 1513.66 Z" fill="#000000" fill-rule="nonzero" fill-opacity="1"></path><path clip-path="url(#clip730)" d="M2256.16 1514.29 L2274.51 1514.29 L2274.51 1518.22 L2260.44 1518.22 L2260.44 1526.7 Q2261.46 1526.35 2262.48 1526.19 Q2263.49 1526 2264.51 1526 Q2270.3 1526 2273.68 1529.17 Q2277.06 1532.34 2277.06 1537.76 Q2277.06 1543.34 2273.59 1546.44 Q2270.11 1549.52 2263.79 1549.52 Q2261.62 1549.52 2259.35 1549.15 Q2257.1 1548.78 2254.7 1548.04 L2254.7 1543.34 Q2256.78 1544.47 2259 1545.03 Q2261.23 1545.58 2263.7 1545.58 Q2267.71 1545.58 2270.04 1543.48 Q2272.38 1541.37 2272.38 1537.76 Q2272.38 1534.15 2270.04 1532.04 Q2267.71 1529.94 2263.7 1529.94 Q2261.83 1529.94 2259.95 1530.35 Q2258.1 1530.77 2256.16 1531.65 L2256.16 1514.29 Z" fill="#000000" fill-rule="nonzero" fill-opacity="1"></path><path clip-path="url(#clip730)" d="M2296.27 1517.37 Q2292.66 1517.37 2290.83 1520.93 Q2289.03 1524.47 2289.03 1531.6 Q2289.03 1538.71 2290.83 1542.27 Q2292.66 1545.82 2296.27 1545.82 Q2299.91 1545.82 2301.71 1542.27 Q2303.54 1538.71 2303.54 1531.6 Q2303.54 1524.47 2301.71 1520.93 Q2299.91 1517.37 2296.27 1517.37 M2296.27 1513.66 Q2302.08 1513.66 2305.14 1518.27 Q2308.22 1522.85 2308.22 1531.6 Q2308.22 1540.33 2305.14 1544.94 Q2302.08 1549.52 2296.27 1549.52 Q2290.46 1549.52 2287.38 1544.94 Q2284.33 1540.33 2284.33 1531.6 Q2284.33 1522.85 2287.38 1518.27 Q2290.46 1513.66 2296.27 1513.66 Z" fill="#000000" fill-rule="nonzero" fill-opacity="1"></path><path clip-path="url(#clip730)" d="M2326.43 1517.37 Q2322.82 1517.37 2320.99 1520.93 Q2319.19 1524.47 2319.19 1531.6 Q2319.19 1538.71 2320.99 1542.27 Q2322.82 1545.82 2326.43 1545.82 Q2330.07 1545.82 2331.87 1542.27 Q2333.7 1538.71 2333.7 1531.6 Q2333.7 1524.47 2331.87 1520.93 Q2330.07 1517.37 2326.43 1517.37 M2326.43 1513.66 Q2332.24 1513.66 2335.3 1518.27 Q2338.38 1522.85 2338.38 1531.6 Q2338.38 1540.33 2335.3 1544.94 Q2332.24 1549.52 2326.43 1549.52 Q2320.62 1549.52 2317.54 1544.94 Q2314.49 1540.33 2314.49 1531.6 Q2314.49 1522.85 2317.54 1518.27 Q2320.62 1513.66 2326.43 1513.66 Z" fill="#000000" fill-rule="nonzero" fill-opacity="1"></path><polyline clip-path="url(#clip730)" style="stroke:#000000; stroke-linecap:round; stroke-linejoin:round; stroke-width:4; stroke-opacity:1; fill:none" points="366.367,1486.45 366.367,47.2441 "></polyline>
<polyline clip-path="url(#clip730)" style="stroke:#000000; stroke-linecap:round; stroke-linejoin:round; stroke-width:4; stroke-opacity:1; fill:none" points="366.367,1302.17 385.265,1302.17 "></polyline>
<polyline clip-path="url(#clip730)" style="stroke:#000000; stroke-linecap:round; stroke-linejoin:round; stroke-width:4; stroke-opacity:1; fill:none" points="366.367,998.622 385.265,998.622 "></polyline>
<polyline clip-path="url(#clip730)" style="stroke:#000000; stroke-linecap:round; stroke-linejoin:round; stroke-width:4; stroke-opacity:1; fill:none" points="366.367,695.073 385.265,695.073 "></polyline>
<polyline clip-path="url(#clip730)" style="stroke:#000000; stroke-linecap:round; stroke-linejoin:round; stroke-width:4; stroke-opacity:1; fill:none" points="366.367,391.525 385.265,391.525 "></polyline>
<polyline clip-path="url(#clip730)" style="stroke:#000000; stroke-linecap:round; stroke-linejoin:round; stroke-width:4; stroke-opacity:1; fill:none" points="366.367,87.9763 385.265,87.9763 "></polyline>
<path clip-path="url(#clip730)" d="M51.9889 1309.07 L81.6647 1309.07 L81.6647 1313 L51.9889 1313 L51.9889 1309.07 Z" fill="#000000" fill-rule="nonzero" fill-opacity="1"></path><path clip-path="url(#clip730)" d="M92.5674 1321.96 L100.206 1321.96 L100.206 1295.6 L91.8961 1297.26 L91.8961 1293 L100.16 1291.34 L104.836 1291.34 L104.836 1321.96 L112.475 1321.96 L112.475 1325.9 L92.5674 1325.9 L92.5674 1321.96 Z" fill="#000000" fill-rule="nonzero" fill-opacity="1"></path><path clip-path="url(#clip730)" d="M121.919 1320.02 L126.803 1320.02 L126.803 1325.9 L121.919 1325.9 L121.919 1320.02 Z" fill="#000000" fill-rule="nonzero" fill-opacity="1"></path><path clip-path="url(#clip730)" d="M146.988 1294.42 Q143.377 1294.42 141.549 1297.98 Q139.743 1301.52 139.743 1308.65 Q139.743 1315.76 141.549 1319.32 Q143.377 1322.87 146.988 1322.87 Q150.623 1322.87 152.428 1319.32 Q154.257 1315.76 154.257 1308.65 Q154.257 1301.52 152.428 1297.98 Q150.623 1294.42 146.988 1294.42 M146.988 1290.71 Q152.799 1290.71 155.854 1295.32 Q158.933 1299.9 158.933 1308.65 Q158.933 1317.38 155.854 1321.99 Q152.799 1326.57 146.988 1326.57 Q141.178 1326.57 138.1 1321.99 Q135.044 1317.38 135.044 1308.65 Q135.044 1299.9 138.1 1295.32 Q141.178 1290.71 146.988 1290.71 Z" fill="#000000" fill-rule="nonzero" fill-opacity="1"></path><path clip-path="url(#clip730)" d="M177.15 1294.42 Q173.539 1294.42 171.711 1297.98 Q169.905 1301.52 169.905 1308.65 Q169.905 1315.76 171.711 1319.32 Q173.539 1322.87 177.15 1322.87 Q180.785 1322.87 182.59 1319.32 Q184.419 1315.76 184.419 1308.65 Q184.419 1301.52 182.59 1297.98 Q180.785 1294.42 177.15 1294.42 M177.15 1290.71 Q182.96 1290.71 186.016 1295.32 Q189.095 1299.9 189.095 1308.65 Q189.095 1317.38 186.016 1321.99 Q182.96 1326.57 177.15 1326.57 Q171.34 1326.57 168.261 1321.99 Q165.206 1317.38 165.206 1308.65 Q165.206 1299.9 168.261 1295.32 Q171.34 1290.71 177.15 1290.71 Z" fill="#000000" fill-rule="nonzero" fill-opacity="1"></path><path clip-path="url(#clip730)" d="M225.483 1300.44 L214.905 1311.06 L225.483 1321.64 L222.729 1324.44 L212.104 1313.81 L201.479 1324.44 L198.747 1321.64 L209.303 1311.06 L198.747 1300.44 L201.479 1297.63 L212.104 1308.26 L222.729 1297.63 L225.483 1300.44 Z" fill="#000000" fill-rule="nonzero" fill-opacity="1"></path><path clip-path="url(#clip730)" d="M237.844 1321.96 L245.483 1321.96 L245.483 1295.6 L237.173 1297.26 L237.173 1293 L245.437 1291.34 L250.113 1291.34 L250.113 1321.96 L257.752 1321.96 L257.752 1325.9 L237.844 1325.9 L237.844 1321.96 Z" fill="#000000" fill-rule="nonzero" fill-opacity="1"></path><path clip-path="url(#clip730)" d="M277.196 1294.42 Q273.585 1294.42 271.756 1297.98 Q269.951 1301.52 269.951 1308.65 Q269.951 1315.76 271.756 1319.32 Q273.585 1322.87 277.196 1322.87 Q280.83 1322.87 282.636 1319.32 Q284.465 1315.76 284.465 1308.65 Q284.465 1301.52 282.636 1297.98 Q280.83 1294.42 277.196 1294.42 M277.196 1290.71 Q283.006 1290.71 286.062 1295.32 Q289.14 1299.9 289.14 1308.65 Q289.14 1317.38 286.062 1321.99 Q283.006 1326.57 277.196 1326.57 Q271.386 1326.57 268.307 1321.99 Q265.252 1317.38 265.252 1308.65 Q265.252 1299.9 268.307 1295.32 Q271.386 1290.71 277.196 1290.71 Z" fill="#000000" fill-rule="nonzero" fill-opacity="1"></path><path clip-path="url(#clip730)" d="M289.686 1295.29 L295.892 1295.29 L295.892 1273.87 L289.14 1275.22 L289.14 1271.76 L295.855 1270.41 L299.654 1270.41 L299.654 1295.29 L305.861 1295.29 L305.861 1298.49 L289.686 1298.49 L289.686 1295.29 Z" fill="#000000" fill-rule="nonzero" fill-opacity="1"></path><path clip-path="url(#clip730)" d="M314.192 1295.29 L320.399 1295.29 L320.399 1273.87 L313.647 1275.22 L313.647 1271.76 L320.361 1270.41 L324.161 1270.41 L324.161 1295.29 L330.367 1295.29 L330.367 1298.49 L314.192 1298.49 L314.192 1295.29 Z" fill="#000000" fill-rule="nonzero" fill-opacity="1"></path><path clip-path="url(#clip730)" d="M50.9921 1005.52 L80.6679 1005.52 L80.6679 1009.46 L50.9921 1009.46 L50.9921 1005.52 Z" fill="#000000" fill-rule="nonzero" fill-opacity="1"></path><path clip-path="url(#clip730)" d="M89.5799 987.79 L111.802 987.79 L111.802 989.78 L99.2558 1022.35 L94.3715 1022.35 L106.177 991.725 L89.5799 991.725 L89.5799 987.79 Z" fill="#000000" fill-rule="nonzero" fill-opacity="1"></path><path clip-path="url(#clip730)" d="M120.922 1016.47 L125.807 1016.47 L125.807 1022.35 L120.922 1022.35 L120.922 1016.47 Z" fill="#000000" fill-rule="nonzero" fill-opacity="1"></path><path clip-path="url(#clip730)" d="M136.038 987.79 L154.394 987.79 L154.394 991.725 L140.32 991.725 L140.32 1000.2 Q141.339 999.85 142.357 999.688 Q143.376 999.503 144.394 999.503 Q150.181 999.503 153.561 1002.67 Q156.941 1005.85 156.941 1011.26 Q156.941 1016.84 153.468 1019.94 Q149.996 1023.02 143.677 1023.02 Q141.501 1023.02 139.232 1022.65 Q136.987 1022.28 134.58 1021.54 L134.58 1016.84 Q136.663 1017.97 138.885 1018.53 Q141.107 1019.09 143.584 1019.09 Q147.589 1019.09 149.927 1016.98 Q152.265 1014.87 152.265 1011.26 Q152.265 1007.65 149.927 1005.54 Q147.589 1003.44 143.584 1003.44 Q141.709 1003.44 139.834 1003.85 Q137.982 1004.27 136.038 1005.15 L136.038 987.79 Z" fill="#000000" fill-rule="nonzero" fill-opacity="1"></path><path clip-path="url(#clip730)" d="M176.153 990.868 Q172.542 990.868 170.714 994.433 Q168.908 997.975 168.908 1005.1 Q168.908 1012.21 170.714 1015.78 Q172.542 1019.32 176.153 1019.32 Q179.788 1019.32 181.593 1015.78 Q183.422 1012.21 183.422 1005.1 Q183.422 997.975 181.593 994.433 Q179.788 990.868 176.153 990.868 M176.153 987.165 Q181.964 987.165 185.019 991.771 Q188.098 996.354 188.098 1005.1 Q188.098 1013.83 185.019 1018.44 Q181.964 1023.02 176.153 1023.02 Q170.343 1023.02 167.265 1018.44 Q164.209 1013.83 164.209 1005.1 Q164.209 996.354 167.265 991.771 Q170.343 987.165 176.153 987.165 Z" fill="#000000" fill-rule="nonzero" fill-opacity="1"></path><path clip-path="url(#clip730)" d="M224.487 996.887 L213.908 1007.51 L224.487 1018.09 L221.732 1020.89 L211.107 1010.27 L200.482 1020.89 L197.751 1018.09 L208.306 1007.51 L197.751 996.887 L200.482 994.086 L211.107 1004.71 L221.732 994.086 L224.487 996.887 Z" fill="#000000" fill-rule="nonzero" fill-opacity="1"></path><path clip-path="url(#clip730)" d="M236.848 1018.41 L244.486 1018.41 L244.486 992.049 L236.176 993.716 L236.176 989.456 L244.44 987.79 L249.116 987.79 L249.116 1018.41 L256.755 1018.41 L256.755 1022.35 L236.848 1022.35 L236.848 1018.41 Z" fill="#000000" fill-rule="nonzero" fill-opacity="1"></path><path clip-path="url(#clip730)" d="M276.199 990.868 Q272.588 990.868 270.759 994.433 Q268.954 997.975 268.954 1005.1 Q268.954 1012.21 270.759 1015.78 Q272.588 1019.32 276.199 1019.32 Q279.833 1019.32 281.639 1015.78 Q283.468 1012.21 283.468 1005.1 Q283.468 997.975 281.639 994.433 Q279.833 990.868 276.199 990.868 M276.199 987.165 Q282.009 987.165 285.065 991.771 Q288.144 996.354 288.144 1005.1 Q288.144 1013.83 285.065 1018.44 Q282.009 1023.02 276.199 1023.02 Q270.389 1023.02 267.31 1018.44 Q264.255 1013.83 264.255 1005.1 Q264.255 996.354 267.31 991.771 Q270.389 987.165 276.199 987.165 Z" fill="#000000" fill-rule="nonzero" fill-opacity="1"></path><path clip-path="url(#clip730)" d="M288.689 991.742 L294.896 991.742 L294.896 970.32 L288.144 971.674 L288.144 968.213 L294.858 966.859 L298.657 966.859 L298.657 991.742 L304.864 991.742 L304.864 994.939 L288.689 994.939 L288.689 991.742 Z" fill="#000000" fill-rule="nonzero" fill-opacity="1"></path><path clip-path="url(#clip730)" d="M320.662 969.361 Q317.728 969.361 316.242 972.257 Q314.775 975.135 314.775 980.927 Q314.775 986.701 316.242 989.598 Q317.728 992.475 320.662 992.475 Q323.615 992.475 325.082 989.598 Q326.568 986.701 326.568 980.927 Q326.568 975.135 325.082 972.257 Q323.615 969.361 320.662 969.361 M320.662 966.351 Q325.383 966.351 327.866 970.094 Q330.367 973.818 330.367 980.927 Q330.367 988.018 327.866 991.761 Q325.383 995.485 320.662 995.485 Q315.942 995.485 313.44 991.761 Q310.957 988.018 310.957 980.927 Q310.957 973.818 313.44 970.094 Q315.942 966.351 320.662 966.351 Z" fill="#000000" fill-rule="nonzero" fill-opacity="1"></path><path clip-path="url(#clip730)" d="M50.9921 701.972 L80.6679 701.972 L80.6679 705.908 L50.9921 705.908 L50.9921 701.972 Z" fill="#000000" fill-rule="nonzero" fill-opacity="1"></path><path clip-path="url(#clip730)" d="M90.8067 684.241 L109.163 684.241 L109.163 688.176 L95.0891 688.176 L95.0891 696.648 Q96.1076 696.301 97.1261 696.139 Q98.1447 695.954 99.1632 695.954 Q104.95 695.954 108.33 699.125 Q111.709 702.296 111.709 707.713 Q111.709 713.292 108.237 716.394 Q104.765 719.472 98.4456 719.472 Q96.2697 719.472 94.0012 719.102 Q91.7558 718.732 89.3484 717.991 L89.3484 713.292 Q91.4317 714.426 93.6539 714.982 Q95.8761 715.537 98.353 715.537 Q102.358 715.537 104.696 713.431 Q107.033 711.324 107.033 707.713 Q107.033 704.102 104.696 701.996 Q102.358 699.889 98.353 699.889 Q96.478 699.889 94.603 700.306 Q92.7512 700.722 90.8067 701.602 L90.8067 684.241 Z" fill="#000000" fill-rule="nonzero" fill-opacity="1"></path><path clip-path="url(#clip730)" d="M120.922 712.921 L125.807 712.921 L125.807 718.801 L120.922 718.801 L120.922 712.921 Z" fill="#000000" fill-rule="nonzero" fill-opacity="1"></path><path clip-path="url(#clip730)" d="M145.992 687.32 Q142.381 687.32 140.552 690.885 Q138.746 694.426 138.746 701.556 Q138.746 708.662 140.552 712.227 Q142.381 715.769 145.992 715.769 Q149.626 715.769 151.431 712.227 Q153.26 708.662 153.26 701.556 Q153.26 694.426 151.431 690.885 Q149.626 687.32 145.992 687.32 M145.992 683.616 Q151.802 683.616 154.857 688.223 Q157.936 692.806 157.936 701.556 Q157.936 710.283 154.857 714.889 Q151.802 719.472 145.992 719.472 Q140.181 719.472 137.103 714.889 Q134.047 710.283 134.047 701.556 Q134.047 692.806 137.103 688.223 Q140.181 683.616 145.992 683.616 Z" fill="#000000" fill-rule="nonzero" fill-opacity="1"></path><path clip-path="url(#clip730)" d="M176.153 687.32 Q172.542 687.32 170.714 690.885 Q168.908 694.426 168.908 701.556 Q168.908 708.662 170.714 712.227 Q172.542 715.769 176.153 715.769 Q179.788 715.769 181.593 712.227 Q183.422 708.662 183.422 701.556 Q183.422 694.426 181.593 690.885 Q179.788 687.32 176.153 687.32 M176.153 683.616 Q181.964 683.616 185.019 688.223 Q188.098 692.806 188.098 701.556 Q188.098 710.283 185.019 714.889 Q181.964 719.472 176.153 719.472 Q170.343 719.472 167.265 714.889 Q164.209 710.283 164.209 701.556 Q164.209 692.806 167.265 688.223 Q170.343 683.616 176.153 683.616 Z" fill="#000000" fill-rule="nonzero" fill-opacity="1"></path><path clip-path="url(#clip730)" d="M224.487 693.338 L213.908 703.963 L224.487 714.542 L221.732 717.343 L211.107 706.718 L200.482 717.343 L197.751 714.542 L208.306 703.963 L197.751 693.338 L200.482 690.537 L211.107 701.162 L221.732 690.537 L224.487 693.338 Z" fill="#000000" fill-rule="nonzero" fill-opacity="1"></path><path clip-path="url(#clip730)" d="M236.848 714.866 L244.486 714.866 L244.486 688.5 L236.176 690.167 L236.176 685.908 L244.44 684.241 L249.116 684.241 L249.116 714.866 L256.755 714.866 L256.755 718.801 L236.848 718.801 L236.848 714.866 Z" fill="#000000" fill-rule="nonzero" fill-opacity="1"></path><path clip-path="url(#clip730)" d="M276.199 687.32 Q272.588 687.32 270.759 690.885 Q268.954 694.426 268.954 701.556 Q268.954 708.662 270.759 712.227 Q272.588 715.769 276.199 715.769 Q279.833 715.769 281.639 712.227 Q283.468 708.662 283.468 701.556 Q283.468 694.426 281.639 690.885 Q279.833 687.32 276.199 687.32 M276.199 683.616 Q282.009 683.616 285.065 688.223 Q288.144 692.806 288.144 701.556 Q288.144 710.283 285.065 714.889 Q282.009 719.472 276.199 719.472 Q270.389 719.472 267.31 714.889 Q264.255 710.283 264.255 701.556 Q264.255 692.806 267.31 688.223 Q270.389 683.616 276.199 683.616 Z" fill="#000000" fill-rule="nonzero" fill-opacity="1"></path><path clip-path="url(#clip730)" d="M288.689 688.193 L294.896 688.193 L294.896 666.771 L288.144 668.125 L288.144 664.665 L294.858 663.311 L298.657 663.311 L298.657 688.193 L304.864 688.193 L304.864 691.391 L288.689 691.391 L288.689 688.193 Z" fill="#000000" fill-rule="nonzero" fill-opacity="1"></path><path clip-path="url(#clip730)" d="M320.662 665.812 Q317.728 665.812 316.242 668.708 Q314.775 671.586 314.775 677.379 Q314.775 683.153 316.242 686.049 Q317.728 688.927 320.662 688.927 Q323.615 688.927 325.082 686.049 Q326.568 683.153 326.568 677.379 Q326.568 671.586 325.082 668.708 Q323.615 665.812 320.662 665.812 M320.662 662.803 Q325.383 662.803 327.866 666.546 Q330.367 670.27 330.367 677.379 Q330.367 684.469 327.866 688.212 Q325.383 691.936 320.662 691.936 Q315.942 691.936 313.44 688.212 Q310.957 684.469 310.957 677.379 Q310.957 670.27 313.44 666.546 Q315.942 662.803 320.662 662.803 Z" fill="#000000" fill-rule="nonzero" fill-opacity="1"></path><path clip-path="url(#clip730)" d="M50.9921 398.424 L80.6679 398.424 L80.6679 402.359 L50.9921 402.359 L50.9921 398.424 Z" fill="#000000" fill-rule="nonzero" fill-opacity="1"></path><path clip-path="url(#clip730)" d="M94.7882 411.317 L111.108 411.317 L111.108 415.252 L89.1632 415.252 L89.1632 411.317 Q91.8252 408.563 96.4085 403.933 Q101.015 399.28 102.196 397.938 Q104.441 395.415 105.321 393.678 Q106.223 391.919 106.223 390.229 Q106.223 387.475 104.279 385.739 Q102.358 384.003 99.2558 384.003 Q97.0567 384.003 94.603 384.767 Q92.1725 385.53 89.3947 387.081 L89.3947 382.359 Q92.2188 381.225 94.6724 380.646 Q97.1261 380.067 99.1632 380.067 Q104.534 380.067 107.728 382.753 Q110.922 385.438 110.922 389.929 Q110.922 392.058 110.112 393.979 Q109.325 395.878 107.219 398.47 Q106.64 399.141 103.538 402.359 Q100.436 405.553 94.7882 411.317 Z" fill="#000000" fill-rule="nonzero" fill-opacity="1"></path><path clip-path="url(#clip730)" d="M120.922 409.373 L125.807 409.373 L125.807 415.252 L120.922 415.252 L120.922 409.373 Z" fill="#000000" fill-rule="nonzero" fill-opacity="1"></path><path clip-path="url(#clip730)" d="M136.038 380.692 L154.394 380.692 L154.394 384.628 L140.32 384.628 L140.32 393.1 Q141.339 392.753 142.357 392.591 Q143.376 392.405 144.394 392.405 Q150.181 392.405 153.561 395.577 Q156.941 398.748 156.941 404.165 Q156.941 409.743 153.468 412.845 Q149.996 415.924 143.677 415.924 Q141.501 415.924 139.232 415.553 Q136.987 415.183 134.58 414.442 L134.58 409.743 Q136.663 410.877 138.885 411.433 Q141.107 411.989 143.584 411.989 Q147.589 411.989 149.927 409.882 Q152.265 407.776 152.265 404.165 Q152.265 400.553 149.927 398.447 Q147.589 396.341 143.584 396.341 Q141.709 396.341 139.834 396.757 Q137.982 397.174 136.038 398.053 L136.038 380.692 Z" fill="#000000" fill-rule="nonzero" fill-opacity="1"></path><path clip-path="url(#clip730)" d="M176.153 383.771 Q172.542 383.771 170.714 387.336 Q168.908 390.878 168.908 398.007 Q168.908 405.114 170.714 408.678 Q172.542 412.22 176.153 412.22 Q179.788 412.22 181.593 408.678 Q183.422 405.114 183.422 398.007 Q183.422 390.878 181.593 387.336 Q179.788 383.771 176.153 383.771 M176.153 380.067 Q181.964 380.067 185.019 384.674 Q188.098 389.257 188.098 398.007 Q188.098 406.734 185.019 411.34 Q181.964 415.924 176.153 415.924 Q170.343 415.924 167.265 411.34 Q164.209 406.734 164.209 398.007 Q164.209 389.257 167.265 384.674 Q170.343 380.067 176.153 380.067 Z" fill="#000000" fill-rule="nonzero" fill-opacity="1"></path><path clip-path="url(#clip730)" d="M224.487 389.79 L213.908 400.415 L224.487 410.993 L221.732 413.794 L211.107 403.169 L200.482 413.794 L197.751 410.993 L208.306 400.415 L197.751 389.79 L200.482 386.989 L211.107 397.614 L221.732 386.989 L224.487 389.79 Z" fill="#000000" fill-rule="nonzero" fill-opacity="1"></path><path clip-path="url(#clip730)" d="M236.848 411.317 L244.486 411.317 L244.486 384.952 L236.176 386.618 L236.176 382.359 L244.44 380.692 L249.116 380.692 L249.116 411.317 L256.755 411.317 L256.755 415.252 L236.848 415.252 L236.848 411.317 Z" fill="#000000" fill-rule="nonzero" fill-opacity="1"></path><path clip-path="url(#clip730)" d="M276.199 383.771 Q272.588 383.771 270.759 387.336 Q268.954 390.878 268.954 398.007 Q268.954 405.114 270.759 408.678 Q272.588 412.22 276.199 412.22 Q279.833 412.22 281.639 408.678 Q283.468 405.114 283.468 398.007 Q283.468 390.878 281.639 387.336 Q279.833 383.771 276.199 383.771 M276.199 380.067 Q282.009 380.067 285.065 384.674 Q288.144 389.257 288.144 398.007 Q288.144 406.734 285.065 411.34 Q282.009 415.924 276.199 415.924 Q270.389 415.924 267.31 411.34 Q264.255 406.734 264.255 398.007 Q264.255 389.257 267.31 384.674 Q270.389 380.067 276.199 380.067 Z" fill="#000000" fill-rule="nonzero" fill-opacity="1"></path><path clip-path="url(#clip730)" d="M288.689 384.645 L294.896 384.645 L294.896 363.223 L288.144 364.577 L288.144 361.116 L294.858 359.762 L298.657 359.762 L298.657 384.645 L304.864 384.645 L304.864 387.842 L288.689 387.842 L288.689 384.645 Z" fill="#000000" fill-rule="nonzero" fill-opacity="1"></path><path clip-path="url(#clip730)" d="M320.662 362.263 Q317.728 362.263 316.242 365.16 Q314.775 368.037 314.775 373.83 Q314.775 379.604 316.242 382.501 Q317.728 385.378 320.662 385.378 Q323.615 385.378 325.082 382.501 Q326.568 379.604 326.568 373.83 Q326.568 368.037 325.082 365.16 Q323.615 362.263 320.662 362.263 M320.662 359.254 Q325.383 359.254 327.866 362.997 Q330.367 366.721 330.367 373.83 Q330.367 380.921 327.866 384.664 Q325.383 388.387 320.662 388.387 Q315.942 388.387 313.44 384.664 Q310.957 380.921 310.957 373.83 Q310.957 366.721 313.44 362.997 Q315.942 359.254 320.662 359.254 Z" fill="#000000" fill-rule="nonzero" fill-opacity="1"></path><path clip-path="url(#clip730)" d="M318.423 73.775 Q314.812 73.775 312.983 77.3398 Q311.177 80.8814 311.177 88.011 Q311.177 95.1174 312.983 98.6822 Q314.812 102.224 318.423 102.224 Q322.057 102.224 323.862 98.6822 Q325.691 95.1174 325.691 88.011 Q325.691 80.8814 323.862 77.3398 Q322.057 73.775 318.423 73.775 M318.423 70.0713 Q324.233 70.0713 327.288 74.6777 Q330.367 79.261 330.367 88.011 Q330.367 96.7378 327.288 101.344 Q324.233 105.928 318.423 105.928 Q312.613 105.928 309.534 101.344 Q306.478 96.7378 306.478 88.011 Q306.478 79.261 309.534 74.6777 Q312.613 70.0713 318.423 70.0713 Z" fill="#000000" fill-rule="nonzero" fill-opacity="1"></path><polyline clip-path="url(#clip732)" style="stroke:#009af9; stroke-linecap:round; stroke-linejoin:round; stroke-width:4; stroke-opacity:1; fill:none" points="422.586,87.9763 426.341,87.9763 430.096,87.9763 433.852,87.9763 437.607,87.9763 441.363,87.9763 445.118,87.9763 448.874,87.9763 452.629,87.9763 456.384,87.9763 460.14,87.9763 463.895,87.9763 467.651,87.9763 471.406,87.9763 475.161,87.9763 478.917,87.9763 482.672,87.9763 486.428,87.9763 490.183,87.9763 493.938,87.9763 497.694,87.9763 501.449,87.9763 505.205,87.9763 508.96,87.9763 512.716,87.9763 516.471,87.9763 520.226,87.9763 523.982,87.9763 527.737,87.9763 531.493,87.9763 535.248,87.9763 539.003,87.9763 542.759,87.9763 546.514,87.9763 550.27,87.9763 554.025,87.9763 557.781,87.9763 561.536,87.9763 565.291,87.9763 569.047,87.9763 572.802,87.9763 576.558,87.9763 580.313,87.9763 584.068,87.9763 587.824,87.9763 591.579,87.9763 595.335,87.9763 599.09,87.9763 602.846,87.9763 606.601,87.9763 610.356,87.9763 614.112,87.9763 617.867,87.9763 621.623,87.9763 625.378,87.9763 629.133,87.9763 632.889,87.9763 636.644,87.9763 640.4,87.9763 644.155,87.9763 647.91,87.9763 651.666,87.9763 655.421,87.9763 659.177,87.9763 662.932,87.9763 666.688,87.9763 670.443,87.9763 674.198,87.9763 677.954,87.9763 681.709,87.9763 685.465,87.9763 689.22,87.9763 692.975,87.9763 696.731,87.9763 700.486,87.9763 704.242,87.9763 707.997,87.9763 711.753,87.9763 715.508,87.9763 719.263,87.9763 723.019,87.9763 726.774,87.9763 730.53,87.9763 734.285,87.9763 738.04,87.9763 741.796,87.9763 745.551,87.9763 749.307,87.9763 753.062,87.9763 756.817,87.9763 760.573,87.9763 764.328,87.9763 768.084,87.9763 771.839,87.9763 775.595,87.9763 779.35,87.9763 783.105,87.9763 786.861,87.9763 790.616,87.9763 794.372,87.9763 798.127,87.9763 801.882,87.9763 805.638,87.9763 809.393,87.9763 813.149,87.9763 816.904,87.9763 820.66,87.9763 824.415,87.9763 828.17,87.9763 831.926,87.9763 835.681,87.9763 839.437,87.9763 843.192,87.9763 846.947,87.9763 850.703,87.9763 854.458,87.9763 858.214,87.9763 861.969,87.9763 865.725,87.9763 869.48,87.9763 873.235,87.9763 876.991,87.9763 880.746,87.9763 884.502,87.9763 888.257,87.9763 892.012,87.9763 895.768,87.9763 899.523,87.9763 903.279,87.9763 907.034,87.9763 910.789,87.9763 914.545,87.9763 918.3,87.9763 922.056,87.9763 925.811,87.9763 929.567,87.9763 933.322,87.9763 937.077,87.9763 940.833,87.9763 944.588,87.9763 948.344,87.9763 952.099,87.9763 955.854,87.9763 959.61,87.9763 963.365,87.9763 967.121,87.9763 970.876,87.9763 974.632,87.9763 978.387,87.9763 982.142,87.9763 985.898,87.9763 989.653,87.9763 993.409,87.9763 997.164,87.9763 1000.92,87.9763 1004.67,87.9763 1008.43,87.9764 1012.19,87.9764 1015.94,87.9764 1019.7,87.9764 1023.45,87.9764 1027.21,87.9764 1030.96,87.9764 1034.72,87.9764 1038.47,87.9764 1042.23,87.9764 1045.98,87.9764 1049.74,87.9764 1053.5,87.9764 1057.25,87.9764 1061.01,87.9764 1064.76,87.9764 1068.52,87.9764 1072.27,87.9764 1076.03,87.9765 1079.78,87.9765 1083.54,87.9765 1087.29,87.9765 1091.05,87.9765 1094.8,87.9765 1098.56,87.9765 1102.32,87.9765 1106.07,87.9765 1109.83,87.9766 1113.58,87.9766 1117.34,87.9766 1121.09,87.9766 1124.85,87.9766 1128.6,87.9766 1132.36,87.9766 1136.11,87.9767 1139.87,87.9767 1143.63,87.9767 1147.38,87.9767 1151.14,87.9767 1154.89,87.9768 1158.65,87.9768 1162.4,87.9768 1166.16,87.9768 1169.91,87.9769 1173.67,87.9769 1177.42,87.9769 1181.18,87.977 1184.93,87.977 1188.69,87.977 1192.45,87.9771 1196.2,87.9771 1199.96,87.9772 1203.71,87.9772 1207.47,87.9772 1211.22,87.9773 1214.98,87.9773 1218.73,87.9774 1222.49,87.9775 1226.24,87.9775 1230,87.9776 1233.76,87.9776 1237.51,87.9777 1241.27,87.9778 1245.02,87.9779 1248.78,87.9779 1252.53,87.978 1256.29,87.9781 1260.04,87.9782 1263.8,87.9783 1267.55,87.9784 1271.31,87.9785 1275.06,87.9786 1278.82,87.9787 1282.58,87.9789 1286.33,87.979 1290.09,87.9791 1293.84,87.9793 1297.6,87.9794 1301.35,87.9796 1305.11,87.9797 1308.86,87.9799 1312.62,87.9801 1316.37,87.9803 1320.13,87.9805 1323.89,87.9807 1327.64,87.9809 1331.4,87.9811 1335.15,87.9814 1338.91,87.9816 1342.66,87.9819 1346.42,87.9822 1350.17,87.9825 1353.93,87.9828 1357.68,87.9831 1361.44,87.9835 1365.19,87.9838 1368.95,87.9842 1372.71,87.9846 1376.46,87.985 1380.22,87.9855 1383.97,87.9859 1387.73,87.9864 1391.48,87.9869 1395.24,87.9874 1398.99,87.988 1402.75,87.9886 1406.5,87.9892 1410.26,87.9898 1414.01,87.9905 1417.77,87.9912 1421.53,87.992 1425.28,87.9928 1429.04,87.9936 1432.79,87.9944 1436.55,87.9954 1440.3,87.9963 1444.06,87.9973 1447.81,87.9984 1451.57,87.9995 1455.32,88.0006 1459.08,88.0018 1462.84,88.0031 1466.59,88.0045 1470.35,88.0059 1474.1,88.0073 1477.86,88.0089 1481.61,88.0105 1485.37,88.0122 1489.12,88.014 1492.88,88.0159 1496.63,88.0179 1500.39,88.02 1504.14,88.0222 1507.9,88.0245 1511.66,88.0269 1515.41,88.0294 1519.17,88.0321 1522.92,88.0349 1526.68,88.0378 1530.43,88.0409 1534.19,88.0441 1537.94,88.0475 1541.7,88.0511 1545.45,88.0548 1549.21,88.0587 1552.97,88.0628 1556.72,88.0672 1560.48,88.0717 1564.23,88.0765 1567.99,88.0815 1571.74,88.0868 1575.5,88.0923 1579.25,88.0981 1583.01,88.1042 1586.76,88.1106 1590.52,88.1173 1594.27,88.1243 1598.03,88.1317 1601.79,88.1395 1605.54,88.1477 1609.3,88.1562 1613.05,88.1652 1616.81,88.1747 1620.56,88.1846 1624.32,88.195 1628.07,88.206 1631.83,88.2174 1635.58,88.2295 1639.34,88.2422 1643.1,88.2555 1646.85,88.2694 1650.61,88.2841 1654.36,88.2995 1658.12,88.3156 1661.87,88.3326 1665.63,88.3504 1669.38,88.3691 1673.14,88.3887 1676.89,88.4094 1680.65,88.431 1684.4,88.4538 1688.16,88.4776 1691.92,88.5027 1695.67,88.529 1699.43,88.5567 1703.18,88.5857 1706.94,88.6162 1710.69,88.6481 1714.45,88.6817 1718.2,88.717 1721.96,88.7541 1725.71,88.7929 1729.47,88.8338 1733.23,88.8766 1736.98,88.9217 1740.74,88.9689 1744.49,89.0186 1748.25,89.0707 1752,89.1254 1755.76,89.1829 1759.51,89.2432 1763.27,89.3065 1767.02,89.373 1770.78,89.4429 1774.53,89.5162 1778.29,89.5932 1782.05,89.6741 1785.8,89.759 1789.56,89.8481 1793.31,89.9417 1797.07,90.0399 1800.82,90.1431 1804.58,90.2515 1808.33,90.3652 1812.09,90.4847 1815.84,90.6101 1819.6,90.7418 1823.36,90.8801 1827.11,91.0253 1830.87,91.1777 1834.62,91.3378 1838.38,91.5058 1842.13,91.6823 1845.89,91.8676 1849.64,92.0622 1853.4,92.2665 1857.15,92.481 1860.91,92.7062 1864.66,92.9427 1868.42,93.1911 1872.18,93.4518 1875.93,93.7256 1879.69,94.013 1883.44,94.3149 1887.2,94.6318 1890.95,94.9646 1894.71,95.314 1898.46,95.6809 1902.22,96.0661 1905.97,96.4706 1909.73,96.8953 1913.49,97.3413 1917.24,97.8095 1921,98.3012 1924.75,98.8174 1928.51,99.3595 1932.26,99.9287 1936.02,100.526 1939.77,101.154 1943.53,101.813 1947.28,102.504 1951.04,103.231 1954.79,103.994 1958.55,104.794 1962.31,105.635 1966.06,106.518 1969.82,107.445 1973.57,108.419 1977.33,109.441 1981.08,110.514 1984.84,111.641 1988.59,112.824 1992.35,114.067 1996.1,115.371 1999.86,116.741 2003.62,118.179 2007.37,119.69 2011.13,121.275 2014.88,122.94 2018.64,124.688 2022.39,126.524 2026.15,128.451 2029.9,130.475 2033.66,132.6 2037.41,134.831 2041.17,137.174 2044.92,139.634 2048.68,142.217 2052.44,144.929 2056.19,147.776 2059.95,150.766 2063.7,153.906 2067.46,157.202 2071.21,160.664 2074.97,164.298 2078.72,168.114 2082.48,172.121 2086.23,176.328 2089.99,180.746 2093.74,185.384 2097.5,190.255 2101.26,195.369 2105.01,200.738 2108.77,206.376 2112.52,212.296 2116.28,218.512 2120.03,225.039 2123.79,231.892 2127.54,239.088 2131.3,246.644 2135.05,254.577 2138.81,262.907 2142.57,271.653 2146.32,280.837 2150.08,290.48 2153.83,300.606 2157.59,311.237 2161.34,322.4 2165.1,334.121 2168.85,346.428 2172.61,359.351 2176.36,372.92 2180.12,387.167 2183.87,402.127 2187.63,417.834 2191.39,434.327 2195.14,451.644 2198.9,469.828 2202.65,488.92 2206.41,508.968 2210.16,530.017 2213.92,552.119 2217.67,575.326 2221.43,599.694 2225.18,625.28 2228.94,652.145 2232.7,680.353 2236.45,709.972 2240.21,741.072 2243.96,773.727 2247.72,808.014 2251.47,844.016 2255.23,881.818 2258.98,921.51 2262.74,963.187 2266.49,1006.95 2270.25,1052.9 2274,1101.14 2277.76,1151.8 2281.52,1204.99 2285.27,1260.84 2289.03,1319.49 2292.78,1381.06 2296.54,1445.72 "></polyline>
<path clip-path="url(#clip730)" d="M432.58 1438.47 L683.649 1438.47 L683.649 1334.79 L432.58 1334.79  Z" fill="#ffffff" fill-rule="evenodd" fill-opacity="1"></path>
<polyline clip-path="url(#clip730)" style="stroke:#000000; stroke-linecap:round; stroke-linejoin:round; stroke-width:4; stroke-opacity:1; fill:none" points="432.58,1438.47 683.649,1438.47 683.649,1334.79 432.58,1334.79 432.58,1438.47 "></polyline>
<polyline clip-path="url(#clip730)" style="stroke:#009af9; stroke-linecap:round; stroke-linejoin:round; stroke-width:4; stroke-opacity:1; fill:none" points="454.651,1386.63 587.077,1386.63 "></polyline>
<path clip-path="url(#clip730)" d="M622.99 1406.32 Q621.185 1410.95 619.472 1412.36 Q617.759 1413.78 614.889 1413.78 L611.486 1413.78 L611.486 1410.21 L613.986 1410.21 Q615.745 1410.21 616.717 1409.38 Q617.69 1408.54 618.87 1405.44 L619.634 1403.5 L609.148 1377.99 L613.662 1377.99 L621.764 1398.27 L629.865 1377.99 L634.379 1377.99 L622.99 1406.32 Z" fill="#000000" fill-rule="nonzero" fill-opacity="1"></path><path clip-path="url(#clip730)" d="M641.671 1399.98 L649.31 1399.98 L649.31 1373.61 L641 1375.28 L641 1371.02 L649.263 1369.35 L653.939 1369.35 L653.939 1399.98 L661.578 1399.98 L661.578 1403.91 L641.671 1403.91 L641.671 1399.98 Z" fill="#000000" fill-rule="nonzero" fill-opacity="1"></path></svg>