<svg xmlns="http://www.w3.org/2000/svg" xmlns:xlink="http://www.w3.org/1999/xlink" width="600" height="400" viewBox="0 0 2400 1600">
<defs>
  <clipPath id="clip790">
    <rect x="0" y="0" width="2400" height="1600"></rect>
  </clipPath>
</defs>
<path clip-path="url(#clip790)" d="M0 1600 L2400 1600 L2400 8.88178e-14 L0 8.88178e-14  Z" fill="#ffffff" fill-rule="evenodd" fill-opacity="1"></path>
<defs>
  <clipPath id="clip791">
    <rect x="480" y="0" width="1681" height="1600"></rect>
  </clipPath>
</defs>
<path clip-path="url(#clip790)" d="M140.696 1486.45 L2352.76 1486.45 L2352.76 47.2441 L140.696 47.2441  Z" fill="#ffffff" fill-rule="evenodd" fill-opacity="1"></path>
<defs>
  <clipPath id="clip792">
    <rect x="140" y="47" width="2213" height="1440"></rect>
  </clipPath>
</defs>
<polyline clip-path="url(#clip792)" style="stroke:#000000; stroke-linecap:round; stroke-linejoin:round; stroke-width:2; stroke-opacity:0.1; fill:none" points="386.075,1486.45 386.075,47.2441 "></polyline>
<polyline clip-path="url(#clip792)" style="stroke:#000000; stroke-linecap:round; stroke-linejoin:round; stroke-width:2; stroke-opacity:0.1; fill:none" points="668.21,1486.45 668.21,47.2441 "></polyline>
<polyline clip-path="url(#clip792)" style="stroke:#000000; stroke-linecap:round; stroke-linejoin:round; stroke-width:2; stroke-opacity:0.1; fill:none" points="950.345,1486.45 950.345,47.2441 "></polyline>
<polyline clip-path="url(#clip792)" style="stroke:#000000; stroke-linecap:round; stroke-linejoin:round; stroke-width:2; stroke-opacity:0.1; fill:none" points="1232.48,1486.45 1232.48,47.2441 "></polyline>
<polyline clip-path="url(#clip792)" style="stroke:#000000; stroke-linecap:round; stroke-linejoin:round; stroke-width:2; stroke-opacity:0.1; fill:none" points="1514.62,1486.45 1514.62,47.2441 "></polyline>
<polyline clip-path="url(#clip792)" style="stroke:#000000; stroke-linecap:round; stroke-linejoin:round; stroke-width:2; stroke-opacity:0.1; fill:none" points="1796.75,1486.45 1796.75,47.2441 "></polyline>
<polyline clip-path="url(#clip792)" style="stroke:#000000; stroke-linecap:round; stroke-linejoin:round; stroke-width:2; stroke-opacity:0.1; fill:none" points="2078.89,1486.45 2078.89,47.2441 "></polyline>
<polyline clip-path="url(#clip792)" style="stroke:#000000; stroke-linecap:round; stroke-linejoin:round; stroke-width:2; stroke-opacity:0.1; fill:none" points="140.696,1445.72 2352.76,1445.72 "></polyline>
<polyline clip-path="url(#clip792)" style="stroke:#000000; stroke-linecap:round; stroke-linejoin:round; stroke-width:2; stroke-opacity:0.1; fill:none" points="140.696,1202.5 2352.76,1202.5 "></polyline>
<polyline clip-path="url(#clip792)" style="stroke:#000000; stroke-linecap:round; stroke-linejoin:round; stroke-width:2; stroke-opacity:0.1; fill:none" points="140.696,959.286 2352.76,959.286 "></polyline>
<polyline clip-path="url(#clip792)" style="stroke:#000000; stroke-linecap:round; stroke-linejoin:round; stroke-width:2; stroke-opacity:0.1; fill:none" points="140.696,716.071 2352.76,716.071 "></polyline>
<polyline clip-path="url(#clip792)" style="stroke:#000000; stroke-linecap:round; stroke-linejoin:round; stroke-width:2; stroke-opacity:0.1; fill:none" points="140.696,472.855 2352.76,472.855 "></polyline>
<polyline clip-path="url(#clip792)" style="stroke:#000000; stroke-linecap:round; stroke-linejoin:round; stroke-width:2; stroke-opacity:0.1; fill:none" points="140.696,229.64 2352.76,229.64 "></polyline>
<polyline clip-path="url(#clip790)" style="stroke:#000000; stroke-linecap:round; stroke-linejoin:round; stroke-width:4; stroke-opacity:1; fill:none" points="140.696,1486.45 2352.76,1486.45 "></polyline>
<polyline clip-path="url(#clip790)" style="stroke:#000000; stroke-linecap:round; stroke-linejoin:round; stroke-width:4; stroke-opacity:1; fill:none" points="386.075,1486.45 386.075,1467.55 "></polyline>
<polyline clip-path="url(#clip790)" style="stroke:#000000; stroke-linecap:round; stroke-linejoin:round; stroke-width:4; stroke-opacity:1; fill:none" points="668.21,1486.45 668.21,1467.55 "></polyline>
<polyline clip-path="url(#clip790)" style="stroke:#000000; stroke-linecap:round; stroke-linejoin:round; stroke-width:4; stroke-opacity:1; fill:none" points="950.345,1486.45 950.345,1467.55 "></polyline>
<polyline clip-path="url(#clip790)" style="stroke:#000000; stroke-linecap:round; stroke-linejoin:round; stroke-width:4; stroke-opacity:1; fill:none" points="1232.48,1486.45 1232.48,1467.55 "></polyline>
<polyline clip-path="url(#clip790)" style="stroke:#000000; stroke-linecap:round; stroke-linejoin:round; stroke-width:4; stroke-opacity:1; fill:none" points="1514.62,1486.45 1514.62,1467.55 "></polyline>
<polyline clip-path="url(#clip790)" style="stroke:#000000; stroke-linecap:round; stroke-linejoin:round; stroke-width:4; stroke-opacity:1; fill:none" points="1796.75,1486.45 1796.75,1467.55 "></polyline>
<polyline clip-path="url(#clip790)" style="stroke:#000000; stroke-linecap:round; stroke-linejoin:round; stroke-width:4; stroke-opacity:1; fill:none" points="2078.89,1486.45 2078.89,1467.55 "></polyline>
<path clip-path="url(#clip790)" d="M348.135 1517.37 Q344.524 1517.37 342.695 1520.93 Q340.89 1524.47 340.89 1531.6 Q340.89 1538.71 342.695 1542.27 Q344.524 1545.82 348.135 1545.82 Q351.769 1545.82 353.575 1542.27 Q355.403 1538.71 355.403 1531.6 Q355.403 1524.47 353.575 1520.93 Q351.769 1517.37 348.135 1517.37 M348.135 1513.66 Q353.945 1513.66 357.001 1518.27 Q360.079 1522.85 360.079 1531.6 Q360.079 1540.33 357.001 1544.94 Q353.945 1549.52 348.135 1549.52 Q342.325 1549.52 339.246 1544.94 Q336.191 1540.33 336.191 1531.6 Q336.191 1522.85 339.246 1518.27 Q342.325 1513.66 348.135 1513.66 Z" fill="#000000" fill-rule="nonzero" fill-opacity="1"></path><path clip-path="url(#clip790)" d="M368.297 1542.97 L373.181 1542.97 L373.181 1548.85 L368.297 1548.85 L368.297 1542.97 Z" fill="#000000" fill-rule="nonzero" fill-opacity="1"></path><path clip-path="url(#clip790)" d="M383.505 1548.13 L383.505 1543.87 Q385.264 1544.7 387.07 1545.14 Q388.875 1545.58 390.612 1545.58 Q395.241 1545.58 397.672 1542.48 Q400.125 1539.36 400.473 1533.01 Q399.13 1535.01 397.07 1536.07 Q395.01 1537.13 392.51 1537.13 Q387.325 1537.13 384.292 1534.01 Q381.283 1530.86 381.283 1525.42 Q381.283 1520.1 384.431 1516.88 Q387.579 1513.66 392.811 1513.66 Q398.806 1513.66 401.954 1518.27 Q405.125 1522.85 405.125 1531.6 Q405.125 1539.77 401.237 1544.66 Q397.371 1549.52 390.82 1549.52 Q389.061 1549.52 387.255 1549.17 Q385.45 1548.82 383.505 1548.13 M392.811 1533.48 Q395.959 1533.48 397.787 1531.32 Q399.639 1529.17 399.639 1525.42 Q399.639 1521.7 397.787 1519.54 Q395.959 1517.37 392.811 1517.37 Q389.663 1517.37 387.811 1519.54 Q385.982 1521.7 385.982 1525.42 Q385.982 1529.17 387.811 1531.32 Q389.663 1533.48 392.811 1533.48 Z" fill="#000000" fill-rule="nonzero" fill-opacity="1"></path><path clip-path="url(#clip790)" d="M426.375 1518.36 L414.57 1536.81 L426.375 1536.81 L426.375 1518.36 M425.148 1514.29 L431.028 1514.29 L431.028 1536.81 L435.959 1536.81 L435.959 1540.7 L431.028 1540.7 L431.028 1548.85 L426.375 1548.85 L426.375 1540.7 L410.774 1540.7 L410.774 1536.19 L425.148 1514.29 Z" fill="#000000" fill-rule="nonzero" fill-opacity="1"></path><path clip-path="url(#clip790)" d="M630.432 1517.37 Q626.821 1517.37 624.992 1520.93 Q623.187 1524.47 623.187 1531.6 Q623.187 1538.71 624.992 1542.27 Q626.821 1545.82 630.432 1545.82 Q634.066 1545.82 635.872 1542.27 Q637.701 1538.71 637.701 1531.6 Q637.701 1524.47 635.872 1520.93 Q634.066 1517.37 630.432 1517.37 M630.432 1513.66 Q636.242 1513.66 639.298 1518.27 Q642.377 1522.85 642.377 1531.6 Q642.377 1540.33 639.298 1544.94 Q636.242 1549.52 630.432 1549.52 Q624.622 1549.52 621.543 1544.94 Q618.488 1540.33 618.488 1531.6 Q618.488 1522.85 621.543 1518.27 Q624.622 1513.66 630.432 1513.66 Z" fill="#000000" fill-rule="nonzero" fill-opacity="1"></path><path clip-path="url(#clip790)" d="M650.594 1542.97 L655.478 1542.97 L655.478 1548.85 L650.594 1548.85 L650.594 1542.97 Z" fill="#000000" fill-rule="nonzero" fill-opacity="1"></path><path clip-path="url(#clip790)" d="M665.802 1548.13 L665.802 1543.87 Q667.562 1544.7 669.367 1545.14 Q671.173 1545.58 672.909 1545.58 Q677.538 1545.58 679.969 1542.48 Q682.423 1539.36 682.77 1533.01 Q681.427 1535.01 679.367 1536.07 Q677.307 1537.13 674.807 1537.13 Q669.622 1537.13 666.589 1534.01 Q663.58 1530.86 663.58 1525.42 Q663.58 1520.1 666.728 1516.88 Q669.876 1513.66 675.108 1513.66 Q681.103 1513.66 684.251 1518.27 Q687.423 1522.85 687.423 1531.6 Q687.423 1539.77 683.534 1544.66 Q679.668 1549.52 673.117 1549.52 Q671.358 1549.52 669.552 1549.17 Q667.747 1548.82 665.802 1548.13 M675.108 1533.48 Q678.256 1533.48 680.085 1531.32 Q681.937 1529.17 681.937 1525.42 Q681.937 1521.7 680.085 1519.54 Q678.256 1517.37 675.108 1517.37 Q671.96 1517.37 670.108 1519.54 Q668.279 1521.7 668.279 1525.42 Q668.279 1529.17 670.108 1531.32 Q671.96 1533.48 675.108 1533.48 Z" fill="#000000" fill-rule="nonzero" fill-opacity="1"></path><path clip-path="url(#clip790)" d="M706.404 1529.7 Q703.256 1529.7 701.404 1531.86 Q699.575 1534.01 699.575 1537.76 Q699.575 1541.49 701.404 1543.66 Q703.256 1545.82 706.404 1545.82 Q709.552 1545.82 711.381 1543.66 Q713.233 1541.49 713.233 1537.76 Q713.233 1534.01 711.381 1531.86 Q709.552 1529.7 706.404 1529.7 M715.686 1515.05 L715.686 1519.31 Q713.927 1518.48 712.122 1518.04 Q710.339 1517.6 708.58 1517.6 Q703.95 1517.6 701.497 1520.72 Q699.066 1523.85 698.719 1530.17 Q700.085 1528.15 702.145 1527.09 Q704.205 1526 706.682 1526 Q711.89 1526 714.899 1529.17 Q717.932 1532.32 717.932 1537.76 Q717.932 1543.08 714.784 1546.3 Q711.635 1549.52 706.404 1549.52 Q700.409 1549.52 697.237 1544.94 Q694.066 1540.33 694.066 1531.6 Q694.066 1523.41 697.955 1518.55 Q701.844 1513.66 708.395 1513.66 Q710.154 1513.66 711.936 1514.01 Q713.742 1514.36 715.686 1515.05 Z" fill="#000000" fill-rule="nonzero" fill-opacity="1"></path><path clip-path="url(#clip790)" d="M912.695 1517.37 Q909.084 1517.37 907.255 1520.93 Q905.449 1524.47 905.449 1531.6 Q905.449 1538.71 907.255 1542.27 Q909.084 1545.82 912.695 1545.82 Q916.329 1545.82 918.135 1542.27 Q919.963 1538.71 919.963 1531.6 Q919.963 1524.47 918.135 1520.93 Q916.329 1517.37 912.695 1517.37 M912.695 1513.66 Q918.505 1513.66 921.56 1518.27 Q924.639 1522.85 924.639 1531.6 Q924.639 1540.33 921.56 1544.94 Q918.505 1549.52 912.695 1549.52 Q906.885 1549.52 903.806 1544.94 Q900.75 1540.33 900.75 1531.6 Q900.75 1522.85 903.806 1518.27 Q906.885 1513.66 912.695 1513.66 Z" fill="#000000" fill-rule="nonzero" fill-opacity="1"></path><path clip-path="url(#clip790)" d="M932.857 1542.97 L937.741 1542.97 L937.741 1548.85 L932.857 1548.85 L932.857 1542.97 Z" fill="#000000" fill-rule="nonzero" fill-opacity="1"></path><path clip-path="url(#clip790)" d="M948.065 1548.13 L948.065 1543.87 Q949.824 1544.7 951.63 1545.14 Q953.435 1545.58 955.171 1545.58 Q959.801 1545.58 962.232 1542.48 Q964.685 1539.36 965.032 1533.01 Q963.69 1535.01 961.63 1536.07 Q959.569 1537.13 957.069 1537.13 Q951.884 1537.13 948.852 1534.01 Q945.843 1530.86 945.843 1525.42 Q945.843 1520.1 948.991 1516.88 Q952.139 1513.66 957.37 1513.66 Q963.366 1513.66 966.514 1518.27 Q969.685 1522.85 969.685 1531.6 Q969.685 1539.77 965.796 1544.66 Q961.931 1549.52 955.38 1549.52 Q953.62 1549.52 951.815 1549.17 Q950.009 1548.82 948.065 1548.13 M957.37 1533.48 Q960.519 1533.48 962.347 1531.32 Q964.199 1529.17 964.199 1525.42 Q964.199 1521.7 962.347 1519.54 Q960.519 1517.37 957.37 1517.37 Q954.222 1517.37 952.37 1519.54 Q950.542 1521.7 950.542 1525.42 Q950.542 1529.17 952.37 1531.32 Q954.222 1533.48 957.37 1533.48 Z" fill="#000000" fill-rule="nonzero" fill-opacity="1"></path><path clip-path="url(#clip790)" d="M988.088 1532.44 Q984.755 1532.44 982.833 1534.22 Q980.935 1536 980.935 1539.13 Q980.935 1542.25 982.833 1544.03 Q984.755 1545.82 988.088 1545.82 Q991.421 1545.82 993.342 1544.03 Q995.264 1542.23 995.264 1539.13 Q995.264 1536 993.342 1534.22 Q991.444 1532.44 988.088 1532.44 M983.412 1530.45 Q980.403 1529.7 978.713 1527.64 Q977.046 1525.58 977.046 1522.62 Q977.046 1518.48 979.986 1516.07 Q982.949 1513.66 988.088 1513.66 Q993.25 1513.66 996.19 1516.07 Q999.129 1518.48 999.129 1522.62 Q999.129 1525.58 997.44 1527.64 Q995.773 1529.7 992.787 1530.45 Q996.167 1531.23 998.042 1533.52 Q999.94 1535.82 999.94 1539.13 Q999.94 1544.15 996.861 1546.83 Q993.805 1549.52 988.088 1549.52 Q982.37 1549.52 979.292 1546.83 Q976.236 1544.15 976.236 1539.13 Q976.236 1535.82 978.134 1533.52 Q980.032 1531.23 983.412 1530.45 M981.699 1523.06 Q981.699 1525.75 983.366 1527.25 Q985.055 1528.76 988.088 1528.76 Q991.097 1528.76 992.787 1527.25 Q994.5 1525.75 994.5 1523.06 Q994.5 1520.38 992.787 1518.87 Q991.097 1517.37 988.088 1517.37 Q985.055 1517.37 983.366 1518.87 Q981.699 1520.38 981.699 1523.06 Z" fill="#000000" fill-rule="nonzero" fill-opacity="1"></path><path clip-path="url(#clip790)" d="M1184.55 1544.91 L1192.19 1544.91 L1192.19 1518.55 L1183.88 1520.21 L1183.88 1515.95 L1192.14 1514.29 L1196.82 1514.29 L1196.82 1544.91 L1204.46 1544.91 L1204.46 1548.85 L1184.55 1548.85 L1184.55 1544.91 Z" fill="#000000" fill-rule="nonzero" fill-opacity="1"></path><path clip-path="url(#clip790)" d="M1213.9 1542.97 L1218.79 1542.97 L1218.79 1548.85 L1213.9 1548.85 L1213.9 1542.97 Z" fill="#000000" fill-rule="nonzero" fill-opacity="1"></path><path clip-path="url(#clip790)" d="M1238.97 1517.37 Q1235.36 1517.37 1233.53 1520.93 Q1231.73 1524.47 1231.73 1531.6 Q1231.73 1538.71 1233.53 1542.27 Q1235.36 1545.82 1238.97 1545.82 Q1242.61 1545.82 1244.41 1542.27 Q1246.24 1538.71 1246.24 1531.6 Q1246.24 1524.47 1244.41 1520.93 Q1242.61 1517.37 1238.97 1517.37 M1238.97 1513.66 Q1244.78 1513.66 1247.84 1518.27 Q1250.92 1522.85 1250.92 1531.6 Q1250.92 1540.33 1247.84 1544.94 Q1244.78 1549.52 1238.97 1549.52 Q1233.16 1549.52 1230.08 1544.94 Q1227.03 1540.33 1227.03 1531.6 Q1227.03 1522.85 1230.08 1518.27 Q1233.16 1513.66 1238.97 1513.66 Z" fill="#000000" fill-rule="nonzero" fill-opacity="1"></path><path clip-path="url(#clip790)" d="M1269.14 1517.37 Q1265.52 1517.37 1263.7 1520.93 Q1261.89 1524.47 1261.89 1531.6 Q1261.89 1538.71 1263.7 1542.27 Q1265.52 1545.82 1269.14 1545.82 Q1272.77 1545.82 1274.57 1542.27 Q1276.4 1538.71 1276.4 1531.6 Q1276.4 1524.47 1274.57 1520.93 Q1272.77 1517.37 1269.14 1517.37 M1269.14 1513.66 Q1274.95 1513.66 1278 1518.27 Q1281.08 1522.85 1281.08 1531.6 Q1281.08 1540.33 1278 1544.94 Q1274.95 1549.52 1269.14 1549.52 Q1263.32 1549.52 1260.25 1544.94 Q1257.19 1540.33 1257.19 1531.6 Q1257.19 1522.85 1260.25 1518.27 Q1263.32 1513.66 1269.14 1513.66 Z" fill="#000000" fill-rule="nonzero" fill-opacity="1"></path><path clip-path="url(#clip790)" d="M1467.49 1544.91 L1475.12 1544.91 L1475.12 1518.55 L1466.81 1520.21 L1466.81 1515.95 L1475.08 1514.29 L1479.75 1514.29 L1479.75 1544.91 L1487.39 1544.91 L1487.39 1548.85 L1467.49 1548.85 L1467.49 1544.91 Z" fill="#000000" fill-rule="nonzero" fill-opacity="1"></path><path clip-path="url(#clip790)" d="M1496.84 1542.97 L1501.72 1542.97 L1501.72 1548.85 L1496.84 1548.85 L1496.84 1542.97 Z" fill="#000000" fill-rule="nonzero" fill-opacity="1"></path><path clip-path="url(#clip790)" d="M1521.91 1517.37 Q1518.3 1517.37 1516.47 1520.93 Q1514.66 1524.47 1514.66 1531.6 Q1514.66 1538.71 1516.47 1542.27 Q1518.3 1545.82 1521.91 1545.82 Q1525.54 1545.82 1527.35 1542.27 Q1529.18 1538.71 1529.18 1531.6 Q1529.18 1524.47 1527.35 1520.93 Q1525.54 1517.37 1521.91 1517.37 M1521.91 1513.66 Q1527.72 1513.66 1530.77 1518.27 Q1533.85 1522.85 1533.85 1531.6 Q1533.85 1540.33 1530.77 1544.94 Q1527.72 1549.52 1521.91 1549.52 Q1516.1 1549.52 1513.02 1544.94 Q1509.96 1540.33 1509.96 1531.6 Q1509.96 1522.85 1513.02 1518.27 Q1516.1 1513.66 1521.91 1513.66 Z" fill="#000000" fill-rule="nonzero" fill-opacity="1"></path><path clip-path="url(#clip790)" d="M1546.1 1544.91 L1562.42 1544.91 L1562.42 1548.85 L1540.47 1548.85 L1540.47 1544.91 Q1543.13 1542.16 1547.72 1537.53 Q1552.32 1532.88 1553.5 1531.53 Q1555.75 1529.01 1556.63 1527.27 Q1557.53 1525.51 1557.53 1523.82 Q1557.53 1521.07 1555.59 1519.33 Q1553.67 1517.6 1550.56 1517.6 Q1548.37 1517.6 1545.91 1518.36 Q1543.48 1519.13 1540.7 1520.68 L1540.7 1515.95 Q1543.53 1514.82 1545.98 1514.24 Q1548.43 1513.66 1550.47 1513.66 Q1555.84 1513.66 1559.04 1516.35 Q1562.23 1519.03 1562.23 1523.52 Q1562.23 1525.65 1561.42 1527.57 Q1560.63 1529.47 1558.53 1532.07 Q1557.95 1532.74 1554.85 1535.95 Q1551.74 1539.15 1546.1 1544.91 Z" fill="#000000" fill-rule="nonzero" fill-opacity="1"></path><path clip-path="url(#clip790)" d="M1748.58 1544.91 L1756.22 1544.91 L1756.22 1518.55 L1747.91 1520.21 L1747.91 1515.95 L1756.17 1514.29 L1760.85 1514.29 L1760.85 1544.91 L1768.49 1544.91 L1768.49 1548.85 L1748.58 1548.85 L1748.58 1544.91 Z" fill="#000000" fill-rule="nonzero" fill-opacity="1"></path><path clip-path="url(#clip790)" d="M1777.93 1542.97 L1782.82 1542.97 L1782.82 1548.85 L1777.93 1548.85 L1777.93 1542.97 Z" fill="#000000" fill-rule="nonzero" fill-opacity="1"></path><path clip-path="url(#clip790)" d="M1803 1517.37 Q1799.39 1517.37 1797.56 1520.93 Q1795.76 1524.47 1795.76 1531.6 Q1795.76 1538.71 1797.56 1542.27 Q1799.39 1545.82 1803 1545.82 Q1806.63 1545.82 1808.44 1542.27 Q1810.27 1538.71 1810.27 1531.6 Q1810.27 1524.47 1808.44 1520.93 Q1806.63 1517.37 1803 1517.37 M1803 1513.66 Q1808.81 1513.66 1811.87 1518.27 Q1814.94 1522.85 1814.94 1531.6 Q1814.94 1540.33 1811.87 1544.94 Q1808.81 1549.52 1803 1549.52 Q1797.19 1549.52 1794.11 1544.94 Q1791.06 1540.33 1791.06 1531.6 Q1791.06 1522.85 1794.11 1518.27 Q1797.19 1513.66 1803 1513.66 Z" fill="#000000" fill-rule="nonzero" fill-opacity="1"></path><path clip-path="url(#clip790)" d="M1836.01 1518.36 L1824.2 1536.81 L1836.01 1536.81 L1836.01 1518.36 M1834.78 1514.29 L1840.66 1514.29 L1840.66 1536.81 L1845.59 1536.81 L1845.59 1540.7 L1840.66 1540.7 L1840.66 1548.85 L1836.01 1548.85 L1836.01 1540.7 L1820.41 1540.7 L1820.41 1536.19 L1834.78 1514.29 Z" fill="#000000" fill-rule="nonzero" fill-opacity="1"></path><path clip-path="url(#clip790)" d="M2030.88 1544.91 L2038.52 1544.91 L2038.52 1518.55 L2030.21 1520.21 L2030.21 1515.95 L2038.47 1514.29 L2043.15 1514.29 L2043.15 1544.91 L2050.78 1544.91 L2050.78 1548.85 L2030.88 1548.85 L2030.88 1544.91 Z" fill="#000000" fill-rule="nonzero" fill-opacity="1"></path><path clip-path="url(#clip790)" d="M2060.23 1542.97 L2065.11 1542.97 L2065.11 1548.85 L2060.23 1548.85 L2060.23 1542.97 Z" fill="#000000" fill-rule="nonzero" fill-opacity="1"></path><path clip-path="url(#clip790)" d="M2085.3 1517.37 Q2081.69 1517.37 2079.86 1520.93 Q2078.05 1524.47 2078.05 1531.6 Q2078.05 1538.71 2079.86 1542.27 Q2081.69 1545.82 2085.3 1545.82 Q2088.93 1545.82 2090.74 1542.27 Q2092.57 1538.71 2092.57 1531.6 Q2092.57 1524.47 2090.74 1520.93 Q2088.93 1517.37 2085.3 1517.37 M2085.3 1513.66 Q2091.11 1513.66 2094.16 1518.27 Q2097.24 1522.85 2097.24 1531.6 Q2097.24 1540.33 2094.16 1544.94 Q2091.11 1549.52 2085.3 1549.52 Q2079.49 1549.52 2076.41 1544.94 Q2073.35 1540.33 2073.35 1531.6 Q2073.35 1522.85 2076.41 1518.27 Q2079.49 1513.66 2085.3 1513.66 Z" fill="#000000" fill-rule="nonzero" fill-opacity="1"></path><path clip-path="url(#clip790)" d="M2116.04 1529.7 Q2112.89 1529.7 2111.04 1531.86 Q2109.21 1534.01 2109.21 1537.76 Q2109.21 1541.49 2111.04 1543.66 Q2112.89 1545.82 2116.04 1545.82 Q2119.19 1545.82 2121.02 1543.66 Q2122.87 1541.49 2122.87 1537.76 Q2122.87 1534.01 2121.02 1531.86 Q2119.19 1529.7 2116.04 1529.7 M2125.32 1515.05 L2125.32 1519.31 Q2123.56 1518.48 2121.76 1518.04 Q2119.97 1517.6 2118.21 1517.6 Q2113.58 1517.6 2111.13 1520.72 Q2108.7 1523.85 2108.35 1530.17 Q2109.72 1528.15 2111.78 1527.09 Q2113.84 1526 2116.32 1526 Q2121.52 1526 2124.53 1529.17 Q2127.57 1532.32 2127.57 1537.76 Q2127.57 1543.08 2124.42 1546.3 Q2121.27 1549.52 2116.04 1549.52 Q2110.04 1549.52 2106.87 1544.94 Q2103.7 1540.33 2103.7 1531.6 Q2103.7 1523.41 2107.59 1518.55 Q2111.48 1513.66 2118.03 1513.66 Q2119.79 1513.66 2121.57 1514.01 Q2123.38 1514.36 2125.32 1515.05 Z" fill="#000000" fill-rule="nonzero" fill-opacity="1"></path><polyline clip-path="url(#clip790)" style="stroke:#000000; stroke-linecap:round; stroke-linejoin:round; stroke-width:4; stroke-opacity:1; fill:none" points="140.696,1486.45 140.696,47.2441 "></polyline>
<polyline clip-path="url(#clip790)" style="stroke:#000000; stroke-linecap:round; stroke-linejoin:round; stroke-width:4; stroke-opacity:1; fill:none" points="140.696,1445.72 159.593,1445.72 "></polyline>
<polyline clip-path="url(#clip790)" style="stroke:#000000; stroke-linecap:round; stroke-linejoin:round; stroke-width:4; stroke-opacity:1; fill:none" points="140.696,1202.5 159.593,1202.5 "></polyline>
<polyline clip-path="url(#clip790)" style="stroke:#000000; stroke-linecap:round; stroke-linejoin:round; stroke-width:4; stroke-opacity:1; fill:none" points="140.696,959.286 159.593,959.286 "></polyline>
<polyline clip-path="url(#clip790)" style="stroke:#000000; stroke-linecap:round; stroke-linejoin:round; stroke-width:4; stroke-opacity:1; fill:none" points="140.696,716.071 159.593,716.071 "></polyline>
<polyline clip-path="url(#clip790)" style="stroke:#000000; stroke-linecap:round; stroke-linejoin:round; stroke-width:4; stroke-opacity:1; fill:none" points="140.696,472.855 159.593,472.855 "></polyline>
<polyline clip-path="url(#clip790)" style="stroke:#000000; stroke-linecap:round; stroke-linejoin:round; stroke-width:4; stroke-opacity:1; fill:none" points="140.696,229.64 159.593,229.64 "></polyline>
<path clip-path="url(#clip790)" d="M92.7512 1431.51 Q89.1401 1431.51 87.3114 1435.08 Q85.5058 1438.62 85.5058 1445.75 Q85.5058 1452.86 87.3114 1456.42 Q89.1401 1459.96 92.7512 1459.96 Q96.3854 1459.96 98.1909 1456.42 Q100.02 1452.86 100.02 1445.75 Q100.02 1438.62 98.1909 1435.08 Q96.3854 1431.51 92.7512 1431.51 M92.7512 1427.81 Q98.5613 1427.81 101.617 1432.42 Q104.696 1437 104.696 1445.75 Q104.696 1454.48 101.617 1459.08 Q98.5613 1463.67 92.7512 1463.67 Q86.941 1463.67 83.8623 1459.08 Q80.8068 1454.48 80.8068 1445.75 Q80.8068 1437 83.8623 1432.42 Q86.941 1427.81 92.7512 1427.81 Z" fill="#000000" fill-rule="nonzero" fill-opacity="1"></path><path clip-path="url(#clip790)" d="M83.7929 1185.22 L102.149 1185.22 L102.149 1189.16 L88.0753 1189.16 L88.0753 1197.63 Q89.0938 1197.28 90.1123 1197.12 Q91.1308 1196.93 92.1493 1196.93 Q97.9363 1196.93 101.316 1200.1 Q104.696 1203.28 104.696 1208.69 Q104.696 1214.27 101.223 1217.37 Q97.7511 1220.45 91.4317 1220.45 Q89.2558 1220.45 86.9873 1220.08 Q84.7419 1219.71 82.3346 1218.97 L82.3346 1214.27 Q84.4179 1215.41 86.6401 1215.96 Q88.8623 1216.52 91.3391 1216.52 Q95.3437 1216.52 97.6817 1214.41 Q100.02 1212.3 100.02 1208.69 Q100.02 1205.08 97.6817 1202.98 Q95.3437 1200.87 91.3391 1200.87 Q89.4641 1200.87 87.5892 1201.29 Q85.7373 1201.7 83.7929 1202.58 L83.7929 1185.22 Z" fill="#000000" fill-rule="nonzero" fill-opacity="1"></path><path clip-path="url(#clip790)" d="M53.3995 972.63 L61.0384 972.63 L61.0384 946.265 L52.7282 947.931 L52.7282 943.672 L60.9921 942.006 L65.668 942.006 L65.668 972.63 L73.3068 972.63 L73.3068 976.566 L53.3995 976.566 L53.3995 972.63 Z" fill="#000000" fill-rule="nonzero" fill-opacity="1"></path><path clip-path="url(#clip790)" d="M92.7512 945.084 Q89.1401 945.084 87.3114 948.649 Q85.5058 952.191 85.5058 959.32 Q85.5058 966.427 87.3114 969.992 Q89.1401 973.533 92.7512 973.533 Q96.3854 973.533 98.1909 969.992 Q100.02 966.427 100.02 959.32 Q100.02 952.191 98.1909 948.649 Q96.3854 945.084 92.7512 945.084 M92.7512 941.381 Q98.5613 941.381 101.617 945.987 Q104.696 950.57 104.696 959.32 Q104.696 968.047 101.617 972.654 Q98.5613 977.237 92.7512 977.237 Q86.941 977.237 83.8623 972.654 Q80.8068 968.047 80.8068 959.32 Q80.8068 950.57 83.8623 945.987 Q86.941 941.381 92.7512 941.381 Z" fill="#000000" fill-rule="nonzero" fill-opacity="1"></path><path clip-path="url(#clip790)" d="M54.3949 729.415 L62.0337 729.415 L62.0337 703.05 L53.7236 704.716 L53.7236 700.457 L61.9874 698.791 L66.6633 698.791 L66.6633 729.415 L74.3022 729.415 L74.3022 733.351 L54.3949 733.351 L54.3949 729.415 Z" fill="#000000" fill-rule="nonzero" fill-opacity="1"></path><path clip-path="url(#clip790)" d="M83.7929 698.791 L102.149 698.791 L102.149 702.726 L88.0753 702.726 L88.0753 711.198 Q89.0938 710.851 90.1123 710.689 Q91.1308 710.503 92.1493 710.503 Q97.9363 710.503 101.316 713.675 Q104.696 716.846 104.696 722.263 Q104.696 727.841 101.223 730.943 Q97.7511 734.022 91.4317 734.022 Q89.2558 734.022 86.9873 733.651 Q84.7419 733.281 82.3346 732.54 L82.3346 727.841 Q84.4179 728.976 86.6401 729.531 Q88.8623 730.087 91.3391 730.087 Q95.3437 730.087 97.6817 727.98 Q100.02 725.874 100.02 722.263 Q100.02 718.652 97.6817 716.545 Q95.3437 714.439 91.3391 714.439 Q89.4641 714.439 87.5892 714.855 Q85.7373 715.272 83.7929 716.152 L83.7929 698.791 Z" fill="#000000" fill-rule="nonzero" fill-opacity="1"></path><path clip-path="url(#clip790)" d="M56.6171 486.2 L72.9365 486.2 L72.9365 490.135 L50.9921 490.135 L50.9921 486.2 Q53.6541 483.446 58.2375 478.816 Q62.8439 474.163 64.0245 472.821 Q66.2698 470.298 67.1494 468.561 Q68.0522 466.802 68.0522 465.112 Q68.0522 462.358 66.1078 460.622 Q64.1865 458.886 61.0847 458.886 Q58.8856 458.886 56.4319 459.65 Q54.0014 460.413 51.2236 461.964 L51.2236 457.242 Q54.0477 456.108 56.5014 455.529 Q58.955 454.95 60.9921 454.95 Q66.3624 454.95 69.5568 457.636 Q72.7513 460.321 72.7513 464.812 Q72.7513 466.941 71.9411 468.862 Q71.1541 470.761 69.0476 473.353 Q68.4689 474.024 65.367 477.242 Q62.2652 480.436 56.6171 486.2 Z" fill="#000000" fill-rule="nonzero" fill-opacity="1"></path><path clip-path="url(#clip790)" d="M92.7512 458.654 Q89.1401 458.654 87.3114 462.219 Q85.5058 465.761 85.5058 472.89 Q85.5058 479.997 87.3114 483.561 Q89.1401 487.103 92.7512 487.103 Q96.3854 487.103 98.1909 483.561 Q100.02 479.997 100.02 472.89 Q100.02 465.761 98.1909 462.219 Q96.3854 458.654 92.7512 458.654 M92.7512 454.95 Q98.5613 454.95 101.617 459.557 Q104.696 464.14 104.696 472.89 Q104.696 481.617 101.617 486.223 Q98.5613 490.807 92.7512 490.807 Q86.941 490.807 83.8623 486.223 Q80.8068 481.617 80.8068 472.89 Q80.8068 464.14 83.8623 459.557 Q86.941 454.95 92.7512 454.95 Z" fill="#000000" fill-rule="nonzero" fill-opacity="1"></path><path clip-path="url(#clip790)" d="M57.6125 242.985 L73.9318 242.985 L73.9318 246.92 L51.9875 246.92 L51.9875 242.985 Q54.6495 240.231 59.2328 235.601 Q63.8393 230.948 65.0198 229.606 Q67.2652 227.083 68.1448 225.346 Q69.0476 223.587 69.0476 221.897 Q69.0476 219.143 67.1032 217.407 Q65.1819 215.671 62.08 215.671 Q59.881 215.671 57.4273 216.434 Q54.9967 217.198 52.219 218.749 L52.219 214.027 Q55.043 212.893 57.4967 212.314 Q59.9504 211.735 61.9874 211.735 Q67.3578 211.735 70.5522 214.421 Q73.7466 217.106 73.7466 221.596 Q73.7466 223.726 72.9365 225.647 Q72.1494 227.546 70.0429 230.138 Q69.4642 230.809 66.3624 234.027 Q63.2606 237.221 57.6125 242.985 Z" fill="#000000" fill-rule="nonzero" fill-opacity="1"></path><path clip-path="url(#clip790)" d="M83.7929 212.36 L102.149 212.36 L102.149 216.296 L88.0753 216.296 L88.0753 224.768 Q89.0938 224.421 90.1123 224.258 Q91.1308 224.073 92.1493 224.073 Q97.9363 224.073 101.316 227.245 Q104.696 230.416 104.696 235.832 Q104.696 241.411 101.223 244.513 Q97.7511 247.592 91.4317 247.592 Q89.2558 247.592 86.9873 247.221 Q84.7419 246.851 82.3346 246.11 L82.3346 241.411 Q84.4179 242.545 86.6401 243.101 Q88.8623 243.657 91.3391 243.657 Q95.3437 243.657 97.6817 241.55 Q100.02 239.444 100.02 235.832 Q100.02 232.221 97.6817 230.115 Q95.3437 228.008 91.3391 228.008 Q89.4641 228.008 87.5892 228.425 Q85.7373 228.842 83.7929 229.721 L83.7929 212.36 Z" fill="#000000" fill-rule="nonzero" fill-opacity="1"></path><path clip-path="url(#clip792)" d="M203.301 1445.72 L213.788 1445.72 L224.274 1445.71 L234.761 1445.7 L245.248 1445.69 L255.734 1445.68 L266.221 1445.68 L276.708 1445.68 L287.194 1445.68 L297.681 1445.66 L308.168 1445.61 L318.655 1445.56 L329.141 1445.54 L339.628 1445.54 L350.115 1445.52 L360.601 1445.47 L371.088 1445.33 L381.575 1445.17 L392.061 1445.06 L402.548 1445 L413.035 1444.98 L423.521 1444.92 L434.008 1444.73 L444.495 1444.42 L454.981 1444.02 L465.468 1443.59 L475.955 1443.21 L486.441 1442.82 L496.928 1442.46 L507.415 1442.13 L517.901 1441.66 L528.388 1440.84 L538.875 1439.61 L549.361 1438.05 L559.848 1436.41 L570.335 1435.02 L580.822 1433.73 L591.308 1432.17 L601.795 1430 L612.282 1427.01 L622.768 1423.41 L633.255 1419.67 L643.742 1415.99 L654.228 1412.18 L664.715 1407.67 L675.202 1402.06 L685.688 1395.53 L696.175 1388.07 L706.662 1379.64 L717.148 1370.7 L727.635 1361.35 L738.122 1350.75 L748.608 1338.24 L759.095 1324.91 L769.582 1311.31 L780.068 1296.8 L790.555 1280.77 L801.042 1263.28 L811.528 1244.43 L822.015 1223.73 L832.502 1202.09 L842.989 1179.61 L853.475 1154.94 L863.962 1128.43 L874.449 1099.76 L884.935 1068.24 L895.422 1034.67 L905.909 999.198 L916.395 963.346 L926.882 928.61 L937.369 891.071 L947.855 848.924 L958.342 806.666 L968.829 765.446 L979.315 722.523 L989.802 677.855 L1000.29 634.86 L1010.78 593.453 L1021.26 552.52 L1031.75 513.982 L1042.24 476.866 L1052.72 435.603 L1063.21 390.295 L1073.7 350.265 L1084.18 317.881 L1094.67 287.145 L1105.16 256.595 L1115.64 225.561 L1126.13 191.791 L1136.62 159.647 L1147.1 135.744 L1157.59 120.695 L1168.08 110.885 L1178.56 102.433 L1189.05 95.5796 L1199.54 91.629 L1210.02 89.0896 L1220.51 87.9763 L1231 91.0183 L1241.48 100.426 L1251.97 116.212 L1262.46 137.21 L1272.94 162.505 L1283.43 189.369 L1293.92 216.036 L1304.4 244.135 L1314.89 274.284 L1325.38 307.073 L1335.86 344.765 L1346.35 386.501 L1356.84 427.108 L1367.32 465.518 L1377.81 507.114 L1388.3 551.205 L1398.78 593.391 L1409.27 635.307 L1419.76 677.187 L1430.24 716.166 L1440.73 754.596 L1451.22 795.737 L1461.7 838.685 L1472.19 880.142 L1482.68 917.961 L1493.16 954.126 L1503.65 989.665 L1514.14 1023.14 L1524.62 1055.42 L1535.11 1086.69 L1545.6 1115.53 L1556.08 1143.3 L1566.57 1171.19 L1577.06 1197.66 L1587.54 1221.51 L1598.03 1242.41 L1608.52 1260.52 L1619 1276.99 L1629.49 1293.16 L1639.98 1309.06 L1650.46 1323.65 L1660.95 1336.66 L1671.44 1348.41 L1681.92 1359.09 L1692.41 1368.84 L1702.9 1378.11 L1713.38 1386.65 L1723.87 1394.06 L1734.36 1400.35 L1744.84 1405.85 L1755.33 1410.97 L1765.82 1415.56 L1776.3 1419.47 L1786.79 1422.93 L1797.28 1425.93 L1807.76 1428.55 L1818.25 1430.82 L1828.74 1432.89 L1839.22 1435.03 L1849.71 1436.85 L1860.2 1438.05 L1870.68 1439.06 L1881.17 1440.22 L1891.66 1441.24 L1902.14 1441.93 L1912.63 1442.47 L1923.12 1442.93 L1933.6 1443.34 L1944.09 1443.72 L1954.58 1444.08 L1965.06 1444.38 L1975.55 1444.59 L1986.04 1444.75 L1996.52 1444.94 L2007.01 1445.15 L2017.5 1445.3 L2027.98 1445.4 L2038.47 1445.47 L2048.96 1445.5 L2059.44 1445.52 L2069.93 1445.55 L2080.42 1445.58 L2090.9 1445.61 L2101.39 1445.62 L2111.88 1445.62 L2122.36 1445.62 L2132.85 1445.63 L2143.34 1445.65 L2153.82 1445.67 L2164.31 1445.68 L2174.8 1445.67 L2185.28 1445.66 L2195.77 1445.67 L2206.26 1445.7 L2216.74 1445.71 L2227.23 1445.71 L2237.72 1445.7 L2248.2 1445.69 L2258.69 1445.7 L2269.18 1445.71 L2279.66 1445.72 L2290.15 1445.72 L2290.15 1445.72 L2279.66 1445.72 L2269.18 1445.72 L2258.69 1445.72 L2248.2 1445.72 L2237.72 1445.72 L2227.23 1445.72 L2216.74 1445.72 L2206.26 1445.72 L2195.77 1445.72 L2185.28 1445.72 L2174.8 1445.72 L2164.31 1445.72 L2153.82 1445.72 L2143.34 1445.72 L2132.85 1445.72 L2122.36 1445.72 L2111.88 1445.72 L2101.39 1445.72 L2090.9 1445.72 L2080.42 1445.72 L2069.93 1445.72 L2059.44 1445.72 L2048.96 1445.72 L2038.47 1445.72 L2027.98 1445.72 L2017.5 1445.72 L2007.01 1445.72 L1996.52 1445.72 L1986.04 1445.72 L1975.55 1445.72 L1965.06 1445.72 L1954.58 1445.72 L1944.09 1445.72 L1933.6 1445.72 L1923.12 1445.72 L1912.63 1445.72 L1902.14 1445.72 L1891.66 1445.72 L1881.17 1445.72 L1870.68 1445.72 L1860.2 1445.72 L1849.71 1445.72 L1839.22 1445.72 L1828.74 1445.72 L1818.25 1445.72 L1807.76 1445.72 L1797.28 1445.72 L1786.79 1445.72 L1776.3 1445.72 L1765.82 1445.72 L1755.33 1445.72 L1744.84 1445.72 L1734.36 1445.72 L1723.87 1445.72 L1713.38 1445.72 L1702.9 1445.72 L1692.41 1445.72 L1681.92 1445.72 L1671.44 1445.72 L1660.95 1445.72 L1650.46 1445.72 L1639.98 1445.72 L1629.49 1445.72 L1619 1445.72 L1608.52 1445.72 L1598.03 1445.72 L1587.54 1445.72 L1577.06 1445.72 L1566.57 1445.72 L1556.08 1445.72 L1545.6 1445.72 L1535.11 1445.72 L1524.62 1445.72 L1514.14 1445.72 L1503.65 1445.72 L1493.16 1445.72 L1482.68 1445.72 L1472.19 1445.72 L1461.7 1445.72 L1451.22 1445.72 L1440.73 1445.72 L1430.24 1445.72 L1419.76 1445.72 L1409.27 1445.72 L1398.78 1445.72 L1388.3 1445.72 L1377.81 1445.72 L1367.32 1445.72 L1356.84 1445.72 L1346.35 1445.72 L1335.86 1445.72 L1325.38 1445.72 L1314.89 1445.72 L1304.4 1445.72 L1293.92 1445.72 L1283.43 1445.72 L1272.94 1445.72 L1262.46 1445.72 L1251.97 1445.72 L1241.48 1445.72 L1231 1445.72 L1220.51 1445.72 L1210.02 1445.72 L1199.54 1445.72 L1189.05 1445.72 L1178.56 1445.72 L1168.08 1445.72 L1157.59 1445.72 L1147.1 1445.72 L1136.62 1445.72 L1126.13 1445.72 L1115.64 1445.72 L1105.16 1445.72 L1094.67 1445.72 L1084.18 1445.72 L1073.7 1445.72 L1063.21 1445.72 L1052.72 1445.72 L1042.24 1445.72 L1031.75 1445.72 L1021.26 1445.72 L1010.78 1445.72 L1000.29 1445.72 L989.802 1445.72 L979.315 1445.72 L968.829 1445.72 L958.342 1445.72 L947.855 1445.72 L937.369 1445.72 L926.882 1445.72 L916.395 1445.72 L905.909 1445.72 L895.422 1445.72 L884.935 1445.72 L874.449 1445.72 L863.962 1445.72 L853.475 1445.72 L842.989 1445.72 L832.502 1445.72 L822.015 1445.72 L811.528 1445.72 L801.042 1445.72 L790.555 1445.72 L780.068 1445.72 L769.582 1445.72 L759.095 1445.72 L748.608 1445.72 L738.122 1445.72 L727.635 1445.72 L717.148 1445.72 L706.662 1445.72 L696.175 1445.72 L685.688 1445.72 L675.202 1445.72 L664.715 1445.72 L654.228 1445.72 L643.742 1445.72 L633.255 1445.72 L622.768 1445.72 L612.282 1445.72 L601.795 1445.72 L591.308 1445.72 L580.822 1445.72 L570.335 1445.72 L559.848 1445.72 L549.361 1445.72 L538.875 1445.72 L528.388 1445.72 L517.901 1445.72 L507.415 1445.72 L496.928 1445.72 L486.441 1445.72 L475.955 1445.72 L465.468 1445.72 L454.981 1445.72 L444.495 1445.72 L434.008 1445.72 L423.521 1445.72 L413.035 1445.72 L402.548 1445.72 L392.061 1445.72 L381.575 1445.72 L371.088 1445.72 L360.601 1445.72 L350.115 1445.72 L339.628 1445.72 L329.141 1445.72 L318.655 1445.72 L308.168 1445.72 L297.681 1445.72 L287.194 1445.72 L276.708 1445.72 L266.221 1445.72 L255.734 1445.72 L245.248 1445.72 L234.761 1445.72 L224.274 1445.72 L213.788 1445.72 L203.301 1445.72  Z" fill="#009af9" fill-rule="evenodd" fill-opacity="1"></path>
<polyline clip-path="url(#clip792)" style="stroke:#009af9; stroke-linecap:round; stroke-linejoin:round; stroke-width:4; stroke-opacity:1; fill:none" points="203.301,1445.72 213.788,1445.72 224.274,1445.71 234.761,1445.7 245.248,1445.69 255.734,1445.68 266.221,1445.68 276.708,1445.68 287.194,1445.68 297.681,1445.66 308.168,1445.61 318.655,1445.56 329.141,1445.54 339.628,1445.54 350.115,1445.52 360.601,1445.47 371.088,1445.33 381.575,1445.17 392.061,1445.06 402.548,1445 413.035,1444.98 423.521,1444.92 434.008,1444.73 444.495,1444.42 454.981,1444.02 465.468,1443.59 475.955,1443.21 486.441,1442.82 496.928,1442.46 507.415,1442.13 517.901,1441.66 528.388,1440.84 538.875,1439.61 549.361,1438.05 559.848,1436.41 570.335,1435.02 580.822,1433.73 591.308,1432.17 601.795,1430 612.282,1427.01 622.768,1423.41 633.255,1419.67 643.742,1415.99 654.228,1412.18 664.715,1407.67 675.202,1402.06 685.688,1395.53 696.175,1388.07 706.662,1379.64 717.148,1370.7 727.635,1361.35 738.122,1350.75 748.608,1338.24 759.095,1324.91 769.582,1311.31 780.068,1296.8 790.555,1280.77 801.042,1263.28 811.528,1244.43 822.015,1223.73 832.502,1202.09 842.989,1179.61 853.475,1154.94 863.962,1128.43 874.449,1099.76 884.935,1068.24 895.422,1034.67 905.909,999.198 916.395,963.346 926.882,928.61 937.369,891.071 947.855,848.924 958.342,806.666 968.829,765.446 979.315,722.523 989.802,677.855 1000.29,634.86 1010.78,593.453 1021.26,552.52 1031.75,513.982 1042.24,476.866 1052.72,435.603 1063.21,390.295 1073.7,350.265 1084.18,317.881 1094.67,287.145 1105.16,256.595 1115.64,225.561 1126.13,191.791 1136.62,159.647 1147.1,135.744 1157.59,120.695 1168.08,110.885 1178.56,102.433 1189.05,95.5796 1199.54,91.629 1210.02,89.0896 1220.51,87.9763 1231,91.0183 1241.48,100.426 1251.97,116.212 1262.46,137.21 1272.94,162.505 1283.43,189.369 1293.92,216.036 1304.4,244.135 1314.89,274.284 1325.38,307.073 1335.86,344.765 1346.35,386.501 1356.84,427.108 1367.32,465.518 1377.81,507.114 1388.3,551.205 1398.78,593.391 1409.27,635.307 1419.76,677.187 1430.24,716.166 1440.73,754.596 1451.22,795.737 1461.7,838.685 1472.19,880.142 1482.68,917.961 1493.16,954.126 1503.65,989.665 1514.14,1023.14 1524.62,1055.42 1535.11,1086.69 1545.6,1115.53 1556.08,1143.3 1566.57,1171.19 1577.06,1197.66 1587.54,1221.51 1598.03,1242.41 1608.52,1260.52 1619,1276.99 1629.49,1293.16 1639.98,1309.06 1650.46,1323.65 1660.95,1336.66 1671.44,1348.41 1681.92,1359.09 1692.41,1368.84 1702.9,1378.11 1713.38,1386.65 1723.87,1394.06 1734.36,1400.35 1744.84,1405.85 1755.33,1410.97 1765.82,1415.56 1776.3,1419.47 1786.79,1422.93 1797.28,1425.93 1807.76,1428.55 1818.25,1430.82 1828.74,1432.89 1839.22,1435.03 1849.71,1436.85 1860.2,1438.05 1870.68,1439.06 1881.17,1440.22 1891.66,1441.24 1902.14,1441.93 1912.63,1442.47 1923.12,1442.93 1933.6,1443.34 1944.09,1443.72 1954.58,1444.08 1965.06,1444.38 1975.55,1444.59 1986.04,1444.75 1996.52,1444.94 2007.01,1445.15 2017.5,1445.3 2027.98,1445.4 2038.47,1445.47 2048.96,1445.5 2059.44,1445.52 2069.93,1445.55 2080.42,1445.58 2090.9,1445.61 2101.39,1445.62 2111.88,1445.62 2122.36,1445.62 2132.85,1445.63 2143.34,1445.65 2153.82,1445.67 2164.31,1445.68 2174.8,1445.67 2185.28,1445.66 2195.77,1445.67 2206.26,1445.7 2216.74,1445.71 2227.23,1445.71 2237.72,1445.7 2248.2,1445.69 2258.69,1445.7 2269.18,1445.71 2279.66,1445.72 2290.15,1445.72 "></polyline>
<polyline clip-path="url(#clip792)" style="stroke:#e26f46; stroke-linecap:round; stroke-linejoin:round; stroke-width:4; stroke-opacity:1; fill:none" points="1232.48,2925.65 1232.48,-1391.96 "></polyline>
<path clip-path="url(#clip790)" d="M2005.38 198.898 L2279.02 198.898 L2279.02 95.2176 L2005.38 95.2176  Z" fill="#ffffff" fill-rule="evenodd" fill-opacity="1"></path>
<polyline clip-path="url(#clip790)" style="stroke:#000000; stroke-linecap:round; stroke-linejoin:round; stroke-width:4; stroke-opacity:1; fill:none" points="2005.38,198.898 2279.02,198.898 2279.02,95.2176 2005.38,95.2176 2005.38,198.898 "></polyline>
<path clip-path="url(#clip790)" d="M2029.96 167.794 L2177.43 167.794 L2177.43 126.322 L2029.96 126.322 L2029.96 167.794  Z" fill="#009af9" fill-rule="evenodd" fill-opacity="1"></path>
<polyline clip-path="url(#clip790)" style="stroke:#009af9; stroke-linecap:round; stroke-linejoin:round; stroke-width:4; stroke-opacity:1; fill:none" points="2029.96,126.322 2177.43,126.322 "></polyline>
<path clip-path="url(#clip790)" d="M2215.85 166.745 Q2214.05 171.375 2212.34 172.787 Q2210.62 174.199 2207.75 174.199 L2204.35 174.199 L2204.35 170.634 L2206.85 170.634 Q2208.61 170.634 2209.58 169.8 Q2210.55 168.967 2211.73 165.865 L2212.5 163.921 L2202.01 138.412 L2206.53 138.412 L2214.63 158.689 L2222.73 138.412 L2227.24 138.412 L2215.85 166.745 Z" fill="#000000" fill-rule="nonzero" fill-opacity="1"></path><path clip-path="url(#clip790)" d="M2234.53 160.402 L2242.17 160.402 L2242.17 134.037 L2233.86 135.703 L2233.86 131.444 L2242.13 129.778 L2246.8 129.778 L2246.8 160.402 L2254.44 160.402 L2254.44 164.338 L2234.53 164.338 L2234.53 160.402 Z" fill="#000000" fill-rule="nonzero" fill-opacity="1"></path></svg>