<svg xmlns="http://www.w3.org/2000/svg" xmlns:xlink="http://www.w3.org/1999/xlink" width="600" height="400" viewBox="0 0 2400 1600">
<defs>
  <clipPath id="clip650">
    <rect x="0" y="0" width="2400" height="1600"></rect>
  </clipPath>
</defs>
<path clip-path="url(#clip650)" d="M0 1600 L2400 1600 L2400 8.88178e-14 L0 8.88178e-14  Z" fill="#ffffff" fill-rule="evenodd" fill-opacity="1"></path>
<defs>
  <clipPath id="clip651">
    <rect x="480" y="0" width="1681" height="1600"></rect>
  </clipPath>
</defs>
<path clip-path="url(#clip650)" d="M147.709 1486.45 L2352.76 1486.45 L2352.76 47.2441 L147.709 47.2441  Z" fill="#ffffff" fill-rule="evenodd" fill-opacity="1"></path>
<defs>
  <clipPath id="clip652">
    <rect x="147" y="47" width="2206" height="1440"></rect>
  </clipPath>
</defs>
<polyline clip-path="url(#clip652)" style="stroke:#000000; stroke-linecap:round; stroke-linejoin:round; stroke-width:2; stroke-opacity:0.1; fill:none" points="205.948,1486.45 205.948,47.2441 "></polyline>
<polyline clip-path="url(#clip652)" style="stroke:#000000; stroke-linecap:round; stroke-linejoin:round; stroke-width:2; stroke-opacity:0.1; fill:none" points="622.828,1486.45 622.828,47.2441 "></polyline>
<polyline clip-path="url(#clip652)" style="stroke:#000000; stroke-linecap:round; stroke-linejoin:round; stroke-width:2; stroke-opacity:0.1; fill:none" points="1039.71,1486.45 1039.71,47.2441 "></polyline>
<polyline clip-path="url(#clip652)" style="stroke:#000000; stroke-linecap:round; stroke-linejoin:round; stroke-width:2; stroke-opacity:0.1; fill:none" points="1456.59,1486.45 1456.59,47.2441 "></polyline>
<polyline clip-path="url(#clip652)" style="stroke:#000000; stroke-linecap:round; stroke-linejoin:round; stroke-width:2; stroke-opacity:0.1; fill:none" points="1873.47,1486.45 1873.47,47.2441 "></polyline>
<polyline clip-path="url(#clip652)" style="stroke:#000000; stroke-linecap:round; stroke-linejoin:round; stroke-width:2; stroke-opacity:0.1; fill:none" points="2290.35,1486.45 2290.35,47.2441 "></polyline>
<polyline clip-path="url(#clip652)" style="stroke:#000000; stroke-linecap:round; stroke-linejoin:round; stroke-width:2; stroke-opacity:0.1; fill:none" points="147.709,1271.17 2352.76,1271.17 "></polyline>
<polyline clip-path="url(#clip652)" style="stroke:#000000; stroke-linecap:round; stroke-linejoin:round; stroke-width:2; stroke-opacity:0.1; fill:none" points="147.709,910.515 2352.76,910.515 "></polyline>
<polyline clip-path="url(#clip652)" style="stroke:#000000; stroke-linecap:round; stroke-linejoin:round; stroke-width:2; stroke-opacity:0.1; fill:none" points="147.709,549.857 2352.76,549.857 "></polyline>
<polyline clip-path="url(#clip652)" style="stroke:#000000; stroke-linecap:round; stroke-linejoin:round; stroke-width:2; stroke-opacity:0.1; fill:none" points="147.709,189.199 2352.76,189.199 "></polyline>
<polyline clip-path="url(#clip650)" style="stroke:#000000; stroke-linecap:round; stroke-linejoin:round; stroke-width:4; stroke-opacity:1; fill:none" points="147.709,1486.45 2352.76,1486.45 "></polyline>
<polyline clip-path="url(#clip650)" style="stroke:#000000; stroke-linecap:round; stroke-linejoin:round; stroke-width:4; stroke-opacity:1; fill:none" points="205.948,1486.45 205.948,1467.55 "></polyline>
<polyline clip-path="url(#clip650)" style="stroke:#000000; stroke-linecap:round; stroke-linejoin:round; stroke-width:4; stroke-opacity:1; fill:none" points="622.828,1486.45 622.828,1467.55 "></polyline>
<polyline clip-path="url(#clip650)" style="stroke:#000000; stroke-linecap:round; stroke-linejoin:round; stroke-width:4; stroke-opacity:1; fill:none" points="1039.71,1486.45 1039.71,1467.55 "></polyline>
<polyline clip-path="url(#clip650)" style="stroke:#000000; stroke-linecap:round; stroke-linejoin:round; stroke-width:4; stroke-opacity:1; fill:none" points="1456.59,1486.45 1456.59,1467.55 "></polyline>
<polyline clip-path="url(#clip650)" style="stroke:#000000; stroke-linecap:round; stroke-linejoin:round; stroke-width:4; stroke-opacity:1; fill:none" points="1873.47,1486.45 1873.47,1467.55 "></polyline>
<polyline clip-path="url(#clip650)" style="stroke:#000000; stroke-linecap:round; stroke-linejoin:round; stroke-width:4; stroke-opacity:1; fill:none" points="2290.35,1486.45 2290.35,1467.55 "></polyline>
<path clip-path="url(#clip650)" d="M205.948 1517.37 Q202.336 1517.37 200.508 1520.93 Q198.702 1524.47 198.702 1531.6 Q198.702 1538.71 200.508 1542.27 Q202.336 1545.82 205.948 1545.82 Q209.582 1545.82 211.387 1542.27 Q213.216 1538.71 213.216 1531.6 Q213.216 1524.47 211.387 1520.93 Q209.582 1517.37 205.948 1517.37 M205.948 1513.66 Q211.758 1513.66 214.813 1518.27 Q217.892 1522.85 217.892 1531.6 Q217.892 1540.33 214.813 1544.94 Q211.758 1549.52 205.948 1549.52 Q200.137 1549.52 197.059 1544.94 Q194.003 1540.33 194.003 1531.6 Q194.003 1522.85 197.059 1518.27 Q200.137 1513.66 205.948 1513.66 Z" fill="#000000" fill-rule="nonzero" fill-opacity="1"></path><path clip-path="url(#clip650)" d="M582.435 1544.91 L590.073 1544.91 L590.073 1518.55 L581.763 1520.21 L581.763 1515.95 L590.027 1514.29 L594.703 1514.29 L594.703 1544.91 L602.342 1544.91 L602.342 1548.85 L582.435 1548.85 L582.435 1544.91 Z" fill="#000000" fill-rule="nonzero" fill-opacity="1"></path><path clip-path="url(#clip650)" d="M621.786 1517.37 Q618.175 1517.37 616.346 1520.93 Q614.541 1524.47 614.541 1531.6 Q614.541 1538.71 616.346 1542.27 Q618.175 1545.82 621.786 1545.82 Q625.42 1545.82 627.226 1542.27 Q629.055 1538.71 629.055 1531.6 Q629.055 1524.47 627.226 1520.93 Q625.42 1517.37 621.786 1517.37 M621.786 1513.66 Q627.596 1513.66 630.652 1518.27 Q633.731 1522.85 633.731 1531.6 Q633.731 1540.33 630.652 1544.94 Q627.596 1549.52 621.786 1549.52 Q615.976 1549.52 612.897 1544.94 Q609.842 1540.33 609.842 1531.6 Q609.842 1522.85 612.897 1518.27 Q615.976 1513.66 621.786 1513.66 Z" fill="#000000" fill-rule="nonzero" fill-opacity="1"></path><path clip-path="url(#clip650)" d="M651.948 1517.37 Q648.337 1517.37 646.508 1520.93 Q644.703 1524.47 644.703 1531.6 Q644.703 1538.71 646.508 1542.27 Q648.337 1545.82 651.948 1545.82 Q655.582 1545.82 657.388 1542.27 Q659.217 1538.71 659.217 1531.6 Q659.217 1524.47 657.388 1520.93 Q655.582 1517.37 651.948 1517.37 M651.948 1513.66 Q657.758 1513.66 660.814 1518.27 Q663.892 1522.85 663.892 1531.6 Q663.892 1540.33 660.814 1544.94 Q657.758 1549.52 651.948 1549.52 Q646.138 1549.52 643.059 1544.94 Q640.004 1540.33 640.004 1531.6 Q640.004 1522.85 643.059 1518.27 Q646.138 1513.66 651.948 1513.66 Z" fill="#000000" fill-rule="nonzero" fill-opacity="1"></path><path clip-path="url(#clip650)" d="M1003.4 1544.91 L1019.72 1544.91 L1019.72 1548.85 L997.775 1548.85 L997.775 1544.91 Q1000.44 1542.16 1005.02 1537.53 Q1009.63 1532.88 1010.81 1531.53 Q1013.05 1529.01 1013.93 1527.27 Q1014.84 1525.51 1014.84 1523.82 Q1014.84 1521.07 1012.89 1519.33 Q1010.97 1517.6 1007.87 1517.6 Q1005.67 1517.6 1003.22 1518.36 Q1000.78 1519.13 998.007 1520.68 L998.007 1515.95 Q1000.83 1514.82 1003.28 1514.24 Q1005.74 1513.66 1007.78 1513.66 Q1013.15 1513.66 1016.34 1516.35 Q1019.53 1519.03 1019.53 1523.52 Q1019.53 1525.65 1018.72 1527.57 Q1017.94 1529.47 1015.83 1532.07 Q1015.25 1532.74 1012.15 1535.95 Q1009.05 1539.15 1003.4 1544.91 Z" fill="#000000" fill-rule="nonzero" fill-opacity="1"></path><path clip-path="url(#clip650)" d="M1039.53 1517.37 Q1035.92 1517.37 1034.09 1520.93 Q1032.29 1524.47 1032.29 1531.6 Q1032.29 1538.71 1034.09 1542.27 Q1035.92 1545.82 1039.53 1545.82 Q1043.17 1545.82 1044.97 1542.27 Q1046.8 1538.71 1046.8 1531.6 Q1046.8 1524.47 1044.97 1520.93 Q1043.17 1517.37 1039.53 1517.37 M1039.53 1513.66 Q1045.34 1513.66 1048.4 1518.27 Q1051.48 1522.85 1051.48 1531.6 Q1051.48 1540.33 1048.4 1544.94 Q1045.34 1549.52 1039.53 1549.52 Q1033.72 1549.52 1030.65 1544.94 Q1027.59 1540.33 1027.59 1531.6 Q1027.59 1522.85 1030.65 1518.27 Q1033.72 1513.66 1039.53 1513.66 Z" fill="#000000" fill-rule="nonzero" fill-opacity="1"></path><path clip-path="url(#clip650)" d="M1069.7 1517.37 Q1066.09 1517.37 1064.26 1520.93 Q1062.45 1524.47 1062.45 1531.6 Q1062.45 1538.71 1064.26 1542.27 Q1066.09 1545.82 1069.7 1545.82 Q1073.33 1545.82 1075.14 1542.27 Q1076.96 1538.71 1076.96 1531.6 Q1076.96 1524.47 1075.14 1520.93 Q1073.33 1517.37 1069.7 1517.37 M1069.7 1513.66 Q1075.51 1513.66 1078.56 1518.27 Q1081.64 1522.85 1081.64 1531.6 Q1081.64 1540.33 1078.56 1544.94 Q1075.51 1549.52 1069.7 1549.52 Q1063.89 1549.52 1060.81 1544.94 Q1057.75 1540.33 1057.75 1531.6 Q1057.75 1522.85 1060.81 1518.27 Q1063.89 1513.66 1069.7 1513.66 Z" fill="#000000" fill-rule="nonzero" fill-opacity="1"></path><path clip-path="url(#clip650)" d="M1430.35 1530.21 Q1433.71 1530.93 1435.58 1533.2 Q1437.48 1535.47 1437.48 1538.8 Q1437.48 1543.92 1433.96 1546.72 Q1430.44 1549.52 1423.96 1549.52 Q1421.79 1549.52 1419.47 1549.08 Q1417.18 1548.66 1414.73 1547.81 L1414.73 1543.29 Q1416.67 1544.43 1418.98 1545.01 Q1421.3 1545.58 1423.82 1545.58 Q1428.22 1545.58 1430.51 1543.85 Q1432.83 1542.11 1432.83 1538.8 Q1432.83 1535.75 1430.67 1534.03 Q1428.54 1532.3 1424.73 1532.3 L1420.7 1532.3 L1420.7 1528.45 L1424.91 1528.45 Q1428.36 1528.45 1430.19 1527.09 Q1432.02 1525.7 1432.02 1523.11 Q1432.02 1520.45 1430.12 1519.03 Q1428.24 1517.6 1424.73 1517.6 Q1422.8 1517.6 1420.6 1518.01 Q1418.41 1518.43 1415.77 1519.31 L1415.77 1515.14 Q1418.43 1514.4 1420.74 1514.03 Q1423.08 1513.66 1425.14 1513.66 Q1430.47 1513.66 1433.57 1516.09 Q1436.67 1518.5 1436.67 1522.62 Q1436.67 1525.49 1435.03 1527.48 Q1433.38 1529.45 1430.35 1530.21 Z" fill="#000000" fill-rule="nonzero" fill-opacity="1"></path><path clip-path="url(#clip650)" d="M1456.35 1517.37 Q1452.73 1517.37 1450.91 1520.93 Q1449.1 1524.47 1449.1 1531.6 Q1449.1 1538.71 1450.91 1542.27 Q1452.73 1545.82 1456.35 1545.82 Q1459.98 1545.82 1461.79 1542.27 Q1463.61 1538.71 1463.61 1531.6 Q1463.61 1524.47 1461.79 1520.93 Q1459.98 1517.37 1456.35 1517.37 M1456.35 1513.66 Q1462.16 1513.66 1465.21 1518.27 Q1468.29 1522.85 1468.29 1531.6 Q1468.29 1540.33 1465.21 1544.94 Q1462.16 1549.52 1456.35 1549.52 Q1450.54 1549.52 1447.46 1544.94 Q1444.4 1540.33 1444.4 1531.6 Q1444.4 1522.85 1447.46 1518.27 Q1450.54 1513.66 1456.35 1513.66 Z" fill="#000000" fill-rule="nonzero" fill-opacity="1"></path><path clip-path="url(#clip650)" d="M1486.51 1517.37 Q1482.9 1517.37 1481.07 1520.93 Q1479.26 1524.47 1479.26 1531.6 Q1479.26 1538.71 1481.07 1542.27 Q1482.9 1545.82 1486.51 1545.82 Q1490.14 1545.82 1491.95 1542.27 Q1493.78 1538.71 1493.78 1531.6 Q1493.78 1524.47 1491.95 1520.93 Q1490.14 1517.37 1486.51 1517.37 M1486.51 1513.66 Q1492.32 1513.66 1495.37 1518.27 Q1498.45 1522.85 1498.45 1531.6 Q1498.45 1540.33 1495.37 1544.94 Q1492.32 1549.52 1486.51 1549.52 Q1480.7 1549.52 1477.62 1544.94 Q1474.56 1540.33 1474.56 1531.6 Q1474.56 1522.85 1477.62 1518.27 Q1480.7 1513.66 1486.51 1513.66 Z" fill="#000000" fill-rule="nonzero" fill-opacity="1"></path><path clip-path="url(#clip650)" d="M1846.56 1518.36 L1834.75 1536.81 L1846.56 1536.81 L1846.56 1518.36 M1845.33 1514.29 L1851.21 1514.29 L1851.21 1536.81 L1856.14 1536.81 L1856.14 1540.7 L1851.21 1540.7 L1851.21 1548.85 L1846.56 1548.85 L1846.56 1540.7 L1830.96 1540.7 L1830.96 1536.19 L1845.33 1514.29 Z" fill="#000000" fill-rule="nonzero" fill-opacity="1"></path><path clip-path="url(#clip650)" d="M1873.87 1517.37 Q1870.26 1517.37 1868.43 1520.93 Q1866.63 1524.47 1866.63 1531.6 Q1866.63 1538.71 1868.43 1542.27 Q1870.26 1545.82 1873.87 1545.82 Q1877.51 1545.82 1879.31 1542.27 Q1881.14 1538.71 1881.14 1531.6 Q1881.14 1524.47 1879.31 1520.93 Q1877.51 1517.37 1873.87 1517.37 M1873.87 1513.66 Q1879.68 1513.66 1882.74 1518.27 Q1885.82 1522.85 1885.82 1531.6 Q1885.82 1540.33 1882.74 1544.94 Q1879.68 1549.52 1873.87 1549.52 Q1868.06 1549.52 1864.98 1544.94 Q1861.93 1540.33 1861.93 1531.6 Q1861.93 1522.85 1864.98 1518.27 Q1868.06 1513.66 1873.87 1513.66 Z" fill="#000000" fill-rule="nonzero" fill-opacity="1"></path><path clip-path="url(#clip650)" d="M1904.04 1517.37 Q1900.42 1517.37 1898.6 1520.93 Q1896.79 1524.47 1896.79 1531.6 Q1896.79 1538.71 1898.6 1542.27 Q1900.42 1545.82 1904.04 1545.82 Q1907.67 1545.82 1909.48 1542.27 Q1911.3 1538.71 1911.3 1531.6 Q1911.3 1524.47 1909.48 1520.93 Q1907.67 1517.37 1904.04 1517.37 M1904.04 1513.66 Q1909.85 1513.66 1912.9 1518.27 Q1915.98 1522.85 1915.98 1531.6 Q1915.98 1540.33 1912.9 1544.94 Q1909.85 1549.52 1904.04 1549.52 Q1898.23 1549.52 1895.15 1544.94 Q1892.09 1540.33 1892.09 1531.6 Q1892.09 1522.85 1895.15 1518.27 Q1898.23 1513.66 1904.04 1513.66 Z" fill="#000000" fill-rule="nonzero" fill-opacity="1"></path><path clip-path="url(#clip650)" d="M2249.97 1514.29 L2268.32 1514.29 L2268.32 1518.22 L2254.25 1518.22 L2254.25 1526.7 Q2255.27 1526.35 2256.29 1526.19 Q2257.31 1526 2258.32 1526 Q2264.11 1526 2267.49 1529.17 Q2270.87 1532.34 2270.87 1537.76 Q2270.87 1543.34 2267.4 1546.44 Q2263.93 1549.52 2257.61 1549.52 Q2255.43 1549.52 2253.16 1549.15 Q2250.92 1548.78 2248.51 1548.04 L2248.51 1543.34 Q2250.59 1544.47 2252.81 1545.03 Q2255.04 1545.58 2257.51 1545.58 Q2261.52 1545.58 2263.86 1543.48 Q2266.19 1541.37 2266.19 1537.76 Q2266.19 1534.15 2263.86 1532.04 Q2261.52 1529.94 2257.51 1529.94 Q2255.64 1529.94 2253.76 1530.35 Q2251.91 1530.77 2249.97 1531.65 L2249.97 1514.29 Z" fill="#000000" fill-rule="nonzero" fill-opacity="1"></path><path clip-path="url(#clip650)" d="M2290.08 1517.37 Q2286.47 1517.37 2284.64 1520.93 Q2282.84 1524.47 2282.84 1531.6 Q2282.84 1538.71 2284.64 1542.27 Q2286.47 1545.82 2290.08 1545.82 Q2293.72 1545.82 2295.52 1542.27 Q2297.35 1538.71 2297.35 1531.6 Q2297.35 1524.47 2295.52 1520.93 Q2293.72 1517.37 2290.08 1517.37 M2290.08 1513.66 Q2295.89 1513.66 2298.95 1518.27 Q2302.03 1522.85 2302.03 1531.6 Q2302.03 1540.33 2298.95 1544.94 Q2295.89 1549.52 2290.08 1549.52 Q2284.27 1549.52 2281.19 1544.94 Q2278.14 1540.33 2278.14 1531.6 Q2278.14 1522.85 2281.19 1518.27 Q2284.27 1513.66 2290.08 1513.66 Z" fill="#000000" fill-rule="nonzero" fill-opacity="1"></path><path clip-path="url(#clip650)" d="M2320.24 1517.37 Q2316.63 1517.37 2314.8 1520.93 Q2313 1524.47 2313 1531.6 Q2313 1538.71 2314.8 1542.27 Q2316.63 1545.82 2320.24 1545.82 Q2323.88 1545.82 2325.68 1542.27 Q2327.51 1538.71 2327.51 1531.6 Q2327.51 1524.47 2325.68 1520.93 Q2323.88 1517.37 2320.24 1517.37 M2320.24 1513.66 Q2326.05 1513.66 2329.11 1518.27 Q2332.19 1522.85 2332.19 1531.6 Q2332.19 1540.33 2329.11 1544.94 Q2326.05 1549.52 2320.24 1549.52 Q2314.43 1549.52 2311.36 1544.94 Q2308.3 1540.33 2308.3 1531.6 Q2308.3 1522.85 2311.36 1518.27 Q2314.43 1513.66 2320.24 1513.66 Z" fill="#000000" fill-rule="nonzero" fill-opacity="1"></path><polyline clip-path="url(#clip650)" style="stroke:#000000; stroke-linecap:round; stroke-linejoin:round; stroke-width:4; stroke-opacity:1; fill:none" points="147.709,1486.45 147.709,47.2441 "></polyline>
<polyline clip-path="url(#clip650)" style="stroke:#000000; stroke-linecap:round; stroke-linejoin:round; stroke-width:4; stroke-opacity:1; fill:none" points="147.709,1271.17 166.607,1271.17 "></polyline>
<polyline clip-path="url(#clip650)" style="stroke:#000000; stroke-linecap:round; stroke-linejoin:round; stroke-width:4; stroke-opacity:1; fill:none" points="147.709,910.515 166.607,910.515 "></polyline>
<polyline clip-path="url(#clip650)" style="stroke:#000000; stroke-linecap:round; stroke-linejoin:round; stroke-width:4; stroke-opacity:1; fill:none" points="147.709,549.857 166.607,549.857 "></polyline>
<polyline clip-path="url(#clip650)" style="stroke:#000000; stroke-linecap:round; stroke-linejoin:round; stroke-width:4; stroke-opacity:1; fill:none" points="147.709,189.199 166.607,189.199 "></polyline>
<path clip-path="url(#clip650)" d="M50.9921 1271.62 L80.6679 1271.62 L80.6679 1275.56 L50.9921 1275.56 L50.9921 1271.62 Z" fill="#000000" fill-rule="nonzero" fill-opacity="1"></path><path clip-path="url(#clip650)" d="M90.8067 1253.89 L109.163 1253.89 L109.163 1257.83 L95.0891 1257.83 L95.0891 1266.3 Q96.1076 1265.95 97.1261 1265.79 Q98.1447 1265.61 99.1632 1265.61 Q104.95 1265.61 108.33 1268.78 Q111.709 1271.95 111.709 1277.36 Q111.709 1282.94 108.237 1286.05 Q104.765 1289.12 98.4456 1289.12 Q96.2697 1289.12 94.0012 1288.75 Q91.7558 1288.38 89.3484 1287.64 L89.3484 1282.94 Q91.4317 1284.08 93.6539 1284.63 Q95.8761 1285.19 98.353 1285.19 Q102.358 1285.19 104.696 1283.08 Q107.033 1280.98 107.033 1277.36 Q107.033 1273.75 104.696 1271.65 Q102.358 1269.54 98.353 1269.54 Q96.478 1269.54 94.603 1269.96 Q92.7512 1270.37 90.8067 1271.25 L90.8067 1253.89 Z" fill="#000000" fill-rule="nonzero" fill-opacity="1"></path><path clip-path="url(#clip650)" d="M99.765 896.313 Q96.1539 896.313 94.3252 899.878 Q92.5197 903.42 92.5197 910.549 Q92.5197 917.656 94.3252 921.221 Q96.1539 924.762 99.765 924.762 Q103.399 924.762 105.205 921.221 Q107.033 917.656 107.033 910.549 Q107.033 903.42 105.205 899.878 Q103.399 896.313 99.765 896.313 M99.765 892.61 Q105.575 892.61 108.631 897.216 Q111.709 901.8 111.709 910.549 Q111.709 919.276 108.631 923.883 Q105.575 928.466 99.765 928.466 Q93.9549 928.466 90.8762 923.883 Q87.8206 919.276 87.8206 910.549 Q87.8206 901.8 90.8762 897.216 Q93.9549 892.61 99.765 892.61 Z" fill="#000000" fill-rule="nonzero" fill-opacity="1"></path><path clip-path="url(#clip650)" d="M90.8067 532.577 L109.163 532.577 L109.163 536.512 L95.0891 536.512 L95.0891 544.984 Q96.1076 544.637 97.1261 544.475 Q98.1447 544.29 99.1632 544.29 Q104.95 544.29 108.33 547.461 Q111.709 550.632 111.709 556.049 Q111.709 561.628 108.237 564.729 Q104.765 567.808 98.4456 567.808 Q96.2697 567.808 94.0012 567.438 Q91.7558 567.067 89.3484 566.327 L89.3484 561.628 Q91.4317 562.762 93.6539 563.317 Q95.8761 563.873 98.353 563.873 Q102.358 563.873 104.696 561.766 Q107.033 559.66 107.033 556.049 Q107.033 552.438 104.696 550.331 Q102.358 548.225 98.353 548.225 Q96.478 548.225 94.603 548.642 Q92.7512 549.058 90.8067 549.938 L90.8067 532.577 Z" fill="#000000" fill-rule="nonzero" fill-opacity="1"></path><path clip-path="url(#clip650)" d="M60.4134 202.544 L68.0522 202.544 L68.0522 176.178 L59.7421 177.845 L59.7421 173.585 L68.0059 171.919 L72.6818 171.919 L72.6818 202.544 L80.3207 202.544 L80.3207 206.479 L60.4134 206.479 L60.4134 202.544 Z" fill="#000000" fill-rule="nonzero" fill-opacity="1"></path><path clip-path="url(#clip650)" d="M99.765 174.998 Q96.1539 174.998 94.3252 178.562 Q92.5197 182.104 92.5197 189.234 Q92.5197 196.34 94.3252 199.905 Q96.1539 203.446 99.765 203.446 Q103.399 203.446 105.205 199.905 Q107.033 196.34 107.033 189.234 Q107.033 182.104 105.205 178.562 Q103.399 174.998 99.765 174.998 M99.765 171.294 Q105.575 171.294 108.631 175.9 Q111.709 180.484 111.709 189.234 Q111.709 197.96 108.631 202.567 Q105.575 207.15 99.765 207.15 Q93.9549 207.15 90.8762 202.567 Q87.8206 197.96 87.8206 189.234 Q87.8206 180.484 90.8762 175.9 Q93.9549 171.294 99.765 171.294 Z" fill="#000000" fill-rule="nonzero" fill-opacity="1"></path><polyline clip-path="url(#clip652)" style="stroke:#009af9; stroke-linecap:round; stroke-linejoin:round; stroke-width:4; stroke-opacity:1; fill:none" points="210.116,903.302 214.285,994.008 218.454,997.496 222.623,984.177 226.792,950.594 230.96,954.447 235.129,930.871 239.298,1056.11 243.467,954.147 247.636,994.641 251.804,1073.33 255.973,1090.04 260.142,1057.02 264.311,1004.23 268.48,1020.04 272.648,902.762 276.817,1026.43 280.986,905.832 285.155,988.391 289.324,941.31 293.492,965.511 297.661,907.229 301.83,944.311 305.999,930.193 310.168,693.971 314.336,605.152 318.505,726.427 322.674,803.211 326.843,926.511 331.012,995.59 335.18,980.056 339.349,1043.47 343.518,1162.01 347.687,1111.33 351.856,1024.5 356.024,1079.83 360.193,1154.12 364.362,1136.29 368.531,1202.58 372.7,1069.97 376.868,1130.94 381.037,1147.23 385.206,1157.71 389.375,1071.02 393.544,1065.72 397.712,942.447 401.881,1014.12 406.05,999.509 410.219,1026.25 414.388,1031.24 418.557,999.836 422.725,1054.79 426.894,1156.37 431.063,1287.1 435.232,1251.49 439.401,1239.83 443.569,1086.55 447.738,1004.19 451.907,1016.25 456.076,1046.3 460.245,1061.04 464.413,1022.28 468.582,949.255 472.751,900.386 476.92,924.937 481.089,881.782 485.257,960.951 489.426,959.731 493.595,1053.97 497.764,1058.37 501.933,1079.48 506.101,1058.59 510.27,1055.85 514.439,999.398 518.608,1026.41 522.777,967.897 526.945,876.755 531.114,864.012 535.283,748.015 539.452,659.002 543.621,629.738 547.789,410.656 551.958,430.533 556.127,461.024 560.296,380.246 564.465,460.939 568.633,483.634 572.802,494.23 576.971,716.064 581.14,792.638 585.309,776.125 589.477,843.47 593.646,880.863 597.815,845.133 601.984,787.687 606.153,827.453 610.321,831.436 614.49,852.881 618.659,887.749 622.828,925.556 626.997,938.4 631.165,858.33 635.334,941.128 639.503,791.888 643.672,768.95 647.841,661.198 652.009,625.109 656.178,616.561 660.347,589.103 664.516,645.87 668.685,612.37 672.853,747.24 677.022,775.812 681.191,794.061 685.36,777.185 689.529,836.433 693.697,851.778 697.866,981.025 702.035,978.291 706.204,1073.59 710.373,1082.54 714.541,1026.76 718.71,1025.34 722.879,1110.38 727.048,972.568 731.217,945.248 735.386,1037.73 739.554,1040.98 743.723,1134.73 747.892,1117.63 752.061,1224.64 756.23,1263.92 760.398,1244.86 764.567,1195.98 768.736,1184.66 772.905,1227.07 777.074,1261.62 781.242,1268.28 785.411,1272.39 789.58,1353.19 793.749,1399.64 797.918,1278.72 802.086,1410.35 806.255,1428.36 810.424,1392.87 814.593,1429.98 818.762,1349.75 822.93,1336.51 827.099,1170.77 831.268,1102.07 835.437,1055.71 839.606,1133.85 843.774,1184.24 847.943,1089.77 852.112,1089.57 856.281,1046.74 860.45,989.833 864.618,1079 868.787,1089.88 872.956,1173.18 877.125,1183.94 881.294,1151.01 885.462,1236.04 889.631,1360.58 893.8,1346.59 897.969,1251.11 902.138,1250.68 906.306,1243.09 910.475,1322.59 914.644,1253.34 918.813,1352.38 922.982,1288.9 927.15,1290.75 931.319,1311.35 935.488,1408.53 939.657,1370.6 943.826,1417.74 947.994,1359.13 952.163,1340.38 956.332,1337.33 960.501,1263.45 964.67,1167.59 968.838,1137.23 973.007,1023.74 977.176,1067.59 981.345,1088.67 985.514,1098.01 989.682,1096.89 993.851,1031.18 998.02,921.916 1002.19,910.739 1006.36,873.225 1010.53,840.434 1014.7,958.368 1018.86,978.178 1023.03,884.987 1027.2,964.62 1031.37,860.981 1035.54,848.671 1039.71,734.413 1043.88,612.499 1048.05,729.501 1052.21,620.6 1056.38,615.811 1060.55,561.115 1064.72,512.435 1068.89,485.323 1073.06,427.946 1077.23,429.01 1081.4,456.702 1085.56,460.733 1089.73,434.719 1093.9,439.039 1098.07,400.419 1102.24,404.848 1106.41,305.759 1110.58,444.333 1114.75,416.084 1118.92,421.042 1123.08,316.316 1127.25,245.561 1131.42,251.678 1135.59,143.013 1139.76,333.981 1143.93,344.375 1148.1,286.034 1152.27,394.353 1156.43,343.773 1160.6,334.865 1164.77,232.881 1168.94,299.905 1173.11,200.856 1177.28,149.385 1181.45,175.019 1185.62,168.033 1189.79,87.9763 1193.95,298.785 1198.12,431.811 1202.29,460.065 1206.46,496.463 1210.63,599.709 1214.8,509.26 1218.97,577.632 1223.14,591.597 1227.3,767.244 1231.47,866.698 1235.64,827.751 1239.81,942.998 1243.98,1017.37 1248.15,1057.27 1252.32,1131.95 1256.49,1203.83 1260.65,1243.18 1264.82,1310.47 1268.99,1376.08 1273.16,1445.72 1277.33,1412.98 1281.5,1411.2 1285.67,1439.63 1289.84,1423.45 1294.01,1190.2 1298.17,1159.62 1302.34,1196.58 1306.51,1192.16 1310.68,1189.86 1314.85,1030.6 1319.02,917.964 1323.19,908.889 1327.36,930.429 1331.52,920.496 1335.69,962.965 1339.86,886.541 1344.03,949.599 1348.2,873.529 1352.37,846.2 1356.54,774.446 1360.71,634.817 1364.87,585.166 1369.04,642.769 1373.21,683.478 1377.38,660.096 1381.55,643.159 1385.72,703.357 1389.89,731.634 1394.06,824.404 1398.23,942.367 1402.39,961.565 1406.56,1021.97 1410.73,1046.96 1414.9,1188.26 1419.07,1208.89 1423.24,1278.49 1427.41,1119.93 1431.58,1083.98 1435.74,1131.19 1439.91,1128.37 1444.08,1179.89 1448.25,1225.93 1452.42,1224.91 1456.59,1325.78 1460.76,1224.64 1464.93,1159.27 1469.09,1183.31 1473.26,1328.48 1477.43,1407.42 1481.6,1354.53 1485.77,1250.53 1489.94,1346.92 1494.11,1238.7 1498.28,1342.17 1502.45,1394.83 1506.61,1293.78 1510.78,1324.53 1514.95,1302.21 1519.12,1282.02 1523.29,1293.05 1527.46,1334.43 1531.63,1242.09 1535.8,1306.14 1539.96,1196.84 1544.13,1114.24 1548.3,1113.4 1552.47,1023.94 1556.64,1112.62 1560.81,1123.51 1564.98,1078.9 1569.15,1110.8 1573.31,1083.22 1577.48,1134.64 1581.65,961.618 1585.82,980.539 1589.99,933.627 1594.16,1083.4 1598.33,1188.5 1602.5,1187.88 1606.67,1139.27 1610.83,1140.59 1615,1108.8 1619.17,1053.82 1623.34,974.504 1627.51,999.867 1631.68,915.473 1635.85,920.549 1640.02,863.391 1644.18,977.588 1648.35,905.695 1652.52,898.493 1656.69,952.666 1660.86,990.142 1665.03,959.517 1669.2,1050.26 1673.37,978.472 1677.53,968.869 1681.7,985.899 1685.87,936.104 1690.04,960.039 1694.21,896.412 1698.38,878.875 1702.55,816.53 1706.72,802.922 1710.89,759.237 1715.05,835.083 1719.22,709.252 1723.39,855.546 1727.56,706.499 1731.73,704.274 1735.9,712.96 1740.07,762.762 1744.24,698.82 1748.4,756.059 1752.57,871.612 1756.74,965.093 1760.91,853.351 1765.08,896.204 1769.25,989.355 1773.42,1060.56 1777.59,1015.26 1781.75,975.022 1785.92,912.457 1790.09,910.962 1794.26,889.696 1798.43,1006.15 1802.6,974.702 1806.77,1114.08 1810.94,1114.11 1815.11,1099.39 1819.27,1174.35 1823.44,1118.07 1827.61,1086.76 1831.78,1028.92 1835.95,1120.02 1840.12,1199.58 1844.29,1208.3 1848.46,1185.58 1852.62,1149.4 1856.79,1101.25 1860.96,1176.48 1865.13,1095.73 1869.3,1155.96 1873.47,1159.34 1877.64,1111.27 1881.81,1084.07 1885.98,996.951 1890.14,1019.28 1894.31,1007.27 1898.48,1094.05 1902.65,1069.32 1906.82,1016.1 1910.99,871.071 1915.16,1033.53 1919.33,941.713 1923.49,1057.28 1927.66,988.553 1931.83,962.791 1936,968.189 1940.17,902.641 1944.34,845.874 1948.51,900.69 1952.68,894.657 1956.84,910.851 1961.01,942.834 1965.18,956.381 1969.35,899.142 1973.52,816.456 1977.69,1052.04 1981.86,1035.77 1986.03,964.938 1990.2,1079.44 1994.36,1198.13 1998.53,1165.66 2002.7,1181.23 2006.87,1280.01 2011.04,1236.9 2015.21,1276.84 2019.38,1232.1 2023.55,1153.13 2027.71,1166.15 2031.88,1084.08 2036.05,1094.57 2040.22,1132.64 2044.39,1044.63 2048.56,1047.66 2052.73,951.962 2056.9,874.298 2061.06,794.453 2065.23,790.78 2069.4,894.636 2073.57,739.683 2077.74,704.983 2081.91,664.806 2086.08,720.268 2090.25,743.977 2094.42,703.841 2098.58,705.281 2102.75,722.317 2106.92,811.43 2111.09,826.892 2115.26,991.398 2119.43,873.768 2123.6,826.621 2127.77,851.712 2131.93,787.892 2136.1,858.489 2140.27,829.857 2144.44,892.284 2148.61,887.844 2152.78,1044.86 2156.95,1094.74 2161.12,1126.58 2165.28,1139.74 2169.45,1080.19 2173.62,978.163 2177.79,1033.77 2181.96,1163.3 2186.13,1250.68 2190.3,1330.49 2194.47,1378.79 2198.64,1303.86 2202.8,1233.96 2206.97,1214.93 2211.14,1235.05 2215.31,1267.33 2219.48,1156.99 2223.65,1187.14 2227.82,1069.68 2231.99,1140.48 2236.15,1154.86 2240.32,1143.66 2244.49,1008.73 2248.66,908.177 2252.83,866.722 2257,849.531 2261.17,833.068 2265.34,776.11 2269.5,742.669 2273.67,696.063 2277.84,777.25 2282.01,674.166 2286.18,660.133 2290.35,668.757 "></polyline>
<path clip-path="url(#clip650)" d="M2006.32 198.898 L2279.25 198.898 L2279.25 95.2176 L2006.32 95.2176  Z" fill="#ffffff" fill-rule="evenodd" fill-opacity="1"></path>
<polyline clip-path="url(#clip650)" style="stroke:#000000; stroke-linecap:round; stroke-linejoin:round; stroke-width:4; stroke-opacity:1; fill:none" points="2006.32,198.898 2279.25,198.898 2279.25,95.2176 2006.32,95.2176 2006.32,198.898 "></polyline>
<polyline clip-path="url(#clip650)" style="stroke:#009af9; stroke-linecap:round; stroke-linejoin:round; stroke-width:4; stroke-opacity:1; fill:none" points="2030.82,147.058 2177.82,147.058 "></polyline>
<path clip-path="url(#clip650)" d="M2216.17 166.745 Q2214.36 171.375 2212.65 172.787 Q2210.93 174.199 2208.06 174.199 L2204.66 174.199 L2204.66 170.634 L2207.16 170.634 Q2208.92 170.634 2209.89 169.8 Q2210.87 168.967 2212.05 165.865 L2212.81 163.921 L2202.32 138.412 L2206.84 138.412 L2214.94 158.689 L2223.04 138.412 L2227.55 138.412 L2216.17 166.745 Z" fill="#000000" fill-rule="nonzero" fill-opacity="1"></path><path clip-path="url(#clip650)" d="M2234.85 160.402 L2242.49 160.402 L2242.49 134.037 L2234.18 135.703 L2234.18 131.444 L2242.44 129.778 L2247.11 129.778 L2247.11 160.402 L2254.75 160.402 L2254.75 164.338 L2234.85 164.338 L2234.85 160.402 Z" fill="#000000" fill-rule="nonzero" fill-opacity="1"></path></svg>