<svg xmlns="http://www.w3.org/2000/svg" xmlns:xlink="http://www.w3.org/1999/xlink" width="600" height="400" viewBox="0 0 2400 1600">
<defs>
  <clipPath id="clip050">
    <rect x="0" y="0" width="2400" height="1600"></rect>
  </clipPath>
</defs>
<path clip-path="url(#clip050)" d="M0 1600 L2400 1600 L2400 8.88178e-14 L0 8.88178e-14  Z" fill="#ffffff" fill-rule="evenodd" fill-opacity="1"></path>
<defs>
  <clipPath id="clip051">
    <rect x="480" y="0" width="1681" height="1600"></rect>
  </clipPath>
</defs>
<path clip-path="url(#clip050)" d="M149.191 1486.45 L2352.76 1486.45 L2352.76 47.2441 L149.191 47.2441  Z" fill="#ffffff" fill-rule="evenodd" fill-opacity="1"></path>
<defs>
  <clipPath id="clip052">
    <rect x="149" y="47" width="2205" height="1440"></rect>
  </clipPath>
</defs>
<polyline clip-path="url(#clip052)" style="stroke:#000000; stroke-linecap:round; stroke-linejoin:round; stroke-width:2; stroke-opacity:0.1; fill:none" points="201.11,1486.45 201.11,47.2441 "></polyline>
<polyline clip-path="url(#clip052)" style="stroke:#000000; stroke-linecap:round; stroke-linejoin:round; stroke-width:2; stroke-opacity:0.1; fill:none" points="723.43,1486.45 723.43,47.2441 "></polyline>
<polyline clip-path="url(#clip052)" style="stroke:#000000; stroke-linecap:round; stroke-linejoin:round; stroke-width:2; stroke-opacity:0.1; fill:none" points="1245.75,1486.45 1245.75,47.2441 "></polyline>
<polyline clip-path="url(#clip052)" style="stroke:#000000; stroke-linecap:round; stroke-linejoin:round; stroke-width:2; stroke-opacity:0.1; fill:none" points="1768.07,1486.45 1768.07,47.2441 "></polyline>
<polyline clip-path="url(#clip052)" style="stroke:#000000; stroke-linecap:round; stroke-linejoin:round; stroke-width:2; stroke-opacity:0.1; fill:none" points="2290.39,1486.45 2290.39,47.2441 "></polyline>
<polyline clip-path="url(#clip052)" style="stroke:#000000; stroke-linecap:round; stroke-linejoin:round; stroke-width:2; stroke-opacity:0.1; fill:none" points="149.191,1292.34 2352.76,1292.34 "></polyline>
<polyline clip-path="url(#clip052)" style="stroke:#000000; stroke-linecap:round; stroke-linejoin:round; stroke-width:2; stroke-opacity:0.1; fill:none" points="149.191,1006.29 2352.76,1006.29 "></polyline>
<polyline clip-path="url(#clip052)" style="stroke:#000000; stroke-linecap:round; stroke-linejoin:round; stroke-width:2; stroke-opacity:0.1; fill:none" points="149.191,720.232 2352.76,720.232 "></polyline>
<polyline clip-path="url(#clip052)" style="stroke:#000000; stroke-linecap:round; stroke-linejoin:round; stroke-width:2; stroke-opacity:0.1; fill:none" points="149.191,434.176 2352.76,434.176 "></polyline>
<polyline clip-path="url(#clip052)" style="stroke:#000000; stroke-linecap:round; stroke-linejoin:round; stroke-width:2; stroke-opacity:0.1; fill:none" points="149.191,148.12 2352.76,148.12 "></polyline>
<polyline clip-path="url(#clip050)" style="stroke:#000000; stroke-linecap:round; stroke-linejoin:round; stroke-width:4; stroke-opacity:1; fill:none" points="149.191,1486.45 2352.76,1486.45 "></polyline>
<polyline clip-path="url(#clip050)" style="stroke:#000000; stroke-linecap:round; stroke-linejoin:round; stroke-width:4; stroke-opacity:1; fill:none" points="201.11,1486.45 201.11,1467.55 "></polyline>
<polyline clip-path="url(#clip050)" style="stroke:#000000; stroke-linecap:round; stroke-linejoin:round; stroke-width:4; stroke-opacity:1; fill:none" points="723.43,1486.45 723.43,1467.55 "></polyline>
<polyline clip-path="url(#clip050)" style="stroke:#000000; stroke-linecap:round; stroke-linejoin:round; stroke-width:4; stroke-opacity:1; fill:none" points="1245.75,1486.45 1245.75,1467.55 "></polyline>
<polyline clip-path="url(#clip050)" style="stroke:#000000; stroke-linecap:round; stroke-linejoin:round; stroke-width:4; stroke-opacity:1; fill:none" points="1768.07,1486.45 1768.07,1467.55 "></polyline>
<polyline clip-path="url(#clip050)" style="stroke:#000000; stroke-linecap:round; stroke-linejoin:round; stroke-width:4; stroke-opacity:1; fill:none" points="2290.39,1486.45 2290.39,1467.55 "></polyline>
<path clip-path="url(#clip050)" d="M201.11 1517.37 Q197.498 1517.37 195.67 1520.93 Q193.864 1524.47 193.864 1531.6 Q193.864 1538.71 195.67 1542.27 Q197.498 1545.82 201.11 1545.82 Q204.744 1545.82 206.549 1542.27 Q208.378 1538.71 208.378 1531.6 Q208.378 1524.47 206.549 1520.93 Q204.744 1517.37 201.11 1517.37 M201.11 1513.66 Q206.92 1513.66 209.975 1518.27 Q213.054 1522.85 213.054 1531.6 Q213.054 1540.33 209.975 1544.94 Q206.92 1549.52 201.11 1549.52 Q195.299 1549.52 192.221 1544.94 Q189.165 1540.33 189.165 1531.6 Q189.165 1522.85 192.221 1518.27 Q195.299 1513.66 201.11 1513.66 Z" fill="#000000" fill-rule="nonzero" fill-opacity="1"></path><path clip-path="url(#clip050)" d="M698.129 1514.29 L716.485 1514.29 L716.485 1518.22 L702.411 1518.22 L702.411 1526.7 Q703.43 1526.35 704.448 1526.19 Q705.467 1526 706.485 1526 Q712.272 1526 715.652 1529.17 Q719.032 1532.34 719.032 1537.76 Q719.032 1543.34 715.56 1546.44 Q712.087 1549.52 705.768 1549.52 Q703.592 1549.52 701.323 1549.15 Q699.078 1548.78 696.671 1548.04 L696.671 1543.34 Q698.754 1544.47 700.976 1545.03 Q703.198 1545.58 705.675 1545.58 Q709.68 1545.58 712.018 1543.48 Q714.356 1541.37 714.356 1537.76 Q714.356 1534.15 712.018 1532.04 Q709.68 1529.94 705.675 1529.94 Q703.8 1529.94 701.925 1530.35 Q700.073 1530.77 698.129 1531.65 L698.129 1514.29 Z" fill="#000000" fill-rule="nonzero" fill-opacity="1"></path><path clip-path="url(#clip050)" d="M738.245 1517.37 Q734.633 1517.37 732.805 1520.93 Q730.999 1524.47 730.999 1531.6 Q730.999 1538.71 732.805 1542.27 Q734.633 1545.82 738.245 1545.82 Q741.879 1545.82 743.684 1542.27 Q745.513 1538.71 745.513 1531.6 Q745.513 1524.47 743.684 1520.93 Q741.879 1517.37 738.245 1517.37 M738.245 1513.66 Q744.055 1513.66 747.11 1518.27 Q750.189 1522.85 750.189 1531.6 Q750.189 1540.33 747.11 1544.94 Q744.055 1549.52 738.245 1549.52 Q732.434 1549.52 729.356 1544.94 Q726.3 1540.33 726.3 1531.6 Q726.3 1522.85 729.356 1518.27 Q732.434 1513.66 738.245 1513.66 Z" fill="#000000" fill-rule="nonzero" fill-opacity="1"></path><path clip-path="url(#clip050)" d="M1205.36 1544.91 L1213 1544.91 L1213 1518.55 L1204.69 1520.21 L1204.69 1515.95 L1212.95 1514.29 L1217.63 1514.29 L1217.63 1544.91 L1225.26 1544.91 L1225.26 1548.85 L1205.36 1548.85 L1205.36 1544.91 Z" fill="#000000" fill-rule="nonzero" fill-opacity="1"></path><path clip-path="url(#clip050)" d="M1244.71 1517.37 Q1241.1 1517.37 1239.27 1520.93 Q1237.46 1524.47 1237.46 1531.6 Q1237.46 1538.71 1239.27 1542.27 Q1241.1 1545.82 1244.71 1545.82 Q1248.34 1545.82 1250.15 1542.27 Q1251.98 1538.71 1251.98 1531.6 Q1251.98 1524.47 1250.15 1520.93 Q1248.34 1517.37 1244.71 1517.37 M1244.71 1513.66 Q1250.52 1513.66 1253.57 1518.27 Q1256.65 1522.85 1256.65 1531.6 Q1256.65 1540.33 1253.57 1544.94 Q1250.52 1549.52 1244.71 1549.52 Q1238.9 1549.52 1235.82 1544.94 Q1232.76 1540.33 1232.76 1531.6 Q1232.76 1522.85 1235.82 1518.27 Q1238.9 1513.66 1244.71 1513.66 Z" fill="#000000" fill-rule="nonzero" fill-opacity="1"></path><path clip-path="url(#clip050)" d="M1274.87 1517.37 Q1271.26 1517.37 1269.43 1520.93 Q1267.63 1524.47 1267.63 1531.6 Q1267.63 1538.71 1269.43 1542.27 Q1271.26 1545.82 1274.87 1545.82 Q1278.5 1545.82 1280.31 1542.27 Q1282.14 1538.71 1282.14 1531.6 Q1282.14 1524.47 1280.31 1520.93 Q1278.5 1517.37 1274.87 1517.37 M1274.87 1513.66 Q1280.68 1513.66 1283.74 1518.27 Q1286.81 1522.85 1286.81 1531.6 Q1286.81 1540.33 1283.74 1544.94 Q1280.68 1549.52 1274.87 1549.52 Q1269.06 1549.52 1265.98 1544.94 Q1262.93 1540.33 1262.93 1531.6 Q1262.93 1522.85 1265.98 1518.27 Q1269.06 1513.66 1274.87 1513.66 Z" fill="#000000" fill-rule="nonzero" fill-opacity="1"></path><path clip-path="url(#clip050)" d="M1727.68 1544.91 L1735.32 1544.91 L1735.32 1518.55 L1727.01 1520.21 L1727.01 1515.95 L1735.27 1514.29 L1739.95 1514.29 L1739.95 1544.91 L1747.58 1544.91 L1747.58 1548.85 L1727.68 1548.85 L1727.68 1544.91 Z" fill="#000000" fill-rule="nonzero" fill-opacity="1"></path><path clip-path="url(#clip050)" d="M1757.08 1514.29 L1775.43 1514.29 L1775.43 1518.22 L1761.36 1518.22 L1761.36 1526.7 Q1762.38 1526.35 1763.39 1526.19 Q1764.41 1526 1765.43 1526 Q1771.22 1526 1774.6 1529.17 Q1777.98 1532.34 1777.98 1537.76 Q1777.98 1543.34 1774.51 1546.44 Q1771.03 1549.52 1764.71 1549.52 Q1762.54 1549.52 1760.27 1549.15 Q1758.02 1548.78 1755.62 1548.04 L1755.62 1543.34 Q1757.7 1544.47 1759.92 1545.03 Q1762.14 1545.58 1764.62 1545.58 Q1768.63 1545.58 1770.96 1543.48 Q1773.3 1541.37 1773.3 1537.76 Q1773.3 1534.15 1770.96 1532.04 Q1768.63 1529.94 1764.62 1529.94 Q1762.75 1529.94 1760.87 1530.35 Q1759.02 1530.77 1757.08 1531.65 L1757.08 1514.29 Z" fill="#000000" fill-rule="nonzero" fill-opacity="1"></path><path clip-path="url(#clip050)" d="M1797.19 1517.37 Q1793.58 1517.37 1791.75 1520.93 Q1789.95 1524.47 1789.95 1531.6 Q1789.95 1538.71 1791.75 1542.27 Q1793.58 1545.82 1797.19 1545.82 Q1800.82 1545.82 1802.63 1542.27 Q1804.46 1538.71 1804.46 1531.6 Q1804.46 1524.47 1802.63 1520.93 Q1800.82 1517.37 1797.19 1517.37 M1797.19 1513.66 Q1803 1513.66 1806.06 1518.27 Q1809.14 1522.85 1809.14 1531.6 Q1809.14 1540.33 1806.06 1544.94 Q1803 1549.52 1797.19 1549.52 Q1791.38 1549.52 1788.3 1544.94 Q1785.25 1540.33 1785.25 1531.6 Q1785.25 1522.85 1788.3 1518.27 Q1791.38 1513.66 1797.19 1513.66 Z" fill="#000000" fill-rule="nonzero" fill-opacity="1"></path><path clip-path="url(#clip050)" d="M2254.08 1544.91 L2270.4 1544.91 L2270.4 1548.85 L2248.46 1548.85 L2248.46 1544.91 Q2251.12 1542.16 2255.7 1537.53 Q2260.31 1532.88 2261.49 1531.53 Q2263.74 1529.01 2264.62 1527.27 Q2265.52 1525.51 2265.52 1523.82 Q2265.52 1521.07 2263.57 1519.33 Q2261.65 1517.6 2258.55 1517.6 Q2256.35 1517.6 2253.9 1518.36 Q2251.47 1519.13 2248.69 1520.68 L2248.69 1515.95 Q2251.51 1514.82 2253.97 1514.24 Q2256.42 1513.66 2258.46 1513.66 Q2263.83 1513.66 2267.02 1516.35 Q2270.22 1519.03 2270.22 1523.52 Q2270.22 1525.65 2269.41 1527.57 Q2268.62 1529.47 2266.51 1532.07 Q2265.93 1532.74 2262.83 1535.95 Q2259.73 1539.15 2254.08 1544.91 Z" fill="#000000" fill-rule="nonzero" fill-opacity="1"></path><path clip-path="url(#clip050)" d="M2290.22 1517.37 Q2286.61 1517.37 2284.78 1520.93 Q2282.97 1524.47 2282.97 1531.6 Q2282.97 1538.71 2284.78 1542.27 Q2286.61 1545.82 2290.22 1545.82 Q2293.85 1545.82 2295.66 1542.27 Q2297.49 1538.71 2297.49 1531.6 Q2297.49 1524.47 2295.66 1520.93 Q2293.85 1517.37 2290.22 1517.37 M2290.22 1513.66 Q2296.03 1513.66 2299.08 1518.27 Q2302.16 1522.85 2302.16 1531.6 Q2302.16 1540.33 2299.08 1544.94 Q2296.03 1549.52 2290.22 1549.52 Q2284.41 1549.52 2281.33 1544.94 Q2278.27 1540.33 2278.27 1531.6 Q2278.27 1522.85 2281.33 1518.27 Q2284.41 1513.66 2290.22 1513.66 Z" fill="#000000" fill-rule="nonzero" fill-opacity="1"></path><path clip-path="url(#clip050)" d="M2320.38 1517.37 Q2316.77 1517.37 2314.94 1520.93 Q2313.13 1524.47 2313.13 1531.6 Q2313.13 1538.71 2314.94 1542.27 Q2316.77 1545.82 2320.38 1545.82 Q2324.01 1545.82 2325.82 1542.27 Q2327.65 1538.71 2327.65 1531.6 Q2327.65 1524.47 2325.82 1520.93 Q2324.01 1517.37 2320.38 1517.37 M2320.38 1513.66 Q2326.19 1513.66 2329.24 1518.27 Q2332.32 1522.85 2332.32 1531.6 Q2332.32 1540.33 2329.24 1544.94 Q2326.19 1549.52 2320.38 1549.52 Q2314.57 1549.52 2311.49 1544.94 Q2308.43 1540.33 2308.43 1531.6 Q2308.43 1522.85 2311.49 1518.27 Q2314.57 1513.66 2320.38 1513.66 Z" fill="#000000" fill-rule="nonzero" fill-opacity="1"></path><polyline clip-path="url(#clip050)" style="stroke:#000000; stroke-linecap:round; stroke-linejoin:round; stroke-width:4; stroke-opacity:1; fill:none" points="149.191,1486.45 149.191,47.2441 "></polyline>
<polyline clip-path="url(#clip050)" style="stroke:#000000; stroke-linecap:round; stroke-linejoin:round; stroke-width:4; stroke-opacity:1; fill:none" points="149.191,1292.34 168.089,1292.34 "></polyline>
<polyline clip-path="url(#clip050)" style="stroke:#000000; stroke-linecap:round; stroke-linejoin:round; stroke-width:4; stroke-opacity:1; fill:none" points="149.191,1006.29 168.089,1006.29 "></polyline>
<polyline clip-path="url(#clip050)" style="stroke:#000000; stroke-linecap:round; stroke-linejoin:round; stroke-width:4; stroke-opacity:1; fill:none" points="149.191,720.232 168.089,720.232 "></polyline>
<polyline clip-path="url(#clip050)" style="stroke:#000000; stroke-linecap:round; stroke-linejoin:round; stroke-width:4; stroke-opacity:1; fill:none" points="149.191,434.176 168.089,434.176 "></polyline>
<polyline clip-path="url(#clip050)" style="stroke:#000000; stroke-linecap:round; stroke-linejoin:round; stroke-width:4; stroke-opacity:1; fill:none" points="149.191,148.12 168.089,148.12 "></polyline>
<path clip-path="url(#clip050)" d="M50.9921 1292.79 L80.6679 1292.79 L80.6679 1296.73 L50.9921 1296.73 L50.9921 1292.79 Z" fill="#000000" fill-rule="nonzero" fill-opacity="1"></path><path clip-path="url(#clip050)" d="M103.608 1279.14 L91.8021 1297.59 L103.608 1297.59 L103.608 1279.14 M102.381 1275.06 L108.26 1275.06 L108.26 1297.59 L113.191 1297.59 L113.191 1301.48 L108.26 1301.48 L108.26 1309.62 L103.608 1309.62 L103.608 1301.48 L88.0058 1301.48 L88.0058 1296.96 L102.381 1275.06 Z" fill="#000000" fill-rule="nonzero" fill-opacity="1"></path><path clip-path="url(#clip050)" d="M53.0754 1006.74 L82.7512 1006.74 L82.7512 1010.67 L53.0754 1010.67 L53.0754 1006.74 Z" fill="#000000" fill-rule="nonzero" fill-opacity="1"></path><path clip-path="url(#clip050)" d="M96.8715 1019.63 L113.191 1019.63 L113.191 1023.57 L91.2465 1023.57 L91.2465 1019.63 Q93.9086 1016.88 98.4919 1012.25 Q103.098 1007.6 104.279 1006.25 Q106.524 1003.73 107.404 1001.99 Q108.307 1000.23 108.307 998.545 Q108.307 995.79 106.362 994.054 Q104.441 992.318 101.339 992.318 Q99.14 992.318 96.6863 993.082 Q94.2558 993.845 91.478 995.396 L91.478 990.674 Q94.3021 989.54 96.7558 988.961 Q99.2095 988.383 101.246 988.383 Q106.617 988.383 109.811 991.068 Q113.006 993.753 113.006 998.244 Q113.006 1000.37 112.196 1002.29 Q111.408 1004.19 109.302 1006.79 Q108.723 1007.46 105.621 1010.67 Q102.52 1013.87 96.8715 1019.63 Z" fill="#000000" fill-rule="nonzero" fill-opacity="1"></path><path clip-path="url(#clip050)" d="M101.246 706.03 Q97.6354 706.03 95.8067 709.595 Q94.0012 713.137 94.0012 720.266 Q94.0012 727.373 95.8067 730.937 Q97.6354 734.479 101.246 734.479 Q104.881 734.479 106.686 730.937 Q108.515 727.373 108.515 720.266 Q108.515 713.137 106.686 709.595 Q104.881 706.03 101.246 706.03 M101.246 702.327 Q107.057 702.327 110.112 706.933 Q113.191 711.516 113.191 720.266 Q113.191 728.993 110.112 733.6 Q107.057 738.183 101.246 738.183 Q95.4363 738.183 92.3576 733.6 Q89.3021 728.993 89.3021 720.266 Q89.3021 711.516 92.3576 706.933 Q95.4363 702.327 101.246 702.327 Z" fill="#000000" fill-rule="nonzero" fill-opacity="1"></path><path clip-path="url(#clip050)" d="M96.8715 447.52 L113.191 447.52 L113.191 451.456 L91.2465 451.456 L91.2465 447.52 Q93.9086 444.766 98.4919 440.136 Q103.098 435.483 104.279 434.141 Q106.524 431.618 107.404 429.882 Q108.307 428.122 108.307 426.433 Q108.307 423.678 106.362 421.942 Q104.441 420.206 101.339 420.206 Q99.14 420.206 96.6863 420.97 Q94.2558 421.733 91.478 423.284 L91.478 418.562 Q94.3021 417.428 96.7558 416.849 Q99.2095 416.271 101.246 416.271 Q106.617 416.271 109.811 418.956 Q113.006 421.641 113.006 426.132 Q113.006 428.261 112.196 430.183 Q111.408 432.081 109.302 434.673 Q108.723 435.345 105.621 438.562 Q102.52 441.757 96.8715 447.52 Z" fill="#000000" fill-rule="nonzero" fill-opacity="1"></path><path clip-path="url(#clip050)" d="M103.608 134.914 L91.8021 153.363 L103.608 153.363 L103.608 134.914 M102.381 130.84 L108.26 130.84 L108.26 153.363 L113.191 153.363 L113.191 157.251 L108.26 157.251 L108.26 165.4 L103.608 165.4 L103.608 157.251 L88.0058 157.251 L88.0058 152.738 L102.381 130.84 Z" fill="#000000" fill-rule="nonzero" fill-opacity="1"></path><polyline clip-path="url(#clip052)" style="stroke:#009af9; stroke-linecap:round; stroke-linejoin:round; stroke-width:4; stroke-opacity:1; fill:none" points="211.556,669.076 222.002,630.477 232.449,659.417 242.895,512.132 253.342,559.842 263.788,549.818 274.234,679.934 284.681,508.966 295.127,728.75 305.574,720.602 316.02,625.982 326.466,773.536 336.913,635.801 347.359,764.072 357.806,1006.18 368.252,960.57 378.698,769.229 389.145,546.589 399.591,594.454 410.038,451.469 420.484,630.521 430.93,588.277 441.377,637.133 451.823,719.26 462.27,652.98 472.716,716.374 483.162,846.637 493.609,823.345 504.055,1060.84 514.502,701.188 524.948,695.95 535.395,626.889 545.841,631.48 556.287,384.599 566.734,426.02 577.18,252.826 587.627,306.377 598.073,501.367 608.519,375.856 618.966,475.643 629.412,661.581 639.859,555.607 650.305,384.523 660.751,389.794 671.198,417.99 681.644,228.856 692.091,404.24 702.537,259.436 712.983,87.9763 723.43,258.217 733.876,252.557 744.323,209.953 754.769,287.167 765.215,246.192 775.662,361.828 786.108,389.889 796.555,269.094 807.001,378.719 817.448,430.026 827.894,452.454 838.34,549.196 848.787,474.793 859.233,395.219 869.68,418.34 880.126,228.088 890.572,398.063 901.019,380.454 911.465,305.752 921.912,438.345 932.358,519.998 942.804,481.048 953.251,450.668 963.697,462.715 974.144,527.106 984.59,483.899 995.036,647.964 1005.48,589.537 1015.93,418.097 1026.38,689.354 1036.82,515.015 1047.27,631.591 1057.71,591.945 1068.16,510.799 1078.61,850.261 1089.05,838.221 1099.5,617.016 1109.95,689.155 1120.39,763.952 1130.84,787.534 1141.29,777.29 1151.73,632.971 1162.18,612.706 1172.63,472.675 1183.07,455.391 1193.52,475.399 1203.96,681.632 1214.41,434.121 1224.86,453.959 1235.3,385.149 1245.75,584.821 1256.2,411.614 1266.64,736.414 1277.09,715.68 1287.54,483.365 1297.98,663.628 1308.43,597.698 1318.88,725.791 1329.32,789.216 1339.77,723.666 1350.21,845.196 1360.66,734.153 1371.11,779.937 1381.55,852.792 1392,810.33 1402.45,827.342 1412.89,776.856 1423.34,761.436 1433.79,773.033 1444.23,739.46 1454.68,501.527 1465.12,731.019 1475.57,721.04 1486.02,657.185 1496.46,437.903 1506.91,487.707 1517.36,445.015 1527.8,477.573 1538.25,609.947 1548.7,557.422 1559.14,455.786 1569.59,598.849 1580.04,649.951 1590.48,647.424 1600.93,667.722 1611.37,639.714 1621.82,743.287 1632.27,835.15 1642.71,763.039 1653.16,1089.71 1663.61,983.9 1674.05,1063.13 1684.5,755.89 1694.95,1047.88 1705.39,1126.3 1715.84,894.266 1726.28,924.378 1736.73,740.572 1747.18,806.22 1757.62,904.115 1768.07,858.992 1778.52,813.693 1788.96,925.894 1799.41,840.966 1809.86,1021.25 1820.3,932.41 1830.75,1052.79 1841.2,1009.66 1851.64,1249.25 1862.09,1241.14 1872.53,1082.1 1882.98,1077.81 1893.43,1124 1903.87,1434.83 1914.32,1015.75 1924.77,973.43 1935.21,1080.14 1945.66,1208.4 1956.11,1156.96 1966.55,1014.06 1977,1095.58 1987.45,1137.71 1997.89,1096.29 2008.34,1171.95 2018.78,1220.1 2029.23,1113.46 2039.68,1071.35 2050.12,926.581 2060.57,841.545 2071.02,994.183 2081.46,1096.06 2091.91,1068.25 2102.36,918.231 2112.8,1121.33 2123.25,1029.76 2133.69,1089.76 2144.14,937.881 2154.59,1000.35 2165.03,1039.99 2175.48,910.687 2185.93,820.312 2196.37,954.271 2206.82,996.734 2217.27,1103.82 2227.71,1149.16 2238.16,1176.28 2248.61,1141.4 2259.05,1262.33 2269.5,1137.09 2279.94,1206.55 2290.39,1445.72 "></polyline>
<polyline clip-path="url(#clip052)" style="stroke:#e26f46; stroke-linecap:round; stroke-linejoin:round; stroke-width:4; stroke-opacity:1; fill:none" points="-2054.37,1220.63 4556.32,1220.63 "></polyline>
<polyline clip-path="url(#clip052)" style="stroke:#3da44d; stroke-linecap:round; stroke-linejoin:round; stroke-width:4; stroke-opacity:1; fill:none" points="-2054.37,252.398 4556.32,252.398 "></polyline>
<polyline clip-path="url(#clip052)" style="stroke:#c271d2; stroke-linecap:round; stroke-linejoin:round; stroke-width:4; stroke-opacity:1; fill:none" points="-2054.37,720.232 4556.32,720.232 "></polyline>
<path clip-path="url(#clip050)" d="M2004.8 354.418 L2279.3 354.418 L2279.3 95.2176 L2004.8 95.2176  Z" fill="#ffffff" fill-rule="evenodd" fill-opacity="1"></path>
<polyline clip-path="url(#clip050)" style="stroke:#000000; stroke-linecap:round; stroke-linejoin:round; stroke-width:4; stroke-opacity:1; fill:none" points="2004.8,354.418 2279.3,354.418 2279.3,95.2176 2004.8,95.2176 2004.8,354.418 "></polyline>
<polyline clip-path="url(#clip050)" style="stroke:#009af9; stroke-linecap:round; stroke-linejoin:round; stroke-width:4; stroke-opacity:1; fill:none" points="2029.29,147.058 2176.19,147.058 "></polyline>
<path clip-path="url(#clip050)" d="M2214.52 166.745 Q2212.71 171.375 2211 172.787 Q2209.29 174.199 2206.42 174.199 L2203.01 174.199 L2203.01 170.634 L2205.51 170.634 Q2207.27 170.634 2208.25 169.8 Q2209.22 168.967 2210.4 165.865 L2211.16 163.921 L2200.68 138.412 L2205.19 138.412 L2213.29 158.689 L2221.39 138.412 L2225.91 138.412 L2214.52 166.745 Z" fill="#000000" fill-rule="nonzero" fill-opacity="1"></path><path clip-path="url(#clip050)" d="M2233.2 160.402 L2240.84 160.402 L2240.84 134.037 L2232.53 135.703 L2232.53 131.444 L2240.79 129.778 L2245.47 129.778 L2245.47 160.402 L2253.11 160.402 L2253.11 164.338 L2233.2 164.338 L2233.2 160.402 Z" fill="#000000" fill-rule="nonzero" fill-opacity="1"></path><polyline clip-path="url(#clip050)" style="stroke:#e26f46; stroke-linecap:round; stroke-linejoin:round; stroke-width:4; stroke-opacity:1; fill:none" points="2029.29,198.898 2176.19,198.898 "></polyline>
<path clip-path="url(#clip050)" d="M2214.52 218.585 Q2212.71 223.215 2211 224.627 Q2209.29 226.039 2206.42 226.039 L2203.01 226.039 L2203.01 222.474 L2205.51 222.474 Q2207.27 222.474 2208.25 221.64 Q2209.22 220.807 2210.4 217.705 L2211.16 215.761 L2200.68 190.252 L2205.19 190.252 L2213.29 210.529 L2221.39 190.252 L2225.91 190.252 L2214.52 218.585 Z" fill="#000000" fill-rule="nonzero" fill-opacity="1"></path><path clip-path="url(#clip050)" d="M2236.42 212.242 L2252.74 212.242 L2252.74 216.178 L2230.79 216.178 L2230.79 212.242 Q2233.45 209.488 2238.04 204.858 Q2242.64 200.205 2243.82 198.863 Q2246.07 196.34 2246.95 194.604 Q2247.85 192.844 2247.85 191.155 Q2247.85 188.4 2245.91 186.664 Q2243.99 184.928 2240.88 184.928 Q2238.69 184.928 2236.23 185.692 Q2233.8 186.455 2231.02 188.006 L2231.02 183.284 Q2233.85 182.15 2236.3 181.571 Q2238.75 180.993 2240.79 180.993 Q2246.16 180.993 2249.36 183.678 Q2252.55 186.363 2252.55 190.854 Q2252.55 192.983 2251.74 194.905 Q2250.95 196.803 2248.85 199.395 Q2248.27 200.067 2245.17 203.284 Q2242.07 206.479 2236.42 212.242 Z" fill="#000000" fill-rule="nonzero" fill-opacity="1"></path><polyline clip-path="url(#clip050)" style="stroke:#3da44d; stroke-linecap:round; stroke-linejoin:round; stroke-width:4; stroke-opacity:1; fill:none" points="2029.29,250.738 2176.19,250.738 "></polyline>
<path clip-path="url(#clip050)" d="M2214.52 270.425 Q2212.71 275.055 2211 276.467 Q2209.29 277.879 2206.42 277.879 L2203.01 277.879 L2203.01 274.314 L2205.51 274.314 Q2207.27 274.314 2208.25 273.48 Q2209.22 272.647 2210.4 269.545 L2211.16 267.601 L2200.68 242.092 L2205.19 242.092 L2213.29 262.369 L2221.39 242.092 L2225.91 242.092 L2214.52 270.425 Z" fill="#000000" fill-rule="nonzero" fill-opacity="1"></path><path clip-path="url(#clip050)" d="M2246.56 249.383 Q2249.91 250.101 2251.79 252.369 Q2253.69 254.638 2253.69 257.971 Q2253.69 263.087 2250.17 265.888 Q2246.65 268.689 2240.17 268.689 Q2237.99 268.689 2235.68 268.249 Q2233.38 267.832 2230.93 266.976 L2230.93 262.462 Q2232.88 263.596 2235.19 264.175 Q2237.5 264.754 2240.03 264.754 Q2244.43 264.754 2246.72 263.018 Q2249.03 261.281 2249.03 257.971 Q2249.03 254.916 2246.88 253.203 Q2244.75 251.467 2240.93 251.467 L2236.9 251.467 L2236.9 247.624 L2241.12 247.624 Q2244.57 247.624 2246.39 246.258 Q2248.22 244.87 2248.22 242.277 Q2248.22 239.615 2246.32 238.203 Q2244.45 236.768 2240.93 236.768 Q2239.01 236.768 2236.81 237.184 Q2234.61 237.601 2231.97 238.481 L2231.97 234.314 Q2234.63 233.573 2236.95 233.203 Q2239.29 232.833 2241.35 232.833 Q2246.67 232.833 2249.77 235.263 Q2252.88 237.67 2252.88 241.791 Q2252.88 244.661 2251.23 246.652 Q2249.59 248.62 2246.56 249.383 Z" fill="#000000" fill-rule="nonzero" fill-opacity="1"></path><polyline clip-path="url(#clip050)" style="stroke:#c271d2; stroke-linecap:round; stroke-linejoin:round; stroke-width:4; stroke-opacity:1; fill:none" points="2029.29,302.578 2176.19,302.578 "></polyline>
<path clip-path="url(#clip050)" d="M2214.52 322.265 Q2212.71 326.895 2211 328.307 Q2209.29 329.719 2206.42 329.719 L2203.01 329.719 L2203.01 326.154 L2205.51 326.154 Q2207.27 326.154 2208.25 325.32 Q2209.22 324.487 2210.4 321.385 L2211.16 319.441 L2200.68 293.932 L2205.19 293.932 L2213.29 314.209 L2221.39 293.932 L2225.91 293.932 L2214.52 322.265 Z" fill="#000000" fill-rule="nonzero" fill-opacity="1"></path><path clip-path="url(#clip050)" d="M2245.24 289.372 L2233.43 307.821 L2245.24 307.821 L2245.24 289.372 M2244.01 285.298 L2249.89 285.298 L2249.89 307.821 L2254.82 307.821 L2254.82 311.709 L2249.89 311.709 L2249.89 319.858 L2245.24 319.858 L2245.24 311.709 L2229.63 311.709 L2229.63 307.196 L2244.01 285.298 Z" fill="#000000" fill-rule="nonzero" fill-opacity="1"></path></svg>