<svg xmlns="http://www.w3.org/2000/svg" xmlns:xlink="http://www.w3.org/1999/xlink" width="600" height="400" viewBox="0 0 2400 1600">
<defs>
  <clipPath id="clip770">
    <rect x="0" y="0" width="2400" height="1600"></rect>
  </clipPath>
</defs>
<path clip-path="url(#clip770)" d="M0 1600 L2400 1600 L2400 8.88178e-14 L0 8.88178e-14  Z" fill="#ffffff" fill-rule="evenodd" fill-opacity="1"></path>
<defs>
  <clipPath id="clip771">
    <rect x="480" y="0" width="1681" height="1600"></rect>
  </clipPath>
</defs>
<path clip-path="url(#clip770)" d="M359.978 1486.45 L2352.76 1486.45 L2352.76 47.2441 L359.978 47.2441  Z" fill="#ffffff" fill-rule="evenodd" fill-opacity="1"></path>
<defs>
  <clipPath id="clip772">
    <rect x="359" y="47" width="1994" height="1440"></rect>
  </clipPath>
</defs>
<polyline clip-path="url(#clip772)" style="stroke:#000000; stroke-linecap:round; stroke-linejoin:round; stroke-width:2; stroke-opacity:0.1; fill:none" points="412.61,1486.45 412.61,47.2441 "></polyline>
<polyline clip-path="url(#clip772)" style="stroke:#000000; stroke-linecap:round; stroke-linejoin:round; stroke-width:2; stroke-opacity:0.1; fill:none" points="789.359,1486.45 789.359,47.2441 "></polyline>
<polyline clip-path="url(#clip772)" style="stroke:#000000; stroke-linecap:round; stroke-linejoin:round; stroke-width:2; stroke-opacity:0.1; fill:none" points="1166.11,1486.45 1166.11,47.2441 "></polyline>
<polyline clip-path="url(#clip772)" style="stroke:#000000; stroke-linecap:round; stroke-linejoin:round; stroke-width:2; stroke-opacity:0.1; fill:none" points="1542.86,1486.45 1542.86,47.2441 "></polyline>
<polyline clip-path="url(#clip772)" style="stroke:#000000; stroke-linecap:round; stroke-linejoin:round; stroke-width:2; stroke-opacity:0.1; fill:none" points="1919.61,1486.45 1919.61,47.2441 "></polyline>
<polyline clip-path="url(#clip772)" style="stroke:#000000; stroke-linecap:round; stroke-linejoin:round; stroke-width:2; stroke-opacity:0.1; fill:none" points="2296.36,1486.45 2296.36,47.2441 "></polyline>
<polyline clip-path="url(#clip772)" style="stroke:#000000; stroke-linecap:round; stroke-linejoin:round; stroke-width:2; stroke-opacity:0.1; fill:none" points="359.978,1276.98 2352.76,1276.98 "></polyline>
<polyline clip-path="url(#clip772)" style="stroke:#000000; stroke-linecap:round; stroke-linejoin:round; stroke-width:2; stroke-opacity:0.1; fill:none" points="359.978,979.727 2352.76,979.727 "></polyline>
<polyline clip-path="url(#clip772)" style="stroke:#000000; stroke-linecap:round; stroke-linejoin:round; stroke-width:2; stroke-opacity:0.1; fill:none" points="359.978,682.477 2352.76,682.477 "></polyline>
<polyline clip-path="url(#clip772)" style="stroke:#000000; stroke-linecap:round; stroke-linejoin:round; stroke-width:2; stroke-opacity:0.1; fill:none" points="359.978,385.226 2352.76,385.226 "></polyline>
<polyline clip-path="url(#clip772)" style="stroke:#000000; stroke-linecap:round; stroke-linejoin:round; stroke-width:2; stroke-opacity:0.1; fill:none" points="359.978,87.9763 2352.76,87.9763 "></polyline>
<polyline clip-path="url(#clip770)" style="stroke:#000000; stroke-linecap:round; stroke-linejoin:round; stroke-width:4; stroke-opacity:1; fill:none" points="359.978,1486.45 2352.76,1486.45 "></polyline>
<polyline clip-path="url(#clip770)" style="stroke:#000000; stroke-linecap:round; stroke-linejoin:round; stroke-width:4; stroke-opacity:1; fill:none" points="412.61,1486.45 412.61,1467.55 "></polyline>
<polyline clip-path="url(#clip770)" style="stroke:#000000; stroke-linecap:round; stroke-linejoin:round; stroke-width:4; stroke-opacity:1; fill:none" points="789.359,1486.45 789.359,1467.55 "></polyline>
<polyline clip-path="url(#clip770)" style="stroke:#000000; stroke-linecap:round; stroke-linejoin:round; stroke-width:4; stroke-opacity:1; fill:none" points="1166.11,1486.45 1166.11,1467.55 "></polyline>
<polyline clip-path="url(#clip770)" style="stroke:#000000; stroke-linecap:round; stroke-linejoin:round; stroke-width:4; stroke-opacity:1; fill:none" points="1542.86,1486.45 1542.86,1467.55 "></polyline>
<polyline clip-path="url(#clip770)" style="stroke:#000000; stroke-linecap:round; stroke-linejoin:round; stroke-width:4; stroke-opacity:1; fill:none" points="1919.61,1486.45 1919.61,1467.55 "></polyline>
<polyline clip-path="url(#clip770)" style="stroke:#000000; stroke-linecap:round; stroke-linejoin:round; stroke-width:4; stroke-opacity:1; fill:none" points="2296.36,1486.45 2296.36,1467.55 "></polyline>
<path clip-path="url(#clip770)" d="M412.61 1517.37 Q408.999 1517.37 407.17 1520.93 Q405.365 1524.47 405.365 1531.6 Q405.365 1538.71 407.17 1542.27 Q408.999 1545.82 412.61 1545.82 Q416.244 1545.82 418.05 1542.27 Q419.879 1538.71 419.879 1531.6 Q419.879 1524.47 418.05 1520.93 Q416.244 1517.37 412.61 1517.37 M412.61 1513.66 Q418.42 1513.66 421.476 1518.27 Q424.554 1522.85 424.554 1531.6 Q424.554 1540.33 421.476 1544.94 Q418.42 1549.52 412.61 1549.52 Q406.8 1549.52 403.721 1544.94 Q400.666 1540.33 400.666 1531.6 Q400.666 1522.85 403.721 1518.27 Q406.8 1513.66 412.61 1513.66 Z" fill="#000000" fill-rule="nonzero" fill-opacity="1"></path><path clip-path="url(#clip770)" d="M748.966 1544.91 L756.605 1544.91 L756.605 1518.55 L748.295 1520.21 L748.295 1515.95 L756.559 1514.29 L761.235 1514.29 L761.235 1544.91 L768.873 1544.91 L768.873 1548.85 L748.966 1548.85 L748.966 1544.91 Z" fill="#000000" fill-rule="nonzero" fill-opacity="1"></path><path clip-path="url(#clip770)" d="M788.318 1517.37 Q784.707 1517.37 782.878 1520.93 Q781.072 1524.47 781.072 1531.6 Q781.072 1538.71 782.878 1542.27 Q784.707 1545.82 788.318 1545.82 Q791.952 1545.82 793.758 1542.27 Q795.586 1538.71 795.586 1531.6 Q795.586 1524.47 793.758 1520.93 Q791.952 1517.37 788.318 1517.37 M788.318 1513.66 Q794.128 1513.66 797.183 1518.27 Q800.262 1522.85 800.262 1531.6 Q800.262 1540.33 797.183 1544.94 Q794.128 1549.52 788.318 1549.52 Q782.508 1549.52 779.429 1544.94 Q776.373 1540.33 776.373 1531.6 Q776.373 1522.85 779.429 1518.27 Q782.508 1513.66 788.318 1513.66 Z" fill="#000000" fill-rule="nonzero" fill-opacity="1"></path><path clip-path="url(#clip770)" d="M818.48 1517.37 Q814.869 1517.37 813.04 1520.93 Q811.234 1524.47 811.234 1531.6 Q811.234 1538.71 813.04 1542.27 Q814.869 1545.82 818.48 1545.82 Q822.114 1545.82 823.919 1542.27 Q825.748 1538.71 825.748 1531.6 Q825.748 1524.47 823.919 1520.93 Q822.114 1517.37 818.48 1517.37 M818.48 1513.66 Q824.29 1513.66 827.345 1518.27 Q830.424 1522.85 830.424 1531.6 Q830.424 1540.33 827.345 1544.94 Q824.29 1549.52 818.48 1549.52 Q812.669 1549.52 809.591 1544.94 Q806.535 1540.33 806.535 1531.6 Q806.535 1522.85 809.591 1518.27 Q812.669 1513.66 818.48 1513.66 Z" fill="#000000" fill-rule="nonzero" fill-opacity="1"></path><path clip-path="url(#clip770)" d="M1129.8 1544.91 L1146.12 1544.91 L1146.12 1548.85 L1124.18 1548.85 L1124.18 1544.91 Q1126.84 1542.16 1131.42 1537.53 Q1136.03 1532.88 1137.21 1531.53 Q1139.45 1529.01 1140.33 1527.27 Q1141.24 1525.51 1141.24 1523.82 Q1141.24 1521.07 1139.29 1519.33 Q1137.37 1517.6 1134.27 1517.6 Q1132.07 1517.6 1129.62 1518.36 Q1127.19 1519.13 1124.41 1520.68 L1124.41 1515.95 Q1127.23 1514.82 1129.69 1514.24 Q1132.14 1513.66 1134.18 1513.66 Q1139.55 1513.66 1142.74 1516.35 Q1145.94 1519.03 1145.94 1523.52 Q1145.94 1525.65 1145.12 1527.57 Q1144.34 1529.47 1142.23 1532.07 Q1141.65 1532.74 1138.55 1535.95 Q1135.45 1539.15 1129.8 1544.91 Z" fill="#000000" fill-rule="nonzero" fill-opacity="1"></path><path clip-path="url(#clip770)" d="M1165.94 1517.37 Q1162.32 1517.37 1160.5 1520.93 Q1158.69 1524.47 1158.69 1531.6 Q1158.69 1538.71 1160.5 1542.27 Q1162.32 1545.82 1165.94 1545.82 Q1169.57 1545.82 1171.37 1542.27 Q1173.2 1538.71 1173.2 1531.6 Q1173.2 1524.47 1171.37 1520.93 Q1169.57 1517.37 1165.94 1517.37 M1165.94 1513.66 Q1171.75 1513.66 1174.8 1518.27 Q1177.88 1522.85 1177.88 1531.6 Q1177.88 1540.33 1174.8 1544.94 Q1171.75 1549.52 1165.94 1549.52 Q1160.12 1549.52 1157.05 1544.94 Q1153.99 1540.33 1153.99 1531.6 Q1153.99 1522.85 1157.05 1518.27 Q1160.12 1513.66 1165.94 1513.66 Z" fill="#000000" fill-rule="nonzero" fill-opacity="1"></path><path clip-path="url(#clip770)" d="M1196.1 1517.37 Q1192.49 1517.37 1190.66 1520.93 Q1188.85 1524.47 1188.85 1531.6 Q1188.85 1538.71 1190.66 1542.27 Q1192.49 1545.82 1196.1 1545.82 Q1199.73 1545.82 1201.54 1542.27 Q1203.37 1538.71 1203.37 1531.6 Q1203.37 1524.47 1201.54 1520.93 Q1199.73 1517.37 1196.1 1517.37 M1196.1 1513.66 Q1201.91 1513.66 1204.96 1518.27 Q1208.04 1522.85 1208.04 1531.6 Q1208.04 1540.33 1204.96 1544.94 Q1201.91 1549.52 1196.1 1549.52 Q1190.29 1549.52 1187.21 1544.94 Q1184.15 1540.33 1184.15 1531.6 Q1184.15 1522.85 1187.21 1518.27 Q1190.29 1513.66 1196.1 1513.66 Z" fill="#000000" fill-rule="nonzero" fill-opacity="1"></path><path clip-path="url(#clip770)" d="M1516.62 1530.21 Q1519.98 1530.93 1521.85 1533.2 Q1523.75 1535.47 1523.75 1538.8 Q1523.75 1543.92 1520.23 1546.72 Q1516.71 1549.52 1510.23 1549.52 Q1508.05 1549.52 1505.74 1549.08 Q1503.45 1548.66 1500.99 1547.81 L1500.99 1543.29 Q1502.94 1544.43 1505.25 1545.01 Q1507.57 1545.58 1510.09 1545.58 Q1514.49 1545.58 1516.78 1543.85 Q1519.1 1542.11 1519.1 1538.8 Q1519.1 1535.75 1516.94 1534.03 Q1514.81 1532.3 1510.99 1532.3 L1506.97 1532.3 L1506.97 1528.45 L1511.18 1528.45 Q1514.63 1528.45 1516.46 1527.09 Q1518.29 1525.7 1518.29 1523.11 Q1518.29 1520.45 1516.39 1519.03 Q1514.51 1517.6 1510.99 1517.6 Q1509.07 1517.6 1506.87 1518.01 Q1504.68 1518.43 1502.04 1519.31 L1502.04 1515.14 Q1504.7 1514.4 1507.01 1514.03 Q1509.35 1513.66 1511.41 1513.66 Q1516.74 1513.66 1519.84 1516.09 Q1522.94 1518.5 1522.94 1522.62 Q1522.94 1525.49 1521.3 1527.48 Q1519.65 1529.45 1516.62 1530.21 Z" fill="#000000" fill-rule="nonzero" fill-opacity="1"></path><path clip-path="url(#clip770)" d="M1542.61 1517.37 Q1539 1517.37 1537.18 1520.93 Q1535.37 1524.47 1535.37 1531.6 Q1535.37 1538.71 1537.18 1542.27 Q1539 1545.82 1542.61 1545.82 Q1546.25 1545.82 1548.05 1542.27 Q1549.88 1538.71 1549.88 1531.6 Q1549.88 1524.47 1548.05 1520.93 Q1546.25 1517.37 1542.61 1517.37 M1542.61 1513.66 Q1548.43 1513.66 1551.48 1518.27 Q1554.56 1522.85 1554.56 1531.6 Q1554.56 1540.33 1551.48 1544.94 Q1548.43 1549.52 1542.61 1549.52 Q1536.8 1549.52 1533.73 1544.94 Q1530.67 1540.33 1530.67 1531.6 Q1530.67 1522.85 1533.73 1518.27 Q1536.8 1513.66 1542.61 1513.66 Z" fill="#000000" fill-rule="nonzero" fill-opacity="1"></path><path clip-path="url(#clip770)" d="M1572.78 1517.37 Q1569.17 1517.37 1567.34 1520.93 Q1565.53 1524.47 1565.53 1531.6 Q1565.53 1538.71 1567.34 1542.27 Q1569.17 1545.82 1572.78 1545.82 Q1576.41 1545.82 1578.22 1542.27 Q1580.05 1538.71 1580.05 1531.6 Q1580.05 1524.47 1578.22 1520.93 Q1576.41 1517.37 1572.78 1517.37 M1572.78 1513.66 Q1578.59 1513.66 1581.64 1518.27 Q1584.72 1522.85 1584.72 1531.6 Q1584.72 1540.33 1581.64 1544.94 Q1578.59 1549.52 1572.78 1549.52 Q1566.97 1549.52 1563.89 1544.94 Q1560.83 1540.33 1560.83 1531.6 Q1560.83 1522.85 1563.89 1518.27 Q1566.97 1513.66 1572.78 1513.66 Z" fill="#000000" fill-rule="nonzero" fill-opacity="1"></path><path clip-path="url(#clip770)" d="M1892.7 1518.36 L1880.89 1536.81 L1892.7 1536.81 L1892.7 1518.36 M1891.47 1514.29 L1897.35 1514.29 L1897.35 1536.81 L1902.28 1536.81 L1902.28 1540.7 L1897.35 1540.7 L1897.35 1548.85 L1892.7 1548.85 L1892.7 1540.7 L1877.1 1540.7 L1877.1 1536.19 L1891.47 1514.29 Z" fill="#000000" fill-rule="nonzero" fill-opacity="1"></path><path clip-path="url(#clip770)" d="M1920.01 1517.37 Q1916.4 1517.37 1914.57 1520.93 Q1912.77 1524.47 1912.77 1531.6 Q1912.77 1538.71 1914.57 1542.27 Q1916.4 1545.82 1920.01 1545.82 Q1923.65 1545.82 1925.45 1542.27 Q1927.28 1538.71 1927.28 1531.6 Q1927.28 1524.47 1925.45 1520.93 Q1923.65 1517.37 1920.01 1517.37 M1920.01 1513.66 Q1925.82 1513.66 1928.88 1518.27 Q1931.96 1522.85 1931.96 1531.6 Q1931.96 1540.33 1928.88 1544.94 Q1925.82 1549.52 1920.01 1549.52 Q1914.2 1549.52 1911.12 1544.94 Q1908.07 1540.33 1908.07 1531.6 Q1908.07 1522.85 1911.12 1518.27 Q1914.2 1513.66 1920.01 1513.66 Z" fill="#000000" fill-rule="nonzero" fill-opacity="1"></path><path clip-path="url(#clip770)" d="M1950.17 1517.37 Q1946.56 1517.37 1944.73 1520.93 Q1942.93 1524.47 1942.93 1531.6 Q1942.93 1538.71 1944.73 1542.27 Q1946.56 1545.82 1950.17 1545.82 Q1953.81 1545.82 1955.61 1542.27 Q1957.44 1538.71 1957.44 1531.6 Q1957.44 1524.47 1955.61 1520.93 Q1953.81 1517.37 1950.17 1517.37 M1950.17 1513.66 Q1955.98 1513.66 1959.04 1518.27 Q1962.12 1522.85 1962.12 1531.6 Q1962.12 1540.33 1959.04 1544.94 Q1955.98 1549.52 1950.17 1549.52 Q1944.36 1549.52 1941.29 1544.94 Q1938.23 1540.33 1938.23 1531.6 Q1938.23 1522.85 1941.29 1518.27 Q1944.36 1513.66 1950.17 1513.66 Z" fill="#000000" fill-rule="nonzero" fill-opacity="1"></path><path clip-path="url(#clip770)" d="M2255.97 1514.29 L2274.33 1514.29 L2274.33 1518.22 L2260.26 1518.22 L2260.26 1526.7 Q2261.28 1526.35 2262.29 1526.19 Q2263.31 1526 2264.33 1526 Q2270.12 1526 2273.5 1529.17 Q2276.88 1532.34 2276.88 1537.76 Q2276.88 1543.34 2273.41 1546.44 Q2269.93 1549.52 2263.61 1549.52 Q2261.44 1549.52 2259.17 1549.15 Q2256.92 1548.78 2254.52 1548.04 L2254.52 1543.34 Q2256.6 1544.47 2258.82 1545.03 Q2261.04 1545.58 2263.52 1545.58 Q2267.53 1545.58 2269.86 1543.48 Q2272.2 1541.37 2272.2 1537.76 Q2272.2 1534.15 2269.86 1532.04 Q2267.53 1529.94 2263.52 1529.94 Q2261.65 1529.94 2259.77 1530.35 Q2257.92 1530.77 2255.97 1531.65 L2255.97 1514.29 Z" fill="#000000" fill-rule="nonzero" fill-opacity="1"></path><path clip-path="url(#clip770)" d="M2296.09 1517.37 Q2292.48 1517.37 2290.65 1520.93 Q2288.85 1524.47 2288.85 1531.6 Q2288.85 1538.71 2290.65 1542.27 Q2292.48 1545.82 2296.09 1545.82 Q2299.72 1545.82 2301.53 1542.27 Q2303.36 1538.71 2303.36 1531.6 Q2303.36 1524.47 2301.53 1520.93 Q2299.72 1517.37 2296.09 1517.37 M2296.09 1513.66 Q2301.9 1513.66 2304.96 1518.27 Q2308.03 1522.85 2308.03 1531.6 Q2308.03 1540.33 2304.96 1544.94 Q2301.9 1549.52 2296.09 1549.52 Q2290.28 1549.52 2287.2 1544.94 Q2284.15 1540.33 2284.15 1531.6 Q2284.15 1522.85 2287.2 1518.27 Q2290.28 1513.66 2296.09 1513.66 Z" fill="#000000" fill-rule="nonzero" fill-opacity="1"></path><path clip-path="url(#clip770)" d="M2326.25 1517.37 Q2322.64 1517.37 2320.81 1520.93 Q2319.01 1524.47 2319.01 1531.6 Q2319.01 1538.71 2320.81 1542.27 Q2322.64 1545.82 2326.25 1545.82 Q2329.89 1545.82 2331.69 1542.27 Q2333.52 1538.71 2333.52 1531.6 Q2333.52 1524.47 2331.69 1520.93 Q2329.89 1517.37 2326.25 1517.37 M2326.25 1513.66 Q2332.06 1513.66 2335.12 1518.27 Q2338.2 1522.85 2338.2 1531.6 Q2338.2 1540.33 2335.12 1544.94 Q2332.06 1549.52 2326.25 1549.52 Q2320.44 1549.52 2317.36 1544.94 Q2314.31 1540.33 2314.31 1531.6 Q2314.31 1522.85 2317.36 1518.27 Q2320.44 1513.66 2326.25 1513.66 Z" fill="#000000" fill-rule="nonzero" fill-opacity="1"></path><polyline clip-path="url(#clip770)" style="stroke:#000000; stroke-linecap:round; stroke-linejoin:round; stroke-width:4; stroke-opacity:1; fill:none" points="359.978,1486.45 359.978,47.2441 "></polyline>
<polyline clip-path="url(#clip770)" style="stroke:#000000; stroke-linecap:round; stroke-linejoin:round; stroke-width:4; stroke-opacity:1; fill:none" points="359.978,1276.98 378.876,1276.98 "></polyline>
<polyline clip-path="url(#clip770)" style="stroke:#000000; stroke-linecap:round; stroke-linejoin:round; stroke-width:4; stroke-opacity:1; fill:none" points="359.978,979.727 378.876,979.727 "></polyline>
<polyline clip-path="url(#clip770)" style="stroke:#000000; stroke-linecap:round; stroke-linejoin:round; stroke-width:4; stroke-opacity:1; fill:none" points="359.978,682.477 378.876,682.477 "></polyline>
<polyline clip-path="url(#clip770)" style="stroke:#000000; stroke-linecap:round; stroke-linejoin:round; stroke-width:4; stroke-opacity:1; fill:none" points="359.978,385.226 378.876,385.226 "></polyline>
<polyline clip-path="url(#clip770)" style="stroke:#000000; stroke-linecap:round; stroke-linejoin:round; stroke-width:4; stroke-opacity:1; fill:none" points="359.978,87.9763 378.876,87.9763 "></polyline>
<path clip-path="url(#clip770)" d="M50.9921 1283.88 L80.6679 1283.88 L80.6679 1287.81 L50.9921 1287.81 L50.9921 1283.88 Z" fill="#000000" fill-rule="nonzero" fill-opacity="1"></path><path clip-path="url(#clip770)" d="M100.76 1284.29 Q97.4271 1284.29 95.5058 1286.08 Q93.6076 1287.86 93.6076 1290.98 Q93.6076 1294.11 95.5058 1295.89 Q97.4271 1297.67 100.76 1297.67 Q104.094 1297.67 106.015 1295.89 Q107.936 1294.08 107.936 1290.98 Q107.936 1287.86 106.015 1286.08 Q104.117 1284.29 100.76 1284.29 M96.0845 1282.3 Q93.0752 1281.56 91.3854 1279.5 Q89.7188 1277.44 89.7188 1274.48 Q89.7188 1270.33 92.6586 1267.93 Q95.6215 1265.52 100.76 1265.52 Q105.922 1265.52 108.862 1267.93 Q111.802 1270.33 111.802 1274.48 Q111.802 1277.44 110.112 1279.5 Q108.446 1281.56 105.459 1282.3 Q108.839 1283.09 110.714 1285.38 Q112.612 1287.67 112.612 1290.98 Q112.612 1296.01 109.533 1298.69 Q106.478 1301.38 100.76 1301.38 Q95.0428 1301.38 91.9641 1298.69 Q88.9086 1296.01 88.9086 1290.98 Q88.9086 1287.67 90.8067 1285.38 Q92.7049 1283.09 96.0845 1282.3 M94.3715 1274.92 Q94.3715 1277.6 96.0382 1279.11 Q97.728 1280.61 100.76 1280.61 Q103.77 1280.61 105.459 1279.11 Q107.172 1277.6 107.172 1274.92 Q107.172 1272.23 105.459 1270.73 Q103.77 1269.22 100.76 1269.22 Q97.728 1269.22 96.0382 1270.73 Q94.3715 1272.23 94.3715 1274.92 Z" fill="#000000" fill-rule="nonzero" fill-opacity="1"></path><path clip-path="url(#clip770)" d="M120.922 1294.83 L125.807 1294.83 L125.807 1300.7 L120.922 1300.7 L120.922 1294.83 Z" fill="#000000" fill-rule="nonzero" fill-opacity="1"></path><path clip-path="url(#clip770)" d="M145.992 1269.22 Q142.381 1269.22 140.552 1272.79 Q138.746 1276.33 138.746 1283.46 Q138.746 1290.57 140.552 1294.13 Q142.381 1297.67 145.992 1297.67 Q149.626 1297.67 151.431 1294.13 Q153.26 1290.57 153.26 1283.46 Q153.26 1276.33 151.431 1272.79 Q149.626 1269.22 145.992 1269.22 M145.992 1265.52 Q151.802 1265.52 154.857 1270.13 Q157.936 1274.71 157.936 1283.46 Q157.936 1292.19 154.857 1296.79 Q151.802 1301.38 145.992 1301.38 Q140.181 1301.38 137.103 1296.79 Q134.047 1292.19 134.047 1283.46 Q134.047 1274.71 137.103 1270.13 Q140.181 1265.52 145.992 1265.52 Z" fill="#000000" fill-rule="nonzero" fill-opacity="1"></path><path clip-path="url(#clip770)" d="M194.325 1275.24 L183.746 1285.87 L194.325 1296.45 L191.57 1299.25 L180.945 1288.62 L170.32 1299.25 L167.589 1296.45 L178.144 1285.87 L167.589 1275.24 L170.32 1272.44 L180.945 1283.07 L191.57 1272.44 L194.325 1275.24 Z" fill="#000000" fill-rule="nonzero" fill-opacity="1"></path><path clip-path="url(#clip770)" d="M206.686 1296.77 L214.325 1296.77 L214.325 1270.4 L206.014 1272.07 L206.014 1267.81 L214.278 1266.14 L218.954 1266.14 L218.954 1296.77 L226.593 1296.77 L226.593 1300.7 L206.686 1300.7 L206.686 1296.77 Z" fill="#000000" fill-rule="nonzero" fill-opacity="1"></path><path clip-path="url(#clip770)" d="M246.037 1269.22 Q242.426 1269.22 240.598 1272.79 Q238.792 1276.33 238.792 1283.46 Q238.792 1290.57 240.598 1294.13 Q242.426 1297.67 246.037 1297.67 Q249.672 1297.67 251.477 1294.13 Q253.306 1290.57 253.306 1283.46 Q253.306 1276.33 251.477 1272.79 Q249.672 1269.22 246.037 1269.22 M246.037 1265.52 Q251.848 1265.52 254.903 1270.13 Q257.982 1274.71 257.982 1283.46 Q257.982 1292.19 254.903 1296.79 Q251.848 1301.38 246.037 1301.38 Q240.227 1301.38 237.149 1296.79 Q234.093 1292.19 234.093 1283.46 Q234.093 1274.71 237.149 1270.13 Q240.227 1265.52 246.037 1265.52 Z" fill="#000000" fill-rule="nonzero" fill-opacity="1"></path><path clip-path="url(#clip770)" d="M258.527 1270.1 L264.734 1270.1 L264.734 1248.67 L257.982 1250.03 L257.982 1246.57 L264.696 1245.21 L268.495 1245.21 L268.495 1270.1 L274.702 1270.1 L274.702 1273.29 L258.527 1273.29 L258.527 1270.1 Z" fill="#000000" fill-rule="nonzero" fill-opacity="1"></path><path clip-path="url(#clip770)" d="M292.814 1248.52 L283.222 1263.51 L292.814 1263.51 L292.814 1248.52 M291.817 1245.21 L296.594 1245.21 L296.594 1263.51 L300.6 1263.51 L300.6 1266.67 L296.594 1266.67 L296.594 1273.29 L292.814 1273.29 L292.814 1266.67 L280.137 1266.67 L280.137 1263.01 L291.817 1245.21 Z" fill="#000000" fill-rule="nonzero" fill-opacity="1"></path><path clip-path="url(#clip770)" d="M305.923 1245.21 L323.978 1245.21 L323.978 1246.83 L313.784 1273.29 L309.816 1273.29 L319.408 1248.41 L305.923 1248.41 L305.923 1245.21 Z" fill="#000000" fill-rule="nonzero" fill-opacity="1"></path><path clip-path="url(#clip770)" d="M50.9921 986.626 L80.6679 986.626 L80.6679 990.561 L50.9921 990.561 L50.9921 986.626 Z" fill="#000000" fill-rule="nonzero" fill-opacity="1"></path><path clip-path="url(#clip770)" d="M101.339 984.311 Q98.1909 984.311 96.3391 986.464 Q94.5104 988.617 94.5104 992.367 Q94.5104 996.093 96.3391 998.269 Q98.1909 1000.42 101.339 1000.42 Q104.487 1000.42 106.316 998.269 Q108.168 996.093 108.168 992.367 Q108.168 988.617 106.316 986.464 Q104.487 984.311 101.339 984.311 M110.621 969.658 L110.621 973.918 Q108.862 973.084 107.057 972.644 Q105.274 972.205 103.515 972.205 Q98.8854 972.205 96.4317 975.33 Q94.0012 978.455 93.6539 984.774 Q95.0197 982.76 97.0798 981.695 Q99.14 980.607 101.617 980.607 Q106.825 980.607 109.834 983.779 Q112.867 986.927 112.867 992.367 Q112.867 997.691 109.719 1000.91 Q106.571 1004.13 101.339 1004.13 Q95.3437 1004.13 92.1725 999.542 Q89.0012 994.936 89.0012 986.209 Q89.0012 978.015 92.89 973.154 Q96.7789 968.269 103.33 968.269 Q105.089 968.269 106.871 968.617 Q108.677 968.964 110.621 969.658 Z" fill="#000000" fill-rule="nonzero" fill-opacity="1"></path><path clip-path="url(#clip770)" d="M120.922 997.575 L125.807 997.575 L125.807 1003.45 L120.922 1003.45 L120.922 997.575 Z" fill="#000000" fill-rule="nonzero" fill-opacity="1"></path><path clip-path="url(#clip770)" d="M145.992 971.973 Q142.381 971.973 140.552 975.538 Q138.746 979.08 138.746 986.209 Q138.746 993.316 140.552 996.88 Q142.381 1000.42 145.992 1000.42 Q149.626 1000.42 151.431 996.88 Q153.26 993.316 153.26 986.209 Q153.26 979.08 151.431 975.538 Q149.626 971.973 145.992 971.973 M145.992 968.269 Q151.802 968.269 154.857 972.876 Q157.936 977.459 157.936 986.209 Q157.936 994.936 154.857 999.542 Q151.802 1004.13 145.992 1004.13 Q140.181 1004.13 137.103 999.542 Q134.047 994.936 134.047 986.209 Q134.047 977.459 137.103 972.876 Q140.181 968.269 145.992 968.269 Z" fill="#000000" fill-rule="nonzero" fill-opacity="1"></path><path clip-path="url(#clip770)" d="M194.325 977.992 L183.746 988.617 L194.325 999.195 L191.57 1002 L180.945 991.371 L170.32 1002 L167.589 999.195 L178.144 988.617 L167.589 977.992 L170.32 975.191 L180.945 985.816 L191.57 975.191 L194.325 977.992 Z" fill="#000000" fill-rule="nonzero" fill-opacity="1"></path><path clip-path="url(#clip770)" d="M206.686 999.519 L214.325 999.519 L214.325 973.154 L206.014 974.82 L206.014 970.561 L214.278 968.894 L218.954 968.894 L218.954 999.519 L226.593 999.519 L226.593 1003.45 L206.686 1003.45 L206.686 999.519 Z" fill="#000000" fill-rule="nonzero" fill-opacity="1"></path><path clip-path="url(#clip770)" d="M246.037 971.973 Q242.426 971.973 240.598 975.538 Q238.792 979.08 238.792 986.209 Q238.792 993.316 240.598 996.88 Q242.426 1000.42 246.037 1000.42 Q249.672 1000.42 251.477 996.88 Q253.306 993.316 253.306 986.209 Q253.306 979.08 251.477 975.538 Q249.672 971.973 246.037 971.973 M246.037 968.269 Q251.848 968.269 254.903 972.876 Q257.982 977.459 257.982 986.209 Q257.982 994.936 254.903 999.542 Q251.848 1004.13 246.037 1004.13 Q240.227 1004.13 237.149 999.542 Q234.093 994.936 234.093 986.209 Q234.093 977.459 237.149 972.876 Q240.227 968.269 246.037 968.269 Z" fill="#000000" fill-rule="nonzero" fill-opacity="1"></path><path clip-path="url(#clip770)" d="M258.527 972.847 L264.734 972.847 L264.734 951.425 L257.982 952.779 L257.982 949.318 L264.696 947.964 L268.495 947.964 L268.495 972.847 L274.702 972.847 L274.702 976.044 L258.527 976.044 L258.527 972.847 Z" fill="#000000" fill-rule="nonzero" fill-opacity="1"></path><path clip-path="url(#clip770)" d="M292.814 951.274 L283.222 966.264 L292.814 966.264 L292.814 951.274 M291.817 947.964 L296.594 947.964 L296.594 966.264 L300.6 966.264 L300.6 969.424 L296.594 969.424 L296.594 976.044 L292.814 976.044 L292.814 969.424 L280.137 969.424 L280.137 965.756 L291.817 947.964 Z" fill="#000000" fill-rule="nonzero" fill-opacity="1"></path><path clip-path="url(#clip770)" d="M305.923 947.964 L323.978 947.964 L323.978 949.582 L313.784 976.044 L309.816 976.044 L319.408 951.161 L305.923 951.161 L305.923 947.964 Z" fill="#000000" fill-rule="nonzero" fill-opacity="1"></path><path clip-path="url(#clip770)" d="M50.9921 689.376 L80.6679 689.376 L80.6679 693.311 L50.9921 693.311 L50.9921 689.376 Z" fill="#000000" fill-rule="nonzero" fill-opacity="1"></path><path clip-path="url(#clip770)" d="M103.608 675.718 L91.8021 694.167 L103.608 694.167 L103.608 675.718 M102.381 671.644 L108.26 671.644 L108.26 694.167 L113.191 694.167 L113.191 698.056 L108.26 698.056 L108.26 706.204 L103.608 706.204 L103.608 698.056 L88.0058 698.056 L88.0058 693.542 L102.381 671.644 Z" fill="#000000" fill-rule="nonzero" fill-opacity="1"></path><path clip-path="url(#clip770)" d="M120.922 700.325 L125.807 700.325 L125.807 706.204 L120.922 706.204 L120.922 700.325 Z" fill="#000000" fill-rule="nonzero" fill-opacity="1"></path><path clip-path="url(#clip770)" d="M145.992 674.723 Q142.381 674.723 140.552 678.288 Q138.746 681.829 138.746 688.959 Q138.746 696.065 140.552 699.63 Q142.381 703.172 145.992 703.172 Q149.626 703.172 151.431 699.63 Q153.26 696.065 153.26 688.959 Q153.26 681.829 151.431 678.288 Q149.626 674.723 145.992 674.723 M145.992 671.019 Q151.802 671.019 154.857 675.626 Q157.936 680.209 157.936 688.959 Q157.936 697.686 154.857 702.292 Q151.802 706.876 145.992 706.876 Q140.181 706.876 137.103 702.292 Q134.047 697.686 134.047 688.959 Q134.047 680.209 137.103 675.626 Q140.181 671.019 145.992 671.019 Z" fill="#000000" fill-rule="nonzero" fill-opacity="1"></path><path clip-path="url(#clip770)" d="M194.325 680.741 L183.746 691.366 L194.325 701.945 L191.57 704.746 L180.945 694.121 L170.32 704.746 L167.589 701.945 L178.144 691.366 L167.589 680.741 L170.32 677.941 L180.945 688.565 L191.57 677.941 L194.325 680.741 Z" fill="#000000" fill-rule="nonzero" fill-opacity="1"></path><path clip-path="url(#clip770)" d="M206.686 702.269 L214.325 702.269 L214.325 675.904 L206.014 677.57 L206.014 673.311 L214.278 671.644 L218.954 671.644 L218.954 702.269 L226.593 702.269 L226.593 706.204 L206.686 706.204 L206.686 702.269 Z" fill="#000000" fill-rule="nonzero" fill-opacity="1"></path><path clip-path="url(#clip770)" d="M246.037 674.723 Q242.426 674.723 240.598 678.288 Q238.792 681.829 238.792 688.959 Q238.792 696.065 240.598 699.63 Q242.426 703.172 246.037 703.172 Q249.672 703.172 251.477 699.63 Q253.306 696.065 253.306 688.959 Q253.306 681.829 251.477 678.288 Q249.672 674.723 246.037 674.723 M246.037 671.019 Q251.848 671.019 254.903 675.626 Q257.982 680.209 257.982 688.959 Q257.982 697.686 254.903 702.292 Q251.848 706.876 246.037 706.876 Q240.227 706.876 237.149 702.292 Q234.093 697.686 234.093 688.959 Q234.093 680.209 237.149 675.626 Q240.227 671.019 246.037 671.019 Z" fill="#000000" fill-rule="nonzero" fill-opacity="1"></path><path clip-path="url(#clip770)" d="M258.527 675.597 L264.734 675.597 L264.734 654.175 L257.982 655.529 L257.982 652.068 L264.696 650.714 L268.495 650.714 L268.495 675.597 L274.702 675.597 L274.702 678.794 L258.527 678.794 L258.527 675.597 Z" fill="#000000" fill-rule="nonzero" fill-opacity="1"></path><path clip-path="url(#clip770)" d="M292.814 654.024 L283.222 669.014 L292.814 669.014 L292.814 654.024 M291.817 650.714 L296.594 650.714 L296.594 669.014 L300.6 669.014 L300.6 672.174 L296.594 672.174 L296.594 678.794 L292.814 678.794 L292.814 672.174 L280.137 672.174 L280.137 668.506 L291.817 650.714 Z" fill="#000000" fill-rule="nonzero" fill-opacity="1"></path><path clip-path="url(#clip770)" d="M305.923 650.714 L323.978 650.714 L323.978 652.331 L313.784 678.794 L309.816 678.794 L319.408 653.911 L305.923 653.911 L305.923 650.714 Z" fill="#000000" fill-rule="nonzero" fill-opacity="1"></path><path clip-path="url(#clip770)" d="M50.9921 392.125 L80.6679 392.125 L80.6679 396.061 L50.9921 396.061 L50.9921 392.125 Z" fill="#000000" fill-rule="nonzero" fill-opacity="1"></path><path clip-path="url(#clip770)" d="M94.7882 405.019 L111.108 405.019 L111.108 408.954 L89.1632 408.954 L89.1632 405.019 Q91.8252 402.264 96.4085 397.635 Q101.015 392.982 102.196 391.639 Q104.441 389.116 105.321 387.38 Q106.223 385.621 106.223 383.931 Q106.223 381.176 104.279 379.44 Q102.358 377.704 99.2558 377.704 Q97.0567 377.704 94.603 378.468 Q92.1725 379.232 89.3947 380.783 L89.3947 376.061 Q92.2188 374.926 94.6724 374.348 Q97.1261 373.769 99.1632 373.769 Q104.534 373.769 107.728 376.454 Q110.922 379.139 110.922 383.63 Q110.922 385.76 110.112 387.681 Q109.325 389.579 107.219 392.172 Q106.64 392.843 103.538 396.061 Q100.436 399.255 94.7882 405.019 Z" fill="#000000" fill-rule="nonzero" fill-opacity="1"></path><path clip-path="url(#clip770)" d="M120.922 403.074 L125.807 403.074 L125.807 408.954 L120.922 408.954 L120.922 403.074 Z" fill="#000000" fill-rule="nonzero" fill-opacity="1"></path><path clip-path="url(#clip770)" d="M145.992 377.473 Q142.381 377.473 140.552 381.038 Q138.746 384.579 138.746 391.709 Q138.746 398.815 140.552 402.38 Q142.381 405.922 145.992 405.922 Q149.626 405.922 151.431 402.38 Q153.26 398.815 153.26 391.709 Q153.26 384.579 151.431 381.038 Q149.626 377.473 145.992 377.473 M145.992 373.769 Q151.802 373.769 154.857 378.376 Q157.936 382.959 157.936 391.709 Q157.936 400.436 154.857 405.042 Q151.802 409.625 145.992 409.625 Q140.181 409.625 137.103 405.042 Q134.047 400.436 134.047 391.709 Q134.047 382.959 137.103 378.376 Q140.181 373.769 145.992 373.769 Z" fill="#000000" fill-rule="nonzero" fill-opacity="1"></path><path clip-path="url(#clip770)" d="M194.325 383.491 L183.746 394.116 L194.325 404.695 L191.57 407.496 L180.945 396.871 L170.32 407.496 L167.589 404.695 L178.144 394.116 L167.589 383.491 L170.32 380.69 L180.945 391.315 L191.57 380.69 L194.325 383.491 Z" fill="#000000" fill-rule="nonzero" fill-opacity="1"></path><path clip-path="url(#clip770)" d="M206.686 405.019 L214.325 405.019 L214.325 378.653 L206.014 380.32 L206.014 376.061 L214.278 374.394 L218.954 374.394 L218.954 405.019 L226.593 405.019 L226.593 408.954 L206.686 408.954 L206.686 405.019 Z" fill="#000000" fill-rule="nonzero" fill-opacity="1"></path><path clip-path="url(#clip770)" d="M246.037 377.473 Q242.426 377.473 240.598 381.038 Q238.792 384.579 238.792 391.709 Q238.792 398.815 240.598 402.38 Q242.426 405.922 246.037 405.922 Q249.672 405.922 251.477 402.38 Q253.306 398.815 253.306 391.709 Q253.306 384.579 251.477 381.038 Q249.672 377.473 246.037 377.473 M246.037 373.769 Q251.848 373.769 254.903 378.376 Q257.982 382.959 257.982 391.709 Q257.982 400.436 254.903 405.042 Q251.848 409.625 246.037 409.625 Q240.227 409.625 237.149 405.042 Q234.093 400.436 234.093 391.709 Q234.093 382.959 237.149 378.376 Q240.227 373.769 246.037 373.769 Z" fill="#000000" fill-rule="nonzero" fill-opacity="1"></path><path clip-path="url(#clip770)" d="M258.527 378.346 L264.734 378.346 L264.734 356.924 L257.982 358.278 L257.982 354.818 L264.696 353.464 L268.495 353.464 L268.495 378.346 L274.702 378.346 L274.702 381.544 L258.527 381.544 L258.527 378.346 Z" fill="#000000" fill-rule="nonzero" fill-opacity="1"></path><path clip-path="url(#clip770)" d="M292.814 356.774 L283.222 371.764 L292.814 371.764 L292.814 356.774 M291.817 353.464 L296.594 353.464 L296.594 371.764 L300.6 371.764 L300.6 374.923 L296.594 374.923 L296.594 381.544 L292.814 381.544 L292.814 374.923 L280.137 374.923 L280.137 371.256 L291.817 353.464 Z" fill="#000000" fill-rule="nonzero" fill-opacity="1"></path><path clip-path="url(#clip770)" d="M305.923 353.464 L323.978 353.464 L323.978 355.081 L313.784 381.544 L309.816 381.544 L319.408 356.661 L305.923 356.661 L305.923 353.464 Z" fill="#000000" fill-rule="nonzero" fill-opacity="1"></path><path clip-path="url(#clip770)" d="M312.034 73.775 Q308.423 73.775 306.594 77.3398 Q304.789 80.8814 304.789 88.011 Q304.789 95.1174 306.594 98.6822 Q308.423 102.224 312.034 102.224 Q315.668 102.224 317.474 98.6822 Q319.302 95.1174 319.302 88.011 Q319.302 80.8814 317.474 77.3398 Q315.668 73.775 312.034 73.775 M312.034 70.0713 Q317.844 70.0713 320.9 74.6777 Q323.978 79.261 323.978 88.011 Q323.978 96.7378 320.9 101.344 Q317.844 105.928 312.034 105.928 Q306.224 105.928 303.145 101.344 Q300.089 96.7378 300.089 88.011 Q300.089 79.261 303.145 74.6777 Q306.224 70.0713 312.034 70.0713 Z" fill="#000000" fill-rule="nonzero" fill-opacity="1"></path><polyline clip-path="url(#clip772)" style="stroke:#009af9; stroke-linecap:round; stroke-linejoin:round; stroke-width:4; stroke-opacity:1; fill:none" points="416.378,87.9763 420.145,87.9763 423.913,87.9763 427.68,87.9763 431.448,87.9763 435.215,87.9763 438.983,87.9763 442.75,87.9763 446.518,87.9763 450.285,87.9763 454.053,87.9763 457.82,87.9763 461.588,87.9763 465.355,87.9763 469.122,87.9763 472.89,87.9763 476.657,87.9763 480.425,87.9763 484.192,87.9763 487.96,87.9763 491.727,87.9763 495.495,87.9763 499.262,87.9763 503.03,87.9763 506.797,87.9763 510.565,87.9763 514.332,87.9763 518.1,87.9763 521.867,87.9763 525.635,87.9763 529.402,87.9763 533.17,87.9763 536.937,87.9763 540.705,87.9763 544.472,87.9763 548.24,87.9763 552.007,87.9763 555.775,87.9763 559.542,87.9763 563.31,87.9763 567.077,87.9763 570.845,87.9763 574.612,87.9763 578.38,87.9763 582.147,87.9763 585.915,87.9763 589.682,87.9763 593.45,87.9763 597.217,87.9763 600.985,87.9763 604.752,87.9763 608.52,87.9763 612.287,87.9763 616.055,87.9763 619.822,87.9763 623.59,87.9763 627.357,87.9763 631.125,87.9763 634.892,87.9763 638.66,87.9763 642.427,87.9763 646.195,87.9763 649.962,87.9763 653.73,87.9763 657.497,87.9763 661.265,87.9763 665.032,87.9763 668.8,87.9763 672.567,87.9763 676.335,87.9763 680.102,87.9763 683.87,87.9763 687.637,87.9763 691.405,87.9763 695.172,87.9763 698.94,87.9763 702.707,87.9763 706.475,87.9763 710.242,87.9763 714.01,87.9763 717.777,87.9763 721.545,87.9763 725.312,87.9763 729.079,87.9763 732.847,87.9763 736.614,87.9763 740.382,87.9763 744.149,87.9763 747.917,87.9763 751.684,87.9763 755.452,87.9763 759.219,87.9763 762.987,87.9763 766.754,87.9763 770.522,87.9763 774.289,87.9763 778.057,87.9763 781.824,87.9763 785.592,87.9763 789.359,87.9763 793.127,87.9763 796.894,87.9763 800.662,87.9763 804.429,87.9763 808.197,87.9763 811.964,87.9763 815.732,87.9763 819.499,87.9763 823.267,87.9763 827.034,87.9763 830.802,87.9763 834.569,87.9763 838.337,87.9763 842.104,87.9763 845.872,87.9763 849.639,87.9763 853.407,87.9763 857.174,87.9763 860.942,87.9763 864.709,87.9763 868.477,87.9763 872.244,87.9763 876.012,87.9763 879.779,87.9763 883.547,87.9763 887.314,87.9763 891.082,87.9763 894.849,87.9763 898.617,87.9763 902.384,87.9763 906.152,87.9763 909.919,87.9763 913.687,87.9763 917.454,87.9763 921.222,87.9763 924.989,87.9763 928.757,87.9763 932.524,87.9763 936.292,87.9763 940.059,87.9763 943.827,87.9763 947.594,87.9763 951.362,87.9763 955.129,87.9763 958.897,87.9763 962.664,87.9763 966.432,87.9763 970.199,87.9763 973.967,87.9763 977.734,87.9763 981.502,87.9763 985.269,87.9763 989.037,87.9763 992.804,87.9763 996.571,87.9763 1000.34,87.9763 1004.11,87.9763 1007.87,87.9763 1011.64,87.9763 1015.41,87.9763 1019.18,87.9763 1022.94,87.9763 1026.71,87.9763 1030.48,87.9763 1034.25,87.9763 1038.01,87.9763 1041.78,87.9763 1045.55,87.9763 1049.32,87.9763 1053.08,87.9763 1056.85,87.9763 1060.62,87.9763 1064.39,87.9763 1068.15,87.9763 1071.92,87.9763 1075.69,87.9763 1079.46,87.9763 1083.22,87.9763 1086.99,87.9763 1090.76,87.9763 1094.53,87.9763 1098.29,87.9763 1102.06,87.9763 1105.83,87.9763 1109.6,87.9763 1113.36,87.9763 1117.13,87.9763 1120.9,87.9763 1124.67,87.9763 1128.43,87.9763 1132.2,87.9763 1135.97,87.9763 1139.74,87.9763 1143.5,87.9763 1147.27,87.9763 1151.04,87.9763 1154.81,87.9763 1158.57,87.9763 1162.34,87.9763 1166.11,87.9763 1169.88,87.9763 1173.64,87.9763 1177.41,87.9763 1181.18,87.9763 1184.95,87.9763 1188.71,87.9763 1192.48,87.9763 1196.25,87.9763 1200.02,87.9763 1203.78,87.9763 1207.55,87.9763 1211.32,87.9763 1215.09,87.9763 1218.85,87.9763 1222.62,87.9763 1226.39,87.9763 1230.16,87.9763 1233.92,87.9763 1237.69,87.9763 1241.46,87.9763 1245.23,87.9763 1248.99,87.9763 1252.76,87.9763 1256.53,87.9763 1260.3,87.9763 1264.06,87.9763 1267.83,87.9763 1271.6,87.9763 1275.37,87.9763 1279.13,87.9763 1282.9,87.9763 1286.67,87.9763 1290.44,87.9763 1294.2,87.9763 1297.97,87.9763 1301.74,87.9763 1305.51,87.9763 1309.27,87.9763 1313.04,87.9763 1316.81,87.9763 1320.58,87.9763 1324.34,87.9763 1328.11,87.9763 1331.88,87.9763 1335.65,87.9763 1339.41,87.9763 1343.18,87.9763 1346.95,87.9763 1350.72,87.9763 1354.48,87.9763 1358.25,87.9763 1362.02,87.9763 1365.79,87.9763 1369.55,87.9763 1373.32,87.9763 1377.09,87.9763 1380.86,87.9763 1384.62,87.9763 1388.39,87.9763 1392.16,87.9763 1395.93,87.9763 1399.69,87.9763 1403.46,87.9763 1407.23,87.9763 1411,87.9763 1414.76,87.9763 1418.53,87.9763 1422.3,87.9763 1426.07,87.9763 1429.83,87.9763 1433.6,87.9763 1437.37,87.9763 1441.14,87.9763 1444.9,87.9763 1448.67,87.9763 1452.44,87.9763 1456.21,87.9763 1459.97,87.9763 1463.74,87.9763 1467.51,87.9763 1471.28,87.9763 1475.04,87.9763 1478.81,87.9763 1482.58,87.9763 1486.35,87.9763 1490.11,87.9763 1493.88,87.9763 1497.65,87.9763 1501.42,87.9763 1505.18,87.9763 1508.95,87.9763 1512.72,87.9763 1516.49,87.9763 1520.25,87.9763 1524.02,87.9763 1527.79,87.9763 1531.56,87.9763 1535.32,87.9763 1539.09,87.9763 1542.86,87.9763 1546.63,87.9763 1550.39,87.9763 1554.16,87.9763 1557.93,87.9763 1561.7,87.9763 1565.46,87.9763 1569.23,87.9763 1573,87.9763 1576.77,87.9763 1580.53,87.9763 1584.3,87.9763 1588.07,87.9763 1591.84,87.9763 1595.6,87.9763 1599.37,87.9763 1603.14,87.9763 1606.91,87.9763 1610.67,87.9763 1614.44,87.9763 1618.21,87.9763 1621.98,87.9763 1625.74,87.9763 1629.51,87.9763 1633.28,87.9763 1637.05,87.9763 1640.81,87.9763 1644.58,87.9763 1648.35,87.9763 1652.12,87.9763 1655.88,87.9763 1659.65,87.9763 1663.42,87.9763 1667.19,87.9763 1670.95,87.9763 1674.72,87.9763 1678.49,87.9763 1682.26,87.9763 1686.02,87.9763 1689.79,87.9763 1693.56,87.9763 1697.33,87.9763 1701.09,87.9763 1704.86,87.9763 1708.63,87.9763 1712.4,87.9763 1716.16,87.9763 1719.93,87.9763 1723.7,87.9763 1727.47,87.9763 1731.23,87.9763 1735,87.9763 1738.77,87.9763 1742.54,87.9763 1746.3,87.9763 1750.07,87.9763 1753.84,87.9763 1757.61,87.9763 1761.37,87.9763 1765.14,87.9763 1768.91,87.9763 1772.68,87.9763 1776.44,87.9763 1780.21,87.9763 1783.98,87.9763 1787.74,87.9763 1791.51,87.9763 1795.28,87.9763 1799.05,87.9763 1802.81,87.9763 1806.58,87.9763 1810.35,87.9763 1814.12,87.9763 1817.88,87.9763 1821.65,87.9763 1825.42,87.9763 1829.19,87.9763 1832.95,87.9763 1836.72,87.9763 1840.49,87.9763 1844.26,87.9763 1848.02,87.9763 1851.79,87.9763 1855.56,87.9763 1859.33,87.9763 1863.09,87.9763 1866.86,87.9763 1870.63,87.9763 1874.4,87.9763 1878.16,87.9763 1881.93,87.9763 1885.7,87.9763 1889.47,87.9763 1893.23,87.9763 1897,87.9763 1900.77,87.9763 1904.54,87.9763 1908.3,87.9763 1912.07,87.9763 1915.84,87.9763 1919.61,87.9763 1923.37,87.9763 1927.14,87.9763 1930.91,87.9763 1934.68,87.9763 1938.44,87.9763 1942.21,87.9763 1945.98,87.9763 1949.75,87.9763 1953.51,87.9763 1957.28,87.9763 1961.05,87.9763 1964.82,87.9763 1968.58,87.9763 1972.35,87.9763 1976.12,87.9763 1979.89,87.9763 1983.65,87.9763 1987.42,87.9763 1991.19,87.9763 1994.96,87.9763 1998.72,87.9763 2002.49,87.9763 2006.26,87.9763 2010.03,87.9763 2013.79,87.9763 2017.56,87.9763 2021.33,87.9763 2025.1,87.9763 2028.86,87.9763 2032.63,87.9763 2036.4,87.9763 2040.17,87.9763 2043.93,87.9763 2047.7,87.9763 2051.47,87.9763 2055.24,87.9763 2059,87.9763 2062.77,87.9763 2066.54,87.9763 2070.31,87.9763 2074.07,87.9763 2077.84,87.9763 2081.61,87.9763 2085.38,87.9763 2089.14,87.9763 2092.91,87.9763 2096.68,87.9763 2100.45,87.9763 2104.21,87.9763 2107.98,87.9763 2111.75,87.9763 2115.52,87.9763 2119.28,87.9763 2123.05,87.9763 2126.82,87.9763 2130.59,87.9763 2134.35,87.9763 2138.12,87.9763 2141.89,87.9763 2145.66,87.9763 2149.42,87.9763 2153.19,87.9763 2156.96,87.9763 2160.73,87.9763 2164.49,87.9763 2168.26,87.9763 2172.03,87.9763 2175.8,87.9763 2179.56,87.9763 2183.33,87.9763 2187.1,87.9763 2190.87,87.9763 2194.63,87.9763 2198.4,87.9763 2202.17,87.9763 2205.94,87.9764 2209.7,87.9764 2213.47,87.9766 2217.24,87.9769 2221.01,87.9776 2224.77,87.9789 2228.54,87.9815 2232.31,87.9866 2236.08,87.997 2239.84,88.0177 2243.61,88.0591 2247.38,88.142 2251.15,88.3078 2254.91,88.6392 2258.68,89.3022 2262.45,90.6281 2266.22,93.2799 2269.98,98.5836 2273.75,109.191 2277.52,130.406 2281.29,172.835 2285.05,257.694 2288.82,427.411 2292.59,766.846 2296.36,1445.72 "></polyline>
<path clip-path="url(#clip770)" d="M426.404 1438.47 L678.112 1438.47 L678.112 1334.79 L426.404 1334.79  Z" fill="#ffffff" fill-rule="evenodd" fill-opacity="1"></path>
<polyline clip-path="url(#clip770)" style="stroke:#000000; stroke-linecap:round; stroke-linejoin:round; stroke-width:4; stroke-opacity:1; fill:none" points="426.404,1438.47 678.112,1438.47 678.112,1334.79 426.404,1334.79 426.404,1438.47 "></polyline>
<polyline clip-path="url(#clip770)" style="stroke:#009af9; stroke-linecap:round; stroke-linejoin:round; stroke-width:4; stroke-opacity:1; fill:none" points="448.546,1386.63 581.398,1386.63 "></polyline>
<path clip-path="url(#clip770)" d="M617.382 1406.32 Q615.577 1410.95 613.864 1412.36 Q612.151 1413.78 609.281 1413.78 L605.878 1413.78 L605.878 1410.21 L608.378 1410.21 Q610.137 1410.21 611.109 1409.38 Q612.082 1408.54 613.262 1405.44 L614.026 1403.5 L603.54 1377.99 L608.054 1377.99 L616.156 1398.27 L624.257 1377.99 L628.771 1377.99 L617.382 1406.32 Z" fill="#000000" fill-rule="nonzero" fill-opacity="1"></path><path clip-path="url(#clip770)" d="M636.063 1399.98 L643.702 1399.98 L643.702 1373.61 L635.392 1375.28 L635.392 1371.02 L643.655 1369.35 L648.331 1369.35 L648.331 1399.98 L655.97 1399.98 L655.97 1403.91 L636.063 1403.91 L636.063 1399.98 Z" fill="#000000" fill-rule="nonzero" fill-opacity="1"></path></svg>