<svg xmlns="http://www.w3.org/2000/svg" xmlns:xlink="http://www.w3.org/1999/xlink" width="600" height="400" viewBox="0 0 2400 1600">
<defs>
  <clipPath id="clip010">
    <rect x="0" y="0" width="2400" height="1600"></rect>
  </clipPath>
</defs>
<path clip-path="url(#clip010)" d="M0 1600 L2400 1600 L2400 8.88178e-14 L0 8.88178e-14  Z" fill="#ffffff" fill-rule="evenodd" fill-opacity="1"></path>
<defs>
  <clipPath id="clip011">
    <rect x="480" y="0" width="1681" height="1600"></rect>
  </clipPath>
</defs>
<path clip-path="url(#clip010)" d="M300 1486.45 L2352.76 1486.45 L2352.76 47.2441 L300 47.2441  Z" fill="#ffffff" fill-rule="evenodd" fill-opacity="1"></path>
<defs>
  <clipPath id="clip012">
    <rect x="300" y="47" width="2054" height="1440"></rect>
  </clipPath>
</defs>
<polyline clip-path="url(#clip012)" style="stroke:#000000; stroke-linecap:round; stroke-linejoin:round; stroke-width:2; stroke-opacity:0.1; fill:none" points="354.201,1486.45 354.201,47.2441 "></polyline>
<polyline clip-path="url(#clip012)" style="stroke:#000000; stroke-linecap:round; stroke-linejoin:round; stroke-width:2; stroke-opacity:0.1; fill:none" points="743.851,1486.45 743.851,47.2441 "></polyline>
<polyline clip-path="url(#clip012)" style="stroke:#000000; stroke-linecap:round; stroke-linejoin:round; stroke-width:2; stroke-opacity:0.1; fill:none" points="1133.5,1486.45 1133.5,47.2441 "></polyline>
<polyline clip-path="url(#clip012)" style="stroke:#000000; stroke-linecap:round; stroke-linejoin:round; stroke-width:2; stroke-opacity:0.1; fill:none" points="1523.15,1486.45 1523.15,47.2441 "></polyline>
<polyline clip-path="url(#clip012)" style="stroke:#000000; stroke-linecap:round; stroke-linejoin:round; stroke-width:2; stroke-opacity:0.1; fill:none" points="1912.8,1486.45 1912.8,47.2441 "></polyline>
<polyline clip-path="url(#clip012)" style="stroke:#000000; stroke-linecap:round; stroke-linejoin:round; stroke-width:2; stroke-opacity:0.1; fill:none" points="2302.45,1486.45 2302.45,47.2441 "></polyline>
<polyline clip-path="url(#clip012)" style="stroke:#000000; stroke-linecap:round; stroke-linejoin:round; stroke-width:2; stroke-opacity:0.1; fill:none" points="300,1445.72 2352.76,1445.72 "></polyline>
<polyline clip-path="url(#clip012)" style="stroke:#000000; stroke-linecap:round; stroke-linejoin:round; stroke-width:2; stroke-opacity:0.1; fill:none" points="300,1186.61 2352.76,1186.61 "></polyline>
<polyline clip-path="url(#clip012)" style="stroke:#000000; stroke-linecap:round; stroke-linejoin:round; stroke-width:2; stroke-opacity:0.1; fill:none" points="300,927.509 2352.76,927.509 "></polyline>
<polyline clip-path="url(#clip012)" style="stroke:#000000; stroke-linecap:round; stroke-linejoin:round; stroke-width:2; stroke-opacity:0.1; fill:none" points="300,668.406 2352.76,668.406 "></polyline>
<polyline clip-path="url(#clip012)" style="stroke:#000000; stroke-linecap:round; stroke-linejoin:round; stroke-width:2; stroke-opacity:0.1; fill:none" points="300,409.303 2352.76,409.303 "></polyline>
<polyline clip-path="url(#clip012)" style="stroke:#000000; stroke-linecap:round; stroke-linejoin:round; stroke-width:2; stroke-opacity:0.1; fill:none" points="300,150.2 2352.76,150.2 "></polyline>
<polyline clip-path="url(#clip010)" style="stroke:#000000; stroke-linecap:round; stroke-linejoin:round; stroke-width:4; stroke-opacity:1; fill:none" points="300,1486.45 2352.76,1486.45 "></polyline>
<polyline clip-path="url(#clip010)" style="stroke:#000000; stroke-linecap:round; stroke-linejoin:round; stroke-width:4; stroke-opacity:1; fill:none" points="354.201,1486.45 354.201,1467.55 "></polyline>
<polyline clip-path="url(#clip010)" style="stroke:#000000; stroke-linecap:round; stroke-linejoin:round; stroke-width:4; stroke-opacity:1; fill:none" points="743.851,1486.45 743.851,1467.55 "></polyline>
<polyline clip-path="url(#clip010)" style="stroke:#000000; stroke-linecap:round; stroke-linejoin:round; stroke-width:4; stroke-opacity:1; fill:none" points="1133.5,1486.45 1133.5,1467.55 "></polyline>
<polyline clip-path="url(#clip010)" style="stroke:#000000; stroke-linecap:round; stroke-linejoin:round; stroke-width:4; stroke-opacity:1; fill:none" points="1523.15,1486.45 1523.15,1467.55 "></polyline>
<polyline clip-path="url(#clip010)" style="stroke:#000000; stroke-linecap:round; stroke-linejoin:round; stroke-width:4; stroke-opacity:1; fill:none" points="1912.8,1486.45 1912.8,1467.55 "></polyline>
<polyline clip-path="url(#clip010)" style="stroke:#000000; stroke-linecap:round; stroke-linejoin:round; stroke-width:4; stroke-opacity:1; fill:none" points="2302.45,1486.45 2302.45,1467.55 "></polyline>
<path clip-path="url(#clip010)" d="M354.201 1517.37 Q350.59 1517.37 348.761 1520.93 Q346.955 1524.47 346.955 1531.6 Q346.955 1538.71 348.761 1542.27 Q350.59 1545.82 354.201 1545.82 Q357.835 1545.82 359.64 1542.27 Q361.469 1538.71 361.469 1531.6 Q361.469 1524.47 359.64 1520.93 Q357.835 1517.37 354.201 1517.37 M354.201 1513.66 Q360.011 1513.66 363.066 1518.27 Q366.145 1522.85 366.145 1531.6 Q366.145 1540.33 363.066 1544.94 Q360.011 1549.52 354.201 1549.52 Q348.39 1549.52 345.312 1544.94 Q342.256 1540.33 342.256 1531.6 Q342.256 1522.85 345.312 1518.27 Q348.39 1513.66 354.201 1513.66 Z" fill="#000000" fill-rule="nonzero" fill-opacity="1"></path><path clip-path="url(#clip010)" d="M703.458 1544.91 L711.096 1544.91 L711.096 1518.55 L702.786 1520.21 L702.786 1515.95 L711.05 1514.29 L715.726 1514.29 L715.726 1544.91 L723.365 1544.91 L723.365 1548.85 L703.458 1548.85 L703.458 1544.91 Z" fill="#000000" fill-rule="nonzero" fill-opacity="1"></path><path clip-path="url(#clip010)" d="M742.809 1517.37 Q739.198 1517.37 737.369 1520.93 Q735.564 1524.47 735.564 1531.6 Q735.564 1538.71 737.369 1542.27 Q739.198 1545.82 742.809 1545.82 Q746.443 1545.82 748.249 1542.27 Q750.078 1538.71 750.078 1531.6 Q750.078 1524.47 748.249 1520.93 Q746.443 1517.37 742.809 1517.37 M742.809 1513.66 Q748.619 1513.66 751.675 1518.27 Q754.754 1522.85 754.754 1531.6 Q754.754 1540.33 751.675 1544.94 Q748.619 1549.52 742.809 1549.52 Q736.999 1549.52 733.92 1544.94 Q730.865 1540.33 730.865 1531.6 Q730.865 1522.85 733.92 1518.27 Q736.999 1513.66 742.809 1513.66 Z" fill="#000000" fill-rule="nonzero" fill-opacity="1"></path><path clip-path="url(#clip010)" d="M772.971 1517.37 Q769.36 1517.37 767.531 1520.93 Q765.726 1524.47 765.726 1531.6 Q765.726 1538.71 767.531 1542.27 Q769.36 1545.82 772.971 1545.82 Q776.605 1545.82 778.411 1542.27 Q780.24 1538.71 780.24 1531.6 Q780.24 1524.47 778.411 1520.93 Q776.605 1517.37 772.971 1517.37 M772.971 1513.66 Q778.781 1513.66 781.837 1518.27 Q784.915 1522.85 784.915 1531.6 Q784.915 1540.33 781.837 1544.94 Q778.781 1549.52 772.971 1549.52 Q767.161 1549.52 764.082 1544.94 Q761.027 1540.33 761.027 1531.6 Q761.027 1522.85 764.082 1518.27 Q767.161 1513.66 772.971 1513.66 Z" fill="#000000" fill-rule="nonzero" fill-opacity="1"></path><path clip-path="url(#clip010)" d="M1097.19 1544.91 L1113.51 1544.91 L1113.51 1548.85 L1091.57 1548.85 L1091.57 1544.91 Q1094.23 1542.16 1098.81 1537.53 Q1103.42 1532.88 1104.6 1531.53 Q1106.85 1529.01 1107.73 1527.27 Q1108.63 1525.51 1108.63 1523.82 Q1108.63 1521.07 1106.68 1519.33 Q1104.76 1517.6 1101.66 1517.6 Q1099.46 1517.6 1097.01 1518.36 Q1094.58 1519.13 1091.8 1520.68 L1091.8 1515.95 Q1094.62 1514.82 1097.08 1514.24 Q1099.53 1513.66 1101.57 1513.66 Q1106.94 1513.66 1110.13 1516.35 Q1113.33 1519.03 1113.33 1523.52 Q1113.33 1525.65 1112.52 1527.57 Q1111.73 1529.47 1109.62 1532.07 Q1109.05 1532.74 1105.94 1535.95 Q1102.84 1539.15 1097.19 1544.91 Z" fill="#000000" fill-rule="nonzero" fill-opacity="1"></path><path clip-path="url(#clip010)" d="M1133.33 1517.37 Q1129.72 1517.37 1127.89 1520.93 Q1126.08 1524.47 1126.08 1531.6 Q1126.08 1538.71 1127.89 1542.27 Q1129.72 1545.82 1133.33 1545.82 Q1136.96 1545.82 1138.77 1542.27 Q1140.6 1538.71 1140.6 1531.6 Q1140.6 1524.47 1138.77 1520.93 Q1136.96 1517.37 1133.33 1517.37 M1133.33 1513.66 Q1139.14 1513.66 1142.19 1518.27 Q1145.27 1522.85 1145.27 1531.6 Q1145.27 1540.33 1142.19 1544.94 Q1139.14 1549.52 1133.33 1549.52 Q1127.52 1549.52 1124.44 1544.94 Q1121.38 1540.33 1121.38 1531.6 Q1121.38 1522.85 1124.44 1518.27 Q1127.52 1513.66 1133.33 1513.66 Z" fill="#000000" fill-rule="nonzero" fill-opacity="1"></path><path clip-path="url(#clip010)" d="M1163.49 1517.37 Q1159.88 1517.37 1158.05 1520.93 Q1156.24 1524.47 1156.24 1531.6 Q1156.24 1538.71 1158.05 1542.27 Q1159.88 1545.82 1163.49 1545.82 Q1167.12 1545.82 1168.93 1542.27 Q1170.76 1538.71 1170.76 1531.6 Q1170.76 1524.47 1168.93 1520.93 Q1167.12 1517.37 1163.49 1517.37 M1163.49 1513.66 Q1169.3 1513.66 1172.36 1518.27 Q1175.43 1522.85 1175.43 1531.6 Q1175.43 1540.33 1172.36 1544.94 Q1169.3 1549.52 1163.49 1549.52 Q1157.68 1549.52 1154.6 1544.94 Q1151.55 1540.33 1151.55 1531.6 Q1151.55 1522.85 1154.6 1518.27 Q1157.68 1513.66 1163.49 1513.66 Z" fill="#000000" fill-rule="nonzero" fill-opacity="1"></path><path clip-path="url(#clip010)" d="M1496.91 1530.21 Q1500.27 1530.93 1502.14 1533.2 Q1504.04 1535.47 1504.04 1538.8 Q1504.04 1543.92 1500.52 1546.72 Q1497.01 1549.52 1490.52 1549.52 Q1488.35 1549.52 1486.03 1549.08 Q1483.74 1548.66 1481.29 1547.81 L1481.29 1543.29 Q1483.23 1544.43 1485.55 1545.01 Q1487.86 1545.58 1490.39 1545.58 Q1494.78 1545.58 1497.08 1543.85 Q1499.39 1542.11 1499.39 1538.8 Q1499.39 1535.75 1497.24 1534.03 Q1495.11 1532.3 1491.29 1532.3 L1487.26 1532.3 L1487.26 1528.45 L1491.47 1528.45 Q1494.92 1528.45 1496.75 1527.09 Q1498.58 1525.7 1498.58 1523.11 Q1498.58 1520.45 1496.68 1519.03 Q1494.81 1517.6 1491.29 1517.6 Q1489.37 1517.6 1487.17 1518.01 Q1484.97 1518.43 1482.33 1519.31 L1482.33 1515.14 Q1484.99 1514.4 1487.31 1514.03 Q1489.64 1513.66 1491.7 1513.66 Q1497.03 1513.66 1500.13 1516.09 Q1503.23 1518.5 1503.23 1522.62 Q1503.23 1525.49 1501.59 1527.48 Q1499.95 1529.45 1496.91 1530.21 Z" fill="#000000" fill-rule="nonzero" fill-opacity="1"></path><path clip-path="url(#clip010)" d="M1522.91 1517.37 Q1519.3 1517.37 1517.47 1520.93 Q1515.66 1524.47 1515.66 1531.6 Q1515.66 1538.71 1517.47 1542.27 Q1519.3 1545.82 1522.91 1545.82 Q1526.54 1545.82 1528.35 1542.27 Q1530.18 1538.71 1530.18 1531.6 Q1530.18 1524.47 1528.35 1520.93 Q1526.54 1517.37 1522.91 1517.37 M1522.91 1513.66 Q1528.72 1513.66 1531.77 1518.27 Q1534.85 1522.85 1534.85 1531.6 Q1534.85 1540.33 1531.77 1544.94 Q1528.72 1549.52 1522.91 1549.52 Q1517.1 1549.52 1514.02 1544.94 Q1510.96 1540.33 1510.96 1531.6 Q1510.96 1522.85 1514.02 1518.27 Q1517.1 1513.66 1522.91 1513.66 Z" fill="#000000" fill-rule="nonzero" fill-opacity="1"></path><path clip-path="url(#clip010)" d="M1553.07 1517.37 Q1549.46 1517.37 1547.63 1520.93 Q1545.82 1524.47 1545.82 1531.6 Q1545.82 1538.71 1547.63 1542.27 Q1549.46 1545.82 1553.07 1545.82 Q1556.7 1545.82 1558.51 1542.27 Q1560.34 1538.71 1560.34 1531.6 Q1560.34 1524.47 1558.51 1520.93 Q1556.7 1517.37 1553.07 1517.37 M1553.07 1513.66 Q1558.88 1513.66 1561.94 1518.27 Q1565.01 1522.85 1565.01 1531.6 Q1565.01 1540.33 1561.94 1544.94 Q1558.88 1549.52 1553.07 1549.52 Q1547.26 1549.52 1544.18 1544.94 Q1541.13 1540.33 1541.13 1531.6 Q1541.13 1522.85 1544.18 1518.27 Q1547.26 1513.66 1553.07 1513.66 Z" fill="#000000" fill-rule="nonzero" fill-opacity="1"></path><path clip-path="url(#clip010)" d="M1885.89 1518.36 L1874.09 1536.81 L1885.89 1536.81 L1885.89 1518.36 M1884.67 1514.29 L1890.54 1514.29 L1890.54 1536.81 L1895.48 1536.81 L1895.48 1540.7 L1890.54 1540.7 L1890.54 1548.85 L1885.89 1548.85 L1885.89 1540.7 L1870.29 1540.7 L1870.29 1536.19 L1884.67 1514.29 Z" fill="#000000" fill-rule="nonzero" fill-opacity="1"></path><path clip-path="url(#clip010)" d="M1913.21 1517.37 Q1909.6 1517.37 1907.77 1520.93 Q1905.96 1524.47 1905.96 1531.6 Q1905.96 1538.71 1907.77 1542.27 Q1909.6 1545.82 1913.21 1545.82 Q1916.84 1545.82 1918.65 1542.27 Q1920.48 1538.71 1920.48 1531.6 Q1920.48 1524.47 1918.65 1520.93 Q1916.84 1517.37 1913.21 1517.37 M1913.21 1513.66 Q1919.02 1513.66 1922.07 1518.27 Q1925.15 1522.85 1925.15 1531.6 Q1925.15 1540.33 1922.07 1544.94 Q1919.02 1549.52 1913.21 1549.52 Q1907.4 1549.52 1904.32 1544.94 Q1901.26 1540.33 1901.26 1531.6 Q1901.26 1522.85 1904.32 1518.27 Q1907.4 1513.66 1913.21 1513.66 Z" fill="#000000" fill-rule="nonzero" fill-opacity="1"></path><path clip-path="url(#clip010)" d="M1943.37 1517.37 Q1939.76 1517.37 1937.93 1520.93 Q1936.12 1524.47 1936.12 1531.6 Q1936.12 1538.71 1937.93 1542.27 Q1939.76 1545.82 1943.37 1545.82 Q1947 1545.82 1948.81 1542.27 Q1950.64 1538.71 1950.64 1531.6 Q1950.64 1524.47 1948.81 1520.93 Q1947 1517.37 1943.37 1517.37 M1943.37 1513.66 Q1949.18 1513.66 1952.23 1518.27 Q1955.31 1522.85 1955.31 1531.6 Q1955.31 1540.33 1952.23 1544.94 Q1949.18 1549.52 1943.37 1549.52 Q1937.56 1549.52 1934.48 1544.94 Q1931.42 1540.33 1931.42 1531.6 Q1931.42 1522.85 1934.48 1518.27 Q1937.56 1513.66 1943.37 1513.66 Z" fill="#000000" fill-rule="nonzero" fill-opacity="1"></path><path clip-path="url(#clip010)" d="M2262.07 1514.29 L2280.43 1514.29 L2280.43 1518.22 L2266.35 1518.22 L2266.35 1526.7 Q2267.37 1526.35 2268.39 1526.19 Q2269.41 1526 2270.43 1526 Q2276.21 1526 2279.59 1529.17 Q2282.97 1532.34 2282.97 1537.76 Q2282.97 1543.34 2279.5 1546.44 Q2276.03 1549.52 2269.71 1549.52 Q2267.53 1549.52 2265.26 1549.15 Q2263.02 1548.78 2260.61 1548.04 L2260.61 1543.34 Q2262.7 1544.47 2264.92 1545.03 Q2267.14 1545.58 2269.62 1545.58 Q2273.62 1545.58 2275.96 1543.48 Q2278.3 1541.37 2278.3 1537.76 Q2278.3 1534.15 2275.96 1532.04 Q2273.62 1529.94 2269.62 1529.94 Q2267.74 1529.94 2265.87 1530.35 Q2264.01 1530.77 2262.07 1531.65 L2262.07 1514.29 Z" fill="#000000" fill-rule="nonzero" fill-opacity="1"></path><path clip-path="url(#clip010)" d="M2302.19 1517.37 Q2298.57 1517.37 2296.75 1520.93 Q2294.94 1524.47 2294.94 1531.6 Q2294.94 1538.71 2296.75 1542.27 Q2298.57 1545.82 2302.19 1545.82 Q2305.82 1545.82 2307.63 1542.27 Q2309.45 1538.71 2309.45 1531.6 Q2309.45 1524.47 2307.63 1520.93 Q2305.82 1517.37 2302.19 1517.37 M2302.19 1513.66 Q2308 1513.66 2311.05 1518.27 Q2314.13 1522.85 2314.13 1531.6 Q2314.13 1540.33 2311.05 1544.94 Q2308 1549.52 2302.19 1549.52 Q2296.38 1549.52 2293.3 1544.94 Q2290.24 1540.33 2290.24 1531.6 Q2290.24 1522.85 2293.3 1518.27 Q2296.38 1513.66 2302.19 1513.66 Z" fill="#000000" fill-rule="nonzero" fill-opacity="1"></path><path clip-path="url(#clip010)" d="M2332.35 1517.37 Q2328.74 1517.37 2326.91 1520.93 Q2325.1 1524.47 2325.1 1531.6 Q2325.1 1538.71 2326.91 1542.27 Q2328.74 1545.82 2332.35 1545.82 Q2335.98 1545.82 2337.79 1542.27 Q2339.62 1538.71 2339.62 1531.6 Q2339.62 1524.47 2337.79 1520.93 Q2335.98 1517.37 2332.35 1517.37 M2332.35 1513.66 Q2338.16 1513.66 2341.21 1518.27 Q2344.29 1522.85 2344.29 1531.6 Q2344.29 1540.33 2341.21 1544.94 Q2338.16 1549.52 2332.35 1549.52 Q2326.54 1549.52 2323.46 1544.94 Q2320.4 1540.33 2320.4 1531.6 Q2320.4 1522.85 2323.46 1518.27 Q2326.54 1513.66 2332.35 1513.66 Z" fill="#000000" fill-rule="nonzero" fill-opacity="1"></path><polyline clip-path="url(#clip010)" style="stroke:#000000; stroke-linecap:round; stroke-linejoin:round; stroke-width:4; stroke-opacity:1; fill:none" points="300,1486.45 300,47.2441 "></polyline>
<polyline clip-path="url(#clip010)" style="stroke:#000000; stroke-linecap:round; stroke-linejoin:round; stroke-width:4; stroke-opacity:1; fill:none" points="300,1445.72 318.898,1445.72 "></polyline>
<polyline clip-path="url(#clip010)" style="stroke:#000000; stroke-linecap:round; stroke-linejoin:round; stroke-width:4; stroke-opacity:1; fill:none" points="300,1186.61 318.898,1186.61 "></polyline>
<polyline clip-path="url(#clip010)" style="stroke:#000000; stroke-linecap:round; stroke-linejoin:round; stroke-width:4; stroke-opacity:1; fill:none" points="300,927.509 318.898,927.509 "></polyline>
<polyline clip-path="url(#clip010)" style="stroke:#000000; stroke-linecap:round; stroke-linejoin:round; stroke-width:4; stroke-opacity:1; fill:none" points="300,668.406 318.898,668.406 "></polyline>
<polyline clip-path="url(#clip010)" style="stroke:#000000; stroke-linecap:round; stroke-linejoin:round; stroke-width:4; stroke-opacity:1; fill:none" points="300,409.303 318.898,409.303 "></polyline>
<polyline clip-path="url(#clip010)" style="stroke:#000000; stroke-linecap:round; stroke-linejoin:round; stroke-width:4; stroke-opacity:1; fill:none" points="300,150.2 318.898,150.2 "></polyline>
<path clip-path="url(#clip010)" d="M252.056 1431.51 Q248.445 1431.51 246.616 1435.08 Q244.811 1438.62 244.811 1445.75 Q244.811 1452.86 246.616 1456.42 Q248.445 1459.96 252.056 1459.96 Q255.69 1459.96 257.496 1456.42 Q259.324 1452.86 259.324 1445.75 Q259.324 1438.62 257.496 1435.08 Q255.69 1431.51 252.056 1431.51 M252.056 1427.81 Q257.866 1427.81 260.922 1432.42 Q264 1437 264 1445.75 Q264 1454.48 260.922 1459.08 Q257.866 1463.67 252.056 1463.67 Q246.246 1463.67 243.167 1459.08 Q240.111 1454.48 240.111 1445.75 Q240.111 1437 243.167 1432.42 Q246.246 1427.81 252.056 1427.81 Z" fill="#000000" fill-rule="nonzero" fill-opacity="1"></path><path clip-path="url(#clip010)" d="M54.5569 1206.4 L62.1958 1206.4 L62.1958 1180.04 L53.8856 1181.71 L53.8856 1177.45 L62.1495 1175.78 L66.8254 1175.78 L66.8254 1206.4 L74.4642 1206.4 L74.4642 1210.34 L54.5569 1210.34 L54.5569 1206.4 Z" fill="#000000" fill-rule="nonzero" fill-opacity="1"></path><path clip-path="url(#clip010)" d="M83.9086 1204.46 L88.7928 1204.46 L88.7928 1210.34 L83.9086 1210.34 L83.9086 1204.46 Z" fill="#000000" fill-rule="nonzero" fill-opacity="1"></path><path clip-path="url(#clip010)" d="M108.978 1178.86 Q105.367 1178.86 103.538 1182.42 Q101.733 1185.97 101.733 1193.09 Q101.733 1200.2 103.538 1203.77 Q105.367 1207.31 108.978 1207.31 Q112.612 1207.31 114.418 1203.77 Q116.246 1200.2 116.246 1193.09 Q116.246 1185.97 114.418 1182.42 Q112.612 1178.86 108.978 1178.86 M108.978 1175.16 Q114.788 1175.16 117.844 1179.76 Q120.922 1184.34 120.922 1193.09 Q120.922 1201.82 117.844 1206.43 Q114.788 1211.01 108.978 1211.01 Q103.168 1211.01 100.089 1206.43 Q97.0335 1201.82 97.0335 1193.09 Q97.0335 1184.34 100.089 1179.76 Q103.168 1175.16 108.978 1175.16 Z" fill="#000000" fill-rule="nonzero" fill-opacity="1"></path><path clip-path="url(#clip010)" d="M157.311 1184.88 L146.732 1195.5 L157.311 1206.08 L154.556 1208.88 L143.931 1198.26 L133.306 1208.88 L130.575 1206.08 L141.131 1195.5 L130.575 1184.88 L133.306 1182.08 L143.931 1192.7 L154.556 1182.08 L157.311 1184.88 Z" fill="#000000" fill-rule="nonzero" fill-opacity="1"></path><path clip-path="url(#clip010)" d="M169.672 1206.4 L177.311 1206.4 L177.311 1180.04 L169.001 1181.71 L169.001 1177.45 L177.265 1175.78 L181.94 1175.78 L181.94 1206.4 L189.579 1206.4 L189.579 1210.34 L169.672 1210.34 L169.672 1206.4 Z" fill="#000000" fill-rule="nonzero" fill-opacity="1"></path><path clip-path="url(#clip010)" d="M209.024 1178.86 Q205.413 1178.86 203.584 1182.42 Q201.778 1185.97 201.778 1193.09 Q201.778 1200.2 203.584 1203.77 Q205.413 1207.31 209.024 1207.31 Q212.658 1207.31 214.463 1203.77 Q216.292 1200.2 216.292 1193.09 Q216.292 1185.97 214.463 1182.42 Q212.658 1178.86 209.024 1178.86 M209.024 1175.16 Q214.834 1175.16 217.889 1179.76 Q220.968 1184.34 220.968 1193.09 Q220.968 1201.82 217.889 1206.43 Q214.834 1211.01 209.024 1211.01 Q203.214 1211.01 200.135 1206.43 Q197.079 1201.82 197.079 1193.09 Q197.079 1184.34 200.135 1179.76 Q203.214 1175.16 209.024 1175.16 Z" fill="#000000" fill-rule="nonzero" fill-opacity="1"></path><path clip-path="url(#clip010)" d="M230.993 1167.38 Q228.435 1167.38 226.93 1169.12 Q225.444 1170.87 225.444 1173.92 Q225.444 1176.95 226.93 1178.72 Q228.435 1180.47 230.993 1180.47 Q233.55 1180.47 235.036 1178.72 Q236.541 1176.95 236.541 1173.92 Q236.541 1170.87 235.036 1169.12 Q233.55 1167.38 230.993 1167.38 M238.535 1155.47 L238.535 1158.93 Q237.105 1158.25 235.638 1157.9 Q234.19 1157.54 232.761 1157.54 Q228.999 1157.54 227.005 1160.08 Q225.031 1162.62 224.748 1167.75 Q225.858 1166.12 227.532 1165.25 Q229.206 1164.37 231.218 1164.37 Q235.45 1164.37 237.895 1166.94 Q240.359 1169.5 240.359 1173.92 Q240.359 1178.25 237.801 1180.86 Q235.243 1183.48 230.993 1183.48 Q226.121 1183.48 223.545 1179.75 Q220.968 1176.01 220.968 1168.92 Q220.968 1162.26 224.128 1158.31 Q227.287 1154.34 232.61 1154.34 Q234.039 1154.34 235.488 1154.62 Q236.955 1154.91 238.535 1155.47 Z" fill="#000000" fill-rule="nonzero" fill-opacity="1"></path><path clip-path="url(#clip010)" d="M245.945 1154.85 L264 1154.85 L264 1156.47 L253.806 1182.93 L249.838 1182.93 L259.43 1158.05 L245.945 1158.05 L245.945 1154.85 Z" fill="#000000" fill-rule="nonzero" fill-opacity="1"></path><path clip-path="url(#clip010)" d="M57.7745 947.302 L74.0939 947.302 L74.0939 951.237 L52.1495 951.237 L52.1495 947.302 Q54.8115 944.547 59.3949 939.918 Q64.0013 935.265 65.1819 933.922 Q67.4272 931.399 68.3068 929.663 Q69.2096 927.904 69.2096 926.214 Q69.2096 923.459 67.2652 921.723 Q65.3439 919.987 62.2421 919.987 Q60.043 919.987 57.5893 920.751 Q55.1588 921.515 52.381 923.066 L52.381 918.344 Q55.2051 917.209 57.6588 916.631 Q60.1124 916.052 62.1495 916.052 Q67.5198 916.052 70.7142 918.737 Q73.9087 921.422 73.9087 925.913 Q73.9087 928.043 73.0985 929.964 Q72.3115 931.862 70.205 934.455 Q69.6263 935.126 66.5245 938.343 Q63.4226 941.538 57.7745 947.302 Z" fill="#000000" fill-rule="nonzero" fill-opacity="1"></path><path clip-path="url(#clip010)" d="M83.9086 945.357 L88.7928 945.357 L88.7928 951.237 L83.9086 951.237 L83.9086 945.357 Z" fill="#000000" fill-rule="nonzero" fill-opacity="1"></path><path clip-path="url(#clip010)" d="M108.978 919.756 Q105.367 919.756 103.538 923.32 Q101.733 926.862 101.733 933.992 Q101.733 941.098 103.538 944.663 Q105.367 948.205 108.978 948.205 Q112.612 948.205 114.418 944.663 Q116.246 941.098 116.246 933.992 Q116.246 926.862 114.418 923.32 Q112.612 919.756 108.978 919.756 M108.978 916.052 Q114.788 916.052 117.844 920.658 Q120.922 925.242 120.922 933.992 Q120.922 942.718 117.844 947.325 Q114.788 951.908 108.978 951.908 Q103.168 951.908 100.089 947.325 Q97.0335 942.718 97.0335 933.992 Q97.0335 925.242 100.089 920.658 Q103.168 916.052 108.978 916.052 Z" fill="#000000" fill-rule="nonzero" fill-opacity="1"></path><path clip-path="url(#clip010)" d="M157.311 925.774 L146.732 936.399 L157.311 946.978 L154.556 949.779 L143.931 939.154 L133.306 949.779 L130.575 946.978 L141.131 936.399 L130.575 925.774 L133.306 922.973 L143.931 933.598 L154.556 922.973 L157.311 925.774 Z" fill="#000000" fill-rule="nonzero" fill-opacity="1"></path><path clip-path="url(#clip010)" d="M169.672 947.302 L177.311 947.302 L177.311 920.936 L169.001 922.603 L169.001 918.344 L177.265 916.677 L181.94 916.677 L181.94 947.302 L189.579 947.302 L189.579 951.237 L169.672 951.237 L169.672 947.302 Z" fill="#000000" fill-rule="nonzero" fill-opacity="1"></path><path clip-path="url(#clip010)" d="M209.024 919.756 Q205.413 919.756 203.584 923.32 Q201.778 926.862 201.778 933.992 Q201.778 941.098 203.584 944.663 Q205.413 948.205 209.024 948.205 Q212.658 948.205 214.463 944.663 Q216.292 941.098 216.292 933.992 Q216.292 926.862 214.463 923.32 Q212.658 919.756 209.024 919.756 M209.024 916.052 Q214.834 916.052 217.889 920.658 Q220.968 925.242 220.968 933.992 Q220.968 942.718 217.889 947.325 Q214.834 951.908 209.024 951.908 Q203.214 951.908 200.135 947.325 Q197.079 942.718 197.079 933.992 Q197.079 925.242 200.135 920.658 Q203.214 916.052 209.024 916.052 Z" fill="#000000" fill-rule="nonzero" fill-opacity="1"></path><path clip-path="url(#clip010)" d="M230.993 908.273 Q228.435 908.273 226.93 910.022 Q225.444 911.771 225.444 914.818 Q225.444 917.846 226.93 919.614 Q228.435 921.363 230.993 921.363 Q233.55 921.363 235.036 919.614 Q236.541 917.846 236.541 914.818 Q236.541 911.771 235.036 910.022 Q233.55 908.273 230.993 908.273 M238.535 896.367 L238.535 899.828 Q237.105 899.151 235.638 898.793 Q234.19 898.436 232.761 898.436 Q228.999 898.436 227.005 900.975 Q225.031 903.514 224.748 908.649 Q225.858 907.012 227.532 906.147 Q229.206 905.263 231.218 905.263 Q235.45 905.263 237.895 907.84 Q240.359 910.398 240.359 914.818 Q240.359 919.143 237.801 921.758 Q235.243 924.372 230.993 924.372 Q226.121 924.372 223.545 920.648 Q220.968 916.905 220.968 909.815 Q220.968 903.157 224.128 899.207 Q227.287 895.239 232.61 895.239 Q234.039 895.239 235.488 895.521 Q236.955 895.803 238.535 896.367 Z" fill="#000000" fill-rule="nonzero" fill-opacity="1"></path><path clip-path="url(#clip010)" d="M245.945 895.747 L264 895.747 L264 897.364 L253.806 923.827 L249.838 923.827 L259.43 898.944 L245.945 898.944 L245.945 895.747 Z" fill="#000000" fill-rule="nonzero" fill-opacity="1"></path><path clip-path="url(#clip010)" d="M67.9133 673.5 Q71.2698 674.217 73.1448 676.486 Q75.0429 678.754 75.0429 682.088 Q75.0429 687.203 71.5244 690.004 Q68.0059 692.805 61.5245 692.805 Q59.3486 692.805 57.0338 692.365 Q54.7421 691.949 52.2884 691.092 L52.2884 686.578 Q54.2328 687.712 56.5477 688.291 Q58.8625 688.87 61.3856 688.87 Q65.7837 688.87 68.0754 687.134 Q70.3902 685.398 70.3902 682.088 Q70.3902 679.032 68.2374 677.319 Q66.1078 675.583 62.2884 675.583 L58.2606 675.583 L58.2606 671.74 L62.4735 671.74 Q65.9226 671.74 67.7513 670.375 Q69.58 668.986 69.58 666.393 Q69.58 663.731 67.6819 662.319 Q65.8069 660.884 62.2884 660.884 Q60.3671 660.884 58.168 661.301 Q55.969 661.717 53.3301 662.597 L53.3301 658.43 Q55.9921 657.69 58.3069 657.319 Q60.6449 656.949 62.705 656.949 Q68.0291 656.949 71.1309 659.379 Q74.2327 661.787 74.2327 665.907 Q74.2327 668.777 72.5892 670.768 Q70.9457 672.736 67.9133 673.5 Z" fill="#000000" fill-rule="nonzero" fill-opacity="1"></path><path clip-path="url(#clip010)" d="M83.9086 686.254 L88.7928 686.254 L88.7928 692.134 L83.9086 692.134 L83.9086 686.254 Z" fill="#000000" fill-rule="nonzero" fill-opacity="1"></path><path clip-path="url(#clip010)" d="M108.978 660.652 Q105.367 660.652 103.538 664.217 Q101.733 667.759 101.733 674.888 Q101.733 681.995 103.538 685.56 Q105.367 689.101 108.978 689.101 Q112.612 689.101 114.418 685.56 Q116.246 681.995 116.246 674.888 Q116.246 667.759 114.418 664.217 Q112.612 660.652 108.978 660.652 M108.978 656.949 Q114.788 656.949 117.844 661.555 Q120.922 666.139 120.922 674.888 Q120.922 683.615 117.844 688.222 Q114.788 692.805 108.978 692.805 Q103.168 692.805 100.089 688.222 Q97.0335 683.615 97.0335 674.888 Q97.0335 666.139 100.089 661.555 Q103.168 656.949 108.978 656.949 Z" fill="#000000" fill-rule="nonzero" fill-opacity="1"></path><path clip-path="url(#clip010)" d="M157.311 666.671 L146.732 677.296 L157.311 687.875 L154.556 690.675 L143.931 680.05 L133.306 690.675 L130.575 687.875 L141.131 677.296 L130.575 666.671 L133.306 663.87 L143.931 674.495 L154.556 663.87 L157.311 666.671 Z" fill="#000000" fill-rule="nonzero" fill-opacity="1"></path><path clip-path="url(#clip010)" d="M169.672 688.199 L177.311 688.199 L177.311 661.833 L169.001 663.5 L169.001 659.24 L177.265 657.574 L181.94 657.574 L181.94 688.199 L189.579 688.199 L189.579 692.134 L169.672 692.134 L169.672 688.199 Z" fill="#000000" fill-rule="nonzero" fill-opacity="1"></path><path clip-path="url(#clip010)" d="M209.024 660.652 Q205.413 660.652 203.584 664.217 Q201.778 667.759 201.778 674.888 Q201.778 681.995 203.584 685.56 Q205.413 689.101 209.024 689.101 Q212.658 689.101 214.463 685.56 Q216.292 681.995 216.292 674.888 Q216.292 667.759 214.463 664.217 Q212.658 660.652 209.024 660.652 M209.024 656.949 Q214.834 656.949 217.889 661.555 Q220.968 666.139 220.968 674.888 Q220.968 683.615 217.889 688.222 Q214.834 692.805 209.024 692.805 Q203.214 692.805 200.135 688.222 Q197.079 683.615 197.079 674.888 Q197.079 666.139 200.135 661.555 Q203.214 656.949 209.024 656.949 Z" fill="#000000" fill-rule="nonzero" fill-opacity="1"></path><path clip-path="url(#clip010)" d="M230.993 649.169 Q228.435 649.169 226.93 650.918 Q225.444 652.668 225.444 655.714 Q225.444 658.742 226.93 660.51 Q228.435 662.26 230.993 662.26 Q233.55 662.26 235.036 660.51 Q236.541 658.742 236.541 655.714 Q236.541 652.668 235.036 650.918 Q233.55 649.169 230.993 649.169 M238.535 637.264 L238.535 640.725 Q237.105 640.048 235.638 639.69 Q234.19 639.333 232.761 639.333 Q228.999 639.333 227.005 641.872 Q225.031 644.411 224.748 649.545 Q225.858 647.909 227.532 647.044 Q229.206 646.16 231.218 646.16 Q235.45 646.16 237.895 648.737 Q240.359 651.295 240.359 655.714 Q240.359 660.04 237.801 662.655 Q235.243 665.269 230.993 665.269 Q226.121 665.269 223.545 661.545 Q220.968 657.802 220.968 650.712 Q220.968 644.054 224.128 640.104 Q227.287 636.136 232.61 636.136 Q234.039 636.136 235.488 636.418 Q236.955 636.7 238.535 637.264 Z" fill="#000000" fill-rule="nonzero" fill-opacity="1"></path><path clip-path="url(#clip010)" d="M245.945 636.643 L264 636.643 L264 638.261 L253.806 664.723 L249.838 664.723 L259.43 639.841 L245.945 639.841 L245.945 636.643 Z" fill="#000000" fill-rule="nonzero" fill-opacity="1"></path><path clip-path="url(#clip010)" d="M66.5939 402.545 L54.7884 420.994 L66.5939 420.994 L66.5939 402.545 M65.367 398.471 L71.2466 398.471 L71.2466 420.994 L76.1772 420.994 L76.1772 424.882 L71.2466 424.882 L71.2466 433.031 L66.5939 433.031 L66.5939 424.882 L50.9921 424.882 L50.9921 420.369 L65.367 398.471 Z" fill="#000000" fill-rule="nonzero" fill-opacity="1"></path><path clip-path="url(#clip010)" d="M83.9086 427.151 L88.7928 427.151 L88.7928 433.031 L83.9086 433.031 L83.9086 427.151 Z" fill="#000000" fill-rule="nonzero" fill-opacity="1"></path><path clip-path="url(#clip010)" d="M108.978 401.549 Q105.367 401.549 103.538 405.114 Q101.733 408.656 101.733 415.785 Q101.733 422.892 103.538 426.457 Q105.367 429.998 108.978 429.998 Q112.612 429.998 114.418 426.457 Q116.246 422.892 116.246 415.785 Q116.246 408.656 114.418 405.114 Q112.612 401.549 108.978 401.549 M108.978 397.846 Q114.788 397.846 117.844 402.452 Q120.922 407.035 120.922 415.785 Q120.922 424.512 117.844 429.119 Q114.788 433.702 108.978 433.702 Q103.168 433.702 100.089 429.119 Q97.0335 424.512 97.0335 415.785 Q97.0335 407.035 100.089 402.452 Q103.168 397.846 108.978 397.846 Z" fill="#000000" fill-rule="nonzero" fill-opacity="1"></path><path clip-path="url(#clip010)" d="M157.311 407.568 L146.732 418.193 L157.311 428.771 L154.556 431.572 L143.931 420.947 L133.306 431.572 L130.575 428.771 L141.131 418.193 L130.575 407.568 L133.306 404.767 L143.931 415.392 L154.556 404.767 L157.311 407.568 Z" fill="#000000" fill-rule="nonzero" fill-opacity="1"></path><path clip-path="url(#clip010)" d="M169.672 429.095 L177.311 429.095 L177.311 402.73 L169.001 404.396 L169.001 400.137 L177.265 398.471 L181.94 398.471 L181.94 429.095 L189.579 429.095 L189.579 433.031 L169.672 433.031 L169.672 429.095 Z" fill="#000000" fill-rule="nonzero" fill-opacity="1"></path><path clip-path="url(#clip010)" d="M209.024 401.549 Q205.413 401.549 203.584 405.114 Q201.778 408.656 201.778 415.785 Q201.778 422.892 203.584 426.457 Q205.413 429.998 209.024 429.998 Q212.658 429.998 214.463 426.457 Q216.292 422.892 216.292 415.785 Q216.292 408.656 214.463 405.114 Q212.658 401.549 209.024 401.549 M209.024 397.846 Q214.834 397.846 217.889 402.452 Q220.968 407.035 220.968 415.785 Q220.968 424.512 217.889 429.119 Q214.834 433.702 209.024 433.702 Q203.214 433.702 200.135 429.119 Q197.079 424.512 197.079 415.785 Q197.079 407.035 200.135 402.452 Q203.214 397.846 209.024 397.846 Z" fill="#000000" fill-rule="nonzero" fill-opacity="1"></path><path clip-path="url(#clip010)" d="M230.993 390.066 Q228.435 390.066 226.93 391.815 Q225.444 393.564 225.444 396.611 Q225.444 399.639 226.93 401.407 Q228.435 403.156 230.993 403.156 Q233.55 403.156 235.036 401.407 Q236.541 399.639 236.541 396.611 Q236.541 393.564 235.036 391.815 Q233.55 390.066 230.993 390.066 M238.535 378.161 L238.535 381.621 Q237.105 380.944 235.638 380.587 Q234.19 380.23 232.761 380.23 Q228.999 380.23 227.005 382.769 Q225.031 385.308 224.748 390.442 Q225.858 388.806 227.532 387.941 Q229.206 387.057 231.218 387.057 Q235.45 387.057 237.895 389.634 Q240.359 392.191 240.359 396.611 Q240.359 400.937 237.801 403.551 Q235.243 406.166 230.993 406.166 Q226.121 406.166 223.545 402.442 Q220.968 398.699 220.968 391.608 Q220.968 384.95 224.128 381.001 Q227.287 377.032 232.61 377.032 Q234.039 377.032 235.488 377.314 Q236.955 377.597 238.535 378.161 Z" fill="#000000" fill-rule="nonzero" fill-opacity="1"></path><path clip-path="url(#clip010)" d="M245.945 377.54 L264 377.54 L264 379.158 L253.806 405.62 L249.838 405.62 L259.43 380.738 L245.945 380.738 L245.945 377.54 Z" fill="#000000" fill-rule="nonzero" fill-opacity="1"></path><path clip-path="url(#clip010)" d="M53.793 139.367 L72.1494 139.367 L72.1494 143.303 L58.0754 143.303 L58.0754 151.775 Q59.0939 151.428 60.1124 151.265 Q61.131 151.08 62.1495 151.08 Q67.9365 151.08 71.3161 154.252 Q74.6957 157.423 74.6957 162.84 Q74.6957 168.418 71.2235 171.52 Q67.7513 174.599 61.4319 174.599 Q59.256 174.599 56.9875 174.228 Q54.7421 173.858 52.3347 173.117 L52.3347 168.418 Q54.418 169.552 56.6402 170.108 Q58.8625 170.664 61.3393 170.664 Q65.3439 170.664 67.6819 168.557 Q70.0198 166.451 70.0198 162.84 Q70.0198 159.228 67.6819 157.122 Q65.3439 155.015 61.3393 155.015 Q59.4643 155.015 57.5893 155.432 Q55.7375 155.849 53.793 156.728 L53.793 139.367 Z" fill="#000000" fill-rule="nonzero" fill-opacity="1"></path><path clip-path="url(#clip010)" d="M83.9086 168.048 L88.7928 168.048 L88.7928 173.927 L83.9086 173.927 L83.9086 168.048 Z" fill="#000000" fill-rule="nonzero" fill-opacity="1"></path><path clip-path="url(#clip010)" d="M108.978 142.446 Q105.367 142.446 103.538 146.011 Q101.733 149.553 101.733 156.682 Q101.733 163.789 103.538 167.353 Q105.367 170.895 108.978 170.895 Q112.612 170.895 114.418 167.353 Q116.246 163.789 116.246 156.682 Q116.246 149.553 114.418 146.011 Q112.612 142.446 108.978 142.446 M108.978 138.742 Q114.788 138.742 117.844 143.349 Q120.922 147.932 120.922 156.682 Q120.922 165.409 117.844 170.015 Q114.788 174.599 108.978 174.599 Q103.168 174.599 100.089 170.015 Q97.0335 165.409 97.0335 156.682 Q97.0335 147.932 100.089 143.349 Q103.168 138.742 108.978 138.742 Z" fill="#000000" fill-rule="nonzero" fill-opacity="1"></path><path clip-path="url(#clip010)" d="M157.311 148.465 L146.732 159.09 L157.311 169.668 L154.556 172.469 L143.931 161.844 L133.306 172.469 L130.575 169.668 L141.131 159.09 L130.575 148.465 L133.306 145.664 L143.931 156.289 L154.556 145.664 L157.311 148.465 Z" fill="#000000" fill-rule="nonzero" fill-opacity="1"></path><path clip-path="url(#clip010)" d="M169.672 169.992 L177.311 169.992 L177.311 143.627 L169.001 145.293 L169.001 141.034 L177.265 139.367 L181.94 139.367 L181.94 169.992 L189.579 169.992 L189.579 173.927 L169.672 173.927 L169.672 169.992 Z" fill="#000000" fill-rule="nonzero" fill-opacity="1"></path><path clip-path="url(#clip010)" d="M209.024 142.446 Q205.413 142.446 203.584 146.011 Q201.778 149.553 201.778 156.682 Q201.778 163.789 203.584 167.353 Q205.413 170.895 209.024 170.895 Q212.658 170.895 214.463 167.353 Q216.292 163.789 216.292 156.682 Q216.292 149.553 214.463 146.011 Q212.658 142.446 209.024 142.446 M209.024 138.742 Q214.834 138.742 217.889 143.349 Q220.968 147.932 220.968 156.682 Q220.968 165.409 217.889 170.015 Q214.834 174.599 209.024 174.599 Q203.214 174.599 200.135 170.015 Q197.079 165.409 197.079 156.682 Q197.079 147.932 200.135 143.349 Q203.214 138.742 209.024 138.742 Z" fill="#000000" fill-rule="nonzero" fill-opacity="1"></path><path clip-path="url(#clip010)" d="M230.993 130.963 Q228.435 130.963 226.93 132.712 Q225.444 134.461 225.444 137.508 Q225.444 140.536 226.93 142.304 Q228.435 144.053 230.993 144.053 Q233.55 144.053 235.036 142.304 Q236.541 140.536 236.541 137.508 Q236.541 134.461 235.036 132.712 Q233.55 130.963 230.993 130.963 M238.535 119.058 L238.535 122.518 Q237.105 121.841 235.638 121.484 Q234.19 121.127 232.761 121.127 Q228.999 121.127 227.005 123.666 Q225.031 126.205 224.748 131.339 Q225.858 129.703 227.532 128.838 Q229.206 127.954 231.218 127.954 Q235.45 127.954 237.895 130.53 Q240.359 133.088 240.359 137.508 Q240.359 141.834 237.801 144.448 Q235.243 147.062 230.993 147.062 Q226.121 147.062 223.545 143.339 Q220.968 139.596 220.968 132.505 Q220.968 125.847 224.128 121.898 Q227.287 117.929 232.61 117.929 Q234.039 117.929 235.488 118.211 Q236.955 118.493 238.535 119.058 Z" fill="#000000" fill-rule="nonzero" fill-opacity="1"></path><path clip-path="url(#clip010)" d="M245.945 118.437 L264 118.437 L264 120.054 L253.806 146.517 L249.838 146.517 L259.43 121.634 L245.945 121.634 L245.945 118.437 Z" fill="#000000" fill-rule="nonzero" fill-opacity="1"></path><polyline clip-path="url(#clip012)" style="stroke:#009af9; stroke-linecap:round; stroke-linejoin:round; stroke-width:4; stroke-opacity:1; fill:none" points="358.097,1445.72 361.994,1445.72 365.89,1445.72 369.787,1445.72 373.683,1445.72 377.58,1445.72 381.476,1445.72 385.373,1445.72 389.269,1445.72 393.166,1445.72 397.062,1445.72 400.959,1445.72 404.855,1445.72 408.752,1445.72 412.648,1445.72 416.545,1445.72 420.441,1445.72 424.338,1445.72 428.234,1445.72 432.131,1445.72 436.027,1445.72 439.924,1445.72 443.82,1445.72 447.717,1445.72 451.613,1445.72 455.51,1445.72 459.406,1445.72 463.303,1445.72 467.199,1445.72 471.096,1445.72 474.992,1445.72 478.889,1445.72 482.785,1445.72 486.682,1445.72 490.578,1445.72 494.475,1445.72 498.371,1445.72 502.268,1445.72 506.164,1445.72 510.061,1445.72 513.957,1445.72 517.854,1445.72 521.75,1445.72 525.647,1445.72 529.543,1445.72 533.44,1445.72 537.336,1445.72 541.233,1445.72 545.129,1445.72 549.026,1445.72 552.922,1445.72 556.819,1445.72 560.715,1445.72 564.612,1445.72 568.508,1445.72 572.405,1445.72 576.301,1445.72 580.198,1445.72 584.094,1445.72 587.991,1445.72 591.887,1445.72 595.784,1445.72 599.68,1445.72 603.577,1445.72 607.473,1445.72 611.37,1445.72 615.266,1445.72 619.163,1445.72 623.059,1445.72 626.956,1445.72 630.852,1445.72 634.749,1445.72 638.645,1445.72 642.542,1445.72 646.438,1445.72 650.335,1445.72 654.231,1445.72 658.128,1445.72 662.024,1445.72 665.921,1445.72 669.817,1445.72 673.714,1445.72 677.61,1445.72 681.507,1445.72 685.403,1445.72 689.3,1445.72 693.196,1445.72 697.093,1445.72 700.989,1445.72 704.886,1445.72 708.782,1445.72 712.679,1445.72 716.575,1445.72 720.472,1445.72 724.368,1445.72 728.265,1445.72 732.161,1445.72 736.058,1445.72 739.954,1445.72 743.851,1445.72 747.747,1445.72 751.644,1445.72 755.54,1445.72 759.437,1445.72 763.333,1445.72 767.23,1445.72 771.126,1445.72 775.023,1445.72 778.919,1445.72 782.816,1445.72 786.712,1445.72 790.609,1445.72 794.505,1445.72 798.402,1445.72 802.298,1445.72 806.195,1445.72 810.091,1445.72 813.988,1445.72 817.884,1445.72 821.781,1445.72 825.677,1445.72 829.574,1445.72 833.47,1445.72 837.367,1445.72 841.263,1445.72 845.16,1445.72 849.056,1445.72 852.953,1445.72 856.849,1445.72 860.746,1445.72 864.642,1445.72 868.539,1445.72 872.435,1445.72 876.332,1445.72 880.228,1445.72 884.125,1445.72 888.021,1445.72 891.918,1445.72 895.815,1445.72 899.711,1445.72 903.608,1445.72 907.504,1445.72 911.401,1445.72 915.297,1445.72 919.194,1445.72 923.09,1445.72 926.987,1445.72 930.883,1445.72 934.78,1445.72 938.676,1445.72 942.573,1445.72 946.469,1445.72 950.366,1445.72 954.262,1445.72 958.159,1445.72 962.055,1445.72 965.952,1445.72 969.848,1445.72 973.745,1445.72 977.641,1445.72 981.538,1445.72 985.434,1445.72 989.331,1445.72 993.227,1445.72 997.124,1445.72 1001.02,1445.72 1004.92,1445.72 1008.81,1445.72 1012.71,1445.72 1016.61,1445.72 1020.5,1445.72 1024.4,1445.72 1028.3,1445.72 1032.19,1445.72 1036.09,1445.72 1039.99,1445.72 1043.88,1445.72 1047.78,1445.72 1051.67,1445.72 1055.57,1445.72 1059.47,1445.72 1063.36,1445.72 1067.26,1445.72 1071.16,1445.72 1075.05,1445.72 1078.95,1445.72 1082.85,1445.72 1086.74,1445.72 1090.64,1445.72 1094.54,1445.72 1098.43,1445.72 1102.33,1445.72 1106.23,1445.72 1110.12,1445.72 1114.02,1445.72 1117.92,1445.72 1121.81,1445.72 1125.71,1445.72 1129.6,1445.72 1133.5,1445.72 1137.4,1445.72 1141.29,1445.72 1145.19,1445.72 1149.09,1445.72 1152.98,1445.72 1156.88,1445.72 1160.78,1445.72 1164.67,1445.72 1168.57,1445.72 1172.47,1445.72 1176.36,1445.72 1180.26,1445.72 1184.16,1445.72 1188.05,1445.72 1191.95,1445.72 1195.85,1445.72 1199.74,1445.72 1203.64,1445.72 1207.53,1445.72 1211.43,1445.72 1215.33,1445.72 1219.22,1445.72 1223.12,1445.72 1227.02,1445.72 1230.91,1445.72 1234.81,1445.72 1238.71,1445.72 1242.6,1445.72 1246.5,1445.72 1250.4,1445.72 1254.29,1445.72 1258.19,1445.72 1262.09,1445.72 1265.98,1445.72 1269.88,1445.72 1273.78,1445.72 1277.67,1445.72 1281.57,1445.72 1285.46,1445.72 1289.36,1445.72 1293.26,1445.72 1297.15,1445.72 1301.05,1445.72 1304.95,1445.72 1308.84,1445.72 1312.74,1445.72 1316.64,1445.72 1320.53,1445.72 1324.43,1445.72 1328.33,1445.72 1332.22,1445.72 1336.12,1445.72 1340.02,1445.72 1343.91,1445.72 1347.81,1445.72 1351.71,1445.72 1355.6,1445.72 1359.5,1445.72 1363.39,1445.72 1367.29,1445.72 1371.19,1445.72 1375.08,1445.72 1378.98,1445.72 1382.88,1445.72 1386.77,1445.72 1390.67,1445.72 1394.57,1445.72 1398.46,1445.72 1402.36,1445.72 1406.26,1445.72 1410.15,1445.72 1414.05,1445.72 1417.95,1445.72 1421.84,1445.72 1425.74,1445.72 1429.64,1445.72 1433.53,1445.72 1437.43,1445.72 1441.32,1445.72 1445.22,1445.72 1449.12,1445.72 1453.01,1445.72 1456.91,1445.72 1460.81,1445.72 1464.7,1445.72 1468.6,1445.72 1472.5,1445.72 1476.39,1445.72 1480.29,1445.72 1484.19,1445.72 1488.08,1445.72 1491.98,1445.72 1495.88,1445.72 1499.77,1445.72 1503.67,1445.72 1507.57,1445.72 1511.46,1445.72 1515.36,1445.72 1519.25,1445.72 1523.15,1445.72 1527.05,1445.72 1530.94,1445.72 1534.84,1445.72 1538.74,1445.72 1542.63,1445.72 1546.53,1445.72 1550.43,1445.72 1554.32,1445.72 1558.22,1445.72 1562.12,1445.72 1566.01,1445.72 1569.91,1445.72 1573.81,1445.72 1577.7,1445.72 1581.6,1445.72 1585.5,1445.72 1589.39,1445.72 1593.29,1445.72 1597.19,1445.72 1601.08,1445.72 1604.98,1445.72 1608.87,1445.72 1612.77,1445.72 1616.67,1445.72 1620.56,1445.72 1624.46,1445.72 1628.36,1445.72 1632.25,1445.72 1636.15,1445.72 1640.05,1445.72 1643.94,1445.72 1647.84,1445.72 1651.74,1445.72 1655.63,1445.72 1659.53,1445.72 1663.43,1445.72 1667.32,1445.72 1671.22,1445.72 1675.12,1445.72 1679.01,1445.72 1682.91,1445.72 1686.8,1445.72 1690.7,1445.72 1694.6,1445.72 1698.49,1445.72 1702.39,1445.72 1706.29,1445.72 1710.18,1445.72 1714.08,1445.72 1717.98,1445.72 1721.87,1445.72 1725.77,1445.72 1729.67,1445.72 1733.56,1445.72 1737.46,1445.72 1741.36,1445.72 1745.25,1445.72 1749.15,1445.72 1753.05,1445.72 1756.94,1445.72 1760.84,1445.72 1764.73,1445.72 1768.63,1445.72 1772.53,1445.72 1776.42,1445.72 1780.32,1445.72 1784.22,1445.72 1788.11,1445.72 1792.01,1445.72 1795.91,1445.72 1799.8,1445.72 1803.7,1445.72 1807.6,1445.72 1811.49,1445.72 1815.39,1445.72 1819.29,1445.72 1823.18,1445.72 1827.08,1445.72 1830.98,1445.72 1834.87,1445.72 1838.77,1445.72 1842.66,1445.72 1846.56,1445.72 1850.46,1445.72 1854.35,1445.72 1858.25,1445.72 1862.15,1445.72 1866.04,1445.72 1869.94,1445.72 1873.84,1445.72 1877.73,1445.72 1881.63,1445.72 1885.53,1445.72 1889.42,1445.72 1893.32,1445.72 1897.22,1445.72 1901.11,1445.72 1905.01,1445.72 1908.91,1445.72 1912.8,1445.72 1916.7,1445.72 1920.59,1445.72 1924.49,1445.72 1928.39,1445.72 1932.28,1445.72 1936.18,1445.72 1940.08,1445.72 1943.97,1445.72 1947.87,1445.72 1951.77,1445.72 1955.66,1445.72 1959.56,1445.72 1963.46,1445.72 1967.35,1445.72 1971.25,1445.72 1975.15,1445.72 1979.04,1445.72 1982.94,1445.72 1986.84,1445.72 1990.73,1445.72 1994.63,1445.72 1998.52,1445.72 2002.42,1445.72 2006.32,1445.72 2010.21,1445.72 2014.11,1445.72 2018.01,1445.72 2021.9,1445.72 2025.8,1445.72 2029.7,1445.72 2033.59,1445.72 2037.49,1445.72 2041.39,1445.72 2045.28,1445.72 2049.18,1445.72 2053.08,1445.72 2056.97,1445.72 2060.87,1445.72 2064.77,1445.72 2068.66,1445.72 2072.56,1445.72 2076.45,1445.72 2080.35,1445.72 2084.25,1445.72 2088.14,1445.72 2092.04,1445.72 2095.94,1445.72 2099.83,1445.72 2103.73,1445.72 2107.63,1445.72 2111.52,1445.72 2115.42,1445.71 2119.32,1445.71 2123.21,1445.71 2127.11,1445.71 2131.01,1445.71 2134.9,1445.71 2138.8,1445.71 2142.7,1445.71 2146.59,1445.71 2150.49,1445.7 2154.38,1445.7 2158.28,1445.69 2162.18,1445.68 2166.07,1445.67 2169.97,1445.66 2173.87,1445.63 2177.76,1445.6 2181.66,1445.56 2185.56,1445.5 2189.45,1445.43 2193.35,1445.32 2197.25,1445.17 2201.14,1444.98 2205.04,1444.7 2208.94,1444.33 2212.83,1443.82 2216.73,1443.13 2220.63,1442.18 2224.52,1440.87 2228.42,1439.09 2232.32,1436.66 2236.21,1433.33 2240.11,1428.78 2244,1422.55 2247.9,1414.03 2251.8,1402.38 2255.69,1386.44 2259.59,1364.64 2263.49,1334.83 2267.38,1294.06 2271.28,1238.29 2275.18,1162.02 2279.07,1057.71 2282.97,915.031 2286.87,719.894 2290.76,453.004 2294.66,87.9763 "></polyline>
<path clip-path="url(#clip010)" d="M368.425 198.898 L626.131 198.898 L626.131 95.2176 L368.425 95.2176  Z" fill="#ffffff" fill-rule="evenodd" fill-opacity="1"></path>
<polyline clip-path="url(#clip010)" style="stroke:#000000; stroke-linecap:round; stroke-linejoin:round; stroke-width:4; stroke-opacity:1; fill:none" points="368.425,198.898 626.131,198.898 626.131,95.2176 368.425,95.2176 368.425,198.898 "></polyline>
<polyline clip-path="url(#clip010)" style="stroke:#009af9; stroke-linecap:round; stroke-linejoin:round; stroke-width:4; stroke-opacity:1; fill:none" points="391.234,147.058 528.084,147.058 "></polyline>
<path clip-path="url(#clip010)" d="M564.735 166.745 Q562.93 171.375 561.217 172.787 Q559.504 174.199 556.633 174.199 L553.231 174.199 L553.231 170.634 L555.731 170.634 Q557.49 170.634 558.462 169.8 Q559.434 168.967 560.615 165.865 L561.379 163.921 L550.893 138.412 L555.406 138.412 L563.508 158.689 L571.61 138.412 L576.124 138.412 L564.735 166.745 Z" fill="#000000" fill-rule="nonzero" fill-opacity="1"></path><path clip-path="url(#clip010)" d="M583.416 160.402 L591.054 160.402 L591.054 134.037 L582.744 135.703 L582.744 131.444 L591.008 129.778 L595.684 129.778 L595.684 160.402 L603.323 160.402 L603.323 164.338 L583.416 164.338 L583.416 160.402 Z" fill="#000000" fill-rule="nonzero" fill-opacity="1"></path></svg>