<svg xmlns="http://www.w3.org/2000/svg" xmlns:xlink="http://www.w3.org/1999/xlink" width="600" height="400" viewBox="0 0 2400 1600">
<defs>
  <clipPath id="clip530">
    <rect x="0" y="0" width="2400" height="1600"></rect>
  </clipPath>
</defs>
<path clip-path="url(#clip530)" d="M0 1600 L2400 1600 L2400 8.88178e-14 L0 8.88178e-14  Z" fill="#ffffff" fill-rule="evenodd" fill-opacity="1"></path>
<defs>
  <clipPath id="clip531">
    <rect x="480" y="0" width="1681" height="1600"></rect>
  </clipPath>
</defs>
<path clip-path="url(#clip530)" d="M148.057 1486.45 L2352.76 1486.45 L2352.76 47.2441 L148.057 47.2441  Z" fill="#ffffff" fill-rule="evenodd" fill-opacity="1"></path>
<defs>
  <clipPath id="clip532">
    <rect x="148" y="47" width="2206" height="1440"></rect>
  </clipPath>
</defs>
<polyline clip-path="url(#clip532)" style="stroke:#000000; stroke-linecap:round; stroke-linejoin:round; stroke-width:2; stroke-opacity:0.1; fill:none" points="168.007,1486.45 168.007,47.2441 "></polyline>
<polyline clip-path="url(#clip532)" style="stroke:#000000; stroke-linecap:round; stroke-linejoin:round; stroke-width:2; stroke-opacity:0.1; fill:none" points="592.477,1486.45 592.477,47.2441 "></polyline>
<polyline clip-path="url(#clip532)" style="stroke:#000000; stroke-linecap:round; stroke-linejoin:round; stroke-width:2; stroke-opacity:0.1; fill:none" points="1016.95,1486.45 1016.95,47.2441 "></polyline>
<polyline clip-path="url(#clip532)" style="stroke:#000000; stroke-linecap:round; stroke-linejoin:round; stroke-width:2; stroke-opacity:0.1; fill:none" points="1441.42,1486.45 1441.42,47.2441 "></polyline>
<polyline clip-path="url(#clip532)" style="stroke:#000000; stroke-linecap:round; stroke-linejoin:round; stroke-width:2; stroke-opacity:0.1; fill:none" points="1865.89,1486.45 1865.89,47.2441 "></polyline>
<polyline clip-path="url(#clip532)" style="stroke:#000000; stroke-linecap:round; stroke-linejoin:round; stroke-width:2; stroke-opacity:0.1; fill:none" points="2290.36,1486.45 2290.36,47.2441 "></polyline>
<polyline clip-path="url(#clip532)" style="stroke:#000000; stroke-linecap:round; stroke-linejoin:round; stroke-width:2; stroke-opacity:0.1; fill:none" points="148.057,1403.84 2352.76,1403.84 "></polyline>
<polyline clip-path="url(#clip532)" style="stroke:#000000; stroke-linecap:round; stroke-linejoin:round; stroke-width:2; stroke-opacity:0.1; fill:none" points="148.057,1181.88 2352.76,1181.88 "></polyline>
<polyline clip-path="url(#clip532)" style="stroke:#000000; stroke-linecap:round; stroke-linejoin:round; stroke-width:2; stroke-opacity:0.1; fill:none" points="148.057,959.912 2352.76,959.912 "></polyline>
<polyline clip-path="url(#clip532)" style="stroke:#000000; stroke-linecap:round; stroke-linejoin:round; stroke-width:2; stroke-opacity:0.1; fill:none" points="148.057,737.948 2352.76,737.948 "></polyline>
<polyline clip-path="url(#clip532)" style="stroke:#000000; stroke-linecap:round; stroke-linejoin:round; stroke-width:2; stroke-opacity:0.1; fill:none" points="148.057,515.983 2352.76,515.983 "></polyline>
<polyline clip-path="url(#clip532)" style="stroke:#000000; stroke-linecap:round; stroke-linejoin:round; stroke-width:2; stroke-opacity:0.1; fill:none" points="148.057,294.019 2352.76,294.019 "></polyline>
<polyline clip-path="url(#clip532)" style="stroke:#000000; stroke-linecap:round; stroke-linejoin:round; stroke-width:2; stroke-opacity:0.1; fill:none" points="148.057,72.0543 2352.76,72.0543 "></polyline>
<polyline clip-path="url(#clip530)" style="stroke:#000000; stroke-linecap:round; stroke-linejoin:round; stroke-width:4; stroke-opacity:1; fill:none" points="148.057,1486.45 2352.76,1486.45 "></polyline>
<polyline clip-path="url(#clip530)" style="stroke:#000000; stroke-linecap:round; stroke-linejoin:round; stroke-width:4; stroke-opacity:1; fill:none" points="168.007,1486.45 168.007,1467.55 "></polyline>
<polyline clip-path="url(#clip530)" style="stroke:#000000; stroke-linecap:round; stroke-linejoin:round; stroke-width:4; stroke-opacity:1; fill:none" points="592.477,1486.45 592.477,1467.55 "></polyline>
<polyline clip-path="url(#clip530)" style="stroke:#000000; stroke-linecap:round; stroke-linejoin:round; stroke-width:4; stroke-opacity:1; fill:none" points="1016.95,1486.45 1016.95,1467.55 "></polyline>
<polyline clip-path="url(#clip530)" style="stroke:#000000; stroke-linecap:round; stroke-linejoin:round; stroke-width:4; stroke-opacity:1; fill:none" points="1441.42,1486.45 1441.42,1467.55 "></polyline>
<polyline clip-path="url(#clip530)" style="stroke:#000000; stroke-linecap:round; stroke-linejoin:round; stroke-width:4; stroke-opacity:1; fill:none" points="1865.89,1486.45 1865.89,1467.55 "></polyline>
<polyline clip-path="url(#clip530)" style="stroke:#000000; stroke-linecap:round; stroke-linejoin:round; stroke-width:4; stroke-opacity:1; fill:none" points="2290.36,1486.45 2290.36,1467.55 "></polyline>
<path clip-path="url(#clip530)" d="M168.007 1517.37 Q164.396 1517.37 162.567 1520.93 Q160.761 1524.47 160.761 1531.6 Q160.761 1538.71 162.567 1542.27 Q164.396 1545.82 168.007 1545.82 Q171.641 1545.82 173.447 1542.27 Q175.275 1538.71 175.275 1531.6 Q175.275 1524.47 173.447 1520.93 Q171.641 1517.37 168.007 1517.37 M168.007 1513.66 Q173.817 1513.66 176.872 1518.27 Q179.951 1522.85 179.951 1531.6 Q179.951 1540.33 176.872 1544.94 Q173.817 1549.52 168.007 1549.52 Q162.197 1549.52 159.118 1544.94 Q156.062 1540.33 156.062 1531.6 Q156.062 1522.85 159.118 1518.27 Q162.197 1513.66 168.007 1513.66 Z" fill="#000000" fill-rule="nonzero" fill-opacity="1"></path><path clip-path="url(#clip530)" d="M567.165 1544.91 L574.804 1544.91 L574.804 1518.55 L566.493 1520.21 L566.493 1515.95 L574.757 1514.29 L579.433 1514.29 L579.433 1544.91 L587.072 1544.91 L587.072 1548.85 L567.165 1548.85 L567.165 1544.91 Z" fill="#000000" fill-rule="nonzero" fill-opacity="1"></path><path clip-path="url(#clip530)" d="M606.516 1517.37 Q602.905 1517.37 601.077 1520.93 Q599.271 1524.47 599.271 1531.6 Q599.271 1538.71 601.077 1542.27 Q602.905 1545.82 606.516 1545.82 Q610.151 1545.82 611.956 1542.27 Q613.785 1538.71 613.785 1531.6 Q613.785 1524.47 611.956 1520.93 Q610.151 1517.37 606.516 1517.37 M606.516 1513.66 Q612.327 1513.66 615.382 1518.27 Q618.461 1522.85 618.461 1531.6 Q618.461 1540.33 615.382 1544.94 Q612.327 1549.52 606.516 1549.52 Q600.706 1549.52 597.628 1544.94 Q594.572 1540.33 594.572 1531.6 Q594.572 1522.85 597.628 1518.27 Q600.706 1513.66 606.516 1513.66 Z" fill="#000000" fill-rule="nonzero" fill-opacity="1"></path><path clip-path="url(#clip530)" d="M995.721 1544.91 L1012.04 1544.91 L1012.04 1548.85 L990.096 1548.85 L990.096 1544.91 Q992.758 1542.16 997.341 1537.53 Q1001.95 1532.88 1003.13 1531.53 Q1005.37 1529.01 1006.25 1527.27 Q1007.16 1525.51 1007.16 1523.82 Q1007.16 1521.07 1005.21 1519.33 Q1003.29 1517.6 1000.19 1517.6 Q997.989 1517.6 995.536 1518.36 Q993.105 1519.13 990.327 1520.68 L990.327 1515.95 Q993.151 1514.82 995.605 1514.24 Q998.059 1513.66 1000.1 1513.66 Q1005.47 1513.66 1008.66 1516.35 Q1011.85 1519.03 1011.85 1523.52 Q1011.85 1525.65 1011.04 1527.57 Q1010.26 1529.47 1008.15 1532.07 Q1007.57 1532.74 1004.47 1535.95 Q1001.37 1539.15 995.721 1544.91 Z" fill="#000000" fill-rule="nonzero" fill-opacity="1"></path><path clip-path="url(#clip530)" d="M1031.85 1517.37 Q1028.24 1517.37 1026.42 1520.93 Q1024.61 1524.47 1024.61 1531.6 Q1024.61 1538.71 1026.42 1542.27 Q1028.24 1545.82 1031.85 1545.82 Q1035.49 1545.82 1037.29 1542.27 Q1039.12 1538.71 1039.12 1531.6 Q1039.12 1524.47 1037.29 1520.93 Q1035.49 1517.37 1031.85 1517.37 M1031.85 1513.66 Q1037.67 1513.66 1040.72 1518.27 Q1043.8 1522.85 1043.8 1531.6 Q1043.8 1540.33 1040.72 1544.94 Q1037.67 1549.52 1031.85 1549.52 Q1026.04 1549.52 1022.97 1544.94 Q1019.91 1540.33 1019.91 1531.6 Q1019.91 1522.85 1022.97 1518.27 Q1026.04 1513.66 1031.85 1513.66 Z" fill="#000000" fill-rule="nonzero" fill-opacity="1"></path><path clip-path="url(#clip530)" d="M1430.26 1530.21 Q1433.62 1530.93 1435.49 1533.2 Q1437.39 1535.47 1437.39 1538.8 Q1437.39 1543.92 1433.87 1546.72 Q1430.35 1549.52 1423.87 1549.52 Q1421.7 1549.52 1419.38 1549.08 Q1417.09 1548.66 1414.64 1547.81 L1414.64 1543.29 Q1416.58 1544.43 1418.89 1545.01 Q1421.21 1545.58 1423.73 1545.58 Q1428.13 1545.58 1430.42 1543.85 Q1432.74 1542.11 1432.74 1538.8 Q1432.74 1535.75 1430.58 1534.03 Q1428.46 1532.3 1424.64 1532.3 L1420.61 1532.3 L1420.61 1528.45 L1424.82 1528.45 Q1428.27 1528.45 1430.1 1527.09 Q1431.93 1525.7 1431.93 1523.11 Q1431.93 1520.45 1430.03 1519.03 Q1428.15 1517.6 1424.64 1517.6 Q1422.71 1517.6 1420.52 1518.01 Q1418.32 1518.43 1415.68 1519.31 L1415.68 1515.14 Q1418.34 1514.4 1420.65 1514.03 Q1422.99 1513.66 1425.05 1513.66 Q1430.38 1513.66 1433.48 1516.09 Q1436.58 1518.5 1436.58 1522.62 Q1436.58 1525.49 1434.94 1527.48 Q1433.29 1529.45 1430.26 1530.21 Z" fill="#000000" fill-rule="nonzero" fill-opacity="1"></path><path clip-path="url(#clip530)" d="M1456.26 1517.37 Q1452.64 1517.37 1450.82 1520.93 Q1449.01 1524.47 1449.01 1531.6 Q1449.01 1538.71 1450.82 1542.27 Q1452.64 1545.82 1456.26 1545.82 Q1459.89 1545.82 1461.7 1542.27 Q1463.52 1538.71 1463.52 1531.6 Q1463.52 1524.47 1461.7 1520.93 Q1459.89 1517.37 1456.26 1517.37 M1456.26 1513.66 Q1462.07 1513.66 1465.12 1518.27 Q1468.2 1522.85 1468.2 1531.6 Q1468.2 1540.33 1465.12 1544.94 Q1462.07 1549.52 1456.26 1549.52 Q1450.45 1549.52 1447.37 1544.94 Q1444.31 1540.33 1444.31 1531.6 Q1444.31 1522.85 1447.37 1518.27 Q1450.45 1513.66 1456.26 1513.66 Z" fill="#000000" fill-rule="nonzero" fill-opacity="1"></path><path clip-path="url(#clip530)" d="M1854.06 1518.36 L1842.25 1536.81 L1854.06 1536.81 L1854.06 1518.36 M1852.83 1514.29 L1858.71 1514.29 L1858.71 1536.81 L1863.64 1536.81 L1863.64 1540.7 L1858.71 1540.7 L1858.71 1548.85 L1854.06 1548.85 L1854.06 1540.7 L1838.46 1540.7 L1838.46 1536.19 L1852.83 1514.29 Z" fill="#000000" fill-rule="nonzero" fill-opacity="1"></path><path clip-path="url(#clip530)" d="M1881.37 1517.37 Q1877.76 1517.37 1875.93 1520.93 Q1874.13 1524.47 1874.13 1531.6 Q1874.13 1538.71 1875.93 1542.27 Q1877.76 1545.82 1881.37 1545.82 Q1885.01 1545.82 1886.81 1542.27 Q1888.64 1538.71 1888.64 1531.6 Q1888.64 1524.47 1886.81 1520.93 Q1885.01 1517.37 1881.37 1517.37 M1881.37 1513.66 Q1887.18 1513.66 1890.24 1518.27 Q1893.32 1522.85 1893.32 1531.6 Q1893.32 1540.33 1890.24 1544.94 Q1887.18 1549.52 1881.37 1549.52 Q1875.56 1549.52 1872.49 1544.94 Q1869.43 1540.33 1869.43 1531.6 Q1869.43 1522.85 1872.49 1518.27 Q1875.56 1513.66 1881.37 1513.66 Z" fill="#000000" fill-rule="nonzero" fill-opacity="1"></path><path clip-path="url(#clip530)" d="M2265.06 1514.29 L2283.41 1514.29 L2283.41 1518.22 L2269.34 1518.22 L2269.34 1526.7 Q2270.36 1526.35 2271.38 1526.19 Q2272.4 1526 2273.41 1526 Q2279.2 1526 2282.58 1529.17 Q2285.96 1532.34 2285.96 1537.76 Q2285.96 1543.34 2282.49 1546.44 Q2279.02 1549.52 2272.7 1549.52 Q2270.52 1549.52 2268.25 1549.15 Q2266.01 1548.78 2263.6 1548.04 L2263.6 1543.34 Q2265.68 1544.47 2267.91 1545.03 Q2270.13 1545.58 2272.6 1545.58 Q2276.61 1545.58 2278.95 1543.48 Q2281.28 1541.37 2281.28 1537.76 Q2281.28 1534.15 2278.95 1532.04 Q2276.61 1529.94 2272.6 1529.94 Q2270.73 1529.94 2268.85 1530.35 Q2267 1530.77 2265.06 1531.65 L2265.06 1514.29 Z" fill="#000000" fill-rule="nonzero" fill-opacity="1"></path><path clip-path="url(#clip530)" d="M2305.17 1517.37 Q2301.56 1517.37 2299.73 1520.93 Q2297.93 1524.47 2297.93 1531.6 Q2297.93 1538.71 2299.73 1542.27 Q2301.56 1545.82 2305.17 1545.82 Q2308.81 1545.82 2310.61 1542.27 Q2312.44 1538.71 2312.44 1531.6 Q2312.44 1524.47 2310.61 1520.93 Q2308.81 1517.37 2305.17 1517.37 M2305.17 1513.66 Q2310.98 1513.66 2314.04 1518.27 Q2317.12 1522.85 2317.12 1531.6 Q2317.12 1540.33 2314.04 1544.94 Q2310.98 1549.52 2305.17 1549.52 Q2299.36 1549.52 2296.28 1544.94 Q2293.23 1540.33 2293.23 1531.6 Q2293.23 1522.85 2296.28 1518.27 Q2299.36 1513.66 2305.17 1513.66 Z" fill="#000000" fill-rule="nonzero" fill-opacity="1"></path><polyline clip-path="url(#clip530)" style="stroke:#000000; stroke-linecap:round; stroke-linejoin:round; stroke-width:4; stroke-opacity:1; fill:none" points="148.057,1486.45 148.057,47.2441 "></polyline>
<polyline clip-path="url(#clip530)" style="stroke:#000000; stroke-linecap:round; stroke-linejoin:round; stroke-width:4; stroke-opacity:1; fill:none" points="148.057,1403.84 166.954,1403.84 "></polyline>
<polyline clip-path="url(#clip530)" style="stroke:#000000; stroke-linecap:round; stroke-linejoin:round; stroke-width:4; stroke-opacity:1; fill:none" points="148.057,1181.88 166.954,1181.88 "></polyline>
<polyline clip-path="url(#clip530)" style="stroke:#000000; stroke-linecap:round; stroke-linejoin:round; stroke-width:4; stroke-opacity:1; fill:none" points="148.057,959.912 166.954,959.912 "></polyline>
<polyline clip-path="url(#clip530)" style="stroke:#000000; stroke-linecap:round; stroke-linejoin:round; stroke-width:4; stroke-opacity:1; fill:none" points="148.057,737.948 166.954,737.948 "></polyline>
<polyline clip-path="url(#clip530)" style="stroke:#000000; stroke-linecap:round; stroke-linejoin:round; stroke-width:4; stroke-opacity:1; fill:none" points="148.057,515.983 166.954,515.983 "></polyline>
<polyline clip-path="url(#clip530)" style="stroke:#000000; stroke-linecap:round; stroke-linejoin:round; stroke-width:4; stroke-opacity:1; fill:none" points="148.057,294.019 166.954,294.019 "></polyline>
<polyline clip-path="url(#clip530)" style="stroke:#000000; stroke-linecap:round; stroke-linejoin:round; stroke-width:4; stroke-opacity:1; fill:none" points="148.057,72.0543 166.954,72.0543 "></polyline>
<path clip-path="url(#clip530)" d="M50.9921 1404.29 L80.6679 1404.29 L80.6679 1408.23 L50.9921 1408.23 L50.9921 1404.29 Z" fill="#000000" fill-rule="nonzero" fill-opacity="1"></path><path clip-path="url(#clip530)" d="M104.927 1402.49 Q108.283 1403.21 110.158 1405.47 Q112.057 1407.74 112.057 1411.08 Q112.057 1416.19 108.538 1418.99 Q105.02 1421.79 98.5382 1421.79 Q96.3623 1421.79 94.0475 1421.35 Q91.7558 1420.94 89.3021 1420.08 L89.3021 1415.57 Q91.2465 1416.7 93.5613 1417.28 Q95.8761 1417.86 98.3993 1417.86 Q102.797 1417.86 105.089 1416.12 Q107.404 1414.39 107.404 1411.08 Q107.404 1408.02 105.251 1406.31 Q103.121 1404.57 99.3021 1404.57 L95.2743 1404.57 L95.2743 1400.73 L99.4872 1400.73 Q102.936 1400.73 104.765 1399.36 Q106.594 1397.97 106.594 1395.38 Q106.594 1392.72 104.696 1391.31 Q102.821 1389.87 99.3021 1389.87 Q97.3808 1389.87 95.1817 1390.29 Q92.9826 1390.71 90.3438 1391.58 L90.3438 1387.42 Q93.0058 1386.68 95.3206 1386.31 Q97.6585 1385.94 99.7187 1385.94 Q105.043 1385.94 108.145 1388.37 Q111.246 1390.77 111.246 1394.89 Q111.246 1397.77 109.603 1399.76 Q107.959 1401.72 104.927 1402.49 Z" fill="#000000" fill-rule="nonzero" fill-opacity="1"></path><path clip-path="url(#clip530)" d="M51.9412 1182.33 L81.617 1182.33 L81.617 1186.26 L51.9412 1186.26 L51.9412 1182.33 Z" fill="#000000" fill-rule="nonzero" fill-opacity="1"></path><path clip-path="url(#clip530)" d="M95.7373 1195.22 L112.057 1195.22 L112.057 1199.16 L90.1123 1199.16 L90.1123 1195.22 Q92.7743 1192.47 97.3576 1187.84 Q101.964 1183.18 103.145 1181.84 Q105.39 1179.32 106.27 1177.58 Q107.172 1175.82 107.172 1174.13 Q107.172 1171.38 105.228 1169.64 Q103.307 1167.91 100.205 1167.91 Q98.0058 1167.91 95.5521 1168.67 Q93.1215 1169.43 90.3438 1170.99 L90.3438 1166.26 Q93.1678 1165.13 95.6215 1164.55 Q98.0752 1163.97 100.112 1163.97 Q105.483 1163.97 108.677 1166.66 Q111.871 1169.34 111.871 1173.83 Q111.871 1175.96 111.061 1177.88 Q110.274 1179.78 108.168 1182.37 Q107.589 1183.05 104.487 1186.26 Q101.385 1189.46 95.7373 1195.22 Z" fill="#000000" fill-rule="nonzero" fill-opacity="1"></path><path clip-path="url(#clip530)" d="M51.5708 960.364 L81.2466 960.364 L81.2466 964.299 L51.5708 964.299 L51.5708 960.364 Z" fill="#000000" fill-rule="nonzero" fill-opacity="1"></path><path clip-path="url(#clip530)" d="M92.1493 973.257 L99.7882 973.257 L99.7882 946.892 L91.478 948.558 L91.478 944.299 L99.7419 942.632 L104.418 942.632 L104.418 973.257 L112.057 973.257 L112.057 977.192 L92.1493 977.192 L92.1493 973.257 Z" fill="#000000" fill-rule="nonzero" fill-opacity="1"></path><path clip-path="url(#clip530)" d="M100.112 723.747 Q96.5011 723.747 94.6724 727.311 Q92.8669 730.853 92.8669 737.983 Q92.8669 745.089 94.6724 748.654 Q96.5011 752.196 100.112 752.196 Q103.746 752.196 105.552 748.654 Q107.381 745.089 107.381 737.983 Q107.381 730.853 105.552 727.311 Q103.746 723.747 100.112 723.747 M100.112 720.043 Q105.922 720.043 108.978 724.649 Q112.057 729.233 112.057 737.983 Q112.057 746.709 108.978 751.316 Q105.922 755.899 100.112 755.899 Q94.3021 755.899 91.2234 751.316 Q88.1679 746.709 88.1679 737.983 Q88.1679 729.233 91.2234 724.649 Q94.3021 720.043 100.112 720.043 Z" fill="#000000" fill-rule="nonzero" fill-opacity="1"></path><path clip-path="url(#clip530)" d="M92.1493 529.328 L99.7882 529.328 L99.7882 502.963 L91.478 504.629 L91.478 500.37 L99.7419 498.703 L104.418 498.703 L104.418 529.328 L112.057 529.328 L112.057 533.263 L92.1493 533.263 L92.1493 529.328 Z" fill="#000000" fill-rule="nonzero" fill-opacity="1"></path><path clip-path="url(#clip530)" d="M95.7373 307.364 L112.057 307.364 L112.057 311.299 L90.1123 311.299 L90.1123 307.364 Q92.7743 304.609 97.3576 299.979 Q101.964 295.327 103.145 293.984 Q105.39 291.461 106.27 289.725 Q107.172 287.966 107.172 286.276 Q107.172 283.521 105.228 281.785 Q103.307 280.049 100.205 280.049 Q98.0058 280.049 95.5521 280.813 Q93.1215 281.577 90.3438 283.128 L90.3438 278.405 Q93.1678 277.271 95.6215 276.693 Q98.0752 276.114 100.112 276.114 Q105.483 276.114 108.677 278.799 Q111.871 281.484 111.871 285.975 Q111.871 288.105 111.061 290.026 Q110.274 291.924 108.168 294.517 Q107.589 295.188 104.487 298.405 Q101.385 301.6 95.7373 307.364 Z" fill="#000000" fill-rule="nonzero" fill-opacity="1"></path><path clip-path="url(#clip530)" d="M104.927 70.7001 Q108.283 71.4177 110.158 73.6862 Q112.057 75.9547 112.057 79.288 Q112.057 84.4038 108.538 87.2047 Q105.02 90.0056 98.5382 90.0056 Q96.3623 90.0056 94.0475 89.5658 Q91.7558 89.1491 89.3021 88.2926 L89.3021 83.7788 Q91.2465 84.913 93.5613 85.4917 Q95.8761 86.0704 98.3993 86.0704 Q102.797 86.0704 105.089 84.3343 Q107.404 82.5982 107.404 79.288 Q107.404 76.2325 105.251 74.5195 Q103.121 72.7834 99.3021 72.7834 L95.2743 72.7834 L95.2743 68.9409 L99.4872 68.9409 Q102.936 68.9409 104.765 67.5751 Q106.594 66.1863 106.594 63.5937 Q106.594 60.9317 104.696 59.5196 Q102.821 58.0845 99.3021 58.0845 Q97.3808 58.0845 95.1817 58.5011 Q92.9826 58.9178 90.3438 59.7974 L90.3438 55.6308 Q93.0058 54.89 95.3206 54.5197 Q97.6585 54.1493 99.7187 54.1493 Q105.043 54.1493 108.145 56.5798 Q111.246 58.9872 111.246 63.1076 Q111.246 65.9779 109.603 67.9687 Q107.959 69.9362 104.927 70.7001 Z" fill="#000000" fill-rule="nonzero" fill-opacity="1"></path><polyline clip-path="url(#clip532)" style="stroke:#009af9; stroke-linecap:round; stroke-linejoin:round; stroke-width:4; stroke-opacity:1; fill:none" points="210.454,715.751 252.901,741.998 295.348,787.539 337.795,436.712 380.242,836.983 422.689,1059.4 465.136,986.669 507.583,1120.48 550.03,754.787 592.477,796.824 634.924,838.309 677.371,801.669 719.818,392.95 762.265,940.288 804.712,1205.74 847.159,1445.72 889.606,1123.55 932.053,769.408 974.5,728.459 1016.95,857.048 1059.39,819.798 1101.84,712.703 1144.29,594.377 1186.74,553.579 1229.18,398.431 1271.63,637.101 1314.08,979.031 1356.52,966.209 1398.97,841.806 1441.42,958.897 1483.86,1018.57 1526.31,995.463 1568.76,877.645 1611.21,1218.74 1653.65,1005.5 1696.1,1204.34 1738.55,1150.02 1780.99,749.695 1823.44,671.393 1865.89,417.493 1908.34,87.9763 1950.78,659.998 1993.23,823.029 2035.68,976.156 2078.12,828.922 2120.57,897.06 2163.02,491.989 2205.46,441.068 2247.91,985.523 2290.36,606.385 "></polyline>
<path clip-path="url(#clip530)" d="M221.547 198.898 L494.447 198.898 L494.447 95.2176 L221.547 95.2176  Z" fill="#ffffff" fill-rule="evenodd" fill-opacity="1"></path>
<polyline clip-path="url(#clip530)" style="stroke:#000000; stroke-linecap:round; stroke-linejoin:round; stroke-width:4; stroke-opacity:1; fill:none" points="221.547,198.898 494.447,198.898 494.447,95.2176 221.547,95.2176 221.547,198.898 "></polyline>
<polyline clip-path="url(#clip530)" style="stroke:#009af9; stroke-linecap:round; stroke-linejoin:round; stroke-width:4; stroke-opacity:1; fill:none" points="246.043,147.058 393.023,147.058 "></polyline>
<path clip-path="url(#clip530)" d="M431.362 166.745 Q429.557 171.375 427.844 172.787 Q426.131 174.199 423.261 174.199 L419.858 174.199 L419.858 170.634 L422.358 170.634 Q424.117 170.634 425.089 169.8 Q426.061 168.967 427.242 165.865 L428.006 163.921 L417.52 138.412 L422.034 138.412 L430.136 158.689 L438.237 138.412 L442.751 138.412 L431.362 166.745 Z" fill="#000000" fill-rule="nonzero" fill-opacity="1"></path><path clip-path="url(#clip530)" d="M450.043 160.402 L457.682 160.402 L457.682 134.037 L449.372 135.703 L449.372 131.444 L457.635 129.778 L462.311 129.778 L462.311 160.402 L469.95 160.402 L469.95 164.338 L450.043 164.338 L450.043 160.402 Z" fill="#000000" fill-rule="nonzero" fill-opacity="1"></path></svg>