<svg xmlns="http://www.w3.org/2000/svg" xmlns:xlink="http://www.w3.org/1999/xlink" width="600" height="400" viewBox="0 0 2400 1600">
<defs>
  <clipPath id="clip130">
    <rect x="0" y="0" width="2400" height="1600"></rect>
  </clipPath>
</defs>
<path clip-path="url(#clip130)" d="M0 1600 L2400 1600 L2400 8.88178e-14 L0 8.88178e-14  Z" fill="#ffffff" fill-rule="evenodd" fill-opacity="1"></path>
<defs>
  <clipPath id="clip131">
    <rect x="480" y="0" width="1681" height="1600"></rect>
  </clipPath>
</defs>
<path clip-path="url(#clip130)" d="M156.922 1486.45 L2352.76 1486.45 L2352.76 47.2441 L156.922 47.2441  Z" fill="#ffffff" fill-rule="evenodd" fill-opacity="1"></path>
<defs>
  <clipPath id="clip132">
    <rect x="156" y="47" width="2197" height="1440"></rect>
  </clipPath>
</defs>
<polyline clip-path="url(#clip132)" style="stroke:#000000; stroke-linecap:round; stroke-linejoin:round; stroke-width:2; stroke-opacity:0.1; fill:none" points="216.843,1486.45 216.843,47.2441 "></polyline>
<polyline clip-path="url(#clip132)" style="stroke:#000000; stroke-linecap:round; stroke-linejoin:round; stroke-width:2; stroke-opacity:0.1; fill:none" points="661.858,1486.45 661.858,47.2441 "></polyline>
<polyline clip-path="url(#clip132)" style="stroke:#000000; stroke-linecap:round; stroke-linejoin:round; stroke-width:2; stroke-opacity:0.1; fill:none" points="1106.87,1486.45 1106.87,47.2441 "></polyline>
<polyline clip-path="url(#clip132)" style="stroke:#000000; stroke-linecap:round; stroke-linejoin:round; stroke-width:2; stroke-opacity:0.1; fill:none" points="1551.89,1486.45 1551.89,47.2441 "></polyline>
<polyline clip-path="url(#clip132)" style="stroke:#000000; stroke-linecap:round; stroke-linejoin:round; stroke-width:2; stroke-opacity:0.1; fill:none" points="1996.9,1486.45 1996.9,47.2441 "></polyline>
<polyline clip-path="url(#clip132)" style="stroke:#000000; stroke-linecap:round; stroke-linejoin:round; stroke-width:2; stroke-opacity:0.1; fill:none" points="156.922,1479.69 2352.76,1479.69 "></polyline>
<polyline clip-path="url(#clip132)" style="stroke:#000000; stroke-linecap:round; stroke-linejoin:round; stroke-width:2; stroke-opacity:0.1; fill:none" points="156.922,1226.63 2352.76,1226.63 "></polyline>
<polyline clip-path="url(#clip132)" style="stroke:#000000; stroke-linecap:round; stroke-linejoin:round; stroke-width:2; stroke-opacity:0.1; fill:none" points="156.922,973.57 2352.76,973.57 "></polyline>
<polyline clip-path="url(#clip132)" style="stroke:#000000; stroke-linecap:round; stroke-linejoin:round; stroke-width:2; stroke-opacity:0.1; fill:none" points="156.922,720.511 2352.76,720.511 "></polyline>
<polyline clip-path="url(#clip132)" style="stroke:#000000; stroke-linecap:round; stroke-linejoin:round; stroke-width:2; stroke-opacity:0.1; fill:none" points="156.922,467.452 2352.76,467.452 "></polyline>
<polyline clip-path="url(#clip132)" style="stroke:#000000; stroke-linecap:round; stroke-linejoin:round; stroke-width:2; stroke-opacity:0.1; fill:none" points="156.922,214.393 2352.76,214.393 "></polyline>
<polyline clip-path="url(#clip130)" style="stroke:#000000; stroke-linecap:round; stroke-linejoin:round; stroke-width:4; stroke-opacity:1; fill:none" points="156.922,1486.45 2352.76,1486.45 "></polyline>
<polyline clip-path="url(#clip130)" style="stroke:#000000; stroke-linecap:round; stroke-linejoin:round; stroke-width:4; stroke-opacity:1; fill:none" points="216.843,1486.45 216.843,1467.55 "></polyline>
<polyline clip-path="url(#clip130)" style="stroke:#000000; stroke-linecap:round; stroke-linejoin:round; stroke-width:4; stroke-opacity:1; fill:none" points="661.858,1486.45 661.858,1467.55 "></polyline>
<polyline clip-path="url(#clip130)" style="stroke:#000000; stroke-linecap:round; stroke-linejoin:round; stroke-width:4; stroke-opacity:1; fill:none" points="1106.87,1486.45 1106.87,1467.55 "></polyline>
<polyline clip-path="url(#clip130)" style="stroke:#000000; stroke-linecap:round; stroke-linejoin:round; stroke-width:4; stroke-opacity:1; fill:none" points="1551.89,1486.45 1551.89,1467.55 "></polyline>
<polyline clip-path="url(#clip130)" style="stroke:#000000; stroke-linecap:round; stroke-linejoin:round; stroke-width:4; stroke-opacity:1; fill:none" points="1996.9,1486.45 1996.9,1467.55 "></polyline>
<path clip-path="url(#clip130)" d="M216.843 1517.37 Q213.232 1517.37 211.404 1520.93 Q209.598 1524.47 209.598 1531.6 Q209.598 1538.71 211.404 1542.27 Q213.232 1545.82 216.843 1545.82 Q220.478 1545.82 222.283 1542.27 Q224.112 1538.71 224.112 1531.6 Q224.112 1524.47 222.283 1520.93 Q220.478 1517.37 216.843 1517.37 M216.843 1513.66 Q222.654 1513.66 225.709 1518.27 Q228.788 1522.85 228.788 1531.6 Q228.788 1540.33 225.709 1544.94 Q222.654 1549.52 216.843 1549.52 Q211.033 1549.52 207.955 1544.94 Q204.899 1540.33 204.899 1531.6 Q204.899 1522.85 207.955 1518.27 Q211.033 1513.66 216.843 1513.66 Z" fill="#000000" fill-rule="nonzero" fill-opacity="1"></path><path clip-path="url(#clip130)" d="M625.55 1544.91 L641.869 1544.91 L641.869 1548.85 L619.925 1548.85 L619.925 1544.91 Q622.587 1542.16 627.17 1537.53 Q631.777 1532.88 632.957 1531.53 Q635.203 1529.01 636.082 1527.27 Q636.985 1525.51 636.985 1523.82 Q636.985 1521.07 635.041 1519.33 Q633.119 1517.6 630.018 1517.6 Q627.819 1517.6 625.365 1518.36 Q622.934 1519.13 620.157 1520.68 L620.157 1515.95 Q622.981 1514.82 625.434 1514.24 Q627.888 1513.66 629.925 1513.66 Q635.295 1513.66 638.49 1516.35 Q641.684 1519.03 641.684 1523.52 Q641.684 1525.65 640.874 1527.57 Q640.087 1529.47 637.98 1532.07 Q637.402 1532.74 634.3 1535.95 Q631.198 1539.15 625.55 1544.91 Z" fill="#000000" fill-rule="nonzero" fill-opacity="1"></path><path clip-path="url(#clip130)" d="M661.684 1517.37 Q658.073 1517.37 656.244 1520.93 Q654.439 1524.47 654.439 1531.6 Q654.439 1538.71 656.244 1542.27 Q658.073 1545.82 661.684 1545.82 Q665.318 1545.82 667.124 1542.27 Q668.953 1538.71 668.953 1531.6 Q668.953 1524.47 667.124 1520.93 Q665.318 1517.37 661.684 1517.37 M661.684 1513.66 Q667.494 1513.66 670.55 1518.27 Q673.628 1522.85 673.628 1531.6 Q673.628 1540.33 670.55 1544.94 Q667.494 1549.52 661.684 1549.52 Q655.874 1549.52 652.795 1544.94 Q649.74 1540.33 649.74 1531.6 Q649.74 1522.85 652.795 1518.27 Q655.874 1513.66 661.684 1513.66 Z" fill="#000000" fill-rule="nonzero" fill-opacity="1"></path><path clip-path="url(#clip130)" d="M691.846 1517.37 Q688.235 1517.37 686.406 1520.93 Q684.601 1524.47 684.601 1531.6 Q684.601 1538.71 686.406 1542.27 Q688.235 1545.82 691.846 1545.82 Q695.48 1545.82 697.286 1542.27 Q699.114 1538.71 699.114 1531.6 Q699.114 1524.47 697.286 1520.93 Q695.48 1517.37 691.846 1517.37 M691.846 1513.66 Q697.656 1513.66 700.712 1518.27 Q703.79 1522.85 703.79 1531.6 Q703.79 1540.33 700.712 1544.94 Q697.656 1549.52 691.846 1549.52 Q686.036 1549.52 682.957 1544.94 Q679.902 1540.33 679.902 1531.6 Q679.902 1522.85 682.957 1518.27 Q686.036 1513.66 691.846 1513.66 Z" fill="#000000" fill-rule="nonzero" fill-opacity="1"></path><path clip-path="url(#clip130)" d="M1079.96 1518.36 L1068.16 1536.81 L1079.96 1536.81 L1079.96 1518.36 M1078.74 1514.29 L1084.62 1514.29 L1084.62 1536.81 L1089.55 1536.81 L1089.55 1540.7 L1084.62 1540.7 L1084.62 1548.85 L1079.96 1548.85 L1079.96 1540.7 L1064.36 1540.7 L1064.36 1536.19 L1078.74 1514.29 Z" fill="#000000" fill-rule="nonzero" fill-opacity="1"></path><path clip-path="url(#clip130)" d="M1107.28 1517.37 Q1103.67 1517.37 1101.84 1520.93 Q1100.03 1524.47 1100.03 1531.6 Q1100.03 1538.71 1101.84 1542.27 Q1103.67 1545.82 1107.28 1545.82 Q1110.91 1545.82 1112.72 1542.27 Q1114.55 1538.71 1114.55 1531.6 Q1114.55 1524.47 1112.72 1520.93 Q1110.91 1517.37 1107.28 1517.37 M1107.28 1513.66 Q1113.09 1513.66 1116.14 1518.27 Q1119.22 1522.85 1119.22 1531.6 Q1119.22 1540.33 1116.14 1544.94 Q1113.09 1549.52 1107.28 1549.52 Q1101.47 1549.52 1098.39 1544.94 Q1095.33 1540.33 1095.33 1531.6 Q1095.33 1522.85 1098.39 1518.27 Q1101.47 1513.66 1107.28 1513.66 Z" fill="#000000" fill-rule="nonzero" fill-opacity="1"></path><path clip-path="url(#clip130)" d="M1137.44 1517.37 Q1133.83 1517.37 1132 1520.93 Q1130.19 1524.47 1130.19 1531.6 Q1130.19 1538.71 1132 1542.27 Q1133.83 1545.82 1137.44 1545.82 Q1141.07 1545.82 1142.88 1542.27 Q1144.71 1538.71 1144.71 1531.6 Q1144.71 1524.47 1142.88 1520.93 Q1141.07 1517.37 1137.44 1517.37 M1137.44 1513.66 Q1143.25 1513.66 1146.3 1518.27 Q1149.38 1522.85 1149.38 1531.6 Q1149.38 1540.33 1146.3 1544.94 Q1143.25 1549.52 1137.44 1549.52 Q1131.63 1549.52 1128.55 1544.94 Q1125.49 1540.33 1125.49 1531.6 Q1125.49 1522.85 1128.55 1518.27 Q1131.63 1513.66 1137.44 1513.66 Z" fill="#000000" fill-rule="nonzero" fill-opacity="1"></path><path clip-path="url(#clip130)" d="M1522.21 1529.7 Q1519.06 1529.7 1517.21 1531.86 Q1515.38 1534.01 1515.38 1537.76 Q1515.38 1541.49 1517.21 1543.66 Q1519.06 1545.82 1522.21 1545.82 Q1525.36 1545.82 1527.19 1543.66 Q1529.04 1541.49 1529.04 1537.76 Q1529.04 1534.01 1527.19 1531.86 Q1525.36 1529.7 1522.21 1529.7 M1531.49 1515.05 L1531.49 1519.31 Q1529.73 1518.48 1527.93 1518.04 Q1526.15 1517.6 1524.39 1517.6 Q1519.76 1517.6 1517.3 1520.72 Q1514.87 1523.85 1514.53 1530.17 Q1515.89 1528.15 1517.95 1527.09 Q1520.01 1526 1522.49 1526 Q1527.7 1526 1530.71 1529.17 Q1533.74 1532.32 1533.74 1537.76 Q1533.74 1543.08 1530.59 1546.3 Q1527.44 1549.52 1522.21 1549.52 Q1516.21 1549.52 1513.04 1544.94 Q1509.87 1540.33 1509.87 1531.6 Q1509.87 1523.41 1513.76 1518.55 Q1517.65 1513.66 1524.2 1513.66 Q1525.96 1513.66 1527.74 1514.01 Q1529.55 1514.36 1531.49 1515.05 Z" fill="#000000" fill-rule="nonzero" fill-opacity="1"></path><path clip-path="url(#clip130)" d="M1551.79 1517.37 Q1548.18 1517.37 1546.35 1520.93 Q1544.55 1524.47 1544.55 1531.6 Q1544.55 1538.71 1546.35 1542.27 Q1548.18 1545.82 1551.79 1545.82 Q1555.43 1545.82 1557.23 1542.27 Q1559.06 1538.71 1559.06 1531.6 Q1559.06 1524.47 1557.23 1520.93 Q1555.43 1517.37 1551.79 1517.37 M1551.79 1513.66 Q1557.6 1513.66 1560.66 1518.27 Q1563.74 1522.85 1563.74 1531.6 Q1563.74 1540.33 1560.66 1544.94 Q1557.6 1549.52 1551.79 1549.52 Q1545.98 1549.52 1542.9 1544.94 Q1539.85 1540.33 1539.85 1531.6 Q1539.85 1522.85 1542.9 1518.27 Q1545.98 1513.66 1551.79 1513.66 Z" fill="#000000" fill-rule="nonzero" fill-opacity="1"></path><path clip-path="url(#clip130)" d="M1581.96 1517.37 Q1578.34 1517.37 1576.52 1520.93 Q1574.71 1524.47 1574.71 1531.6 Q1574.71 1538.71 1576.52 1542.27 Q1578.34 1545.82 1581.96 1545.82 Q1585.59 1545.82 1587.4 1542.27 Q1589.22 1538.71 1589.22 1531.6 Q1589.22 1524.47 1587.4 1520.93 Q1585.59 1517.37 1581.96 1517.37 M1581.96 1513.66 Q1587.77 1513.66 1590.82 1518.27 Q1593.9 1522.85 1593.9 1531.6 Q1593.9 1540.33 1590.82 1544.94 Q1587.77 1549.52 1581.96 1549.52 Q1576.15 1549.52 1573.07 1544.94 Q1570.01 1540.33 1570.01 1531.6 Q1570.01 1522.85 1573.07 1518.27 Q1576.15 1513.66 1581.96 1513.66 Z" fill="#000000" fill-rule="nonzero" fill-opacity="1"></path><path clip-path="url(#clip130)" d="M1966.69 1532.44 Q1963.36 1532.44 1961.44 1534.22 Q1959.54 1536 1959.54 1539.13 Q1959.54 1542.25 1961.44 1544.03 Q1963.36 1545.82 1966.69 1545.82 Q1970.03 1545.82 1971.95 1544.03 Q1973.87 1542.23 1973.87 1539.13 Q1973.87 1536 1971.95 1534.22 Q1970.05 1532.44 1966.69 1532.44 M1962.02 1530.45 Q1959.01 1529.7 1957.32 1527.64 Q1955.65 1525.58 1955.65 1522.62 Q1955.65 1518.48 1958.59 1516.07 Q1961.55 1513.66 1966.69 1513.66 Q1971.85 1513.66 1974.79 1516.07 Q1977.73 1518.48 1977.73 1522.62 Q1977.73 1525.58 1976.04 1527.64 Q1974.38 1529.7 1971.39 1530.45 Q1974.77 1531.23 1976.65 1533.52 Q1978.54 1535.82 1978.54 1539.13 Q1978.54 1544.15 1975.47 1546.83 Q1972.41 1549.52 1966.69 1549.52 Q1960.97 1549.52 1957.9 1546.83 Q1954.84 1544.15 1954.84 1539.13 Q1954.84 1535.82 1956.74 1533.52 Q1958.64 1531.23 1962.02 1530.45 M1960.3 1523.06 Q1960.3 1525.75 1961.97 1527.25 Q1963.66 1528.76 1966.69 1528.76 Q1969.7 1528.76 1971.39 1527.25 Q1973.1 1525.75 1973.1 1523.06 Q1973.1 1520.38 1971.39 1518.87 Q1969.7 1517.37 1966.69 1517.37 Q1963.66 1517.37 1961.97 1518.87 Q1960.3 1520.38 1960.3 1523.06 Z" fill="#000000" fill-rule="nonzero" fill-opacity="1"></path><path clip-path="url(#clip130)" d="M1996.85 1517.37 Q1993.24 1517.37 1991.41 1520.93 Q1989.61 1524.47 1989.61 1531.6 Q1989.61 1538.71 1991.41 1542.27 Q1993.24 1545.82 1996.85 1545.82 Q2000.49 1545.82 2002.29 1542.27 Q2004.12 1538.71 2004.12 1531.6 Q2004.12 1524.47 2002.29 1520.93 Q2000.49 1517.37 1996.85 1517.37 M1996.85 1513.66 Q2002.66 1513.66 2005.72 1518.27 Q2008.8 1522.85 2008.8 1531.6 Q2008.8 1540.33 2005.72 1544.94 Q2002.66 1549.52 1996.85 1549.52 Q1991.04 1549.52 1987.97 1544.94 Q1984.91 1540.33 1984.91 1531.6 Q1984.91 1522.85 1987.97 1518.27 Q1991.04 1513.66 1996.85 1513.66 Z" fill="#000000" fill-rule="nonzero" fill-opacity="1"></path><path clip-path="url(#clip130)" d="M2027.02 1517.37 Q2023.4 1517.37 2021.58 1520.93 Q2019.77 1524.47 2019.77 1531.6 Q2019.77 1538.71 2021.58 1542.27 Q2023.4 1545.82 2027.02 1545.82 Q2030.65 1545.82 2032.46 1542.27 Q2034.28 1538.71 2034.28 1531.6 Q2034.28 1524.47 2032.46 1520.93 Q2030.65 1517.37 2027.02 1517.37 M2027.02 1513.66 Q2032.83 1513.66 2035.88 1518.27 Q2038.96 1522.85 2038.96 1531.6 Q2038.96 1540.33 2035.88 1544.94 Q2032.83 1549.52 2027.02 1549.52 Q2021.21 1549.52 2018.13 1544.94 Q2015.07 1540.33 2015.07 1531.6 Q2015.07 1522.85 2018.13 1518.27 Q2021.21 1513.66 2027.02 1513.66 Z" fill="#000000" fill-rule="nonzero" fill-opacity="1"></path><polyline clip-path="url(#clip130)" style="stroke:#000000; stroke-linecap:round; stroke-linejoin:round; stroke-width:4; stroke-opacity:1; fill:none" points="156.922,1486.45 156.922,47.2441 "></polyline>
<polyline clip-path="url(#clip130)" style="stroke:#000000; stroke-linecap:round; stroke-linejoin:round; stroke-width:4; stroke-opacity:1; fill:none" points="156.922,1479.69 175.82,1479.69 "></polyline>
<polyline clip-path="url(#clip130)" style="stroke:#000000; stroke-linecap:round; stroke-linejoin:round; stroke-width:4; stroke-opacity:1; fill:none" points="156.922,1226.63 175.82,1226.63 "></polyline>
<polyline clip-path="url(#clip130)" style="stroke:#000000; stroke-linecap:round; stroke-linejoin:round; stroke-width:4; stroke-opacity:1; fill:none" points="156.922,973.57 175.82,973.57 "></polyline>
<polyline clip-path="url(#clip130)" style="stroke:#000000; stroke-linecap:round; stroke-linejoin:round; stroke-width:4; stroke-opacity:1; fill:none" points="156.922,720.511 175.82,720.511 "></polyline>
<polyline clip-path="url(#clip130)" style="stroke:#000000; stroke-linecap:round; stroke-linejoin:round; stroke-width:4; stroke-opacity:1; fill:none" points="156.922,467.452 175.82,467.452 "></polyline>
<polyline clip-path="url(#clip130)" style="stroke:#000000; stroke-linecap:round; stroke-linejoin:round; stroke-width:4; stroke-opacity:1; fill:none" points="156.922,214.393 175.82,214.393 "></polyline>
<path clip-path="url(#clip130)" d="M67.9133 1478.33 Q71.2698 1479.05 73.1448 1481.32 Q75.0429 1483.59 75.0429 1486.92 Q75.0429 1492.04 71.5244 1494.84 Q68.0059 1497.64 61.5245 1497.64 Q59.3486 1497.64 57.0338 1497.2 Q54.7421 1496.78 52.2884 1495.93 L52.2884 1491.41 Q54.2328 1492.55 56.5477 1493.12 Q58.8625 1493.7 61.3856 1493.7 Q65.7837 1493.7 68.0754 1491.97 Q70.3902 1490.23 70.3902 1486.92 Q70.3902 1483.87 68.2374 1482.15 Q66.1078 1480.42 62.2884 1480.42 L58.2606 1480.42 L58.2606 1476.57 L62.4735 1476.57 Q65.9226 1476.57 67.7513 1475.21 Q69.58 1473.82 69.58 1471.23 Q69.58 1468.56 67.6819 1467.15 Q65.8069 1465.72 62.2884 1465.72 Q60.3671 1465.72 58.168 1466.13 Q55.969 1466.55 53.3301 1467.43 L53.3301 1463.26 Q55.9921 1462.52 58.3069 1462.15 Q60.6449 1461.78 62.705 1461.78 Q68.0291 1461.78 71.1309 1464.21 Q74.2327 1466.62 74.2327 1470.74 Q74.2327 1473.61 72.5892 1475.6 Q70.9457 1477.57 67.9133 1478.33 Z" fill="#000000" fill-rule="nonzero" fill-opacity="1"></path><path clip-path="url(#clip130)" d="M83.9086 1491.09 L88.7928 1491.09 L88.7928 1496.97 L83.9086 1496.97 L83.9086 1491.09 Z" fill="#000000" fill-rule="nonzero" fill-opacity="1"></path><path clip-path="url(#clip130)" d="M108.978 1465.49 Q105.367 1465.49 103.538 1469.05 Q101.733 1472.59 101.733 1479.72 Q101.733 1486.83 103.538 1490.39 Q105.367 1493.94 108.978 1493.94 Q112.612 1493.94 114.418 1490.39 Q116.246 1486.83 116.246 1479.72 Q116.246 1472.59 114.418 1469.05 Q112.612 1465.49 108.978 1465.49 M108.978 1461.78 Q114.788 1461.78 117.844 1466.39 Q120.922 1470.97 120.922 1479.72 Q120.922 1488.45 117.844 1493.06 Q114.788 1497.64 108.978 1497.64 Q103.168 1497.64 100.089 1493.06 Q97.0335 1488.45 97.0335 1479.72 Q97.0335 1470.97 100.089 1466.39 Q103.168 1461.78 108.978 1461.78 Z" fill="#000000" fill-rule="nonzero" fill-opacity="1"></path><path clip-path="url(#clip130)" d="M68.9087 1225.27 Q72.2652 1225.99 74.1402 1228.26 Q76.0383 1230.53 76.0383 1233.86 Q76.0383 1238.98 72.5198 1241.78 Q69.0013 1244.58 62.5198 1244.58 Q60.3439 1244.58 58.0291 1244.14 Q55.7375 1243.72 53.2838 1242.87 L53.2838 1238.35 Q55.2282 1239.49 57.543 1240.07 Q59.8578 1240.64 62.381 1240.64 Q66.7791 1240.64 69.0707 1238.91 Q71.3855 1237.17 71.3855 1233.86 Q71.3855 1230.81 69.2328 1229.09 Q67.1032 1227.36 63.2837 1227.36 L59.256 1227.36 L59.256 1223.52 L63.4689 1223.52 Q66.918 1223.52 68.7467 1222.15 Q70.5754 1220.76 70.5754 1218.17 Q70.5754 1215.51 68.6772 1214.09 Q66.8022 1212.66 63.2837 1212.66 Q61.3624 1212.66 59.1634 1213.08 Q56.9643 1213.49 54.3254 1214.37 L54.3254 1210.21 Q56.9875 1209.46 59.3023 1209.09 Q61.6402 1208.72 63.7004 1208.72 Q69.0244 1208.72 72.1263 1211.15 Q75.2281 1213.56 75.2281 1217.68 Q75.2281 1220.55 73.5846 1222.54 Q71.9411 1224.51 68.9087 1225.27 Z" fill="#000000" fill-rule="nonzero" fill-opacity="1"></path><path clip-path="url(#clip130)" d="M84.904 1238.03 L89.7882 1238.03 L89.7882 1243.91 L84.904 1243.91 L84.904 1238.03 Z" fill="#000000" fill-rule="nonzero" fill-opacity="1"></path><path clip-path="url(#clip130)" d="M100.02 1209.35 L118.376 1209.35 L118.376 1213.28 L104.302 1213.28 L104.302 1221.76 Q105.321 1221.41 106.339 1221.25 Q107.358 1221.06 108.376 1221.06 Q114.163 1221.06 117.543 1224.23 Q120.922 1227.4 120.922 1232.82 Q120.922 1238.4 117.45 1241.5 Q113.978 1244.58 107.658 1244.58 Q105.483 1244.58 103.214 1244.21 Q100.969 1243.84 98.5613 1243.1 L98.5613 1238.4 Q100.645 1239.53 102.867 1240.09 Q105.089 1240.64 107.566 1240.64 Q111.571 1240.64 113.908 1238.54 Q116.246 1236.43 116.246 1232.82 Q116.246 1229.21 113.908 1227.1 Q111.571 1225 107.566 1225 Q105.691 1225 103.816 1225.41 Q101.964 1225.83 100.02 1226.71 L100.02 1209.35 Z" fill="#000000" fill-rule="nonzero" fill-opacity="1"></path><path clip-path="url(#clip130)" d="M66.5939 960.364 L54.7884 978.813 L66.5939 978.813 L66.5939 960.364 M65.367 956.29 L71.2466 956.29 L71.2466 978.813 L76.1772 978.813 L76.1772 982.702 L71.2466 982.702 L71.2466 990.85 L66.5939 990.85 L66.5939 982.702 L50.9921 982.702 L50.9921 978.188 L65.367 956.29 Z" fill="#000000" fill-rule="nonzero" fill-opacity="1"></path><path clip-path="url(#clip130)" d="M83.9086 984.97 L88.7928 984.97 L88.7928 990.85 L83.9086 990.85 L83.9086 984.97 Z" fill="#000000" fill-rule="nonzero" fill-opacity="1"></path><path clip-path="url(#clip130)" d="M108.978 959.369 Q105.367 959.369 103.538 962.933 Q101.733 966.475 101.733 973.605 Q101.733 980.711 103.538 984.276 Q105.367 987.817 108.978 987.817 Q112.612 987.817 114.418 984.276 Q116.246 980.711 116.246 973.605 Q116.246 966.475 114.418 962.933 Q112.612 959.369 108.978 959.369 M108.978 955.665 Q114.788 955.665 117.844 960.271 Q120.922 964.855 120.922 973.605 Q120.922 982.331 117.844 986.938 Q114.788 991.521 108.978 991.521 Q103.168 991.521 100.089 986.938 Q97.0335 982.331 97.0335 973.605 Q97.0335 964.855 100.089 960.271 Q103.168 955.665 108.978 955.665 Z" fill="#000000" fill-rule="nonzero" fill-opacity="1"></path><path clip-path="url(#clip130)" d="M67.5893 707.305 L55.7838 725.754 L67.5893 725.754 L67.5893 707.305 M66.3624 703.231 L72.242 703.231 L72.242 725.754 L77.1725 725.754 L77.1725 729.643 L72.242 729.643 L72.242 737.791 L67.5893 737.791 L67.5893 729.643 L51.9875 729.643 L51.9875 725.129 L66.3624 703.231 Z" fill="#000000" fill-rule="nonzero" fill-opacity="1"></path><path clip-path="url(#clip130)" d="M84.904 731.911 L89.7882 731.911 L89.7882 737.791 L84.904 737.791 L84.904 731.911 Z" fill="#000000" fill-rule="nonzero" fill-opacity="1"></path><path clip-path="url(#clip130)" d="M100.02 703.231 L118.376 703.231 L118.376 707.166 L104.302 707.166 L104.302 715.638 Q105.321 715.291 106.339 715.129 Q107.358 714.944 108.376 714.944 Q114.163 714.944 117.543 718.115 Q120.922 721.287 120.922 726.703 Q120.922 732.282 117.45 735.384 Q113.978 738.462 107.658 738.462 Q105.483 738.462 103.214 738.092 Q100.969 737.722 98.5613 736.981 L98.5613 732.282 Q100.645 733.416 102.867 733.972 Q105.089 734.527 107.566 734.527 Q111.571 734.527 113.908 732.421 Q116.246 730.314 116.246 726.703 Q116.246 723.092 113.908 720.986 Q111.571 718.879 107.566 718.879 Q105.691 718.879 103.816 719.296 Q101.964 719.712 100.02 720.592 L100.02 703.231 Z" fill="#000000" fill-rule="nonzero" fill-opacity="1"></path><path clip-path="url(#clip130)" d="M53.793 450.172 L72.1494 450.172 L72.1494 454.107 L58.0754 454.107 L58.0754 462.58 Q59.0939 462.232 60.1124 462.07 Q61.131 461.885 62.1495 461.885 Q67.9365 461.885 71.3161 465.056 Q74.6957 468.228 74.6957 473.644 Q74.6957 479.223 71.2235 482.325 Q67.7513 485.404 61.4319 485.404 Q59.256 485.404 56.9875 485.033 Q54.7421 484.663 52.3347 483.922 L52.3347 479.223 Q54.418 480.357 56.6402 480.913 Q58.8625 481.468 61.3393 481.468 Q65.3439 481.468 67.6819 479.362 Q70.0198 477.255 70.0198 473.644 Q70.0198 470.033 67.6819 467.927 Q65.3439 465.82 61.3393 465.82 Q59.4643 465.82 57.5893 466.237 Q55.7375 466.654 53.793 467.533 L53.793 450.172 Z" fill="#000000" fill-rule="nonzero" fill-opacity="1"></path><path clip-path="url(#clip130)" d="M83.9086 478.853 L88.7928 478.853 L88.7928 484.732 L83.9086 484.732 L83.9086 478.853 Z" fill="#000000" fill-rule="nonzero" fill-opacity="1"></path><path clip-path="url(#clip130)" d="M108.978 453.251 Q105.367 453.251 103.538 456.816 Q101.733 460.357 101.733 467.487 Q101.733 474.593 103.538 478.158 Q105.367 481.7 108.978 481.7 Q112.612 481.7 114.418 478.158 Q116.246 474.593 116.246 467.487 Q116.246 460.357 114.418 456.816 Q112.612 453.251 108.978 453.251 M108.978 449.547 Q114.788 449.547 117.844 454.154 Q120.922 458.737 120.922 467.487 Q120.922 476.214 117.844 480.82 Q114.788 485.404 108.978 485.404 Q103.168 485.404 100.089 480.82 Q97.0335 476.214 97.0335 467.487 Q97.0335 458.737 100.089 454.154 Q103.168 449.547 108.978 449.547 Z" fill="#000000" fill-rule="nonzero" fill-opacity="1"></path><path clip-path="url(#clip130)" d="M54.7884 197.113 L73.1448 197.113 L73.1448 201.049 L59.0708 201.049 L59.0708 209.521 Q60.0893 209.174 61.1078 209.012 Q62.1263 208.826 63.1448 208.826 Q68.9318 208.826 72.3115 211.998 Q75.6911 215.169 75.6911 220.586 Q75.6911 226.164 72.2189 229.266 Q68.7467 232.345 62.4272 232.345 Q60.2513 232.345 57.9828 231.974 Q55.7375 231.604 53.3301 230.863 L53.3301 226.164 Q55.4134 227.298 57.6356 227.854 Q59.8578 228.41 62.3347 228.41 Q66.3393 228.41 68.6772 226.303 Q71.0152 224.197 71.0152 220.586 Q71.0152 216.974 68.6772 214.868 Q66.3393 212.762 62.3347 212.762 Q60.4597 212.762 58.5847 213.178 Q56.7328 213.595 54.7884 214.474 L54.7884 197.113 Z" fill="#000000" fill-rule="nonzero" fill-opacity="1"></path><path clip-path="url(#clip130)" d="M84.904 225.794 L89.7882 225.794 L89.7882 231.673 L84.904 231.673 L84.904 225.794 Z" fill="#000000" fill-rule="nonzero" fill-opacity="1"></path><path clip-path="url(#clip130)" d="M100.02 197.113 L118.376 197.113 L118.376 201.049 L104.302 201.049 L104.302 209.521 Q105.321 209.174 106.339 209.012 Q107.358 208.826 108.376 208.826 Q114.163 208.826 117.543 211.998 Q120.922 215.169 120.922 220.586 Q120.922 226.164 117.45 229.266 Q113.978 232.345 107.658 232.345 Q105.483 232.345 103.214 231.974 Q100.969 231.604 98.5613 230.863 L98.5613 226.164 Q100.645 227.298 102.867 227.854 Q105.089 228.41 107.566 228.41 Q111.571 228.41 113.908 226.303 Q116.246 224.197 116.246 220.586 Q116.246 216.974 113.908 214.868 Q111.571 212.762 107.566 212.762 Q105.691 212.762 103.816 213.178 Q101.964 213.595 100.02 214.474 L100.02 197.113 Z" fill="#000000" fill-rule="nonzero" fill-opacity="1"></path><polyline clip-path="url(#clip132)" style="stroke:#009af9; stroke-linecap:round; stroke-linejoin:round; stroke-width:4; stroke-opacity:1; fill:none" points="219.069,1445.72 221.294,1442.43 223.519,1433.61 225.744,1433.61 227.969,1434.76 230.194,1431.77 232.419,1428.35 234.644,1424.49 236.869,1414.64 239.094,1413.1 241.319,1409.79 243.544,1402.17 245.769,1396.36 247.994,1396.58 250.22,1400.23 252.445,1393.38 254.67,1389.36 256.895,1386.42 259.12,1381.21 261.345,1380.58 263.57,1382.04 265.795,1383.08 268.02,1386.21 270.245,1388.52 272.47,1389.36 274.695,1391.47 276.92,1391.47 279.145,1391.26 281.371,1391.47 283.596,1391.26 285.821,1395.94 288.046,1395.94 290.271,1394.87 292.496,1396.58 294.721,1395.94 296.946,1397.86 299.171,1400.01 301.396,1397.86 303.621,1397.22 305.846,1397.01 308.071,1394.44 310.296,1392.11 312.522,1388.1 314.747,1385.37 316.972,1382.45 319.197,1379.14 321.422,1377.07 323.647,1369.32 325.872,1361.28 328.097,1352.38 330.322,1351.4 332.547,1350.62 334.772,1349.25 336.997,1350.42 339.222,1350.82 341.447,1351.79 343.673,1348.48 345.898,1345.96 348.123,1342.87 350.348,1339.99 352.573,1340.38 354.798,1341.14 357.023,1341.52 359.248,1340.18 361.473,1339.99 363.698,1338.85 365.923,1335.99 368.148,1335.8 370.373,1336.94 372.598,1335.8 374.824,1335.8 377.049,1335.42 379.274,1336.75 381.499,1337.7 383.724,1336.94 385.949,1335.8 388.174,1335.61 390.399,1334.29 392.624,1333.91 394.849,1332.78 397.074,1332.03 399.299,1330.9 401.524,1332.78 403.749,1332.4 405.975,1331.09 408.2,1330.15 410.425,1331.27 412.65,1332.59 414.875,1331.27 417.1,1331.09 419.325,1332.59 421.55,1332.78 423.775,1333.53 426,1335.24 428.225,1334.1 430.45,1334.29 432.675,1334.29 434.9,1333.34 437.126,1333.91 439.351,1333.91 441.576,1334.29 443.801,1335.42 446.026,1334.48 448.251,1335.24 450.476,1332.78 452.701,1333.34 454.926,1332.21 457.151,1332.4 459.376,1333.16 461.601,1332.59 463.826,1332.03 466.051,1331.27 468.276,1329.4 470.502,1327.16 472.727,1324.55 474.952,1324.18 477.177,1323.44 479.402,1320.49 481.627,1320.49 483.852,1318.29 486.077,1317.55 488.302,1315.18 490.527,1314.09 492.752,1312.82 494.977,1311.55 497.202,1309.57 499.427,1308.13 501.653,1306.52 503.878,1305.8 506.103,1305.8 508.328,1304.2 510.553,1303.13 512.778,1300.11 515.003,1299.06 517.228,1296.07 519.453,1294.84 521.678,1294.84 523.903,1295.37 526.128,1295.72 528.353,1294.84 530.578,1295.37 532.804,1295.37 535.029,1294.67 537.254,1294.32 539.479,1293.62 541.704,1293.79 543.929,1294.32 546.154,1294.14 548.379,1293.09 550.604,1291.88 552.829,1291.18 555.054,1290.66 557.279,1289.45 559.504,1287.72 561.729,1287.72 563.955,1286.69 566.18,1287.38 568.405,1286.69 570.63,1286.69 572.855,1284.45 575.08,1283.94 577.305,1283.26 579.53,1284.28 581.755,1283.26 583.98,1283.26 586.205,1280.87 588.43,1280.36 590.655,1279.85 592.88,1279.34 595.106,1279.34 597.331,1279.34 599.556,1279.85 601.781,1279.34 604.006,1279.34 606.231,1277.99 608.456,1277.65 610.681,1276.97 612.906,1276.97 615.131,1276.97 617.356,1276.47 619.581,1275.96 621.806,1274.78 624.031,1273.77 626.257,1273.1 628.482,1272.6 630.707,1273.1 632.932,1272.94 635.157,1271.93 637.382,1269.6 639.607,1270.26 641.832,1270.26 644.057,1270.26 646.282,1269.27 648.507,1268.6 650.732,1268.1 652.957,1268.6 655.182,1268.1 657.408,1266.45 659.633,1265.13 661.858,1264.14 664.083,1264.63 666.308,1264.14 668.533,1263.64 670.758,1262 672.983,1261.02 675.208,1261.51 677.433,1261.02 679.658,1260.86 681.883,1260.37 684.108,1259.88 686.333,1259.71 688.559,1259.22 690.784,1258.73 693.009,1258.08 695.234,1256.62 697.459,1255.97 699.684,1255.49 701.909,1255.49 704.134,1255 706.359,1253.87 708.584,1252.26 710.809,1250.18 713.034,1250.66 715.259,1251.14 717.484,1250.02 719.71,1249.54 721.935,1247.94 724.16,1246.35 726.385,1245.87 728.61,1242.71 730.835,1241.13 733.06,1239.56 735.285,1238.46 737.51,1238 739.735,1236.9 741.96,1233.79 744.185,1232.25 746.41,1230.7 748.635,1230.24 750.861,1229.62 753.086,1229.93 755.311,1228.4 757.536,1228.4 759.761,1226.86 761.986,1226.86 764.211,1223.82 766.436,1222.3 768.661,1220.79 770.886,1219.28 773.111,1217.77 775.336,1214.78 777.561,1213.29 779.786,1211.8 782.012,1210.32 784.237,1208.84 786.462,1207.37 788.687,1205.9 790.912,1202.97 793.137,1200.06 795.362,1198.62 797.587,1197.17 799.812,1194.3 802.037,1192.86 804.262,1190.01 806.487,1188.59 808.712,1187.18 810.937,1182.95 813.163,1180.16 815.388,1178.77 817.613,1175.99 819.838,1173.23 822.063,1171.86 824.288,1169.13 826.513,1166.4 828.738,1163.7 830.963,1161.01 833.188,1158.33 835.413,1155.66 837.638,1153.01 839.863,1150.38 842.088,1149.06 844.314,1146.45 846.539,1145.15 848.764,1143.85 850.989,1141.26 853.214,1138.68 855.439,1136.12 857.664,1133.57 859.889,1132.3 862.114,1132.3 864.339,1131.03 866.564,1129.77 868.789,1127.25 871.014,1124.75 873.239,1123.5 875.464,1122.25 877.69,1121.01 879.915,1119.77 882.14,1118.54 884.365,1117.3 886.59,1116.07 888.815,1113.62 891.04,1113.62 893.265,1112.4 895.49,1111.18 897.715,1109.97 899.94,1108.76 902.165,1107.55 904.39,1105.14 906.615,1103.94 908.841,1101.54 911.066,1100.35 913.291,1097.97 915.516,1094.43 917.741,1089.74 919.966,1086.26 922.191,1083.95 924.416,1080.5 926.641,1080.5 928.866,1071.42 931.091,1069.18 933.316,1064.72 935.541,1061.4 937.766,1057.01 939.992,1051.57 942.217,1046.19 944.442,1040.87 946.667,1037.7 948.892,1032.47 951.117,1028.32 953.342,1025.23 955.567,1019.11 957.792,1012.06 960.017,1008.07 962.242,1003.14 964.467,999.221 966.692,995.335 968.917,992.44 971.143,990.519 973.368,988.606 975.593,987.652 977.818,983.853 980.043,979.145 982.268,977.274 984.493,973.553 986.718,970.779 988.943,967.105 991.168,964.367 993.393,962.55 995.618,961.644 997.843,960.739 1000.07,959.836 1002.29,957.137 1004.52,954.452 1006.74,951.781 1008.97,949.124 1011.19,946.481 1013.42,943.852 1015.64,942.107 1017.87,939.5 1020.09,936.907 1022.32,931.76 1024.54,929.206 1026.77,925.82 1028.99,924.136 1031.22,921.62 1033.44,919.117 1035.67,916.626 1037.89,914.972 1040.12,912.501 1042.34,909.225 1044.57,906.782 1046.79,903.543 1049.02,901.127 1051.25,897.924 1053.47,893.948 1055.7,889.218 1057.92,885.309 1060.15,881.431 1062.37,878.35 1064.6,873.762 1066.82,869.216 1069.05,866.208 1071.27,863.218 1073.5,858.765 1075.72,853.62 1077.95,848.526 1080.17,843.482 1082.4,837.78 1084.62,832.14 1086.85,826.563 1089.07,821.733 1091.3,816.949 1093.52,811.536 1095.75,806.18 1097.97,800.222 1100.2,793.033 1102.42,786.586 1104.65,779.587 1106.87,774.557 1109.1,769.577 1111.32,764.645 1113.55,764.032 1115.77,760.369 1118,756.129 1120.22,751.326 1122.45,745.976 1124.67,741.268 1126.9,736.603 1129.12,731.981 1131.35,728.542 1133.57,725.694 1135.8,722.297 1138.02,717.803 1140.25,712.242 1142.47,708.384 1144.7,703.468 1146.92,701.84 1149.15,699.677 1151.37,698.061 1153.6,696.45 1155.82,694.844 1158.05,694.844 1160.27,693.243 1162.5,688.471 1164.72,682.699 1166.95,680.096 1169.17,679.059 1171.4,679.059 1173.62,676.991 1175.85,677.508 1178.07,679.059 1180.3,678.024 1182.52,677.508 1184.75,676.991 1186.97,673.393 1189.2,671.348 1191.42,670.328 1193.65,668.296 1195.87,666.777 1198.1,665.262 1200.32,663.25 1202.55,661.746 1204.78,660.246 1207,656.764 1209.23,654.292 1211.45,652.814 1213.68,650.85 1215.9,649.871 1218.13,648.894 1220.35,646.946 1222.58,645.489 1224.8,644.037 1227.03,642.107 1229.25,641.145 1231.48,640.185 1233.7,639.226 1235.93,636.361 1238.15,633.986 1240.38,633.039 1242.6,632.094 1244.83,630.68 1247.05,629.739 1249.28,628.8 1251.5,627.863 1253.73,625.994 1255.95,623.667 1258.18,621.35 1260.4,619.505 1262.63,620.427 1264.85,623.202 1267.08,625.061 1269.3,623.667 1271.53,621.813 1273.75,621.35 1275.98,620.888 1278.2,619.044 1280.43,618.125 1282.65,617.207 1284.88,615.377 1287.1,612.644 1289.33,610.83 1291.55,609.022 1293.78,606.772 1296,605.426 1298.23,603.192 1300.45,601.856 1302.68,599.637 1304.9,597.869 1307.13,596.547 1309.35,594.789 1311.58,593.913 1313.8,592.165 1316.03,591.293 1318.25,589.988 1320.48,586.956 1322.7,585.662 1324.93,583.513 1327.15,581.373 1329.38,579.242 1331.6,577.12 1333.83,575.428 1336.05,573.743 1338.28,572.063 1340.5,569.97 1342.73,568.303 1344.95,565.812 1347.18,562.098 1349.4,559.637 1351.63,558.003 1353.85,556.374 1356.08,556.374 1358.3,555.156 1360.53,552.729 1362.76,550.715 1364.98,549.109 1367.21,544.323 1369.43,542.342 1371.66,539.975 1373.88,538.796 1376.11,538.011 1378.33,534.885 1380.56,532.553 1382.78,528.304 1385.01,524.855 1387.23,521.429 1389.46,520.292 1391.68,518.402 1393.91,516.52 1396.13,516.145 1398.36,516.145 1400.58,515.02 1402.81,513.15 1405.03,511.659 1407.26,510.915 1409.48,509.431 1411.71,507.951 1413.93,507.213 1416.16,505.004 1418.38,503.537 1420.61,503.171 1422.83,502.075 1425.06,500.252 1427.28,499.162 1429.51,498.074 1431.73,496.627 1433.96,495.184 1436.18,494.104 1438.41,493.027 1440.63,490.879 1442.86,489.453 1445.08,488.741 1447.31,486.966 1449.53,485.903 1451.76,485.197 1453.98,483.434 1456.21,482.028 1458.43,481.677 1460.66,480.976 1462.88,479.926 1465.11,479.228 1467.33,477.138 1469.56,475.749 1471.78,474.71 1474.01,474.71 1476.23,473.328 1478.46,471.95 1480.68,471.606 1482.91,470.576 1485.13,469.205 1487.36,467.497 1489.58,465.455 1491.81,464.437 1494.03,464.098 1496.26,462.745 1498.48,461.732 1500.71,460.385 1502.93,459.042 1505.16,458.037 1507.38,456.032 1509.61,455.033 1511.83,454.036 1514.06,453.372 1516.28,452.378 1518.51,451.716 1520.74,450.396 1522.96,449.737 1525.19,449.079 1527.41,446.455 1529.64,445.474 1531.86,443.844 1534.09,441.895 1536.31,440.923 1538.54,439.953 1540.76,438.985 1542.99,438.341 1545.21,436.734 1547.44,435.132 1549.66,433.534 1551.89,432.26 1554.11,431.307 1556.34,430.355 1558.56,430.039 1560.79,429.722 1563.01,429.722 1565.24,428.773 1567.46,428.142 1569.69,426.881 1571.91,425.624 1574.14,424.683 1576.36,424.056 1578.59,423.743 1580.81,423.118 1583.04,423.118 1585.26,423.118 1587.49,422.494 1589.71,421.247 1591.94,420.625 1594.16,419.383 1596.39,418.763 1598.61,418.453 1600.84,417.217 1603.06,416.6 1605.29,415.675 1607.51,414.752 1609.74,414.752 1611.96,414.445 1614.19,411.078 1616.41,410.773 1618.64,410.773 1620.86,408.644 1623.09,407.431 1625.31,405.315 1627.54,404.411 1629.76,403.508 1631.99,402.308 1634.21,400.811 1636.44,398.722 1638.66,395.754 1640.89,396.05 1643.11,395.162 1645.34,392.215 1647.56,390.747 1649.79,390.747 1652.01,388.116 1654.24,387.243 1656.46,386.37 1658.69,385.209 1660.91,382.319 1663.14,381.167 1665.36,380.88 1667.59,380.018 1669.81,377.443 1672.04,376.302 1674.26,377.157 1676.49,377.157 1678.72,375.164 1680.94,376.587 1683.17,376.872 1685.39,377.157 1687.62,376.302 1689.84,375.448 1692.07,374.029 1694.29,371.765 1696.52,371.201 1698.74,370.919 1700.97,369.793 1703.19,368.389 1705.42,367.549 1707.64,366.43 1709.87,365.593 1712.09,364.757 1714.32,362.535 1716.54,359.771 1718.77,358.945 1720.99,360.875 1723.22,361.704 1725.44,361.151 1727.67,359.495 1729.89,357.296 1732.12,355.653 1734.34,356.2 1736.57,355.926 1738.79,354.56 1741.02,352.382 1743.24,351.297 1745.47,350.214 1747.69,349.403 1749.92,347.247 1752.14,345.368 1754.37,344.832 1756.59,344.565 1758.82,342.962 1761.04,340.302 1763.27,337.921 1765.49,337.921 1767.72,338.185 1769.94,336.076 1772.17,334.238 1774.39,332.668 1776.62,332.929 1778.84,332.668 1781.07,329.542 1783.29,326.435 1785.52,319.514 1787.74,318.751 1789.97,321.3 1792.19,321.3 1794.42,318.243 1796.64,317.989 1798.87,317.228 1801.09,314.7 1803.32,313.189 1805.54,311.934 1807.77,309.183 1809.99,306.943 1812.22,309.432 1814.44,311.683 1816.67,311.433 1818.89,308.684 1821.12,307.845 1823.34,305.886 1825.57,303.261 1827.79,301.744 1830.02,299.657 1832.25,298.486 1834.47,297.585 1836.7,297.429 1838.92,295.289 1841.15,293.731 1843.37,289.769 1845.6,288.304 1847.82,286.562 1850.05,285.34 1852.27,283.533 1854.5,282.363 1856.72,279.376 1858.95,274.101 1861.17,270.499 1863.4,271.253 1865.62,270.821 1867.85,275.191 1870.07,284.233 1872.3,288.417 1874.52,287.138 1876.75,285.297 1878.97,285.797 1881.2,285.288 1883.42,284.544 1885.65,280.36 1887.87,280.511 1890.1,278.819 1892.32,277.843 1894.55,276.326 1896.77,274.634 1899,274.371 1901.22,274.043 1903.45,274.525 1905.67,274.357 1907.9,274.24 1910.12,274.504 1912.35,274.716 1914.57,273.77 1916.8,273.031 1919.02,272.214 1921.25,270.455 1923.47,269.175 1925.7,267.146 1927.92,265.507 1930.15,263.883 1932.37,261.271 1934.6,258.901 1936.82,257.293 1939.05,257.293 1941.27,255.969 1943.5,254.375 1945.72,253.277 1947.95,252.935 1950.17,252.001 1952.4,251.881 1954.62,250.504 1956.85,249.423 1959.07,248.365 1961.3,247.525 1963.52,248.573 1965.75,248.991 1967.97,248.845 1970.2,245.913 1972.42,243.504 1974.65,242.141 1976.87,242.992 1979.1,243.053 1981.32,242.051 1983.55,239.311 1985.77,240.736 1988,241.794 1990.23,241.584 1992.45,240.381 1994.68,239.391 1996.9,238.184 1999.13,237.993 2001.35,237.723 2003.58,236.79 2005.8,235.453 2008.03,234.228 2010.25,233.671 2012.48,232.639 2014.7,231.696 2016.93,230.734 2019.15,230.066 2021.38,229.496 2023.6,229.577 2025.83,229.541 2028.05,229.641 2030.28,230.595 2032.5,232.159 2034.73,235.393 2036.95,234.112 2039.18,232.75 2041.4,232.223 2043.63,230.557 2045.85,229.158 2048.08,228.355 2050.3,228.358 2052.53,229.496 2054.75,228.996 2056.98,228.392 2059.2,228.936 2061.43,229.168 2063.65,229.842 2065.88,228.258 2068.1,226.323 2070.33,225.128 2072.55,223.724 2074.78,223.979 2077,223.044 2079.23,221.719 2081.45,220.534 2083.68,219.938 2085.9,218.662 2088.13,216.62 2090.35,215.814 2092.58,216.051 2094.8,215.426 2097.03,215.818 2099.25,215.489 2101.48,215.323 2103.7,213.379 2105.93,210.801 2108.15,210.409 2110.38,209.06 2112.6,207.995 2114.83,205.847 2117.05,204.486 2119.28,204.389 2121.5,203.072 2123.73,201.931 2125.95,201.475 2128.18,201.08 2130.4,200.176 2132.63,199.133 2134.85,197.951 2137.08,198.307 2139.3,197.961 2141.53,198.373 2143.75,196.857 2145.98,194.946 2148.21,193.047 2150.43,192.922 2152.66,193.087 2154.88,191.92 2157.11,191.457 2159.33,190.679 2161.56,189.25 2163.78,187.827 2166.01,186.355 2168.23,185.815 2170.46,185.151 2172.68,187.296 2174.91,191.279 2177.13,191.829 2179.36,189.547 2181.58,186.79 2183.81,184.917 2186.03,183.777 2188.26,183.197 2190.48,181.942 2192.71,179.793 2194.93,178.803 2197.16,176.754 2199.38,174.213 2201.61,170.706 2203.83,167.49 2206.06,163.337 2208.28,160.856 2210.51,159.379 2212.73,157.346 2214.96,152.661 2217.18,148.35 2219.41,144.716 2221.63,141.872 2223.86,138.042 2226.08,132.702 2228.31,130.575 2230.53,126.047 2232.76,119.769 2234.98,119.801 2237.21,119.403 2239.43,117.466 2241.66,114.874 2243.88,113.542 2246.11,113.264 2248.33,110.655 2250.56,108.716 2252.78,108.322 2255.01,106.166 2257.23,105.61 2259.46,104.547 2261.68,103.507 2263.91,100.924 2266.13,99.1072 2268.36,98.7072 2270.58,97.8965 2272.81,96.7181 2275.03,95.1746 2277.26,92.9422 2279.48,91.0323 2281.71,89.4511 2283.93,89.422 2286.16,89.7065 2288.38,88.9229 2290.61,87.9763 "></polyline>
<path clip-path="url(#clip130)" d="M230.117 198.898 L502.13 198.898 L502.13 95.2176 L230.117 95.2176  Z" fill="#ffffff" fill-rule="evenodd" fill-opacity="1"></path>
<polyline clip-path="url(#clip130)" style="stroke:#000000; stroke-linecap:round; stroke-linejoin:round; stroke-width:4; stroke-opacity:1; fill:none" points="230.117,198.898 502.13,198.898 502.13,95.2176 230.117,95.2176 230.117,198.898 "></polyline>
<polyline clip-path="url(#clip130)" style="stroke:#009af9; stroke-linecap:round; stroke-linejoin:round; stroke-width:4; stroke-opacity:1; fill:none" points="254.515,147.058 400.904,147.058 "></polyline>
<path clip-path="url(#clip130)" d="M439.144 166.745 Q437.339 171.375 435.626 172.787 Q433.913 174.199 431.043 174.199 L427.64 174.199 L427.64 170.634 L430.14 170.634 Q431.899 170.634 432.871 169.8 Q433.844 168.967 435.024 165.865 L435.788 163.921 L425.302 138.412 L429.816 138.412 L437.918 158.689 L446.019 138.412 L450.533 138.412 L439.144 166.745 Z" fill="#000000" fill-rule="nonzero" fill-opacity="1"></path><path clip-path="url(#clip130)" d="M457.825 160.402 L465.464 160.402 L465.464 134.037 L457.154 135.703 L457.154 131.444 L465.417 129.778 L470.093 129.778 L470.093 160.402 L477.732 160.402 L477.732 164.338 L457.825 164.338 L457.825 160.402 Z" fill="#000000" fill-rule="nonzero" fill-opacity="1"></path></svg>