<svg xmlns="http://www.w3.org/2000/svg" xmlns:xlink="http://www.w3.org/1999/xlink" width="600" height="400" viewBox="0 0 2400 1600">
<defs>
  <clipPath id="clip750">
    <rect x="0" y="0" width="2400" height="1600"></rect>
  </clipPath>
</defs>
<path clip-path="url(#clip750)" d="M0 1600 L2400 1600 L2400 8.88178e-14 L0 8.88178e-14  Z" fill="#ffffff" fill-rule="evenodd" fill-opacity="1"></path>
<defs>
  <clipPath id="clip751">
    <rect x="480" y="0" width="1681" height="1600"></rect>
  </clipPath>
</defs>
<path clip-path="url(#clip750)" d="M178.867 1486.45 L2352.76 1486.45 L2352.76 47.2441 L178.867 47.2441  Z" fill="#ffffff" fill-rule="evenodd" fill-opacity="1"></path>
<defs>
  <clipPath id="clip752">
    <rect x="178" y="47" width="2175" height="1440"></rect>
  </clipPath>
</defs>
<polyline clip-path="url(#clip752)" style="stroke:#000000; stroke-linecap:round; stroke-linejoin:round; stroke-width:2; stroke-opacity:0.1; fill:none" points="230.086,1486.45 230.086,47.2441 "></polyline>
<polyline clip-path="url(#clip752)" style="stroke:#000000; stroke-linecap:round; stroke-linejoin:round; stroke-width:2; stroke-opacity:0.1; fill:none" points="745.372,1486.45 745.372,47.2441 "></polyline>
<polyline clip-path="url(#clip752)" style="stroke:#000000; stroke-linecap:round; stroke-linejoin:round; stroke-width:2; stroke-opacity:0.1; fill:none" points="1260.66,1486.45 1260.66,47.2441 "></polyline>
<polyline clip-path="url(#clip752)" style="stroke:#000000; stroke-linecap:round; stroke-linejoin:round; stroke-width:2; stroke-opacity:0.1; fill:none" points="1775.94,1486.45 1775.94,47.2441 "></polyline>
<polyline clip-path="url(#clip752)" style="stroke:#000000; stroke-linecap:round; stroke-linejoin:round; stroke-width:2; stroke-opacity:0.1; fill:none" points="2291.23,1486.45 2291.23,47.2441 "></polyline>
<polyline clip-path="url(#clip752)" style="stroke:#000000; stroke-linecap:round; stroke-linejoin:round; stroke-width:2; stroke-opacity:0.1; fill:none" points="178.867,1241.33 2352.76,1241.33 "></polyline>
<polyline clip-path="url(#clip752)" style="stroke:#000000; stroke-linecap:round; stroke-linejoin:round; stroke-width:2; stroke-opacity:0.1; fill:none" points="178.867,934.82 2352.76,934.82 "></polyline>
<polyline clip-path="url(#clip752)" style="stroke:#000000; stroke-linecap:round; stroke-linejoin:round; stroke-width:2; stroke-opacity:0.1; fill:none" points="178.867,628.313 2352.76,628.313 "></polyline>
<polyline clip-path="url(#clip752)" style="stroke:#000000; stroke-linecap:round; stroke-linejoin:round; stroke-width:2; stroke-opacity:0.1; fill:none" points="178.867,321.806 2352.76,321.806 "></polyline>
<polyline clip-path="url(#clip750)" style="stroke:#000000; stroke-linecap:round; stroke-linejoin:round; stroke-width:4; stroke-opacity:1; fill:none" points="178.867,1486.45 2352.76,1486.45 "></polyline>
<polyline clip-path="url(#clip750)" style="stroke:#000000; stroke-linecap:round; stroke-linejoin:round; stroke-width:4; stroke-opacity:1; fill:none" points="230.086,1486.45 230.086,1467.55 "></polyline>
<polyline clip-path="url(#clip750)" style="stroke:#000000; stroke-linecap:round; stroke-linejoin:round; stroke-width:4; stroke-opacity:1; fill:none" points="745.372,1486.45 745.372,1467.55 "></polyline>
<polyline clip-path="url(#clip750)" style="stroke:#000000; stroke-linecap:round; stroke-linejoin:round; stroke-width:4; stroke-opacity:1; fill:none" points="1260.66,1486.45 1260.66,1467.55 "></polyline>
<polyline clip-path="url(#clip750)" style="stroke:#000000; stroke-linecap:round; stroke-linejoin:round; stroke-width:4; stroke-opacity:1; fill:none" points="1775.94,1486.45 1775.94,1467.55 "></polyline>
<polyline clip-path="url(#clip750)" style="stroke:#000000; stroke-linecap:round; stroke-linejoin:round; stroke-width:4; stroke-opacity:1; fill:none" points="2291.23,1486.45 2291.23,1467.55 "></polyline>
<path clip-path="url(#clip750)" d="M230.086 1517.37 Q226.475 1517.37 224.646 1520.93 Q222.841 1524.47 222.841 1531.6 Q222.841 1538.71 224.646 1542.27 Q226.475 1545.82 230.086 1545.82 Q233.72 1545.82 235.526 1542.27 Q237.355 1538.71 237.355 1531.6 Q237.355 1524.47 235.526 1520.93 Q233.72 1517.37 230.086 1517.37 M230.086 1513.66 Q235.896 1513.66 238.952 1518.27 Q242.03 1522.85 242.03 1531.6 Q242.03 1540.33 238.952 1544.94 Q235.896 1549.52 230.086 1549.52 Q224.276 1549.52 221.197 1544.94 Q218.142 1540.33 218.142 1531.6 Q218.142 1522.85 221.197 1518.27 Q224.276 1513.66 230.086 1513.66 Z" fill="#000000" fill-rule="nonzero" fill-opacity="1"></path><path clip-path="url(#clip750)" d="M720.071 1514.29 L738.428 1514.29 L738.428 1518.22 L724.354 1518.22 L724.354 1526.7 Q725.372 1526.35 726.391 1526.19 Q727.409 1526 728.428 1526 Q734.215 1526 737.595 1529.17 Q740.974 1532.34 740.974 1537.76 Q740.974 1543.34 737.502 1546.44 Q734.03 1549.52 727.71 1549.52 Q725.534 1549.52 723.266 1549.15 Q721.021 1548.78 718.613 1548.04 L718.613 1543.34 Q720.696 1544.47 722.919 1545.03 Q725.141 1545.58 727.618 1545.58 Q731.622 1545.58 733.96 1543.48 Q736.298 1541.37 736.298 1537.76 Q736.298 1534.15 733.96 1532.04 Q731.622 1529.94 727.618 1529.94 Q725.743 1529.94 723.868 1530.35 Q722.016 1530.77 720.071 1531.65 L720.071 1514.29 Z" fill="#000000" fill-rule="nonzero" fill-opacity="1"></path><path clip-path="url(#clip750)" d="M760.187 1517.37 Q756.576 1517.37 754.747 1520.93 Q752.942 1524.47 752.942 1531.6 Q752.942 1538.71 754.747 1542.27 Q756.576 1545.82 760.187 1545.82 Q763.821 1545.82 765.627 1542.27 Q767.455 1538.71 767.455 1531.6 Q767.455 1524.47 765.627 1520.93 Q763.821 1517.37 760.187 1517.37 M760.187 1513.66 Q765.997 1513.66 769.053 1518.27 Q772.131 1522.85 772.131 1531.6 Q772.131 1540.33 769.053 1544.94 Q765.997 1549.52 760.187 1549.52 Q754.377 1549.52 751.298 1544.94 Q748.243 1540.33 748.243 1531.6 Q748.243 1522.85 751.298 1518.27 Q754.377 1513.66 760.187 1513.66 Z" fill="#000000" fill-rule="nonzero" fill-opacity="1"></path><path clip-path="url(#clip750)" d="M1220.27 1544.91 L1227.9 1544.91 L1227.9 1518.55 L1219.59 1520.21 L1219.59 1515.95 L1227.86 1514.29 L1232.53 1514.29 L1232.53 1544.91 L1240.17 1544.91 L1240.17 1548.85 L1220.27 1548.85 L1220.27 1544.91 Z" fill="#000000" fill-rule="nonzero" fill-opacity="1"></path><path clip-path="url(#clip750)" d="M1259.62 1517.37 Q1256.01 1517.37 1254.18 1520.93 Q1252.37 1524.47 1252.37 1531.6 Q1252.37 1538.71 1254.18 1542.27 Q1256.01 1545.82 1259.62 1545.82 Q1263.25 1545.82 1265.06 1542.27 Q1266.89 1538.71 1266.89 1531.6 Q1266.89 1524.47 1265.06 1520.93 Q1263.25 1517.37 1259.62 1517.37 M1259.62 1513.66 Q1265.43 1513.66 1268.48 1518.27 Q1271.56 1522.85 1271.56 1531.6 Q1271.56 1540.33 1268.48 1544.94 Q1265.43 1549.52 1259.62 1549.52 Q1253.81 1549.52 1250.73 1544.94 Q1247.67 1540.33 1247.67 1531.6 Q1247.67 1522.85 1250.73 1518.27 Q1253.81 1513.66 1259.62 1513.66 Z" fill="#000000" fill-rule="nonzero" fill-opacity="1"></path><path clip-path="url(#clip750)" d="M1289.78 1517.37 Q1286.17 1517.37 1284.34 1520.93 Q1282.53 1524.47 1282.53 1531.6 Q1282.53 1538.71 1284.34 1542.27 Q1286.17 1545.82 1289.78 1545.82 Q1293.41 1545.82 1295.22 1542.27 Q1297.05 1538.71 1297.05 1531.6 Q1297.05 1524.47 1295.22 1520.93 Q1293.41 1517.37 1289.78 1517.37 M1289.78 1513.66 Q1295.59 1513.66 1298.64 1518.27 Q1301.72 1522.85 1301.72 1531.6 Q1301.72 1540.33 1298.64 1544.94 Q1295.59 1549.52 1289.78 1549.52 Q1283.97 1549.52 1280.89 1544.94 Q1277.83 1540.33 1277.83 1531.6 Q1277.83 1522.85 1280.89 1518.27 Q1283.97 1513.66 1289.78 1513.66 Z" fill="#000000" fill-rule="nonzero" fill-opacity="1"></path><path clip-path="url(#clip750)" d="M1735.55 1544.91 L1743.19 1544.91 L1743.19 1518.55 L1734.88 1520.21 L1734.88 1515.95 L1743.14 1514.29 L1747.82 1514.29 L1747.82 1544.91 L1755.46 1544.91 L1755.46 1548.85 L1735.55 1548.85 L1735.55 1544.91 Z" fill="#000000" fill-rule="nonzero" fill-opacity="1"></path><path clip-path="url(#clip750)" d="M1764.95 1514.29 L1783.31 1514.29 L1783.31 1518.22 L1769.23 1518.22 L1769.23 1526.7 Q1770.25 1526.35 1771.27 1526.19 Q1772.29 1526 1773.31 1526 Q1779.09 1526 1782.47 1529.17 Q1785.85 1532.34 1785.85 1537.76 Q1785.85 1543.34 1782.38 1546.44 Q1778.91 1549.52 1772.59 1549.52 Q1770.41 1549.52 1768.14 1549.15 Q1765.9 1548.78 1763.49 1548.04 L1763.49 1543.34 Q1765.57 1544.47 1767.8 1545.03 Q1770.02 1545.58 1772.5 1545.58 Q1776.5 1545.58 1778.84 1543.48 Q1781.18 1541.37 1781.18 1537.76 Q1781.18 1534.15 1778.84 1532.04 Q1776.5 1529.94 1772.5 1529.94 Q1770.62 1529.94 1768.75 1530.35 Q1766.89 1530.77 1764.95 1531.65 L1764.95 1514.29 Z" fill="#000000" fill-rule="nonzero" fill-opacity="1"></path><path clip-path="url(#clip750)" d="M1805.06 1517.37 Q1801.45 1517.37 1799.63 1520.93 Q1797.82 1524.47 1797.82 1531.6 Q1797.82 1538.71 1799.63 1542.27 Q1801.45 1545.82 1805.06 1545.82 Q1808.7 1545.82 1810.5 1542.27 Q1812.33 1538.71 1812.33 1531.6 Q1812.33 1524.47 1810.5 1520.93 Q1808.7 1517.37 1805.06 1517.37 M1805.06 1513.66 Q1810.87 1513.66 1813.93 1518.27 Q1817.01 1522.85 1817.01 1531.6 Q1817.01 1540.33 1813.93 1544.94 Q1810.87 1549.52 1805.06 1549.52 Q1799.25 1549.52 1796.18 1544.94 Q1793.12 1540.33 1793.12 1531.6 Q1793.12 1522.85 1796.18 1518.27 Q1799.25 1513.66 1805.06 1513.66 Z" fill="#000000" fill-rule="nonzero" fill-opacity="1"></path><path clip-path="url(#clip750)" d="M2254.92 1544.91 L2271.24 1544.91 L2271.24 1548.85 L2249.3 1548.85 L2249.3 1544.91 Q2251.96 1542.16 2256.54 1537.53 Q2261.15 1532.88 2262.33 1531.53 Q2264.58 1529.01 2265.46 1527.27 Q2266.36 1525.51 2266.36 1523.82 Q2266.36 1521.07 2264.41 1519.33 Q2262.49 1517.6 2259.39 1517.6 Q2257.19 1517.6 2254.74 1518.36 Q2252.31 1519.13 2249.53 1520.68 L2249.53 1515.95 Q2252.35 1514.82 2254.81 1514.24 Q2257.26 1513.66 2259.3 1513.66 Q2264.67 1513.66 2267.86 1516.35 Q2271.06 1519.03 2271.06 1523.52 Q2271.06 1525.65 2270.25 1527.57 Q2269.46 1529.47 2267.35 1532.07 Q2266.77 1532.74 2263.67 1535.95 Q2260.57 1539.15 2254.92 1544.91 Z" fill="#000000" fill-rule="nonzero" fill-opacity="1"></path><path clip-path="url(#clip750)" d="M2291.06 1517.37 Q2287.45 1517.37 2285.62 1520.93 Q2283.81 1524.47 2283.81 1531.6 Q2283.81 1538.71 2285.62 1542.27 Q2287.45 1545.82 2291.06 1545.82 Q2294.69 1545.82 2296.5 1542.27 Q2298.33 1538.71 2298.33 1531.6 Q2298.33 1524.47 2296.5 1520.93 Q2294.69 1517.37 2291.06 1517.37 M2291.06 1513.66 Q2296.87 1513.66 2299.92 1518.27 Q2303 1522.85 2303 1531.6 Q2303 1540.33 2299.92 1544.94 Q2296.87 1549.52 2291.06 1549.52 Q2285.25 1549.52 2282.17 1544.94 Q2279.11 1540.33 2279.11 1531.6 Q2279.11 1522.85 2282.17 1518.27 Q2285.25 1513.66 2291.06 1513.66 Z" fill="#000000" fill-rule="nonzero" fill-opacity="1"></path><path clip-path="url(#clip750)" d="M2321.22 1517.37 Q2317.61 1517.37 2315.78 1520.93 Q2313.97 1524.47 2313.97 1531.6 Q2313.97 1538.71 2315.78 1542.27 Q2317.61 1545.82 2321.22 1545.82 Q2324.85 1545.82 2326.66 1542.27 Q2328.49 1538.71 2328.49 1531.6 Q2328.49 1524.47 2326.66 1520.93 Q2324.85 1517.37 2321.22 1517.37 M2321.22 1513.66 Q2327.03 1513.66 2330.08 1518.27 Q2333.16 1522.85 2333.16 1531.6 Q2333.16 1540.33 2330.08 1544.94 Q2327.03 1549.52 2321.22 1549.52 Q2315.41 1549.52 2312.33 1544.94 Q2309.27 1540.33 2309.27 1531.6 Q2309.27 1522.85 2312.33 1518.27 Q2315.41 1513.66 2321.22 1513.66 Z" fill="#000000" fill-rule="nonzero" fill-opacity="1"></path><polyline clip-path="url(#clip750)" style="stroke:#000000; stroke-linecap:round; stroke-linejoin:round; stroke-width:4; stroke-opacity:1; fill:none" points="178.867,1486.45 178.867,47.2441 "></polyline>
<polyline clip-path="url(#clip750)" style="stroke:#000000; stroke-linecap:round; stroke-linejoin:round; stroke-width:4; stroke-opacity:1; fill:none" points="178.867,1241.33 197.764,1241.33 "></polyline>
<polyline clip-path="url(#clip750)" style="stroke:#000000; stroke-linecap:round; stroke-linejoin:round; stroke-width:4; stroke-opacity:1; fill:none" points="178.867,934.82 197.764,934.82 "></polyline>
<polyline clip-path="url(#clip750)" style="stroke:#000000; stroke-linecap:round; stroke-linejoin:round; stroke-width:4; stroke-opacity:1; fill:none" points="178.867,628.313 197.764,628.313 "></polyline>
<polyline clip-path="url(#clip750)" style="stroke:#000000; stroke-linecap:round; stroke-linejoin:round; stroke-width:4; stroke-opacity:1; fill:none" points="178.867,321.806 197.764,321.806 "></polyline>
<path clip-path="url(#clip750)" d="M50.9921 1241.78 L80.6679 1241.78 L80.6679 1245.71 L50.9921 1245.71 L50.9921 1241.78 Z" fill="#000000" fill-rule="nonzero" fill-opacity="1"></path><path clip-path="url(#clip750)" d="M90.8067 1224.05 L109.163 1224.05 L109.163 1227.98 L95.0891 1227.98 L95.0891 1236.45 Q96.1076 1236.11 97.1261 1235.94 Q98.1447 1235.76 99.1632 1235.76 Q104.95 1235.76 108.33 1238.93 Q111.709 1242.1 111.709 1247.52 Q111.709 1253.1 108.237 1256.2 Q104.765 1259.28 98.4456 1259.28 Q96.2697 1259.28 94.0012 1258.91 Q91.7558 1258.54 89.3484 1257.8 L89.3484 1253.1 Q91.4317 1254.23 93.6539 1254.79 Q95.8761 1255.34 98.353 1255.34 Q102.358 1255.34 104.696 1253.24 Q107.033 1251.13 107.033 1247.52 Q107.033 1243.91 104.696 1241.8 Q102.358 1239.69 98.353 1239.69 Q96.478 1239.69 94.603 1240.11 Q92.7512 1240.53 90.8067 1241.41 L90.8067 1224.05 Z" fill="#000000" fill-rule="nonzero" fill-opacity="1"></path><path clip-path="url(#clip750)" d="M130.922 1227.13 Q127.311 1227.13 125.482 1230.69 Q123.677 1234.23 123.677 1241.36 Q123.677 1248.47 125.482 1252.03 Q127.311 1255.57 130.922 1255.57 Q134.556 1255.57 136.362 1252.03 Q138.191 1248.47 138.191 1241.36 Q138.191 1234.23 136.362 1230.69 Q134.556 1227.13 130.922 1227.13 M130.922 1223.42 Q136.732 1223.42 139.788 1228.03 Q142.867 1232.61 142.867 1241.36 Q142.867 1250.09 139.788 1254.69 Q136.732 1259.28 130.922 1259.28 Q125.112 1259.28 122.033 1254.69 Q118.978 1250.09 118.978 1241.36 Q118.978 1232.61 122.033 1228.03 Q125.112 1223.42 130.922 1223.42 Z" fill="#000000" fill-rule="nonzero" fill-opacity="1"></path><path clip-path="url(#clip750)" d="M130.922 920.618 Q127.311 920.618 125.482 924.183 Q123.677 927.725 123.677 934.854 Q123.677 941.961 125.482 945.526 Q127.311 949.067 130.922 949.067 Q134.556 949.067 136.362 945.526 Q138.191 941.961 138.191 934.854 Q138.191 927.725 136.362 924.183 Q134.556 920.618 130.922 920.618 M130.922 916.915 Q136.732 916.915 139.788 921.521 Q142.867 926.105 142.867 934.854 Q142.867 943.581 139.788 948.188 Q136.732 952.771 130.922 952.771 Q125.112 952.771 122.033 948.188 Q118.978 943.581 118.978 934.854 Q118.978 926.105 122.033 921.521 Q125.112 916.915 130.922 916.915 Z" fill="#000000" fill-rule="nonzero" fill-opacity="1"></path><path clip-path="url(#clip750)" d="M90.8067 611.033 L109.163 611.033 L109.163 614.968 L95.0891 614.968 L95.0891 623.44 Q96.1076 623.093 97.1261 622.931 Q98.1447 622.746 99.1632 622.746 Q104.95 622.746 108.33 625.917 Q111.709 629.088 111.709 634.505 Q111.709 640.084 108.237 643.186 Q104.765 646.264 98.4456 646.264 Q96.2697 646.264 94.0012 645.894 Q91.7558 645.523 89.3484 644.783 L89.3484 640.084 Q91.4317 641.218 93.6539 641.773 Q95.8761 642.329 98.353 642.329 Q102.358 642.329 104.696 640.223 Q107.033 638.116 107.033 634.505 Q107.033 630.894 104.696 628.787 Q102.358 626.681 98.353 626.681 Q96.478 626.681 94.603 627.098 Q92.7512 627.514 90.8067 628.394 L90.8067 611.033 Z" fill="#000000" fill-rule="nonzero" fill-opacity="1"></path><path clip-path="url(#clip750)" d="M130.922 614.112 Q127.311 614.112 125.482 617.676 Q123.677 621.218 123.677 628.348 Q123.677 635.454 125.482 639.019 Q127.311 642.561 130.922 642.561 Q134.556 642.561 136.362 639.019 Q138.191 635.454 138.191 628.348 Q138.191 621.218 136.362 617.676 Q134.556 614.112 130.922 614.112 M130.922 610.408 Q136.732 610.408 139.788 615.014 Q142.867 619.598 142.867 628.348 Q142.867 637.074 139.788 641.681 Q136.732 646.264 130.922 646.264 Q125.112 646.264 122.033 641.681 Q118.978 637.074 118.978 628.348 Q118.978 619.598 122.033 615.014 Q125.112 610.408 130.922 610.408 Z" fill="#000000" fill-rule="nonzero" fill-opacity="1"></path><path clip-path="url(#clip750)" d="M61.4087 335.151 L69.0476 335.151 L69.0476 308.785 L60.7374 310.452 L60.7374 306.193 L69.0013 304.526 L73.6772 304.526 L73.6772 335.151 L81.316 335.151 L81.316 339.086 L61.4087 339.086 L61.4087 335.151 Z" fill="#000000" fill-rule="nonzero" fill-opacity="1"></path><path clip-path="url(#clip750)" d="M100.76 307.605 Q97.1493 307.605 95.3206 311.17 Q93.515 314.711 93.515 321.841 Q93.515 328.947 95.3206 332.512 Q97.1493 336.054 100.76 336.054 Q104.395 336.054 106.2 332.512 Q108.029 328.947 108.029 321.841 Q108.029 314.711 106.2 311.17 Q104.395 307.605 100.76 307.605 M100.76 303.901 Q106.571 303.901 109.626 308.508 Q112.705 313.091 112.705 321.841 Q112.705 330.568 109.626 335.174 Q106.571 339.757 100.76 339.757 Q94.9502 339.757 91.8715 335.174 Q88.816 330.568 88.816 321.841 Q88.816 313.091 91.8715 308.508 Q94.9502 303.901 100.76 303.901 Z" fill="#000000" fill-rule="nonzero" fill-opacity="1"></path><path clip-path="url(#clip750)" d="M130.922 307.605 Q127.311 307.605 125.482 311.17 Q123.677 314.711 123.677 321.841 Q123.677 328.947 125.482 332.512 Q127.311 336.054 130.922 336.054 Q134.556 336.054 136.362 332.512 Q138.191 328.947 138.191 321.841 Q138.191 314.711 136.362 311.17 Q134.556 307.605 130.922 307.605 M130.922 303.901 Q136.732 303.901 139.788 308.508 Q142.867 313.091 142.867 321.841 Q142.867 330.568 139.788 335.174 Q136.732 339.757 130.922 339.757 Q125.112 339.757 122.033 335.174 Q118.978 330.568 118.978 321.841 Q118.978 313.091 122.033 308.508 Q125.112 303.901 130.922 303.901 Z" fill="#000000" fill-rule="nonzero" fill-opacity="1"></path><polyline clip-path="url(#clip752)" style="stroke:#009af9; stroke-linecap:round; stroke-linejoin:round; stroke-width:4; stroke-opacity:1; fill:none" points="240.392,1026.66 250.698,941.603 261.003,928.616 271.309,901.412 281.615,930.502 291.92,938.597 302.226,931.694 312.532,962.235 322.838,932.869 333.143,966.696 343.449,1044.96 353.755,1125.23 364.06,1149.11 374.366,1091.87 384.672,1110.66 394.978,1129.4 405.283,1184.66 415.589,1103.92 425.895,1143.16 436.201,1278.12 446.506,1274.1 456.812,1281.81 467.118,1323.3 477.423,1309.92 487.729,1337.89 498.035,1276.21 508.341,1252.51 518.646,1331.24 528.952,1272.82 539.258,1315.51 549.564,1445.72 559.869,1393.86 570.175,1411.23 580.481,1297.18 590.786,1298.49 601.092,1276.75 611.398,1284.91 621.704,1318.31 632.009,1230.24 642.315,1137.01 652.621,1024.88 662.926,1047.4 673.232,1076.91 683.538,1096.11 693.844,1091.33 704.149,1159.1 714.455,1183.47 724.761,1068.05 735.067,1052.8 745.372,1018.04 755.678,978.691 765.984,1016.69 776.289,978.52 786.595,884.551 796.901,866.381 807.207,947.797 817.512,971.465 827.818,969.044 838.124,920.048 848.429,983.023 858.735,998.246 869.041,924.087 879.347,931.235 889.652,821.343 899.958,790.4 910.264,786.903 920.57,695.172 930.875,717.196 941.181,641.407 951.487,712.418 961.792,670.213 972.098,639.775 982.404,640.068 992.71,645.374 1003.02,658.149 1013.32,737.382 1023.63,747.815 1033.93,838.118 1044.24,843.337 1054.54,824.806 1064.85,869.108 1075.16,942.978 1085.46,990.269 1095.77,979.271 1106.07,959.428 1116.38,899.109 1126.68,841.916 1136.99,849.756 1147.3,896.97 1157.6,913.268 1167.91,837.828 1178.21,831.613 1188.52,913.179 1198.82,977.904 1209.13,933.106 1219.44,992.547 1229.74,1042.43 1240.05,1048.69 1250.35,998.862 1260.66,1043.32 1270.96,1059.08 1281.27,1149.47 1291.58,1159.1 1301.88,1150.42 1312.19,1242.31 1322.49,1266.19 1332.8,1250.56 1343.1,1222.39 1353.41,1120.87 1363.72,1057.5 1374.02,972.44 1384.33,1038.12 1394.63,1083.75 1404.94,1141.88 1415.24,1168.47 1425.55,1177.03 1435.86,1250.74 1446.16,1283.12 1456.47,1293.54 1466.77,1305.65 1477.08,1366.42 1487.38,1327.75 1497.69,1261.71 1508,1249.28 1518.3,1213.08 1528.61,1376.11 1538.91,1337.71 1549.22,1325.5 1559.52,1308.62 1569.83,1219.62 1580.14,1289.76 1590.44,1286.16 1600.75,1231.23 1611.05,1140.29 1621.36,1001 1631.66,1044.17 1641.97,1031.31 1652.28,1050.39 1662.58,900.098 1672.89,841.044 1683.19,798.449 1693.5,790.013 1703.8,815.883 1714.11,902.022 1724.42,969.989 1734.72,970.645 1745.03,1029.05 1755.33,1014.26 1765.64,1032.9 1775.94,1005.84 1786.25,957.773 1796.56,850.947 1806.86,885.164 1817.17,873.755 1827.47,951.734 1837.78,891.804 1848.08,913.159 1858.39,901.003 1868.7,866.032 1879,981.218 1889.31,982.234 1899.61,1055.1 1909.92,1110.96 1920.22,1002.49 1930.53,938.335 1940.84,961.375 1951.14,766.756 1961.45,734.418 1971.75,677.941 1982.06,635.919 1992.36,692.266 2002.67,663.91 2012.98,606.647 2023.28,668.469 2033.59,638.322 2043.89,583.03 2054.2,613.889 2064.5,583.194 2074.81,530.119 2085.12,476.165 2095.42,374.612 2105.73,426.011 2116.03,372.012 2126.34,408.734 2136.64,361.55 2146.95,334.3 2157.26,215.818 2167.56,138.127 2177.87,158.538 2188.17,87.9763 2198.48,88.7392 2208.78,201.733 2219.09,220.399 2229.4,210.639 2239.7,340.785 2250.01,322.391 2260.31,256.51 2270.62,294.667 2280.93,252.841 2291.23,130.223 "></polyline>
<polyline clip-path="url(#clip752)" style="stroke:#e26f46; stroke-linecap:round; stroke-linejoin:round; stroke-width:4; stroke-opacity:1; fill:none" points="-1995.02,1338.61 4526.65,1338.61 "></polyline>
<polyline clip-path="url(#clip752)" style="stroke:#3da44d; stroke-linecap:round; stroke-linejoin:round; stroke-width:4; stroke-opacity:1; fill:none" points="-1995.02,200.653 4526.65,200.653 "></polyline>
<polyline clip-path="url(#clip752)" style="stroke:#c271d2; stroke-linecap:round; stroke-linejoin:round; stroke-width:4; stroke-opacity:1; fill:none" points="-1995.02,934.82 4526.65,934.82 "></polyline>
<path clip-path="url(#clip750)" d="M2008.76 1438.47 L2280.29 1438.47 L2280.29 1179.27 L2008.76 1179.27  Z" fill="#ffffff" fill-rule="evenodd" fill-opacity="1"></path>
<polyline clip-path="url(#clip750)" style="stroke:#000000; stroke-linecap:round; stroke-linejoin:round; stroke-width:4; stroke-opacity:1; fill:none" points="2008.76,1438.47 2280.29,1438.47 2280.29,1179.27 2008.76,1179.27 2008.76,1438.47 "></polyline>
<polyline clip-path="url(#clip750)" style="stroke:#009af9; stroke-linecap:round; stroke-linejoin:round; stroke-width:4; stroke-opacity:1; fill:none" points="2032.92,1231.11 2177.84,1231.11 "></polyline>
<path clip-path="url(#clip750)" d="M2215.84 1250.8 Q2214.03 1255.43 2212.32 1256.84 Q2210.61 1258.26 2207.74 1258.26 L2204.33 1258.26 L2204.33 1254.69 L2206.83 1254.69 Q2208.59 1254.69 2209.56 1253.86 Q2210.54 1253.02 2211.72 1249.92 L2212.48 1247.98 L2202 1222.47 L2206.51 1222.47 L2214.61 1242.75 L2222.71 1222.47 L2227.23 1222.47 L2215.84 1250.8 Z" fill="#000000" fill-rule="nonzero" fill-opacity="1"></path><path clip-path="url(#clip750)" d="M2234.52 1244.46 L2242.16 1244.46 L2242.16 1218.09 L2233.85 1219.76 L2233.85 1215.5 L2242.11 1213.83 L2246.79 1213.83 L2246.79 1244.46 L2254.43 1244.46 L2254.43 1248.39 L2234.52 1248.39 L2234.52 1244.46 Z" fill="#000000" fill-rule="nonzero" fill-opacity="1"></path><polyline clip-path="url(#clip750)" style="stroke:#e26f46; stroke-linecap:round; stroke-linejoin:round; stroke-width:4; stroke-opacity:1; fill:none" points="2032.92,1282.95 2177.84,1282.95 "></polyline>
<path clip-path="url(#clip750)" d="M2215.84 1302.64 Q2214.03 1307.27 2212.32 1308.68 Q2210.61 1310.1 2207.74 1310.1 L2204.33 1310.1 L2204.33 1306.53 L2206.83 1306.53 Q2208.59 1306.53 2209.56 1305.7 Q2210.54 1304.86 2211.72 1301.76 L2212.48 1299.82 L2202 1274.31 L2206.51 1274.31 L2214.61 1294.59 L2222.71 1274.31 L2227.23 1274.31 L2215.84 1302.64 Z" fill="#000000" fill-rule="nonzero" fill-opacity="1"></path><path clip-path="url(#clip750)" d="M2237.74 1296.3 L2254.06 1296.3 L2254.06 1300.23 L2232.11 1300.23 L2232.11 1296.3 Q2234.77 1293.54 2239.36 1288.92 Q2243.96 1284.26 2245.14 1282.92 Q2247.39 1280.4 2248.27 1278.66 Q2249.17 1276.9 2249.17 1275.21 Q2249.17 1272.46 2247.23 1270.72 Q2245.31 1268.98 2242.2 1268.98 Q2240 1268.98 2237.55 1269.75 Q2235.12 1270.51 2232.34 1272.06 L2232.34 1267.34 Q2235.17 1266.21 2237.62 1265.63 Q2240.07 1265.05 2242.11 1265.05 Q2247.48 1265.05 2250.68 1267.73 Q2253.87 1270.42 2253.87 1274.91 Q2253.87 1277.04 2253.06 1278.96 Q2252.27 1280.86 2250.17 1283.45 Q2249.59 1284.12 2246.49 1287.34 Q2243.38 1290.54 2237.74 1296.3 Z" fill="#000000" fill-rule="nonzero" fill-opacity="1"></path><polyline clip-path="url(#clip750)" style="stroke:#3da44d; stroke-linecap:round; stroke-linejoin:round; stroke-width:4; stroke-opacity:1; fill:none" points="2032.92,1334.79 2177.84,1334.79 "></polyline>
<path clip-path="url(#clip750)" d="M2215.84 1354.48 Q2214.03 1359.11 2212.32 1360.52 Q2210.61 1361.94 2207.74 1361.94 L2204.33 1361.94 L2204.33 1358.37 L2206.83 1358.37 Q2208.59 1358.37 2209.56 1357.54 Q2210.54 1356.7 2211.72 1353.6 L2212.48 1351.66 L2202 1326.15 L2206.51 1326.15 L2214.61 1346.43 L2222.71 1326.15 L2227.23 1326.15 L2215.84 1354.48 Z" fill="#000000" fill-rule="nonzero" fill-opacity="1"></path><path clip-path="url(#clip750)" d="M2247.87 1333.44 Q2251.23 1334.16 2253.11 1336.43 Q2255 1338.69 2255 1342.03 Q2255 1347.14 2251.49 1349.94 Q2247.97 1352.75 2241.49 1352.75 Q2239.31 1352.75 2237 1352.31 Q2234.7 1351.89 2232.25 1351.03 L2232.25 1346.52 Q2234.19 1347.65 2236.51 1348.23 Q2238.82 1348.81 2241.35 1348.81 Q2245.75 1348.81 2248.04 1347.07 Q2250.35 1345.34 2250.35 1342.03 Q2250.35 1338.97 2248.2 1337.26 Q2246.07 1335.52 2242.25 1335.52 L2238.22 1335.52 L2238.22 1331.68 L2242.43 1331.68 Q2245.88 1331.68 2247.71 1330.32 Q2249.54 1328.93 2249.54 1326.33 Q2249.54 1323.67 2247.64 1322.26 Q2245.77 1320.82 2242.25 1320.82 Q2240.33 1320.82 2238.13 1321.24 Q2235.93 1321.66 2233.29 1322.54 L2233.29 1318.37 Q2235.95 1317.63 2238.27 1317.26 Q2240.61 1316.89 2242.67 1316.89 Q2247.99 1316.89 2251.09 1319.32 Q2254.19 1321.73 2254.19 1325.85 Q2254.19 1328.72 2252.55 1330.71 Q2250.91 1332.68 2247.87 1333.44 Z" fill="#000000" fill-rule="nonzero" fill-opacity="1"></path><polyline clip-path="url(#clip750)" style="stroke:#c271d2; stroke-linecap:round; stroke-linejoin:round; stroke-width:4; stroke-opacity:1; fill:none" points="2032.92,1386.63 2177.84,1386.63 "></polyline>
<path clip-path="url(#clip750)" d="M2215.84 1406.32 Q2214.03 1410.95 2212.32 1412.36 Q2210.61 1413.78 2207.74 1413.78 L2204.33 1413.78 L2204.33 1410.21 L2206.83 1410.21 Q2208.59 1410.21 2209.56 1409.38 Q2210.54 1408.54 2211.72 1405.44 L2212.48 1403.5 L2202 1377.99 L2206.51 1377.99 L2214.61 1398.27 L2222.71 1377.99 L2227.23 1377.99 L2215.84 1406.32 Z" fill="#000000" fill-rule="nonzero" fill-opacity="1"></path><path clip-path="url(#clip750)" d="M2246.56 1373.43 L2234.75 1391.88 L2246.56 1391.88 L2246.56 1373.43 M2245.33 1369.35 L2251.21 1369.35 L2251.21 1391.88 L2256.14 1391.88 L2256.14 1395.77 L2251.21 1395.77 L2251.21 1403.91 L2246.56 1403.91 L2246.56 1395.77 L2230.95 1395.77 L2230.95 1391.25 L2245.33 1369.35 Z" fill="#000000" fill-rule="nonzero" fill-opacity="1"></path></svg>