<svg xmlns="http://www.w3.org/2000/svg" xmlns:xlink="http://www.w3.org/1999/xlink" width="600" height="400" viewBox="0 0 2400 1600">
<defs>
  <clipPath id="clip170">
    <rect x="0" y="0" width="2400" height="1600"></rect>
  </clipPath>
</defs>
<path clip-path="url(#clip170)" d="M0 1600 L2400 1600 L2400 8.88178e-14 L0 8.88178e-14  Z" fill="#ffffff" fill-rule="evenodd" fill-opacity="1"></path>
<defs>
  <clipPath id="clip171">
    <rect x="480" y="0" width="1681" height="1600"></rect>
  </clipPath>
</defs>
<path clip-path="url(#clip170)" d="M222.871 1486.45 L2352.76 1486.45 L2352.76 47.2441 L222.871 47.2441  Z" fill="#ffffff" fill-rule="evenodd" fill-opacity="1"></path>
<defs>
  <clipPath id="clip172">
    <rect x="222" y="47" width="2131" height="1440"></rect>
  </clipPath>
</defs>
<polyline clip-path="url(#clip172)" style="stroke:#000000; stroke-linecap:round; stroke-linejoin:round; stroke-width:2; stroke-opacity:0.1; fill:none" points="280.99,1486.45 280.99,47.2441 "></polyline>
<polyline clip-path="url(#clip172)" style="stroke:#000000; stroke-linecap:round; stroke-linejoin:round; stroke-width:2; stroke-opacity:0.1; fill:none" points="713.103,1486.45 713.103,47.2441 "></polyline>
<polyline clip-path="url(#clip172)" style="stroke:#000000; stroke-linecap:round; stroke-linejoin:round; stroke-width:2; stroke-opacity:0.1; fill:none" points="1145.22,1486.45 1145.22,47.2441 "></polyline>
<polyline clip-path="url(#clip172)" style="stroke:#000000; stroke-linecap:round; stroke-linejoin:round; stroke-width:2; stroke-opacity:0.1; fill:none" points="1577.33,1486.45 1577.33,47.2441 "></polyline>
<polyline clip-path="url(#clip172)" style="stroke:#000000; stroke-linecap:round; stroke-linejoin:round; stroke-width:2; stroke-opacity:0.1; fill:none" points="2009.44,1486.45 2009.44,47.2441 "></polyline>
<polyline clip-path="url(#clip172)" style="stroke:#000000; stroke-linecap:round; stroke-linejoin:round; stroke-width:2; stroke-opacity:0.1; fill:none" points="222.871,1159.59 2352.76,1159.59 "></polyline>
<polyline clip-path="url(#clip172)" style="stroke:#000000; stroke-linecap:round; stroke-linejoin:round; stroke-width:2; stroke-opacity:0.1; fill:none" points="222.871,795.741 2352.76,795.741 "></polyline>
<polyline clip-path="url(#clip172)" style="stroke:#000000; stroke-linecap:round; stroke-linejoin:round; stroke-width:2; stroke-opacity:0.1; fill:none" points="222.871,431.897 2352.76,431.897 "></polyline>
<polyline clip-path="url(#clip172)" style="stroke:#000000; stroke-linecap:round; stroke-linejoin:round; stroke-width:2; stroke-opacity:0.1; fill:none" points="222.871,68.0531 2352.76,68.0531 "></polyline>
<polyline clip-path="url(#clip170)" style="stroke:#000000; stroke-linecap:round; stroke-linejoin:round; stroke-width:4; stroke-opacity:1; fill:none" points="222.871,1486.45 2352.76,1486.45 "></polyline>
<polyline clip-path="url(#clip170)" style="stroke:#000000; stroke-linecap:round; stroke-linejoin:round; stroke-width:4; stroke-opacity:1; fill:none" points="280.99,1486.45 280.99,1467.55 "></polyline>
<polyline clip-path="url(#clip170)" style="stroke:#000000; stroke-linecap:round; stroke-linejoin:round; stroke-width:4; stroke-opacity:1; fill:none" points="713.103,1486.45 713.103,1467.55 "></polyline>
<polyline clip-path="url(#clip170)" style="stroke:#000000; stroke-linecap:round; stroke-linejoin:round; stroke-width:4; stroke-opacity:1; fill:none" points="1145.22,1486.45 1145.22,1467.55 "></polyline>
<polyline clip-path="url(#clip170)" style="stroke:#000000; stroke-linecap:round; stroke-linejoin:round; stroke-width:4; stroke-opacity:1; fill:none" points="1577.33,1486.45 1577.33,1467.55 "></polyline>
<polyline clip-path="url(#clip170)" style="stroke:#000000; stroke-linecap:round; stroke-linejoin:round; stroke-width:4; stroke-opacity:1; fill:none" points="2009.44,1486.45 2009.44,1467.55 "></polyline>
<path clip-path="url(#clip170)" d="M280.99 1517.37 Q277.379 1517.37 275.55 1520.93 Q273.745 1524.47 273.745 1531.6 Q273.745 1538.71 275.55 1542.27 Q277.379 1545.82 280.99 1545.82 Q284.624 1545.82 286.43 1542.27 Q288.259 1538.71 288.259 1531.6 Q288.259 1524.47 286.43 1520.93 Q284.624 1517.37 280.99 1517.37 M280.99 1513.66 Q286.8 1513.66 289.856 1518.27 Q292.935 1522.85 292.935 1531.6 Q292.935 1540.33 289.856 1544.94 Q286.8 1549.52 280.99 1549.52 Q275.18 1549.52 272.101 1544.94 Q269.046 1540.33 269.046 1531.6 Q269.046 1522.85 272.101 1518.27 Q275.18 1513.66 280.99 1513.66 Z" fill="#000000" fill-rule="nonzero" fill-opacity="1"></path><path clip-path="url(#clip170)" d="M676.796 1544.91 L693.115 1544.91 L693.115 1548.85 L671.171 1548.85 L671.171 1544.91 Q673.833 1542.16 678.416 1537.53 Q683.022 1532.88 684.203 1531.53 Q686.448 1529.01 687.328 1527.27 Q688.231 1525.51 688.231 1523.82 Q688.231 1521.07 686.286 1519.33 Q684.365 1517.6 681.263 1517.6 Q679.064 1517.6 676.61 1518.36 Q674.18 1519.13 671.402 1520.68 L671.402 1515.95 Q674.226 1514.82 676.68 1514.24 Q679.133 1513.66 681.171 1513.66 Q686.541 1513.66 689.735 1516.35 Q692.93 1519.03 692.93 1523.52 Q692.93 1525.65 692.12 1527.57 Q691.332 1529.47 689.226 1532.07 Q688.647 1532.74 685.545 1535.95 Q682.444 1539.15 676.796 1544.91 Z" fill="#000000" fill-rule="nonzero" fill-opacity="1"></path><path clip-path="url(#clip170)" d="M712.93 1517.37 Q709.319 1517.37 707.49 1520.93 Q705.684 1524.47 705.684 1531.6 Q705.684 1538.71 707.49 1542.27 Q709.319 1545.82 712.93 1545.82 Q716.564 1545.82 718.369 1542.27 Q720.198 1538.71 720.198 1531.6 Q720.198 1524.47 718.369 1520.93 Q716.564 1517.37 712.93 1517.37 M712.93 1513.66 Q718.74 1513.66 721.795 1518.27 Q724.874 1522.85 724.874 1531.6 Q724.874 1540.33 721.795 1544.94 Q718.74 1549.52 712.93 1549.52 Q707.119 1549.52 704.041 1544.94 Q700.985 1540.33 700.985 1531.6 Q700.985 1522.85 704.041 1518.27 Q707.119 1513.66 712.93 1513.66 Z" fill="#000000" fill-rule="nonzero" fill-opacity="1"></path><path clip-path="url(#clip170)" d="M743.091 1517.37 Q739.48 1517.37 737.652 1520.93 Q735.846 1524.47 735.846 1531.6 Q735.846 1538.71 737.652 1542.27 Q739.48 1545.82 743.091 1545.82 Q746.726 1545.82 748.531 1542.27 Q750.36 1538.71 750.36 1531.6 Q750.36 1524.47 748.531 1520.93 Q746.726 1517.37 743.091 1517.37 M743.091 1513.66 Q748.902 1513.66 751.957 1518.27 Q755.036 1522.85 755.036 1531.6 Q755.036 1540.33 751.957 1544.94 Q748.902 1549.52 743.091 1549.52 Q737.281 1549.52 734.203 1544.94 Q731.147 1540.33 731.147 1531.6 Q731.147 1522.85 734.203 1518.27 Q737.281 1513.66 743.091 1513.66 Z" fill="#000000" fill-rule="nonzero" fill-opacity="1"></path><path clip-path="url(#clip170)" d="M1118.31 1518.36 L1106.5 1536.81 L1118.31 1536.81 L1118.31 1518.36 M1117.08 1514.29 L1122.96 1514.29 L1122.96 1536.81 L1127.89 1536.81 L1127.89 1540.7 L1122.96 1540.7 L1122.96 1548.85 L1118.31 1548.85 L1118.31 1540.7 L1102.7 1540.7 L1102.7 1536.19 L1117.08 1514.29 Z" fill="#000000" fill-rule="nonzero" fill-opacity="1"></path><path clip-path="url(#clip170)" d="M1145.62 1517.37 Q1142.01 1517.37 1140.18 1520.93 Q1138.38 1524.47 1138.38 1531.6 Q1138.38 1538.71 1140.18 1542.27 Q1142.01 1545.82 1145.62 1545.82 Q1149.26 1545.82 1151.06 1542.27 Q1152.89 1538.71 1152.89 1531.6 Q1152.89 1524.47 1151.06 1520.93 Q1149.26 1517.37 1145.62 1517.37 M1145.62 1513.66 Q1151.43 1513.66 1154.49 1518.27 Q1157.57 1522.85 1157.57 1531.6 Q1157.57 1540.33 1154.49 1544.94 Q1151.43 1549.52 1145.62 1549.52 Q1139.81 1549.52 1136.73 1544.94 Q1133.68 1540.33 1133.68 1531.6 Q1133.68 1522.85 1136.73 1518.27 Q1139.81 1513.66 1145.62 1513.66 Z" fill="#000000" fill-rule="nonzero" fill-opacity="1"></path><path clip-path="url(#clip170)" d="M1175.78 1517.37 Q1172.17 1517.37 1170.34 1520.93 Q1168.54 1524.47 1168.54 1531.6 Q1168.54 1538.71 1170.34 1542.27 Q1172.17 1545.82 1175.78 1545.82 Q1179.42 1545.82 1181.22 1542.27 Q1183.05 1538.71 1183.05 1531.6 Q1183.05 1524.47 1181.22 1520.93 Q1179.42 1517.37 1175.78 1517.37 M1175.78 1513.66 Q1181.59 1513.66 1184.65 1518.27 Q1187.73 1522.85 1187.73 1531.6 Q1187.73 1540.33 1184.65 1544.94 Q1181.59 1549.52 1175.78 1549.52 Q1169.97 1549.52 1166.89 1544.94 Q1163.84 1540.33 1163.84 1531.6 Q1163.84 1522.85 1166.89 1518.27 Q1169.97 1513.66 1175.78 1513.66 Z" fill="#000000" fill-rule="nonzero" fill-opacity="1"></path><path clip-path="url(#clip170)" d="M1547.65 1529.7 Q1544.51 1529.7 1542.65 1531.86 Q1540.82 1534.01 1540.82 1537.76 Q1540.82 1541.49 1542.65 1543.66 Q1544.51 1545.82 1547.65 1545.82 Q1550.8 1545.82 1552.63 1543.66 Q1554.48 1541.49 1554.48 1537.76 Q1554.48 1534.01 1552.63 1531.86 Q1550.8 1529.7 1547.65 1529.7 M1556.94 1515.05 L1556.94 1519.31 Q1555.18 1518.48 1553.37 1518.04 Q1551.59 1517.6 1549.83 1517.6 Q1545.2 1517.6 1542.75 1520.72 Q1540.32 1523.85 1539.97 1530.17 Q1541.33 1528.15 1543.39 1527.09 Q1545.45 1526 1547.93 1526 Q1553.14 1526 1556.15 1529.17 Q1559.18 1532.32 1559.18 1537.76 Q1559.18 1543.08 1556.03 1546.3 Q1552.88 1549.52 1547.65 1549.52 Q1541.66 1549.52 1538.49 1544.94 Q1535.32 1540.33 1535.32 1531.6 Q1535.32 1523.41 1539.2 1518.55 Q1543.09 1513.66 1549.64 1513.66 Q1551.4 1513.66 1553.19 1514.01 Q1554.99 1514.36 1556.94 1515.05 Z" fill="#000000" fill-rule="nonzero" fill-opacity="1"></path><path clip-path="url(#clip170)" d="M1577.24 1517.37 Q1573.63 1517.37 1571.8 1520.93 Q1569.99 1524.47 1569.99 1531.6 Q1569.99 1538.71 1571.8 1542.27 Q1573.63 1545.82 1577.24 1545.82 Q1580.87 1545.82 1582.68 1542.27 Q1584.51 1538.71 1584.51 1531.6 Q1584.51 1524.47 1582.68 1520.93 Q1580.87 1517.37 1577.24 1517.37 M1577.24 1513.66 Q1583.05 1513.66 1586.1 1518.27 Q1589.18 1522.85 1589.18 1531.6 Q1589.18 1540.33 1586.1 1544.94 Q1583.05 1549.52 1577.24 1549.52 Q1571.43 1549.52 1568.35 1544.94 Q1565.29 1540.33 1565.29 1531.6 Q1565.29 1522.85 1568.35 1518.27 Q1571.43 1513.66 1577.24 1513.66 Z" fill="#000000" fill-rule="nonzero" fill-opacity="1"></path><path clip-path="url(#clip170)" d="M1607.4 1517.37 Q1603.79 1517.37 1601.96 1520.93 Q1600.15 1524.47 1600.15 1531.6 Q1600.15 1538.71 1601.96 1542.27 Q1603.79 1545.82 1607.4 1545.82 Q1611.03 1545.82 1612.84 1542.27 Q1614.67 1538.71 1614.67 1531.6 Q1614.67 1524.47 1612.84 1520.93 Q1611.03 1517.37 1607.4 1517.37 M1607.4 1513.66 Q1613.21 1513.66 1616.26 1518.27 Q1619.34 1522.85 1619.34 1531.6 Q1619.34 1540.33 1616.26 1544.94 Q1613.21 1549.52 1607.4 1549.52 Q1601.59 1549.52 1598.51 1544.94 Q1595.45 1540.33 1595.45 1531.6 Q1595.45 1522.85 1598.51 1518.27 Q1601.59 1513.66 1607.4 1513.66 Z" fill="#000000" fill-rule="nonzero" fill-opacity="1"></path><path clip-path="url(#clip170)" d="M1979.23 1532.44 Q1975.9 1532.44 1973.98 1534.22 Q1972.08 1536 1972.08 1539.13 Q1972.08 1542.25 1973.98 1544.03 Q1975.9 1545.82 1979.23 1545.82 Q1982.57 1545.82 1984.49 1544.03 Q1986.41 1542.23 1986.41 1539.13 Q1986.41 1536 1984.49 1534.22 Q1982.59 1532.44 1979.23 1532.44 M1974.56 1530.45 Q1971.55 1529.7 1969.86 1527.64 Q1968.19 1525.58 1968.19 1522.62 Q1968.19 1518.48 1971.13 1516.07 Q1974.1 1513.66 1979.23 1513.66 Q1984.4 1513.66 1987.34 1516.07 Q1990.28 1518.48 1990.28 1522.62 Q1990.28 1525.58 1988.59 1527.64 Q1986.92 1529.7 1983.93 1530.45 Q1987.31 1531.23 1989.19 1533.52 Q1991.09 1535.82 1991.09 1539.13 Q1991.09 1544.15 1988.01 1546.83 Q1984.95 1549.52 1979.23 1549.52 Q1973.52 1549.52 1970.44 1546.83 Q1967.38 1544.15 1967.38 1539.13 Q1967.38 1535.82 1969.28 1533.52 Q1971.18 1531.23 1974.56 1530.45 M1972.85 1523.06 Q1972.85 1525.75 1974.51 1527.25 Q1976.2 1528.76 1979.23 1528.76 Q1982.24 1528.76 1983.93 1527.25 Q1985.65 1525.75 1985.65 1523.06 Q1985.65 1520.38 1983.93 1518.87 Q1982.24 1517.37 1979.23 1517.37 Q1976.2 1517.37 1974.51 1518.87 Q1972.85 1520.38 1972.85 1523.06 Z" fill="#000000" fill-rule="nonzero" fill-opacity="1"></path><path clip-path="url(#clip170)" d="M2009.4 1517.37 Q2005.78 1517.37 2003.96 1520.93 Q2002.15 1524.47 2002.15 1531.6 Q2002.15 1538.71 2003.96 1542.27 Q2005.78 1545.82 2009.4 1545.82 Q2013.03 1545.82 2014.84 1542.27 Q2016.66 1538.71 2016.66 1531.6 Q2016.66 1524.47 2014.84 1520.93 Q2013.03 1517.37 2009.4 1517.37 M2009.4 1513.66 Q2015.21 1513.66 2018.26 1518.27 Q2021.34 1522.85 2021.34 1531.6 Q2021.34 1540.33 2018.26 1544.94 Q2015.21 1549.52 2009.4 1549.52 Q2003.59 1549.52 2000.51 1544.94 Q1997.45 1540.33 1997.45 1531.6 Q1997.45 1522.85 2000.51 1518.27 Q2003.59 1513.66 2009.4 1513.66 Z" fill="#000000" fill-rule="nonzero" fill-opacity="1"></path><path clip-path="url(#clip170)" d="M2039.56 1517.37 Q2035.95 1517.37 2034.12 1520.93 Q2032.31 1524.47 2032.31 1531.6 Q2032.31 1538.71 2034.12 1542.27 Q2035.95 1545.82 2039.56 1545.82 Q2043.19 1545.82 2045 1542.27 Q2046.83 1538.71 2046.83 1531.6 Q2046.83 1524.47 2045 1520.93 Q2043.19 1517.37 2039.56 1517.37 M2039.56 1513.66 Q2045.37 1513.66 2048.42 1518.27 Q2051.5 1522.85 2051.5 1531.6 Q2051.5 1540.33 2048.42 1544.94 Q2045.37 1549.52 2039.56 1549.52 Q2033.75 1549.52 2030.67 1544.94 Q2027.61 1540.33 2027.61 1531.6 Q2027.61 1522.85 2030.67 1518.27 Q2033.75 1513.66 2039.56 1513.66 Z" fill="#000000" fill-rule="nonzero" fill-opacity="1"></path><polyline clip-path="url(#clip170)" style="stroke:#000000; stroke-linecap:round; stroke-linejoin:round; stroke-width:4; stroke-opacity:1; fill:none" points="222.871,1486.45 222.871,47.2441 "></polyline>
<polyline clip-path="url(#clip170)" style="stroke:#000000; stroke-linecap:round; stroke-linejoin:round; stroke-width:4; stroke-opacity:1; fill:none" points="222.871,1159.59 241.769,1159.59 "></polyline>
<polyline clip-path="url(#clip170)" style="stroke:#000000; stroke-linecap:round; stroke-linejoin:round; stroke-width:4; stroke-opacity:1; fill:none" points="222.871,795.741 241.769,795.741 "></polyline>
<polyline clip-path="url(#clip170)" style="stroke:#000000; stroke-linecap:round; stroke-linejoin:round; stroke-width:4; stroke-opacity:1; fill:none" points="222.871,431.897 241.769,431.897 "></polyline>
<polyline clip-path="url(#clip170)" style="stroke:#000000; stroke-linecap:round; stroke-linejoin:round; stroke-width:4; stroke-opacity:1; fill:none" points="222.871,68.0531 241.769,68.0531 "></polyline>
<path clip-path="url(#clip170)" d="M50.9921 1160.04 L80.6679 1160.04 L80.6679 1163.97 L50.9921 1163.97 L50.9921 1160.04 Z" fill="#000000" fill-rule="nonzero" fill-opacity="1"></path><path clip-path="url(#clip170)" d="M100.76 1145.38 Q97.1493 1145.38 95.3206 1148.95 Q93.515 1152.49 93.515 1159.62 Q93.515 1166.73 95.3206 1170.29 Q97.1493 1173.83 100.76 1173.83 Q104.395 1173.83 106.2 1170.29 Q108.029 1166.73 108.029 1159.62 Q108.029 1152.49 106.2 1148.95 Q104.395 1145.38 100.76 1145.38 M100.76 1141.68 Q106.571 1141.68 109.626 1146.29 Q112.705 1150.87 112.705 1159.62 Q112.705 1168.35 109.626 1172.95 Q106.571 1177.54 100.76 1177.54 Q94.9502 1177.54 91.8715 1172.95 Q88.816 1168.35 88.816 1159.62 Q88.816 1150.87 91.8715 1146.29 Q94.9502 1141.68 100.76 1141.68 Z" fill="#000000" fill-rule="nonzero" fill-opacity="1"></path><path clip-path="url(#clip170)" d="M120.922 1170.99 L125.807 1170.99 L125.807 1176.87 L120.922 1176.87 L120.922 1170.99 Z" fill="#000000" fill-rule="nonzero" fill-opacity="1"></path><path clip-path="url(#clip170)" d="M145.992 1145.38 Q142.381 1145.38 140.552 1148.95 Q138.746 1152.49 138.746 1159.62 Q138.746 1166.73 140.552 1170.29 Q142.381 1173.83 145.992 1173.83 Q149.626 1173.83 151.431 1170.29 Q153.26 1166.73 153.26 1159.62 Q153.26 1152.49 151.431 1148.95 Q149.626 1145.38 145.992 1145.38 M145.992 1141.68 Q151.802 1141.68 154.857 1146.29 Q157.936 1150.87 157.936 1159.62 Q157.936 1168.35 154.857 1172.95 Q151.802 1177.54 145.992 1177.54 Q140.181 1177.54 137.103 1172.95 Q134.047 1168.35 134.047 1159.62 Q134.047 1150.87 137.103 1146.29 Q140.181 1141.68 145.992 1141.68 Z" fill="#000000" fill-rule="nonzero" fill-opacity="1"></path><path clip-path="url(#clip170)" d="M166.964 1172.93 L174.603 1172.93 L174.603 1146.56 L166.292 1148.23 L166.292 1143.97 L174.556 1142.31 L179.232 1142.31 L179.232 1172.93 L186.871 1172.93 L186.871 1176.87 L166.964 1176.87 L166.964 1172.93 Z" fill="#000000" fill-rule="nonzero" fill-opacity="1"></path><path clip-path="url(#clip170)" d="M99.5335 781.54 Q95.9224 781.54 94.0937 785.105 Q92.2882 788.646 92.2882 795.776 Q92.2882 802.882 94.0937 806.447 Q95.9224 809.989 99.5335 809.989 Q103.168 809.989 104.973 806.447 Q106.802 802.882 106.802 795.776 Q106.802 788.646 104.973 785.105 Q103.168 781.54 99.5335 781.54 M99.5335 777.836 Q105.344 777.836 108.399 782.443 Q111.478 787.026 111.478 795.776 Q111.478 804.503 108.399 809.109 Q105.344 813.693 99.5335 813.693 Q93.7234 813.693 90.6447 809.109 Q87.5892 804.503 87.5892 795.776 Q87.5892 787.026 90.6447 782.443 Q93.7234 777.836 99.5335 777.836 Z" fill="#000000" fill-rule="nonzero" fill-opacity="1"></path><path clip-path="url(#clip170)" d="M119.695 807.142 L124.58 807.142 L124.58 813.021 L119.695 813.021 L119.695 807.142 Z" fill="#000000" fill-rule="nonzero" fill-opacity="1"></path><path clip-path="url(#clip170)" d="M144.765 781.54 Q141.154 781.54 139.325 785.105 Q137.519 788.646 137.519 795.776 Q137.519 802.882 139.325 806.447 Q141.154 809.989 144.765 809.989 Q148.399 809.989 150.205 806.447 Q152.033 802.882 152.033 795.776 Q152.033 788.646 150.205 785.105 Q148.399 781.54 144.765 781.54 M144.765 777.836 Q150.575 777.836 153.63 782.443 Q156.709 787.026 156.709 795.776 Q156.709 804.503 153.63 809.109 Q150.575 813.693 144.765 813.693 Q138.955 813.693 135.876 809.109 Q132.82 804.503 132.82 795.776 Q132.82 787.026 135.876 782.443 Q138.955 777.836 144.765 777.836 Z" fill="#000000" fill-rule="nonzero" fill-opacity="1"></path><path clip-path="url(#clip170)" d="M174.927 781.54 Q171.316 781.54 169.487 785.105 Q167.681 788.646 167.681 795.776 Q167.681 802.882 169.487 806.447 Q171.316 809.989 174.927 809.989 Q178.561 809.989 180.366 806.447 Q182.195 802.882 182.195 795.776 Q182.195 788.646 180.366 785.105 Q178.561 781.54 174.927 781.54 M174.927 777.836 Q180.737 777.836 183.792 782.443 Q186.871 787.026 186.871 795.776 Q186.871 804.503 183.792 809.109 Q180.737 813.693 174.927 813.693 Q169.116 813.693 166.038 809.109 Q162.982 804.503 162.982 795.776 Q162.982 787.026 166.038 782.443 Q169.116 777.836 174.927 777.836 Z" fill="#000000" fill-rule="nonzero" fill-opacity="1"></path><path clip-path="url(#clip170)" d="M100.76 417.696 Q97.1493 417.696 95.3206 421.261 Q93.515 424.802 93.515 431.932 Q93.515 439.038 95.3206 442.603 Q97.1493 446.145 100.76 446.145 Q104.395 446.145 106.2 442.603 Q108.029 439.038 108.029 431.932 Q108.029 424.802 106.2 421.261 Q104.395 417.696 100.76 417.696 M100.76 413.992 Q106.571 413.992 109.626 418.599 Q112.705 423.182 112.705 431.932 Q112.705 440.659 109.626 445.265 Q106.571 449.848 100.76 449.848 Q94.9502 449.848 91.8715 445.265 Q88.816 440.659 88.816 431.932 Q88.816 423.182 91.8715 418.599 Q94.9502 413.992 100.76 413.992 Z" fill="#000000" fill-rule="nonzero" fill-opacity="1"></path><path clip-path="url(#clip170)" d="M120.922 443.298 L125.807 443.298 L125.807 449.177 L120.922 449.177 L120.922 443.298 Z" fill="#000000" fill-rule="nonzero" fill-opacity="1"></path><path clip-path="url(#clip170)" d="M145.992 417.696 Q142.381 417.696 140.552 421.261 Q138.746 424.802 138.746 431.932 Q138.746 439.038 140.552 442.603 Q142.381 446.145 145.992 446.145 Q149.626 446.145 151.431 442.603 Q153.26 439.038 153.26 431.932 Q153.26 424.802 151.431 421.261 Q149.626 417.696 145.992 417.696 M145.992 413.992 Q151.802 413.992 154.857 418.599 Q157.936 423.182 157.936 431.932 Q157.936 440.659 154.857 445.265 Q151.802 449.848 145.992 449.848 Q140.181 449.848 137.103 445.265 Q134.047 440.659 134.047 431.932 Q134.047 423.182 137.103 418.599 Q140.181 413.992 145.992 413.992 Z" fill="#000000" fill-rule="nonzero" fill-opacity="1"></path><path clip-path="url(#clip170)" d="M166.964 445.242 L174.603 445.242 L174.603 418.876 L166.292 420.543 L166.292 416.284 L174.556 414.617 L179.232 414.617 L179.232 445.242 L186.871 445.242 L186.871 449.177 L166.964 449.177 L166.964 445.242 Z" fill="#000000" fill-rule="nonzero" fill-opacity="1"></path><path clip-path="url(#clip170)" d="M101.131 53.8518 Q97.5197 53.8518 95.691 57.4166 Q93.8854 60.9583 93.8854 68.0878 Q93.8854 75.1943 95.691 78.7591 Q97.5197 82.3007 101.131 82.3007 Q104.765 82.3007 106.571 78.7591 Q108.399 75.1943 108.399 68.0878 Q108.399 60.9583 106.571 57.4166 Q104.765 53.8518 101.131 53.8518 M101.131 50.1481 Q106.941 50.1481 109.996 54.7546 Q113.075 59.3379 113.075 68.0878 Q113.075 76.8146 109.996 81.4211 Q106.941 86.0044 101.131 86.0044 Q95.3206 86.0044 92.2419 81.4211 Q89.1864 76.8146 89.1864 68.0878 Q89.1864 59.3379 92.2419 54.7546 Q95.3206 50.1481 101.131 50.1481 Z" fill="#000000" fill-rule="nonzero" fill-opacity="1"></path><path clip-path="url(#clip170)" d="M121.293 79.4535 L126.177 79.4535 L126.177 85.3331 L121.293 85.3331 L121.293 79.4535 Z" fill="#000000" fill-rule="nonzero" fill-opacity="1"></path><path clip-path="url(#clip170)" d="M146.362 53.8518 Q142.751 53.8518 140.922 57.4166 Q139.117 60.9583 139.117 68.0878 Q139.117 75.1943 140.922 78.7591 Q142.751 82.3007 146.362 82.3007 Q149.996 82.3007 151.802 78.7591 Q153.63 75.1943 153.63 68.0878 Q153.63 60.9583 151.802 57.4166 Q149.996 53.8518 146.362 53.8518 M146.362 50.1481 Q152.172 50.1481 155.228 54.7546 Q158.306 59.3379 158.306 68.0878 Q158.306 76.8146 155.228 81.4211 Q152.172 86.0044 146.362 86.0044 Q140.552 86.0044 137.473 81.4211 Q134.418 76.8146 134.418 68.0878 Q134.418 59.3379 137.473 54.7546 Q140.552 50.1481 146.362 50.1481 Z" fill="#000000" fill-rule="nonzero" fill-opacity="1"></path><path clip-path="url(#clip170)" d="M170.552 81.398 L186.871 81.398 L186.871 85.3331 L164.927 85.3331 L164.927 81.398 Q167.589 78.6433 172.172 74.0137 Q176.778 69.361 177.959 68.0184 Q180.204 65.4953 181.084 63.7592 Q181.987 61.9999 181.987 60.3101 Q181.987 57.5555 180.042 55.8194 Q178.121 54.0833 175.019 54.0833 Q172.82 54.0833 170.366 54.8472 Q167.936 55.6111 165.158 57.162 L165.158 52.4398 Q167.982 51.3055 170.436 50.7268 Q172.89 50.1481 174.927 50.1481 Q180.297 50.1481 183.491 52.8333 Q186.686 55.5185 186.686 60.0092 Q186.686 62.1388 185.876 64.0601 Q185.089 65.9582 182.982 68.5508 Q182.403 69.2221 179.302 72.4397 Q176.2 75.6341 170.552 81.398 Z" fill="#000000" fill-rule="nonzero" fill-opacity="1"></path><polyline clip-path="url(#clip172)" style="stroke:#009af9; stroke-linecap:round; stroke-linejoin:round; stroke-width:4; stroke-opacity:1; fill:none" points="283.151,559.368 285.311,161.792 287.472,795.741 289.632,878.527 291.793,580.888 293.954,549.4 296.114,518.556 298.275,87.9763 300.435,684.401 302.596,558.296 304.756,247.655 306.917,378.502 309.078,811.11 311.238,1058 313.399,303.637 315.559,506.673 317.72,584.203 319.88,421.027 322.041,751.034 324.202,900.144 326.362,870.499 328.523,1020.94 330.683,961.777 332.844,856.306 335.004,947.596 337.165,795.741 339.325,780.527 341.486,810.955 343.647,780.527 345.807,1131.93 347.968,795.741 350.128,719.062 352.289,918.506 354.449,749.656 356.61,934.173 358.771,950.174 360.931,641.308 363.092,749.539 365.252,780.353 367.413,611.594 369.573,627.754 371.734,507.396 373.895,599.761 376.055,585.859 378.216,557.35 380.376,647.536 382.537,238.002 384.697,217.74 386.858,156.28 389.018,725.379 391.179,739.549 393.34,697.613 395.5,879.835 397.661,823.816 399.821,866.022 401.982,557.338 404.142,614.481 406.303,573.884 408.464,588.972 410.624,823.243 412.785,850.807 414.945,823.305 417.106,699.359 419.266,781.993 421.427,713.361 423.588,590.604 425.748,782.106 427.909,877.627 430.069,713.856 432.23,795.741 434.39,768.487 436.551,891.221 438.711,864.094 440.872,741.048 443.033,713.856 445.193,782.112 447.354,700.476 449.514,768.568 451.675,714.344 453.835,741.578 455.996,714.647 458.157,930.999 460.317,768.649 462.478,701.078 464.638,728.275 466.799,876.715 468.959,890.44 471.12,701.043 473.28,782.233 475.441,903.948 477.602,809.29 479.762,849.986 481.923,918.088 484.083,714.131 486.244,809.33 488.404,795.741 490.565,727.847 492.726,836.462 494.886,795.741 497.047,822.914 499.207,877.382 501.368,727.695 503.528,850.168 505.689,619.151 507.85,836.417 510.01,714.435 512.171,809.28 514.331,849.945 516.492,755.081 518.652,755.126 520.813,741.658 522.973,660.884 525.134,634.57 527.295,608.606 529.455,769.086 531.616,742.489 533.776,583.509 535.937,795.741 538.097,637.376 540.258,743.106 542.419,625.199 544.579,717.298 546.74,704.438 548.9,704.666 551.061,653.083 553.221,692.34 555.382,679.765 557.543,744.315 559.703,795.741 561.864,680.296 564.024,718.981 566.185,579.129 568.345,719.597 570.506,580.86 572.666,707.628 574.827,795.741 576.988,833.478 579.148,820.921 581.309,732.825 583.469,833.478 585.63,795.741 587.79,745.434 589.951,770.614 592.112,745.539 594.272,808.285 596.433,833.4 598.593,783.184 600.754,720.489 602.914,708.143 605.075,745.78 607.236,758.315 609.396,708.563 611.557,671.562 613.717,795.741 615.878,721.437 618.038,845.261 620.199,746.222 622.359,795.741 624.52,635.267 626.681,758.809 628.841,746.556 631.002,869.543 633.162,721.939 635.323,795.741 637.483,624.116 639.644,759.07 641.805,759.106 643.965,759.143 646.126,795.741 648.286,795.741 650.447,832.339 652.607,759.143 654.768,795.741 656.929,698.326 659.089,771.428 661.25,747.164 663.41,795.741 665.571,795.741 667.731,759.351 669.892,759.387 672.052,711.056 674.213,723.31 676.374,747.534 678.534,759.628 680.695,831.855 682.855,783.699 685.016,723.574 687.176,627.905 689.337,843.615 691.498,795.741 693.658,795.741 695.819,723.954 697.979,747.961 700.14,759.947 702.3,831.535 704.461,759.947 706.622,676.682 708.782,700.774 710.943,724.678 713.103,831.256 715.264,760.227 717.424,760.262 719.585,677.725 721.745,725.115 723.906,831.037 726.067,760.445 728.227,783.983 730.388,760.491 732.548,760.525 734.709,784.01 736.869,760.57 739.03,760.604 741.191,748.945 743.351,690.668 745.512,749.139 747.672,760.829 749.833,795.741 751.993,760.862 754.154,714.487 756.315,679.978 758.475,645.797 760.636,830.289 762.796,830.322 764.957,715.105 767.117,761.237 769.278,680.964 771.438,681.325 773.599,761.486 775.76,568.196 777.92,682.5 780.081,682.851 782.241,716.926 784.402,762.016 786.562,717.169 788.723,572.18 790.884,684.474 793.044,684.813 795.205,762.529 797.365,751.505 799.526,817.853 801.686,685.318 803.847,795.741 806.007,685.652 808.168,795.741 810.329,576.557 812.489,686.642 814.65,686.969 816.81,687.293 818.971,687.615 821.131,580.448 823.292,688.571 825.453,688.885 827.613,689.198 829.774,689.509 831.934,689.819 834.095,690.126 836.255,585.426 838.416,586.635 840.577,691.637 842.737,691.934 844.898,589.011 847.058,692.815 849.219,590.758 851.379,693.681 853.54,693.967 855.7,492.114 857.861,594.722 860.022,695.647 862.182,596.374 864.343,597.461 866.503,697.005 868.664,599.068 870.824,600.126 872.985,601.172 875.146,602.207 877.306,603.231 879.467,604.244 881.627,605.247 883.788,606.239 885.948,701.359 888.109,607.708 890.27,702.088 892.43,702.328 894.591,609.631 896.751,610.578 898.912,611.516 901.072,612.444 903.233,704.438 905.393,795.741 907.554,704.666 909.715,704.894 911.875,614.724 914.036,615.62 916.196,706.014 918.357,706.235 920.517,706.454 922.678,706.673 924.839,706.89 926.999,707.107 929.16,707.322 931.32,619.545 933.481,795.741 935.641,707.962 937.802,708.173 939.963,708.384 942.123,708.593 944.284,708.801 946.444,622.482 948.605,709.42 950.765,623.711 952.926,710.03 955.086,624.922 957.247,541.007 959.408,458.846 961.568,545.101 963.729,629.602 965.889,547.946 968.05,795.741 970.21,143.089 972.371,634.391 974.532,475.172 976.692,557.154 978.853,480.039 981.013,404.928 983.174,409.081 985.334,413.147 987.495,568.101 989.656,419.477 991.816,497.507 993.977,573.659 996.137,355.602 998.298,288.886 1000.46,509.248 1002.62,440.769 1004.78,514.236 1006.94,516.397 1009.1,587.632 1011.26,657.66 1013.42,658.182 1015.58,727.156 1017.74,522.686 1019.9,457.279 1022.06,661.233 1024.22,528.208 1026.39,596.374 1028.55,531.606 1030.71,598.891 1032.87,665.097 1035.03,730.595 1037.19,730.711 1039.35,730.827 1041.51,601.691 1043.67,602.72 1045.83,603.739 1047.99,604.747 1050.15,605.744 1052.31,606.731 1054.47,670.278 1056.63,608.353 1058.79,609.313 1060.95,425.727 1063.11,612.136 1065.28,552.366 1067.44,674.662 1069.6,614.874 1071.76,615.769 1073.92,616.654 1076.08,676.838 1078.24,618.112 1080.4,560.243 1082.56,620.112 1084.72,562.88 1086.88,622.068 1089.04,565.459 1091.2,509.924 1093.36,455.698 1095.52,514.779 1097.68,516.932 1099.84,574.222 1102,465.971 1104.17,468.933 1106.33,579.489 1108.49,580.766 1110.65,475.642 1112.81,425.817 1114.97,429.54 1117.13,433.189 1119.29,385.772 1121.45,390.34 1123.61,394.807 1125.77,448.512 1127.93,451.794 1130.09,406.599 1132.25,410.717 1134.41,367.405 1136.57,278.975 1138.73,332.239 1140.9,292.618 1143.06,434.154 1145.22,437.712 1147.38,441.201 1149.54,751.666 1151.7,532.403 1153.86,490.903 1156.02,450.454 1158.18,411.17 1160.34,457.279 1162.5,460.399 1164.66,463.461 1166.82,548.508 1168.98,590.989 1171.14,551.55 1173.3,472.681 1175.46,395.909 1177.62,518.45 1179.79,442.301 1181.95,678.687 1184.11,640.252 1186.27,679.559 1188.43,679.929 1190.59,680.296 1192.75,795.741 1194.91,680.661 1197.07,452.669 1199.23,380.777 1201.39,608.674 1203.55,721.183 1205.71,795.741 1207.87,647.082 1210.03,832.849 1212.19,907.293 1214.35,721.335 1216.51,758.595 1218.68,758.633 1220.84,537.039 1223,648.733 1225.16,722.459 1227.32,649.619 1229.48,686.533 1231.64,686.86 1233.8,651.071 1235.96,687.615 1238.12,687.936 1240.28,545.43 1242.44,617.996 1244.6,689.509 1246.76,654.579 1248.92,725.365 1251.08,725.501 1253.24,655.666 1255.4,691.038 1257.57,691.338 1259.73,657.002 1261.89,726.569 1264.05,726.701 1266.21,726.831 1268.37,589.791 1270.53,625.002 1272.69,727.669 1274.85,727.796 1277.01,694.061 1279.17,728.112 1281.33,728.238 1283.49,728.363 1285.65,661.357 1287.81,628.456 1289.97,629.222 1292.13,663.072 1294.3,862.015 1296.46,995.291 1298.62,929.385 1300.78,695.463 1302.94,662.465 1305.1,762.498 1307.26,762.529 1309.42,663.193 1311.58,729.648 1313.74,729.768 1315.9,664.152 1318.06,599.245 1320.22,665.331 1322.38,665.797 1324.54,633.961 1326.7,699.017 1328.86,635.103 1331.02,699.698 1333.19,636.23 1335.35,668.634 1337.51,700.701 1339.67,669.406 1341.83,732.738 1343.99,670.061 1346.15,733.064 1348.31,701.927 1350.47,577.777 1352.63,702.726 1354.79,641.242 1356.95,641.896 1359.11,642.544 1361.27,643.186 1363.43,674.156 1365.59,674.561 1367.75,674.963 1369.91,645.33 1372.08,675.858 1374.24,616.654 1376.4,528.753 1378.56,618.831 1380.72,678.277 1382.88,678.655 1385.04,795.741 1387.2,708.173 1389.36,621.235 1391.52,650.956 1393.68,680.327 1395.84,451.678 1398,653.336 1400.16,625.588 1402.32,710.962 1404.48,739.331 1406.64,570.972 1408.81,628.071 1410.97,490.338 1413.13,547.759 1415.29,549.437 1417.45,714.009 1419.61,659.928 1421.77,660.433 1423.93,768.74 1426.09,795.741 1428.25,714.857 1430.41,661.332 1432.57,688.571 1434.73,742.274 1436.89,689.042 1439.05,689.354 1441.21,742.664 1443.37,636.973 1445.53,690.279 1447.7,769.423 1449.86,716.902 1452.02,664.721 1454.18,717.355 1456.34,717.523 1458.5,691.711 1460.66,692.008 1462.82,718.135 1464.98,718.3 1467.14,641.352 1469.3,693.178 1471.46,744.568 1473.62,668.121 1475.78,719.384 1477.94,744.925 1480.1,669.01 1482.26,694.673 1484.42,770.518 1486.59,745.347 1488.75,720.281 1490.91,745.521 1493.07,645.496 1495.23,695.921 1497.39,721.055 1499.55,795.741 1501.71,696.398 1503.87,696.669 1506.03,771.015 1508.19,721.664 1510.35,697.205 1512.51,672.945 1514.67,648.931 1516.83,722.558 1518.99,771.379 1521.15,698.457 1523.32,722.948 1525.48,698.91 1527.64,699.167 1529.8,723.478 1531.96,651.644 1534.12,723.906 1536.28,724.048 1538.44,748.024 1540.6,724.282 1542.76,748.18 1544.92,700.805 1547.08,748.366 1549.24,748.427 1551.4,607.098 1553.56,725.252 1555.72,678.561 1557.88,655.621 1560.04,725.883 1562.21,726.017 1564.37,726.15 1566.53,749.421 1568.69,680.198 1570.85,680.564 1573.01,680.928 1575.17,704.15 1577.33,727.199 1579.49,727.328 1581.65,772.965 1583.81,772.98 1585.97,795.741 1588.13,727.542 1590.29,750.346 1592.45,705.12 1594.61,705.345 1596.77,728.091 1598.93,750.711 1601.1,773.247 1603.26,750.794 1605.42,795.741 1607.58,795.741 1609.74,750.85 1611.9,706.124 1614.06,751.015 1616.22,706.454 1618.38,751.18 1620.54,773.481 1622.7,706.836 1624.86,751.37 1627.02,729.286 1629.18,729.407 1631.34,795.741 1633.5,773.657 1635.66,553.691 1637.82,773.816 1639.99,795.741 1642.15,642.636 1644.31,708.541 1646.47,643.641 1648.63,730.75 1650.79,730.866 1652.95,709.42 1655.11,688.127 1657.27,645.614 1659.43,582.342 1661.59,817.025 1663.75,731.928 1665.91,583.834 1668.07,690.249 1670.23,795.741 1672.39,606.622 1674.55,732.919 1676.72,733.028 1678.88,712.291 1681.04,587.949 1683.2,712.955 1685.36,775.074 1687.52,733.81 1689.68,610.578 1691.84,713.748 1694,857.219 1696.16,795.741 1698.32,652.455 1700.48,898.031 1702.64,816.234 1704.8,816.245 1706.96,734.264 1709.12,734.367 1711.28,693.681 1713.44,633.038 1715.61,755.179 1717.77,775.477 1719.93,714.797 1722.09,694.814 1724.25,735.319 1726.41,715.334 1728.57,735.552 1730.73,735.651 1732.89,635.985 1735.05,597.027 1737.21,736.338 1739.37,934.5 1741.53,855.372 1743.69,755.977 1745.85,676.708 1748.01,637.634 1750.17,677.61 1752.33,835.076 1754.5,776.069 1756.66,697.538 1758.82,639.165 1760.98,717.705 1763.14,717.872 1765.3,737.448 1767.46,640.749 1769.62,660.662 1771.78,757.239 1773.94,776.505 1776.1,680.54 1778.26,604.546 1780.42,624.52 1782.58,795.741 1784.74,814.726 1786.9,644.139 1789.06,663.606 1791.23,682.863 1793.39,814.53 1795.55,776.952 1797.71,571.03 1799.87,572.409 1802.03,298.2 1804.19,740.877 1806.35,978.946 1808.51,795.741 1810.67,576.006 1812.83,777.49 1814.99,741.042 1817.15,614.001 1819.31,687.131 1821.47,705.48 1823.63,597.951 1825.79,634.708 1827.95,974.711 1830.12,957.57 1832.28,777.725 1834.44,598.146 1836.6,735.419 1838.76,654.903 1840.92,607.028 1843.08,686.727 1845.24,645.675 1847.4,711.545 1849.56,731.013 1851.72,784.526 1853.88,641.886 1856.04,683.732 1858.2,510.918 1860.36,690.451 1862.52,670.514 1864.68,707.876 1866.84,665.789 1869.01,711.631 1871.17,581.071 1873.33,416.48 1875.49,536.827 1877.65,849.939 1879.81,764.643 1881.97,1109.94 1884.13,1445.72 1886.29,1096.55 1888.45,703.777 1890.61,663.446 1892.77,831.681 1894.93,759.118 1897.09,742.241 1899.25,495.011 1901.41,806.584 1903.57,674.113 1905.74,725.555 1907.9,686.681 1910.06,674.108 1912.22,776.82 1914.38,772.145 1916.54,830.388 1918.7,783.687 1920.86,787.372 1923.02,814.658 1925.18,810.982 1927.34,727.793 1929.5,742.609 1931.66,737.019 1933.82,669.276 1935.98,703.666 1938.14,649.893 1940.3,677.936 1942.46,678.972 1944.63,607.99 1946.79,625.349 1948.95,680.16 1951.11,795.741 1953.27,700.537 1955.43,681.149 1957.59,716.816 1959.75,771.183 1961.91,728.57 1964.07,787.093 1966.23,696.758 1968.39,718.055 1970.55,719.651 1972.71,735.365 1974.87,871.069 1977.03,825.82 1979.19,785.235 1981.35,584.977 1983.52,622.554 1985.68,697.752 1987.84,856.895 1990,800.147 1992.16,723.743 1994.32,598.711 1996.48,898.195 1998.64,871.791 2000.8,780.676 2002.96,709.234 2005.12,724.59 2007.28,708.985 2009.44,782.029 2011.6,776.272 2013.76,728.692 2015.92,699.662 2018.08,707.646 2020.24,755.712 2022.41,721.518 2024.57,727.977 2026.73,726.567 2028.89,747.704 2031.05,754.814 2033.21,801.563 2035.37,793.137 2037.53,802.943 2039.69,864.305 2041.85,908.146 2044.01,1028.26 2046.17,703.636 2048.33,697.855 2050.49,757.831 2052.65,675.952 2054.81,695.171 2056.97,738.07 2059.14,795.894 2061.3,877.61 2063.46,759.757 2065.62,752.302 2067.78,834.896 2069.94,812.425 2072.1,844.153 2074.26,681.862 2076.42,656.632 2078.58,709.827 2080.74,694.88 2082.9,814.073 2085.06,728.521 2087.22,700.422 2089.38,710.604 2091.54,752.871 2093.7,704.004 2095.86,648.933 2098.03,737.839 2100.19,812.744 2102.35,750.865 2104.51,823.913 2106.67,772.04 2108.83,783.822 2110.99,655.98 2113.15,610.421 2115.31,767.552 2117.47,698.797 2119.63,719.164 2121.79,641.314 2123.95,697.916 2126.11,788.743 2128.27,701.105 2130.43,713.68 2132.59,762.968 2134.75,767.343 2136.92,730.769 2139.08,720.784 2141.24,710.716 2143.4,821.372 2145.56,770.83 2147.72,825.406 2149.88,686.706 2152.04,658.402 2154.2,659.204 2156.36,786.761 2158.52,807.572 2160.68,711.867 2162.84,762.473 2165,739.794 2167.16,693.017 2169.32,693.448 2171.48,689.936 2173.65,756.934 2175.81,747.992 2177.97,949.888 2180.13,1082.13 2182.29,835.254 2184.45,631.716 2186.61,597.516 2188.77,661.102 2190.93,713.769 2193.09,754.055 2195.25,705.538 2197.41,641.269 2199.57,724.571 2201.73,648.433 2203.89,613.025 2206.05,543.625 2208.21,564.601 2210.37,497.168 2212.54,617.392 2214.7,689.55 2216.86,649.585 2219.02,458.95 2221.18,485.783 2223.34,534.499 2225.5,591.336 2227.66,520.414 2229.82,411.852 2231.98,642.834 2234.14,470.23 2236.3,344.37 2238.46,798.085 2240.62,767.136 2242.78,656.489 2244.94,609.35 2247.1,699.978 2249.26,775.767 2251.43,608.222 2253.59,656.337 2255.75,767.394 2257.91,640.764 2260.07,755.781 2262.23,719.302 2264.39,721.015 2266.55,610.011 2268.71,665.143 2270.87,766.98 2273.03,737.46 2275.19,711.028 2277.35,684.781 2279.51,635.254 2281.67,658.442 2283.83,682.068 2285.99,793.65 2288.16,816.191 2290.32,739.415 2292.48,727.686 "></polyline>
<path clip-path="url(#clip170)" d="M293.867 1438.47 L559.286 1438.47 L559.286 1334.79 L293.867 1334.79  Z" fill="#ffffff" fill-rule="evenodd" fill-opacity="1"></path>
<polyline clip-path="url(#clip170)" style="stroke:#000000; stroke-linecap:round; stroke-linejoin:round; stroke-width:4; stroke-opacity:1; fill:none" points="293.867,1438.47 559.286,1438.47 559.286,1334.79 293.867,1334.79 293.867,1438.47 "></polyline>
<polyline clip-path="url(#clip170)" style="stroke:#009af9; stroke-linecap:round; stroke-linejoin:round; stroke-width:4; stroke-opacity:1; fill:none" points="317.533,1386.63 459.525,1386.63 "></polyline>
<path clip-path="url(#clip170)" d="M497.033 1406.32 Q495.227 1410.95 493.514 1412.36 Q491.801 1413.78 488.931 1413.78 L485.528 1413.78 L485.528 1410.21 L488.028 1410.21 Q489.787 1410.21 490.76 1409.38 Q491.732 1408.54 492.912 1405.44 L493.676 1403.5 L483.19 1377.99 L487.704 1377.99 L495.806 1398.27 L503.908 1377.99 L508.422 1377.99 L497.033 1406.32 Z" fill="#000000" fill-rule="nonzero" fill-opacity="1"></path><path clip-path="url(#clip170)" d="M515.713 1399.98 L523.352 1399.98 L523.352 1373.61 L515.042 1375.28 L515.042 1371.02 L523.306 1369.35 L527.982 1369.35 L527.982 1399.98 L535.621 1399.98 L535.621 1403.91 L515.713 1403.91 L515.713 1399.98 Z" fill="#000000" fill-rule="nonzero" fill-opacity="1"></path></svg>