<svg xmlns="http://www.w3.org/2000/svg" xmlns:xlink="http://www.w3.org/1999/xlink" width="600" height="400" viewBox="0 0 2400 1600">
<defs>
  <clipPath id="clip530">
    <rect x="0" y="0" width="2400" height="1600"></rect>
  </clipPath>
</defs>
<path clip-path="url(#clip530)" d="M0 1600 L2400 1600 L2400 8.88178e-14 L0 8.88178e-14  Z" fill="#ffffff" fill-rule="evenodd" fill-opacity="1"></path>
<defs>
  <clipPath id="clip531">
    <rect x="480" y="0" width="1681" height="1600"></rect>
  </clipPath>
</defs>
<path clip-path="url(#clip530)" d="M140.696 1486.45 L2352.76 1486.45 L2352.76 47.2441 L140.696 47.2441  Z" fill="#ffffff" fill-rule="evenodd" fill-opacity="1"></path>
<defs>
  <clipPath id="clip532">
    <rect x="140" y="47" width="2213" height="1440"></rect>
  </clipPath>
</defs>
<polyline clip-path="url(#clip532)" style="stroke:#000000; stroke-linecap:round; stroke-linejoin:round; stroke-width:2; stroke-opacity:0.1; fill:none" points="303.036,1486.45 303.036,47.2441 "></polyline>
<polyline clip-path="url(#clip532)" style="stroke:#000000; stroke-linecap:round; stroke-linejoin:round; stroke-width:2; stroke-opacity:0.1; fill:none" points="942.854,1486.45 942.854,47.2441 "></polyline>
<polyline clip-path="url(#clip532)" style="stroke:#000000; stroke-linecap:round; stroke-linejoin:round; stroke-width:2; stroke-opacity:0.1; fill:none" points="1582.67,1486.45 1582.67,47.2441 "></polyline>
<polyline clip-path="url(#clip532)" style="stroke:#000000; stroke-linecap:round; stroke-linejoin:round; stroke-width:2; stroke-opacity:0.1; fill:none" points="2222.49,1486.45 2222.49,47.2441 "></polyline>
<polyline clip-path="url(#clip532)" style="stroke:#000000; stroke-linecap:round; stroke-linejoin:round; stroke-width:2; stroke-opacity:0.1; fill:none" points="140.696,1445.72 2352.76,1445.72 "></polyline>
<polyline clip-path="url(#clip532)" style="stroke:#000000; stroke-linecap:round; stroke-linejoin:round; stroke-width:2; stroke-opacity:0.1; fill:none" points="140.696,1171.01 2352.76,1171.01 "></polyline>
<polyline clip-path="url(#clip532)" style="stroke:#000000; stroke-linecap:round; stroke-linejoin:round; stroke-width:2; stroke-opacity:0.1; fill:none" points="140.696,896.312 2352.76,896.312 "></polyline>
<polyline clip-path="url(#clip532)" style="stroke:#000000; stroke-linecap:round; stroke-linejoin:round; stroke-width:2; stroke-opacity:0.1; fill:none" points="140.696,621.61 2352.76,621.61 "></polyline>
<polyline clip-path="url(#clip532)" style="stroke:#000000; stroke-linecap:round; stroke-linejoin:round; stroke-width:2; stroke-opacity:0.1; fill:none" points="140.696,346.908 2352.76,346.908 "></polyline>
<polyline clip-path="url(#clip532)" style="stroke:#000000; stroke-linecap:round; stroke-linejoin:round; stroke-width:2; stroke-opacity:0.1; fill:none" points="140.696,72.2054 2352.76,72.2054 "></polyline>
<polyline clip-path="url(#clip530)" style="stroke:#000000; stroke-linecap:round; stroke-linejoin:round; stroke-width:4; stroke-opacity:1; fill:none" points="140.696,1486.45 2352.76,1486.45 "></polyline>
<polyline clip-path="url(#clip530)" style="stroke:#000000; stroke-linecap:round; stroke-linejoin:round; stroke-width:4; stroke-opacity:1; fill:none" points="303.036,1486.45 303.036,1467.55 "></polyline>
<polyline clip-path="url(#clip530)" style="stroke:#000000; stroke-linecap:round; stroke-linejoin:round; stroke-width:4; stroke-opacity:1; fill:none" points="942.854,1486.45 942.854,1467.55 "></polyline>
<polyline clip-path="url(#clip530)" style="stroke:#000000; stroke-linecap:round; stroke-linejoin:round; stroke-width:4; stroke-opacity:1; fill:none" points="1582.67,1486.45 1582.67,1467.55 "></polyline>
<polyline clip-path="url(#clip530)" style="stroke:#000000; stroke-linecap:round; stroke-linejoin:round; stroke-width:4; stroke-opacity:1; fill:none" points="2222.49,1486.45 2222.49,1467.55 "></polyline>
<path clip-path="url(#clip530)" d="M265.837 1517.37 Q262.226 1517.37 260.398 1520.93 Q258.592 1524.47 258.592 1531.6 Q258.592 1538.71 260.398 1542.27 Q262.226 1545.82 265.837 1545.82 Q269.472 1545.82 271.277 1542.27 Q273.106 1538.71 273.106 1531.6 Q273.106 1524.47 271.277 1520.93 Q269.472 1517.37 265.837 1517.37 M265.837 1513.66 Q271.647 1513.66 274.703 1518.27 Q277.782 1522.85 277.782 1531.6 Q277.782 1540.33 274.703 1544.94 Q271.647 1549.52 265.837 1549.52 Q260.027 1549.52 256.948 1544.94 Q253.893 1540.33 253.893 1531.6 Q253.893 1522.85 256.948 1518.27 Q260.027 1513.66 265.837 1513.66 Z" fill="#000000" fill-rule="nonzero" fill-opacity="1"></path><path clip-path="url(#clip530)" d="M285.999 1542.97 L290.883 1542.97 L290.883 1548.85 L285.999 1548.85 L285.999 1542.97 Z" fill="#000000" fill-rule="nonzero" fill-opacity="1"></path><path clip-path="url(#clip530)" d="M311.069 1532.44 Q307.735 1532.44 305.814 1534.22 Q303.916 1536 303.916 1539.13 Q303.916 1542.25 305.814 1544.03 Q307.735 1545.82 311.069 1545.82 Q314.402 1545.82 316.323 1544.03 Q318.244 1542.23 318.244 1539.13 Q318.244 1536 316.323 1534.22 Q314.425 1532.44 311.069 1532.44 M306.393 1530.45 Q303.383 1529.7 301.694 1527.64 Q300.027 1525.58 300.027 1522.62 Q300.027 1518.48 302.967 1516.07 Q305.93 1513.66 311.069 1513.66 Q316.231 1513.66 319.17 1516.07 Q322.11 1518.48 322.11 1522.62 Q322.11 1525.58 320.42 1527.64 Q318.754 1529.7 315.768 1530.45 Q319.147 1531.23 321.022 1533.52 Q322.92 1535.82 322.92 1539.13 Q322.92 1544.15 319.842 1546.83 Q316.786 1549.52 311.069 1549.52 Q305.351 1549.52 302.272 1546.83 Q299.217 1544.15 299.217 1539.13 Q299.217 1535.82 301.115 1533.52 Q303.013 1531.23 306.393 1530.45 M304.68 1523.06 Q304.68 1525.75 306.346 1527.25 Q308.036 1528.76 311.069 1528.76 Q314.078 1528.76 315.768 1527.25 Q317.481 1525.75 317.481 1523.06 Q317.481 1520.38 315.768 1518.87 Q314.078 1517.37 311.069 1517.37 Q308.036 1517.37 306.346 1518.87 Q304.68 1520.38 304.68 1523.06 Z" fill="#000000" fill-rule="nonzero" fill-opacity="1"></path><path clip-path="url(#clip530)" d="M331.277 1514.29 L349.633 1514.29 L349.633 1518.22 L335.559 1518.22 L335.559 1526.7 Q336.578 1526.35 337.596 1526.19 Q338.615 1526 339.633 1526 Q345.42 1526 348.8 1529.17 Q352.179 1532.34 352.179 1537.76 Q352.179 1543.34 348.707 1546.44 Q345.235 1549.52 338.916 1549.52 Q336.74 1549.52 334.471 1549.15 Q332.226 1548.78 329.818 1548.04 L329.818 1543.34 Q331.902 1544.47 334.124 1545.03 Q336.346 1545.58 338.823 1545.58 Q342.828 1545.58 345.166 1543.48 Q347.504 1541.37 347.504 1537.76 Q347.504 1534.15 345.166 1532.04 Q342.828 1529.94 338.823 1529.94 Q336.948 1529.94 335.073 1530.35 Q333.221 1530.77 331.277 1531.65 L331.277 1514.29 Z" fill="#000000" fill-rule="nonzero" fill-opacity="1"></path><path clip-path="url(#clip530)" d="M905.158 1517.37 Q901.546 1517.37 899.718 1520.93 Q897.912 1524.47 897.912 1531.6 Q897.912 1538.71 899.718 1542.27 Q901.546 1545.82 905.158 1545.82 Q908.792 1545.82 910.597 1542.27 Q912.426 1538.71 912.426 1531.6 Q912.426 1524.47 910.597 1520.93 Q908.792 1517.37 905.158 1517.37 M905.158 1513.66 Q910.968 1513.66 914.023 1518.27 Q917.102 1522.85 917.102 1531.6 Q917.102 1540.33 914.023 1544.94 Q910.968 1549.52 905.158 1549.52 Q899.347 1549.52 896.269 1544.94 Q893.213 1540.33 893.213 1531.6 Q893.213 1522.85 896.269 1518.27 Q899.347 1513.66 905.158 1513.66 Z" fill="#000000" fill-rule="nonzero" fill-opacity="1"></path><path clip-path="url(#clip530)" d="M925.319 1542.97 L930.204 1542.97 L930.204 1548.85 L925.319 1548.85 L925.319 1542.97 Z" fill="#000000" fill-rule="nonzero" fill-opacity="1"></path><path clip-path="url(#clip530)" d="M940.528 1548.13 L940.528 1543.87 Q942.287 1544.7 944.092 1545.14 Q945.898 1545.58 947.634 1545.58 Q952.264 1545.58 954.694 1542.48 Q957.148 1539.36 957.495 1533.01 Q956.153 1535.01 954.092 1536.07 Q952.032 1537.13 949.532 1537.13 Q944.347 1537.13 941.315 1534.01 Q938.305 1530.86 938.305 1525.42 Q938.305 1520.1 941.454 1516.88 Q944.602 1513.66 949.833 1513.66 Q955.829 1513.66 958.977 1518.27 Q962.148 1522.85 962.148 1531.6 Q962.148 1539.77 958.259 1544.66 Q954.393 1549.52 947.842 1549.52 Q946.083 1549.52 944.278 1549.17 Q942.472 1548.82 940.528 1548.13 M949.833 1533.48 Q952.981 1533.48 954.81 1531.32 Q956.662 1529.17 956.662 1525.42 Q956.662 1521.7 954.81 1519.54 Q952.981 1517.37 949.833 1517.37 Q946.685 1517.37 944.833 1519.54 Q943.005 1521.7 943.005 1525.42 Q943.005 1529.17 944.833 1531.32 Q946.685 1533.48 949.833 1533.48 Z" fill="#000000" fill-rule="nonzero" fill-opacity="1"></path><path clip-path="url(#clip530)" d="M980.551 1517.37 Q976.94 1517.37 975.111 1520.93 Q973.305 1524.47 973.305 1531.6 Q973.305 1538.71 975.111 1542.27 Q976.94 1545.82 980.551 1545.82 Q984.185 1545.82 985.99 1542.27 Q987.819 1538.71 987.819 1531.6 Q987.819 1524.47 985.99 1520.93 Q984.185 1517.37 980.551 1517.37 M980.551 1513.66 Q986.361 1513.66 989.416 1518.27 Q992.495 1522.85 992.495 1531.6 Q992.495 1540.33 989.416 1544.94 Q986.361 1549.52 980.551 1549.52 Q974.74 1549.52 971.662 1544.94 Q968.606 1540.33 968.606 1531.6 Q968.606 1522.85 971.662 1518.27 Q974.74 1513.66 980.551 1513.66 Z" fill="#000000" fill-rule="nonzero" fill-opacity="1"></path><path clip-path="url(#clip530)" d="M1545.47 1517.37 Q1541.86 1517.37 1540.03 1520.93 Q1538.23 1524.47 1538.23 1531.6 Q1538.23 1538.71 1540.03 1542.27 Q1541.86 1545.82 1545.47 1545.82 Q1549.11 1545.82 1550.91 1542.27 Q1552.74 1538.71 1552.74 1531.6 Q1552.74 1524.47 1550.91 1520.93 Q1549.11 1517.37 1545.47 1517.37 M1545.47 1513.66 Q1551.28 1513.66 1554.34 1518.27 Q1557.42 1522.85 1557.42 1531.6 Q1557.42 1540.33 1554.34 1544.94 Q1551.28 1549.52 1545.47 1549.52 Q1539.66 1549.52 1536.58 1544.94 Q1533.53 1540.33 1533.53 1531.6 Q1533.53 1522.85 1536.58 1518.27 Q1539.66 1513.66 1545.47 1513.66 Z" fill="#000000" fill-rule="nonzero" fill-opacity="1"></path><path clip-path="url(#clip530)" d="M1565.64 1542.97 L1570.52 1542.97 L1570.52 1548.85 L1565.64 1548.85 L1565.64 1542.97 Z" fill="#000000" fill-rule="nonzero" fill-opacity="1"></path><path clip-path="url(#clip530)" d="M1580.84 1548.13 L1580.84 1543.87 Q1582.6 1544.7 1584.41 1545.14 Q1586.21 1545.58 1587.95 1545.58 Q1592.58 1545.58 1595.01 1542.48 Q1597.46 1539.36 1597.81 1533.01 Q1596.47 1535.01 1594.41 1536.07 Q1592.35 1537.13 1589.85 1537.13 Q1584.66 1537.13 1581.63 1534.01 Q1578.62 1530.86 1578.62 1525.42 Q1578.62 1520.1 1581.77 1516.88 Q1584.92 1513.66 1590.15 1513.66 Q1596.14 1513.66 1599.29 1518.27 Q1602.46 1522.85 1602.46 1531.6 Q1602.46 1539.77 1598.57 1544.66 Q1594.71 1549.52 1588.16 1549.52 Q1586.4 1549.52 1584.59 1549.17 Q1582.79 1548.82 1580.84 1548.13 M1590.15 1533.48 Q1593.3 1533.48 1595.13 1531.32 Q1596.98 1529.17 1596.98 1525.42 Q1596.98 1521.7 1595.13 1519.54 Q1593.3 1517.37 1590.15 1517.37 Q1587 1517.37 1585.15 1519.54 Q1583.32 1521.7 1583.32 1525.42 Q1583.32 1529.17 1585.15 1531.32 Q1587 1533.48 1590.15 1533.48 Z" fill="#000000" fill-rule="nonzero" fill-opacity="1"></path><path clip-path="url(#clip530)" d="M1610.91 1514.29 L1629.27 1514.29 L1629.27 1518.22 L1615.19 1518.22 L1615.19 1526.7 Q1616.21 1526.35 1617.23 1526.19 Q1618.25 1526 1619.27 1526 Q1625.06 1526 1628.44 1529.17 Q1631.82 1532.34 1631.82 1537.76 Q1631.82 1543.34 1628.34 1546.44 Q1624.87 1549.52 1618.55 1549.52 Q1616.38 1549.52 1614.11 1549.15 Q1611.86 1548.78 1609.45 1548.04 L1609.45 1543.34 Q1611.54 1544.47 1613.76 1545.03 Q1615.98 1545.58 1618.46 1545.58 Q1622.46 1545.58 1624.8 1543.48 Q1627.14 1541.37 1627.14 1537.76 Q1627.14 1534.15 1624.8 1532.04 Q1622.46 1529.94 1618.46 1529.94 Q1616.58 1529.94 1614.71 1530.35 Q1612.86 1530.77 1610.91 1531.65 L1610.91 1514.29 Z" fill="#000000" fill-rule="nonzero" fill-opacity="1"></path><path clip-path="url(#clip530)" d="M2174.56 1544.91 L2182.2 1544.91 L2182.2 1518.55 L2173.89 1520.21 L2173.89 1515.95 L2182.15 1514.29 L2186.83 1514.29 L2186.83 1544.91 L2194.47 1544.91 L2194.47 1548.85 L2174.56 1548.85 L2174.56 1544.91 Z" fill="#000000" fill-rule="nonzero" fill-opacity="1"></path><path clip-path="url(#clip530)" d="M2203.91 1542.97 L2208.8 1542.97 L2208.8 1548.85 L2203.91 1548.85 L2203.91 1542.97 Z" fill="#000000" fill-rule="nonzero" fill-opacity="1"></path><path clip-path="url(#clip530)" d="M2228.98 1517.37 Q2225.37 1517.37 2223.54 1520.93 Q2221.74 1524.47 2221.74 1531.6 Q2221.74 1538.71 2223.54 1542.27 Q2225.37 1545.82 2228.98 1545.82 Q2232.62 1545.82 2234.42 1542.27 Q2236.25 1538.71 2236.25 1531.6 Q2236.25 1524.47 2234.42 1520.93 Q2232.62 1517.37 2228.98 1517.37 M2228.98 1513.66 Q2234.79 1513.66 2237.85 1518.27 Q2240.93 1522.85 2240.93 1531.6 Q2240.93 1540.33 2237.85 1544.94 Q2234.79 1549.52 2228.98 1549.52 Q2223.17 1549.52 2220.09 1544.94 Q2217.04 1540.33 2217.04 1531.6 Q2217.04 1522.85 2220.09 1518.27 Q2223.17 1513.66 2228.98 1513.66 Z" fill="#000000" fill-rule="nonzero" fill-opacity="1"></path><path clip-path="url(#clip530)" d="M2259.14 1517.37 Q2255.53 1517.37 2253.7 1520.93 Q2251.9 1524.47 2251.9 1531.6 Q2251.9 1538.71 2253.7 1542.27 Q2255.53 1545.82 2259.14 1545.82 Q2262.78 1545.82 2264.58 1542.27 Q2266.41 1538.71 2266.41 1531.6 Q2266.41 1524.47 2264.58 1520.93 Q2262.78 1517.37 2259.14 1517.37 M2259.14 1513.66 Q2264.95 1513.66 2268.01 1518.27 Q2271.09 1522.85 2271.09 1531.6 Q2271.09 1540.33 2268.01 1544.94 Q2264.95 1549.52 2259.14 1549.52 Q2253.33 1549.52 2250.26 1544.94 Q2247.2 1540.33 2247.2 1531.6 Q2247.2 1522.85 2250.26 1518.27 Q2253.33 1513.66 2259.14 1513.66 Z" fill="#000000" fill-rule="nonzero" fill-opacity="1"></path><polyline clip-path="url(#clip530)" style="stroke:#000000; stroke-linecap:round; stroke-linejoin:round; stroke-width:4; stroke-opacity:1; fill:none" points="140.696,1486.45 140.696,47.2441 "></polyline>
<polyline clip-path="url(#clip530)" style="stroke:#000000; stroke-linecap:round; stroke-linejoin:round; stroke-width:4; stroke-opacity:1; fill:none" points="140.696,1445.72 159.593,1445.72 "></polyline>
<polyline clip-path="url(#clip530)" style="stroke:#000000; stroke-linecap:round; stroke-linejoin:round; stroke-width:4; stroke-opacity:1; fill:none" points="140.696,1171.01 159.593,1171.01 "></polyline>
<polyline clip-path="url(#clip530)" style="stroke:#000000; stroke-linecap:round; stroke-linejoin:round; stroke-width:4; stroke-opacity:1; fill:none" points="140.696,896.312 159.593,896.312 "></polyline>
<polyline clip-path="url(#clip530)" style="stroke:#000000; stroke-linecap:round; stroke-linejoin:round; stroke-width:4; stroke-opacity:1; fill:none" points="140.696,621.61 159.593,621.61 "></polyline>
<polyline clip-path="url(#clip530)" style="stroke:#000000; stroke-linecap:round; stroke-linejoin:round; stroke-width:4; stroke-opacity:1; fill:none" points="140.696,346.908 159.593,346.908 "></polyline>
<polyline clip-path="url(#clip530)" style="stroke:#000000; stroke-linecap:round; stroke-linejoin:round; stroke-width:4; stroke-opacity:1; fill:none" points="140.696,72.2054 159.593,72.2054 "></polyline>
<path clip-path="url(#clip530)" d="M92.7512 1431.51 Q89.1401 1431.51 87.3114 1435.08 Q85.5058 1438.62 85.5058 1445.75 Q85.5058 1452.86 87.3114 1456.42 Q89.1401 1459.96 92.7512 1459.96 Q96.3854 1459.96 98.1909 1456.42 Q100.02 1452.86 100.02 1445.75 Q100.02 1438.62 98.1909 1435.08 Q96.3854 1431.51 92.7512 1431.51 M92.7512 1427.81 Q98.5613 1427.81 101.617 1432.42 Q104.696 1437 104.696 1445.75 Q104.696 1454.48 101.617 1459.08 Q98.5613 1463.67 92.7512 1463.67 Q86.941 1463.67 83.8623 1459.08 Q80.8068 1454.48 80.8068 1445.75 Q80.8068 1437 83.8623 1432.42 Q86.941 1427.81 92.7512 1427.81 Z" fill="#000000" fill-rule="nonzero" fill-opacity="1"></path><path clip-path="url(#clip530)" d="M83.7929 1153.73 L102.149 1153.73 L102.149 1157.67 L88.0753 1157.67 L88.0753 1166.14 Q89.0938 1165.79 90.1123 1165.63 Q91.1308 1165.45 92.1493 1165.45 Q97.9363 1165.45 101.316 1168.62 Q104.696 1171.79 104.696 1177.21 Q104.696 1182.78 101.223 1185.89 Q97.7511 1188.97 91.4317 1188.97 Q89.2558 1188.97 86.9873 1188.59 Q84.7419 1188.22 82.3346 1187.48 L82.3346 1182.78 Q84.4179 1183.92 86.6401 1184.47 Q88.8623 1185.03 91.3391 1185.03 Q95.3437 1185.03 97.6817 1182.92 Q100.02 1180.82 100.02 1177.21 Q100.02 1173.6 97.6817 1171.49 Q95.3437 1169.38 91.3391 1169.38 Q89.4641 1169.38 87.5892 1169.8 Q85.7373 1170.22 83.7929 1171.1 L83.7929 1153.73 Z" fill="#000000" fill-rule="nonzero" fill-opacity="1"></path><path clip-path="url(#clip530)" d="M53.3995 909.657 L61.0384 909.657 L61.0384 883.291 L52.7282 884.958 L52.7282 880.699 L60.9921 879.032 L65.668 879.032 L65.668 909.657 L73.3068 909.657 L73.3068 913.592 L53.3995 913.592 L53.3995 909.657 Z" fill="#000000" fill-rule="nonzero" fill-opacity="1"></path><path clip-path="url(#clip530)" d="M92.7512 882.111 Q89.1401 882.111 87.3114 885.675 Q85.5058 889.217 85.5058 896.347 Q85.5058 903.453 87.3114 907.018 Q89.1401 910.559 92.7512 910.559 Q96.3854 910.559 98.1909 907.018 Q100.02 903.453 100.02 896.347 Q100.02 889.217 98.1909 885.675 Q96.3854 882.111 92.7512 882.111 M92.7512 878.407 Q98.5613 878.407 101.617 883.013 Q104.696 887.597 104.696 896.347 Q104.696 905.073 101.617 909.68 Q98.5613 914.263 92.7512 914.263 Q86.941 914.263 83.8623 909.68 Q80.8068 905.073 80.8068 896.347 Q80.8068 887.597 83.8623 883.013 Q86.941 878.407 92.7512 878.407 Z" fill="#000000" fill-rule="nonzero" fill-opacity="1"></path><path clip-path="url(#clip530)" d="M54.3949 634.955 L62.0337 634.955 L62.0337 608.589 L53.7236 610.256 L53.7236 605.996 L61.9874 604.33 L66.6633 604.33 L66.6633 634.955 L74.3022 634.955 L74.3022 638.89 L54.3949 638.89 L54.3949 634.955 Z" fill="#000000" fill-rule="nonzero" fill-opacity="1"></path><path clip-path="url(#clip530)" d="M83.7929 604.33 L102.149 604.33 L102.149 608.265 L88.0753 608.265 L88.0753 616.737 Q89.0938 616.39 90.1123 616.228 Q91.1308 616.043 92.1493 616.043 Q97.9363 616.043 101.316 619.214 Q104.696 622.385 104.696 627.802 Q104.696 633.38 101.223 636.482 Q97.7511 639.561 91.4317 639.561 Q89.2558 639.561 86.9873 639.191 Q84.7419 638.82 82.3346 638.08 L82.3346 633.38 Q84.4179 634.515 86.6401 635.07 Q88.8623 635.626 91.3391 635.626 Q95.3437 635.626 97.6817 633.519 Q100.02 631.413 100.02 627.802 Q100.02 624.191 97.6817 622.084 Q95.3437 619.978 91.3391 619.978 Q89.4641 619.978 87.5892 620.394 Q85.7373 620.811 83.7929 621.691 L83.7929 604.33 Z" fill="#000000" fill-rule="nonzero" fill-opacity="1"></path><path clip-path="url(#clip530)" d="M56.6171 360.252 L72.9365 360.252 L72.9365 364.188 L50.9921 364.188 L50.9921 360.252 Q53.6541 357.498 58.2375 352.868 Q62.8439 348.215 64.0245 346.873 Q66.2698 344.35 67.1494 342.614 Q68.0522 340.854 68.0522 339.165 Q68.0522 336.41 66.1078 334.674 Q64.1865 332.938 61.0847 332.938 Q58.8856 332.938 56.4319 333.702 Q54.0014 334.466 51.2236 336.016 L51.2236 331.294 Q54.0477 330.16 56.5014 329.581 Q58.955 329.003 60.9921 329.003 Q66.3624 329.003 69.5568 331.688 Q72.7513 334.373 72.7513 338.864 Q72.7513 340.993 71.9411 342.915 Q71.1541 344.813 69.0476 347.405 Q68.4689 348.077 65.367 351.294 Q62.2652 354.489 56.6171 360.252 Z" fill="#000000" fill-rule="nonzero" fill-opacity="1"></path><path clip-path="url(#clip530)" d="M92.7512 332.706 Q89.1401 332.706 87.3114 336.271 Q85.5058 339.813 85.5058 346.942 Q85.5058 354.049 87.3114 357.614 Q89.1401 361.155 92.7512 361.155 Q96.3854 361.155 98.1909 357.614 Q100.02 354.049 100.02 346.942 Q100.02 339.813 98.1909 336.271 Q96.3854 332.706 92.7512 332.706 M92.7512 329.003 Q98.5613 329.003 101.617 333.609 Q104.696 338.192 104.696 346.942 Q104.696 355.669 101.617 360.276 Q98.5613 364.859 92.7512 364.859 Q86.941 364.859 83.8623 360.276 Q80.8068 355.669 80.8068 346.942 Q80.8068 338.192 83.8623 333.609 Q86.941 329.003 92.7512 329.003 Z" fill="#000000" fill-rule="nonzero" fill-opacity="1"></path><path clip-path="url(#clip530)" d="M57.6125 85.5503 L73.9318 85.5503 L73.9318 89.4854 L51.9875 89.4854 L51.9875 85.5503 Q54.6495 82.7956 59.2328 78.166 Q63.8393 73.5133 65.0198 72.1707 Q67.2652 69.6476 68.1448 67.9115 Q69.0476 66.1522 69.0476 64.4624 Q69.0476 61.7078 67.1032 59.9717 Q65.1819 58.2356 62.08 58.2356 Q59.881 58.2356 57.4273 58.9995 Q54.9967 59.7634 52.219 61.3143 L52.219 56.5921 Q55.043 55.4578 57.4967 54.8791 Q59.9504 54.3004 61.9874 54.3004 Q67.3578 54.3004 70.5522 56.9856 Q73.7466 59.6708 73.7466 64.1615 Q73.7466 66.2911 72.9365 68.2124 Q72.1494 70.1105 70.0429 72.7031 Q69.4642 73.3744 66.3624 76.592 Q63.2606 79.7864 57.6125 85.5503 Z" fill="#000000" fill-rule="nonzero" fill-opacity="1"></path><path clip-path="url(#clip530)" d="M83.7929 54.9254 L102.149 54.9254 L102.149 58.8606 L88.0753 58.8606 L88.0753 67.3328 Q89.0938 66.9855 90.1123 66.8235 Q91.1308 66.6383 92.1493 66.6383 Q97.9363 66.6383 101.316 69.8096 Q104.696 72.9809 104.696 78.3975 Q104.696 83.9762 101.223 87.078 Q97.7511 90.1567 91.4317 90.1567 Q89.2558 90.1567 86.9873 89.7863 Q84.7419 89.416 82.3346 88.6752 L82.3346 83.9762 Q84.4179 85.1104 86.6401 85.666 Q88.8623 86.2216 91.3391 86.2216 Q95.3437 86.2216 97.6817 84.1151 Q100.02 82.0086 100.02 78.3975 Q100.02 74.7864 97.6817 72.68 Q95.3437 70.5735 91.3391 70.5735 Q89.4641 70.5735 87.5892 70.9902 Q85.7373 71.4068 83.7929 72.2864 L83.7929 54.9254 Z" fill="#000000" fill-rule="nonzero" fill-opacity="1"></path><polyline clip-path="url(#clip532)" style="stroke:#009af9; stroke-linecap:round; stroke-linejoin:round; stroke-width:4; stroke-opacity:1; fill:none" points="203.301,1445.72 213.788,1445.71 224.274,1445.71 234.761,1445.7 245.248,1445.68 255.734,1445.63 266.221,1445.55 276.708,1445.42 287.194,1445.24 297.681,1445.05 308.168,1444.88 318.655,1444.79 329.141,1444.8 339.628,1444.9 350.115,1445.04 360.601,1445.17 371.088,1445.21 381.575,1445.16 392.061,1445.04 402.548,1444.9 413.035,1444.8 423.521,1444.79 434.008,1444.88 444.495,1445.05 454.981,1445.23 465.468,1445.38 475.955,1445.45 486.441,1445.43 496.928,1445.31 507.415,1445.1 517.901,1444.81 528.388,1444.46 538.875,1444.07 549.361,1443.6 559.848,1443.05 570.335,1442.38 580.822,1441.61 591.308,1440.78 601.795,1439.98 612.282,1439.26 622.768,1438.69 633.255,1438.28 643.742,1438.02 654.228,1437.8 664.715,1437.47 675.202,1436.87 685.688,1435.96 696.175,1434.83 706.662,1433.72 717.148,1432.89 727.635,1432.58 738.122,1432.83 748.608,1433.53 759.095,1434.42 769.582,1435.2 780.068,1435.64 790.555,1435.65 801.042,1435.27 811.528,1434.59 822.015,1433.69 832.502,1432.6 842.989,1431.33 853.475,1429.9 863.962,1428.36 874.449,1426.8 884.935,1425.31 895.422,1423.87 905.909,1422.33 916.395,1420.4 926.882,1417.8 937.369,1414.39 947.855,1410.34 958.342,1406.08 968.829,1402.08 979.315,1398.48 989.802,1394.97 1000.29,1390.88 1010.78,1385.54 1021.26,1378.7 1031.75,1370.57 1042.24,1361.72 1052.72,1352.71 1063.21,1343.87 1073.7,1335.19 1084.18,1326.5 1094.67,1317.55 1105.16,1308.24 1115.64,1298.47 1126.13,1288.09 1136.62,1276.66 1147.1,1263.57 1157.59,1248.35 1168.08,1230.99 1178.56,1212.21 1189.05,1193.24 1199.54,1175.35 1210.02,1159.32 1220.51,1145.05 1231,1131.46 1241.48,1116.76 1251.97,1099.01 1262.46,1076.91 1272.94,1050.32 1283.43,1020.35 1293.92,988.831 1304.4,957.34 1314.89,926.42 1325.38,895.36 1335.86,862.782 1346.35,827.75 1356.84,790.721 1367.32,753.662 1377.81,719.062 1388.3,688.379 1398.78,660.928 1409.27,634.033 1419.76,604.367 1430.24,569.609 1440.73,529.452 1451.22,485.545 1461.7,440.629 1472.19,397.384 1482.68,357.493 1493.16,321.296 1503.65,288.209 1514.14,257.613 1524.62,229.511 1535.11,204.433 1545.6,182.738 1556.08,164.056 1566.57,147.427 1577.06,131.97 1587.54,117.51 1598.03,104.714 1608.52,94.7819 1619,88.9349 1629.49,87.9763 1639.98,92.0316 1650.46,100.54 1660.95,112.534 1671.44,127.18 1681.92,144.342 1692.41,164.72 1702.9,189.272 1713.38,218.212 1723.87,250.417 1734.36,283.796 1744.84,316.44 1755.33,347.751 1765.82,378.872 1776.3,412.226 1786.79,450.44 1797.28,495.136 1807.76,546.192 1818.25,601.818 1828.74,659.386 1839.22,716.462 1849.71,771.486 1860.2,823.886 1870.68,873.8 1881.17,921.692 1891.66,968.016 1902.14,1012.94 1912.63,1056.16 1923.12,1096.94 1933.6,1134.46 1944.09,1168.19 1954.58,1198.23 1965.06,1225.22 1975.55,1250.06 1986.04,1273.55 1996.52,1296.22 2007.01,1318.19 2017.5,1339.3 2027.98,1359.1 2038.47,1377.05 2048.96,1392.64 2059.44,1405.6 2069.93,1415.95 2080.42,1423.93 2090.9,1429.92 2101.39,1434.29 2111.88,1437.37 2122.36,1439.44 2132.85,1440.76 2143.34,1441.59 2153.82,1442.18 2164.31,1442.72 2174.8,1443.29 2185.28,1443.89 2195.77,1444.45 2206.26,1444.92 2216.74,1445.26 2227.23,1445.48 2237.72,1445.61 2248.2,1445.67 2258.69,1445.7 2269.18,1445.71 2279.66,1445.71 2290.15,1445.72 "></polyline>
<path clip-path="url(#clip530)" d="M2005.38 198.898 L2279.02 198.898 L2279.02 95.2176 L2005.38 95.2176  Z" fill="#ffffff" fill-rule="evenodd" fill-opacity="1"></path>
<polyline clip-path="url(#clip530)" style="stroke:#000000; stroke-linecap:round; stroke-linejoin:round; stroke-width:4; stroke-opacity:1; fill:none" points="2005.38,198.898 2279.02,198.898 2279.02,95.2176 2005.38,95.2176 2005.38,198.898 "></polyline>
<polyline clip-path="url(#clip530)" style="stroke:#009af9; stroke-linecap:round; stroke-linejoin:round; stroke-width:4; stroke-opacity:1; fill:none" points="2029.96,147.058 2177.43,147.058 "></polyline>
<path clip-path="url(#clip530)" d="M2215.85 166.745 Q2214.05 171.375 2212.34 172.787 Q2210.62 174.199 2207.75 174.199 L2204.35 174.199 L2204.35 170.634 L2206.85 170.634 Q2208.61 170.634 2209.58 169.8 Q2210.55 168.967 2211.73 165.865 L2212.5 163.921 L2202.01 138.412 L2206.53 138.412 L2214.63 158.689 L2222.73 138.412 L2227.24 138.412 L2215.85 166.745 Z" fill="#000000" fill-rule="nonzero" fill-opacity="1"></path><path clip-path="url(#clip530)" d="M2234.53 160.402 L2242.17 160.402 L2242.17 134.037 L2233.86 135.703 L2233.86 131.444 L2242.13 129.778 L2246.8 129.778 L2246.8 160.402 L2254.44 160.402 L2254.44 164.338 L2234.53 164.338 L2234.53 160.402 Z" fill="#000000" fill-rule="nonzero" fill-opacity="1"></path></svg>